<svg id="Livello_1" data-name="Livello 1" xmlns="http://www.w3.org/2000/svg" viewBox="0 0 800 800"><defs><style>.cls-1{fill:#26475c;}</style></defs><path class="cls-1" d="M718.18,618.94c-3.77,5.87-8.67,6.85-15.4,5.07-32.85-8.71-65.8-17-98.73-25.42-2-.5-4-.8-6.72-1.35-2,11.27-3.84,22.13-5.71,33-.17,1-.19,2.06-.4,3.07-1.43,6.9-5.9,11-11.1,10.14-6.1-1-9.23-6.39-7.93-13.78,1.89-10.76,3.8-21.52,5.66-32.29a43.93,43.93,0,0,0,.27-4.51c-9.8-2-19.53-4.48-29.39-6.07C504.36,579.66,460,572.31,415.54,566c-20-2.85-40.31-3.53-60.48-5.17-4.66-.38-7.82-2.74-8.85-7.27-1-4.19.28-8,4.23-10.06a13.69,13.69,0,0,1,6.48-1.35c7.4.19,14.78.72,22.79,1.15,1.21-10.94,2.43-21.54,3.55-32.16q4.85-45.87,9.64-91.75a32.39,32.39,0,0,1,.33-3.7c2.11-9.13.91-16-7.79-22.47-10.14-7.51-9.23-19.92-8-31.49,3.26-30.58,6.4-61.17,9.66-91.75,3.22-30.17,6.22-60.36,9.91-90.47,2-16.27,16.74-27.09,33.26-25.63,15,1.33,27.75,14.81,27.14,30.25-.57,14.41-2.54,28.77-4,43.14-2.67,25.87-5.44,51.73-8.16,77.59-2.53,24-4.72,48.08-7.71,72-1.43,11.42-8.07,19.79-19.13,23.84-3.39,1.25-4.9,3-5.25,6.54-2,20.33-4.18,40.65-6.31,61q-3.6,34.49-7.2,69c-.23,2.24-.25,4.5-.33,6.08l182.59,28.93c1.88-10.82,4-22.75,6-34.68,2.8-16.46,5.63-32.92,8.21-49.41.33-2.15.08-5.64-1.25-6.58-13.33-9.42-15.53-22.16-12.92-37.24q15.13-87.75,29.7-175.61c2.71-16.2,11-26.38,24.39-29.37a30.71,30.71,0,0,1,37,35.47q-5.38,31.69-10.76,63.41c-1.18,6.9-5.57,10.93-11,10.15-5.87-.84-9-6-7.84-13.09,3.29-19.72,6.66-39.43,10-59.15a40.76,40.76,0,0,0,.5-4.93c.36-7.77-3.27-12.67-9.81-13.29s-11.53,3.32-12.81,10.62c-3,17.05-5.83,34.14-8.71,51.21Q611.78,384,601,448.38a41,41,0,0,0-.72,6.13c-.12,6.95,3.58,11.57,9.62,12.23,6.56.7,11.49-2.78,12.82-9.78,2.28-11.95,4.2-24,6.22-36,2.54-15,5-30.1,7.56-45.13,1.11-6.41,5.63-10,11.1-9.2,5.78.85,8.84,5.73,7.72,12.55q-6.49,39.34-13.08,78.7c-2.28,13.51-9.22,23.07-22.87,27.29-1.81.56-3.67,3.63-4.05,5.79-5,28.63-9.8,57.3-14.78,86.82,8.46,2.09,17,4.12,25.44,6.31,27.52,7.09,55.06,14.11,82.5,21.5,3.52,1,6.51,3.86,9.74,5.87ZM437.91,190.2c.54-11.35-2.91-16.54-9.87-17.25-6.33-.63-11.76,3.89-12.53,11q-5.07,46.73-9.93,93.48c-3.18,30.34-6.26,60.69-9.51,91-.87,8.06,2.62,14.09,9.23,15.05,7.39,1.08,12.69-3.18,13.73-11.57,1.13-9,1.81-18.05,2.74-27.07q4-38.76,8.12-77.5C432.65,240.9,435.39,214.45,437.91,190.2Z"/><path class="cls-1" d="M169.23,558.85c-2.5-15-4.9-29.39-7.33-43.81-5.16-30.7-10.41-61.38-15.43-92.1-.86-5.31-2-8.89-8.15-11-14.13-4.82-18.21-17-20.43-30.57C108.65,325.26,99,269.18,89.82,213c-1.28-7.81-2.27-16.23-.7-23.82,2.89-14,16.76-23.46,30.22-22.68a31.22,31.22,0,0,1,29.3,26.5q13.86,82,27.48,164.08c.92,5.49,1.62,11,2.79,16.46,3.41,15.79-.58,28.59-15,37.58l23.76,141.37,78.17-11.47c.08-1,.35-2.82.35-4.59,0-14.47-.05-28.94.07-43.41,0-3.39-.67-5.45-4.12-7.18-10.38-5.19-16.13-13.81-16.79-25.58-.1-1.86-.22-3.71-.22-5.57q0-90.55-.07-181.1c0-12.37,3.28-23,14.12-29.85,9.79-6.2,20.31-6.74,30.61-1.38,10.55,5.49,16.35,14.55,16.46,26.48.25,26.66.1,53.33.1,80,0,35.56-.13,71.12.07,106.68.07,14.19-5.39,24.65-18.28,31.08a5.6,5.6,0,0,0-2.76,4c-.19,16.5-.12,33-.12,50.2,7.57,0,14.72,0,21.87,0s11.44,3.48,11.58,9.21-4,9.4-11.19,9.63-14.37.05-22.27.05v74.85c0,1.65.08,3.31-.05,5-.45,5.45-4,9-9,9.23-5.47.22-9.53-3-9.7-8.92-.38-14-.26-28.1-.3-42.16,0-11.75,0-23.49,0-36.29-10.87,1-21.1,1.67-31.22,3.07-29.08,4-57.63,10.16-84.58,22.28-18,8.11-34.5,18.58-48.41,32.8-.58.59-1.13,1.2-1.74,1.77-5,4.63-10.24,5-14.27,1.12s-4.24-9.74.61-14.24c8.45-7.85,16.64-16.49,26.42-22.29,15.34-9.1,31.91-16.14,48-24C163.38,560.75,166,560.05,169.23,558.85ZM264.14,364q0,45.23.05,90.46a26.45,26.45,0,0,0,1,7.89c1.72,5.43,6,8,11.41,7.52s9.23-3.51,10-9.28a59.44,59.44,0,0,0,.58-8q0-88.59,0-177.2a59.56,59.56,0,0,0-.58-8c-.79-5.78-4.72-8.77-10-9.27s-9.7,2.08-11.42,7.52a26.48,26.48,0,0,0-1,7.89Q264.09,318.79,264.14,364ZM161,382.54c-.9-5.37-1.9-11.26-2.89-17.15Q147.3,300.74,136.43,236.1c-2.33-13.82-4.51-27.67-7.35-41.38a10.73,10.73,0,0,0-13-8.61,11.76,11.76,0,0,0-9.13,13.48c.78,5.51,1.91,11,2.83,16.45q11.45,68.31,22.9,136.61c1.91,11.38,3.7,22.79,6.14,34.06a10.75,10.75,0,0,0,12.65,8.35C157.13,394.07,161.13,389.07,161,382.54Z"/></svg>