<?xml version="1.0" encoding="utf-8"?>
<!-- Generator: Adobe Illustrator 28.4.1, SVG Export Plug-In . SVG Version: 6.00 Build 0)  -->
<svg version="1.1" id="Livello_1" xmlns="http://www.w3.org/2000/svg" xmlns:xlink="http://www.w3.org/1999/xlink" x="0px" y="0px"
	 viewBox="0 0 761.6 798.9" style="enable-background:new 0 0 761.6 798.9;" xml:space="preserve">
<style type="text/css">
	.st0{fill:#26475C;}
</style>
<g>
	<path class="st0" d="M189.9,796.8c-2-0.5-3.9-1.3-5.7-2.4c-11.4-7.3-14.9-19.8-14.9-32.7c0-0.1,0-0.3,0-0.4
		c0.5-84.2,0-168.3,0.4-252.5c0.1-20.8-7-37.4-22.1-51.6c-45.1-42.3-89.9-85.1-134.7-127.7c-18.5-17.5-17-38.1,3.7-53
		c22.3-16.1,53.3-14.4,73.7,4.5c7.6,7,14.4,15,22.2,21.9c3.7,3.3,8.2,7.9,13.1,9.4c7.1,2.2,7.5-10.8,7.9-15.5
		c0.5-6.5,0.1-13,0.1-19.5c0-13.1,0.1-26.1,0.1-39.2c0-26.1,0-52.3,0-78.4c0-22.5,0-44.9,0.1-67.4c0.1-28.5,22-48.2,50.1-45.3
		c5,0.5,9.9,2.4,14.9,3.6c6.4-34.2,22-49.9,48.2-48.6c24.4,1.2,40.4,19.3,42.6,48.4c-0.1-0.7,16.2-3,17.8-3.1
		c8.3-0.3,16.7,1.8,24.5,4.6c4.9,1.8,9.7,4.5,15.1,4.6c20.7,0.4,41.4,0.2,62.2,0.2c2.1,0,4.2-0.1,6.2,0.1
		c7.2,0.8,11.6,5.7,11.3,12.3c-0.4,6.4-4.7,10.7-11.9,10.7c-17.1,0.2-34.2,0.1-51.3,0.1c-2.8,0-5.5,0-8.3,0v25.1
		c4.1-1.3,7.4-2.5,10.8-3.3c18.3-4.4,36.4,2.7,47.8,18.3c1.8,2.4,5.5,4.8,8.4,4.8c103.8,0.2,207.7,0.2,311.5,0.2
		c1.3,0,2.5-0.2,4.7-0.4c0-13.3,0.2-26.4-0.2-39.5c-0.1-1.8-1.1-4.3-5.2-4.8c-2.1-0.2-4.8-0.4-7.1-0.4c-82.9,0-165.7,0-248.6,0
		c-2.6,0-5.2,0.1-7.8-0.1c-5.4-0.3-10.1-4.3-11.1-9.6c-1.2-6.7,3.1-12.3,10.1-13.4c2.3-0.4,4.6-0.2,7-0.2c84.7,0,169.4,0,254.1,0
		c21.9,0,32.2,10.4,32.2,32.4c0,179.2,0,358.4,0,537.6c0,21.9-10.4,32.3-32.4,32.3c-21.8,0-43.5,0-65.3,0c-5.8,0-11-1.2-13.7-6.8
		c-4-8.2,1.8-16.4,12-16.5c21.8-0.2,43.5,0,65.3-0.1c10.8,0,10.8,0,10.8-10.8c0-155.9,0-311.8,0-467.7c0-2.6,0-5.1,0-8.3H421.7v18.1
		c5.8,0,11.8-0.8,17.5,0.1c23.7,3.9,40.9,24.2,41.1,48.4c0.2,28,0.1,55.9,0.1,84.3c2.2,0.5,4.2,0.9,6.1,1.4
		c10,2.3,15.5,8.8,15.9,19.2c0.2,8,0.2,16.1,0.1,24.1c-0.2,13.2-5.4,19.1-18.5,21.6c-1,0.2-1.9,0.6-3.5,1c0,3.1,0,6.2,0,9.2
		c0,69.1-0.1,138.3,0.1,207.4c0,13.1-2.7,25-10,36c-2.9,4.4-4.5,9.5-7.4,15.9c4.7,0,7.4,0,10.2,0c42.2,0,84.4,0,126.6,0
		c2.6,0,5.2-0.1,7.8,0.2c5.9,0.8,9.3,4.4,9.9,10.3c0.5,5.8-2.1,10.2-7.8,11.9c-2.9,0.9-6.1,0.9-9.2,0.9
		c-44.3,0.1-88.6,0.1-132.9-0.1c-4.9,0-7.8,1.2-10.6,5.8c-12.1,19.6-40.5,18.7-53.1-0.5c-2.7-4.1-5.5-5.4-10.3-5.2
		c-10.6,0.3-21.2,0.1-33,0.1c0,3.1,0,5.9,0,8.6c0,31.3-0.6,62.7,0.2,94c0.3,10.9-2.8,23.6-11.5,30.9c-4.8,4-10.3,5.2-16.4,5.1
		c-9-0.1-18.1,0-27.1,0c-22.5,0-45,0-67.6,0c-9.7,0-19.3,0.3-29,0.3C203,797.6,196.1,798.4,189.9,796.8z M380.9,299.7
		c0-27.5,0.1-54.7,0-81.8c0-10.7,1.4-21.5,8.7-29.1c8.3-8.8,9-18.4,8.5-29c-0.2-4.4,0-8.8-0.1-13.2c-0.3-13.4-9-22.9-21.2-23.1
		c-11.8-0.2-20.7,8.8-21.6,21.9c-0.2,2.8-0.1,5.7-0.1,8.5c0,33.4,0.1,66.8-0.1,100.2c0,7.9-4.7,13-11.3,13.1
		c-6.6,0.1-11.3-5-11.8-12.7c-0.2-2.3-0.1-4.7-0.1-7c0-49.7,0-99.5,0-149.2c0-3.6,0-7.3-0.5-10.8c-1.3-9.6-9.3-16.9-18.9-17.5
		c-13.6-1-23.2,8.3-23.2,23c-0.1,52.6,0,105.1-0.1,157.7c0,2.8,0.3,5.8-0.4,8.5c-1.5,5.9-5.6,9.4-11.9,9.1c-6.2-0.3-10-4-10.9-10.2
		c-0.4-2.5-0.1-5.2-0.1-7.8c0-65.8,0-131.6,0-197.3c0-3.1,0.1-6.3-0.3-9.3c-1.5-10-9.5-17.5-19.3-18.4c-9.4-0.8-19.2,5.1-21.8,14.1
		c-1.3,4.4-1.5,9.2-1.5,13.8c-0.1,65.5-0.1,131-0.1,196.6c0,3.1,0.1,6.3-0.4,9.3c-0.9,5.6-4.6,8.7-10,9.2
		c-5.8,0.5-10.2-2.1-11.9-7.8c-0.9-3.2-1-6.6-1-10c-0.1-50.8,0-101.5,0-152.3c0-3.1,0-6.2-0.3-9.3c-1.1-11-9.8-18.9-20.9-19
		c-13.1-0.1-21.4,9.2-21.4,24.1c0,69.9,0,139.9,0,209.8c0,14.9-6.9,26-19.3,30.7c-13.3,5.1-24.8,1.7-34.7-8.3
		c-8.9-9-17.8-18.1-27-26.9c-12.7-12.2-30.8-14-44.9-4.6c-6.7,4.5-7.2,13.1-1.3,18.7c44.5,42.3,88.9,84.7,133.7,126.7
		c19.9,18.6,29.7,40.8,29.6,68.2c-0.3,85.2-0.1,170.4-0.1,255.6c0,13.4-3,12.3,24.7,13.2c33.1,1.1,64.1,3,97.2,1.5
		c28.5-1.3,24.3,1.4,25.3-33.7c1.9-65.1,3.5-130.5-2.2-195.4c-3.8-43.3,2.8-79,37.1-103.8c0.6-0.4,1.3-1,1.6-1.6
		c1.5-3.4,4-6.7,4-10.2c0.4-20.5,0.2-40.9,0.2-61.4c0-2-0.3-3.9-0.5-5.7c-17.5-3.7-21.4-8.6-21.4-26.1c0-4.9,0-9.8,0-14.8
		C359,308.4,362.9,303.5,380.9,299.7z M456.8,483.8V366.4h-52.2v117.4H456.8z M404.7,507.8c-0.2,1.7-0.5,2.7-0.5,3.7
		c0,25.9-0.3,51.8,0.2,77.7c0.1,5.1,2.1,10.8,4.8,15.2c7.6,12.4,12.3,25.6,13,40.1c0.3,5.6,1.4,10.9,8.1,11.1
		c7.2,0.3,8.8-5.1,9-11.1c0.5-14.6,5.5-27.6,12.8-40.2c3-5.1,4.7-11.6,4.8-17.5c0.5-24.1,0.2-48.1,0.2-72.2c0-2.2-0.3-4.4-0.5-6.8
		H404.7z M457.1,300c0-27.8,0-54.7,0-81.6c0-17.4-10.7-28.9-26.5-28.9c-15.6,0-26.3,11.8-26.4,29.1c-0.1,24.8,0,49.7,0,74.5
		c0,2.2,0.3,4.5,0.4,6.8H457.1z M398.1,635c-3-6.5-5-12-8.1-16.9c-6.5-10.2-9.3-21-9.2-33.1c0.2-34.7,0.1-69.4,0.1-104
		c0-2.7,0-5.3,0-8.9c-13.3,10.9-20.1,26.1-20.1,44.1c-0.1,37.5,0,75.1,0,112.6c0,2,0.3,4,0.5,6.2H398.1z M478.5,337.1V329
		c0-2.6-2.1-4.8-4.8-4.8h-86.5c-2.4,0-4.4,2-4.4,4.4v9.2c0,2.5,2.1,4.6,4.6,4.6h85.9C476.1,342.3,478.5,340,478.5,337.1z"/>
	<path class="st0" d="M423,796.7c-2.6-0.6-5.2-1.5-7.8-2.6c-20.3-8.8-30.1-32.7-20.2-52.5c7.7-15.5,16.7-30.3,25.7-45.1
		c5.1-8.5,15-8.4,20.2,0.1c8.8,14.6,17.7,29.2,25.4,44.4c5.8,11.5,5.3,25.2-1.1,36.3c-2.7,4.6-6.3,8.7-10.5,11.9
		c-2.2,1.7-4.6,3.1-7.1,4.3c-5,2.4-10.5,3.8-16.1,4C428.4,797.6,425.7,797.3,423,796.7z M430.7,725.2c-5.6,9.9-10.9,18.3-15.1,27.3
		c-3.1,6.6,0.1,14.4,6,18.5c6,4.2,13.8,3.9,19.4-0.8c5.4-4.4,7.8-12.4,4.5-18.9C441.2,742.9,436.1,734.8,430.7,725.2z"/>
	<path class="st0" d="M654.9,341c-13.7,0-27.4,0.1-41.1,0c-9-0.1-14.1-4.5-14.1-11.8c0.1-7.3,5.1-11.4,14.4-11.4
		c27.1,0,54.3,0,81.4,0c9.1,0,14.5,4.3,14.6,11.4c0.1,7.3-5.4,11.8-14.9,11.9C681.8,341,668.4,341,654.9,341z"/>
	<path class="st0" d="M655.2,442.5c-14,0-27.9,0.1-41.9,0c-8.8-0.1-13.5-4.1-13.5-11.4c0-7.2,4.8-11.8,13.3-11.8
		c27.9-0.2,55.8-0.2,83.7,0c8.3,0.1,13.5,5.1,13.3,12c-0.2,6.9-5.3,11.1-13.9,11.2C682.6,442.5,668.9,442.5,655.2,442.5z"/>
	<path class="st0" d="M654.6,218.3c14,0,27.9-0.1,41.9,0c8.5,0.1,13.7,4.5,13.8,11.4c0.1,6.9-5.1,11.8-13.5,11.8
		c-27.9,0.2-55.8,0.2-83.7,0c-8.6-0.1-13.3-4.7-13.2-12c0.1-7.2,4.8-11.2,13.7-11.2C627.2,218.2,640.9,218.3,654.6,218.3z"/>
	<path class="st0" d="M655.2,523c13.7,0,27.4-0.1,41.1,0c8.6,0.1,13.7,4.4,13.9,11.2c0.2,7.1-5.2,12-14.1,12
		c-27.4,0.1-54.8,0.1-82.2,0c-9.3,0-14.2-4.3-14.1-11.8c0-7.5,4.8-11.4,14.3-11.5C627.8,522.9,641.5,523,655.2,523z"/>
	<path class="st0" d="M543.6,430.3c7.4-8,12.4-13.9,17.8-19.3c5.9-5.9,12.9-6.2,17.8-1.3c5,5.1,4.7,11.5-1.4,17.8
		c-7.9,8.1-15.9,16.2-24.1,24.1c-6.3,6.1-12,6-18.3,0c-5.4-5.2-10.8-10.4-15.9-15.9c-4.9-5.3-4.9-12-0.2-16.6
		c4.6-4.6,11.4-4.7,16.6,0.4C538.5,422,540.3,425.6,543.6,430.3z"/>
	<path class="st0" d="M543.8,533c7.1-7.5,12.4-13.4,18.1-19c5.8-5.7,12.2-5.9,17.2-1.1c5,4.8,4.9,11.4-0.6,17.2
		c-8.3,8.6-16.6,17-25.2,25.3c-5.7,5.4-11.5,5.4-17.2,0.1c-5.7-5.3-11.2-10.8-16.5-16.5c-4.9-5.3-4.8-12.1-0.2-16.7
		c4.8-4.7,11.1-4.8,16.6,0.4C538.7,525.5,540.7,529,543.8,533z"/>
	<path class="st0" d="M543.7,228.2c6.9-7.2,12.1-12.9,17.6-18.3c6.2-6.1,12.6-6.6,17.8-1.6c5.1,5,4.8,11.6-1.1,17.8
		c-7.9,8.2-16,16.2-24.2,24.2c-6.3,6.1-12.1,6.1-18.4,0.2c-5.5-5.2-10.8-10.5-15.9-16c-4.9-5.3-4.8-12.1-0.2-16.7
		c4.8-4.7,11.1-4.8,16.6,0.4C538.6,220.8,540.7,224.2,543.7,228.2z"/>
	<path class="st0" d="M544.2,327.3c6.4-6.8,11.6-12.6,17-18c6.1-6,12.8-6.5,17.8-1.6c5.2,5,4.9,11.6-1.1,17.7
		c-7.9,8.2-15.9,16.2-24.1,24.1c-6.4,6.2-12.5,6-19-0.2c-5.2-5-10.4-10.1-15.3-15.4c-4.9-5.3-4.9-12.2-0.5-16.7
		c4.5-4.5,11.4-4.6,16.7,0.3C538.5,320.2,540.8,323.4,544.2,327.3z"/>
	<path class="st0" d="M296.1,654.2c9.7-0.1,15,4.1,14.9,11.6c-0.1,7.3-5.3,11.6-14.3,11.7c-9.3,0.1-15.1-4.5-15-11.8
		C281.8,658.6,287.2,654.2,296.1,654.2z"/>
	<path class="st0" d="M296.2,730.4c-8.9,0-14.4-4.3-14.5-11.4c-0.1-7.3,5.6-11.9,14.9-11.9c9,0,14.3,4.2,14.4,11.5
		C311.1,726.2,305.8,730.5,296.2,730.4z"/>
	<path class="st0" d="M239.9,654.2c9,0.1,14,4.4,13.9,11.8c-0.1,7.5-5.6,11.7-15.2,11.5c-8.7-0.1-14.2-4.9-14-12
		C224.8,658.1,230.2,654.1,239.9,654.2z"/>
	<path class="st0" d="M239.7,707.1c8.9,0.1,14.1,4.4,14.1,11.7c0,7.6-5.3,11.7-15,11.6c-8.9-0.1-14.3-4.5-14.3-11.7
		C224.6,711.4,230.3,707.1,239.7,707.1z"/>
	<path class="st0" d="M296.8,624.4c-9.3,0.1-15.1-4.5-15.1-11.8c0-7,5.5-11.5,14.4-11.5c9.7-0.1,15,4.1,14.9,11.6
		C311,620,305.8,624.3,296.8,624.4z"/>
	<path class="st0" d="M239.9,601.1c9.1,0.1,14,4.3,13.9,11.8c-0.1,7.5-5.6,11.7-15.1,11.5c-8.7-0.1-14.2-4.8-14-12
		C224.8,605,230.2,601,239.9,601.1z"/>
	<path class="st0" d="M296.1,571.2c-8.8-0.1-14.4-4.6-14.4-11.7c0-7.3,5.7-11.7,15.1-11.6c9.1,0.1,14.2,4.2,14.2,11.6
		C311,567.1,305.6,571.4,296.1,571.2z"/>
	<path class="st0" d="M239.6,571.2c-9.3,0.1-15-4.3-15-11.7c0-7.1,5.4-11.5,14.3-11.6c9.7-0.1,14.9,3.9,14.9,11.6
		C253.8,567,248.7,571.1,239.6,571.2z"/>
</g>
</svg>
