<svg id="Livello_1" data-name="Livello 1" xmlns="http://www.w3.org/2000/svg" viewBox="0 0 800 800"><defs><style>.cls-1{fill:#26475c;stroke:#fff;stroke-miterlimit:10;stroke-width:3px;}</style></defs><path class="cls-1" d="M359.87,717.25a43.5,43.5,0,0,1-17.67-7.75c-12.52-9-18.53-21.68-18.51-37.26q.1-94.28,0-188.55v-7.44c-8.94,0-18,1.63-26.14-.33-17.51-4.2-28.38-19.78-28.41-38.18-.08-47.76-.19-95.52,0-143.27.21-41.59,32.37-80.81,73.1-89.79,2-.44,4-1,5.22-1.25-3.91-9.05-9.24-17.67-11.36-27-5.86-25.8-3.57-50.19,14.87-71.49,21.7-25.05,63.44-28.29,89.94-8.59,33.38,24.81,33.07,79,13.46,103.29-.64.79-1.14,1.69-2.19,3.26,3.84,1.05,7.26,1.94,10.66,2.93a95.18,95.18,0,0,1,69.17,91.57c.08,45.89-.67,91.8.29,137.68.55,26.1-22.35,49.55-52.22,41-.58-.16-1.2-.21-2.63-.45,0,11,.1,21.85,0,32.68-.1,7.48-4.71,12.45-11.51,12.86-7.9.47-13.18-4.84-13.22-13.64-.1-25.43-.1-50.85-.14-76.28v-7.32H348.8c-.1,1.95-.27,3.76-.27,5.56q0,120.33,0,240.65c0,8.64,2.43,15.91,10.28,20.45,10.63,6.15,24.6.8,28.14-11a38.65,38.65,0,0,0,1.27-11q.1-97.36.06-194.74c0-9.4,4.33-14.77,11.93-15a12.13,12.13,0,0,1,12.74,11,55.69,55.69,0,0,1,.11,6.2q0,97.07,0,194.13c0,11.1,4.63,18.72,13.05,21.78,13.53,4.93,26.47-4.8,26.6-20.29.18-20.25,0-40.52.08-60.78,0-7.65,4.36-12.61,11.1-13.21,7.19-.64,13.45,4.09,13.51,11.29.21,23.35,1.1,46.79-.45,70-1,15.58-11.84,29.06-25.78,35.45a43,43,0,0,1-22.77,3.83c-9.5-1.13-19.14-7.64-27.75-11.63-1.81-.84-12.64,5.86-14.73,6.83C377.29,717.5,369.49,719.11,359.87,717.25Zm92.74-319.33v-6.71l.12-85.59c0-1.24,0-2.48,0-3.72.31-7.59,5.28-12.81,12.25-12.88s12.4,5.11,12.47,12.61c.16,18.19.06,36.38.06,54.58,0,26.87,0,53.75,0,80.63,0,7.41,3.6,12.7,9.79,15,5.87,2.18,11.76,1.12,15.2-3.61a26,26,0,0,0,4.57-14.18c.33-44.65.3-89.31.17-134-.12-42.3-30.92-73-73.27-73.14-22.33-.09-44.65-.15-67,.08a80.34,80.34,0,0,0-17.78,2c-33.64,8-55.17,35.55-55.28,70.66-.14,44.87-.06,89.73,0,134.59a33.24,33.24,0,0,0,1.18,8.53c1.58,5.76,7.41,9.91,13.48,10s12.16-3.95,13.74-9.65a39.72,39.72,0,0,0,1.28-10.37q.13-63.88.08-127.77a26.93,26.93,0,0,1,.63-7.36,12.26,12.26,0,0,1,13.47-8.52c6.29.84,10.62,5.95,10.64,13.14.07,28.95,0,57.89,0,86.83v8.84Zm-9.5-242.85c-.4-3.68-.69-7.38-1.24-11-2.37-15.83-11.15-26.92-25.84-32.78-15.21-6.07-29.56-3.58-42.28,6.78-13.31,10.86-16.15,25.78-15.24,41.83,1.73,30.23,28.6,49,56.25,39.57C432.47,193.36,442.8,177,443.11,155.07Z"/><path class="cls-1" d="M477.49,560.4a12.91,12.91,0,0,1-12.22,12.39c-6.6.12-12.59-6-12.52-12.7a12.37,12.37,0,0,1,24.74.31Z"/></svg>