<svg id="Livello_1" data-name="Livello 1" xmlns="http://www.w3.org/2000/svg" viewBox="0 0 800 800"><defs><style>.cls-1{fill:#26475c;stroke:#fff;stroke-miterlimit:10;stroke-width:2px;}</style></defs><path class="cls-1" d="M210.34,529c-16.35-9.22-32.59-15.8-50.62-17.21a70.83,70.83,0,0,1-7.74-.52c-6.3-1.2-10.28-6.38-9.8-12.36a11.7,11.7,0,0,1,11.92-11,102.51,102.51,0,0,1,42.26,9.33c12.13,5.41,23.58,12.34,35.44,18.37,2,1,4.85,1.84,6.88,1.26,14.53-4.12,29-8.54,43.35-13.13,1.84-.59,4.28-2.54,4.57-4.2,6.35-35.78,18.26-70,29.43-104.37,3-9.07,6-18.11,8.74-27.25.63-2.09.86-4.93-.07-6.73C318.13,348.45,311,336,304.45,323.31c-5.14-10-14.31-11.74-24-12.6-20.67-1.82-38.47,4.52-53.16,19.28-4.16,4.18-8.83,6.22-14.53,3.42-7.69-3.76-9.09-13-2.82-19.47,15.22-15.78,33.6-25.22,55.57-27.32,2.16-.21,4.31-.54,7.36-.92-1.37-1.64-2.12-2.94-3.22-3.79q-18.87-14.66-37.84-29.18c-1.42-1.09-3.05-1.91-4.46-3-5.45-4.2-7.07-11.39-3.78-16.45a12.33,12.33,0,0,1,16.94-3.51c11.88,8,23.86,16,35,25A255,255,0,0,1,335,324.46c.7,1.19,1.48,2.34,2.89,4.55,1.48-5.67,2.81-10.43,3.95-15.23s2.22-9.7,3.16-14.57c6.42-33.38,8.39-66.78.48-100.22-5-21.32-13.95-41-25.54-59.51-2.1-3.36-3.79-7.67-3.75-11.52.06-5.23,4.15-8.54,9.17-9.73,5.69-1.35,10.47.67,13.13,5.88,8.13,15.91,17.27,31.46,23.7,48.06C375.34,206,376.58,241.26,372.13,277c-5.29,42.38-19.45,82.3-33,122.46C327,435.6,315.57,472.05,309.32,509.86c-1.18,7.09-5.25,11.1-12.3,12.86-29.81,7.41-58.73,17.27-85.68,32.3-17.89,10-34.09,22.1-47.59,37.66-4.87,5.61-12.08,6.51-16.89,2.33-5.16-4.48-5.28-11.62-.21-17.52,16.2-18.84,35.77-33.41,57.53-45.17C205.92,531.37,207.67,530.44,210.34,529Z"/><path class="cls-1" d="M379.23,526.48c0,11.89-.38,23.79.07,35.67,1.36,36.16,11.36,69.73,30.73,100.44,5.13,8.13,3.89,14.7-3,19.15-5.63,3.62-13.89,1-18.4-6.08A217.14,217.14,0,0,1,358.7,602c-8.67-42.77-4.56-85.08,6.76-126.56,11.62-42.55,25.42-84.5,38-126.79,3.9-13.13,7.11-26.48,10.34-39.81,2.45-10.08,7.31-13.44,17.73-11.73,25.54,4.19,48.68,13.43,67.19,32.22a80,80,0,0,1,21.67,41.17c1.54,7.64-1.74,14-8.09,15.67-7,1.85-13.4-1.8-15.33-9.6-7.46-30.19-28.76-45.51-56.91-53.63a22.43,22.43,0,0,0-2.95-.5c-.57-.08-1.14-.09-2.47-.18C421.29,383,394.81,439.92,383.13,501.07c10.29,3.81,20.36,6.55,29.47,11.18,11,5.6,21.75,11.37,34.21,13.31,15.51,2.42,30.5,1.94,44.9-5.13,7.65-3.76,15.44-2,18.46,3.82,3.38,6.5.29,14.14-7.51,18.18-15.14,7.84-31.23,10.36-48.09,8.33a21.11,21.11,0,0,0-2.37-.23c-.36,0-.71.28-.34.11,1.38,11.23,2.83,22.19,4,33.18.58,5.42-1.44,9.83-6.5,12.4-7.3,3.7-15.45-.24-16.83-8.43-1-5.87-1-11.91-1.89-17.8-2.52-16.37-11.45-28.26-26.29-35.39-7.42-3.55-15.27-6.21-22.92-9.28Z"/><path class="cls-1" d="M622.29,251.78c6.42,4.28,13,8.36,19.2,12.9a58,58,0,0,1,9.11,8.61c4.87,5.54,4.64,11.8-.22,16.57-4.69,4.6-11.24,4.55-16.63-.19-3-2.63-5.85-5.43-8.92-8-14.61-12.08-30.88-15.27-48.55-8-9.93,4-19.47,9.06-29.19,13.63-2.69,1.26-5.42,2.46-8.71,3.95,2.07,1.85,4.11,3.63,6.09,5.46,10.53,9.71,17.89,21.27,20.72,35.49,1.5,7.54-3.16,15.29-10.06,16.57-6,1.11-12-4.2-13.35-11.73-.53-2.94-1-5.89-1.59-8.82-3.67-18.46-15.65-29-33.36-32.36-50.16-9.56-73.85-44.4-85.41-89.87-6.24-24.56-14.41-47.92-28.29-69.16-3-4.62-4.5-9.45-1.1-14.48,2.8-4.12,7.08-6.73,11.76-5.3a19.52,19.52,0,0,1,9.63,7c15.07,21.45,24.41,45.44,30.2,70.92,4.55,20,11.89,38.83,25.41,54.69,19,22.21,43.77,27.43,69.85,14.47a391.44,391.44,0,0,1,45.61-18.82c21.79-7.61,39.16-22.06,46.71-45.46,2.36-7.32,8.58-10.92,15.08-9,6.27,1.88,9.3,8.67,7.09,16.06-4.93,16.52-14.45,30-27.4,41.22-1.2,1-2.4,2.08-3.58,3.15C622.29,251.36,622.32,251.61,622.29,251.78Z"/><path class="cls-1" d="M290.87,572.72c13.09-.54,16.91,3,18.7,16,3.59,26,12.28,50.16,26.87,72.1,5.13,7.71,4.93,13.36-.49,18.18-5.75,5.11-12.45,4.68-16.61-2.56-7.71-13.43-15.27-27.07-21.29-41.3-4.61-10.89-7-22.75-9.81-34.33-.94-3.89-2.66-4.35-5.77-3.83-35,5.8-65,20.71-88.69,47.57-1.45,1.65-2.85,3.34-4.29,5-5,5.67-11.52,6.24-17.43,1.51a11.15,11.15,0,0,1-.83-16.55c10.81-10.83,21.44-22.13,33.66-31.2C230.25,584.48,259.37,574.9,290.87,572.72Z"/></svg>