<?xml version="1.0" encoding="utf-8"?>
<!-- Generator: Adobe Illustrator 28.4.1, SVG Export Plug-In . SVG Version: 6.00 Build 0)  -->
<svg version="1.1" id="Livello_1" xmlns="http://www.w3.org/2000/svg" xmlns:xlink="http://www.w3.org/1999/xlink" x="0px" y="0px"
	 viewBox="0 0 783.7 798.9" style="enable-background:new 0 0 783.7 798.9;" xml:space="preserve">
<style type="text/css">
	.st0{fill:#26475C;}
</style>
<g>
	<path class="st0" d="M314.6,4.3c0.6,0.1,1.3,0.1,1.9,0.2c8.2,0.9,16.3,3.4,24.1,6.1c5.9,2.1,11.6,5.4,16.8,9.2
		c7.1,5.2,9.8,12.6,8.8,21.7c-3.6,33.2-8.7,66.5-9.6,99.8c-0.8,31,1.1,62.4,5.3,93.1c4.5,32.4,3.2,64-1.5,95.9
		c-6.6,45.1-6.2,90.3-0.2,135.5c2.3,17.3,5.3,34.7,5.8,52.1c0.4,13.8-2.1,27.7-4.1,41.4c-8.2,53.9-8,107.7,0,161.5
		c1.6,11.2,2.7,22.5,3.9,33.7c1.5,14.3-2.6,22-15.5,28.7c-21.2,11-44,12.4-67,9.4c-12-1.6-24.1-5.4-35.2-10.3
		c-12.4-5.5-16-15-14.4-28.5c2.4-20.7,4.6-41.4,6.8-62.2c0.2-2,0.3-4.1,0.8-6.1c1.6-7,6.3-10.5,12.6-9.7c6.1,0.8,10.1,5.7,9.5,12.8
		c-0.8,10.5-2.1,21-3.3,31.5c-1.3,11.3-2.4,22.5-4,33.7c-0.8,5.4,0.5,8.8,5.9,10.7c25.2,9.1,50.3,9.2,75.4,0
		c5.1-1.9,6.6-4.7,5.9-10.5c-4.9-41.6-12-83.2-9.9-125.3c1.3-25.4,4.3-50.7,6.6-76.1c0.2-2,0.3-3.9,0.5-6.5
		c-27.2,7.9-53.9,8.1-81.9-0.1c0.9,9,1.8,17.2,2.6,25.4c1.3,13.8,2.8,27.7,3.8,41.5c0.7,9.2-3.4,14.8-10.4,15.1
		c-6.6,0.3-11-4.3-12-13.3c-3.3-30.7-7.7-61.3-9.3-92.1c-0.9-16.8,2.4-33.8,4.7-50.6c6.6-49.3,7-98.5-0.1-147.8
		c-1.8-12.4-2.9-24.9-4.5-38.7c-11.6,3.2-22.4,6.1-33.2,9.2c-1,0.3-1.9,1.6-2.6,2.7c-14.5,24.8-38.8,35.3-64.4,43.2
		c-38.7,12-78.2,10.8-117.7,4.1c-4.1-0.7-9.5-4.6-10.6-8.2c-1.1-3.5,1.3-9.9,4.3-12.5c34.1-29.2,71.8-51.7,116.7-59.6
		c22.1-3.9,43.8-3.9,64.8,6.7c4.5,2.3,12.1-1.5,18.2-2.5c1-0.2,2-0.6,3.5-1c-3.1-5.6-6.5-8.9-13.6-8.8c-22.9,0.4-42.3-9.5-60.6-22
		C97.9,209.3,70.6,170.7,49,127.6C41.8,113.1,35.8,98,30.3,82.8c-1.4-3.7-0.2-10.2,2.4-13c2.3-2.5,8.8-3.4,12.4-2.1
		C95,85.4,140.5,110.4,177.4,149c18.1,18.9,33.3,39.9,40.8,65.6c1.7,5.9,3.7,12.3,3,18.1c-1.3,11.3,6,16.4,13.9,23.4
		c1.9-16.5,3.4-32,5.3-47.4c6.4-50.8,1-101.2-5.4-151.6c-0.7-5.6-1.5-11.2-2-16.9c-1.1-11.5,4.8-19.8,14.4-24.2
		c7.1-3.3,14.6-5.5,22.1-7.6C284.1,4.1,299.4,2.7,314.6,4.3z M258.5,304.5c0.5,4.9,0.9,8.4,1.1,12c2,29.7,5.8,59.5,5.3,89.2
		c-0.5,32.1-4.9,64-7.6,96.1c-1.7,20.9-1.5,21.7,19.5,25.6c20.2,3.8,40.5,3.5,60-4.3c3.8-1.5,7.6-3,6.6-8.7
		c-1.5-9.1-2.2-18.4-3.5-27.5c-7.9-55.3-9.9-110.6-1.2-166c0.8-5.2,1.1-10.4,1.7-16.2C312.9,312.3,286.3,312.2,258.5,304.5z
		 M258.8,64c0.4,4.2,0.8,7.7,1,11.3c1.9,29.7,5.9,59.5,5.2,89.2c-0.8,34.6-5.3,69.2-8.8,103.7c-0.8,7.8,1.1,11.9,8.6,14.3
		c23,7.3,45.9,7.3,69,0.3c7.7-2.3,12.1-6.1,9-15c-1.1-3.1-0.8-6.6-1.2-9.9c-7.6-56.2-12.4-112.5-3.9-169.1c1.2-8,1.9-16,2.9-25
		C312.8,72,286.2,71.6,258.8,64z M198.8,236.1c-1.2-23.1-12.5-40.8-25.5-57.5c-29.4-37.5-68.7-61.3-112.3-79.5
		c7.1,15.6,14.6,30.7,23.1,45.3c17.1,29.2,38.7,54.5,66.8,73.7C165,227.7,179.8,235.9,198.8,236.1z M176,289.4
		c-36.3-14.5-98.6,8.7-130.3,35.9c0.4,0.2,0.9,0.7,1.3,0.7c35.3,2.8,69.8,0.2,102.2-15.6C159.3,305.5,169.1,299.9,176,289.4z
		 M342.2,37c-12.1-13.7-73.1-13.7-85.3,0.1C270.5,51.1,330.4,50.6,342.2,37z"/>
	<path class="st0" d="M511,307c-35.6,7.7-45.5,7.9-81.7,0.2c1.5,14.9,2.9,29.7,4.6,44.5c4.7,40.2,2.2,80.2-2.5,120.2
		c-1.7,14.6-3,29.2-5.1,43.7c-0.7,5.3,2.2,7.5,5.9,8.3c10.9,2.6,22,6.4,33.1,6.4c13.4,0,26.8-3.1,40.2-5.3c7-1.2,9.2-5.6,8.2-12.9
		c-3.2-23.7-5.9-47.5-8.3-71.3c-0.4-4,0.3-9.2,2.7-12.1c2-2.5,8.1-4.5,10.6-3.2c3.7,1.9,7.5,6.5,8.3,10.5c2.1,9.8,2.4,19.9,3.6,29.9
		c1.1,10.2,2.4,20.4,3.8,32.6c7.3-8.8,17.3-12.6,17.1-26.2c-0.4-21.2,9.1-39.8,20.4-57.3c23.9-37,56.7-64.5,94.7-85.6
		c21.9-12.2,45.5-21.4,68.3-32c5.2-2.4,10.5-3,15.1,1.4c4.6,4.5,3.5,9.7,1.5,15c-19.1,51.5-45,98.8-85,137.2
		c-20.2,19.4-42.6,35.8-70.2,43.4c-6.6,1.8-13.8,3.6-20.5,2.9c-8.9-0.9-13,3.8-17.9,10.2c7,1.9,13.4,3.8,19.8,5.4
		c1.6,0.4,3.7,0.1,5-0.7c23-13.2,47.6-11.7,72.1-6.9c46,9,84.7,32.3,119.6,62.5c2.9,2.5,4.8,8.4,4,12c-0.7,3.2-5.5,7.3-9,7.9
		c-47.5,8.3-94.8,8.9-140.6-9.1c-21.3-8.4-41-19.3-52.9-40.4c-0.8-1.4-2.4-2.9-3.9-3.4c-10.1-3-20.2-6-30.5-8.2
		c-1.5-0.3-5.4,3.5-5.7,5.8c-3,23.2-5.7,46.5-8.2,69.7c-4.9,46.8,1.1,93,6.9,139.2c0.5,4.3,0.9,8.7,1.6,13
		c2,13.7-2.2,22.8-14.5,29.3c-20.5,10.8-42.8,13.1-65.3,10.2c-12.8-1.6-25.6-5.5-37.5-10.4c-10.9-4.5-16.5-13.8-15-26.8
		c3.1-26.6,5.7-53.2,8.3-79.8c3.2-33.7,1.1-67.3-2.5-100.9c-2.4-21.9-5.3-44-4.8-66c0.6-25.1,5-50.1,7.3-75.2
		c3.2-33.5,1.4-66.8-2.6-100.1c-1.9-16.3-3.4-32.8-5.7-49.1c-1.8-13.2,4.3-21.7,15.1-27.7c15.5-8.6,32.7-10.8,50-11
		c17.8-0.2,35.5,1.9,51.6,10.5c13.4,7.1,17.4,15.9,15.5,31c-3.1,24.2-5.7,48.5-8.5,72.8c-0.3,2.5-0.6,5.1-1.4,7.6
		c-2,6.1-6.6,8.6-12.6,7.4c-6.9-1.5-9.5-6.7-8.8-13.4c1.6-15.4,3.4-30.7,5.1-46C510.4,313.8,510.6,310.8,511,307z M511.2,547.4
		c-27.8,8.1-54.6,7.7-82,0.1c0.2,2.8,0.3,4.8,0.6,6.8c1.8,17.1,3.6,34.3,5.3,51.4c4.8,50.1-3,99.6-8.3,149.2
		c-0.7,6.1,0.7,9.2,6.2,11.1c24.9,8.8,49.8,8.8,74.7,0c5.1-1.8,7.1-4.8,6.3-10.5c-2.1-14.8-3.5-29.6-5.5-44.4
		c-6.2-46.9-6.3-93.8,0.2-140.8C509.6,563.1,510.3,555.7,511.2,547.4z M574.2,475c20-0.6,36.1-9,51.3-19.4
		c40-27.5,66.6-65.9,87.7-108.6c3.1-6.2,5.8-12.6,8.6-18.9c-0.6-0.5-1.2-1-1.7-1.5c-16.5,8.8-33.4,17-49.4,26.6
		c-34.5,20.6-64,46.6-84.3,81.9C579.3,447,573.9,459.7,574.2,475z M738.5,568.8c-30.7-22.6-63.6-40-102.1-43.6
		c-12.9-1.2-26-1.2-40.2,5.6C637.6,569.9,687.2,572.3,738.5,568.8z M513.2,279.8c-14.9-14.2-74.3-13-85.6,0.2
		C439.9,293.7,500.9,293.7,513.2,279.8z"/>
</g>
</svg>
