<?xml version="1.0" encoding="utf-8"?>
<!-- Generator: Adobe Illustrator 28.4.1, SVG Export Plug-In . SVG Version: 6.00 Build 0)  -->
<svg version="1.1" id="Livello_1" xmlns="http://www.w3.org/2000/svg" xmlns:xlink="http://www.w3.org/1999/xlink" x="0px" y="0px"
	 viewBox="0 0 783.7 781.7" style="enable-background:new 0 0 783.7 781.7;" xml:space="preserve">
<style type="text/css">
	.st0{fill:#26475C;}
</style>
<g>
	<path class="st0" d="M101.1,2.2c2.9,1.5,5.4,3.9,6.8,7.1c22.4,49.2,36.5,100.7,42.5,154.5c7.1,64,1.1,126.4-21.4,187
		c-0.2,0.5-0.2,1-0.3,2.3c-0.1,1.1,0.6,2.1,1.7,2.4c174.2,47.2,348.2,47.5,522.5,0.7c1.2-0.3,2-1.6,1.6-2.9
		c-5.5-18.8-11.1-35.8-15.1-53c-13.3-57.5-11.7-115.2-1-172.8c7.6-40.6,18.5-80.2,36.8-117.5c4.6-9.3,15.5-14.2,22.2-3.8
		c2.4,3.7,1.2,7.6-0.6,11.3c-22.9,47.8-35.2,98.4-41.3,150.7c-7.5,64.7-1.1,127.8,25.9,187.3c16.4,36,36.2,70.5,54.9,105.4
		c18.7,34.9,34.5,70.8,41.3,110.1c2.1,12,3.5,24.1,5.2,36.2c0.1,16,0.2,31.8,0.3,47.8c-2.1,16.7-3.6,33.6-6.4,50.2
		c-3.6,21.3-8,42.5-12.4,63.6c-1.6,7.7-7.2,11.3-13.8,9.8c-7.1-1.7-10.1-7.1-8.6-15.3c5.2-29,11.7-57.9,15.3-87.1
		c7.1-56.8,1.6-112.3-21.7-165.3c-2.3-5.3-4.7-6.9-10.7-6c-42.6,6.2-80.9,23.4-117.8,44.5c-54.7,31.4-103,71.2-147.6,115.5
		c-14.7,14.6-31.3,25.2-51.9,28.4c-5,0.8-4.5,3.9-4.5,7.2c0,21.9,0.1,43.8-0.1,65.7c0,3.5,0.1,8.1-1.9,10.1c-2.9,2.8-7.7,5.1-11.6,5
		c-5.6,0-9.1-4.4-9.1-10.3c-0.2-11.2-0.1-22.4-0.2-33.6c0-12.5-0.1-25,0.1-37.4c0.1-4.4-1.3-6.1-5.9-6.7
		c-20.2-3-36.4-12.9-49.9-28.3C274.6,607.7,216,561.5,145.9,530.9c-28.3-12.3-57.6-21.5-88.3-25.9c-5.5-0.8-7.5,0.9-9.5,5.5
		c-20.6,47-27.2,96.1-23.8,147c2.4,35.4,8.7,70.2,16.8,104.6c2.2,9.2-1,15-8.6,16.5c-6.3,1.3-11.9-2.3-13.3-9.5
		c-5.3-27.7-11.4-55.4-15.2-83.3c-6.3-46.8-5.1-93.5,7.2-139.5c9.3-35,25.3-67,43-98.3c19-33.7,38.5-67.1,52.4-103.3
		c21.8-56.8,27.9-115.5,21.3-175.7c-5.8-52.7-18.1-103.7-41.3-151.7c-1.6-3.3-2.9-6.9-1.2-10.4C88.9,0.3,95.7-0.6,101.1,2.2z
		 M63.5,479.5c-0.7,1.3,0,2.9,1.4,3.3c1.3,0.3,2.4,0.6,3.6,0.8c34.7,5.6,67.5,17,99.1,31.9c68,32.2,125.3,78.3,174.7,134.7
		c8,9.1,17,16,28.8,18.9c26.4,6.5,49.2,1.1,69.8-17.7c30.4-27.8,61-55.5,93.3-81c42.8-33.7,89.8-60.7,142-77.4
		c13.7-4.4,27.7-7.5,42-11.2c1.4-0.4,2.2-2,1.4-3.3c-18.3-33.6-36.6-67.1-54.5-100.2c-0.5-0.9-1.6-1.4-2.6-1.1
		c-180.5,48.9-361,49.3-541.2-0.2c-1-0.3-2.1,0.2-2.6,1.1C100.5,411.6,82.1,445.4,63.5,479.5z"/>
	<path class="st0" d="M782.8,276.1c-1.2,3.9-7.6,7.8-11.5,7.8c-5.4,0-9.2-5.2-11.7-9.4c-13.5-22.6-15-47-9.9-72.2
		c1.3-6.5,7.1-9.7,13.2-8.4c6.6,1.5,9.7,6.6,9.1,13.7c-0.8,9.1-1.6,18.2-1.4,27.3c0.2,6.7,1.6,13.2,4.2,19.4
		c2.4,5.8,8.2,11.4,8.4,17.6C783.2,273.3,783.2,274.7,782.8,276.1C782.8,276.1,782.8,276.1,782.8,276.1z"/>
	<path class="st0" d="M90.5,219.2c0,38.6-7.6,75.2-28.6,108.2c-1.2,1.9-2.5,3.9-3.8,5.7c-4.6,6.2-11.1,7.7-16.6,4
		c-5.4-3.6-5.9-10.1-2.5-16.9c7.3-14.7,15.9-29.1,20.8-44.6c10.3-32.3,9.9-65.6,4.1-98.8c-0.4-2.3-0.9-4.5-1.1-6.8
		c-0.7-6.9,2.6-11.7,8.9-12.9c6.5-1.2,11.9,1.5,13.1,8.4c2.4,13.5,4,27.1,5.6,40.7C91,210.5,90.5,214.9,90.5,219.2z"/>
	<path class="st0" d="M36.9,223.4c-0.4,20.6-3.7,37.6-13.7,52.8c-4.9,7.5-11.2,9.6-17.2,5.8c-6.1-3.8-7-10.2-2.2-18
		c10.6-17,11.4-35.4,8.4-54.4c-1.4-8.9,1.5-14.2,8.9-15.6c6.8-1.3,11.8,2.5,13.4,11C35.8,212,36.3,219.1,36.9,223.4z"/>
	<path class="st0" d="M399.5,303.9c0,6.4,0.1,12.7,0,19.1c-0.2,7.6-5.1,12.6-11.6,12.5c-6.3-0.1-11.1-5-11.2-12.1
		c-0.2-12.7-0.2-25.5,0-38.2c0.1-7.2,4.9-11.6,11.6-11.5c6.6,0.1,11,4.6,11.2,11.9C399.6,291.6,399.5,297.8,399.5,303.9z"/>
	<path class="st0" d="M705.7,156.9c10.1,0.2,14.5,6.3,12.7,15.4c-5,25.2-5.8,50.5-2.6,76c3.2,25.7,11.2,49.5,25.9,71
		c5.7,8.4,3,17.1-5.8,19.3c-6.2,1.6-10-1.8-13.3-6.6c-18.8-27.3-28.1-58-30.9-90.7c-2.1-24.7-0.9-49.3,4.2-73.7
		C697.2,161.2,700.2,156.9,705.7,156.9z"/>
</g>
</svg>
