<svg id="Livello_1" data-name="Livello 1" xmlns="http://www.w3.org/2000/svg" viewBox="0 0 800 800"><defs><style>.cls-1{fill:#26475c;stroke:#fff;stroke-miterlimit:10;stroke-width:2px;}</style></defs><path class="cls-1" d="M721.84,403.14c-3.31,6.89-8.79,9.16-16.34,8.9-13.15-.45-26.34-.21-39.51,0-2.07,0-4.76.53-6.07,1.87-19.49,20.1-38.78,40.39-58.16,60.6q-6.3,6.55-12.87,12.85c-6.47,6.19-14.07,6.46-19.39.85-5-5.27-4.46-12.89,1.55-18.92q25.88-26,51.84-52c1.41-1.41,2.72-2.93,5-5.38h-7.19c-22.59,0-45.18-.33-67.75.16-9.22.21-14.14-3.54-17.49-11.78-8.15-20.09-16.87-40-25.36-59.9-.65-1.51-1.34-3-2.35-5.26-6.58,14.45-12.9,28.27-19.18,42.11q-17.46,38.44-34.86,76.93c-2.08,4.62-4.8,8.33-10.15,9.21-7,1.15-11.88-1.81-15-9.4-7.67-18.94-15.24-37.91-22.87-56.86-.58-1.46-1.27-2.88-2.51-5.67-4,13.4-7.7,25.49-11.26,37.6q-13.32,45.29-26.55,90.58C363,528,358.87,532,352.57,532.19c-6.11.24-10.54-3.62-13.48-11.8q-31.27-87.08-62.55-174.16c-.67-1.87-1.47-3.69-2.73-6.85-3.2,7.67-5.93,14.09-8.56,20.54q-10.17,24.9-20.27,49.83c-3.73,9.17-6.51,11-16.54,11-17.77,0-35.54,0-54.34,0a51.28,51.28,0,0,0,3.3,4.16q90.47,90.53,181,181c22.47,22.42,53.4,22.34,75.88,0,18.26-18.12,36.39-36.36,54.58-54.55,3.75-3.74,7.92-6.09,13.48-4.36,5.07,1.58,8.85,4.89,8.82,10.12,0,3.81-1.18,8.68-3.7,11.26C487.29,589,467.36,610,446,629.35c-28.31,25.7-72.94,25.34-100.55-1.09-35.49-34-69.82-69.16-104.58-103.9-31.65-31.63-63.44-63.13-94.6-95.24-5.94-6.13-11.4-9-19.83-8.51-10.83.68-21.73.21-32.61.15C84.63,420.71,79.34,416,79.43,408c.09-7.78,5.55-12.37,14.8-12.41,8.37,0,16.73,0,25.09-.08a6.57,6.57,0,0,0,1.62-.64c-22.55-45.21-26.08-91.7-7.85-139.13,12.76-33.23,34.54-59.43,64.44-78.64,35.77-23,74.86-30.65,116.8-24,42.17,6.65,75.57,28.61,103.23,59.89,68.5-67.6,143.37-82.56,226.4-29.28,21.59,13.85,37.33,33.9,49.24,56.73a162.36,162.36,0,0,1,18.52,72.06c.63,25.66-4.71,50.07-15.59,74.32,10.37,0,19.9.37,29.39-.11,7.55-.38,13,2,16.32,8.89ZM441.72,418.19c1.69-3.37,3-5.67,4-8.05Q470.3,356,494.86,301.91c1.36-3,2.91-6.22,5.26-8.35,6.93-6.24,16.44-3.19,20.57,6.49,11.54,27,23,54.09,34.3,81.24,1.8,4.34,4.07,5.72,8.76,5.67q38.89-.39,77.78,0c4.44,0,6.63-1.53,8.57-5.25,15.12-29,19.84-59.66,13.81-91.69C645,189.78,525.17,143.77,444.22,205.9c-12.85,9.87-23.86,22.15-35.69,33.34-6.87,6.49-13.59,6.61-20.34,0s-13.57-13.64-20.43-20.38c-36.9-36.25-80.81-49.5-131.46-39.13-93.57,19.17-140,132-87.5,211.94,2,3,4.07,4,7.56,4,20.49-.15,41-.23,61.47.05,4.34.06,6-1.45,7.57-5.28q17.82-44.4,36.16-88.57c1.39-3.34,3.41-7,6.19-9.06,7.41-5.58,16.17-1.64,19.81,8.51q30.19,84.15,60.32,168.31c.85,2.37,1.81,4.7,3.19,8.25,2.2-7.44,4-13.42,5.74-19.41q15.76-53.67,31.54-107.33c2.26-7.67,6.65-11.67,12.77-11.83,5.74-.16,10.24,3.46,13.16,10.67,1.79,4.44,3.49,8.92,5.28,13.37C426.78,381.27,434,399.16,441.72,418.19Z"/><path class="cls-1" d="M551.22,519a12.76,12.76,0,0,1-12.39,13,12.75,12.75,0,0,1-.53-25.49A12.72,12.72,0,0,1,551.22,519Z"/></svg>