<svg id="Livello_1" data-name="Livello 1" xmlns="http://www.w3.org/2000/svg" viewBox="0 0 800 800"><defs><style>.cls-1{fill:#26475c;}</style></defs><path class="cls-1" d="M687.25,201.07c-3.6,18.76-15.76,31.79-28.73,44.71Q537.7,366.08,417.41,486.92c-5.19,5.21-10.18,7.42-17.34,5.29a143.41,143.41,0,0,0-16.39-3.37c-18.44-3.18-31.34,10.08-27.76,28.5,1.21,6.21,2.52,12.4,3.89,18.57a12.09,12.09,0,0,1-3.61,12.15c-28.73,28.56-57,57.54-86.06,85.78-42.45,41.29-109.41,42-151.22,2.11-7.22-6.88-7.28-10.11-.2-17.19L446.14,291.28c7.13-7.12,10.2-7.14,17.26-.09,20.72,20.71,41.41,41.44,62.39,62.44,1.12-.92,2.15-1.62,3-2.48Q593,287,657.06,222.82c23.12-23.26,14.52-60.95-16-70.38-16.41-5.06-30.95-1-43.1,11.13Q562,199.33,526.26,235.23q-20.19,20.19-40.39,40.38c-3.11,3.12-6.46,5.1-11,2.84a8.24,8.24,0,0,1-3.36-12.28,21.12,21.12,0,0,1,2.62-2.9c37.34-37.36,74.56-74.84,112.09-112,21.81-21.61,53.64-24,77.48-6.14a57.69,57.69,0,0,1,22.37,35,20,20,0,0,0,1.14,3ZM134.7,627.1c1.42,1.16,2.26,1.9,3.15,2.57,36.52,27.37,87.1,24.46,119.8-7.49,27.63-27,54.75-54.51,81.92-82,1.55-1.57,2.2-4.87,1.95-7.23-.85-8.12-3.19-16.17-3.25-24.26-.07-9.91,4.41-18.64,11.5-26.09a12.8,12.8,0,0,0-2.45-1.25c-17.14-3.46-34.3-6.83-51.42-10.36-3.48-.72-5.79.27-8.31,2.8q-74.5,74.74-149.18,149.3C137.25,624.29,136.16,625.53,134.7,627.1ZM384.28,379.56,307.76,456c-.31-.27-.07.11.24.17,31,6.16,62,12.35,93,18.32a8,8,0,0,0,6.1-1.82c10.86-10.51,21.47-21.27,32.14-32,1.11-1.12,2.08-2.39,2.82-3.25Zm36.42-37.7,58.59,58.57,9.9-10.28-58.45-58.54Zm-24.1,23.73,58.55,58.54,10.4-10-58.76-58.82ZM444.21,318l58.17,58.23,10.6-10-58.49-58.57Z"/><path class="cls-1" d="M687.06,660.29a5.57,5.57,0,0,1-1.55,2c-2.86,2.59-6.67,3.33-10.42,3.15-5.2-.25-10.43.09-15.63-.12-5.84-.24-9.1-3.38-9.16-8.36-.06-5.16,3.48-8.57,9.43-8.75,5.2-.16,10.43.18,15.62-.11a14.13,14.13,0,0,1,7.14,1.26,12.1,12.1,0,0,1,3.52,2.53c1.56,1.69,1.55,4.66,1.39,6.83A4.78,4.78,0,0,1,687.06,660.29Z"/><path class="cls-1" d="M292.16,665.28c-3.34,0-6.7.22-10,0-4.87-.4-8-3-8.14-8.14s2.85-8.32,7.58-8.66a149.69,149.69,0,0,1,21.7,0c4.74.35,7.75,3.54,7.58,8.67s-3.26,7.75-8.13,8.14C299.23,665.51,295.68,665.28,292.16,665.28Z"/><path class="cls-1" d="M346.48,648.22c3.34,0,6.7-.24,10,.06,5.11.46,8.36,4.08,8.13,8.82-.24,5.11-3.28,7.9-8.15,8.11-6.85.29-13.74.29-20.59,0-4.88-.21-7.9-3-8.14-8.12-.22-4.73,3-8.36,8.15-8.8C339.4,648,343,648.22,346.48,648.22Z"/><path class="cls-1" d="M399.63,665.28c-3.34,0-6.7.22-10,0-4.88-.42-7.94-3.07-8.09-8.18s2.87-8.29,7.61-8.63a149.69,149.69,0,0,1,21.7,0c4.74.36,7.73,3.58,7.54,8.7s-3.3,7.73-8.17,8.1C406.7,665.5,403.16,665.28,399.63,665.28Z"/><path class="cls-1" d="M453.41,665.28c-3.34,0-6.7.22-10,0-4.87-.41-7.95-3-8.1-8.16s2.85-8.31,7.6-8.65a149.55,149.55,0,0,1,21.69,0c4.74.35,7.74,3.56,7.56,8.68s-3.28,7.74-8.15,8.12C460.48,665.5,456.94,665.28,453.41,665.28Z"/><path class="cls-1" d="M507.2,665.28c-3.34,0-6.7.22-10,0-4.87-.4-8-3-8.13-8.14s2.83-8.32,7.57-8.66a148.28,148.28,0,0,1,21.7,0c4.74.34,7.75,3.54,7.58,8.66s-3.26,7.75-8.13,8.14C514.27,665.5,510.72,665.28,507.2,665.28Z"/><path class="cls-1" d="M561.16,648.21c3.34,0,6.7-.2,10,0,5.2.38,8.47,3.79,8.52,8.49s-3,8.24-8.38,8.49c-6.67.31-13.37.3-20,0-5.42-.23-8.49-3.55-8.5-8.37s3.38-8.34,8.92-8.66c3.14-.19,6.31,0,9.46,0Z"/><path class="cls-1" d="M615.5,648.21c3.16,0,6.33-.2,9.47,0,5.19.4,8.45,3.8,8.49,8.51s-3,8.23-8.4,8.47c-6.67.31-13.37.3-20,0-5.41-.23-8.47-3.57-8.48-8.39s3.21-8.2,8.38-8.6C608.43,648,612,648.21,615.5,648.21Z"/><path class="cls-1" d="M229.19,616.82a25,25,0,0,1-23.39-15.19c-4.2-9.81-2.21-20.18,5.82-28.27q27.18-27.4,54.56-54.63c4.35-4.35,8.63-8.79,13.08-13,10.67-10.16,26-10,36.08.24,9.69,9.89,9.65,25.46-.49,35.69q-33.68,34-67.62,67.69A24,24,0,0,1,229.19,616.82Zm77.08-93.66c-.33-2.74-3.72-5.83-5.77-6.92-3.53-1.87-7.08-.6-10.08,2.42q-33,33.15-66.06,66.17c-4.05,4.07-4.45,9-1.27,12.4,3.48,3.76,8.4,3.68,12.77-.67q9.69-9.63,19.36-19.29t19.33-19.33q9.65-9.68,19.29-19.36c2.44-2.45,4.85-5,7.33-7.36,2-1.93,4.41-4.14,5.05-7A3.38,3.38,0,0,0,306.27,523.16Z"/></svg>