<svg id="Livello_1" data-name="Livello 1" xmlns="http://www.w3.org/2000/svg" viewBox="0 0 800 800"><defs><style>.cls-1{fill:#26475c;}</style></defs><path class="cls-1" d="M411,695.29c-2.43-3.12-5.17-6-7.26-9.39-21.32-34.11-38.7-70-48.3-109.27-14.05-57.49-7.1-111.71,24.89-162.15,8.92-14.08,17.89-28.14,26.36-42.49,28.06-47.59,30.44-97.37,11.87-148.7-13.09-36.17-34.18-67.53-58.75-96.76-1.73-2-3.55-4-5.16-6.19-3.47-4.61-3.07-9.51.93-12.73,3.71-3,8.77-2.67,12.27,1.48,7.67,9.09,15.34,18.2,22.49,27.69,17.93,23.84,33,49.35,43.61,77.33a15.72,15.72,0,0,0,1,2c11.7-1.55,23-4,34.36-4.28s22.49,1.29,33.65,2.71c3.22.41,4.7,0,6.55-2.55,23.36-32.15,54.94-50.46,94.31-55.23a51.31,51.31,0,0,1,17.14.39c13.11,3,20.77,15.06,19.2,28.7-1.39,12-12.56,21.83-25.46,22.32-24.05.93-47.31,13-61,31.89a66.22,66.22,0,0,0,36.72,15.46c16.19,1.54,31.59-1.82,46.75-7.18,11.25-4,22.14-1.2,29.31,7a25.56,25.56,0,0,1-8.35,40.28c-16.66,7.71-34.54,11.18-52.81,12.42a9,9,0,0,1-9.65-8.63c-.12-4.92,3.75-8.16,9.86-9.25,12.21-2.16,24.36-4.63,36.51-7.11a36.7,36.7,0,0,0,7-2.44c5-2.17,7.32-6.66,5.82-11.07s-6-6.37-11.41-4.92C634.7,267,626,270.05,617,271.83c-28.9,5.71-54.67-1.55-77.38-20-6.26-5.09-7.13-12.55-2.17-19.52,15.51-21.8,36.58-35.05,62.8-40.06,4.5-.85,9.14-.92,13.7-1.49,6-.75,9.34-4.3,9-9.21s-4.32-8.16-10.22-7.8c-37.5,2.34-67.43,18.67-89.44,49.16-8.16,11.31-10.18,12.09-23.52,8.76-19.65-4.91-39.11-3.28-59.08,2.34,1.28,5.42,2.51,10.67,3.69,15.69,8.5-1.21,16.38-2.82,24.33-3.34,8.77-.59,14.54,5.17,14.83,13.85a454.06,454.06,0,0,0,17.54,112.64c1.86,6.41.51,10.75-4.52,15.12C465,415.29,444.1,449,435.71,490.2c-1.68,8.23,2.77,14.27,9.61,12.77,5-1.1,6.31-5.1,7.12-9.41,2.85-15.16,7.47-29.86,15.42-43a325.07,325.07,0,0,1,24.46-34.66c8.09-10.14,19.9-7.95,24.92,4a471.18,471.18,0,0,0,37.31,71.78c1,1.6,2,3.94,3.47,4.41,3,1,7.07,2.14,9.34.85s3.51-5.39,4-8.45c.29-1.87-1.54-4.18-2.65-6.16C561,468.43,553,454.7,545.46,440.69c-5.38-10-2.16-18,8.47-21.91,29.53-10.93,57.91-8,85.11,7.49,7.7,4.39,12.78,4.31,15.6-.56s.49-9.79-7-14c-33.43-19.14-68.09-21.41-103.83-7.21-10.15,4-13.49,2.64-17.27-7.73A446.36,446.36,0,0,1,501.1,274.61c-.42-6.05,1.57-11.08,6.89-14.17s10.7-2.63,15.67,1c13.8,10.05,27.7,19.84,44.28,25.07,5,1.56,6.79,6.76,5,11.28a8.39,8.39,0,0,1-11.51,4.62C549.64,297,538.17,291,526.64,285c-2.31-1.19-4.3-3-7.41-5.18a412.92,412.92,0,0,0,21.93,105.25c12.94-2.37,25.22-5.59,37.7-6.73,30.26-2.77,58.19,5,83.34,21.86,12.09,8.11,14.64,23.85,6.81,35.62s-23.24,14.84-36.1,7.24c-23.75-14.05-47.37-16.92-71.31-8.23,6.51,11.4,13,22.64,19.37,33.95,2.61,4.65,5.7,9.22,7.27,14.23a25.26,25.26,0,0,1-13.47,30.32c-11.55,5.46-26.08,2.34-32.52-8.82-12.82-22.19-24.56-45-36.71-67.57-1-1.84-1.75-3.81-3.07-6.72-4.28,5.76-8.42,10.87-12.06,16.32a137.62,137.62,0,0,0-20.92,51.2c-2.64,13.88-12.53,22.6-25.52,23-11.56.37-22.84-7.53-25.17-19.51-1.26-6.48-.39-13.76,1.1-20.33,9.13-40.3,30-73.88,60.14-101.8,2.57-2.38,3.42-4.3,2.45-7.78A453.94,453.94,0,0,1,466.3,266.62a20.86,20.86,0,0,0-.38-2.39c-1.09.08-2,.13-2.95.22-15.29,1.47-15.63,1.49-15.08,16.45,1.44,39.25-9.93,74.75-30.46,107.79-11.12,17.89-22.89,35.48-32.58,54.14C363.47,484,361.63,527.48,372.38,572c8.54,35.35,23.91,67.74,42.53,98.74,1.68,2.8,3.46,5.52,5.17,8.3,4.72,7.68,4.35,10.43-2.16,16.26Z"/><path class="cls-1" d="M360.34,695.29c-1.81-1.93-4.09-3.58-5.36-5.82-19.35-34.12-34.86-69.8-43.48-108.23-1.45-6.47.68-11.27,5.7-12.5,5.44-1.33,9.6,1.36,11.11,7.91,8.47,36.67,23.07,70.86,41.48,103.55,3.65,6.48,3.15,8.84-2.54,15.09Z"/><path class="cls-1" d="M335.12,404.89c-11.52,1.5-21.25,5.62-29.42,12.81-6.46,5.69-12.08,12.35-18.49,18.11-7.11,6.39-14.82,12.12-22,18.45-1.65,1.46-3.17,4.23-3.09,6.33,1.83,46-8.94,88.48-35.37,126.59-6.65,9.58-15.78,14.1-27.24,12.14C189,597.53,181.9,591,179.12,580.61a25.1,25.1,0,0,1,4-21.87,140.27,140.27,0,0,0,24.73-60c1.33-8.24,1.7-16.64,2.58-25.72-11.28,0-21.57.27-31.83-.1a101.31,101.31,0,0,1-17-2.32,25.84,25.84,0,0,1-20-30.75c2.73-13.62,16.12-22.43,30.21-20.18,17.77,2.84,35.56,3.58,52.69-3.18,6.49-2.56,12.47-6.42,19.36-10-23.75-22.27-49.94-36.79-81-41.73-5.29-.84-10.67-1.15-15.93-2.15-13.53-2.59-23.15-15.77-21.07-28.52A27.47,27.47,0,0,1,155,311.3c48.58,4.11,89.75,24.1,124.77,57.53.55.52,1.16,1,1.93,1.64,14.39-9.18,29.94-15.63,46.93-17.44a237.33,237.33,0,0,1,32.66-.91c4.95.16,7.38-1.05,9.75-5.39,20.78-38,19.54-76.71,3.7-115.78-13.51-33.32-34.69-61.66-58.56-88.15-6.3-7-12.92-13.66-19.43-20.44-5.07-5.28-5.7-10-1.8-14s9-3.47,14,1.52c30.8,30.82,58.56,63.94,77.32,103.7,11.14,23.63,17.87,48.36,17.85,74.77,0,29-9.75,54.71-24.79,78.9-10.11,16.27-20.57,32.36-30,49-20.4,36.12-28.62,75.24-27,116.54,0,1.16.13,2.31.1,3.46-.11,5.38-3.35,9-8.16,9.27-5,.23-8.89-3.41-9.16-9-1.17-24.06.4-47.87,6.22-71.33a236.51,236.51,0,0,1,21.18-55C333.34,408.71,334,407.15,335.12,404.89Zm22.15-35.54c-24.67-1.45-46.74,3.11-66.64,16.35-9.6,6.38-12.47,6.15-20.79-2.06-22.75-22.48-49-39.41-79.92-48-12.27-3.39-25.11-4.82-37.77-6.55a7.76,7.76,0,0,0-8.73,7.89c0,4.95,2.51,7.86,7.51,8.5,1.71.22,3.41.59,5.12.76,41,3.89,74.73,22.38,103.42,51.05,5.84,5.83,5.63,11.88-.25,17.57-14.3,13.82-31.5,22.05-51.21,23.37-12.89.87-25.94-.6-38.91-1.12-6.08-.24-9.65,1.91-10.38,6.59-.79,5.09,2,8.79,7.94,9.95A139,139,0,0,0,212.42,455c9.56-1.32,15.68,3.21,15.15,12.89-.75,13.73-1.67,27.55-4,41.07-3.75,21.38-12.72,40.83-25.25,58.58-3,4.23-3.92,8.39.09,12.41s9.75,3,13.67-2.48a173.55,173.55,0,0,0,25.12-52C244,502.43,245.48,478.84,244,455c-.33-5.3,1.6-8.9,5.85-12.19,10.26-7.94,21.21-15.4,29.92-24.86,17.48-19,37.92-30.69,63.93-32.13a6.88,6.88,0,0,0,4.57-2.53C351.27,379.1,353.88,374.65,357.27,369.35Z"/></svg>