<svg id="Livello_1" data-name="Livello 1" xmlns="http://www.w3.org/2000/svg" viewBox="0 0 800 800"><defs><style>.cls-1{fill:#26475c;}</style></defs><path class="cls-1" d="M265.33,694.08a11.33,11.33,0,0,1-2.76-2.07,18.58,18.58,0,0,1-3.11-3.74,1193.74,1193.74,0,0,1-74.92-152.62c-29.93-73.84-20.46-144.43,20.88-211.42,14.25-23.09,29.53-45.55,44.3-68.32,1.54-2.38,2.76-5,4.4-7.94-3.12-.69-5.71-1.16-8.26-1.84-17.08-4.59-27.79-18.42-28.52-37.19-.3-7.64-.18-15.31,0-23,.13-6.58,3.68-10.57,8.92-10.49s8.67,4.12,8.76,10.69c.11,7.84,0,15.69.07,23.54.23,15.42,13.37,21,25.13,20.45,1.32-.07,3.13-2,3.69-3.51,12.95-34.14,17.45-69.11,9.86-105.18-1.82-8.61-.37-13.46,5.16-14.75,4.49-1,9.81.31,11.9,10.59,9.11,44.72,3.27,87.67-16.42,128.36-9.28,19.18-21.66,36.85-32.66,55.19-1.06,1.77-2.26,3.45-4.1,6.24,15.56,4.52,30.11,9.64,45.06,12.91,30.18,6.6,60.47,12.85,90.94,17.89,12.87,2.13,26.31.89,39.49,1.07,3.82,0,7.65-.49,11.47-.42,5.05.08,8.34,3.4,8.49,8.16a8.34,8.34,0,0,1-7.84,8.92c-19.49,1.79-38.93,1.89-58.39-.85A747.4,747.4,0,0,1,243.56,327c-3.63-1.16-7.41-2-10.82-3.68-4.52-2.18-7.67-1.26-9.83,3.11q-13.33,26.93-26.58,53.91c-.14.28.07.73.24,2.17,88.48,8,158.36,47.17,203.24,126.55,8.95-12.07,16.9-23.18,25.24-34,22.69-29.4,49.73-53.88,84.45-67.91,19.72-8,40.58-13.21,61.1-19.12,11.14-3.22,22.63-5.25,34.76-8-3.69-7.95-7.1-16.41-11.43-24.36-5.67-10.4-12.11-20.37-18.1-30.59-1.53-2.6-3.09-3.15-6.06-2.1-33,11.68-66.93,19.78-101.26,26.34-.93.18-1.86.45-2.81.54-5.64.54-9.71-2.31-10.54-7.35-.75-4.53,2.23-8.54,7.57-9.77,21.75-5,43.58-9.7,65.24-15,11.76-2.91,23.24-6.93,35.69-10.7-4.46-6.67-8.38-12.5-12.27-18.34-17.76-26.72-32.93-54.58-39.75-86.37-6.17-28.78-7.54-57.53-.72-86.38,1.73-7.34,5.65-10.6,11.2-9.29,5.16,1.21,7.47,6,5.88,13-8.23,35.81-3.69,70.55,8.25,104.8,1.82,5.2,4.58,6.6,9.75,5.77,14.16-2.24,20.29-9.14,20.31-23.59,0-29.1,0-58.2.05-87.3a19.26,19.26,0,0,1,1-7.17c1.06-3,5.49-5.18,8.34-5.19,2.54,0,6.78,2.62,7.44,5.63a24,24,0,0,1,.88,7.24q.08,42.51,0,85c0,23.86-10.21,36.71-33.52,42.36-.91.22-1.8.51-3.62,1,5.26,8.65,10.17,17,15.32,25.16,16.19,25.71,33.62,50.72,48.45,77.18,21.09,37.67,26.54,78.82,22.22,121.53-2.85,28.27-11.34,54.88-23,80.55-9.76,21.46-19.59,42.9-29.93,64.09s-21.27,42.36-33.08,62.91c-2.74,4.78-5.44,9.36-9.15,13.48-1.65,1.84-4.29,1.79-6.58,1.64-3.49-.23-5.87-4.21-6.58-7.34-.59-2.62.59-5.12,1.93-7.31,26.82-43.78,47.32-90.68,68.4-137.32,17-37.54,25.27-76.4,20.52-117.58-1-8.81-2.88-17.52-4.51-27.22-15.38,3.31-29.5,6.51-43.69,9.38-27,5.47-52.73,14-76,29.16-34.17,22.32-58.29,53.69-79.1,88a18.51,18.51,0,0,0-2.35,9.14q-.21,74.37,0,148.73c0,5.22-1.3,9.32-5.71,12.23h-6.89c-4.36-3.35-5.11-7.9-5.1-13.13q.18-73.17-.05-146.35a23.51,23.51,0,0,0-2.8-10.76c-12.2-22.06-28-41.51-45.12-59.85-19-20.3-41.45-35.9-67.74-44.77-22.18-7.49-45.06-12.93-67.71-19-5.77-1.55-11.84-2-17.6-2.94-10.83,35.42-8.63,84.72,6.79,123.72a1201.14,1201.14,0,0,0,75.74,156.55c1.51,2.63,3.6,5.86,3.13,9.05a9,9,0,0,1-1.69,3.75c-.93,1.33-1.69,3-3.34,3.6A7.84,7.84,0,0,1,265.33,694.08Z"/><path class="cls-1" d="M235,129.46c0,4.38.14,8.76,0,13.14-.23,6.17-3.61,9.8-8.85,9.8-5.06,0-8.58-3.36-8.75-9.25q-.4-13.71,0-27.43c.17-5.89,3.69-9.24,8.77-9.22s8.52,3.49,8.8,9.24C235.18,120.3,235,124.88,235,129.46Z"/><path class="cls-1" d="M343.39,286.13a8.74,8.74,0,0,1,9,12.51c-2.39,4.94-4.78,9.88-7.23,14.8-2.19,4.39-6.75,6.27-10.94,4.58-4.44-1.79-7-6.13-5.25-10.54a117.5,117.5,0,0,1,8.49-17.3A8.35,8.35,0,0,1,343.39,286.13Z"/><path class="cls-1" d="M384.09,260.83c2-.26,4.64,1,6.15,2.14a9.07,9.07,0,0,1,3.17,4.94c1.27,4.69-.74,8.43-5.21,10.22-5.66,2.25-11.45,4.25-17.3,5.93-4.47,1.29-8.11-.79-9.89-4.84s-1.23-8.5,3-10.54c3.27-1.58,6.65-2.93,10-4.2,1.68-.64,3.37-1.25,5.06-1.87a30.85,30.85,0,0,1,4.84-1.76Z"/><path class="cls-1" d="M417,259.74h.09a12.46,12.46,0,0,1,2.85.91c1.47.52,2.94,1,4.41,1.52,2.95,1,5.9,2,8.79,3.13l1.64.67c.65.28,1.3.57,1.94.87,4.07,1.87,5.23,6.06,3.49,10.33s-5.23,6.26-9.68,5.17a161,161,0,0,1-18-5.45c-4.25-1.58-6-5.24-5-9.76a8.83,8.83,0,0,1,2.88-5,10.4,10.4,0,0,1,3.61-1.85A8.12,8.12,0,0,1,417,259.74Z"/><path class="cls-1" d="M473.67,309.36a4.18,4.18,0,0,1-1,2.53,15.19,15.19,0,0,1-5.42,4.28c-3.71,1.76-7.61.22-9.9-3.49-3.09-5-6.07-10.13-8.8-15.35-1.95-3.74-1.82-8.08,1.86-10.22,2.67-1.56,7.72-2.57,9.71-1.1a32.15,32.15,0,0,1,9.58,12.06c.87,1.78,1.64,3.6,2.34,5.45.37,1,.72,2,1.07,3A8,8,0,0,1,473.67,309.36Z"/><path class="cls-1" d="M314.21,575c-8.75,0-15.79,0-22.84,0-6.89-.05-11.18-3.48-11.16-8.83s4.18-8.57,11.24-8.64,14,0,22.67,0c-4.05-3.8-7-6.4-9.71-9.16-4-4-4.33-8.47-1.16-12.26,3.39-4,8.19-4.54,12.66-.65q13.62,11.87,26.79,24.26c4.24,4,4.17,9.08-.14,13.12q-13.19,12.36-26.8,24.25a8.69,8.69,0,0,1-12.36-.56c-3.24-3.63-3-8.49.78-12.32C307,581.37,310,578.8,314.21,575Z"/><path class="cls-1" d="M243.19,537.92c-2.54,2.34-4.75,5.6-7.79,6.84-4.16,1.71-8.16-.52-9.75-4.69a138.79,138.79,0,0,1-5.74-19c-.93-4.12,1.33-7.44,5.35-9s8.25-.78,10,3C238.27,522,240.25,529.3,243.19,537.92Z"/><path class="cls-1" d="M208.52,438.62c.86-5.07,1.44-10.21,2.64-15.2,1.26-5.29,5.31-7.7,10.28-6.77,4.58.86,7.42,5.25,6.7,10.44-.65,4.72-1.47,9.43-2,14.17-.69,6.14-4.16,9.91-9.13,9.61s-8.19-4.28-8.16-10.47v-1.72Z"/><path class="cls-1" d="M245.68,557.11a9.9,9.9,0,0,1,5.92,4.5,113.89,113.89,0,0,1,7.29,16.66,8.63,8.63,0,0,1-5.11,11.23c-4.21,1.61-8.73-.14-10.89-4.72a178.66,178.66,0,0,1-7-16.78,7.86,7.86,0,0,1,2.4-8.57,11.21,11.21,0,0,1,5-2.39A5.55,5.55,0,0,1,245.68,557.11Z"/><path class="cls-1" d="M210,474.63c.08-6.06,3.23-9.89,7.84-10.21,4.8-.35,8.27,1.86,9.23,6.67a170.4,170.4,0,0,1,2.75,18.1c.44,4.73-1.89,8.11-6.8,9.14-4.68,1-8.89-1.36-10-6.28C211.59,485.94,210.86,479.67,210,474.63Z"/><path class="cls-1" d="M281.87,623.87a2.68,2.68,0,0,1,0,2.76,11.67,11.67,0,0,1-7.71,5.83c-2.64.64-7.29-.78-8.8-2.9a68.52,68.52,0,0,1-9.2-17.67c-.87-2.58.86-7.4,3.06-9.26,1.93-1.63,8-1.92,9.06-.45C273.21,608.7,277.13,615.94,281.87,623.87Z"/><path class="cls-1" d="M288.89,643a2.85,2.85,0,0,1,.51.2,13.41,13.41,0,0,1,5,3.64A133.33,133.33,0,0,1,303.6,662a8.37,8.37,0,0,1-3.46,11.79c-4.73,2.52-8.66,1-11.44-3.13a151.11,151.11,0,0,1-8.85-14.7,8.8,8.8,0,0,1,.19-9.1,8.7,8.7,0,0,1,3.75-3C285.16,643.27,287.33,642.57,288.89,643Z"/><path class="cls-1" d="M487.5,557.5c9,0,16-.07,23.07,0,7.32.09,10.88,3.13,10.73,8.93-.14,5.41-3.9,8.47-10.68,8.52-7.16.06-14.32,0-22.87,0,3.84,3.57,6.66,6.06,9.33,8.69,4.2,4.16,4.65,8.91,1.32,12.69s-8.46,4.14-12.74.39Q472.28,585,459.27,572.91c-4.61-4.31-4.56-9.1.09-13.46q13-12.16,26.32-23.91c4.37-3.87,9.29-3.56,12.72.35,3.2,3.65,3,8.43-.89,12.32C494.73,551,491.71,553.61,487.5,557.5Z"/><path class="cls-1" d="M507.26,674.92c-7.56.1-12.21-6.48-9.45-12.1a120.82,120.82,0,0,1,10.08-16.66c2.8-3.93,7.14-4.55,11.22-1.95s5.61,6.47,3.23,10.9a157.63,157.63,0,0,1-9.8,16.14C511.16,673.22,508.37,674.18,507.26,674.92Z"/><path class="cls-1" d="M552.66,589.87a4.22,4.22,0,0,1-1,.09c-5.78-.3-11.05-5.14-8.89-11.21,2-5.71,4.5-11.27,7-16.78,2-4.37,5.77-6.2,10.35-4.7,4.83,1.58,7.24,5.56,5.68,10.32a120.87,120.87,0,0,1-8.1,18.74A8.7,8.7,0,0,1,552.66,589.87Z"/><path class="cls-1" d="M546.69,607.29a3.11,3.11,0,0,1,.35,3.64c-4.41,7.55-8,14.34-12.48,20.48-2.27,3.12-6.67,2.43-9.94,0a8,8,0,0,1-2.77-10.23c2.53-5.75,5.19-11.62,8.93-16.59,1.71-2.28,6.48-4,9.2-3.31C542.42,601.93,544.34,604.65,546.69,607.29Z"/><path class="cls-1" d="M582.22,520.89a2.8,2.8,0,0,1-.09.87c-1.92,5.84-3.74,12.67-6.51,19.09-1.74,4-5.89,5.47-10.19,3.75s-6.68-5.2-5.46-10c1.5-5.88,3.24-11.71,5.26-17.43,1.61-4.52,5.21-6.43,10-5.47C579.61,512.62,582.23,516.34,582.22,520.89Z"/><path class="cls-1" d="M592.64,437.65a10.7,10.7,0,0,0,.12,1.27,16.71,16.71,0,0,1,.19,2.73c-.07,4.86-3.31,8.65-7.76,9.19a8.87,8.87,0,0,1-9.45-7.43,142.6,142.6,0,0,1-2.18-18.16,7.83,7.83,0,0,1,6.9-8.55c4.43-.77,8.3.71,9.61,5.21.33,1.14.59,2.3.83,3.47.27,1.33.5,2.67.72,4s.4,2.56.57,3.85c.13,1,.25,2,.35,3C592.59,436.7,592.61,437.18,592.64,437.65Z"/><path class="cls-1" d="M591.29,477.37c-.54,3.31-1.25,8.8-2.37,14.2a8.35,8.35,0,0,1-9.68,6.88,8.15,8.15,0,0,1-7.31-9.28,167.15,167.15,0,0,1,2.62-18.1,8.44,8.44,0,0,1,9.92-6.56C589.58,465.44,591.73,468.76,591.29,477.37Z"/></svg>