<svg id="Livello_1" data-name="Livello 1" xmlns="http://www.w3.org/2000/svg" viewBox="0 0 800 800"><defs><style>.cls-1{fill:#26475c;}</style></defs><path class="cls-1" d="M209.34,390.27h20.94c3.22-15.86,6.38-31.45,9.72-47.92-3.54-1.86-8-4.18-12.46-6.55-6.47-3.47-8.62-8.94-5.7-14.41s8.54-6.77,15.11-3.53c3.92,1.94,7.79,3.95,11.44,5.8,8.18-12,16.26-23.83,25.09-36.79-4.25-4-9-8.71-14.16-13-1-.86-3.62-.46-5.24.09a33.17,33.17,0,0,1-34.65-54.72c10.84-10.7,28.25-12.48,41.38-4.22a32.65,32.65,0,0,1,13.26,38.33c-1.34,3.73-.8,5.79,1.91,8.33,6,5.62,11.71,11.53,17.48,17.38,6,6.13,6.09,11.31.13,17.5-22.45,23.33-35.93,51.06-40.81,83-9.29,60.9,23,124,78.17,152.68,57.76,30,125.51,20.54,172.73-24.19,7.29-6.9,11.87-6.83,19.07.33,5.56,5.54,11.23,11,16.6,16.71,2.52,2.68,4.59,3.3,8.35,2C566.05,521,584.89,531,590,549.29a32.71,32.71,0,0,1-24.43,41.13c-12.26,2.79-23.18-.48-31.82-9.9-8.81-9.62-10.71-20.95-6.82-33.09,1.12-3.49,1-5.48-1.71-7.92-4.17-3.79-8-8-11.59-11.76L478,552.2c1.49,3,3.31,6.68,5.11,10.36,3.23,6.57,1.9,12.28-3.51,15.15s-10.93.77-14.4-5.66c-2.14-4-4.19-8-5.91-11.29l-48.42,9.94v21.15c11.26,4.38,19.33,12.22,21.9,24.4,2.73,13-.85,24.42-11.28,32.87s-22.09,10.23-34.35,4.65-19-15.15-19.54-28.62c-.62-14.66,6.12-25.2,19.13-31.61,2.91-1.43,4-3,3.83-6.12-.24-5.8-.07-11.61-.07-16.67-13.26-2.78-25.9-5.12-38.38-8.14-10.08-2.44-10-2.8-14.92,6.76-.75,1.46-1.42,3-2.3,4.35-3.21,5-8.33,6.54-13.23,4.1s-6.93-8.05-4.51-13.51c1.9-4.28,4.11-8.44,6-12.2l-36-24.62c-4.12,4.35-8.9,9.1-13.23,14.23-.86,1-.41,3.62.14,5.25,6.13,18.06-3.55,37.5-21.5,42.95a32.87,32.87,0,0,1-41.73-23.46c-3.12-12.23-.23-23.26,9.05-32,9.59-9.06,21.11-11.28,33.47-7.24,3.87,1.27,5.84.44,8.35-2.17,3.9-4.08,8.2-7.76,11.82-11.13l-25-36.62c-3.51,1.78-7.64,3.93-11.82,6-6.48,3.16-12.27,1.6-15-3.95-2.63-5.38-.51-10.75,5.62-14.05,3.53-1.9,7.06-3.8,10.7-5.47,2.51-1.14,2.77-2.52,2.13-5.16-3.5-14.26-6.7-28.6-10.28-44.08-5.33,0-12.2-.21-19,.19-1.24.07-2.58,2.53-3.45,4.12-7.08,12.93-17.78,19.59-32.64,18.48-13.68-1-23.09-8.46-28.18-21-6.55-16.1,1-34.47,16.88-41.89a33.11,33.11,0,0,1,43,14C207.47,386.33,208.36,388.31,209.34,390.27ZM242.5,229.82a12.92,12.92,0,0,0,.53,25.83c6.88-.19,12.84-6.4,12.66-13.19A13.24,13.24,0,0,0,242.5,229.82Zm.24,315.48a12.9,12.9,0,1,0,12.94,12.88A13.19,13.19,0,0,0,242.74,545.3Zm315.59,0c-6.78-.09-13,6-13.06,12.8a13.23,13.23,0,0,0,12.8,13,12.91,12.91,0,0,0,.26-25.81ZM190.23,400.6a13.07,13.07,0,0,0-12.65-13.05,12.93,12.93,0,0,0-.25,25.86A13.08,13.08,0,0,0,190.23,400.6ZM400.28,636.23a12.74,12.74,0,0,0,13.13-12.46,12.92,12.92,0,0,0-25.83-.42A12.73,12.73,0,0,0,400.28,636.23Z"/><path class="cls-1" d="M477.25,248.43l36.53,24.95c4-4.25,8.68-8.87,12.93-13.85.92-1.07.91-3.6.39-5.14-6.25-18.38,3.06-37.6,21-43,18.85-5.74,37.9,4.82,42.28,24,2.81,12.26-.45,23.22-9.86,31.84-9.59,8.79-21,10.78-33.07,6.81-3.83-1.26-5.83-.61-8.32,2-3.75,4-7.86,7.59-11.6,11.15,8.45,12.37,16.5,24.18,25,36.57,3.55-1.8,7.68-4,11.86-6,6.4-3.13,12.28-1.51,15,4,2.59,5.35.45,10.64-5.73,14-2.23,1.23-4.54,2.31-6.8,3.49-2.09,1.09-4.16,2.22-5.95,3.18,3.26,15.83,6.46,31.41,9.88,48,5.75,0,12.62.21,19.47-.2,1.23-.07,2.6-2.54,3.42-4.15,6.62-13,19.07-19.76,34.3-18.42,12.18,1.08,23.93,11.12,27.5,23.51a33.16,33.16,0,0,1-61.09,24.89c-.94-1.75-1.77-3.56-2.67-5.37H569.77c-.71,5.82-1,11.62-2.2,17.24-1.87,8.89-4.13,17.71-6.62,26.45-.82,2.89-.48,4.27,2.26,5.52A123.13,123.13,0,0,1,574.83,466c5.28,3.11,6.93,8.64,4.31,13.59s-8,6.67-13.61,4.25c-2.33-1-4.57-2.27-6.84-3.42l-6.78-3.43c-1.85,3.17-3.62,6.29-5.47,9.37-3.71,6.17-9.44,8.12-14.67,5s-6.42-9-2.83-15.22c14.26-24.55,20.86-51,20.59-79.37-.62-67.07-51.54-128.57-117.83-142q-54.06-11-102.67,15c-1,.52-1.92,1.06-2.9,1.53-5.9,2.84-11.45,1.5-14.29-3.43-3-5.22-1.23-10.77,4.64-14.35,2.31-1.41,4.71-2.7,7.56-4.33-1.59-3.16-3.08-6.2-4.62-9.21-4.81-9.4-4.25-14.69,1.94-18.06s11.25-.66,16.22,9c1.66,3.22,3.34,6.43,5,9.65,9.77-2.31,19.23-4.7,28.77-6.72A88.9,88.9,0,0,1,386,231.88c3.62-.15,4.95-1.45,4.52-4.93a15.63,15.63,0,0,1,0-3.28c.72-8.5,0-14.94-9.41-20.12-12.91-7.06-16.77-23.79-11.66-37.61a33.39,33.39,0,0,1,33.35-21.72,33.82,33.82,0,0,1,30.31,26.57,32.63,32.63,0,0,1-17.28,35.78c-4.31,2.14-5.78,4.45-5.38,9.05.44,5,.1,10.15.1,14.59L458.6,240c1.93-3.71,4.21-8.23,6.6-12.68,3.34-6.2,8.64-8.33,14-5.74,5.55,2.67,7.16,8.53,4.07,15-1,2.13-2.14,4.22-3.22,6.34ZM636.19,400.21a12.76,12.76,0,0,0-13-12.64,12.92,12.92,0,0,0,.56,25.83A12.74,12.74,0,0,0,636.19,400.21ZM400.62,164.74a12.7,12.7,0,0,0-13,12.53,12.92,12.92,0,0,0,25.84.26A12.73,12.73,0,0,0,400.62,164.74Zm157.6,90.7a12.8,12.8,0,0,0,12.86-12.78,13.07,13.07,0,0,0-12.92-12.84,13.2,13.2,0,0,0-12.89,12.9A12.91,12.91,0,0,0,558.22,255.44Z"/><path class="cls-1" d="M331.68,321.53c25.72.05,45.9,20.44,45.83,46.31a45.81,45.81,0,0,1-46.44,45.77c-25.43-.09-45.68-20.81-45.59-46.65A45.77,45.77,0,0,1,331.68,321.53Zm0,71.76a25.81,25.81,0,0,0,25.72-25.82,25.86,25.86,0,1,0-51.72.35A25.67,25.67,0,0,0,331.7,393.29Z"/><path class="cls-1" d="M413.75,444.31A30.65,30.65,0,1,1,383,474.62,30.48,30.48,0,0,1,413.75,444.31Zm10.05,30.81c.1-6-4.12-10.42-10.08-10.47a9.88,9.88,0,0,0-10.27,9.74c-.23,6.07,3.86,10.53,9.81,10.68S423.69,481.1,423.8,475.12Z"/><path class="cls-1" d="M494.66,351.93a30.64,30.64,0,1,1-61.27,0,30.64,30.64,0,0,1,61.27,0Zm-20.43.22a10.19,10.19,0,1,0-20.37-.5c-.17,6,4,10.5,9.93,10.61A9.89,9.89,0,0,0,474.23,352.15Z"/><path class="cls-1" d="M500.14,456.34a13.13,13.13,0,0,1-.46-26.26,13.13,13.13,0,1,1,.46,26.26Z"/><path class="cls-1" d="M413.62,290.09a13.13,13.13,0,1,1-26.26.34,13.13,13.13,0,1,1,26.26-.34Z"/><path class="cls-1" d="M327.37,482.64a13.14,13.14,0,1,1,12.86-13.41A13,13,0,0,1,327.37,482.64Z"/></svg>