<?xml version="1.0" encoding="utf-8"?>
<!-- Generator: Adobe Illustrator 28.2.0, SVG Export Plug-In . SVG Version: 6.00 Build 0)  -->
<svg version="1.1" id="Livello_1" xmlns="http://www.w3.org/2000/svg" xmlns:xlink="http://www.w3.org/1999/xlink" x="0px" y="0px"
	 viewBox="0 0 793.4 798.9" style="enable-background:new 0 0 793.4 798.9;" xml:space="preserve">
<style type="text/css">
	.st0{fill:#26475C;}
</style>
<g>
	<path class="st0" d="M206.9,4.5c4.7,2.6,8.3,9,10.3,13.4c24.1,52.9,28.4,108.1,18.9,164.9c-9.3,56-29.4,108.8-48,162
		c-16.9,48.4-33.4,96.9-43.4,147.4c-1.1,5.5-1.9,11-2.8,16c23,5.6,45.5,10.3,67.4,16.7c41.9,12.1,80.5,31.6,117.6,54.1
		c13,7.9,26.3,15.2,39.3,23.1c19.7,12,39.3,12.1,59.2,0.4c22.4-13.2,44.4-27.4,67.7-38.9c27.4-13.6,55.9-24.9,84.1-36.8
		c7.4-3.1,14.7,0.7,17.1,7.4c2.6,7.3-0.7,14.2-8.6,17.4c-1.4,0.6-2.9,1.1-4.4,1.5c-31.7,10.4-61.7,24.7-90.3,41.7
		c-14.8,8.8-29.5,17.9-44.7,26.2c-9.7,5.3-19.9,9.9-30.2,13.6c-5.2,1.8-6.7,3.9-6.7,9.1c0.2,43.9,0.1,87.7,0.1,131.6
		c0,2.6,0.1,5.2-0.1,7.7c-0.7,8.1-6.1,13.4-13.3,13.3c-7.3-0.1-12.3-5.4-13-13.6c-0.2-2.6-0.1-5.2-0.1-7.7
		c0-43.6-0.1-87.2,0.1-130.8c0-5.5-1.7-7.6-7-9.7c-13.3-5.4-26.5-11.4-38.9-18.7c-38.2-22.5-76.1-45.5-118.3-60.1
		c-26.1-9-52.7-15.9-81.1-19.9c-1,9.8-2.3,19.2-2.9,28.6c-4.5,70.1,5.3,138.3,28.1,204.7c0.9,2.7,1.9,5.3,2.7,8
		c2.8,8.8,0,15.7-7.5,18.4c-7.3,2.7-14.5-1.1-17.3-9.7c-5.3-16.1-10.7-32.3-15.2-48.7c-15.6-58-22.2-117-17.1-177
		c2.2-26.4,6.9-52.6,11.3-78.8c1.2-7.4,1.2-12-6.2-16.2c-8.7-4.9-16.4-11.6-24.2-18c-7.1-5.8-8-13.6-3-19.6c5-5.9,12.8-6.1,20-0.5
		c6.9,5.4,13.8,10.7,21.5,16.7c0.9-2.7,1.6-4.4,2.2-6.3c18.7-56.2,37.5-112.4,56.1-168.6c11.8-35.5,22-71.4,26.1-108.8
		c5.1-45.8-0.7-90-19.6-132.2c-3.9-8.7-4.6-16.5,4.3-22.8C200.8,2.7,204.1,2.9,206.9,4.5z"/>
	<path class="st0" d="M594.5,3.5c6.4,3.2,9.9,13.8,6.6,20.9c-27.2,58.3-29.5,118.9-13.1,179.8c13.1,48.7,30.4,96.2,45.8,144.2
		c9.6,29.9,19.1,59.8,28.7,89.8c0.5,1.4,0.9,2.9,1.9,5.7c7.8-6.1,15-11.7,22.3-17.2c8.1-6.2,17.6-4.3,21.3,4.2
		c2.8,6.3,0.9,11.8-4.3,15.9c-8.5,6.7-16.8,13.8-26,19.4c-6,3.7-6.8,7.4-5.4,13.7c9.7,43.5,14.2,87.5,13,132.1
		c-1.6,59.8-13.6,117.6-33.5,173.8c-3.1,8.6-10.1,12.4-17.3,9.8c-7.5-2.7-10.5-9.7-7.5-18.4c13.5-39.1,23.6-78.9,28.4-120.1
		c6.8-58,3.2-115.3-9-172.2c-2.9-13.3-6.2-26.6-9.8-39.7c-0.6-2.1-3.7-3.8-6-4.9c-1.7-0.8-4.1-0.2-6.1-0.2
		c-134.2,0-268.3,0-402.5-0.1c-3.8,0-7.9-0.1-11.4-1.3c-6.1-2.1-8.7-7.1-8-13.5c0.7-6.4,4.5-10.3,10.8-11.3c3-0.5,6.2-0.3,9.3-0.3
		c131.3,0,262.6,0,394,0c3.3,0,6.6,0,11.1,0c-3.3-10.2-6.2-19.5-9.3-28.7c-16.9-50.8-34.8-101.3-50.6-152.5
		c-12.7-41.1-18.4-83.5-15.1-126.8c2.5-31.8,10.2-65.7,25.7-93.8c1.4-2.5,2.9-5,5.1-6.7C587.6,2.1,591.4,2,594.5,3.5z"/>
	<path class="st0" d="M792.2,229.4c-3.2,5.6-12.2,8.5-18.9,8.4c-32.5-0.4-64.9-0.2-99.4-0.2c2.6,3.6,4.5,6.1,6.3,8.6
		c4.5,6.6,3.7,14.2-2,18.7c-5.8,4.6-13.4,3.9-18.6-2.3c-8.1-9.7-15.9-19.6-23.6-29.6c-4.3-5.6-4.2-11.5,0.2-17
		c7.6-9.7,15.3-19.5,23.2-29c5.5-6.5,13.3-7.3,19.1-2.5c5.5,4.6,6.1,12.2,1.5,18.8c-1.6,2.3-3.3,4.4-5.5,7.5c15,0,29,0,44,0
		c-0.8-2.7-1.5-5.3-2.3-7.8c-6.6-19-13.3-37.9-19.7-56.9c-2.6-7.7,0.8-14.6,7.6-17c7-2.5,13.7,0.6,17,8c0.6,1.4,1.1,2.9,1.6,4.3
		c7.3,21.2,14.8,42.2,21.8,63.5c1.7,5.1,4,6.9,9.2,6.5c6.7-0.5,13.4,0.2,20.1-0.2c6.2-0.4,13.8,1.3,17.4,7
		C794,222.7,793.9,226.4,792.2,229.4z"/>
	<path class="st0" d="M97.3,4.3c13.2,3.1,16.8,27.4,18.4,37.7c1.1,7.3,0.7,14.9,0.5,22.3c-0.3,8-6,13.4-13.1,13.3
		c-7.4-0.1-12.7-6.1-13.1-14.3c-0.4-8.2-0.7-16.4-1.8-24.5c-0.5-3.9-2.4-7.8-4.2-11.5C79.1,17.9,82.3,3,95.5,4
		C96.1,4.1,96.7,4.2,97.3,4.3z"/>
	<path class="st0" d="M704.2,4.1c10.4,3.5,8.6,15.4,4.3,23.3c-5.4,10.1-6.4,21-6.1,32.1c0.1,3.3,0,6.8-1.1,9.8
		c-2.2,6-7.1,8.9-13.4,8.1c-6.2-0.7-10.8-4.4-11.4-10.8c-1.4-14.1,0.5-68.6,25.8-63C703.1,3.8,703.7,3.9,704.2,4.1z"/>
	<path class="st0" d="M118.7,237.7c-31,0-60.1,0-89.2,0c-5.4,0-10.8,0.2-16.3-0.1c-7.7-0.3-12.9-5.3-13.2-12.4
		c-0.3-7.2,5-13.3,12.8-13.7c8.5-0.5,17-0.6,25.5-0.1c6,0.4,8.2-2,10-7.5c7.2-22,14.9-43.9,22.7-65.7c3.6-10.1,14.4-13.3,21.6-6.6
		c5,4.6,5.2,10.2,3,16.3c-7,19.7-13.8,39.4-20.6,59.1c-0.3,0.9-0.5,1.9-1,3.6c14.6,0,28.7,0,44,0c-2.2-2.9-4.1-5.2-5.8-7.7
		c-4.5-6.5-3.6-14.3,2.1-18.7c5.5-4.3,13.1-3.9,18,2c8.5,10,16.6,20.4,24.6,30.9c3.9,5.1,3.6,10.7-0.3,15.7
		c-7.8,10-15.5,19.9-23.6,29.7c-5.3,6.3-12.7,7.1-18.6,2.6c-6-4.6-6.7-12.4-1.8-19.2C114.4,243.6,116,241.4,118.7,237.7z"/>
	<path class="st0" d="M54.3,311.6c-0.9,18.2,1.9,35.9,7.8,53.2c3.4,9.9,0.6,17.3-7.2,19.8c-8,2.6-14.1-1.4-17.8-11.4
		c-9.2-25.5-10.8-51.8-9.1-78.5c0.6-8.6,6.3-14,13.7-13.8c7.9,0.2,12.7,6.1,12.6,15.3C54.3,301.3,54.3,306.5,54.3,311.6z"/>
	<path class="st0" d="M764.5,313.5c0.9,20.6-2.3,40.6-9.1,59.9c-3.5,9.8-10,13.8-17.9,11.1c-7.5-2.6-10.4-9.8-7.1-19.2
		c6.8-19.5,9.1-39.6,8.3-60.1c-0.1-3.3-0.3-6.7-0.3-10c0-8.2,4.8-13.8,12.1-14.3c7.2-0.5,13.3,4.6,14,12.5
		C765,300,764.5,306.8,764.5,313.5z"/>
	<path class="st0" d="M383.4,332.1c0-4.1-0.4-8.3,0.1-12.3c0.9-7.2,6.1-11.7,13.1-11.4c7.2,0.2,11.9,4.1,12.5,11.1
		c0.7,8.4,0.7,16.9,0,25.3c-0.6,7.1-5.7,10.8-12.6,11.2c-6.6,0.4-12.2-4.6-13-11.6C383,340.3,383.4,336.2,383.4,332.1z"/>
</g>
</svg>
