<svg id="Livello_1" data-name="Livello 1" xmlns="http://www.w3.org/2000/svg" viewBox="0 0 800 800"><defs><style>.cls-1{fill:#26475c;}</style></defs><path class="cls-1" d="M245.08,680.69l-.5-.1a29.32,29.32,0,0,1-9.36-4.53,26.78,26.78,0,0,1-11.28-16,45.26,45.26,0,0,1-.9-10.29c-.08-22.08-.15-44.16,0-66.24.13-20.06-5.78-37.8-18.43-53.58-21.33-26.61-42.23-53.57-63.3-80.38-14-17.8-21.23-37.9-21.12-60.67.15-31.75.95-63.54-.2-95.25-1.37-37.92,23.46-72.67,65.56-79.73,0-9.45-.15-19.06.06-28.65.13-6.17,0-12.52,1.35-18.46,8.24-35.7,48.71-48.93,76.71-25.3.81.68,1.69,1.28,2.55,1.93,21.43-34,69.1-30,84.59,6.9,12.37-10,26.35-14,41.88-10.19s26.23,13.68,32.13,27.58c7.64-3.12,14.87-7.34,22.64-9,28.3-6,55.5,16.2,55.94,45.15q.33,22.17-.05,44.34c-.07,3.82,1.31,5.28,4.65,6.64,65.19,26.43,106.68,73.83,121.84,142.47,11.7,52.93,1.41,102.74-28,148.43-1,1.52-2,3-3.28,4.91,1.34,1.43,2.62,2.9,4,4.27,13,13,26,25.88,39,38.85,14,14,31.3,27.49,40,45.71,1.61,3.38,1.18,6.9-.41,10.27A65.38,65.38,0,0,1,673,662.58,66.75,66.75,0,0,1,661.32,674c-3.93,3-8.41,6.26-13.42,7.44-5.72,1.33-10.17-.92-14.82-4a100.42,100.42,0,0,1-15.22-12.11q-7.43-7.26-14.79-14.58-14.75-14.64-29.38-29.39-9.37-9.42-18.77-18.83c-1.38-1.38-2.84-2.66-4.31-4a198.14,198.14,0,0,1-84.45,33.59c0,7.16.15,13.9,0,20.62A30.3,30.3,0,0,1,456,674.24a27.51,27.51,0,0,1-10.56,5.9c-4.4,1.27-8.63.75-13.12.74q-8.27,0-16.52,0c-11,0-22,0-33,0H274.23C265.09,680.89,254.22,682.44,245.08,680.69ZM483.93,247c0-15.77.84-31.3-.24-46.7-1-13.55-14.51-24.26-27.69-23.89a27.85,27.85,0,0,0-27.09,26.32c-.49,7-4,10.95-9.68,11-5.88,0-9.46-4.23-9.6-11.53-.12-6.2.16-12.42-.24-18.6-1.34-20.67-25.46-32.65-42.73-21.25-7.6,5-11.7,12.18-12.52,21.35-.72,8.08-4.27,11.69-10.41,11.27q-8.75-.6-8.8-12.19c0-5.47.11-10.95-.06-16.42-.44-14.13-12.18-26.12-26.54-27.27-13.23-1.06-26,9-28.44,22.88-.76,4.27-.51,8.71-.87,13.06-.16,1.95-.27,4.1-1.16,5.76-2.08,3.91-5.62,5.89-10,4.79-4.71-1.17-7.14-4.37-7.53-9.47-1.2-15.53-11.71-26.72-25.39-27.43-17.11-.88-30.4,11.8-30.41,29.24q-.08,90.33,0,180.65c0,9.66-3.18,14.26-9.72,14.1-6.28-.16-9.2-4.59-9.2-14q0-58.85,0-117.7v-7.16c-2.36.42-4.12.59-5.79,1.06-24.58,7-40.69,28.54-40.82,55.11-.16,32.11.06,64.23-.08,96.34a82.22,82.22,0,0,0,18.7,53.5c21,26.17,41.51,52.74,62.34,79.05,14.81,18.7,22.23,39.78,21.92,63.72-.29,22.07-.07,44.16-.06,66.24,0,10.68,2.86,13.49,13.72,13.49H433.38a29.05,29.05,0,0,0,5.45-.2c4-.78,7.54-2.81,7.8-7.23.4-6.86.1-13.75.1-20.64-117.45,6.68-219-96.17-203.6-220.7C256.89,302.11,363.91,219.87,483.93,247Zm131.32,191.5A177.75,177.75,0,0,0,437.86,260.38C340.65,260,260.45,340.24,260.38,438c-.08,97.17,79.55,177.17,176.47,177.28C535.63,615.38,615.22,536.5,615.25,438.45ZM591.64,612.81q23.31,23.19,46.59,46.31c4.28,4.22,7.23,4.06,11.71-.27,2.76-2.66,5.45-5.39,8.14-8.11,5.38-5.47,5.38-8.15-.17-13.72q-21.46-21.48-43-42.91c-.86-.86-1.83-1.59-2.5-2.16Zm-14.07-15.66,19-19-9.5-11.44-20.62,20.2Z"/><path class="cls-1" d="M447.1,545.75c-.15-15.87-.84-31.87,5.55-46.88q12.19-28.62,25.11-56.94a76.94,76.94,0,0,0,6.87-32.31c0-32.67-.13-65.33.12-98,0-4.83-1.5-7-6.07-7.67a28.16,28.16,0,0,1-5.73-1.73c-5.55-2.08-8.11-7-6.39-12.14,1.58-4.73,6.49-7.29,12-5.76C529,298.46,564.92,329.59,585,377.89c38.87,93.51-20.37,199.91-120,216.57-86.49,14.46-167.52-42-183.52-127.9-16.24-87.13,43.15-171.15,131.18-185.4A207.74,207.74,0,0,1,436,279.1c6.8-.33,11.22,3.44,11.44,9s-4,9.48-10.84,9.68c-27,.76-52.35,7.43-74.75,22.73-44.85,30.64-66.41,73.26-63.37,127.71,3.28,58.77,47,114.33,113,127.14,10.12,2,20.65,1.76,31,2.58,3.54.28,4.76-1.26,4.69-4.81C447,564,447.1,554.87,447.1,545.75Zm56.35-231.06v6.56c0,30.29.1,60.58-.09,90.87,0,6-.19,12.25-2,17.83-4,12.24-8.86,24.2-13.77,36.12-6.16,15-15.47,29.26-18.4,44.79-3.9,20.69-3,42.29-4.12,63.82,40.43-6.14,100.1-42.2,111.42-116.85C585.42,398.94,554.1,340.36,503.45,314.69Z"/><path class="cls-1" d="M428.79,433.58c.06,9-3.22,13.8-9.47,13.88s-9.7-4.78-9.7-13.71a39.72,39.72,0,0,1,.22-6c.83-5.39,4.6-8.67,9.59-8.57s8.68,3.66,9.32,8.93A45,45,0,0,1,428.79,433.58Z"/><path class="cls-1" d="M372.24,451.81q0-14.24,9.87-14c6.33.17,9.37,4.7,9.38,14,0,9.51-3.24,14.33-9.63,14.32S372.24,461.31,372.24,451.81Z"/><path class="cls-1" d="M372.22,404.75c0-.54,0-1.07,0-1.6.07-3.16.7-6.54,2.76-9a8.62,8.62,0,0,1,6.86-3.09c5.95,0,9.54,4.74,9.58,12.73a43.71,43.71,0,0,1-.26,7.06c-.86,5.43-4.55,8.5-9.68,8.37a9.18,9.18,0,0,1-7.68-4.36C372,411.79,372.11,408.19,372.22,404.75Z"/><path class="cls-1" d="M428.85,386.66c0,1.09,0,2.19,0,3.28-.27,6.41-3.86,10.46-9.35,10.59s-9.42-3.72-9.83-10.09a58.62,58.62,0,0,1,0-8.17c.46-5.95,4.44-10,9.57-10s9.12,4.14,9.56,10c.1,1.45,0,2.91,0,4.36Z"/><path class="cls-1" d="M428.89,527v.1a42.72,42.72,0,0,1-.24,5.31,9.37,9.37,0,0,1-9.3,8.29,8.93,8.93,0,0,1-9.36-8.08,47.26,47.26,0,0,1-.11-11.4,9.46,9.46,0,0,1,9.52-8.74c4.76.11,8.68,3.82,9.33,9A34.62,34.62,0,0,1,428.89,527Z"/><path class="cls-1" d="M372.39,358.23c-.14-9.87,3.66-14.53,10.95-13.58,6.19.8,8.52,5.55,8.14,16.58-.24,6.82-3.73,11.11-9.23,11.35a9.54,9.54,0,0,1-9.81-8.38A38.34,38.34,0,0,1,372.39,358.23Z"/><path class="cls-1" d="M372.35,498.63c-.11-9.2,2.52-13.4,8.59-13.87,6.34-.49,10.24,3.56,10.54,11,.47,11.52-2.59,17-9.55,17-4.86,0-8.81-3.47-9.54-8.69A39.33,39.33,0,0,1,372.35,498.63Z"/><path class="cls-1" d="M428.92,339.84c0,.92-.05,1.83-.07,2.72-.17,7.08-3.88,11.34-9.78,11.25-5.66-.09-9.22-4.2-9.43-11.05a52.73,52.73,0,0,1,.16-8.15c.7-5.62,4.65-9,9.89-8.77,4.9.21,8.51,3.75,9.09,9.11A37.83,37.83,0,0,1,428.92,339.84Z"/><path class="cls-1" d="M427.91,487.94c-1.47,4.27-4.85,6.23-9.29,6-4.23-.24-7.46-2.46-8.21-6.65a49.06,49.06,0,0,1-.57-12.4c.44-5.65,4.53-9,9.76-8.86,4.92.16,8.57,3.68,9.16,9a41.73,41.73,0,0,1,0,7.07A21.4,21.4,0,0,1,427.91,487.94Z"/><path class="cls-1" d="M465.16,338.69a8.48,8.48,0,0,1-9.44,5.81c-4.35-.46-7.58-2.95-8.13-7.49a58.93,58.93,0,0,1-.22-11.95c.46-5.38,4.42-8.81,9.35-8.75a9.72,9.72,0,0,1,9.37,8.93,44.39,44.39,0,0,1,0,7.56A20.9,20.9,0,0,1,465.16,338.69Z"/><path class="cls-1" d="M353.94,489c0,.54,0,1.09,0,1.63,0,3.37-.18,6.87-2.4,9.6a8.94,8.94,0,0,1-7.41,3.2c-5-.21-8.83-4.16-9.13-9.7-.15-2.72-.11-5.45,0-8.18.21-6.13,4.23-10.44,9.59-10.4s8.9,3.93,9.38,10C354,486.44,354,487.72,353.94,489Z"/><path class="cls-1" d="M465.18,385.38c-1.47,4.32-5.05,6.21-9.39,5.8s-7.6-2.86-8.2-7.41a58.58,58.58,0,0,1-.31-11.39c.4-5.83,4.06-9.17,9.41-9.14s9.13,3.85,9.46,9.79c.08,1.45,0,2.9,0,4.35A31,31,0,0,1,465.18,385.38Z"/><path class="cls-1" d="M335,396.07c0-.33,0-.66,0-1a39.55,39.55,0,0,1,.08-5,9.29,9.29,0,0,1,9.34-8.17c5,0,8.61,2.91,9.22,8.08a54.73,54.73,0,0,1,.15,10.86c-.44,5.55-4.63,9.39-9.55,9.23s-8.86-4.19-9.27-9.66C334.86,399,334.93,397.53,335,396.07Z"/><path class="cls-1" d="M466.1,424.51c.06,8.71-2.64,12.85-8.59,13.3-6.38.48-10.05-3.45-10.4-11-.57-12.06,1.48-16.08,9.48-17,4.75-.54,8.87,3.56,9.47,8.68A52,52,0,0,1,466.1,424.51Z"/><path class="cls-1" d="M354.08,442.63a39.29,39.29,0,0,1-.33,5.43c-.74,5.4-4.34,8.57-9.48,8.49a9.27,9.27,0,0,1-9.25-8.84A72.14,72.14,0,0,1,335,439c.18-6.28,3.95-10.45,9.4-10.51s9.19,4,9.6,10.32C354,440.08,354.08,441.36,354.08,442.63Z"/></svg>