<svg id="Livello_1" data-name="Livello 1" xmlns="http://www.w3.org/2000/svg" viewBox="0 0 800 800"><defs><style>.cls-1{fill:#26475c;}</style></defs><path class="cls-1" d="M649.36,349.93c-3.76,4.21-7.38,8.55-11.32,12.59-7.8,8-15.77,15.84-23.68,23.74-6.52,6.52-8.73,6.95-17.5,3.21v8.25q0,33.78,0,67.56c0,5.36-3.31,9.28-8.07,10A9.61,9.61,0,0,1,578,468.93a19.22,19.22,0,0,1-.54-5.74q0-42.78,0-85.55c0-2.79-.57-4.75-2.93-6.59Q489.08,304.5,403.76,237.73c-2.56-2-4-1.92-6.55,0q-85.3,66.78-170.66,133.46a8.57,8.57,0,0,0-2.88,5.94q-.22,123.95-.13,247.89v3.6h27.24v-5.39q0-42.53,0-85.06c0-4.55,1.82-7.85,6-9.62,3.76-1.61,7.75-1.26,10.24,1.89a15.3,15.3,0,0,1,3.1,8.71c.23,28,.14,56.06.14,84.09v5.44H577.43v-5.11q0-42.29,0-84.57c0-5.43,3.17-9.36,7.89-10.14a9.57,9.57,0,0,1,10.88,6.16,18.51,18.51,0,0,1,.62,5.73q0,41.07,0,82.14v6h6.8c11,0,22,.24,33-.09,5.85-.18,10.1,1.55,12.66,6.89v5.84c-2.57,5.34-6.83,6.89-12.66,6.89q-236.18-.18-472.36-.09c-1.29,0-2.6.07-3.88,0a9.71,9.71,0,0,1,.13-19.35c2.25-.15,4.53,0,6.8,0h36.5V389.57c-8.77,3.69-10.67,3.27-17.59-3.65q-15.12-15.12-30.24-30.24c-6.53-6.57-6.15-12.13,1.18-17.86Q245.49,268.91,333.73,200q31.49-24.6,62.87-49.37c3.4-2.63,5-2.44,7.77,0,0,.16,68.19,53.56,102.25,80.09,1.33,1,2.74,2,4.26,3a7.64,7.64,0,0,0,.4-1.43c0-11.49,0-23,.05-34.48,0-7.7,3.57-11.22,11.29-11.23q26.22,0,52.45,0c8.8,0,12.06,3.2,12.07,11.89,0,30.27.05,60.55-.08,90.82a7.71,7.71,0,0,0,3.33,6.91q25.36,19.54,50.54,39.37c3.1,2.46,5.64,5.64,8.43,8.49ZM197.74,368.5c.92-.67,1.86-1.31,2.75-2Q296.19,291.77,391.9,217c7.07-5.52,10.1-5.55,17.14,0q91.29,71.28,182.58,142.56c4,3.14,8.1,6.2,11.45,8.77l20.94-21L400.5,172.84,176.82,347.48ZM530.8,206.27c0,14.12,0,27.84.09,41.56a5.4,5.4,0,0,0,2.11,3.44c10.78,8.52,21.64,16.94,32.49,25.36a10.29,10.29,0,0,0,2,.93V206.27Z"/><path class="cls-1" d="M503.53,465.75q0,45.44,0,90.87c0,8.79-3.23,12-11.93,12H309.36c-8.7,0-11.92-3.25-11.92-12V374.37c0-8.46,3.3-11.79,11.69-11.79H491.85c8.37,0,11.67,3.35,11.68,11.8Q503.55,420.07,503.53,465.75ZM317.28,382.11v73.47H390.4V382.11Zm166.6.24H410.59v73.3h73.29ZM317.15,475.57v73.35h73.26V475.57ZM483.75,549V475.73H410.46V549Z"/><path class="cls-1" d="M270.2,499.12a9.71,9.71,0,1,1-9.84-9.82A10,10,0,0,1,270.2,499.12Z"/><path class="cls-1" d="M596.85,504.7a9.71,9.71,0,1,1-9.64-9.9A9.55,9.55,0,0,1,596.85,504.7Z"/></svg>