<svg id="Livello_1" data-name="Livello 1" xmlns="http://www.w3.org/2000/svg" viewBox="0 0 800 800"><defs><style>.cls-1{fill:#26475c;}</style></defs><path class="cls-1" d="M570.12,140.05a40.93,40.93,0,0,1,7.38,1.86,54.9,54.9,0,0,1,12.71,5.92,51.61,51.61,0,0,1,13.86,14,52.87,52.87,0,0,1,9,30.4c-.57,25.4-.1,50.82-.15,76.23,0,5.79-3.11,9.86-8,10.91a10,10,0,0,1-11.49-6.19,19.46,19.46,0,0,1-.79-6.48c-.06-24.73,0-49.46-.06-74.2-.05-15.77-8.43-27.65-22.28-31.39a44.69,44.69,0,0,0-11.53-1.42q-158.31-.1-316.62,0c-21,0-33.76,12.8-33.77,33.93q0,125.54,0,251.06c0,21.46,12.66,34.17,34,34.17q158.06,0,316.12,0c21.38,0,34-12.71,34.06-34.15q0-43.2,0-86.4c0-6.17,2.63-10.25,7.21-11.48,6.67-1.8,13,2.58,13,9.62.13,32.19.62,64.39-.18,96.56-.59,24.22-24.12,46-48.4,46.12-35.41.18-70.81,0-106.22.06h-6.69c0,9.69-.07,19.1.11,28.51,0,.86,1.54,2,2.61,2.47,16.67,7.36,24.84,20.14,24.68,38.31,0,2.88,0,5.76,0,8.64-.13,7.59-4,11.48-11.68,11.5-18.64.05-37.27,0-55.91,0q-38.12,0-76.23,0c-9,0-12.76-3.6-12.65-12.54.08-6.07-.1-12.26,1.06-18.16,2.56-13,10.51-22.11,22.72-27.22,2.8-1.17,3.76-2.58,3.69-5.56-.2-8.44-.07-16.88-.07-26H344q-52.09,0-104.18,0c-29.27,0-51.69-22.46-51.7-51.77,0-84.87.25-169.75-.16-254.62a54.38,54.38,0,0,1,17.15-40.22A50.61,50.61,0,0,1,217,144.34a53.4,53.4,0,0,1,12.82-4.53c4.79-.95,9.73-.53,14.57-.53H557.43A78.89,78.89,0,0,1,570.12,140.05ZM458.24,568c-.2-12.2-7.21-19.89-18.71-20q-39.11-.33-78.21,0c-11.49.11-18.56,8-18.5,20Zm-27.33-68.54H370.37v27.76h60.54Z"/><path class="cls-1" d="M659.91,629a47.58,47.58,0,0,1-8.38,17.37,32.48,32.48,0,0,1-26.36,13.17q-55.14.39-110.27.05c-11.69-.05-22.06-9.56-23.95-21.07l-1-6.28h-6.26q-151.69,0-303.4,0c-19.07,0-33.58-10.64-38.7-28.25-6.57-22.64,10.75-47.3,34.34-47.83,26.41-.58,52.84-.29,79.27-.26,7.18,0,11.4,4,11.4,10.14s-4.49,10.24-11.93,10.26c-25.07.05-50.14,0-75.21,0-8.49,0-15.23,4.64-17.69,11.91a17.44,17.44,0,0,0,12.52,22.85,34.29,34.29,0,0,0,8,.8q151.19.06,302.38,0h5.21c.5-3,.75-5.67,1.42-8.27a25.64,25.64,0,0,1,24.58-19.14q53.87-.13,107.74,0a37.17,37.17,0,0,1,34.15,23.31c2.11,5.13,3.36,9.86,3,15.46A35.75,35.75,0,0,1,659.91,629Zm-64.46-24.17c-26.43,0-52.44-.05-78.46.06-3.68,0-5.91,2.2-5.91,6.17,0,6.59,0,13.19,0,19.79,0,7,1.58,8.51,8.73,8.51q35,0,70,0h5.63Zm20.87.3v33.91c16,2.24,23.9-7.12,23.9-17S632.3,602.9,616.32,605.14Z"/><path class="cls-1" d="M401,179.94H549.41c14.9,0,22.87,7.93,22.87,22.77q0,116.61,0,233.23c0,14.5-8.06,22.49-22.65,22.49H251.35c-14.57,0-22.61-8-22.61-22.52q0-116.88,0-233.74c0-14.14,8.15-22.23,22.39-22.23Zm150.57,258V200.66H249.32V437.9Z"/><path class="cls-1" d="M612.91,315.17A10.13,10.13,0,1,1,603.08,305,10.19,10.19,0,0,1,612.91,315.17Z"/><path class="cls-1" d="M290.48,565.84A9.88,9.88,0,0,1,301,556a10.3,10.3,0,0,1,9.8,10.22,10.75,10.75,0,0,1-10.19,10A10.29,10.29,0,0,1,290.48,565.84Z"/><path class="cls-1" d="M405.37,406.76c-54.07-1-96.45-18.05-131.84-52.09-5.37-5.17-5.54-10-.44-16.55q31.19-39.75,62.47-79.43,6.12-7.78,12.27-15.55c5.82-7.36,9.27-8.27,17.91-4.12a79.46,79.46,0,0,0,34.74,8.07,77.92,77.92,0,0,0,33.36-7.4c10.6-4.95,13.18-4.4,20.26,4.59q36.47,46.26,72.87,92.57c6.74,8.58,6.25,12.33-1.66,19.84A178.22,178.22,0,0,1,436.08,403C424.36,405.35,412.29,405.94,405.37,406.76Zm101.68-61.53a4.36,4.36,0,0,0-.39-.88q-32.31-41.1-64.75-82.1c-.91-1.15-3.89-1.7-5.4-1.15-24,8.72-47.95,8.85-71.83-.17-3.05-1.15-4.53-.48-6.3,1.91-3.92,5.31-8.12,10.4-12.2,15.59L293.78,345C351.85,399,447.57,400,507.05,345.23Z"/><path class="cls-1" d="M297.51,240.92c-5.58,0-11.17.05-16.76,0-6.94-.08-11.39-4.16-11.33-10.26.06-5.89,4.43-10,11.06-10q17-.13,34,0c6.69.05,10.95,4,11,10,.08,6.19-4.25,10.2-11.26,10.28C308.69,241,303.1,240.92,297.51,240.92Z"/><path class="cls-1" d="M289.68,269.47a10.13,10.13,0,1,1-9.79-10.21A10.21,10.21,0,0,1,289.68,269.47Z"/></svg>