<svg id="Livello_1" data-name="Livello 1" xmlns="http://www.w3.org/2000/svg" viewBox="0 0 800 800"><defs><style>.cls-1{fill:#26475c;stroke:#fff;stroke-miterlimit:10;stroke-width:2px;}</style></defs><path class="cls-1" d="M118.42,304.61c2.35-6.17,7-8.89,12.61-10.59,43.67-13.17,81.53-36,114.58-67.46,38.86-36.95,98.93-37.59,139.82-2.27,3.6,3.11,7.45,6,10.69,9.44s5.79,2.91,9-.19c4.46-4.31,9.25-8.32,14.1-12.2,40.51-32.29,97.82-30.85,135.55,4.72,34,32.06,72.73,55.33,117.45,68.76.62.19,1.25.39,1.85.64,5.35,2.23,8.08,6.18,7.41,11.79-.64,5.31-3.75,9-9.11,9.42-11.08.92-19.88,6.37-27.26,13.89-14,14.23-27.33,29-41.06,43.45-1.95,2-4.36,4.18-7,5-5,1.5-9.41,0-12.28-4.73-3-4.9-2.11-9.47,1.55-13.56,10.38-11.57,20.84-23.08,31.26-34.61a13.81,13.81,0,0,0,3.33-5.2c-11.07,1.32-22.16,2.5-33.21,4-25.72,3.46-49.28,14.34-73.81,21.86-35.54,10.89-71.61,19.49-108.82,20.75-16.28.56-32.82-1.84-49-4.33-36-5.55-70.66-16.19-104.83-28.63-23-8.36-46.88-12.06-71.37-13.19,8,13.28,75.68,82.26,96,97.39,1.22-2,2.28-4.68,4.14-6.59,6.39-6.55,12.29-6.41,18.9.09,3.79,3.72,7.53,7.48,11.3,11.21a6.87,6.87,0,0,0,1.24.73C321.59,414,331.68,403.64,342,393.52c7.18-7,18.05-4.53,19.33,4.8.48,3.49-1.57,8.34-4.1,11.05-9.72,10.42-20.09,20.23-29.92,30,7.13,13.31,19.94,15.48,32.48,17.77,55.05,10,106.44,1,153.5-30,4.68-3.07,9.32-4.36,14.28-1.2,3.93,2.49,5.77,6.5,4.52,10.88-.84,2.9-2.76,6.21-5.19,7.84-29.41,19.7-61.51,32.32-96.82,36.75a236.75,236.75,0,0,1-90.18-6.07,7.54,7.54,0,0,0-6.17,1.47q-49.67,49.31-99,98.89a12.3,12.3,0,0,0-1.07,1.47,57,57,0,0,1,4.42,6.05,10.93,10.93,0,0,1-16.83,13.27c-3.34-3.08-6.07-6.82-8.94-10.12l-25.1,25.23a43.71,43.71,0,0,1,2.66,4,11.16,11.16,0,0,1-2.48,13.48,10.8,10.8,0,0,1-13.2.87,32,32,0,0,1-4.51-4q-21.57-21.53-43.07-43.1c-2.82-2.85-6.51-6.5-7.65-10.47a7.3,7.3,0,0,1,1.55-6.7c1.81-2.28,4.66-4.71,7.5-5.49,4.16-1.16,8.18,1.34,11.38,3.73l25-25c-2.94-2.66-6.44-5.38-9.39-8.59a11,11,0,0,1,.08-14.94,11.07,11.07,0,0,1,14.91-1.07c1.41,1.05,2.72,2.23,3.45,2.84,28.21-28.22,56.11-56.12,84.1-84.13a18.47,18.47,0,0,0-1.58-1.48c-21.75-17.21-40.75-37.21-59.26-57.77q-20.18-22.41-41.43-43.84c-6.15-6.22-13.39-11.61-22.62-12.44-6.12-.56-10.63-3.16-13.83-8.58ZM619,298.25a12.22,12.22,0,0,0-1.7-1.17c-28.8-14-54.24-32.78-77.52-54.75a80.76,80.76,0,0,0-107.71-2.83c-8,6.83-15.95,13.82-24,20.64a11.7,11.7,0,0,1-15.13,0c-7.3-6.21-14.48-12.55-21.79-18.75-33.9-28.78-79.59-27.72-111.9,2.78-22.22,21-46.69,38.65-74.09,52.23-1.14.56-2.16,1.35-4.09,2.57,28.43,1.65,55.15,6.2,80.88,15.69,28.27,10.43,57.07,18.95,86.7,24.55,21.21,4,42.53,7.71,64.19,5.74a427,427,0,0,0,100.86-21.69C547.93,311.46,582.09,299.79,619,298.25ZM289.53,435.19,191.2,533.54l26.87,26.77,98.22-98.18ZM170.37,594.74,194,571.29l-14-14.23-23.51,23.51Z"/><path class="cls-1" d="M559.77,393.21a10.63,10.63,0,0,1,11.08,11,11,11,0,0,1-11.06,11.14,11.55,11.55,0,0,1-11-10.87A11,11,0,0,1,559.77,393.21Z"/></svg>