<?xml version="1.0" encoding="utf-8"?>
<!-- Generator: Adobe Illustrator 28.4.1, SVG Export Plug-In . SVG Version: 6.00 Build 0)  -->
<svg version="1.1" id="Livello_1" xmlns="http://www.w3.org/2000/svg" xmlns:xlink="http://www.w3.org/1999/xlink" x="0px" y="0px"
	 viewBox="0 0 567.9 636.7" style="enable-background:new 0 0 567.9 636.7;" xml:space="preserve">
<style type="text/css">
	.st0{fill:#26475C;}
</style>
<g>
	<path class="st0" d="M101,362.5c0.3-26.7,6.9-48.7,20-68.5c2.3-3.5,2.3-6.3,1.3-10.3c-2.9-11-6.4-22.2-7-33.5
		c-1.4-26.5,14.4-47.1,41.3-55.9c5-1.6,8.3-3.9,10.5-8.9c2.3-5.3,5.7-10.3,9.2-14.9c24.2-31.7,41.3-67.3,57.6-103.4
		c2.4-5.3,2.7-11.7,3-17.7c0.9-19.9,12-36.5,30-42.8c18.3-6.5,35.1-3.7,49.3,10.2C323.6,23.9,328,33,328.5,43
		c0.9,18.3,7.6,34.7,16.1,50.4c12.1,22.2,24.4,44.3,37.2,66.1c6.2,10.6,13.6,20.6,20.6,30.8c0.9,1.3,2.9,2.2,4.6,2.7
		c37.1,12.3,52.6,39.8,41.5,77.9c-3.9,13.2-2.5,22.8,3.8,34.8c21,39.7,16.5,79.5-3.4,118.5c-1.5,2.9-2.9,6-4.8,8.5
		c-19.8,25.9-33.7,55.5-52,82.5c-24.2,35.8-53.1,67.3-86.8,94.3c-14.5,11.6-29.1,11.5-43.4-0.1c-48.6-39.3-87.2-86.7-115.4-142.6
		c-1.6-3.1-3.9-5.8-6-8.6c-18.5-23.5-32.8-49-37.7-79C101.7,372.7,101.4,366.1,101,362.5z M123.2,359.7c0.2,2.3,0.3,5.4,0.7,8.4
		c2.9,29.1,16.4,53.3,34,75.8c3.3,4.2,6.5,8.6,9,13.3c26.7,51.7,62.2,96.3,107.4,133.1c8.9,7.2,10.2,7.1,19.3-0.3
		c43.9-36,78.7-79.4,105.1-129.6c2.5-4.7,5.5-9.3,8.8-13.4c12.4-15.5,23.2-31.9,29.4-50.8c11.6-35.2,8.8-68.3-15.5-97.9
		c-3.4-4.1-3.3-8.4-1.3-13.1c2.7-6.7,5.6-13.5,7.3-20.4c6.9-27.3-4.3-45.4-31.9-51.1c-6.5-1.3-10.1-4.6-12.5-10.7
		c-5.5-14.3-14.5-26.4-27.2-35.1c-35.1-24.2-72.9-31.4-113.9-16.6c-25.2,9.1-45.8,23.7-56.6,49.2c-3.5,8.3-8.3,12.3-17.2,13.9
		c-21,3.8-32.9,20.2-29.8,41.3c1.4,9.4,4.4,18.6,7.9,27.5c2.7,6.7,2.4,11.8-2.2,17.4C129.9,317.4,123.8,337.3,123.2,359.7z
		 M339.5,132.8c-8.4-17-16.6-33.2-24.4-49.7c-4.8-10.2-8.3-20.6-8.1-32.3c0.2-10.5-4.8-19.1-15-23.4c-15.5-6.5-32.2,4.9-32.3,23.1
		c-0.1,11.7-3.2,22.2-8,32.4c-6.8,14.4-14.1,28.5-21.2,42.7c-1.1,2.1-2.1,4.3-3.3,7C274.9,116,293.9,116.9,339.5,132.8z"/>
	<path class="st0" d="M544.4,260.9c0-47.2-10.7-90-39-127.1c-24.8-32.6-57.9-54.1-95.1-70.1c-3.2-1.4-6.6-2.5-9.6-4.2
		c-5.5-3.1-7.2-7.8-4.9-13.7c2.3-5.8,7.8-8.8,13.6-6.5c82.5,33.9,141.1,88.7,155.3,181.1c8.7,56.5-1.5,111.1-18.8,164.7
		c-23.2,72.1-58.8,138.1-100.6,201c-8.8,13.3-18.3,26.1-27.6,39c-6.5,8.9-12.4,10.5-18.5,5.6c-6.1-4.9-5.8-10.3,0.6-18.9
		c52.7-71.2,95.3-147.9,123.3-232.3C536.1,340.6,544.2,300.8,544.4,260.9z"/>
	<path class="st0" d="M162.8,37.5c2.8,3,7.6,6,8.4,9.8c0.7,3.5-2,8.8-4.8,11.8c-2.9,3-7.8,4-11.9,5.8
		c-38.1,17.3-71.8,40.4-96.7,74.8c-24.3,33.6-34.9,71.7-36,112.7c-1.3,50.2,10.3,98.1,27.4,144.8c27.6,75.5,67.5,144.5,114.3,209.7
		c2.1,2.9,4.3,5.6,6.2,8.5c3.7,5.9,2.8,11.8-2.2,15.6c-5,3.8-11.3,3.2-15.6-2.2c-6.8-8.4-13.4-16.9-19.5-25.8
		C82.3,530.9,41.7,453.9,17,369.2c-12.1-41.6-19-84-16.5-127.6c4.4-77.1,39.3-136.1,105-176.4c15.3-9.4,32-16.4,48.1-24.4
		C156,39.6,158.5,39,162.8,37.5z"/>
	<path class="st0" d="M221.5,396.8c1-43.7,4.3-76.8,20.3-106.9c4.5-8.5,10.8-16.6,17.9-23c13.3-12.2,30-12.1,44.2-0.9
		c14.6,11.5,22.4,27.6,27.5,44.8c15.9,53.6,15.9,107.2-3.4,159.9c-4,10.9-11,21.4-18.9,30c-16.2,17.7-38.2,16.9-54.8-0.5
		c-13-13.6-20.6-30.3-24.3-48.3C225.8,430.4,223.3,408.5,221.5,396.8z M321.6,386c-2.4-17.8-4-35.8-7.3-53.4
		c-3.2-16.8-8.6-33.2-20.8-46.1c-7.7-8.2-15.2-8.6-22.1,0c-5.9,7.3-11.3,15.7-14.5,24.5c-15.6,42.8-15.8,86.6-6.1,130.7
		c3.4,15.6,8.6,30.8,19.6,43c8.3,9.2,16.5,9.4,24.1-0.4c5.3-6.7,9.7-14.4,12.9-22.3C317.3,437.7,319.9,412.1,321.6,386z"/>
	<path class="st0" d="M283.4,224.3c-8.7,0-15.2-6.6-15-15.1c0.2-8.2,6.5-14.6,14.8-14.7c8.6-0.1,15.3,6.3,15.4,14.9
		C298.7,217.9,292.1,224.3,283.4,224.3z"/>
</g>
</svg>
