<svg id="Livello_1" data-name="Livello 1" xmlns="http://www.w3.org/2000/svg" viewBox="0 0 800 800"><defs><style>.cls-1{fill:#26475c;}</style></defs><path class="cls-1" d="M391.93,680.4a66.87,66.87,0,0,1-8.29-1.89c-25.87-7.61-43.23-35.22-38.46-61.15,5.26-28.63,29.36-48,57.49-46.21,24.62,1.57,44.44,18.21,50.48,42.17.39,1.54,2.05,3.93,3.12,3.93,12.74,0,25.67.82,38.18-1.08,17-2.59,28.6-17.56,29-34.83.23-10,0-20,0-30.53H517q-97.46,0-194.92-.1c-4.57,0-6.39,1.15-7.62,5.84-6.77,25.73-31,43-56.86,40.89-26.06-2.08-47.54-22.4-50.69-47.93a54.94,54.94,0,0,1,108-19.7c.91,3.86,2.48,4.43,5.83,4.43q161.25-.09,322.5-.07c12.35,0,20.26-7.75,20.27-20.11q.09-102.64,0-205.29c0-12-7.9-19.55-20.72-19.8,1,22.32-7.58,37.66-32.32,41q1.58,12,3.14,24.08c2.43,18.59,5.83,37.12,7.09,55.79,2.13,31.65-22.35,57.26-54.14,57.29q-196.29.21-392.59,0A54.79,54.79,0,0,1,137.86,454c-10.35-9-18-22.76-18.05-36.66a209.59,209.59,0,0,1,2.22-29.8c1.23-8.92,2.51-17.84,3.66-26.77q6.23-45.74,12.44-91.48c4.59-33.37,9.56-66.7,13.78-100.12,3.51-27.73,26.14-48.89,54.1-48.92q164-.15,328,0c25.87,0,47.34,17.57,52.92,43,1.44,6.57,2.15,13.29,3.09,20,2.26,16,4.45,32.06,6.72,48.51,12.23.13,24.47-1.29,34.51,7.67s11.94,20.31,11.33,32.61a19.51,19.51,0,0,0,2.13.41c21.28,1.07,35.17,15.52,35.18,36.65q0,102.39,0,204.78a47.67,47.67,0,0,1-.6,8.7c-2.55,13.73-15,28.66-37,28.4-31.57-.37-63.16-.09-94.74-.09h-7c0,9.36,0,18.07,0,26.79-.21,33.06-22.91,56-55.95,56.54q-13.14.2-26.29,0c-3.29-.06-4.49.95-5.4,4.37-5.51,20.78-21.09,36.5-42.22,41.37A48.89,48.89,0,0,1,391.93,680.4ZM369.82,450.53q95.85,0,191.69,0a92.84,92.84,0,0,0,9.28-.45c21.73-2.18,36.66-22.24,33.16-43.92-2.37-14.73-4.11-29.58-6.15-44.37q-5.68-41.4-11.39-82.81-5.77-41.94-11.58-83.88c-1.22-8.84-2.05-17.75-3.67-26.52-3.68-19.86-18.94-31.8-40.4-31.81q-160.74,0-321.48,0c-.73,0-1.46,0-2.19,0-21.63.7-36.34,14.71-38.82,36.19-2,17.37-4.74,34.65-7.13,52q-5.7,41.42-11.39,82.82c-3.87,28.14-7.87,56.27-11.55,84.44-1.32,10-4.12,20-1.32,30.34,4.7,17.31,19.53,28,39.62,28Q273.16,450.59,369.82,450.53Zm29.84,137.18a38.25,38.25,0,1,0-.3,76.49c20.83.15,38.42-17.29,38.5-38.19A38.29,38.29,0,0,0,399.66,587.71Zm-138-83.29a38.19,38.19,0,1,0-.37,76.37c20.88.2,38.43-17.15,38.53-38.08A38.24,38.24,0,0,0,261.69,504.42ZM607.87,312.55c10,.84,17.15-4.58,17.51-13.92.46-12,.37-24,0-36.05a14,14,0,0,0-12.28-13.94c-4.54-.66-9.25-.12-14.06-.12C602,270.09,604.93,291.14,607.87,312.55Z"/><path class="cls-1" d="M369.89,317.44q-83.47,0-166.95,0c-15.18,0-22.94-8.55-21.4-23.49.69-6.7,1.62-13.37,2.53-20.05.81-5.94,1.56-11.91,2.68-17.81,1-5.41,5-8.39,9.53-7.59,4.8.86,7.65,5.27,6.87,10.75-1.67,11.71-3.31,23.43-5.09,35.13-.67,4.45.17,6.64,5.51,6.63q166.41-.18,332.81,0c5.25,0,6.25-2.05,5.6-6.56-1.7-11.7-3.21-23.44-4.87-35.15-.83-5.84,1.52-10.08,6.28-10.94,5.29-1,9.32,2,10.22,8,2,13.51,4,27,5.48,40.59,1.13,10.3-7.45,20-17.86,20.26-13,.36-25.91.18-38.87.18Q436.14,317.46,369.89,317.44Z"/><path class="cls-1" d="M370.08,166.24h150c15.35,0,22.31,6.43,24,21.57,1.26,11.22,3.08,22.37,4.42,33.58.74,6.16-1.94,9.89-6.87,10.44-5.32.58-8.76-2.61-9.58-8.8-1.5-11.37-3.15-22.73-4.52-34.12-.53-4.45-2.43-6-7.07-6q-150.3.18-300.61,0c-4.82,0-6.78,1.54-7.34,6.31-1.33,11.39-3.05,22.73-4.7,34.09-.86,5.9-4.42,9.08-9.28,8.51-4.65-.55-7.75-4.3-7.08-9.87,1.65-13.74,3.34-27.49,5.76-41.11,1.56-8.79,10.05-14.5,20.05-14.53,25.19-.07,50.37,0,75.56,0Z"/><path class="cls-1" d="M525,418.12a32.86,32.86,0,0,1,.14-65.72,32.86,32.86,0,1,1-.14,65.72Zm0-16.49a16.3,16.3,0,1,0-16-16.57A16.53,16.53,0,0,0,525.06,401.63Z"/><path class="cls-1" d="M214.66,418.12C196.42,418,181.5,403,181.82,385a33,33,0,0,1,66.07.45A32.87,32.87,0,0,1,214.66,418.12Zm-15.84-32.73A16.08,16.08,0,1,0,215,369,16.18,16.18,0,0,0,198.82,385.39Z"/><path class="cls-1" d="M427.54,229.6c-19.87,0-39.73,0-59.6,0-4.54,0-8.33-1-10.1-5.73a7.88,7.88,0,0,1,5.56-10.61,28.33,28.33,0,0,1,6-.38q58,0,115.93,0c1.09,0,2.19,0,3.28,0,5.6.36,8.79,3.46,8.69,8.42-.09,4.76-3.57,8-9,8.21-5.28.16-10.57,0-15.86,0Z"/><path class="cls-1" d="M427.46,271.21c-19.87,0-39.74.12-59.6-.13-2.84,0-6.39-1.12-8.25-3-1.61-1.67-2.32-5.55-1.55-7.81s3.67-4.05,6-5.36c1.42-.8,3.57-.37,5.38-.37q58,0,115.93,0c1.1,0,2.19,0,3.28,0,5.44.36,8.45,3.17,8.59,8s-3.21,8.45-8.56,8.64c-6.19.22-12.39.07-18.59.07Z"/><path class="cls-1" d="M278,249.05c-4-3.76-7.51-6.73-10.67-10-4.44-4.59-4.42-8.77.09-13.38q11.69-11.94,23.61-23.62c4.45-4.38,9.45-4.65,13-1s3.1,8.43-1.41,13c-6,6.07-12.16,12-18.79,18.58,3.8,3.55,7.41,6.64,10.69,10.06,4.28,4.45,4.31,8.51,0,12.95q-13.18,13.52-26.71,26.71c-4.21,4.11-9.13,4.07-12.55.34s-3.17-8,.93-12.12C263.09,263.61,270.17,256.78,278,249.05Z"/><path class="cls-1" d="M425.9,625.73a26.38,26.38,0,0,1-52.76.55c-.14-15.07,11.47-26.93,26.37-26.93A26.26,26.26,0,0,1,425.9,625.73Zm-26.22,10a10.12,10.12,0,0,0,9.7-9.9,9.86,9.86,0,0,0-19.72.32A10.16,10.16,0,0,0,399.68,635.75Z"/><path class="cls-1" d="M287.89,542.4a26.39,26.39,0,1,1-26.37-26.51A26.48,26.48,0,0,1,287.89,542.4Zm-26.38-9.52a9.7,9.7,0,0,0-9.87,9.51,9.87,9.87,0,1,0,19.74,0A9.75,9.75,0,0,0,261.51,532.88Z"/></svg>