<svg id="Livello_1" data-name="Livello 1" xmlns="http://www.w3.org/2000/svg" viewBox="0 0 800 800"><defs><style>.cls-1{fill:#26475c;}</style></defs><path class="cls-1" d="M692.43,592.45c-2.37,14.93-8.86,28.76-16.88,42.8-3.4,6-9,7.19-13.4,4.15s-4.68-8.33-.77-14.07c19.18-28.19,19.37-61.35.49-88a75.31,75.31,0,0,0-79.5-29.64c-30.43,7.65-53.3,33-57.16,63.39-6,47.27,32.25,88.59,79.83,85.19,10.14-.72,20.16-4.87,29.94-8.29,6.78-2.37,11.2-2.05,13.79,3s.41,9.39-6,12.7c-51.41,26.67-114.86-.31-131.52-55.92-.48-1.6-1-3.16-1.61-4.85-9.54,5.19-18.67,10.61-28.18,15.25-47.3,23.08-97.16,30.91-149.22,23.68-105.82-14.7-190.35-90.64-216.75-194.28C87,335.41,138.66,215.18,239.57,158.53q68.08-38.22,145.8-33c55.48,3.76,104.85,23.76,148,59,5,4.09,5.81,9.28,2.29,13.37s-8.61,4-13.68-.15c-29.39-24.28-62.64-41.12-99.82-49.18-75-16.28-143.6-1.24-204.26,45.95-46.66,36.3-76,84.2-87.7,142.11C107.71,447.33,164.48,557.34,266,604.5c40.85,19,83.74,25.83,128.36,21A233.7,233.7,0,0,0,503.83,585a8.53,8.53,0,0,0,3.16-5.86c2.18-52,40.88-83.88,76.35-89.6,1.77-.28,3.86-2.35,4.69-4.11a226.72,226.72,0,0,0,20.42-72.61c4.65-42.79-1.06-84.18-18.12-123.85a241.94,241.94,0,0,0-39.92-63.49c-.88-1-1.81-2-2.63-3-3.5-4.48-3.29-9.44.51-12.73s9-3.21,12.55,1.39c9.66,12.47,19.9,24.63,28.18,38,30,48.43,42,101.48,37.51,158.13a244.91,244.91,0,0,1-17.63,74c-.85,2.09-1.62,4.21-2.46,6.39,6.83,1.46,13.58,2.31,19.95,4.37,35.61,11.52,61,40.21,66.26,77.66A76.52,76.52,0,0,1,692.43,592.45Z"/><path class="cls-1" d="M567.41,384.77c-1.29,97.21-71.26,180-166.63,196.12-103.87,17.55-203.95-49.59-227.2-152.62-2-8.86-2.93-18-3.87-27.06-.62-6,2.53-9.55,7.68-9.88,5.43-.35,8.84,2.92,9.45,9.06,7.9,79,61.24,141.1,137.77,160.47,97.27,24.63,198.5-38,220-136,21.13-96.29-35.48-189.68-130.74-215.72-98.83-27-203.27,37.26-223.65,137.68-1.28,6.32-2.09,12.74-3.25,19.09-1,5.61-5.1,8.92-9.76,8.13-5.07-.85-8-5-7.32-11.1,2.35-20.71,7.3-40.83,16.26-59.65,30.22-63.52,79.92-102.73,149.25-114.79C440,170.27,542.05,240.91,562.49,344.65,565.09,357.84,565.82,371.39,567.41,384.77Z"/><path class="cls-1" d="M572.68,608.53c-6.39,0-11.71.11-17,0-7.87-.21-13.25-5.37-13.44-13.26q-.35-14.26,0-28.53c.2-8,5.42-12.87,13.52-13.1,5.31-.16,10.63,0,16.9,0,0-5,0-9.7,0-14.37.16-11.59,4.9-16.33,16.28-16.35,8.18,0,16.36-.06,24.54,0,8.68.09,14.16,5.49,14.42,14.21.14,4.94.1,9.89.17,14.83,0,.34.28.67.71,1.66,5,0,10.26-.1,15.53,0,8.47.19,14,5.34,14.28,13.78.3,9.12.31,18.27,0,27.39-.3,8.42-6,13.62-14.37,13.76-5.13.09-10.26,0-16.29,0,0,5.07,0,9.92,0,14.77-.08,10.69-5.44,16-16.25,16-8,0-16,.07-24,0-9.21-.1-14.54-5.12-15-14.31C572.48,619.73,572.68,614.43,572.68,608.53Zm-13-17.18c5.52,0,10.45,0,15.37,0,9.75.11,15,5.41,15.15,15.26.07,4.88,0,9.77,0,14.85h20.38c0-5.49-.13-10.58,0-15.67.29-9.48,5.23-14.31,14.62-14.43,5.08-.07,10.16,0,15.31,0V570.81c-5.23,0-10,0-14.7,0-9.89-.09-15-5.12-15.25-15.11-.12-5.07,0-10.16,0-15.39H590.15c0,5.58.14,10.87,0,16.15-.27,8.68-5.83,14.16-14.45,14.33-5.27.11-10.54,0-16,0Z"/><path class="cls-1" d="M326.33,247.46c12.34,0,24.16,2.39,35.18,8.13,25.57,13.34,31.54,41.35,13.45,63.84-12.24,15.22-28.77,23.34-47.48,27.25-16.1,3.37-32.06,2.76-47.66-3.2C246.42,330.72,239.25,295.85,265,271,280.26,256.2,303,247.5,326.33,247.46Zm-17.84,83.68c19.06-.44,36.41-5.55,50.14-19.49,15.37-15.59,11.19-34.45-9.22-42.51-14.94-5.9-30.15-5.45-45.26-.93-12.8,3.84-24.24,10.12-32.15,21.35-8.95,12.71-6.18,26.07,7.05,34.18C288,329.26,298,331.35,308.49,331.14Z"/><path class="cls-1" d="M469.35,390.55c-23.86-.46-45.35-7.43-62.51-24.6-25.35-25.36-17.8-59.14,15.73-71.87,31.58-12,73.28-1.28,94.15,24.19,18.84,23,12.84,51.56-13.7,64.93A70.72,70.72,0,0,1,469.35,390.55Zm-19-83.89c-10.5-.17-20.47,1.87-29.41,7.52-12.16,7.69-15,20.33-7.27,32.5a40.82,40.82,0,0,0,6.51,7.89c13.41,12.53,29.66,18,47.72,18.59,12.24.37,23.88-1.93,33.76-9.74,8.64-6.82,11.36-16.75,6.15-26.41a52.43,52.43,0,0,0-12.49-15.22C482.36,311.18,467,306.83,450.33,306.66Z"/><path class="cls-1" d="M419.06,411.93c22.31,0,37.87,3.53,51.41,13.43,23.54,17.18,25,46,3.21,65.49-19.72,17.61-43.39,22.58-69,19.9a70.8,70.8,0,0,1-32.4-11.59c-24.8-16.57-27.17-46.38-5.06-66.48A79.72,79.72,0,0,1,419.06,411.93ZM424.7,429c-17.29.86-33.74,4.68-46.69,17.5-12.59,12.47-11.09,27.63,3.41,37.77,8.67,6.05,18.52,8.84,28.85,9.51,19.67,1.28,38-2.72,52.65-16.82,13.07-12.55,11.28-28.44-3.87-38.48C448.72,431.67,437.06,429.48,424.7,429Z"/><path class="cls-1" d="M268.39,482a63.84,63.84,0,0,1-10.34-1.3A83.16,83.16,0,0,1,245,477.06c-23.17-8.91-32.42-32-22.14-54.64,9.12-20,25.51-32.3,45.51-40,18.83-7.2,38.07-9,57.26-1.28,22.77,9.22,32.15,32.06,21.89,54.38-11.07,24.09-31.51,36.84-56.15,43.6A73.33,73.33,0,0,1,268.39,482Zm1.92-17a77.29,77.29,0,0,0,18.88-3.29,79.53,79.53,0,0,0,17.71-7.14A60.9,60.9,0,0,0,330,431.64c9.08-15.88,3.05-31.05-14.62-35.55-27-6.87-49.76,2.12-68.69,21.53a43.52,43.52,0,0,0-8.78,14.46c-2.19,5.66-2.58,12.09.15,17.64,2.38,4.83,6.83,7.84,11.39,10.4a38.58,38.58,0,0,0,16.35,4.68A42.47,42.47,0,0,0,270.31,464.94Z"/><path class="cls-1" d="M284.68,312.36c-5.9-2.26-7.48-7.14-5.18-11.93s6.89-6.17,12.57-3.69c18.72,8.14,34.18,5,48-9.63,4.34-4.62,8.94-5.28,13-1.87s4,8.78-.08,13.61a57,57,0,0,1-26.85,17.55c-10.28,3.13-19.68,1.92-29.88-.61A98.51,98.51,0,0,1,284.68,312.36Z"/><path class="cls-1" d="M472,360.23l-.4,0c-7.49.88-15-.82-22.14-3.11A54.32,54.32,0,0,1,431.13,347a59.68,59.68,0,0,1-6.1-6c-4.85-5.5-5.11-10.81-.79-14.44s9-2.64,13.73,2.78a39.2,39.2,0,0,0,45.56,10.44c.69-.3,1.36-.66,2.06-.95,5.33-2.15,9.82-.67,12,3.95s.68,9.63-4.73,11.66C486.12,357,479.22,359.33,472,360.23Z"/><path class="cls-1" d="M414.62,481.61a55,55,0,0,1-28-9.05c-5.34-3.5-6.77-8-4.12-12.5s7.68-5.47,13.29-2.25c17,9.75,33.81,8.22,48.38-4.39,5.11-4.41,9.82-4.51,13.48-.29,3.47,4,2.88,8.53-1.69,13C446.05,475.89,431.39,481.66,414.62,481.61Z"/><path class="cls-1" d="M268.35,451.28A63.41,63.41,0,0,1,254.73,449c-5.3-1.49-7.62-5.75-6.43-10.39,1.29-5,5.41-7.36,11-6.18,21.23,4.5,34.36-.77,46.46-18.65,3.34-4.93,7.8-6.28,12.16-3.67s5.41,7.63,2.54,13a53.44,53.44,0,0,1-22.56,21.61A56,56,0,0,1,268.35,451.28Z"/></svg>