<svg id="Livello_1" data-name="Livello 1" xmlns="http://www.w3.org/2000/svg" viewBox="0 0 800 800"><defs><style>.cls-1{fill:#26475c;}</style></defs><path class="cls-1" d="M350.22,292.54V225.23c0-2.87.13-5.74,0-8.59-.25-4.75,1.24-8.55,5.74-10.52s8.3-.82,11.77,2.45c6.87,6.48,14.9,11.08,24.35,11.82,6.4.5,13.15.45,19.33-1.06,15.21-3.7,17.41-7.11,17.41-22.59V153.63c-19.68,8.52-39.07,8.68-58.94-.07,0,8,0,15.3,0,22.6-.06,6.81-3.72,10.92-9.62,11-6.16.1-9.95-4.09-10-11.27-.05-13.5.07-27-.06-40.51-.05-4.79,1.36-9.22,6-10.12,3.48-.67,8.41.12,11.07,2.27,21.2,17.15,43.16,17.36,63.81-.12,3.62-3.07,7.4-4.25,11.81-2.18s5.57,6,5.56,10.63q-.1,74.28,0,148.56v7.67c14.7-9.91,25-22.1,29.16-37.84,4.83-18.29,25.17-31.49,47.75-17.68,15.42,9.42,25.38,23.63,32.7,39.64,17.4,38,22.9,77.76,14.3,118.9-4.44,21.21-17.61,36.24-35.83,47.55-11.73,7.29-22.84,15.6-34.1,23.62-4.68,3.33-10.16,3.32-13.87-.57s-4.1-9.78.2-13.74c6.6-6.06,13.83-11.42,20.82-17a13.45,13.45,0,0,1,3.18-1.84c34.57-14.32,45.75-41.82,43.67-77-1.5-25.27-5.27-50-17.18-72.72-4-7.53-9.1-14.52-14.38-21.22A39.28,39.28,0,0,0,514,253.28c-8.44-5-12.35-2.91-16.76,5.79-5.6,11-10.89,22.66-18.69,32.05-23.21,28-54.31,38.31-89.78,35-42.91-4-72-27-87.72-67.11-3.44-8.81-7.93-10.41-16.25-5.89-9.5,5.15-15.85,13.47-21.25,22.47-12.32,20.54-18.74,43.08-20,66.79a267.19,267.19,0,0,0,1.27,44.54c1.73,15.3,10.17,27.41,23.32,35.79,6.71,4.28,13.53,8.43,20.5,12.28,25.39,14,36.85,35.84,37.1,64.43.1,10.78.25,21.75,2.25,32.27,2.66,13.93,11.07,18.75,24.77,15.53,8.7-2.06,17.08-5.49,25.77-7.6,18.4-4.48,36.41-2.6,54.19,3.76a75.61,75.61,0,0,0,18.93,4.4c9.53.8,15.44-3,17.8-12.39,2.21-8.8,2.65-18.07,3.45-27.17.45-5.19,2.73-9.26,7.66-9.5,3.45-.17,7.14,2.39,10.5,4.16.92.49,1.38,2.52,1.43,3.87.47,12.3.25,24.53-4.29,36.25-6.29,16.22-18.2,24.55-35.65,24.83-1.17,0-2.34,0-4.14,0,0,18.79.08,37.15-.06,55.51a64.24,64.24,0,0,1-1.28,13.36c-5.33,24.08-28.7,40.29-53.72,37.54-23.92-2.64-43-23.86-43.12-48.1-.1-18.83-.06-37.65-.1-56.48a6.62,6.62,0,0,0-.4-1.42c-4.29-.42-8.82-.32-13.07-1.36-18.4-4.51-26.53-18.07-29.2-35.37a153,153,0,0,1-1.33-27.5c.71-24.7-9.09-42.54-31.32-54.4a144.11,144.11,0,0,1-32.12-23.12c-14-13.54-18.62-32-19.76-50.87-2.19-36,2.91-70.94,19.6-103.47,6.4-12.47,14.22-24.11,26-32.12,5.61-3.82,12.1-7.26,18.66-8.56,15.22-3,26.6,4.43,32.52,20.38,4.55,12.26,10.65,23.42,20.35,32.35C342.85,286.75,345.94,289,350.22,292.54Zm19.64-58c0,21.92-.06,43.11.16,64.3,0,1.26,2.1,3.18,3.59,3.65,16.81,5.34,33.72,4.89,50.71.62,3.83-1,4.58-2.89,4.54-6.45-.16-17-.07-33.93-.07-50.9V234.41C408.76,243.44,389.59,243.25,369.86,234.5Zm31.8,322.22c-7.44.89-12.75,1.24-18,2.2-13.88,2.54-13.86,2.64-13.86,16.47,0,2.05-.47,4.24.12,6.1.76,2.46,1.77,5.49,3.68,6.85,11.67,8.27,24.56,10.52,38.38,6.4,14.83-4.41,16.76-7,16.76-21.92a38.92,38.92,0,0,1,0-5.51c.46-3.33-1.14-4.87-4.13-5.52Zm27.41,53c-20.12,9.15-39.46,9.09-59.1.22,0,6.37-.41,11.89.08,17.33a29.7,29.7,0,0,0,28.1,27.35c14.24.8,27.17-9.46,29.83-24.47C429.09,623.89,428.72,617.31,429.07,609.76Z"/><path class="cls-1" d="M357.64,459.19c-.16,4.39-2.33,8.32-6.75,8.69-3.52.3-7.54-1.39-10.75-3.23-1.76-1-2.37-4.13-3.37-6.35a80.23,80.23,0,0,0-25.49-31.55c-6.55-4.91-7.89-10.44-3.93-15.59,3.6-4.69,9.68-4.88,15.69-.43A99.62,99.62,0,0,1,356,452.53a33.6,33.6,0,0,1,1.44,4A14.67,14.67,0,0,1,357.64,459.19Z"/><path class="cls-1" d="M494.43,417.3c-2.26,3.33-3.5,6.6-5.85,8.37a84.44,84.44,0,0,0-28.27,36.14c-2.54,6.23-8,8.43-13.35,6.17s-7.34-7.56-4.89-13.85a94,94,0,0,1,34.7-44c2.75-1.9,7.85-2,11.2-.92C490.52,410.05,492,414.1,494.43,417.3Z"/></svg>