<?xml version="1.0" encoding="utf-8"?>
<!-- Generator: Adobe Illustrator 28.4.1, SVG Export Plug-In . SVG Version: 6.00 Build 0)  -->
<svg version="1.1" id="Livello_1" xmlns="http://www.w3.org/2000/svg" xmlns:xlink="http://www.w3.org/1999/xlink" x="0px" y="0px"
	 viewBox="0 0 686.9 791.9" style="enable-background:new 0 0 686.9 791.9;" xml:space="preserve">
<style type="text/css">
	.st0{fill:#26475C;}
</style>
<g>
	<path class="st0" d="M410,515.5c5.8,14.8,15.6,26.1,30.5,30.7c26.8,8.3,54.2,14.7,81.1,22.4c24.6,7,49.7,13,73.2,22.8
		c15.4,6.4,29.2,17.8,41.9,29c20.5,18,26.8,42.9,29.9,69.1c2.9,24.9,6.9,49.7,10.5,74.5c2.6,17.8-2.2,23.5-20.5,23.5
		c-208.7,0-417.4,0-626.1,0c-18.8,0-23.5-5.7-20.7-24.2c4.2-27.5,8.8-55,11.8-82.6c3.8-34.3,21.3-59.1,49.2-77.8
		c23.7-16,50.2-25,78-30.6c4.4-0.9,8.8-1.9,14.8-3.2c-2.8-2.3-4.5-3.7-6.2-5c-22-16.3-32.6-38.1-32.7-65.4
		c0-10.6,4.7-16.9,14.1-21.2c47.4-21.3,101.7,9,108.9,61.2c0.2,1.8,0.4,3.6,0.6,5.4c12.8-3.7,22.5-13.7,28.7-29.8
		c-3.3-1.8-6.7-3.5-10.1-5.4c-20.6-11.5-37.8-27-51.5-46.2c-3.7-5.2-7.6-6.7-13.7-6.7c-12.5,0.1-25.2,0.3-37.6-1.2
		c-34.9-4.3-61.5-32.6-63.6-67.8c-1-17.1-1-34.3-0.2-51.4c1.3-25.7,14.7-43.6,38.5-53.1c5.4-2.1,6.6-4.7,6.7-10
		c0.4-23.2-1.4-46.9,2.4-69.6c7.8-47.3,36-79.9,80.1-98.7c1.1-0.5,2.3-0.9,3.4-1.4c0.3-0.1,0.4-0.4,0.6-0.7c0-25.6-0.1-51.3,0-76.9
		c0-20.1,10.1-26.1,27.5-16.6c29.3,15.9,58.6,31.7,87.7,47.9c5.5,3.1,9.5,3.1,15,0c29.1-16.3,58.4-32.1,87.7-48
		c17.1-9.3,27.3-3.4,27.3,15.9c0,22,0.3,44.1-0.2,66.1c-0.1,6.4-2.3,12.7-3.9,20.5c2.2,1.4,6.3,3.8,10.2,6.5
		c38.1,26.7,57.2,63.5,57.5,109.9c0.2,26.3,0,52.6,0,79c0,19.6-2.1,22.1-21.7,25.1C510.2,408.6,484.3,476.3,410,515.5z M420.5,271.2
		c-14.7,17.2-27,25.8-49.6,34.2c-44.6,16.6-91.2,22.4-138.2,26.1c-10.8,0.8-21.7,1.4-33.2,2.2c5,45.8,17.7,87.4,48.3,121.6
		c54.6,60.9,147.2,58,198.1-6.2c29.9-37.6,41.4-81.8,43.7-128.9c0.1-2.4-1.6-6-3.6-7.3C464.4,298.9,442.7,285.2,420.5,271.2z
		 M510.9,293.4c0-26.5,0.7-50.3-0.2-74.1c-1.4-40.4-28.7-76.1-67.3-88.3c-4.1-1.3-9.8-0.7-13.6,1.2c-21.4,11.1-42.6,22.7-63.6,34.6
		c-7.7,4.3-14.5,4.6-22.4,0.2c-22.9-12.9-46-25.3-69.3-37.6c-3.5-1.9-8.1-3.3-12-2.9c-47.3,5.4-84.8,45.5-86.6,93.3
		c-0.9,26.3-0.3,52.6-0.4,78.9c0,1.4,0.5,2.9,0.8,4.6c1.9,0.2,3.3,0.5,4.8,0.5c42.3,0.3,84.3-2.9,125.7-11.9
		c26.7-5.8,52.6-13.9,76.8-26.7c12.3-6.5,14.2-11,10.4-24.3c-3.9-14-4.1-27.7,1.9-41.2c5-11.3,12.6-15.3,21.4-11.6
		c9,3.9,11,11.5,5.9,23.2c-3.9,9.2-3,23.7,2.9,27.6C453.7,256.8,481.2,274.3,510.9,293.4z M646,757.4c-3.5-24.4-7.9-47.7-10.1-71.1
		c-2.6-27.2-16.6-46-38.8-59.9c-2.8-1.7-7.8-2.4-10.6-1.1c-34.9,15.9-71.4,26.9-108.8,35c-3.3,0.7-6.9,3.7-8.7,6.7
		c-16.5,27.5-32.7,55.3-48.9,83c-1.3,2.2-2.3,4.6-3.6,7.4C493.5,757.4,569.3,757.4,646,757.4z M140.2,606.9
		c-0.5-0.9-0.9-1.7-1.4-2.6c-11.2,4.4-22.6,8.1-33.4,13.2c-31.3,14.7-52.6,36.7-55.3,73.5c-1.6,22.1-5.9,43.9-9,66
		c76.8,0,152.7,0,229.9,0c-18-30-35.4-59-52.6-87.7c-9.3,7.8-17.4,15.8-26.6,22.2c-24,16.9-50.4,26-80.2,22
		c-15.7-2.1-20.5-7.2-19.5-22.9c1.9-31.5,17.7-55.9,40.4-76.6C135,611.7,137.6,609.3,140.2,606.9z M253,667.2c0.8,2.4,1,3.6,1.6,4.6
		c16.3,27.3,32.5,54.6,49.2,81.6c1.5,2.4,5.8,4.2,8.8,4.3c20.5,0.4,41,0,61.4,0.3c5.4,0.1,8.1-2,10.7-6.4
		c15-25.5,30.4-50.9,45.6-76.3c1.3-2.1,2.3-4.5,4.1-8C373.1,675.4,313.5,675.2,253,667.2z M447.8,44.3c-4.3,2.2-7,3.5-9.6,4.9
		c-23.9,13-47.9,25.8-71.5,39.2c-8.5,4.8-15.6,4.5-24-0.2c-23.1-13.1-46.6-25.6-69.9-38.3c-3.1-1.7-6.3-3.3-10.5-5.5
		c0,14.3-0.2,27.2,0.2,40c0.1,2.3,2.5,5.5,4.7,6.7c27.8,15.4,55.7,30.7,83.7,45.6c2.2,1.2,6,1.1,8.2,0
		c28.3-15.1,56.5-30.5,84.5-46.1c2.1-1.2,4.1-4.6,4.1-7.1C448.1,71,447.8,58.5,447.8,44.3z M550.3,608.4c0-0.8,0.1-1.7,0.1-2.5
		c-20.1-4.5-40.2-9.2-60.3-13.5c-2.7-0.6-6,0.8-8.7,1.9c-59.3,23.6-120.8,29.4-183.8,22.5c-17.7-2-35.3-5.5-52.9-8.3
		c-2.1,9.1-4.2,17.9-6.3,26.9C344.7,650.1,449.1,646.4,550.3,608.4z M305,526.4c-14.8,28.1-14.8,28.1-53.9,51.5
		c62,15.8,122.7,15.7,183.7-0.6c-25.7-10.1-43.8-27.6-52.8-50.9C355.8,526.4,331.2,526.4,305,526.4z M193,425
		c-12.3-28-20-56.5-22.9-86.2c-0.2-2.4-3.5-6-5.7-6.3c-11.2-1.8-19.1-6.4-18.8-19.9c-9.7,5.4-13.9,12.8-15.2,22
		c-0.3,2.4-0.3,4.9-0.3,7.3c0,12.2-0.1,24.5,0,36.7C130.3,412.5,156,431.8,193,425z M212.8,612.7c-37.6-3.3-88.8,38.1-88.8,71.2
		C160.6,686.9,207.6,649.5,212.8,612.7z M218.2,545.4c-2-32.2-34.3-53.3-62.8-41.6C155.9,534.9,188,556.4,218.2,545.4z"/>
	<path class="st0" d="M526.9,689.5c7.6,0,15.3-0.2,22.9,0.1c8.8,0.3,14.6,6.2,14.7,14.3c0.2,8.4-5.8,14.9-14.9,15.1
		c-14.9,0.3-29.9,0.3-44.9,0c-9.1-0.2-15.3-6.5-15.3-14.9c0.1-8.4,6.2-14.3,15.5-14.6C512.3,689.3,519.6,689.5,526.9,689.5
		C526.9,689.5,526.9,689.5,526.9,689.5z"/>
</g>
</svg>
