<svg id="Livello_1" data-name="Livello 1" xmlns="http://www.w3.org/2000/svg" viewBox="0 0 800 800"><defs><style>.cls-1{fill:#26475c;}</style></defs><path class="cls-1" d="M119.1,576.87c3.59-9.21,10.25-15.91,18.34-21,7.87-5,17-3.57,24.26,2.78,1.76,1.54,3.42,3.18,6,5.63,4.57-4.93,8.88-9.88,13.5-14.51s9.41-4.86,13-1.29c3.73,3.74,3.44,8.32-1.16,13s-9.43,9-13.87,13.28L223,618.43l59.07-59.08-43.63-43.7c-5,5.18-10.19,10.6-15.49,15.87-4.55,4.52-9.36,5-13,1.61-3.86-3.61-3.51-8.59,1.25-13.39,5.13-5.17,10.47-10.15,16.33-15.81l-11.43-11.48c-3.86-3.88-7.88-7.62-11.55-11.67-8.2-9-8.14-20.57,0-29.62,1-1.09,2.11-2,3-3.16,9.76-11.66,23.15-15.55,37.62-1.65,1.52-1.44,3.1-2.87,4.6-4.37Q358.2,333.59,466.56,225.15c12-12,25.91-17,41.66-10.3,7.26,3.07,12.85,2.62,19.39-.11,4.69-2,9.67-3.18,14.45-4.94,9.22-3.39,17.12-1.32,24,5.42,1,1,2.11,2,3.45,3.25,1.49-1.4,2.93-2.68,4.29-4q44.34-44.33,88.67-88.64a30,30,0,0,1,4.91-4.33c3.52-2.22,7-1.72,10,1.22s3.41,6.44,1.18,10a30.47,30.47,0,0,1-4.33,4.91q-44.12,44.15-88.27,88.26c-1.42,1.41-3.09,2.57-5.18,4.3,11.54,9.52,10.68,20.54,5.7,32.16-.64,1.51-1.06,3.11-1.72,4.6-3.67,8.31-4.65,15.86-.34,25.08,5.7,12.19,2.54,24.62-6,35.24a83.88,83.88,0,0,1-6,6.4Q464.59,441.44,356.73,549.21a41.49,41.49,0,0,1-5.17,3.74c6,6.14,10.35,11.78,9.74,19.54-1.05,13.27-10.2,20.82-20.68,26.13-9.69,4.92-18.29.48-25.42-7-6.36-6.72-12.92-13.27-19.13-19.62l-60.29,60.4c1.36,1.48,3.15,3.24,4.75,5.16,4.74,5.68,6.49,12.07,4.51,19.36-3,10.89-17.73,23.58-27.95,22.66a26.39,26.39,0,0,1-14.19-5.7c-9.33-8.14-17.87-17.2-26.49-26.13-5.19-5.37-3.21-13.57,3.6-14.34,2.87-.32,6.72,1.56,9,3.66,7.79,7.15,15.07,14.86,22.56,22.33,5.21,5.19,6.31,5.18,11.54,0,.91-.9,1.83-1.79,2.72-2.71,4.18-4.31,4.23-6.26,0-10.53-8.35-8.42-16.77-16.78-25.16-25.17l-46.46-46.45c-6.27-6.27-7.18-6.26-13.61.18s-6.57,7.08-.19,13.47c5.8,5.81,11.63,11.6,17.41,17.43a35.51,35.51,0,0,1,3.23,3.7c2.72,3.64,2.32,7.32-.68,10.43-3.2,3.32-7.53,3.91-10.81.78-9.23-8.8-18.09-18-26.9-27.23-1.66-1.74-2.4-4.35-3.56-6.56ZM312.65,403c4.14,3.86,8.21,7.5,12.11,11.33,5.47,5.36,6.29,10.35,2.55,14.19-4,4.08-8.56,3.41-14.14-2.16-4-3.95-7.83-8-11.45-11.68l-18.31,18.08L367,516.35a41.9,41.9,0,0,1,3.17-4q59.78-59.83,119.58-119.61,36-36,72-72c11.57-11.58,11.52-22.37-.11-34q-10.05-10.08-20.12-20.14c-10.31-10.32-20.56-20.72-31-30.95-8.45-8.28-18.67-9.55-27.12-3-5.12,4-9.52,8.87-14.55,13.64,4.75,4.71,9.08,8.87,13.25,13.18,4.61,4.75,5,9.18,1.28,13-3.48,3.58-8.57,3.28-13-1.15s-8.4-9-12-12.9c-7.26,7-13.64,13.15-20.6,19.86,4.22,4,8.54,7.9,12.67,12,4.72,4.71,5.27,9.83,1.69,13.42-3.87,3.86-8.35,3.43-13.36-1.5-4.23-4.18-8.31-8.51-11.66-12l-19.86,19.84c4.11,3.94,8.91,8.17,13.27,12.81,4.18,4.45,3.82,9.76-.61,12.81s-8.4,1.83-11.77-1.71c-4.34-4.55-8.44-9.34-12.81-14.21L378,337.33c-.77.77-1.5,1.59-2.22,2.37a3.8,3.8,0,0,0,.52,1q5.55,5.67,11.13,11.3c5.27,5.35,6.05,10.49,2.16,14.22s-8.4,3.21-13.75-2.17c-4-4-7.76-8.14-11.38-11.95l-20.27,20.3c2.07,1.7,4.53,3.57,6.81,5.63s4.47,4.3,6.58,6.58c2.56,2.78,4.48,5.8,2.77,9.85-2.43,5.74-9,7.13-14,2.47-4.75-4.48-9-9.47-13.44-14.15ZM226.42,453c-3.68,3.75-7.72,6.93-10.33,11-.88,1.36,1.25,5.71,3.11,7.59q52.45,52.84,105.21,105.39c8.79,8.8,8.78,8.71,17.44-.15,3.31-3.38,3.8-6.18.24-9.72q-55.24-55.09-110.4-110.27A49.66,49.66,0,0,0,226.42,453Zm113.45,87.53L353,528.11c-27.39-27.35-55-54.91-82.28-82.16-4.26,4.06-8.79,8.38-13,12.38Zm191-309.23,36,36c1.87-5.38,4.14-10.87,5.55-16.57a9,9,0,0,0-1.7-7,190,190,0,0,0-16.2-16.16,9.18,9.18,0,0,0-7.14-1.91C541.83,227.08,536.49,229.36,530.86,231.34Z"/></svg>