<svg id="Livello_1" data-name="Livello 1" xmlns="http://www.w3.org/2000/svg" viewBox="0 0 800 800"><defs><style>.cls-1{fill:#26475c;}</style></defs><path class="cls-1" d="M130.82,340.67c1.47-8,5.5-16.24,9.9-22.59,9.44-13.61,23.58-19.29,39.88-19.51,14.88-.2,29.76,0,45,0,.15-1.61.38-2.94.38-4.27,0-14.73.11-29.45-.11-44.17a7.18,7.18,0,0,0-2.75-5.25q-9.58-6-9.7-17c-.14-13.49-.17-27,0-40.49.11-8.16,4.31-14,11.81-17,2.69-1.09,3.65-2.43,4-5.26a17.67,17.67,0,0,1,17.77-16q24.45-.15,48.91,0c10,0,17,6.5,18.63,16.4a7.42,7.42,0,0,0,3.73,4.6c7.71,3.74,11.82,9.61,11.83,18.22q0,19.19,0,38.38c0,8-3,14.21-10.19,18.22-1.11.61-1.79,2.21-2.37,3.48a6.86,6.86,0,0,0-.07,2.61v47.1h36.24V266c0-2.81,0-5.61,0-8.42.06-6.15,1.07-12.07-6.37-15.93-5.41-2.81-6.2-9.47-6.27-15.37q-.19-18.41,0-36.81c.09-9.23,3.8-16.15,12.93-19.62,1.18-.45,2.27-2.39,2.55-3.81,2.22-11.36,8.79-16.91,20.43-16.93q22.88,0,45.75,0c10.85,0,17.7,5.88,19.83,16.45a6.81,6.81,0,0,0,3.14,4.43c7,3.12,11.75,8.17,11.93,15.87.34,14.86.1,29.75-.15,44.62-.11,6.29-3.85,10.6-8.88,14.05-1.37.93-3,2.74-3,4.16-.16,16.12,0,32.24,0,48.36,0,.3.26.6.53,1.17h35.53V275.2c0-8.42.17-16.84-.13-25.24a7.36,7.36,0,0,0-2.87-5.19c-6.15-3.91-9.47-9.36-9.56-16.49-.19-13.84-.25-27.7,0-41.54.16-7.7,4.37-13.26,11.39-16.23,2.78-1.17,4-2.39,4.35-5.5a17.61,17.61,0,0,1,17.36-15.83q25-.21,50,0a17.64,17.64,0,0,1,17.73,16c.3,2.86,1.35,4.13,4,5.23,7.69,3.18,11.75,9.18,11.81,17.57q.14,19.71,0,39.44c0,7.55-3.13,13.44-9.8,17.39-1.24.74-2.67,2.47-2.68,3.76-.19,15.42-.13,30.84-.12,46.27,0,1,.1,2,.18,3.69,6.27,0,12.35-.09,18.42,0,11.72.22,23.54-.26,35.15,1,23.27,2.55,41.61,22.92,41.85,46.53.4,38.21.15,76.43.12,114.64,0,5.28-3.2,8.77-7.71,8.88-4.69.1-8-3.52-8-9.12,0-36.63,0-73.27,0-109.9,0-17.58-9.22-30.49-24.87-34.66a49.14,49.14,0,0,0-12.46-1.43q-216.15-.11-432.31-.05c-18.53,0-31.74,9-35.89,24.66A47.44,47.44,0,0,0,146.05,351q-.12,123.84-.05,247.68c0,22.51,13.92,36.42,36.35,36.42q97.29,0,194.59,0a22.81,22.81,0,0,1,6.72.73c3.79,1.18,5.66,4.11,5.24,8.08s-2.68,6.39-6.7,6.9a44.27,44.27,0,0,1-5.76.28c-64.34,0-128.68-.08-193,.06-21.77,0-38.29-8.48-48.25-28.17-6.93-13.7-4.95-29-4.95-43.93V362.5c0-4.95.15-9.92,0-14.87A33.16,33.16,0,0,1,130.82,340.67Zm170.35-42.42V247.42h-59v50.83Zm196.71-50.93v50.82h59V247.32Zm-69.06,0H370.33v50.83h58.49ZM314.21,199.71c0-3.87.52-7.28-.21-10.41-.4-1.72-2.88-4.22-4.45-4.23q-37.82-.4-75.64,0c-1.55,0-4.12,2.21-4.42,3.73-.66,3.47-.21,7.17-.21,10.94Zm171-.12h84.65c0-2.7,0-5.1,0-7.5,0-6.79-.43-7.21-7.09-7.21-21.71,0-43.42-.12-65.13,0C485.06,185,484,181.43,485.17,199.59ZM313.94,216.7H229.23v6.71c0,7.55.22,7.77,7.57,7.78,21.53,0,43.06.11,64.59,0C314.2,231.06,314.92,234.45,313.94,216.7Zm255.84,0H484.84c0,3.58-.51,6.83.19,9.79.42,1.8,2.69,4.5,4.16,4.52q38.07.42,76.14,0c1.5,0,3.94-2.32,4.25-3.89C570.24,223.8,569.78,220.25,569.78,216.67Zm-128-16.95c0-3.83-.08-7.13,0-10.42.1-3.13-1.36-4.44-4.41-4.43-25.22,0-50.44-.05-75.66.15-1.47,0-4,1.92-4.18,3.24-.57,3.68-.2,7.52-.2,11.46Zm-.63,16.85H357.29c0,2.59,0,4.83,0,7.07,0,7.54,0,7.55,7.56,7.55,21.36,0,42.72.14,64.09-.05,14-.12,13.12,3.22,12.64-13.77C441.58,217.22,441.42,217.08,441.13,216.57ZM244.52,167.08l.61,1.62h53.13l.63-1.52c-1.68-.76-3.35-2.16-5-2.18q-22.07-.27-44.14,0C248,165,246.25,166.35,244.52,167.08ZM426,168.73l.62-1.28c-1.34-.85-2.67-2.41-4-2.43q-23-.26-46.11,0c-1.34,0-2.67,1.71-4,2.62l.87,1.08Zm127.87.07.63-1.87c-1.65-.68-3.29-1.93-4.94-1.94q-22.34-.24-44.68,0c-1.57,0-3.11,1.62-4.67,2.49l.75,1.3Z"/><path class="cls-1" d="M399.65,607.72h-214c-10,0-12.19-2.23-12.19-12.44V354.49c0-10.18,2.49-12.66,12.74-12.66H612.62c10.65,0,13,2.33,13,12.94V595c0,10.53-2.13,12.69-12.48,12.69ZM573.07,358.44v62.18c0,33.48.21,67-.06,100.44-.28,36.11-37.33,57.72-68.65,39.92-15.63-8.88-22.71-23.27-22.73-41.08q-.09-77.58,0-155.14v-6.3H445.37v6.42q0,62.85,0,125.69c0,11.73,0,23.48-.64,35.19-.94,17.27-13.52,33.53-29.33,38.77-18.65,6.2-37.71,1.33-49.84-12.38-8.88-10-11.87-21.88-11.86-34.89q0-76,0-152v-6.84H317.44v64.3c0,32.78.21,65.56-.06,98.34-.3,36.36-37.66,57.85-69.09,39.61-15.36-8.91-22.27-23.21-22.29-40.8q-.09-77.58,0-155.14v-6.14H190.07V591.55h419V358.44ZM242.46,400.7a6,6,0,0,0-.5,1.42c0,39.61-.47,79.22.08,118.82.31,21.87,19.75,35.46,39.39,28.79,12.53-4.26,20.08-15.61,20.11-30.72q.1-57,0-114.09c0-1.35-.22-2.69-.36-4.22Zm255.65,0a5.51,5.51,0,0,0-.51,1.38c0,39.78-.53,79.57.11,119.34.34,21.29,19.41,34.55,38.82,28.47,12.91-4,20.63-15.66,20.65-31.38q.08-56.52,0-113c0-1.53-.18-3.05-.3-4.77Zm-69.19.12H370.15c-.09,1.17-.2,2-.2,2.88q0,59.09,0,118.17a26.9,26.9,0,0,0,.45,5.75C373.88,543.3,387.47,552.72,404,551c13.95-1.46,25.06-14.46,25.09-29.65q.1-58,0-116.08C429.11,403.89,429,402.52,428.92,400.83ZM301.13,384.35V358.64H242.2v25.71Zm196.55-.22h59.13V358.6H497.68Zm-68.77-25.61H370.33v25.73h58.58Z"/><path class="cls-1" d="M522.06,651.18q-49.95,0-99.89,0c-8.37,0-12.24-2.63-12.1-8.15s3.9-7.88,11.95-7.88H615.5c24.16,0,37.55-13.5,37.56-37.83,0-32.24,0-64.48,0-96.72,0-4.21.85-7.75,5-9.48,5.46-2.27,10.75,1.71,10.79,8.2.09,16.47,0,32.94,0,49.41v49.94c0,31.57-20.54,52.34-52.14,52.48S553.6,651.18,522.06,651.18Z"/></svg>