<svg id="Livello_1" data-name="Livello 1" xmlns="http://www.w3.org/2000/svg" viewBox="0 0 800 800"><defs><style>.cls-1{fill:#26475c;}</style></defs><path class="cls-1" d="M519.9,680.91c-1.68-.57-3.35-1.16-5-1.7-12.84-4.09-19.5-14.55-19.56-30.64,0-4.74,1.52-10.58-.69-13.9-2.1-3.16-8.16-3.71-12.48-5.4a19.21,19.21,0,0,1-3-1.23c-7.48-4.51-14.34-5.76-23.43-2.13-11.58,4.62-22.75.21-30.72-9.63-8.08-10-9.19-21.24-3.28-32.71,1.61-3.13,1.64-5.25.12-8.43-3.75-7.84-6.81-16-10.47-24.81-5.16,0-11.15,0-17.14,0-16.66-.17-28.88-12-28.88-27.83s12.12-27.68,28.82-27.76c5.83,0,11.66,0,17,0,4.12-9.48,8.16-18.55,11.92-27.72.48-1.18-.17-3.13-.83-4.44-6.65-13.11-4.95-26.6,4.72-36.27s23.62-11.31,36.34-4.88c1.67.85,4.37.63,6.24-.06,7.33-2.69,14.4-6.09,21.79-8.57,3.32-1.11,4.14-2.65,4.09-5.81a164.44,164.44,0,0,1,.37-18c1.34-14.39,14.05-25.1,28.59-24.51a27.49,27.49,0,0,1,26.25,26.48c.18,5.46.26,11,0,16.41-.13,3.1,1,4.34,3.89,5.37,7.52,2.67,14.8,6,22.31,8.74a8.81,8.81,0,0,0,6.26-.1c12.44-6.26,26.41-4.55,35.93,4.76s11.49,23.37,5.45,35.79a10.31,10.31,0,0,0-.15,7.32c3.19,8.46,6.88,16.73,10.68,25.78,18.81-1.4,38.17-2.08,45.92,21.62v12c-8,23.39-27.4,22.73-46.6,21.54-1.77,5.09-3.14,9.62-4.92,14-1.85,4.54-4.29,8.84-6,13.41-.52,1.37,0,3.49.73,4.93,6.5,13,4.67,26.65-5,36.22s-23.48,11.2-36.33,4.65a7.27,7.27,0,0,0-5.31-.25c-7.8,3-15.39,6.49-23.25,9.26-2.92,1-3.58,2.37-3.53,5.06.11,5.47.15,10.95-.06,16.42-.44,11.26-6.11,19.18-16.12,24-2.55,1.24-5.32,2-8,3Zm-7.76-276.63c0,3.1,0,6.2,0,9.3,0,8.86-1.93,10.74-10.2,13.59a310.47,310.47,0,0,0-29.25,11.76c-8.06,3.73-9.07,4.06-16.06-1.59A13.25,13.25,0,0,0,438,456.06c5.41,6.67,5.1,8.28,1.53,16.13-4.42,9.71-8.24,19.73-11.75,29.82-2.42,6.94-4.76,9.29-12.09,9.33-7.48,0-15-.28-22.43,0-7,.3-11.63,5.27-11.41,11.47s4.64,10.32,11.62,10.5c7.3.19,14.6,0,21.9,0s9.94,2.62,12.32,9.23c3.88,10.73,8.11,21.35,12.7,31.78,2.32,5.29,2.45,9.5-1.68,13.93-5.33,5.72-5.07,13.57.12,18.64s12.76,5.33,18.64-.18c4.26-4,8.25-4,13.39-1.75,10.77,4.75,21.72,9.09,32.74,13.22,6.06,2.28,8.41,4.68,8.49,11.06.09,7.48,0,15,0,22.44.07,7.25,4.21,11.75,10.71,11.84,6.75.1,11.18-4.5,11.29-11.93.09-7.12,0-14.24,0-21.36,0-7.81,2.07-9.81,9.48-12.45q15.6-5.55,30.74-12.36c6.8-3.06,8.86-3.24,14.7,1.74s13.17,4.75,18.27-.34a13.57,13.57,0,0,0,.43-18.35c-4.77-5.59-4.66-8.1-1.67-14.76,4.44-9.91,8.68-20,12.21-30.23,2.7-7.84,4.92-10.21,13.1-10.18,7.3,0,14.66.56,21.87-.23a14.45,14.45,0,0,0,9.29-5.34c4.93-7.15-.4-15.9-9.78-16.39-7.46-.38-14.95,0-22.43-.05-7.08,0-9.6-2.47-11.87-8.88-3.69-10.41-7.69-20.73-12.18-30.81-3.17-7.12-3.4-9.27,1.51-15.21a13.58,13.58,0,0,0-.51-18.37c-5-4.95-12.58-5-18.28-.24s-7.73,4.69-14.74,1.56c-10.25-4.57-20.71-8.71-31.28-12.5-6.61-2.38-8.83-4.62-8.85-11.8,0-7.66.17-15.33-.07-23a11,11,0,0,0-11.36-10.91c-5.89.19-10.37,4.79-10.57,11.05C512,396.24,512.14,400.26,512.14,404.28Z"/><path class="cls-1" d="M203.49,162c11.07-4.41,21.2-8.34,31.22-12.55a7.12,7.12,0,0,0,3.64-4c4.42-15.1,16.54-24.94,31.33-25.14,14.58-.2,27,9.55,31.76,24.62a7.82,7.82,0,0,0,3.73,4.46c10,4.25,20.18,8.15,31.47,12.64,3.85-4,8.52-9.11,13.42-14,12.58-12.48,31.16-12.87,43.08-1s11.62,30.52-.78,43.1c-4.85,4.92-9.9,9.65-14,13.65,4.44,11.25,8.35,21.61,12.72,31.77.73,1.69,3.28,3.08,5.26,3.67,22.47,6.77,30.91,33.2,16.32,51.53a33.19,33.19,0,0,1-17.15,11.1c-1.67.5-3.79,1.76-4.4,3.22-4.28,10.19-8.22,20.52-13.05,32.78,4.72,4.32,11.12,9.28,16.4,15.22,8.59,9.66,9.84,21,4.35,32.61s-15.24,16.9-27.83,16.74c-8.2-.11-15.13-3.66-20.85-9.5-4.84-4.94-9.59-10-13.58-14.11-11.36,4.54-21.67,8.56-31.87,12.84a6.47,6.47,0,0,0-3.06,3.7c-5.21,16.13-16.46,25-31.92,24.92-15.24-.07-26.09-8.95-31.39-25.46a6,6,0,0,0-3.06-3.19c-9.29-4.11-18.63-8.13-28.07-11.89a5.7,5.7,0,0,0-4.94.83c-4.47,4-8.54,8.47-12.86,12.67-12.58,12.21-30.7,12.39-42.65.47s-11.78-30.13.41-42.66c4.07-4.19,8.16-8.37,12.42-12.36,2-1.91,2.32-3.35,1.06-6C156.53,324,153,315,149.08,306.26c-.77-1.7-2.4-3.69-4-4.18-15.46-4.68-24.86-16.32-24.9-31.33,0-15.23,9-26.93,24.41-31.67,1.52-.47,3.48-1.51,4-2.79,2.18-5.19,3.65-10.68,5.84-15.86s4.94-10.11,8.1-16.45c-5.31-4.93-11.3-9.77-16.44-15.38-15.66-17.1-7.65-43.83,14.78-49.26,10.63-2.57,20.26.17,28.17,7.94C194.09,152.27,199,157.43,203.49,162ZM153.86,371.9c.89,6,3.24,10.14,8.13,12.49,5.27,2.54,10.46,1.89,14.71-2.1,6.12-5.75,11.93-11.82,17.86-17.76s9-5.78,16.49-2.15c10.75,5.19,21.79,9.91,33,14.07,7.89,2.94,9.74,4.4,10.52,13.07a15.38,15.38,0,0,0,15.77,14.27,15.74,15.74,0,0,0,15.23-15c.45-7.66,2-10,9.48-11.87a123.83,123.83,0,0,0,35-15c5.95-3.66,9.66-3.06,14.66,1.89,5.71,5.65,11.3,11.42,17,17.05,6.19,6.1,14,6.57,19.46,1.32,5.72-5.49,5.48-13.47-.76-19.87-5.35-5.49-10.84-10.85-16.27-16.26-6.28-6.25-6.12-8.9-2.22-16.82a287.57,287.57,0,0,0,13.68-32c2.45-7,5.43-11.16,13.54-11.49,8.73-.37,14.09-7.27,13.85-15.92-.23-8.23-6.51-14.51-15.06-15.07-7.49-.49-8.94-2.23-11.61-9.13-4.5-11.66-9.36-23.21-14.73-34.49-3.45-7.25-3.57-10.18,2.22-16,5.17-5.16,10.38-10.27,15.53-15.46,7.06-7.11,7.84-14.84,2.14-20.66s-13.48-5.26-20.61,1.84c-5.44,5.4-10.76,10.92-16.22,16.3-4.78,4.71-8.5,5.58-13.69,2.35a128.6,128.6,0,0,0-37.51-16c-5.07-1.24-7.85-4.69-7.95-10.35-.16-9.38-6.49-15.75-15.23-15.85-9-.11-15,5.69-15.76,15.26-.53,6.95-2.31,9.42-9.05,11.18A125.11,125.11,0,0,0,210,179.05c-6,3.79-9.56,3.16-14.61-1.83-5.84-5.78-11.53-11.71-17.42-17.43-6.21-6-14-6.27-19.47-.77-5.23,5.27-4.87,13.54,1,19.54s11.86,11.88,17.82,17.8c3.85,3.82,4.84,8.28,1.93,12.89a131.6,131.6,0,0,0-16.26,38c-1.28,5-4.54,7.49-9.93,7.62-9.53.22-16.36,6.91-16.41,15.58,0,8.41,6.37,15.15,15.76,15.59,6.4.29,9.78,3.41,11.14,9.19a116.86,116.86,0,0,0,14.87,35c3.87,6.2,3.32,9.94-1.8,15.14-5.76,5.85-11.82,11.42-17.36,17.48C156.91,365.39,155.62,368.86,153.86,371.9Z"/><path class="cls-1" d="M653,273.84c-.76-28.63-11.53-53.21-28.26-75.32-19.51-25.79-43.78-45.27-75.65-53.83-11.23-3-22.62-4-34.07-1.24-21.28,5.08-35.48,22.05-37.95,44.24s3.05,42.62,12.55,62.31c.71,1.48,1.54,2.9,2.24,4.38,2.61,5.51,1.3,10.24-3.43,12.47-4.51,2.14-8.87.53-11.42-5.18-4.52-10.11-9.39-20.19-12.55-30.76-6-20.26-7.27-40.89-.27-61.32,9-26.17,32.32-43.12,59.95-44.11,30.14-1.08,56,10.17,79.2,28.05,32.39,24.93,54.72,56.82,63.8,97.14,3.78,16.79,4,33.61-1.34,50.24-9.56,30-37.26,48.62-68.77,46.43-34.52-2.4-62.36-18.51-86.84-41.66a155.21,155.21,0,0,1-11.22-12c-3.91-4.56-3.65-9.16.34-12.49,3.8-3.17,8.15-2.79,12,1.56,11.49,12.89,24.19,24.33,39.24,32.92,16.22,9.25,33.34,15.34,52.4,14.87,26.89-.66,47.33-19.81,49.48-46.69C652.73,280.41,652.83,276.94,653,273.84Z"/><path class="cls-1" d="M339.74,517.48c-1,34-14.18,63.36-35.08,89.46-21.6,27-48.15,47.22-82.23,55.78-22.56,5.67-44.62,4.73-64.44-9.21C140.23,641,131.94,623,130.07,601.87c-2.21-25.1,4.37-48.37,15.75-70.5,2.91-5.67,7.36-7.47,12-5s5.66,7,2.79,12.73c-8.92,17.84-14.56,36.44-14.24,56.64.57,35.48,26.8,57.84,61.95,52.68,33.43-4.92,58.88-23.3,80.23-48.11,17.94-20.83,30.2-44.61,33.75-72.25,1.55-12,1-24-3.3-35.59-7.17-19.29-24.16-31.29-44.8-31.86-29.29-.8-53.2,11.91-74.81,30-6.4,5.37-12,11.75-17.87,17.71-4.23,4.27-8.73,4.78-12.53,1.33-3.58-3.25-3.85-7.87-.09-12.16,23.07-26.3,50.38-45.8,85.54-52.27C303.34,436.21,340.47,467.69,339.74,517.48Z"/><path class="cls-1" d="M202.72,611.55A17.91,17.91,0,0,1,190,607.8c-5.82-4.54-7.89-12.07-6.91-19.19a65.22,65.22,0,0,1,4.27-16.83c12.28-28.37,31.42-51.07,58-67.09a49.05,49.05,0,0,1,18.25-6.55c15.05-2,24.84,8.52,22.55,23.62A65,65,0,0,1,282,537.52c-12.1,28.19-34.15,55.9-62.36,69.38a49.39,49.39,0,0,1-6.06,2.24A44.87,44.87,0,0,1,202.72,611.55Zm67.16-97c-8.48-.68-14.31,2.81-19.79,6.54a132.66,132.66,0,0,0-46.18,54.26,48.64,48.64,0,0,0-3.73,11.36c-1.62,8.53.33,10.1,8.37,7.21a32.65,32.65,0,0,0,5.94-2.74c24.57-15,42.37-35.88,53-62.63C269.16,524.41,269.08,519.55,269.88,514.58Z"/><path class="cls-1" d="M616.54,272.06c.3,6.09-1.34,12-6.12,16.58-5.6,5.4-13.65,5.94-20.76,3.64A89.58,89.58,0,0,1,564.3,279c-20.95-15.62-37.06-35.5-46.91-59.88a57.82,57.82,0,0,1-4.06-19.56c-.43-14.7,10.65-23.05,25.06-19.76,11.49,2.62,21.11,8.84,30,16.23,19.14,16,34.68,34.84,43.91,58.28a93.15,93.15,0,0,1,3.25,11.24A33.06,33.06,0,0,1,616.54,272.06Zm-16.42-.12c-1.27-4.35-2.07-8.91-3.9-13a129.56,129.56,0,0,0-48.5-57.08,50.19,50.19,0,0,0-11.89-5.3c-5.28-1.72-6.78-.52-6,5.08a47.85,47.85,0,0,0,3.64,13.06,130.63,130.63,0,0,0,47.6,55.83c4,2.66,8.76,4.39,13.36,6C598,277.77,600,276,600.12,271.94Z"/><path class="cls-1" d="M533.52,519.25q0-16.68,0-33.36c0-14.4,5.81-19.49,20.05-17.66,24.08,3.09,43.33,22.94,45.24,45.57,2.56,30.21-17.89,50.8-38.3,55.8-.71.17-1.4.42-2.11.58-16.58,3.68-26.1-.68-25-20.31C534,539.7,533.52,529.46,533.52,519.25Zm17.22,34.83c18.13-1.06,32-16.94,31.63-35.74-.32-17.29-15.09-33-31.63-33.32Z"/><path class="cls-1" d="M511.38,522.51a32.23,32.23,0,0,1-32.3,32.32,32.67,32.67,0,0,1-32.15-32.12c-.24-17.92,14.51-32.49,32.78-32.4A31.83,31.83,0,0,1,511.38,522.51Zm-47.49-.31A15.23,15.23,0,0,0,479.16,538a15.42,15.42,0,0,0,15.6-15.53,15.44,15.44,0,1,0-30.87-.24Z"/><path class="cls-1" d="M296.87,343.65c-20.49.09-33.36-5.08-44.25-15.17-7.27-6.73-7.61-15.06-.67-22.05Q281,277.11,310.36,248c7.1-7,15.09-6.75,22,.42,15.33,15.88,19.74,40.33,11,60.92C334.47,330.25,314.14,343.65,296.87,343.65Zm24.63-81.88L265.94,317.4c11.81,13.33,37.2,13.09,52.45-.95C334.14,302,335.45,275.94,321.5,261.77Z"/><path class="cls-1" d="M270.29,235.88a34.81,34.81,0,0,1-34.37,35.21,35,35,0,1,1-.41-69.91A34.66,34.66,0,0,1,270.29,235.88ZM217.5,236a17.88,17.88,0,0,0,17.88,18.18,18.17,18.17,0,0,0,18.4-17.79,18.47,18.47,0,0,0-18.29-18.59A18.14,18.14,0,0,0,217.5,236Z"/></svg>