<svg id="Livello_1" data-name="Livello 1" xmlns="http://www.w3.org/2000/svg" viewBox="0 0 800 800"><defs><style>.cls-1{fill:#26475c;}</style></defs><path class="cls-1" d="M584.33,118.73c4.4,3.75,7.44,10,10.9,14.58,3.86,5.12,7.69,10.27,11.41,15.5a7.87,7.87,0,0,1-2.5,11.45c-4.32,2.6-8.19,1.56-11.09-2.27-4.14-5.48-8-11.19-12.21-17.18-21.38,29.15-40.91,58.5-50.44,93.26-5.23,19.07-4.8,37.52,6.92,54.43,12,17.24,35,25.61,56.17,20.58,22-5.23,36.8-21.28,40.5-43,2.77-16.22-1.75-31.07-7.35-45.75-3.17-8.31-7.28-16.27-11-24.35-2.88-6.15-1.87-10.84,3-13.12s8.82-.46,11.84,5.43c9.26,18,16.89,36.6,20.38,56.78,7.64,44.21-29.65,85.74-74.42,82.2-7.36-.58-14.61-2.55-22.57-4-1,8.19-2.18,17-3.27,25.74q-4.74,38.22-9.43,76.47-4.61,37.41-9.18,74.84-4.73,38.52-9.5,77c-2.27,18.26-4.17,36.57-7,54.74-4.16,26.94-28.64,47.57-56,47.64-38.69.11-77.38,0-116.07,0-6.42,0-10.2-3-10.36-8-.18-5.21,3.76-8.42,10.45-8.42q55.57,0,111.15,0c26.57,0,43.11-15.73,45.76-42.1,2.55-25.36,6.13-50.62,9.25-75.93q4.05-32.82,8.08-65.63a29,29,0,0,0,0-3.13H364.83c0,2,0,4.16,0,6.29-.1,13.32.27,26.66-.42,40-.94,18.06-15.75,33.6-33.76,34.22-26.43.91-52.91.5-79.37.63-8.74,0-17.48,0-26.77,0,1.09,9.63,2.06,18.8,3.19,27.94,1.65,13.38,3.48,26.74,5.12,40.11,2.68,21.72,19.44,37.08,41.33,37.61,7.85.19,15.7,0,23.55,0,5.84,0,9.6,3.28,9.64,8.13s-3.74,8.39-9.52,8.22c-12.55-.36-25.43.65-37.56-1.87-25.53-5.32-41.92-26.89-44.8-54.17-3-28.8-7-57.5-10.48-86.25q-4.6-37.7-9.18-75.4-4.65-38-9.37-75.92-4.63-37.69-9.23-75.4c-.73-5.94-1.51-11.88-2.29-18-1.66-.34-3.07-.56-4.44-.94-12.72-3.52-20.8-14-20.92-28q-.27-33.39,0-66.79c.15-18,12.11-29.53,30.18-29.53q178.21,0,356.43.09c4.53,0,7-1.32,9.56-5.15,5-7.53,10.28-14.93,15.58-22.28,4.86-6.75,9.36-14.36,15.54-20,1.33-1.21,3.17-2.58,5.09-2.46A4.14,4.14,0,0,1,584.33,118.73ZM200.5,363.4h6.82c39.58,0,79.17-.07,118.75,0,20.77.06,37.41,15.24,38.4,35.67.72,14.92.29,29.9.36,44.86,0,5.06,0,10.13,0,15.46H519.89c.39-2.36.85-4.65,1.13-7q4.2-33.88,8.34-67.76c2.75-22.59,5.55-45.18,8-67.8.23-2-1.11-4.65-2.5-6.37-3.75-4.67-8.27-8.74-11.8-13.56-2.33-3.17-4.67-4.24-8.53-4.24q-158.16.16-316.31.1c-1.94,0-3.87.16-6.35.28C194.8,316.67,197.59,339.6,200.5,363.4ZM532.61,184.25H183.82c-14.9,0-17.68,2.74-17.68,17.39v58.57c0,12.23,3.39,15.66,15.5,15.66H512.73C505.19,242.29,518.28,213.61,532.61,184.25ZM222.3,540.59c2,.09,3.75.23,5.53.24q48.45,0,96.89,0c14.72,0,23.34-8.7,23.35-23.49,0-37.22-.43-74.46.22-111.67.27-15.36-9.28-25.88-25.51-25.69-37.95.44-75.91.14-113.86.14h-6.31c1.9,15.58,3.69,30.32,5.55,45.56h6.25q35.58,0,71.16,0c2.15,0,4.52,0,6.38.87a7.47,7.47,0,0,1,4.33,9.1c-1.11,4.42-4.3,6.48-8.93,6.48q-35.58-.06-71.16,0h-6c1.54,12.39,3,24.09,4.48,36.17h6.26q32.58,0,65.15,0c6.81,0,10.5,3,10.41,8.38-.09,5.1-3.72,8.06-10.18,8.07q-31.74.06-63.5,0h-6.15C218.56,510.33,220.41,525.3,222.3,540.59Z"/><path class="cls-1" d="M547.27,259.64c-.09-6,2.71-9.68,7.63-10s8.14,3.06,8.8,9c1,9,6.32,13.89,16,15.89,2.84.59,6.37,2.46,7.69,4.81C590.6,285,586,290.89,579.11,291,562.69,291.13,547.51,276.2,547.27,259.64Z"/><path class="cls-1" d="M273.69,230.27c0-7.48-.08-15,0-22.43.09-6.27,3.35-9.9,8.55-9.85,5,0,8.24,3.48,8.3,9.53q.23,22.71,0,45.41c-.06,5.71-3.84,9.55-8.51,9.46s-8.21-4-8.32-9.7C273.59,245.22,273.69,237.74,273.69,230.27Z"/><path class="cls-1" d="M399.77,229.72c0-7.3-.11-14.6,0-21.89.13-6.33,3.39-9.91,8.58-9.84s8.3,3.69,8.34,10.08q.13,21.88,0,43.77c0,6.47-3.54,10.63-8.59,10.55s-8.29-4.16-8.36-10.79C399.7,244.31,399.76,237,399.77,229.72Z"/><path class="cls-1" d="M206.58,230.13c0,7.29.06,14.58,0,21.88-.06,6.2-3.28,10.19-8.19,10.38s-8.6-3.92-8.64-10.42q-.15-21.89,0-43.76c0-6.81,3.28-10.41,8.69-10.22,5.11.19,8.08,3.84,8.14,10.26C206.64,215.54,206.58,222.83,206.58,230.13Z"/><path class="cls-1" d="M374.44,229.72c0,7.65.07,15.31,0,23-.07,5.89-3.3,9.63-8.09,9.71-5,.08-8.41-3.88-8.43-10q-.07-22.41,0-44.84c0-5.92,3.17-9.48,8.16-9.56s8.25,3.37,8.34,9.3C374.52,214.77,374.44,222.24,374.44,229.72Z"/><path class="cls-1" d="M231.92,230.27c0-7.66-.06-15.32,0-23,0-5.82,3.32-9.38,8.34-9.31,4.81.06,8,3.51,8,9q.1,23,0,45.94c0,5.74-3.48,9.54-8.31,9.45s-8-3.88-8.08-9.71C231.87,245.21,231.92,237.74,231.92,230.27Z"/><path class="cls-1" d="M316,229.77c0-7.47-.09-15,0-22.42.1-6,3.27-9.42,8.31-9.36s8.23,3.61,8.26,9.5q.12,22.69,0,45.39c0,5.68-3.62,9.55-8.41,9.51s-8.08-3.8-8.16-9.65C315.87,245.08,316,237.43,316,229.77Z"/><path class="cls-1" d="M442.09,230.23c0-7.47,0-14.94,0-22.42,0-6.35,3.15-9.93,8.35-9.82,5,.1,8.08,3.64,8.1,9.6q.07,22.69,0,45.39c0,5.68-3.58,9.52-8.41,9.41-4.66-.1-7.94-3.73-8-9.19C442,245.55,442.09,237.89,442.09,230.23Z"/><path class="cls-1" d="M483.88,229.87c0-7.47-.09-15,0-22.42.09-5.87,3.34-9.42,8.34-9.46s8.28,3.36,8.33,9.39q.21,22.69,0,45.4c-.05,5.81-3.53,9.59-8.26,9.61-4.93,0-8.37-4-8.43-10.1C483.82,244.82,483.87,237.34,483.88,229.87Z"/></svg>