<?xml version="1.0" encoding="utf-8"?>
<!-- Generator: Adobe Illustrator 28.4.1, SVG Export Plug-In . SVG Version: 6.00 Build 0)  -->
<svg version="1.1" id="Livello_1" xmlns="http://www.w3.org/2000/svg" xmlns:xlink="http://www.w3.org/1999/xlink" x="0px" y="0px"
	 viewBox="0 0 692.2 631.9" style="enable-background:new 0 0 692.2 631.9;" xml:space="preserve">
<style type="text/css">
	.st0{fill:#26475C;}
</style>
<g>
	<path class="st0" d="M692.2,105.2c-4,11.9-7,24.2-12.3,35.5c-8.7,18.9-23.3,32.9-41.4,43.2c-5.9,3.3-11.7,6.8-17.6,9.9
		c-7.1,3.7-13.3,1.2-15.4-6.3c-8.5-29.8-14.4-59.7-1.3-89.9c0.5-1.1,0.3-2.8,0-3.9c-0.9-4.2-6.1-1.3-7.9,0.8
		c-25.1,29.8-50,59.8-75,89.7c-2.5,2.9-4.8,6.1-7.6,8.6c-4.2,3.9-9.1,4-13.4,0.2c-4.1-3.6-4.4-8.1-1.8-12.8c0.7-1.2,1.6-2.2,2.4-3.2
		c27-32.4,53.9-64.7,80.9-97.1c6.8-8.2,15.3-11.7,25.8-8.7c10.1,2.8,16.5,9.7,17.4,20.1c0.5,5.3-1.1,11.2-3,16.3
		c-7.7,20.6-6.8,41,0.3,62c26.5-13.2,43-34,48-62.9c5.4-31.5-8.6-59.8-35.1-74.2c-27.2-14.7-58-10.1-82.7,10.7
		c-57.1,48.2-114.7,95.9-172.2,143.9c-2,1.7-4,3.4-5.8,5c20.8,20.7,41.2,41,62.1,61.9c8.9-10.6,18-21.6,27.2-32.6
		c3.5-4.1,6.8-8.4,10.4-12.4c4.6-5.1,10.4-5.9,14.9-2.1c4.5,3.8,5,9.7,0.6,15c-12.1,14.8-24.5,29.5-36.7,44.2
		c-0.7,0.8-1.3,1.8-2.9,4.1c3,2.5,6.2,4.9,9,7.8c8.5,9,8.8,21,0.2,29.7c-21.4,21.6-42.3,43.8-64.9,64.1
		c-14.1,12.6-30.1,23.9-46.9,32.7c-29.4,15.5-54.7,35.2-76.2,60.4c-24.8,29.2-50.2,57.8-75.7,86.4c-26.2,29.5-57.4,52.5-92.8,69.7
		c-27.9,13.5-54.5,8.9-76.7-13c-8.9-8.7-17.5-17.5-22-29.5c-6.2-16.9-5.6-33.5,2-49.8C26,486.2,54.8,451,90.6,421.1
		c7.6-6.4,14.9-13.1,22.4-19.5c5.6-4.8,11.5-4.8,15.6-0.2c4.1,4.6,3.3,10.4-2.2,15.4c-16.7,15.2-33.9,29.7-49.9,45.5
		c-22.2,21.9-39,47.7-52.2,75.8c-4.3,9.1-5.1,18.5-2.7,28.3c8.3,33.2,44.7,50.4,74.9,35c12.4-6.3,24.4-13.6,36-21.2
		c28.8-18.9,50.8-45,73.2-70.6c23-26.3,45.9-52.6,69.5-78.3c15-16.4,33.2-29.2,53.1-39c25.8-12.7,48.4-29.4,68.2-50.1
		c14.3-15,29.3-29.4,43.9-44c1.6-1.6,3-3.2,4.2-4.5C408,257.2,371.7,220.9,335,184.3c0.7-0.1,0.1-0.2-0.1,0.1
		c-25.6,26.6-51.6,52.8-76.4,80.1c-8.2,9-13.7,20.6-19.3,31.6c-14.4,28-33.5,52.2-57.5,72.6c-7.9,6.7-15.6,13.7-23.4,20.4
		c-6.4,5.5-12.3,5.7-16.5,0.8c-4.2-4.9-3-10.5,3.5-16.2c12.7-11.4,25.8-22.5,38.2-34.4c14.6-13.9,26.5-30.2,35.3-48.3
		c13.6-27.9,31.9-52.1,54.2-73.5c15.4-14.8,30.3-30.2,45.5-45.3c12-12,22.9-11.9,35,0.2c1.9,1.9,3.3,4.3,5.2,6.9
		c12.7-10.5,24.1-19.9,35.5-29.4c49.4-41.3,98.7-82.8,148.3-124c27-22.4,57.7-28.2,90.5-16.1c32.6,12,51.7,36.2,58.2,70.4
		c0.2,1.3,0.8,2.5,1.3,3.7C692.2,90.8,692.2,98,692.2,105.2z"/>
	<path class="st0" d="M388.9,289.2c-0.2,1.2-0.8,2.5-1.8,3.9c-3,4.4-10.4,7.3-14.8,3.1c-13.6-12.8-26.8-26.1-39.7-39.5
		c-3.9-4.1-3.4-9.1,0.5-13.4c3.8-4,9.7-4.4,13.9-0.3c7.7,7.5,15.3,15,22.9,22.7c3.8,3.8,7.6,7.7,11.4,11.6c2.3,2.3,4.6,4.5,6.4,7.2
		C388.7,286.3,389.1,287.8,388.9,289.2z"/>
</g>
</svg>
