<svg id="Livello_1" data-name="Livello 1" xmlns="http://www.w3.org/2000/svg" viewBox="0 0 800 800"><defs><style>.cls-1{fill:#26475c;}</style></defs><path class="cls-1" d="M671.2,537a13.24,13.24,0,0,1-.92,2.84,24.62,24.62,0,0,1-6.28,8.56c-5.42,4.59-12.66,5.81-19.56,5.8q-245.24-.37-490.47-.17c-12.56,0-20.7-5.5-23.63-16.1a25.63,25.63,0,0,1-.72-6.78c-.06-19.75.29-39.51-.16-59.25-.26-11.85,3.72-20.54,14.42-25.09,0-5.44-.84-10.65.16-15.48,2.63-12.79,13.24-20.77,26.85-21,8.79-.12,17.59,0,27.15,0-8.94-18.41-9.19-36.13,1.59-53.19,7.4-11.71,18.21-19,31.68-22.06,25.8-5.84,56.32,9.83,61.6,45.07,19.78-7.33,39.59-1.39,59.39-.06a17.86,17.86,0,0,0,11.25-2.76c17.6-10.5,30-25.13,39.46-43.32,10.6-20.45,23-40,34.58-59.92a67.12,67.12,0,0,1,21.21-22.49l3.93-2.65c-26.55-24.05-23-59.73-3.33-79.3A54.06,54.06,0,0,1,534,168.24c19.57,18,26.5,54.16-1.47,80.72,3.64,2.76,7.46,5.28,10.85,8.3,15.33,13.65,23,30.95,23.12,51.37.21,28.57,0,57.15,0,85.72v6.27c6.47.87,12.75,1.34,18.86,2.62,24,5,42.4,18.14,55.43,38.93.94,1.51,3.14,3.29,4.66,3.21,6.15-.3,12.36,1,17.31,4.79s8.73,9.09,8.75,15.35c0,7.57-.11,15.18-.11,22.77v38.36C671.41,530.16,671.9,533.66,671.2,537ZM392.28,445.55c0-13.82-.22-26.85.12-39.87.12-4.69-1.51-5.91-5.89-6.29q-31-2.72-62.06-6c-16-1.71-30.62.62-42.37,12.66-14.25,14.62-31.75,20.92-51.91,20.8-18.16-.11-36.33,0-54.5,0a70.24,70.24,0,0,0-7.4.15,10.31,10.31,0,0,0-8.92,10.69c.39,5.52,3.24,7.9,9.5,7.91,10.4,0,20.81,0,31.21,0,4.45,0,8.09,1.32,9.61,5.84,1.83,5.42-2.49,10.36-9.19,10.4-15.53.09-31,0-46.57,0-6.64,0-8.44,1.79-8.45,8.47q0,29.37,0,58.73c0,7.23,1.87,9.11,9,9.11H646.54c7.11,0,9-1.9,9-9.11q0-28.32,0-56.62c0-9.46-1.13-10.59-10.6-10.59H238.58a28.81,28.81,0,0,1-5.81-.18c-4.22-.89-7-3.33-6.91-8s2.53-7.19,7-7.82a46,46,0,0,1,6.33-.26H392.28Zm52.46-55c3.71-1.86,6.57-2.61,8.5-4.39,12.45-11.43,24.1-23.82,37.17-34.49,13.95-11.38,22.53-25.06,26.43-42.62,3.17-14.32,8.26-28.2,12.54-42.37-7.09-4.61-13.29-8.57-22.56-6.37-7,1.67-14.91-.24-22.41-.46-2.36-.07-5-.46-7.06.31A50.48,50.48,0,0,0,444.85,306c-.25,16.73-.09,33.47-.11,50.2Zm178.71,54.72c-12-15.31-26.44-24.46-44.56-26.67-23.76-2.89-47.62-5-71.46-7.24a9,9,0,0,0-6,2.08c-5.72,4.95-11,10.43-16.7,15.42-15.39,13.45-38.51,5.92-43.1-14a97.71,97.71,0,0,1-1.26-10l-31.33-3.12v43.51ZM497,245.18c20.81.15,37.77-16.16,38-36.53.22-21.3-16.13-38.35-37.12-38.71-20.4-.35-38,16.84-38.1,37.32A37.5,37.5,0,0,0,497,245.18ZM228.92,410.75c5.88-.48,10.12-.57,14.27-1.22,12.41-1.94,22.08-8.76,30.29-17.82,1.58-1.75,3.09-4.42,3.06-6.64-.16-14-6.32-24.78-18.91-31.13-12.35-6.23-24.66-5.21-35.84,2.91-11.43,8.3-15.66,20-13.65,33.85,1,7.09,3.92,14,9.83,18.06C221.15,411,226.26,410.34,228.92,410.75Zm315-129.34-2,.37c-.24.61-.52,1.21-.71,1.83-5.28,17.3-10.34,34.68-16,51.87A30.36,30.36,0,0,1,518,347.26c-13.72,13.44-27.88,26.45-41.88,39.61-5.26,4.95-11,9.51-15.59,15-2.12,2.56-3.37,7.35-2.51,10.43.78,2.83,4.73,6.28,7.63,6.64,3.21.4,7.57-1.58,10.14-3.93C493.32,399,510.19,382.14,528,366.4a60.31,60.31,0,0,0,18.68-29.58,87.93,87.93,0,0,0,2.83-36C548.73,294.24,545.84,287.88,543.89,281.41ZM383.63,383.05c10.26,1,19.14,2.12,28.05,2.53,1.79.08,4.19-2.14,5.49-3.91,8.31-11.37,13.36-23.69,11.27-38.27-.72-5-.08-10.22-.14-15.33,0-1.23-.3-2.46-.6-4.77-6.47,11.07-12.66,20.91-18.09,31.15-5.63,10.62-12.28,20.07-23.09,26A22.72,22.72,0,0,0,383.63,383.05Zm135.88,13.23,30.22,3V367.86Z"/><path class="cls-1" d="M214.29,601.59c0,7.41.17,14.82,0,22.22C213.9,635.86,204,645.09,191.76,645a22,22,0,0,1-21.93-21.82c-.11-14.63-.05-29.26,0-43.9,0-5.77,2.95-9.24,7.72-9.35,5-.12,8.11,3.42,8.12,9.49,0,13.57-.08,27.15.1,40.72,0,2.31.66,5.13,2.11,6.73,1.19,1.32,4.79,2.27,5.92,1.46,2.08-1.51,4.33-4.4,4.41-6.79.43-12.68.2-25.38.21-38.07,0-1.94-.11-3.89,0-5.82.35-4.75,3.79-7.89,8.3-7.74a7.63,7.63,0,0,1,7.53,7.88c.16,7.93,0,15.87,0,23.8Z"/><path class="cls-1" d="M631.19,601.47c0,7,0,14.1,0,21.15-.1,12.49-9.71,22.27-21.91,22.38-12.44.11-22.36-9.23-22.54-21.67-.22-14.81-.12-29.62-.06-44.42,0-5.68,3.25-9.1,8.08-9s7.81,3.61,7.83,9.32c0,13.58,0,27.15,0,40.72,0,6,2.33,9.16,6.46,9,3.9-.12,6.23-3.32,6.25-8.84,0-13.57,0-27.14,0-40.72,0-6.08,3.08-9.61,8.09-9.5,4.77.1,7.71,3.58,7.75,9.33C631.23,586.66,631.19,594.06,631.19,601.47Z"/></svg>