<svg id="Livello_1" data-name="Livello 1" xmlns="http://www.w3.org/2000/svg" viewBox="0 0 800 800"><defs><style>.cls-1{fill:#26475c;}</style></defs><path class="cls-1" d="M413.72,118.39c16.7,3.25,33.46,5.64,50.54,4,.54-.06,1.07-.25,1.61-.33,20.74-3.14,31.67,8.81,26.47,29.18-3.12,12.26-8.19,23.23-20.88,27.34,0,9.19.91,17.84-.21,26.22-1.85,13.83-8.82,25.45-19.12,34.85-2.83,2.58-3.33,4.78-2.45,8.49,4.76,19.94,8.68,40.06,6.75,60.71-.67,7.23-2.59,14.34-3.61,21.55a8.38,8.38,0,0,0,1.19,5.76c5.05,6.62,11.11,11.64,19.5,14.18,11.32,3.43,22.28,8.08,33.38,12.22,8,3,15.13,7.11,20.72,13.83,1.2,1.44,4,2.1,6.15,2.11,37.32.12,74.64,0,112,.11,20.37,0,35.13,15.29,34.76,35.68-.29,16.57-14,31.09-30.63,32.43-3.06.24-6.13.39-9.56.61-.11,2.07-.28,3.84-.28,5.61,0,40.43,0,80.87-.08,121.3,0,3.82.87,5.61,4.86,6.9a28.09,28.09,0,0,1,19.12,26.17c.14,4.76.13,9.52,0,14.27-.22,8.94-6,14.88-14.8,14.92q-39.51.15-79,0c-8.64,0-14.56-5.87-14.63-14.42-.05-6.74-.27-13.6.86-20.2,1.81-10.59,8.69-17.62,18.75-20.94,3.69-1.22,4.29-3,4.25-6.24-.14-11.89-.11-23.79,0-35.68,0-6.48,3.11-10,8.3-10s8.28,3.71,8.3,10.08c.05,13.17,0,26.34,0,40h27.13V447.42H595.92v16.5c0,11.34.05,22.68,0,34,0,5.78-3.41,9.64-8.22,9.75s-8.32-3.55-8.36-9.47c-.11-14.82,0-29.64-.05-44.46V447c-8.66,0-16.83,0-25,0-3.3,0-6.6.1-9.88-.18-4.63-.39-7.32-3.07-7.65-7.76-.3-4.46,2.75-8,7.38-8.7a35.23,35.23,0,0,1,4.93-.11q48.59,0,97.15,0c8.93,0,15.57-5.67,17.46-14.46a17,17,0,0,0-9.6-18.52,24.59,24.59,0,0,0-9.52-2.05c-36-.14-72.09-.06-108.13-.14-2.95,0-4.36.73-5.56,3.71-4.72,11.72-16.18,17.69-28.49,14.69-23.73-5.79-47.36-12-71.05-17.91a20.3,20.3,0,0,0-4.87-.42q-135.3,0-270.6,0c-11.06,0-17.67,4.4-20.15,13.25a17.34,17.34,0,0,0,15.49,21.84c2,.13,4,0,6,0h346.9c7.1,0,11.15,3.14,11.1,8.49S511.41,447,504,447c-18.28,0-36.57,0-55.45,0a24.23,24.23,0,0,0,1.08,3.71c13.27,27.21,19.83,56.35,24.36,86,2.31,15.15,3.68,30.45,5.82,45.63.24,1.7,2.45,3.62,4.22,4.52,9.71,5,19.89,9,29.27,14.54a26,26,0,0,1,12.92,20c.9,7.52-2.81,12.95-10.21,14.24a39.72,39.72,0,0,1-6.54.55q-32.65,0-65.32,0a60.1,60.1,0,0,1-6.57-.33c-9.52-1.07-12.89-4.9-13.94-14.36-3.29-29.61-8.53-58.84-18.69-87-2.15-6-4.92-11.7-7.59-18-14.86,17.92-28.9,35.44-43.67,52.34-5.39,6.17-7.08,10.81-3,18.82,5.72,11.16,9.71,23.46,6.92,36.42a31.2,31.2,0,0,1-5.82,12.09c-5,6.47-12.35,7-18.07,1.06q-26.78-27.54-53-55.65c-6.08-6.53-6.13-12.81.29-19.53,30.93-32.36,46.72-73.26,64.37-113.13a5.4,5.4,0,0,0,0-1.54H219.91c-.1,1.95-.27,3.72-.27,5.49,0,40.44,0,80.87-.09,121.31,0,3.86,1,5.59,4.91,6.89,11.53,3.81,18.83,14.54,19,26.8.08,4.76.15,9.52,0,14.27-.3,8.29-6,14.19-14.33,14.23q-39.8.19-79.58,0c-7.5,0-13.63-4.73-14.22-11.85a97.36,97.36,0,0,1,.53-22.38c1.65-10.84,8.66-18,18.94-21.4,3.3-1.1,4.16-2.56,4.12-5.77-.16-11.52-.08-23.05-.06-34.58,0-7.93,2.76-11.63,8.45-11.49,5.42.14,8.13,3.88,8.14,11.32,0,12.79,0,25.58,0,38.76h27.19V447.38H175.44v45.76c0,2,.09,4,0,6-.3,4.92-3.85,8.51-8.31,8.52s-8.11-3.39-8.16-8.51c-.15-15.37-.08-30.73-.09-46.1,0-1.79,0-3.57,0-5.78l-7-.35a36.22,36.22,0,0,1-20.84-7.5,34.09,34.09,0,0,1-1-52.1c5.95-5.11,13.53-7.62,21.23-8.53a71.76,71.76,0,0,1,9.39-.46c56.51.69,113,.24,169.58.24H337V372c0-18.29.45-36.6-.11-54.87-.81-26.92,9.94-48.88,27.52-68.23.94-1,1.8-2.11,2.86-3.36a59.38,59.38,0,0,1-18.62-25.07c-7.46-19.23-6-38.76-1.32-58.19,5.44-22.51,20-36.24,42.18-42.28,1.51-.42,2.95-1.06,4.42-1.6Zm-3.75,260c-11.8-12.79-23.11-25-34.34-37.27-4-4.41-4.07-9.19-.37-12.62s8.25-3.16,12.52,1.24c3.43,3.55,6.73,7.23,10.08,10.86,4.16,4.5,8.3,9,12.63,13.71l20.06-19.2c-11.27-13.23-22.2-26-33.07-38.82-4.6-5.43-4.81-10.59-.75-13.91s8.76-2.32,13.59,3.29c8.11,9.42,16.16,18.91,24.25,28.35,1.1,1.28,2.32,2.46,4,4.22,3.89-23,.1-44.24-5.14-65.74-16,7.1-31.77,8.21-47.93,2.58a5.2,5.2,0,0,0-4.3,1.2c-15.48,14.39-26.6,31.24-27.08,53.11-.46,21.39-.11,42.81-.08,64.21,0,1.56.26,3.13.4,4.79Zm-32.43,68.69c5.41,8.54,10.53,16.09,15.12,23.94a358.08,358.08,0,0,1,32.08,72.93c.85,2.68,1.14,5.78,5.55,4.93,9.08-1.74,18.24-3.11,28.3-4.8-2.56-12.94-4.74-25.47-7.55-37.86-4.32-19.07-10.17-37.66-20.1-54.69-1.06-1.81-3.21-4.22-4.91-4.25C410.17,446.92,394.3,447.05,377.54,447.05ZM366.77,218.8c10,20.25,37.1,28.5,59,18.7,23.13-10.34,35.43-35,27.78-54.46-14.68-1.46-29-2.69-43.35-4.4-4.91-.59-8.13,1-10.55,4.94-4.23,6.84-8.27,13.79-12.61,20.56C382.37,211.49,377.1,218.26,366.77,218.8Zm79.91-53c3.91-.38,7-.64,10.07-1,13.52-1.54,16.85-5.75,19.64-20,1.18-6-.27-6.91-6.4-6.46-8.34.61-16.77,1.37-25.09.86-11.81-.74-23.57-2.44-35.32-4-19.54-2.54-37.45,7.65-44.7,26a73.17,73.17,0,0,0-4.28,36c.18,1.56,1.29,4.18,2.15,4.26,2.11.17,5-.18,6.35-1.53,2.55-2.5,4.3-5.84,6.3-8.88,4.61-7,8.77-14.34,13.87-21,5.35-7,12.52-9.73,21.74-8.25C423.06,163.85,435.29,164.64,446.68,165.84ZM335,513.31l26.73,20.27c6.58-8.08,12.7-16.27,19.55-23.79,6.61-7.27,7.81-13.89,1.84-22.39-7.44-10.59-13.79-21.93-21.14-33.79C352.55,474.43,343.85,493.67,335,513.31Zm6.27,108c.13-2.59.58-4.08.21-5.32-2.83-9.36-5-19-9-27.89-4-9-3.68-16.21,3.21-23.44C341,559,345.75,552.8,351,546.5l-23.65-17.84-32,44.49Zm99.8-2.63h66.52c-1.07-1.2-1.45-1.94-2-2.24-9.38-4.71-18.55-9.93-28.24-13.85-10.16-4.11-13.28-7.44-14.18-18.25-.64-7.76-1.72-15.48-2.65-23.58l-28.59,4.74C434.93,583.3,438,600.82,441,618.68ZM422.17,366.2c7,5.61,11.63,13.55,20.94,15.68,11.9,2.72,23.75,5.67,35.6,8.56,9,2.2,18,4.56,27.08,6.67,3.59.84,6.95.29,9-3.37,2.17-3.87.28-6.95-2.52-9.11a44.15,44.15,0,0,0-10.38-5.93c-9-3.6-18-7-27.17-10.07-12.42-4.18-24.32-9-32.46-20.07-.14-.2-.59-.17-1.15-.3ZM647.23,619.69c0-3.17,0-5.7,0-8.24C647.15,600.15,643,596,631.6,596H590c-14.65,0-18,3.38-17.91,18.15,0,1.77.18,3.54.29,5.57ZM152,619.63h74.81c0-2.86,0-5.37,0-7.88-.05-11.62-4.22-15.77-15.88-15.78h-40c-16.6,0-19.59,3-19.26,19.48C151.7,616.7,151.87,617.94,152,619.63Z"/></svg>