<svg id="Livello_1" data-name="Livello 1" xmlns="http://www.w3.org/2000/svg" viewBox="0 0 800 800"><defs><style>.cls-1{fill:#26475c;}</style></defs><path class="cls-1" d="M671.58,598c-3.51,7.16-9.25,10.08-17.17,9.52-4.91-.35-9.86-.07-15.66-.07,0,4.49,0,8.81,0,13.13,0,19-13.07,32.21-32.23,32.29-24.52.11-49,0-73.57,0q-168.6,0-337.18,0c-17.24,0-30.44-9.78-33-25.27-1-6.32-.17-13-.17-20.17-6.42,0-12.17,0-17.92,0-10.2-.07-15.2-5.09-15.21-15.3q0-29.11,0-58.23c0-10.13,5-15.12,15.32-15.2,6.53-.05,13.05-.07,19.58-.13.32,0,.63-.28,1.43-.66-1.61-9.52-3.21-19.2-4.9-28.86-1.91-10.92-3.9-21.82-5.87-32.73-3-16.82,8.58-19.84,19.54-16.22,6.49,2.14,12.61,7.07,17.41,12.14,5.24,5.54,8.66,12.77,13.11,19.09,1.17,1.66,3.23,3.84,4.9,3.85,23.42.26,46.86.17,70.9.17,0-13.47.07-26.82-.11-40.16,0-1.19-1.42-2.72-2.57-3.46-19-12.22-39.58-18-62.28-15.1a46.9,46.9,0,0,1-5.81.28c-8,.06-12.27-3-13.74-10.93-4.4-23.88-8.7-47.78-12.65-71.73-1.7-10.35,8-17.19,19.4-12.82C209.76,324,215.76,329,221,334c4.76,4.54,8.11,10.56,12.5,16.48,1-1.51,2-3,3-4.57,14-22.64,28.1-45.19,41.82-68,8.92-14.81,20.92-24.09,39.65-23.89-2.09-2.69-3.77-4.83-5.43-7-9-11.69-14.53-24.6-13.46-39.6.84-11.73.56-23.87,3.68-35,8.25-29.47,33.64-44.68,59-44.09,28.49.67,52.2,20.4,57.53,48.59,2.49,13.17,2.63,27,2,40.48-.59,12.42-7.26,23-15.17,32.52-.88,1.06-1.79,2.1-3.09,3.62,4.25.64,8,1,11.67,1.81,16.69,3.91,30.09,17.81,31.29,35.11a281.1,281.1,0,0,1-.81,45.87c-1.47,15.36-10,27.63-21.78,37.43a10.13,10.13,0,0,0-4.14,8.93c.24,12,.09,23.92.09,35,8.9,0,17.27-.13,25.64.05,5.53.11,8.91,3.74,8.51,8.59-.38,4.68-3.87,7.53-9.78,7.47a127,127,0,0,0-43.13,6.56,130,130,0,0,0-15.85,7.14,5.45,5.45,0,0,0-2.75,3.78c-.25,8.79-.13,17.58-.13,27.11h6c28,0,56.11,0,84.16-.05,4.46,0,7.66,1.64,8.83,5.93,1,3.75-.24,7.1-3.85,8.94a12,12,0,0,1-5.06,1c-6.32.11-12.64,0-19.28,0v24.17h76.2c-8.13-9.42-13.49-19.47-16.14-31-2.31-10-2.3-19.92.9-29.69,1.08-3.29.43-5.36-2.7-6.71-9-3.91-18-7.84-27.05-11.72-1.12-.49-2.39-.64-3.52-1.09-4.56-1.83-6.66-5.91-5.26-10.1a7.7,7.7,0,0,1,10.16-5c12.49,4.52,24.82,9.46,35.38,13.53,4.62-3.73,9.56-7.73,14.51-11.7,16.33-13.08,34.64-16.56,54.67-11,3,.83,5,.6,7.65-1.28a47.19,47.19,0,0,1,28.3-8.75c13.56,0,21.76,9.21,19,23.11-3,15.21-2,30.14-.5,45.23,1.72,17-3.37,31.59-14.87,44.08-.44.49-.83,1-1.94,2.39,9.55,0,18.28.31,27-.09,7.9-.36,13.66,2.35,17.19,9.5Zm-493.32,9.45c0,5.53-.31,10.45.07,15.33.64,8,6.14,13.09,14.19,13.63,1.76.12,3.53.1,5.29.1H603.27c2.11,0,4.24,0,6.34-.21,6.29-.59,10.92-4,12.15-10s1-12.39,1.42-18.84H424.08c-8.64,0-12.93-2.83-12.72-8.4.2-5.34,4.15-7.76,12.72-7.76H655.35V535.45H145.64v55.86H379.22c1.94,0,3.89,0,5.82.13,4.59.35,7,3.06,7.46,7.46.41,4.1-2.78,7.8-7.14,8.44a37.15,37.15,0,0,1-5.28.12H178.26ZM392,375.18c8.13-5.47,16.24-9.85,23-15.75,10.15-8.81,15.2-20.5,15.18-34.17,0-9-.26-18,.32-27,1.06-16.33-12.22-32-35.21-27.23-4.83,25.67-14.77,37.39-33.1,38.7a30.83,30.83,0,0,1-19.52-5.37c-12.06-8-16.55-19.92-16.88-33.47-15.32-2.67-26.1,2.2-33.85,15.38-13.3,22.61-27.4,44.76-41.14,67.12-.76,1.24-1.36,2.58-2.26,4.28,6.25.77,11.87,1.23,17.4,2.2,3.78.67,5.7-.83,7.51-3.93q7.75-13.22,16-26.13c2.76-4.33,7.59-5.38,11.44-2.93,3.65,2.33,4.6,6.78,2.3,11.19-.81,1.56-1.79,3-2.71,4.54-4.26,7-8.53,13.91-12.83,20.92l20.91,8.27c6.09-3.48,11.34-7,17-9.59,10.35-4.84,20.73-9.75,31.47-13.58,13.79-4.92,25.27-11.81,31.31-26,2-4.8,7.18-5.83,11.16-3.57,4.2,2.38,5.36,7.12,2.42,11.89-5.49,8.92-9.57,19-20.05,24.21ZM256.63,403.82a134.33,134.33,0,0,1,53.14,32.45c9.55,9.51,18,19.91,21.18,33.49,1.89,8-1.46,15.11-9.2,17.89a52.59,52.59,0,0,1-15.91,3.27c-23.08.65-46.18.79-69.26,1.11-1.89,0-3.77,0-5.9,0v26.45H342.15c-3.12-9.14-3.31-17.89,1.6-26.21s12.52-12.49,21.9-14.22c0-10.16.05-20-.06-29.88a6.13,6.13,0,0,0-1.26-3.82c-8.66-9.48-17.34-19-26.3-28.15-1.44-1.48-4.31-2.19-6.52-2.2-13.85-.06-23.73-8.19-26.56-21.71a9.7,9.7,0,0,0-4.28-5.84c-11.25-6.1-23.53-8.85-36.43-10.54C261.7,385.24,259.21,394.37,256.63,403.82ZM405.26,203.37c-1.23-.36-2.54-.86-3.89-1.13-18.11-3.64-36.26-7-54.3-11-5-1.09-8.72,0-12.82,2.56-5.19,3.23-10.9,5.63-16.17,8.76a6.52,6.52,0,0,0-2.83,4.54c-.77,21.5,16.2,44,37.55,50a31.43,31.43,0,0,0,7.79,1.1C379.72,258.64,410,232,405.26,203.37ZM584,429.69c-.51-.45-.62-.63-.76-.67-22.5-6.11-45.82,7.48-53.68,31.3-7.2,21.79,4.59,48.57,25,56.57,1.32.51,3.32.77,4.42.13,10.22-6,20.17-12.37,27-22.44,3.21-4.74,4.82-10,2.5-15.5C581.61,463,577.82,446.65,584,429.69ZM404.79,186.45c-5-28.15-24.42-44-49.7-41.63-19.86,1.9-38.88,22.08-38.32,41.19,3.89-2.51,7.61-4.83,11.24-7.27a24.6,24.6,0,0,1,19.12-3.84c8.95,1.75,17.84,3.82,26.79,5.61C384,182.54,394.12,184.4,404.79,186.45Zm184.51,330c19.1.41,35.37-12.53,38.62-31.49a44,44,0,0,0,.16-13.17c-2.14-15.81-3-31.53.9-47.21.62-2.54-.06-4.63-3.38-4.49-14.47.62-27.09,6.91-28.32,24.36-.68,9.78,1.84,18.82,5.76,27.59,4.11,9.17,3.79,18.31-1.19,26.85C598.26,505,593.57,510.53,589.3,516.42Zm-153.82,2.31V494.26H387.06c-6.17,0-12.34-.18-18.5.06-7.62.3-12.81,5.79-12.54,12.82s5.45,11.49,13.05,11.58c3.7,0,7.4,0,11.1,0ZM248.06,373.46c-4.46,0-7.95,0-11.44,0-6.88.08-11.68-3.06-14.79-9.15a76.3,76.3,0,0,0-6.22-11c-4.1-5.54-8.7-10.71-13.1-16l-1.69,1.06q5.43,30.94,10.85,61.93c9.17,0,17.77.08,26.36-.1,1.18,0,3.09-1.14,3.38-2.13C243.69,390.35,245.65,382.55,248.06,373.46Zm-76.67,82c3.83,21.86,7.45,42.48,11,62.82h31.45V493.18c-5.61-1.78-11.14-2.49-15.39-5.2-3.59-2.28-6.1-6.65-8.38-10.52C185.34,469.42,180.54,461.54,171.39,455.47ZM402.82,386.9l-49.42,20c7.34,8.48,14.17,16.5,21.22,24.31.78.87,3.07,1.17,4.28.72q10.56-4,20.9-8.55c1.26-.56,2.87-2.22,2.89-3.41C402.92,409.29,402.82,398.57,402.82,386.9Zm-35.71-25.08c-4.36,1.87-8.38,3.58-12.39,5.31-9.35,4.05-18.75,8-28,12.23a9.56,9.56,0,0,0-5.24,12.33c1.61,4.27,6.87,7.55,11.09,5.95,14.57-5.53,29-11.47,43.87-17.41Zm-24.78-91.13c-.42,8.94,2.35,15.81,9.51,20.37a15.1,15.1,0,0,0,17,.05c7.2-4.51,10-11.36,9.51-20.37A45.26,45.26,0,0,1,342.33,270.69ZM315.5,473.51c-3.79-11.11-10.24-18.91-18.28-27.1v29.26Z"/></svg>