<svg id="Livello_1" data-name="Livello 1" xmlns="http://www.w3.org/2000/svg" viewBox="0 0 800 800"><defs><style>.cls-1{fill:#26475c;}</style></defs><path class="cls-1" d="M681.61,551q-31.2,31.18-62.41,62.36a39.46,39.46,0,0,1-3.57,3.4c-3.9,3.06-8.17,2.86-11.38-.4A7.88,7.88,0,0,1,604.1,605c3.1-3.33,6.71-6.18,9.59-8.79L577.42,560c-2.1.75-5.33,3-8.26,2.64s-5.71-3-7.95-5.2Q504,500.46,447.05,443.34c-6.38-6.39-6.54-9.11-.71-16.21-1.18-1.25-2.37-2.58-3.64-3.83-1.12-1.11-2.34-2.13-4.59-4.16-2,11.93-4.67,22.74-5.52,33.68-1.69,21.67-2.45,43.42-3.49,65.15-.61,12.53,2.48,24.24,8.17,35.34,6.67,13,13.32,26.06,15.3,40.8,2.65,19.63,1.86,39.07-4.86,57.86s-20.48,28.86-40.46,28.34-39.73-2.77-59.62-3.58c-26.11-1.07-52.26-2.42-78.35-1.91-37.44.74-74.61,6.71-112.23,6-20.17-.4-37.13-15.87-37.53-34.46-.47-21.37,14.51-37.13,36.13-38,4-.16,8,.09,12.07-.08,48.07-2,89.43-19.26,122.87-54.33,10-10.54,14.59-23.52,15.52-37.74.78-12,1.09-24.11,1.13-36.17.12-44.65.05-89.29.05-133.94a38.54,38.54,0,0,1,.09-4.93c.57-4.6,4.14-7.77,8.57-7.5,4.66.28,7.33,2.88,7.88,7.55a22.66,22.66,0,0,1,.12,2.74c-.07,52.87-.51,105.76-.09,158.63.27,33.17-12.5,58.85-38.55,79.5-36.6,29-78,42.7-124.18,43.32-3.82.06-7.79-.15-11.42.82-8.68,2.32-14.69,11.63-13.63,20.13,1.26,10.06,8.93,17.77,19.25,17.56,22.1-.45,44.25-.93,66.27-2.75,34.67-2.87,69.31-5.22,104.08-2.76,21.87,1.55,43.71,3.69,65.58,5.26a133.25,133.25,0,0,0,19.16-.25c11.86-.85,19.2-7.8,22.21-18.84,6.63-24.27,7.12-48.31-4.35-71.56-7.1-14.4-15.09-28.58-15.54-45.18-.34-12.62-.38-25.27.16-37.87,1.19-28.32,3.55-56.53,11.88-83.85,2.07-6.79,4.52-13.48,7.07-20.1,1-2.71,1-4.52-1.25-6.67-4.79-4.51-9.24-9.38-14-14.29-1.47,1.13-2.51,2.08-3.69,2.81a8.08,8.08,0,0,1-12.57-6.24c-1.31-12.45,11.18-25.46,23.53-23.94,2.6.32,6.31,2.7,7,4.9.94,3.09-.49,6.89-1.09,11.83L441,365.5c6.74-16.45,13.6-32.43,19.85-48.65,13.06-33.92,18.63-69.31,19.95-105.48.08-2,.09-4,.36-6,.74-5.46,4.33-9,8.78-8.72,4.79.26,8.3,4.36,8.05,10-.32,7.49-1,15-1.46,22.44-2.83,48.52-17.65,93.71-38,137.37-.6,1.3-1.13,2.62-2.15,5,13.36-1.26,25.92-1.54,32.6,12,10.18-5.84,11-5.72,18.92,2.17q20,20,40,40c3.18,3.18,4.3,6.81,1.81,10.88-2.36,3.85-6.07,4.79-10,3.33-2.1-.77-3.87-2.68-5.54-4.33-11.92-11.85-23.79-23.77-35.3-35.3l-35.14,34.84L493,464.39c2.2-2.51,4.52-5.58,7.26-8.22,4-3.85,8.71-3.78,12.13-.21,3.2,3.33,3.12,7.88-.3,11.82-1.32,1.51-2.82,2.86-4.23,4.3-1.26,1.3-2.5,2.62-3.59,3.76L514.47,486a102.46,102.46,0,0,1,6.93-8.38c4-3.94,8.7-4,12.17-.58s3.25,8.2-.4,12.25a44.4,44.4,0,0,1-3.89,3.87c-1.38,1.19-2.93,2.2-4.39,3.28l9.85,9.13.83,2.43c2.3-3,4.34-6.32,7-9,3.88-3.94,8.78-4,12.19-.77,3.73,3.57,3.66,8.27-.52,12.55-2.54,2.6-5.44,4.83-7.92,7l23.6,23.41L605.15,506c-2.76-2.62-6.11-5.67-9.33-8.86q-14.6-14.52-29.1-29.12c-5.74-5.74-6.6-10.67-2.55-14.58s8.58-3,14.14,2.53q21.36,21.33,42.7,42.7c6.21,6.22,6.44,9.11,1.78,15.4l36.34,36.26c1.48-1.6,3.82-4.31,6.34-6.84,6.38-6.41,10.52-6.14,16.14.9Zm-71.5-23.1L591.48,546.4,626,580.9l18.67-18.56ZM477.5,395.09c-3.21-5.26-8.35-9.4-14.55-6.57A25,25,0,0,0,451.4,400c-2.8,6.19,1.59,11.2,6.74,14.42Z"/><path class="cls-1" d="M319.31,118.39c3.76,3.17,4.74,7.2,4.73,12q-.19,84.45-.09,168.9a40.55,40.55,0,0,1-.17,4.93c-.54,4.41-3.17,6.94-7.53,7.27-4.72.35-7.56-2.28-8.74-6.64a19.55,19.55,0,0,1-.21-4.91q0-85-.09-170c0-5,1.12-8.94,5.51-11.6Z"/><path class="cls-1" d="M493.87,118.39c3.67,3.21,4.81,7.2,4.69,12.08-.3,11.33-.05,22.67-.11,34,0,6.84-3.15,10.54-8.49,10.38-5-.16-8.09-4-8.11-10.32,0-11.7.17-23.41-.1-35.11-.11-4.9,1.43-8.49,5.53-11Z"/><path class="cls-1" d="M430.71,303.78c1.41,1.69,2.23,2.66,3,3.64,4,4.92,4.06,9.74.19,13.06s-8.63,2.95-12.44-1.82c-6.25-7.83-11.95-16.1-17.81-24.22-1-1.44-1.77-3.1-3.56-6.29-2.75,8.08-5.46,14.73-7.28,21.61-3.58,13.64-6.5,27.67-16.87,38-6.13,6.13-13.31,11.33-20.45,16.33-4.72,3.3-9.91,1.78-12.3-2.53S342.13,352.66,347,350c16.34-8.8,24.94-22.62,28.57-40.56,4.95-24.46,17.67-45.13,34.22-63.34,9.84-10.83,12.89-23.85,14.93-37.47,1-6.68-6-7.94-8.55-12.6-5.72,3.94-10.92,7.61-16.21,11.16s-10.13,3-13-1.28-1.68-8.77,3.59-12.53a13.89,13.89,0,0,0,4.73-4.79c-3.76,0-7.55.29-11.28-.08-4.75-.46-7.18-3.81-7.15-8.24,0-4.2,2.53-7.8,6.91-7.88,8.55-.16,17.32-.49,25.6,1.18,6.3,1.26,12,5.51,18.33,8.61.43-9,.86-18.56,1.36-28.13.3-5.69,4-9.53,8.87-8.83,4.45.64,7.61,3.2,7.55,8-.35,26.88-1.59,53.67-9,79.78-3,10.73-9.84,19-16.82,27.27-9.24,10.93-9.1,11.44-2.5,24.29,1.82,3.55,3.77,4.9,7.66,3.22a27.66,27.66,0,0,1,6.93-1.53c5.14-.75,9,1.62,10.15,6.1,1.09,4.2-1.53,8.38-6.37,10.06C434.24,302.86,432.86,303.18,430.71,303.78Z"/></svg>