<?xml version="1.0" encoding="utf-8"?>
<!-- Generator: Adobe Illustrator 28.2.0, SVG Export Plug-In . SVG Version: 6.00 Build 0)  -->
<svg version="1.1" id="Livello_1" xmlns="http://www.w3.org/2000/svg" xmlns:xlink="http://www.w3.org/1999/xlink" x="0px" y="0px"
	 viewBox="0 0 793.4 601.5" style="enable-background:new 0 0 793.4 601.5;" xml:space="preserve">
<style type="text/css">
	.st0{fill:#26475C;}
</style>
<g>
	<g>
		<g>
			<path class="st0" d="M443.7,33.1c9.6,0.8,14.5,8.4,19.9,15c3.8-3.1,7-5.7,10.2-8.2c3.9-3.1,7.5-3.1,10.8,0.9
				c19.2,23.2,38.5,46.3,57.5,69.7c6.9,8.5,7.4,18.3,2.2,27.7c-2.3,4.2-1.5,6.3,1.2,9.6c26,31.4,51.8,62.9,77.7,94.4
				c42,51.1,84,102.2,126,153.3c9.6,11.7,8.9,23.5-1.8,34.1c-0.6,0.5-1.2,1-1.9,1.5c13.4,16.3,26.3,31.9,39.1,47.7
				c8.4,10.4,7,22.8-3.1,31.5c-2.8,2.4-5.7,4.7-8.8,7.3c5.5,6.8,10.8,13.1,15.9,19.5c7.1,8.8,6.4,16.2-2.3,23.5
				c-12.6,10.4-25.2,20.8-37.8,31.2c-10.7,8.8-17.2,8.2-26-2.5c-4.9-6-9.9-12-14.9-18.2c-3,2.4-5.2,4.3-7.5,6.1
				c-12,9.8-24.2,8.7-34-3.2c-10.4-12.6-20.7-25.2-31.1-37.9c-2.2-2.7-4.4-5.4-6.6-8c-15.6,10.1-25.9,8.5-37.4-5.5
				c-15-18.2-30-36.5-45-54.7c-52.5-63.9-105-127.7-157.5-191.6c-2.5-3.1-4.3-4.1-8.7-2.7c-10.2,3.4-19.8,0.9-26.8-7.4
				c-19.4-23.1-38.4-46.4-57.5-69.7c-3.2-3.9-2.9-7.5,1-10.8c3.3-2.7,6.6-5.5,10-8.4c-1.4-1.9-2.4-3.3-3.5-4.6
				c-10.3-12.9-9.6-20.3,3.3-30.9c15.6-12.9,31.3-25.8,47-38.6c28.2-23,56.3-46,84.5-69C439.8,33.7,441.8,33.4,443.7,33.1z
				 M395.1,263.7c50.8,61.8,101.3,123.3,152.1,185.1c45.6-37.5,90.9-74.7,136.7-112.4c-50.7-61.7-101.2-123.2-152.1-185.1
				C486,188.9,440.9,226,395.1,263.7z M309.3,192c1.5,2,2.7,3.7,4,5.3c15.5,18.9,31,37.7,46.5,56.6c8,9.7,14.2,10.3,24,2.2
				c47.6-39.1,95.2-78.2,142.8-117.4c9.9-8.1,10.5-14.1,2.5-23.9c-16.7-20.4-33.5-40.7-50.8-61.8C421.7,99.6,365.6,145.7,309.3,192z
				 M638.5,519.2c1.1,1.5,1.9,2.8,2.8,4c11.6,14.1,23.2,28.3,34.9,42.3c5.3,6.3,9.2,6.8,15.5,1.6c26.8-21.9,53.5-43.9,80.2-65.9
				c6.4-5.2,6.8-9.2,1.7-15.5c-12.5-15.4-25.1-30.6-38.1-46.4C702.9,466.1,670.8,492.5,638.5,519.2z M604.2,517.9
				c4.4,5.1,9.5,4.8,15.6-0.2c21.7-17.8,43.4-35.7,65.2-53.6c17.3-14.2,34.7-28.4,52-42.7c7.6-6.3,8-10.7,1.7-18.4
				c-7.5-9.1-15-18.2-22.9-27.8c-45.7,37.5-91,74.8-136.7,112.3C587.7,498,595.7,508.1,604.2,517.9z M570.7,477.4
				c45.6-37.5,90.9-74.7,136.6-112.3c-5.2-6.4-10.1-12.4-15.2-18.7c-45.6,37.5-90.9,74.7-136.7,112.4
				C560.7,465.2,565.5,471.1,570.7,477.4z M453,56.9c-0.1-0.7,0-1.1-0.2-1.4c-9.7-12.2-7.9-10.9-18.6-2.2
				c-39.1,32.1-78.2,64.2-117.2,96.3c-10.2,8.4-10.2,9.2,0.3,18.7C362.6,131.1,407.9,93.9,453,56.9z M780.8,547.9
				c-6.2-7.5-12.1-14.7-18.3-22.3c-15.1,12.4-29.8,24.5-44.9,36.9c6.2,7.5,12,14.8,18.3,22.4C751.3,572.3,765.8,560.4,780.8,547.9z"
				/>
			<path class="st0" d="M735.7,598.7c-0.4,0-0.8,0-1.1-0.1c-4.2-0.4-8.2-3.1-12.9-8.9l-14.3-17.4l-6.7,5.5
				c-12.4,10.1-25.3,8.9-35.4-3.4c-7-8.4-14-17-20.8-25.3c-3.4-4.2-6.8-8.4-10.3-12.5c-1.5-1.8-3-3.7-4.5-5.5l-1.5-1.8
				c-15.6,9.8-26.3,8-37.9-6.2c-15-18.2-30-36.5-45-54.7L517,434.1c-42.4-51.6-86.2-104.9-129.3-157.4c-2.4-2.9-3.8-3.6-7.6-2.4
				c-10.8,3.6-20.7,0.9-27.9-7.7c-14-16.7-28-33.8-41.6-50.3c-5.3-6.5-10.6-12.9-15.9-19.4c-3.6-4.3-3.2-8.6,1.1-12.2
				c2.3-1.9,4.5-3.8,6.9-5.7l2.4-2c-0.3-0.3-0.5-0.7-0.7-1c-0.8-1-1.5-2-2.2-2.8c-10.8-13.4-9.9-21.3,3.5-32.3l9.5-7.9
				c12.3-10.1,24.9-20.5,37.4-30.8c19.9-16.3,39.8-32.5,59.7-48.8l25-20.4l6.2-1l0.1,0c8.9,0.7,13.9,7,18.8,13.1
				c0.4,0.5,0.8,1,1.2,1.5l2.7-2.2c2.4-1.9,4.5-3.7,6.7-5.4c4.5-3.6,8.7-3.2,12.2,1c5.6,6.7,11.1,13.4,16.7,20.2
				c13.4,16.2,27.3,32.9,40.8,49.6c7,8.6,7.8,18.8,2.3,28.8c-2,3.6-1.5,5.4,1.1,8.5c20.9,25.2,42.1,51,62.5,75.9l39.7,48.3
				c33.8,41.1,67.6,82.3,101.4,123.4c9.9,12.1,9.3,24.4-1.9,35.5c-0.4,0.4-0.8,0.7-1.2,1c3.8,4.6,7.6,9.2,11.3,13.8
				c9.4,11.4,18.2,22.1,27.1,33.1c8.7,10.8,7.4,23.7-3.2,32.9c-1.9,1.6-3.8,3.2-5.9,4.9c-0.7,0.6-1.4,1.2-2.2,1.8
				c1.5,1.9,3,3.7,4.5,5.5c3.7,4.5,7.3,8.9,10.8,13.3c7.4,9.2,6.6,17.3-2.4,24.9c-8.3,6.9-16.8,13.8-25,20.6
				c-4.3,3.5-8.6,7.1-12.9,10.6C743.8,596.7,739.6,598.7,735.7,598.7z M707.7,569.5l15.6,19c4.3,5.3,7.9,7.8,11.5,8.1
				c3.7,0.4,7.7-1.4,13-5.8c4.3-3.5,8.6-7.1,12.9-10.6c8.2-6.7,16.7-13.7,24.9-20.6c8.3-6.9,8.9-13.7,2.1-22.1
				c-3.6-4.4-7.1-8.8-10.8-13.3c-1.7-2.1-3.4-4.1-5.1-6.2l-0.6-0.8l0.8-0.6c1-0.8,2-1.6,2.9-2.4c2-1.7,3.9-3.2,5.8-4.9
				c9.8-8.4,10.9-20.2,3-30.1c-8.9-11-17.7-21.8-27.1-33.1c-4-4.8-7.9-9.7-12-14.6l-0.7-0.8l0.8-0.6c0.2-0.2,0.4-0.3,0.7-0.5
				c0.4-0.3,0.8-0.6,1.1-0.9c10.3-10.3,11-21.6,1.8-32.8c-33.8-41.2-67.6-82.3-101.4-123.4l-39.7-48.3
				c-20.5-24.9-41.6-50.6-62.5-75.9c-2.9-3.5-3.9-6.1-1.3-10.7c5.1-9.2,4.3-18.7-2.1-26.6c-13.5-16.6-27.4-33.3-40.8-49.5
				c-5.6-6.7-11.1-13.4-16.7-20.2c-2.8-3.4-5.8-3.6-9.4-0.7c-2.2,1.7-4.4,3.5-6.7,5.4l-4.3,3.4l-0.6-0.8c-0.6-0.8-1.2-1.5-1.9-2.3
				c-4.7-6-9.2-11.6-17.2-12.3l-5.4,0.9l-24.6,20.1c-19.9,16.2-39.8,32.5-59.7,48.8c-12.5,10.2-25.2,20.7-37.4,30.8l-9.5,7.9
				c-12.5,10.3-13.3,16.9-3.2,29.5c0.7,0.9,1.4,1.8,2.2,2.9c0.4,0.5,0.8,1.1,1.3,1.7l0.6,0.8l-3.9,3.2c-2.3,1.9-4.6,3.8-6.9,5.7
				c-3.5,2.9-3.8,5.9-0.9,9.4c5.3,6.4,10.6,12.9,15.9,19.4c13.6,16.6,27.6,33.7,41.6,50.3c6.6,7.9,15.7,10.4,25.7,7.1
				c4.9-1.6,7-0.3,9.8,3c43.1,52.5,86.9,105.8,129.3,157.4l28.2,34.3c15,18.2,30,36.5,45,54.7c11.2,13.6,21,15.1,36.1,5.3l0.7-0.5
				l2.6,3.2c1.5,1.8,3,3.6,4.5,5.5c3.4,4.2,6.9,8.4,10.3,12.5c6.8,8.3,13.9,16.9,20.8,25.3c9.5,11.4,21.1,12.5,32.6,3.1L707.7,569.5
				z M735.8,586.3l-19.6-24l46.4-38.1l19.6,23.9L735.8,586.3z M719.1,562.6l17,20.9l43.3-35.7l-17-20.8L719.1,562.6z M684.2,571.6
				c-3,0-5.7-1.8-8.8-5.5c-10.6-12.8-21.4-25.9-31.8-38.6l-3.1-3.7c-0.7-0.8-1.3-1.7-1.9-2.6c-0.3-0.5-0.6-0.9-1-1.4l-0.5-0.8
				l2.9-2.4l95.5-78.6l11.6,14.2c9.3,11.3,18.1,22,27.1,33c5.5,6.7,5,11.3-1.8,16.9c-29,23.9-55.3,45.5-80.2,65.9
				C689.2,570.4,686.6,571.6,684.2,571.6z M639.8,519.4c0.2,0.2,0.3,0.5,0.5,0.7c0.6,0.9,1.2,1.7,1.8,2.5l3.1,3.7
				c10.4,12.7,21.2,25.8,31.8,38.6c4.9,5.9,8.2,6.3,14.1,1.5c24.9-20.4,51.1-42,80.2-65.9c6-4.9,6.3-8.2,1.5-14.1
				c-9-11-17.7-21.7-27.1-33l-10.4-12.6L639.8,519.4z M611.2,522.6c-2.8,0-5.4-1.3-7.7-4l0,0c-6-6.9-11.6-13.8-17.6-21.2
				c-2.5-3-5-6.1-7.5-9.2l-0.6-0.8l138.2-113.6l7.7,9.3c5.4,6.5,10.6,12.9,15.8,19.2c6.7,8.2,6.2,13.2-1.9,19.9
				c-10.1,8.4-20.3,16.7-30.5,25c-7.2,5.9-14.3,11.8-21.5,17.7c-8,6.6-16,13.1-23.9,19.7c-13.7,11.3-27.5,22.6-41.2,33.9
				C617.1,521.2,614,522.6,611.2,522.6z M580.5,487.7c2.3,2.8,4.6,5.6,6.9,8.4c6,7.3,11.6,14.3,17.6,21.2l0,0
				c3.9,4.5,8.4,4.5,14.2-0.3c13.8-11.3,27.5-22.6,41.2-33.9c8-6.6,16-13.1,23.9-19.7c7.2-5.9,14.3-11.8,21.5-17.7
				c10.2-8.3,20.3-16.7,30.5-25c7.2-5.9,7.6-9.8,1.6-17c-5.2-6.4-10.4-12.7-15.8-19.2l-6.4-7.8L580.5,487.7z M570.5,478.8L554,458.6
				L692.2,345l16.5,20.2l-0.8,0.6L570.5,478.8z M556.8,458.9l14,17.1l135.1-111.1l-14-17.1L556.8,458.9z M547,450.2L393.7,263.5
				l138.2-113.6l153.4,186.7L547,450.2z M396.5,263.8l150.8,183.5l135.2-111.1L531.6,152.7L396.5,263.8z M372,262.8
				c-0.3,0-0.7,0-1,0c-4-0.4-7.7-2.9-12-8.1c-15.5-18.9-31-37.7-46.5-56.6c-0.9-1.1-1.8-2.3-2.7-3.5c-0.4-0.6-0.9-1.2-1.4-1.9
				l-0.6-0.8L478.3,51.7l16.1,19.5c11.9,14.5,23.7,28.8,35.4,43c8.4,10.2,7.7,16.8-2.6,25.3c-41.6,34.2-83.1,68.3-124.7,102.5
				l-18.1,14.9C379.5,260.9,375.7,262.8,372,262.8z M310.6,192.2c0.3,0.4,0.6,0.8,0.8,1.1c0.9,1.2,1.7,2.3,2.6,3.4
				c15.5,18.9,31,37.7,46.5,56.6c4,4.8,7.2,7.1,10.6,7.4c3.4,0.3,7.1-1.3,12-5.3l18.1-14.9c41.6-34.2,83.1-68.3,124.7-102.5
				c9.5-7.8,10.1-13.1,2.3-22.5c-11.7-14.3-23.5-28.5-35.4-43l-14.8-18L310.6,192.2z M317.4,169.6l-0.6-0.6
				c-5.4-4.8-8.4-7.6-8.3-10.6c0.1-2.9,2.9-5.4,8-9.6l39.6-32.5c25.9-21.3,51.8-42.5,77.7-63.8c1.3-1.1,2.4-2,3.3-2.8
				c3.3-2.8,5.1-4.4,7.2-4.2c2.3,0.2,4.2,2.6,8.2,7.7l1.2,1.6c0.3,0.4,0.3,0.9,0.3,1.3c0,0.2,0,0.4,0,0.6l0.1,0.5L317.4,169.6z
				 M443.8,47.5c-1.2,0-2.9,1.4-5.5,3.7c-1,0.8-2.1,1.8-3.4,2.8c-25.9,21.2-51.8,42.5-77.7,63.8l-39.6,32.5
				c-4.5,3.7-7.2,6.1-7.3,8.1c0,1.9,2.2,4.2,7,8.5L452,56.4c0-0.1,0-0.1,0-0.2c0-0.1,0-0.2,0-0.2l-1.1-1.4c-3.5-4.4-5.4-6.9-6.9-7
				C443.9,47.5,443.9,47.5,443.8,47.5z M452,55.9L452,55.9L452,55.9z"/>
		</g>
	</g>
	<g>
		<path class="st0" d="M536.9,481.8c-2.8,7.2-5.9,14.3-9.3,21.3c-11.9,24.9-26.4,48.2-42.9,70.2c-5,6.7-12.4,7.1-16.1,0.8
			c-2.4-4.2-0.9-7.7,1.5-11.4c12.5-19.5,25.9-38.5,36.8-58.9c4.7-8.7,8.8-17.5,12.5-26.5c0,0,2.3-6.8,10.8-5.3
			C538.8,473.6,536.9,481.8,536.9,481.8z"/>
		<path class="st0" d="M111.5,3.8c4.7,2.8,6.1,6.8,6,12.2c-0.6,35.5-9.8,69.1-22.5,101.8C79.1,158.7,61.8,199.1,45.9,240
			C32.4,274.5,22.5,310.1,19,347.2c-4.6,47.8,3.1,93.5,22.2,137.4C52.8,511.3,67.8,536,85,559.4c1,1.4,2,2.7,2.9,4.1
			c3.4,5.1,2.9,10.3-1.4,13.4c-4.3,3.1-9.4,2.1-13.1-2.9c-32.5-43.5-57.4-90.5-68-144.2c-9.6-48.3-5.8-96,6.6-143.2
			c11.1-42.2,28.3-82.2,45.1-122.3c13.6-32.6,27.9-64.9,35.5-99.6c3.5-16,4.8-32.5,6.7-48.8c0.6-5.2,1.7-9.5,6.6-12
			C107.7,3.8,109.6,3.8,111.5,3.8z"/>
		<path class="st0" d="M278.4,346.6c-1.6-2.1,15.4-18.8,17-20.2c9-7.8,17.2-12.4,28.2-17.2c5-2.2,9.9-3.6,15.5-4.8
			c10.7-2.4,21.8-5.3,32.7-3.4c8.4,1.4,4.9,13.1,0.9,13.3c-23.6,1.3-46.7,6.5-62.7,22.9c-15.5,15.9-22.5,34.4-22.3,56.6
			c0.5,56.7,0.2,113.4,0.2,170c0,1.3,0,2.6,0,3.9c-0.1,6.9-3.6,11.1-9.2,10.9c-5.4-0.2-8.7-4.2-8.7-10.9c0-33.5,0-67,0-100.4
			c0-25.4-0.3-50.9,0.1-76.3c0.3-23-9.9-47.1-30.6-58.6c-13.9-7.7-28.7-14-43.2-20.4c-36.5-16-73.5-30.8-110-47
			c-10.1-4.5-20.2-9.1-30-14.2c-5.4-2.8-11.9-5.7-16.1-10.2c-1.7-1.9-4.2-4.2-4.2-6.3c0-3.2,1-7.5,3.2-9.2c2.2-1.7,6.5-1,9.8-0.6
			c1.5,0.2,2.8,2.3,4.1,3.6c5.9,6.4,16.1,10,23.7,13.6c14.9,7.1,30.1,13.5,45.3,19.9c34.3,14.4,68.9,28,102.7,43.3
			c10,4.5,20.7,8.1,29.7,14.5C263.9,326.3,271.2,337.3,278.4,346.6z"/>
		<path class="st0" d="M269.8,58.7c0-1.9-0.1-3.7,0-5.6c0.3-5.1,3.7-8.5,8.3-8.8c4.6-0.3,8.7,2.9,9.3,7.8c0.5,4.2,0.4,8.6,0.1,12.8
			c-0.4,5.2-4.5,8.7-9.3,8.5c-4.9-0.2-8.2-3.8-8.5-9.2C269.7,62.4,269.8,60.5,269.8,58.7z"/>
	</g>
	<g>
		<path class="st0" d="M268,154.7c-0.1,0-0.2,0-0.3,0c-31.1-1.1-62.4-4.6-92.8-10.4c-6.4-1.2-13-2.3-19.5-3.4
			c-21.2-3.6-43.1-7.2-63.5-15.6c-4.1-1.7-6-6.4-4.4-10.4c1.7-4.1,6.4-6,10.4-4.4c18.8,7.7,39.8,11.2,60.1,14.6
			c6.5,1.1,13.2,2.2,19.8,3.5c29.6,5.7,60,9.1,90.4,10.1c4.4,0.2,7.9,3.9,7.7,8.3C275.8,151.3,272.3,154.7,268,154.7z"/>
	</g>
</g>
</svg>
