<svg id="Livello_1" data-name="Livello 1" xmlns="http://www.w3.org/2000/svg" viewBox="0 0 800 800"><defs><style>.cls-1{fill:#26475c;}</style></defs><path class="cls-1" d="M265.86,119.1c8.3,4.87,15.77,10.74,23.56,16.33s15.82,10.94,24,16a453.35,453.35,0,0,0,50.43,26.73c10.76,4.88,21.59,4.38,32.35-.15a139.39,139.39,0,0,1,59.17-10.79c36.54,1.11,68.72,13.83,96.58,37.08,34.93,29.15,55.22,67.28,65.3,111.06,12.19,52.91,5.53,104.2-14.6,154.13-.94,2.35-2,4.67-3,7.21,5.53,3.41,11.18,6.38,16.27,10.1,31.5,23,46.46,54.23,45.19,93.2-.19,5.82-3.61,9.17-8.77,9s-8-3.67-7.77-10.31c.9-27.8-8.15-51.81-28.75-70.55-25.52-23.23-55.66-30.13-88.38-19.45s-53.36,33.78-60,67.7c-9.88,50.09,22.54,96.55,72.78,105.7,36.26,6.6,74.26-11.49,92.69-44.14,4.57-8.1,8.68-10.27,13.84-7.31,4.81,2.77,5.29,7.79.79,15.26-23.17,38.47-57.62,57.37-102,53.32-44.9-4.1-75.27-29.5-91.17-71.84-.63-1.68-1.14-3.4-1.89-5.64-74.31,14.15-144,1.4-210.48-37,.48,4.74.62,8.24,1.21,11.67,4.3,25,10.8,49.36,20.56,72.84,6.8,16.37-2.82,30.54-20.47,30.56-14.6,0-29.2,0-43.8,0-8.68,0-15.11-3.77-19.1-11.37-19.1-36.36-33.11-74.5-38.9-115.29-2.76-19.43-3.12-39,4.12-57.76,8.29-21.53,23.7-35.25,47-37,10.25-.77,20.79,2.72,31.23,4,11,1.38,22.06,3.76,33,3.38,16.08-.56,28.29-9.82,38.16-22,16.58-20.45,25.56-44.41,30.71-69.81,10.32-50.92-.92-96.54-36.86-134.47-12.55-13.25-28.24-23.53-42.58-35.08-7.39-5.94-15-11.6-22.41-17.53-11.38-9.11-12.57-21.21-3.13-32.41,5.87-7,11.73-13.92,17.77-20.72,5.83-6.56,16.4-19.66,26.61-15.11C265.31,118.8,265.59,119,265.86,119.1ZM551.65,467.18c4.16.21,8.73.22,13.24.71a93.93,93.93,0,0,1,14,2.37c3.76,1,5.41.07,6.92-3.54,17.29-41.32,24.89-84,18.57-128.69-5.72-40.47-20.69-76.84-48.56-107.28-37.86-41.32-98.85-60-154.14-37.08-15.64,6.49-31.2,6-46.6-1.2-31.67-14.73-61.76-32.06-89-54-4.19-3.38-6.93-3.32-10.4.93-7,8.62-14.5,16.88-21.75,25.33-3.77,4.39-3.61,6.08,1.07,9.75q14.21,11.16,28.51,22.18c15.58,12,31.88,23.23,44.44,38.72,31.51,38.85,43.3,83.12,35.75,132.43-4.67,30.46-14.74,59-33.62,83.75-16.85,22.1-38.75,34.07-67.17,30.92-11.18-1.24-22.26-3.6-33.29-5.93-25.66-5.43-43.5,5.36-50.31,30.74-3.72,13.82-3.47,27.86-1.58,41.81,5.27,38.84,18.56,75.11,36.53,109.74a9.8,9.8,0,0,0,7.09,4.36c13.67.42,27.37.24,41.05.18,6.59,0,7.95-2.35,5.73-8.51-4.27-11.79-9.21-23.44-12.24-35.55-4.28-17.07-8.23-34.39-10.14-51.83-1.64-14.91,13.64-23.73,26.54-16.16,36.54,21.45,75.77,34.38,118,38.19a256.61,256.61,0,0,0,75.62-3.87c1.16-.24,3-1.44,3-2.22.22-9.41.14-18.83.14-28.46-1.52.45-3.41,1-5.29,1.56-25.7,7.81-51.66,11-78,3.82-18.43-5-34-14.17-42.81-32-16.22-33,5.92-69.09,33-81.82,4.52-2.13,9.34.25,10.91,5,1.7,5.16-1,8.31-5.19,10.64a53.26,53.26,0,0,0-24.05,26.71c-8.11,19.28-1.73,38.54,16.58,48.75a71,71,0,0,0,18.71,7.28c28.32,6.37,55.32.57,81.58-10.18,1.42-.58,2.64-2.38,3.36-3.9,14.16-30.06,36.95-50,68.88-59.58a10.72,10.72,0,0,0,5.76-4.87,107.71,107.71,0,0,0,12.38-47.68c.3-13.08-1.57-25.79-8.78-37.21-10.73-17-28.67-24.65-45.79-19.18-15.27,4.88-24,15.75-26,31.33-3.1,23.75-16.65,38.58-38.24,46.85-9,3.45-18.27,6.1-27.44,9a12,12,0,0,1-3.79.37c-4.27,0-7.46-2.5-7.54-6.39a11.34,11.34,0,0,1,2.65-7.31c1.69-2.05,4.37-2.88,6.83-3.59,2.93-.83,5.75-2,8.61-3,6.78-2.44,13.59-4.84,20.2-7.72,1.19-.51,2.37-1,3.55-1.59,10.17-4.76,15.8-13.46,17.72-24.74a91.77,91.77,0,0,1,5-18.93c15.3-37.84,66.46-44,93.1-11.33,17.15,21,19,45.54,14.84,71C557.94,446.67,554.38,456.86,551.65,467.18Z"/><path class="cls-1" d="M524.57,604.07c-6.4,0-12.19.06-18,0-10.14-.13-16-5.89-16.1-15.95q-.17-14.49,0-29c.11-9.8,5.73-15.45,15.64-15.87,2.92-.13,5.84,0,8.75,0h9.68c0-5.62,0-11,0-16.39.07-12.27,5.47-17.67,17.7-17.69,9.11,0,18.23-.09,27.34,0,9.78.12,15.6,5.91,15.81,15.68.13,5.82,0,11.64,0,18.38,5.47,0,10.67,0,15.86,0,13,0,18.17,5.22,18.18,18.25,0,8.94.07,17.87,0,26.81-.09,9.76-5.88,15.59-15.66,15.77-5.82.11-11.65,0-18.37,0,0,5.62,0,11,0,16.38,0,12.28-5.41,17.66-17.64,17.68-8.93,0-17.86,0-26.8,0-10.51-.05-16.19-5.6-16.42-16.15C524.47,616.19,524.57,610.41,524.57,604.07Zm78-43.87c-5.88,0-11.47,0-17.06,0-11.26-.1-16.76-5.52-17-16.77-.1-5.59,0-11.18,0-16.91h-27c0,5.87.05,11.31,0,16.76-.12,11.2-5.7,16.8-16.85,16.92-5.59.06-11.19,0-16.88,0v26.92c5.36,0,10.25,0,15.15,0,13.41,0,18.56,5.18,18.59,18.47,0,5.18,0,10.36,0,15.52h27V611c0-20.7,3.12-23.86,23.58-23.86h10.46Z"/></svg>