<svg id="Livello_1" data-name="Livello 1" xmlns="http://www.w3.org/2000/svg" viewBox="0 0 800 800"><defs><style>.cls-1{fill:#26475c;}</style></defs><path class="cls-1" d="M380.67,99.63a57.89,57.89,0,0,1,28.86,15.27A52.16,52.16,0,0,1,424,141.43a55.23,55.23,0,0,1,1.13,11.47c0,8.53.06,17.3-1.81,25.54-3.47,15.22-13.23,26.22-27.15,33.95a18.37,18.37,0,0,0,1.49,1.7c18,15.81,23.33,35.67,18.83,58.71-1.42,7.26-2.84,14.52-4,21.83a10.71,10.71,0,0,0,.8,6.14,162.74,162.74,0,0,0,10.3,18.33,15,15,0,0,0,7.86,5.26c15.71,4.46,31.39,9.27,47.38,12.48,20.27,4.08,35.13,22.73,29.57,45.25a4.84,4.84,0,0,0,.16,1.45c4.66.6,9.49.83,14.13,1.9,20.71,4.77,35.95,23.65,36,44.9q.14,129.15.1,258.29c0,5.08-1.58,9-6.62,10.38-4.17,1.18-8-.26-9.86-4.27-1-2.15-1.14-4.87-1.15-7.34q-.09-62.37,0-124.75,0-63.56,0-127.1c0-22.08-11.83-33.91-34.05-33.76-10.75.07-21.37,0-31.74-3.57-6.75-2.3-10.21-6.28-8.88-11.55,1.4-5.52,6.48-7.69,13.71-5.81,2.81.73,5.61,1.54,8.35,2.3,7.79-12.19.46-25.42-11.52-28.33-16.44-4-32.7-8.73-49.14-12.72-9.78-2.37-16.77-7.65-21.39-16.56-3.92-7.58-8.27-14.93-12.81-23.05l-26.06,16.28c6.68,10.37,12.34,21.14,20,30.24,4.45,5.3,11.68,9,18.36,11.52,9.58,3.68,19.81,5.64,29.74,8.4,6.92,1.93,9.78,6.17,8.14,11.81-1.45,5-6.38,7.1-13,5.35-9.4-2.48-18.76-5.1-28.92-7.87-.5,7.86-2.43,15.08.82,22.86,12.52,30,24.23,60.33,36.88,90.27,10.74,25.42,11,52,10.23,78.75a8.6,8.6,0,0,1-9,8.2,8.92,8.92,0,0,1-8.49-8.82c-.22-7.41-.16-14.84-.06-22.25a127.52,127.52,0,0,0-9.66-50.15q-17.49-43-35-86c-1.16-2.86-2.2-4.82-6.09-4.8-30.46.21-60.91.12-91.37.13-1,0-1.91.18-3.23.3a64.57,64.57,0,0,0,15.61,31c23.16,26.17,46.16,52.47,69.4,78.56,9.17,10.29,13.39,22.1,13.32,35.78-.14,26.54,0,53.08,0,80.09h47c0-6.39,0-13,0-19.51,0-6.86,3.17-10.81,8.6-11,5.79-.16,9,3.69,9.05,11,0,10,.06,19.92-.11,29.87-.11,5.92,2.07,10.1,7.73,12.4,10.1,4.1,16.8,11.84,21.66,21.26,5.7,11-1.5,23-13.93,23q-37.2.16-74.38,0a23.46,23.46,0,0,1-23.18-20.62,69.19,69.19,0,0,1-.46-8.76q0-49.2,0-98.39v-6.16l-1.15-.2c-1.74,3.59-3.52,7.16-5.22,10.78-9.9,21.16-19.64,42.41-29.75,63.48-2.82,5.88-2.57,10.51,2,15.34,7.84,8.23,10.49,18.61,10.35,29.61-.14,10.62-11,18-20.7,13.78-23.71-10.41-47.32-21.07-70.58-32.43-11.81-5.76-15.16-19.56-9.21-32.43q21.11-45.59,42.37-91.09c3.78-8.12,7.44-16.3,11.3-24.38a29.79,29.79,0,0,0,1.69-22.7q-8.64-27.25-17.18-54.55a8.69,8.69,0,0,0-.78-2.18c-12.56-19.53-13.63-41-10.73-63.15,3.81-29.15,7-58.41,11.74-87.42,2.42-14.89,6.67-29.63,11.61-43.91,7.15-20.67,19.69-33.47,39.55-43-8.33-9.76-12.58-21-14.27-33.7-.73-5.49-5.39-10.37-6.71-15.9-5.11-21.54,11.63-44.39,33.62-47.19,5.14-.65,10.09-2.31,15-3.78A43,43,0,0,1,380.67,99.63ZM397.74,274c5.82-24.93-1.46-43.08-20.65-52.15-5-2.37-10.67-3.66-16.16-4.76-15.06-3-28.08.5-38.55,12.43a74.09,74.09,0,0,0-15.53,27.82c-11.25,37.32-14.92,75.9-18.76,114.45-.55,5.51-.86,11.05-1.28,16.62h95.91c.45-4.67.69-9,1.31-13.19.48-3.25-.61-5.22-3.12-7.4-3.93-3.43-7.87-7.19-10.62-11.56-14.43-22.91-28.54-46-42.65-69.13A30.37,30.37,0,0,1,323.9,264c3.17-14.08,12-23,26.08-26.08,14.26-3.07,27.19,2.87,35.11,15.35C389.23,259.81,393.17,266.48,397.74,274ZM312.53,475.92l-1.25.46c.87,2.93,1.56,5.92,2.63,8.78,5.75,15.31,4.35,29.91-3,44.54-8.71,17.38-16.6,35.18-24.82,52.81-3.27,7-6.47,14-9.82,21.28l42.85,19.57c13.81-30,27.35-59.29,40.68-88.68a6.33,6.33,0,0,0-.71-5.57C343.7,511.28,328.09,493.62,312.53,475.92ZM340,179.13c5.52,13.33,20.78,22.35,34.71,21.1,15.19-1.36,29.21-12.55,31.46-27a93.57,93.57,0,0,0,.06-28.4c-2.54-16.2-20.23-29.07-35.35-27-.1,1.47-.31,3-.31,4.53,0,11.9.11,23.8-.06,35.7-.18,13.33-8,21-21.2,21.09C346.37,179.15,343.45,179.13,340,179.13ZM460.55,681.72c.56-.05,1.16-.23,1.26-.88.12-.81-.5-1.22-1-1.66s-.91-.74-1.36-1.11c-.9-.76-1.79-1.53-2.69-2.28a30.77,30.77,0,0,0-5.66-4l-.79-.38c-8.16-3.67-13.84-9.12-16.87-17.54-.47-1.3-2.15-3.06-3.3-3.07-14.78-.21-29.56-.14-44.86-.14,0,8.2.06,15.78,0,23.35-.06,5.17,2.69,7.62,7.52,7.64l16.3,0h48.87c.84,0,1.68,0,2.52,0Zm-136.21-2.29a1.41,1.41,0,0,0,1.48-.41c.58-.84-.93-2.71-1.28-3.49-.51-1.11-1-2.24-1.53-3.35a25.54,25.54,0,0,0-3.67-6c-5.86-6.72-8.87-14-7.95-22.91.15-1.41-.6-3.82-1.63-4.31-13.47-6.41-27.05-12.55-41-18.93-3.34,7.18-6.51,13.82-9.51,20.53-2.59,5.81-1.63,8.23,4.35,11,8.43,4,16.93,7.8,25.39,11.69l23,10.55,6.66,3L322,678.4A13.3,13.3,0,0,0,324.34,679.43Zm60.35-392.51C379.23,278,374.4,269.59,369,261.54a14.94,14.94,0,0,0-19.71-4.66c-6.78,3.67-10.52,12-7.1,18.9,4.73,9.49,10.57,18.43,16,27.78ZM352.24,161V121.76c-9.67-.26-16.6,3.68-21,11.69-3.78,7-4.26,14.23.65,20.89S344.05,162,352.24,161Z"/></svg>