<svg id="Livello_1" data-name="Livello 1" xmlns="http://www.w3.org/2000/svg" viewBox="0 0 800 800"><defs><style>.cls-1{fill:#26475c;}</style></defs><path class="cls-1" d="M412.58,119.3c7,.65,14,2.47,20.77,4.19,19.13,4.9,36.72,12.83,51.44,26.44,1.14,1,4,1.32,5.58.67a276.41,276.41,0,0,1,68.7-19c13.91-2,27.6-1.86,41,2.7,6.06,2.06,8.66,6,7.22,10.92-1.36,4.7-6.17,6.83-12.11,4.92-14.21-4.57-28.43-3-42.72-.53a243.68,243.68,0,0,0-54.13,15.87l5.34,8.7c10.08-3.22,19.91-7.06,30.08-9.42,12.91-3,26-5.83,39.19-6.89,26.18-2.11,52.44,18.84,58.11,45.07,5.59,25.83-9.37,52.34-35,62.06-.85.32-1.68.72-2.71,1.18V276.9c20.74-5.38,35.28-17.48,43.7-36.69,11.36-25.89,6.28-52-14-72.93-3.11-3.2-5.18-6.94-2.64-10.63a11.08,11.08,0,0,1,8.16-4.31c3.83-.17,6.23,3.16,8.63,5.7A88.31,88.31,0,0,1,652,178.83c7.4,14.79,9.29,31.47,6.36,47.68a99.09,99.09,0,0,1-2.43,10.18c-9.34,31.86-31.12,50.9-63.71,57.64a15.43,15.43,0,0,0-7.74,4c-11.4,12.08-27.8,15.9-42.47,9.47-14.89-6.52-23.57-21.52-22-38,1.46-15.22,13.14-28.24,29.07-31.65,12.64-2.71,23.92.6,33.15,9.68,2.5,2.46,4.54,2.7,7.65,1.7,24.72-8,33.82-40.54,16.56-60C596,177.84,583,172.8,567.25,175A225.62,225.62,0,0,0,513,189.09c-.63.26-1.19.68-.69.39,1.19,11.91,3.42,23.09,3.2,34.22-.76,38.17-16,70.59-41.63,98.35-9.51,10.29-12.72,22.13-8.5,35.3A39.58,39.58,0,0,0,474.43,372c20.94,21.9,22.79,48,4.6,72.15-3.95,5.24-8,10.41-11.75,15.8-10,14.31-8.52,31.58,2.54,43.41,11.76-4.2,22.7-9.39,34.21-12,47.53-10.7,96.43,22.84,104.62,71.07,4.27,25.14-.84,48.16-15.83,68.86-4.26,5.88-11,6.33-14.51,1.08-2.65-4-1.42-7.57,1.14-11.08,9.91-13.59,14.29-28.81,14-45.62-.65-34.89-29.89-66.22-64.77-69-37.95-3.08-69.53,19.57-78.27,56.16-9.95,41.58,20.87,84,63.47,87.74a73.6,73.6,0,0,0,41.22-8c3.53-1.83,7.36-2.6,10.09.4,1.81,2,3.2,5.68,2.66,8.14s-3.29,5.25-5.76,6.49c-27.43,13.77-55,13.63-82.42-.06-1.28-.64-2.53-1.34-3.88-2.06-.34.43-.69.66-.74.95-3.34,17.94-10,23.5-28.12,23.5h-98c-14,0-22.86-7.33-24.64-21.12-2.53-19.51-4.63-39.07-6.85-58.62-1.93-17-3.9-34-5.62-51.07-1.24-12.27,2.12-23.45,9.09-33.56,3.63-5.25,7.43-10.39,11-15.7,8.65-13,8.45-27.65-.61-40.39-4.54-6.39-9.49-12.49-14-18.91-14.93-21.26-12.67-48,5.48-66.49,16.7-17,16.94-35.5,1.08-53.19-27.56-30.73-42.44-66.3-40.35-108.12a79.25,79.25,0,0,1,1.67-11.32c.73-3.72,1.79-7.36,3.09-12.6-14.92-3.95-29.52-8.16-44.31-11.61-10.1-2.35-20.59-4.48-30.79-1-15.07,5.09-26.28,14.66-29,31.09-2.43,14.54,2.43,27,13.95,36.47a41.3,41.3,0,0,0,6.47,4c5.11,2.78,9.13,3.1,14.29-1.64,14.42-13.23,37.39-11.29,50.66,3.29a36.79,36.79,0,0,1-1.81,51.32c-14.24,13.65-37,13.77-50.82-.21a24.2,24.2,0,0,0-12.88-7c-38.79-8.53-64.82-41.13-64.78-80.52.05-37.6,29-72.48,66.52-80.68,18-3.94,35.71-1.44,53,2.87,16.71,4.15,32.91,10.28,49.41,15.32,1.83.56,4.82.48,6.06-.65C327.25,138,343.07,129.87,359.92,125c4.58-1.33,9.21-2.44,13.88-3.36a115.52,115.52,0,0,1,16.75-2.5A157.22,157.22,0,0,1,412.58,119.3Zm45.11,396.46c-1.17-1.72-2.07-3.08-3-4.42-14.6-21.09-14.28-43.24.94-63.86,3.79-5.13,7.7-10.18,11.47-15.33,11.34-15.51,10-33.35-3.5-47.09-22.16-22.55-22.61-51.89-1.2-75.21,20.18-22,32.53-47.52,36-77.37,4.14-35.37-13.4-68.57-45.48-84.11-35.73-17.3-71.87-17.58-107.3.26-29.92,15.07-45.92,40.16-45.7,73.84S313.56,285,336.3,309.69c21.51,23.3,21.16,52.7-.9,75.22C321.62,399,320.32,416.6,332,432.42,336.27,438.29,340.78,444,345,450c9.25,12.92,12.46,27.51,7.9,42.52-2.73,9-7.93,17.59-13.55,25.25C330.83,529.37,327,541.17,329,555.92c4.52,32.64,7.7,65.47,11.5,98.22.93,7.93,2.55,9.25,10.44,9.25h95.79c9.57,0,10.57-1.29,12-10.74,1-6.56-.58-11.13-5.12-16.36-18.11-20.87-24.58-45.42-20.27-72.75C436.21,545.14,444.72,529.54,457.69,515.76ZM205.42,266.13c-.95-.39-1.93-.84-2.95-1.22-24.66-9.38-38.14-32.22-35.12-59.52,2.45-22.2,24.44-43.58,47.85-46.95,14.07-2,27.61,1,41,4.12,13,3.05,25.78,7.38,39.09,11.28l5.11-8.13c-18.64-9.19-55.12-17.72-75.3-18.6-35.79-1.55-80.49,33.74-66.47,84.23,6.6,23.77,22.36,38.92,46.77,45.62Zm57,8.47c.43-10.68-8.79-20.39-19.71-20.78s-20.41,8.79-20.73,19.71a20.57,20.57,0,0,0,19.66,20.77C252.4,294.72,262,285.59,262.46,274.6Zm294,19.71a20.65,20.65,0,0,0,20.41-20.06c.16-10.79-9.13-20.26-20-20.43-10.76-.17-20.28,9.19-20.42,20.07S545.64,294.23,556.46,294.31Z"/><path class="cls-1" d="M547.37,551.91c5.45,0,10.17-.09,14.88,0,9.43.23,14.53,5.38,14.59,14.66q.07,11.77,0,23.54c0,9.63-5.13,14.78-14.85,15-4.68.09-9.37,0-14.62,0,0,5.7.09,10.77,0,15.83-.17,7.57-4.28,12.68-11.84,13.12a241.22,241.22,0,0,1-29,0c-7.54-.45-11.65-5.66-11.79-13.18-.09-4.74-.07-9.48-.13-14.23,0-.32-.27-.63-.68-1.52-4.43,0-9.12.07-13.81,0-9.71-.2-14.85-5.36-14.91-15q-.08-11.77,0-23.54c.08-9.25,5.25-14.44,14.63-14.67,4.72-.12,9.44,0,14.89,0,0-5.4-.05-10.44,0-15.49.1-7.83,4.25-13,12.05-13.52a245.14,245.14,0,0,1,28.43,0c7.85.45,12,5.54,12.12,13.45C547.45,541.23,547.37,546.13,547.37,551.91ZM530.89,617.3c0-4.75,0-9.26,0-13.77,0-10.1,4.9-15.14,15-15.38,4.67-.12,9.35,0,14.23,0V568.89c-5.12,0-10,.15-14.86,0-9.42-.35-14.28-5.47-14.34-14.9,0-4.69,0-9.37,0-14.07H511.16c0,4.77,0,9.12,0,13.48,0,10.42-4.88,15.34-15.35,15.52-4.49.07-9,0-13.71,0v19.23c5,0,9.66-.11,14.35,0,9.82.27,14.66,5.27,14.71,15,0,4.67,0,9.35,0,14.11Z"/><path class="cls-1" d="M397.43,184.44A54.67,54.67,0,0,0,368.6,193c-16,10-22.18,28.57-15.69,49.1a82.72,82.72,0,0,0,10.53,21.42c13.32,19.52,20.73,40.89,21.42,64.41.82,27.72,1.09,55.46,1.51,83.19.08,5.7-2.95,9-7.87,9.14-5.17.14-8.37-3.25-8.59-9.1,0-.55,0-1.1,0-1.64q-1-41.6-2-83.18a91.74,91.74,0,0,0-16.06-49.72c-8.12-12.05-14.85-24.54-17.09-39.16-4.62-30.15,10.12-55,38.85-65.23,19.47-6.93,38.64-6,57.45,2.26,28.82,12.69,41.22,43.16,30.08,75.19a103.3,103.3,0,0,1-11.81,23.26c-11.59,17.29-18.07,35.9-18.46,56.79-.81,43.79-1.92,87.56-2.9,131.35-.68,30.28-1.23,60.56-2.11,90.84-.32,10.85-6.14,18.54-16,22.83s-19,2.74-27.17-3.87c-5.95-4.78-9.44-11.09-9.62-18.87q-1.22-53.07-2.27-106.16c-.11-5.63,3.11-9,8-9.12,5.22-.11,8.49,3.51,8.62,9.75q1.13,51.16,2.19,102.34c.19,9,7.6,14.54,14.31,10.13a13.33,13.33,0,0,0,5.31-9.23c1.09-31.55,1.71-63.11,2.35-94.67.86-42,1.47-83.93,2.46-125.88.55-23.51,7.28-45.18,20.95-64.5a72.47,72.47,0,0,0,13.3-33.07,39.92,39.92,0,0,0-21.09-40.46C418.49,186.69,408.93,184.39,397.43,184.44Z"/><path class="cls-1" d="M399.59,623.8a12.3,12.3,0,0,1-4-.84l-6.73-2.29c-4.25-1.46-8.49-3-12.62-4.75-4.43-1.91-5.73-7.27-3.74-11.2a8.11,8.11,0,0,1,11.23-3.44c10.68,6.05,21,5.88,31.64-.11a8,8,0,0,1,10.82,3.33c2.14,3.87,1,9.35-3.36,11.27s-8.59,3.56-13,5.12c-2,.73-4.09,1.38-6.13,2.08A12.07,12.07,0,0,1,399.59,623.8Z"/></svg>