<svg id="Livello_1" data-name="Livello 1" xmlns="http://www.w3.org/2000/svg" viewBox="0 0 800 800"><defs><style>.cls-1{fill:#26475c;}</style></defs><path class="cls-1" d="M680.59,624.93c0,.08-.06.17-.1.26-1.62,4.31-7.81,5.37-11.77,5.37q-268.08-.16-536.16-.1c-.36,0-.73,0-1.09,0-5.27.38-9.5-1.21-11.15-6.65-1.44-4.72,1-8.32,7.19-11.43-6.05-8.77-7.84-18.57-7.48-29.07s.07-20.82.08-31.22c0-17.05,9.53-28.45,26-32.24,38.63-8.89,77.93-15.22,115.41-28.57,23.44-8.36,46.61-17.62,69.49-27.42,15.93-6.83,29.1-18,40.68-30.9,13.8-15.41,30.6-25.93,51-29.65a94.18,94.18,0,0,1,49.51,4.45c1.79.65,4.48,1.07,5.87.19,27.72-17.49,54-36.71,75.22-62.13,13.11-15.73,19.14-35,26.5-53.61.46-1.17-.22-3.26-1.07-4.41a79.51,79.51,0,0,1-15.2-40.1c-3.38-.52-6.81-.71-10.06-1.59-17.6-4.77-27-21.77-21.72-39.11,1.76-5.74,3.79-11.4,5.78-17.06,4.36-12.35,13.23-19.62,26-21.35,12.1-1.65,22.21,2.69,29.78,12.48.55.71,1.09,1.44,1.45,1.92,6.65-1.71,13-4,19.55-4.9A59.33,59.33,0,0,1,656,187.84c12.48,8.69,19.71,21.39,23.92,35.71,1.42,4.83.95,9.86.95,14.83v38.76c0,5.39,1,11.09-.88,16.29A44.86,44.86,0,0,1,672.8,306c-6.29,7.82-15.27,12.36-25.11,13.84.7,2,1.22,3.69,1.9,5.34,5.45,13.1,11.41,26,16.3,39.33,8.58,23.38,4.07,44.21-14.26,61.39a261.77,261.77,0,0,1-22,17.95c-2.81,2.11-4,4.08-4,7.58.17,16.07.08,32.14.07,48.2,0,9-3.22,13.64-9.22,13.45-5.82-.18-8.81-4.69-8.81-13.32V371.07c0-12.75-2-15.43-14.14-18.82-4.44-1.24-6.74-4.2-6.75-8.76,0-4.73,2.77-7.48,7.17-8.31a17.82,17.82,0,0,1,7,.24c15.12,3.48,24.57,16.09,24.71,33.09.14,16.61,0,33.23.05,49.84,0,1.85.19,3.71.34,6.46,3.32-2.69,5.79-4.53,8.08-6.57,19.44-17.37,22.44-30.29,12.63-54.41q-8.73-21.49-17.63-42.91a5.06,5.06,0,0,0-2.37-2.59C616,314,605.1,309.78,594.06,305.47c-.41,1-1.12,3.08-2,5-5.87,12.3-10.78,25.21-17.93,36.73-12.17,19.61-29.55,34.66-47.68,48.62-13,10-26.52,19.2-40.13,29,2.71,5.89,5.59,11.95,8.31,18.09,2.59,5.86,1.07,10.9-3.77,13.1s-9.71,0-12.39-5.69c-3.29-6.9-6.72-13.76-9.53-20.86a10.67,10.67,0,0,0-8.21-7.05c-28-6.46-53.47-2-73.08,20-21.16,23.75-47.3,39.24-76.52,50-23,8.51-46.44,15.91-69.64,23.94-1.55.54-3.79,2.19-3.84,3.4-.35,8-.18,16-.18,24.12a34.87,34.87,0,0,0,5.37,0c19.92-3.34,39.85-6.66,59.75-10.18a1076.38,1076.38,0,0,0,142.27-35.77c37.91-12.19,75.66-24.9,113.51-37.27,4.07-1.33,5.52-3.37,5.42-7.84-.34-15-.13-29.94-.1-44.91,0-4.62,2.28-7.65,6.79-8.64s8.07.63,9.83,4.88a18.36,18.36,0,0,1,.91,6.93q.08,92.57,0,185.13c0,11.42,4.9,16.47,16.17,16.51,14.75,0,29.52.1,44.27.06a75.06,75.06,0,0,0,8.87-.58c-3.49-9-9.19-15.12-17.94-17.73-4.49-1.34-9.27-1.81-14-2.4-5-.63-9.63-2.08-10.54-7.73a42.48,42.48,0,0,1,0-12c.56-4.3,3.72-6.72,7.94-7s7.85,1.56,8.77,5.82c.78,3.61,3,4.07,5.78,4.52,15.28,2.42,26.5,10.67,33.85,24.12,2.05,3.75,2.72,8.09,4.93,11.77a.26.26,0,0,0,.13.14.29.29,0,0,0,.16,0c3.21-.52,7.88.54,10,3.16a8.2,8.2,0,0,1,1.4,5.22A15.31,15.31,0,0,1,680.59,624.93ZM565.2,612.44c-.52-5.12-1.41-10-1.43-14.79-.15-37.61-.14-75.22-.18-112.83V478c-1.59.5-2.42.75-3.25,1-25,8.38-50,16.87-75,25.15A1466.49,1466.49,0,0,1,241,562.53c-18.53,2.76-36.87,6.72-55.31,10.08-3.27.6-5.28,1.65-5.85,5.62-1.22,8.45-3.3,16.78-4.95,25.17-.57,2.92-.93,5.88-1.42,9Zm25.58-338.85c1.41-3.37,2.53-6,3.66-8.71,2.65-6.25,7.2-8.67,12.35-6.6s6.54,6.93,4,13.45c-2.15,5.55-4.38,11.07-6.62,16.73,11.61,9,24.33,13.53,38.68,13.55,12.16,0,20.4-7.87,20.49-20,.12-15.68,0-31.36,0-47,0-1.46-.31-2.91-.54-5-2.45,2-4.11,3.37-5.83,4.69-10.88,8.37-23.3,12.51-36.9,13.27-6.21.34-10.47-3-10.94-8.26s3.21-8.92,9.61-9.71c1.62-.2,3.28-.1,4.91-.32,13-1.79,23.6-7.54,31.28-18.25-12.2-16.21-36.23-21.06-52.84-10.91a8.39,8.39,0,0,0-3.14,4.05c-1.68,4.6-2.93,9.35-4.47,14-2.58,7.79-5.18,15.54-11.75,21.21-1.08.93-1.5,3.25-1.39,4.88A57.93,57.93,0,0,0,590.78,273.59Zm-371,248.22c-24.41,5.4-48,10.52-71.54,15.86-6.61,1.51-10.47,6.54-10.57,13.54-.17,12.57-.29,25.16,0,37.73A23,23,0,0,0,155.14,611c3-14.78,6-29.54,8.81-44.33,1-5.44,3.68-8.63,9.44-9.68,14.29-2.63,28.52-5.61,42.73-8.69,1.41-.31,3.45-2.22,3.51-3.46C220,537.43,219.79,530,219.79,521.81Zm361.59-319.2c.1-9.72-3.65-14.41-10.24-16s-13,.88-15.58,6.85a167.64,167.64,0,0,0-7,19.46c-1.87,6.38,1.4,12.6,7.32,15.37s13.71,1.55,16.56-3.93C576.51,216.55,579.21,208.05,581.38,202.61Z"/><path class="cls-1" d="M625.55,539.12a9.17,9.17,0,0,1-9,9,9.45,9.45,0,0,1-8.83-8.73,9.27,9.27,0,0,1,8.79-9.28A9,9,0,0,1,625.55,539.12Z"/></svg>