<svg id="Livello_1" data-name="Livello 1" xmlns="http://www.w3.org/2000/svg" viewBox="0 0 800 800"><defs><style>.cls-1{fill:#26475c;}</style></defs><path class="cls-1" d="M611.34,118.39c2.71.93,5.43,1.81,8.11,2.79,20.44,7.42,33,25.46,33.07,48.81.19,51.41.38,102.82,0,154.22-.36,44.12-29.38,77.33-73,84.66-3.38.57-6.85.54-10.59.82v43.13c1.71.3,3.46.52,5.18.91,17.91,4.1,29,19.3,27.3,37.56-1.56,17.34-16,30.61-34,31-11.51.25-23,0-35.15,0,8.49,21,4.37,37.81-15.15,49.63,12.08,20.24,6.63,41.6-13.15,53,5.91,9.11,8.14,18.93,5.42,29.65-3.75,14.82-16.44,25.65-31.66,25.72-50.5.22-101,.38-151.48-.1-13.95-.13-26.56-6.11-38-14.12a55.31,55.31,0,0,1-6.58-4.93c-13.55-12.87-30-14.69-47.9-12.62-.26,1.38-.54,2.95-.84,4.52-1.14,6-4.68,9.87-10.62,9.94q-32.37.34-64.75,0c-6-.06-9.73-3.92-10.72-9.81a39.75,39.75,0,0,1-.4-6.55q0-37.32,0-74.64c0-.92,0-1.83,0-2.75.2-6.57,3.55-10.67,8.61-10.54s8.31,4.2,8.32,10.85q0,35.13,0,70.26v6.29h52.61V454.63H163.26v5.89c0,21.78,0,43.55,0,65.32a22.5,22.5,0,0,1-1,6.3c-1.45,4.6-5.36,5.24-8,5.08a8.42,8.42,0,0,1-7.32-6,18.88,18.88,0,0,1-.63-5.33q0-36.51,0-73c0-11.25,4-15.24,15.14-15.26,17.93,0,35.86,0,53.79,0,13.81,0,15.59,1.4,18.61,14.87,22.56,1.81,44.5-.54,64.17-12.76,13.42-8.34,19-22.27,22.34-37,1.54-6.74,2.36-13.66,3.36-20.51,3.08-21.11,25.08-30.74,42.18-18,19.18,14.35,28.6,34.38,30,57.9.58,9.86-1.2,19.86-1.93,30.23H505.9v-42c-7.69-1.45-15.32-2.28-22.59-4.36a83.6,83.6,0,0,1-60.76-80.69q-.09-77.67,0-155.33c0-25.84,14.54-44.3,39.79-50.69a9.69,9.69,0,0,0,1.9-1ZM379.73,566.82c-1.59-1.88-3.07-3.49-4.4-5.22-14.44-18.83-6.21-46.72,16.21-53.79,5.44-1.72,11.5-2,17.28-2,50.85-.14,101.7-.07,152.55-.11a50.83,50.83,0,0,0,8.18-.58c9.22-1.51,15.08-8.21,15.27-17.25.19-8.81-5.71-15.95-14.73-17.88-3.13-.68-5.21-.07-7.33,2.87-12.66,17.5-37.16,17.82-50.06.59-2.32-3.1-4.59-3.86-8.12-3.85q-60.91.15-121.83.05c-10,0-13.06-5.24-9.54-14.62,2.66-7.1,5.32-14.56,5.89-22,1.66-21.6-5-40.41-22.11-54.53-7.71-6.36-15.55-2.87-16.87,7.05-.69,5.24-1.25,10.52-2.27,15.71-4.25,21.59-12.22,41.28-31.94,53.34-15.65,9.57-33.16,14.07-51.48,15-6.88.36-13.8.06-20.9.06V630.55a6.19,6.19,0,0,0,1.33.55,19,19,0,0,0,3.28.1c21.86-2.17,40.27,5.11,57.06,19,6.52,5.39,15,10.24,23.2,11.38,17.73,2.49,35.81,2.43,54.78,3.47-7.77-17.68-6.28-32.48,6.43-45.35C362.15,601.17,367,578.88,379.73,566.82Zm188.8-174.15c1.6.08,2.67.22,3.73.18,33.86-1.47,63.09-31.26,63.27-65.25.29-52.88.14-105.75.08-158.63,0-19.74-14.06-34-33.79-34.07q-64.22-.22-128.44,0c-19.68.06-34.16,14.19-34.23,33.84-.21,52.51-.37,105,.1,157.54.19,22.34,10.05,40.51,28.18,53.79,11.31,8.28,24.06,12.51,38.76,12.75,0-8.83-.13-17.2,0-25.56.19-9.61,5.62-14.92,15.09-15q16.2-.09,32.39,0c9.56.06,14.77,5.38,14.81,15C568.56,375.71,568.53,384.08,568.53,392.67ZM452.18,522.38c-16.26,0-32.52-.18-48.77.06-14.06.2-22.44,13.06-16.83,25.59,3.74,8.36,11.19,10.43,19.48,10.45q46.31.07,92.62,0a34.86,34.86,0,0,0,8.13-1,16.43,16.43,0,0,0,12.51-14.86c1-11.89-6.22-20-18.36-20.16C484.7,522.24,468.44,522.38,452.18,522.38Zm-6.42,52.7c-13.72,0-27.45-.07-41.17,0-11.61.07-19.18,6.81-19.49,17.09-.34,11,6.45,18.74,18.2,18.9,28.35.39,56.72.31,85.07,0,9.32-.09,15.81-5.51,17.59-13,3-12.55-4.8-22.73-17.94-23C473.94,574.91,459.85,575.1,445.76,575.08ZM439.5,627.8c-11.7,0-23.41-.12-35.12,0s-19,7-19.28,17.34c-.26,10.91,6.69,18.54,18.41,18.71,23.95.36,47.92.29,71.88,0,9.15-.11,15.25-5,17.42-12.45,3.69-12.66-4.37-23.3-18.19-23.59C462.92,627.61,451.21,627.81,439.5,627.8Zm84.17-258.64a21.56,21.56,0,0,0-.41,2.88c0,27.58,0,55.15.06,82.73a16.43,16.43,0,0,0,1.55,6.83c2.88,6,9.5,8.73,16.17,7.15s11-7.25,11-15.08c.08-27.21,0-54.43,0-81.64,0-.87-.18-1.74-.29-2.87Z"/><path class="cls-1" d="M592.34,228.12V178.87H483v49.25H513.9c2,0,4-.07,6,.06,4.7.33,7.9,3.63,7.94,8.08a7.89,7.89,0,0,1-7.73,8.28c-13.9.18-27.8.22-41.7,0-5.85-.1-10.68-4.55-12-10.3a29.65,29.65,0,0,1-.72-6.51q-.09-24.42,0-48.84c0-12.12,5.34-17.41,17.4-17.42q54.59,0,109.19,0c11.5,0,16.83,5.32,16.85,16.66q0,25.51,0,51c0,10.06-5.5,15.45-15.65,15.48q-16.19.06-32.37,0c-5.91,0-9.68-3.16-9.87-8-.2-5,3.72-8.43,9.92-8.47C571.35,228.08,581.57,228.12,592.34,228.12Z"/><path class="cls-1" d="M579.34,335.77c-16.79,0-30.54-13.57-30.42-30.11.12-16.25,14-30,30.2-30a30.33,30.33,0,0,1,30,30.08A29.83,29.83,0,0,1,579.34,335.77Zm-13.4-30.07a13.33,13.33,0,0,0,12.88,13.56c7.1.2,13.71-6.32,13.67-13.51a13.28,13.28,0,0,0-13.35-13A12.79,12.79,0,0,0,565.94,305.7Z"/><path class="cls-1" d="M525.78,306.21c-.1,16.65-13.32,29.61-30.14,29.56a30.12,30.12,0,0,1-29.91-30,30.62,30.62,0,0,1,30.12-30.07C512.4,275.58,525.88,289.35,525.78,306.21Zm-43-.32a13.36,13.36,0,0,0,13.06,13.36,13.75,13.75,0,0,0,13.44-13.7,13.11,13.11,0,0,0-13.5-12.83A12.75,12.75,0,0,0,482.74,305.89Z"/></svg>