<svg id="Livello_1" data-name="Livello 1" xmlns="http://www.w3.org/2000/svg" viewBox="0 0 800 800"><defs><style>.cls-1{fill:#26475c;}</style></defs><path class="cls-1" d="M305.23,443.05c9.26-9.37,18.21-19.07,27.85-28a328.69,328.69,0,0,1,67.37-48.21c4.39-2.37,5.73-5,5-9.72-5.18-36-33.33-67.13-68.77-75.82-1.4-.34-2.79-.73-4.19-1.09-6.94-1.79-10.19-6.42-8.79-12.56,1.26-5.5,7-9,13.18-6.89,11.64,4,23.87,7.43,34.32,13.67,36,21.44,54.2,53.9,55.23,95.74.46,18.55.08,37.12.08,57.16l17.78-15.47c-1.12-10.41-3-19.45-2.81-28.44.23-11.05,6.22-19.9,14.41-27.14Q508.22,310,560.55,263.87c10.81-9.54,13.85-9.34,23.24,1.28.68.77,1.41,1.5,2.49,2.64l36.94-32.59c-2.47-2.87-4.72-5.26-6.72-7.84-3.65-4.68-3.3-10.26.71-13.94s10-3.94,13.92.4q23.22,25.83,45.93,52.11c3.86,4.46,3,10.21-1.29,13.82-4,3.43-9.34,3.35-13.48-.51-2.4-2.24-4.46-4.86-7.2-7.89L618.3,303.76c1.56,1.95,2.77,3.56,4.08,5.09,6.61,7.7,6.4,12.27-1.1,18.91Q593.65,352.23,566,376.61c-16.12,14.23-32.31,28.39-48.35,42.71-18.89,16.86-35.82,18.78-58.08,6-10.37,9.12-21,18.25-31.27,27.75-1.43,1.32-1.63,4.47-1.63,6.78q-.12,101.13-.07,202.27a54.8,54.8,0,0,1-.07,5.59c-.57,5.67-5,9.64-10.32,9.48-5.2-.15-9.05-3.91-9.53-9.48-.19-2.26-.13-4.55-.13-6.82V472.46c-1.92,0-3.81.56-5-.11-3-1.73-6.92-3.44-8.26-6.23-1.21-2.51.42-6.44,1-9.71a3.23,3.23,0,0,1,1.62-1.81c10.55-5.75,11.28-15.24,10.79-25.86-.63-13.74-.15-27.53-.15-43.27-12.57,8.55-24,15.8-34.87,23.83a338.53,338.53,0,0,0-63.74,61.33A19.25,19.25,0,0,0,304,481.69c-.24,53.16-.16,106.31-.16,159.46,0,1.66,0,3.31,0,5-.05,8.48-3.39,12.89-9.81,13S284,654.56,284,646.35q0-14.28,0-28.54v-8c-4.32,7.35-7.49,13.24-11.14,18.81q-8.32,12.69-17.21,25c-4.48,6.21-10.48,7.37-15.39,3.47-4.6-3.66-5-9.75-.69-15.44a262.4,262.4,0,0,0,42.54-82,40.07,40.07,0,0,0,1.81-11.48c.13-39.51.07-79,.09-118.51,0-7.59,3.38-11.77,9.49-12,5.68-.24,10,3.42,10.31,9.19.26,5.14.05,10.3.05,15.46Zm266-161.69c-8.61,7.62-17,15-25.33,22.37q-38.1,33.61-76.2,67.23c-8.5,7.52-11,17.89-6.73,27.38,4.64,10.32,15.11,16.31,26.13,14.64,9.74-1.47,15-9.41,22.22-15.1-3.8-4.57-7.31-8.61-10.62-12.82-4.53-5.77-4.2-11.36.72-15.23,4.59-3.61,10.2-2.73,14.71,2.41,3.48,4,6.84,8,10.41,12.23l8.48-7.64c-8.58-12-9.42-16.3-3.83-20.66,1.81-1.42,5-3.07,6.61-2.37,4.67,2.06,8.84,5.25,13.87,8.41l7.56-6.67c-2.32-2.82-4.39-5.35-6.48-7.87s-4.32-5-6.37-7.59c-4.42-5.6-4.21-11.57.46-15.32s10.36-2.92,15.14,2.63c4.15,4.83,8.22,9.73,12.5,14.8,9.65-8.55,18.88-16.73,28.31-25.07Zm33.49,7.46,37-32.66-5.21-5.81L599.66,283Z"/><path class="cls-1" d="M265.32,260.88c-9.39-2.74-18.31-5.2-27.14-7.95-26.94-8.4-44.18-30.55-44.93-58.73-.54-20.66-.23-41.34-.12-62,0-6.91,4-10.89,10-10.84s9.92,4.22,10,11c.1,19.64,0,39.28.05,58.92,0,21.1,12.25,37.2,32.48,43q14.55,4.14,29.08,8.4c12.34,3.62,14.06,6,11.72,18.54-7.81,42.11-28.62,75.78-65.75,98.13-27.4,16.48-57.73,21.32-89.25,20.18a9.85,9.85,0,0,1-9.77-10c.09-5.66,4.69-9.87,11.26-9.86,19.73,0,39.15-2,57.84-8.7,41.48-14.76,64.58-45.33,74.54-87.11A15.59,15.59,0,0,0,265.32,260.88Z"/></svg>