<svg id="Livello_1" data-name="Livello 1" xmlns="http://www.w3.org/2000/svg" viewBox="0 0 800 800"><defs><style>.cls-1{fill:#26475c;stroke:#fff;stroke-miterlimit:10;stroke-width:2px;}</style></defs><path class="cls-1" d="M118.39,564.13c2.7-2.64,5.1-5.69,8.13-7.86,9.94-7.13,20.1-13.93,30.64-21.18-6.51-11.36-13.07-22.46-19.21-33.79-1.56-2.87-2.84-6.61-2.41-9.7,1-7,7.59-10.3,15.14-8.12,6.3,1.82,12.54,3.86,18.82,5.77S182,493,188.91,495.11c1.5-3.71,3-7.35,4.43-11q5.28-13.22,10.52-26.43c1.94-4.87,5.23-7.8,10.72-7.79s8.74,3,10.66,7.89q6.34,16,12.71,32c.66,1.67,1.38,3.31,2.22,5.3,12.63-3.84,24.93-7.74,37.35-11.22a17.6,17.6,0,0,1,9.54-.22c6.35,2,8.65,9.5,5.13,15.88-5.55,10.07-11.39,20-17.1,30-1,1.74-2,3.49-3.14,5.56,10.93,7.52,21.85,14.81,32.48,22.49a16,16,0,0,1,5.81,7.48c1.95,6.34-1.94,12.12-8.69,13.32-11.5,2-23.07,3.66-34.6,5.49-1.94.3-3.85.78-6.27,1.28.64,9.76,1.27,19.2,1.88,28.65.27,4,.52,8,.78,12,.34,5.11-1.64,9-6.38,11s-8.91,1.11-12.65-2.35q-12.87-11.94-25.79-23.83c-1.21-1.11-2.44-2.19-4-3.59-9.41,8.66-18.87,17.16-28.09,25.92-4.19,4-8.63,6.3-14.27,3.9-5.79-2.47-6.94-7.46-6.49-13.19,1-12.57,1.86-25.15,2.85-38.68-6.9-1.13-13.81-2.29-20.73-3.37-5.77-.9-11.53-1.91-17.34-2.49-5.31-.54-9-3.24-12-7.36Zm96.14-72.93c-3.06,7.72-5.62,14.54-8.46,21.23-2.65,6.25-7.65,8.56-14.17,6.78-4.22-1.15-8.38-2.51-12.58-3.71-2.59-.75-5.22-1.38-9.08-2.38l9.46,16.47c5.51,9.62,4.53,13.9-4.55,20.17-5,3.43-10,6.89-16,11.07,7.88,1.26,14.34,2.35,20.81,3.31,8.44,1.25,12.09,5.91,11.33,14.28-.6,6.63-1,13.29-1.51,21.11,5.76-5.29,10.7-9.81,15.62-14.34,6.53-6,11.51-6,18.18,0,4.94,4.46,9.84,9,15,13.63a6.8,6.8,0,0,0,.55-1.61c-.39-6.2-.81-12.39-1.22-18.58-.62-9.24,2.54-13.13,11.57-14.49,6.44-1,12.86-2.08,20.51-3.34-5.92-4.07-10.83-7.47-15.76-10.85-9.51-6.51-10.44-10.53-4.75-20.48l8.71-15.21c-7.4,1-13.78,3-20.21,4.82-7.47,2.14-12.29-.19-15.28-7.4C220.05,505.27,217.56,498.82,214.53,491.2Z"/><path class="cls-1" d="M118.39,666.24c3.8-5.4,9-6.78,15.49-6.77q265.56.22,531.11.12c1.28,0,2.56,0,3.84,0,5.66-.17,9.47,2.54,11.28,7.77,1.72,5-.5,9.84-5.5,13-.61.38-1.19.8-1.79,1.21H118.39Z"/><path class="cls-1" d="M489.74,593.74c-7.35,7.5-13.79,14.21-20.4,20.76-13.62,13.51-31.6,13.6-45.38.26q-7.68-7.46-15.14-15.14c-13.35-13.71-13.34-31.83.07-45.4,6.56-6.63,13.28-13.09,20.66-20.34-4.36-4.15-8.46-7.93-12.41-11.87Q400,505,383,487.84c-4.12-4.18-4.86-9.62-2.14-14,2.87-4.62,7.34-6.44,12.26-4.83,3.09,1,5.89,3.57,8.3,6q55,54.81,109.85,109.83c6,6,12.81,9.27,21.2,6.68a23.43,23.43,0,0,0,9.25-5.49q28.56-28.11,56.71-56.63c16.41-16.72,16.57-41.61.79-58.88-.74-.81-1.51-1.6-2.29-2.37Q464.38,335.55,331.81,203c-15.22-15.22-35.91-18.26-53-7.81a51.64,51.64,0,0,0-9.37,7.51q-27.3,27-54.38,54.3c-10.17,10.2-10.11,21.34.17,31.64Q270.48,344,325.74,399.35c2.25,2.26,4.5,5.08,5.34,8,1.35,4.79-.52,9.15-5,11.69s-9.28,2.25-13.18-1.39c-5.21-4.87-10.15-10-15.19-15.08L266,370.79c-6.62,6.65-13,13.14-19.48,19.56-14.53,14.4-32.45,14.38-47,0-4.68-4.64-9.36-9.27-14-14-13.71-14-13.73-31.9,0-45.76C192,324,198.65,317.43,206.05,310c-3.27-3-6.42-5.46-9.13-8.36-15.24-16.28-15.91-41.14-.54-57.18,20-20.87,40.37-41.42,61.39-61.25,19.2-18.13,47.65-21.34,71.47-9.44a6.89,6.89,0,0,0,7.44-.17c26.38-14.95,52.86-29.73,79.3-44.58,28.79-16.16,58.78-12.1,82.18,11.28Q578.54,220.65,658.86,301c24.4,24.42,28.41,53.89,11.5,84q-21.76,38.67-43.64,77.3c-1.77,3.11-2.11,5.46-.38,9,11.85,23.86,8.4,51.85-10,71.38-19.7,20.89-40.11,41.15-60.88,61-16.08,15.37-40.93,14.65-57.2-.57C495.45,600.41,493.05,597.38,489.74,593.74Zm-87.49-352c2.16,2.32,3.23,3.54,4.37,4.69,19.12,19.13,38.31,38.2,57.33,57.44a11.65,11.65,0,0,0,9.13,3.67q77.06-.16,154.1-.09c1.74,0,3.48-.15,6.11-.28-1.78-1.92-2.92-3.25-4.16-4.49-19-19-38.06-37.94-56.93-57.06a12.19,12.19,0,0,0-9.59-4q-76.77.18-153.54.08Zm89.8,88.5L609.28,447.56c-.09.07.29-.1.45-.4,14.78-26.22,29.74-52.35,44.21-78.75,5.7-10.41,5.7-21.66,2-33-1.27-3.92-3.11-5.63-7.73-5.61-50.45.21-100.91.13-151.37.14C495.16,330,493.43,330.16,492.05,330.23Zm53.58-110.75c-1.81-2-2.72-3-3.71-4q-29.85-29.88-59.73-59.72c-16.11-16-35.16-18.61-55-7.52Q393.57,167.07,360,186c-2.8,1.57-5.55,3.23-8.7,5.06,8.61,8.59,16.6,16.89,25,24.73a13.65,13.65,0,0,0,8.44,3.52c45.71.21,91.41.15,137.12.15ZM220.86,327.06c-6.85,6.72-14.12,13.62-21.08,20.82-3.2,3.31-3.27,7.56-.13,10.93,5.85,6.27,11.92,12.39,18.27,18.15a7.35,7.35,0,0,0,10.5-.28c7.31-7.06,14.31-14.45,20.86-21.12ZM444.18,550.53c-.57.53-1.52,1.37-2.42,2.27-5.95,5.94-12,11.8-17.79,17.87-3.88,4.06-3.89,8.55,0,12.68q7.9,8.35,16.27,16.28c3.64,3.46,8.05,4.11,11.8.52,7.23-6.92,14.07-14.24,20.74-21Z"/><path class="cls-1" d="M359.15,319.42c2.75,1.55,6,2.58,8.18,4.72Q421.78,378.26,476,432.65c4.87,4.89,5.05,11.77.8,16.18-4.47,4.64-11.33,4.57-16.55-.59-14.43-14.26-28.72-28.66-43.07-43-21.32-21.33-42.72-42.58-63.87-64.07a18.91,18.91,0,0,1-5.17-9.71C347.16,325.17,352.31,320.32,359.15,319.42Z"/><path class="cls-1" d="M490.31,497.25c.4-19.46,16.57-35.22,35.68-34.77,20.22.46,35.3,16.59,34.83,37.25-.43,18.72-16.84,33.95-36.22,33.59S489.91,516.75,490.31,497.25Zm22.17.64a13.23,13.23,0,0,0,13.19,13.22c7.14-.08,13.31-6.36,13.16-13.4A13.16,13.16,0,0,0,525.74,485,12.77,12.77,0,0,0,512.48,497.89Z"/><path class="cls-1" d="M301.94,309.64a35.24,35.24,0,1,1,35.48-35.48A35.15,35.15,0,0,1,301.94,309.64Zm13.09-35a13.14,13.14,0,0,0-12.92-13.48,13.59,13.59,0,0,0-13.32,13.27,13.39,13.39,0,0,0,12.85,13.09A12.89,12.89,0,0,0,315,274.62Z"/><path class="cls-1" d="M355.32,455.49a10.54,10.54,0,0,1-10.86-11.1,10.77,10.77,0,0,1,10.69-10.85,11.2,11.2,0,0,1,11.29,10.95A10.85,10.85,0,0,1,355.32,455.49Z"/></svg>