<svg id="Livello_1" data-name="Livello 1" xmlns="http://www.w3.org/2000/svg" viewBox="0 0 800 800"><defs><style>.cls-1{fill:#26475c;}</style></defs><path class="cls-1" d="M132.24,242.84c1.64-3.69,6.7-5.26,10.93-5.24,26.12.16,52.24-.19,78.35.13,48.52.61,87.18,20.54,115.52,60.08,5.07,7.07,9.92,14.28,14.89,21.42a1.2,1.2,0,0,0,.5.41l41.13-41.3c.56-4,.26-8,1.81-11.1,1.72-3.47,5.63-3.14,9.32-2.29,1.54.35,3.74-.5,5.08-1.54,1-.78,1.89-3.08,1.45-4.09-1.72-3.88-1.32-7.18,1.73-10s6.58-2.72,10.06-.49c.25.17.66.08,2,.2,3-3.21,6.4-6.93,9.9-10.55a22,22,0,0,1,14.32-6.65,13.59,13.59,0,0,0,6.26-2.72c2.22-1.63,4-3.86,6-5.83,8.25-8.24,13-9,23.47-3.28l24-23c13.46-12.92,29.54-19.85,48.16-18.7,26.4,1.62,46,14.66,56.28,39.14,10.33,24.65,6.27,48.08-11.72,67.89-21.06,23.19-43,45.56-64.7,68.2-12.66,13.23-18.21,28.72-16.43,47.06,2.27,23.31,22.79,44.67,46.13,48.07,16.44,2.39,31-1.59,44.15-11.35s26.62-19.6,39.93-29.4c1-.72,1.95-1.45,3-2.13,4.54-3,8.68-2.68,11.58,1s2.21,8.48-2.23,11.79c-14.08,10.51-28.32,20.8-42.42,31.29a77.94,77.94,0,0,1-28.44,13.63c-40.75,9.86-81.92-18.5-87.3-60.14-2.95-22.89,3.69-42.66,19.34-59.33,21.21-22.59,42.82-44.81,64-67.41,19.15-20.42,19-49.54.14-68.44a48.32,48.32,0,0,0-62.1-5,37.12,37.12,0,0,0-6,5c-7.46,8.26-14.78,16.66-22.54,25.46,5.31,8.81,4.7,13.32-4.52,22.36-4.25,4.17-8.82,7.69-8.75,15,0,3.7-3.42,7.82-6.12,11.07-3.18,3.84-7.24,7-10.87,10.34,2.55,4.66,3.4,8.67-.23,12.12-3.43,3.25-7.29,2.38-11.48.06l-4.56,5.89c.11.24,1,1.35.91,2.33-.36,2.92-.28,6.56-2,8.44-1.52,1.67-5.46,2.31-7.87,1.68-2.82-.73-4.35-.45-6.21,1.57-3.18,3.46-6.53,6.77-10,10-3.9,3.66-8.32,3.78-11.63.55s-3.35-7.8.27-11.62c4.18-4.41,8.64-8.56,12.69-12.55l-21-21c-.73.65-1.92,1.6-3,2.67Q372,324,340.61,355.37c-5.13,5.13-5.11,6.07.16,11.37,3.56,3.58,7.21,7.08,10.69,10.73,3.2,3.36,6.09,3.25,9.33,0,9.28-9.43,18.68-18.74,28-28.09a45.13,45.13,0,0,1,3.38-3.26c3.53-2.85,7.93-2.76,10.88.12,3.26,3.18,3.47,7.51.13,11.2a127.22,127.22,0,0,1-10.71,10.7c-3.29,2.87-3.72,5-1,8.93q58.68,84.72,117,169.69c4.82,7,5,11.41.58,14.58s-8.89,1.39-13.8-5.74Q437.73,472,380.16,388.42c-1-1.43-2-2.83-3-4.25-18.88,14.85-23.61,15.47-37.72,4.36l-17.67,18.08c-1.34,1.36-2.64,2.78-4.09,4-3.77,3.22-8,3.17-11.22,0-3-3-3.17-7.77.13-11.25,5.5-5.81,11.25-11.4,16.92-17.05,1.6-1.59,3.3-3.08,4.75-4.43-2.19-3.65-4.68-6.65-5.92-10.1-2.91-8.07-1.09-15.45,4.94-21.58,4.62-4.7,9.44-9.19,14.27-13.87-13.2-18.73-24.29-38.2-42.31-52.15-23.13-17.9-49.25-26.62-78.46-26.48-25.59.13-51.19,0-76.78.08-4.48,0-10.84-1.23-12-6.37A7.09,7.09,0,0,1,132.24,242.84Zm303.87,16.94,20.42,20.39,4.81-4.09L441.2,255.63C439.38,257.1,437.26,258.84,436.11,259.78Zm8.21,33.92L423.59,273l-4.1,4.28,20.75,20.79ZM476,248.88l7.5-5.81-9.21-10-6.93,7Z"/><path class="cls-1" d="M132.55,359c1.76-3.69,6.69-5.17,10.81-5.1,18.44.31,36.95-.49,55.32.76,29.11,2,48.54,20.1,53.14,48.92,6.21,38.84,23.84,71.73,51.48,99.11,12.79,12.68,27.43,23.5,41.17,35.23,1.95,1.66,4.8,3.52,5.06,5.57a12.36,12.36,0,0,1-2.35,8.72c-2.65,3.09-6.64,2.64-9.89,0-12.35-9.89-25.22-19.22-36.84-29.91-29.92-27.55-51.55-60.43-61.21-100.45-1.34-5.56-3-11.16-3.37-16.83-1.45-19.47-17.8-30.61-32.19-33.72a59.09,59.09,0,0,0-11.88-1.17c-16.19-.12-32.38-.16-48.57,0-4.83.06-10.84-1.78-11.3-7.43A7.29,7.29,0,0,1,132.55,359Z"/><path class="cls-1" d="M471.46,610.91a6.82,6.82,0,0,1-1.07,5.93c-2.46,3.65-7.25,4.29-11,2.46-17.47-8.46-35-16.84-52.26-25.73-13.41-6.9-26.44-14.54-39.66-21.82-3.42-1.89-5.62-4.88-4.34-8.5a13.19,13.19,0,0,1,5.84-6.36c1.46-.81,4.4.13,6.27,1.09q45.57,23.38,91,47.13A10.27,10.27,0,0,1,471.46,610.91Z"/></svg>