<svg id="Livello_1" data-name="Livello 1" xmlns="http://www.w3.org/2000/svg" viewBox="0 0 800 800"><defs><style>.cls-1{fill:#26475c;stroke:#fff;stroke-miterlimit:10;stroke-width:3px;}</style></defs><path class="cls-1" d="M307.59,345.15c22.11,6,37.73,20,48,40.58,3.94,7.89,10.69,13.3,18.63,17.22,2.62,1.3,4.11.88,6.61-.91,6.28-4.52,13.23-8.12,19.81-12.25,1.43-.9,3.08-2.26,3.56-3.76,3.92-12.31,7.34-24.78,11.39-37,3.36-10.17,5.55-20.45,4.93-31.17-.11-1.93-1-4.47-2.36-5.55-10.07-7.67-15.54-18-17.13-30.2-2.72-20.66,1.61-39.66,15.65-55.7a40.69,40.69,0,0,1,20.7-12.74,7.1,7.1,0,0,0,4-4c3-8.36,2.87-14.79-6.23-20.89-14.26-9.54-24.44-23.47-32.53-38.7-3.68-6.93-2.09-13.69,3.93-17.08,6.25-3.52,13-1.25,16.87,6a104.91,104.91,0,0,0,24.61,30.59,33.79,33.79,0,0,0,2.86,2c3-7.41,5.54-14.58,8.66-21.51,3.3-7.31,6.93-14.48,10.75-21.54,4.21-7.79,10.69-10,17.13-6.38,6.08,3.45,7.59,10.32,3.6,17.59a247.5,247.5,0,0,0-25.33,69.14c-1.28,6.16-1.46,10.73,4,15.78,9.64,8.89,12.36,21.35,12.56,34.06a67.56,67.56,0,0,1-11.59,39.89c-6.37,9.37-14.83,16-25.14,18.6-1.93,12.78-3.78,25-5.71,37.77,21.38,2.45,42.58,12.91,65.7,5.63a10,10,0,0,0,.33-2.62c-3.6-24.67,20.94-48.77,47.73-50.77,4.87-.37,8.51-1.68,12.08-5a131.79,131.79,0,0,1,14.33-11,47.15,47.15,0,0,0,19.2-27.78c1.7-6.62,5.22-9.76,10.6-10.16,8.73-.66,14.23,4.8,12.78,13.43-3.08,18.3-13.84,31.85-27.76,43.27-2.25,1.84-4.72,3.44-7.25,5.27a90.65,90.65,0,0,0,6.49,8c.89.89,2.91,1.13,4.34,1,17.73-2.1,32.34,3.83,44,17.06,5.35,6.05,5.12,12.84-.2,17.51s-12,4.26-17.21-2.12c-6.71-8.24-15.32-9.89-25.58-8.72-.6,1.82-1.23,3.85-1.92,5.86-6.3,18.45-27.33,33.63-47.48,34.54-10.11.46-19.63-1-28.35-6.53a5.7,5.7,0,0,0-4.46-.45c-19.65,7.84-39.41,5.6-59.26,1-8.86-2-17.81-3.68-27.4-5.65-1,4.92-2,9.13-2.49,13.39a5.2,5.2,0,0,0,1.91,4c15.76,11.57,19.49,27.4,16.5,45.71-3.3,20.23-17.87,37.76-36.26,40.81-7.61,1.26-10.65,4.84-13.24,10.84-1.73,4-4.1,7.73-6.58,12.31,2.88.54,5.42,1.11,8,1.49,16.84,2.5,33.7,4.44,50.74,1.86,9.8-1.48,17.7-6.57,25-12.86,11.62-10,22.67-20.8,34.85-30.1,15.9-12.15,34.6-16.94,54.5-16.94,7.56,0,12.54,4.69,12.65,11.51.12,7.05-4.85,11.72-12.69,12-21.8.71-40.46,8.51-56,24.76a147.87,147.87,0,0,0,35.78,18.07c3.95,1.41,8,2.46,12,3.76,7.41,2.41,11.11,8.53,9.19,15-2.14,7.29-8.46,10.54-16.53,8.18A191.53,191.53,0,0,1,494.94,516l-4.44-3c-5.73,3.76-11.18,7.7-17,11.05-11.92,6.89-25.15,9.11-38.59,8.26-17.1-1.07-34.18-2.93-51.16-5.24-5.47-.74-9.32-.78-12.34,4.38-1.62,2.77-4.14,5-6.22,7.46,23.31,25.86,10.42,63.32-10.83,77.2-8.05,5.26-16.72,7.89-26.51,6.54a9,9,0,0,0-6.26,2,148.68,148.68,0,0,0-35.57,44.15c-1.13,2.09-2.14,4.27-3.46,6.23-3.61,5.35-10,7-15.41,4a11.54,11.54,0,0,1-4.91-15.55,177.31,177.31,0,0,1,36.89-50.76c1.45-1.39,2.93-2.75,3.38-3.17-2.43-8.91-5.87-16.93-6.63-25.2-2.26-24.62,16.14-53.53,43.56-55.33a7.61,7.61,0,0,0,4.57-2.32,183.4,183.4,0,0,0,34.49-53c-11.83-13.2-16.73-28.14-12.42-45.65.27-1.11-1.07-3.42-2.23-4C349,417.1,338.6,405.67,331,391.39c-6.42-12.1-16-20.25-29.54-23.34-2-.45-4.75-.69-6.14.35-16,12-32.79,10.59-49.81,3.26-12.64-5.45-22.43-14.29-28.44-26.94a6.51,6.51,0,0,0-1.75-2.72c-13.06-8.73-25.76-18.45-42.94-16.49a44.91,44.91,0,0,1-6,.22A11.79,11.79,0,0,1,154.6,315.6c-.83-6.1,1.82-11.68,8.05-12.38,8.92-1,18.27-1.29,27,.32,9,1.65,17.48,5.93,26.65,9.23L225.84,302c-2.71-8.23-6.11-16.32-8-24.76-2.2-10-1.45-20.27,4.14-29.15a24.86,24.86,0,0,1,10.53-8.75c4.08-1.8,8.16.71,10.92,4.37,2.93,3.87,3.42,8.26,1.1,12.37-7.8,13.86-2.36,25.71,5.45,37.13.85,1.24,3.43,1.69,5.25,1.82,22.15,1.5,44.34,18.44,50.06,38.54C306.37,337.23,306.81,341.05,307.59,345.15Zm152-84.91a28.47,28.47,0,0,0-2.38-13.54c-1.74-3.74-4.57-8.27-8.7-9.64-3.9-1.29-8,.3-11.08,2.75-12,9.54-17.15,33.13-10.25,46.74,4.59,9,12.89,10.52,20,3.24a43.07,43.07,0,0,0,10.61-18.94A50.19,50.19,0,0,0,459.61,260.24ZM353.34,573.11c.07-11.3-2.77-16.7-8.52-18.93-6-2.33-12.21-.26-17.91,6.07-6.51,7.23-8.93,15.77-7.76,25.34.72,5.92,2.88,11.29,8.91,13.35,6.33,2.17,11.88-.14,16.24-5.05C350.23,587.23,353.09,579.32,353.34,573.11Zm70.37-143.47a48.79,48.79,0,0,0-1.47-7.54c-3.29-10-12.93-12.77-21.3-6.2-8.78,6.88-13.61,22-10.46,32.6s12.4,13.8,21.33,7.32C420.11,449.8,423.4,441.21,423.71,429.64Zm120.63-64.33c12.38.1,25.21-7,29.82-16,4.48-8.69,1-16.29-8.55-18-12.44-2.21-23.05,1.4-31.26,11.23-3.66,4.39-6.13,9.37-3.63,15.05C533.46,363.82,539.42,364.75,544.34,365.31Zm-276.74-12c6.53,0,11.63-.53,14.37-5.45,2.87-5.16.53-10-2.51-14.24-7.22-10-17.46-14.7-29.52-15.22-4.72-.2-9.65.91-12.16,5.82s-.63,9.22,2.17,13.26A35.58,35.58,0,0,0,267.6,353.34Z"/></svg>