<svg id="Livello_1" data-name="Livello 1" xmlns="http://www.w3.org/2000/svg" viewBox="0 0 800 800"><defs><style>.cls-1{fill:#26475c;}</style></defs><path class="cls-1" d="M395.33,671a100.2,100.2,0,0,1-11.92-3,84.84,84.84,0,0,1-13.88-5.26c-28.48-14.5-44.41-44.72-41.31-76.51.36-3.68.23-7.41.54-11.09.49-5.77,4.3-9.49,9-9s7.45,4.69,7.48,10.4c.05,11-1.26,22.47,1.15,33,6.19,27.19,31,45.91,58.53,46.09a61.13,61.13,0,0,0,59.71-45.49c2.78-10.15,4.78-20.53,6.88-30.86,1.38-6.75,4.61-10,9.83-9.26s7.69,5.06,6.09,11.78c-3.49,14.67-5.71,29.93-11.43,43.72a75.42,75.42,0,0,1-14.8,23.15A70.32,70.32,0,0,1,439.62,664a82,82,0,0,1-10.06,3.84,93.57,93.57,0,0,1-13.4,3.28A66.15,66.15,0,0,1,395.33,671Z"/><path class="cls-1" d="M358.24,142.19c21.16-14.22,44.54-7,55.57,14.85,7.89-2,15.86-2.31,23.55,1.29s13,9.55,16.39,17.86c10.61-2.42,20.5-.81,29.07,6.37,6.4,5.36,9.8,12.34,11,20.41,4.09.39,8.21.25,12,1.26,15.65,4.15,24,20.32,19,36.29-3.72,11.94-11.48,20.4-22.87,25.92,1.95,5.74,4.29,11.22,5.63,16.94,1.48,6.3,1.84,12.86,3.13,19.21.5,2.48,1.61,5.4,3.43,7q39.86,34.43,80,68.49c9.44,8,14.25,18.17,14.33,30.53.05,9,.09,18,0,27-.07,6.4-3.38,10.29-8.29,10.14s-7.94-4.1-8-10.51c0-9.17,0-18.35,0-27.53,0-5.94-1.92-11.29-6.37-15.13q-38.08-32.79-76.43-65.29c-.11-.09-.34,0-.89-.1-1.24,6.14-2.69,12.29-3.6,18.51-.22,1.53,1,3.57,2.11,4.93,7.6,9.28,15.09,18.67,23.15,27.55,6.54,7.21,9,14.74,7.11,24.61-3.74,19.16-6.32,38.55-9.69,57.79-1.77,10.14-8.94,15.86-19.22,16.11-3,.08-6,0-9,0-7.66-.11-13.52-3.34-17.49-10-5.15-8.62-10.31-17.23-15.58-25.78-3.07-5-7.7-7.23-13.49-6.31a12.42,12.42,0,0,0-10.54,11.07,17.47,17.47,0,0,0,1.42,8.13c7.35,17.53,14.66,35.08,22.48,52.4,8.63,19.11,23,32.84,42.12,41.19A40.79,40.79,0,0,1,526.42,562c8.13,11.74,16.9,23,25.34,34.55,3.74,5.11,3.35,10.09-.82,13s-8.31,1.78-12.15-3.37c-9.06-12.16-17.93-24.46-27.14-36.51a20.55,20.55,0,0,0-7.58-6.12c-26.66-11.77-45.23-31.1-56.07-58.17-6.08-15.18-12.89-30.07-19.24-45.15-6.57-15.6-1.09-31.53,13.19-38.83,14-7.13,30.14-2.17,38.84,12,4.79,7.81,9.4,15.73,14.15,23.57,1.9,3.14,13.11,5,15.79,2.59a5.09,5.09,0,0,0,1.14-2.81c3.35-20.13,6.69-40.27,9.89-60.43a6.2,6.2,0,0,0-1.3-4.29c-6.34-7.77-12.84-15.41-20.05-24-2,9.93-3.85,18.9-5.69,27.88-.63,3.1-1.15,6.24-2,9.28-1.36,4.87-5,7.18-9.43,6.21-4.59-1-7.23-5.07-6.24-10,3.2-16.22,6.54-32.41,9.74-48.63,2.46-12.42,5.34-24.79,7-37.32,5.34-39.21-22.59-75.58-61.65-81.2-14.62-2.11-29.29-4.23-43.71-7.38-24.11-5.25-39.42-28.2-36-52.75,2-14.54-7.21-26.62-21.73-28.48-12.61-1.62-25,8.43-26.18,22.07A25.31,25.31,0,0,0,307,180.39c9,18.31,10.24,37.28,7.14,57.16a312.31,312.31,0,0,0-2.83,74.89c.72,8.41-1.47,12.54-7.06,13-5.95.52-9.06-3-9.3-11.86-.33-11.56-.08-23.14-.08-34.72l-1.61-.43c-4.46,5.33-9,10.61-13.29,16.07-.72.91-.75,2.68-.54,4,3.16,19.81,6.55,39.59,9.55,59.42.55,3.63,2.23,3.93,5.2,4.23,6.8.71,11.52-1,14.69-7.81,3.39-7.31,8.06-14,12.36-20.91,8.26-13.23,23.89-17.76,37.26-10.94,14.43,7.36,20.58,22.32,14.76,36.91-4.82,12.09-10.07,24-15.28,35.95-2.27,5.2-6.62,7-11.11,5-4.33-1.91-5.81-6.34-3.59-11.66,4.68-11.2,9.56-22.32,14.25-33.52,3.37-8,1.09-14.44-6.27-18.12-6.44-3.22-12.59-1.08-16.94,6-5.05,8.27-10.08,16.55-15,24.92-4.13,7.08-10.15,10.56-18.32,10.21-4.91-.21-9.93,0-14.69-.94-7.07-1.42-11.46-6.42-12.68-13.37-3.74-21.32-7.17-42.69-10.58-64.07a19.49,19.49,0,0,1,4.71-16.22c8.3-9.85,16.7-19.62,24.65-29.74a25.28,25.28,0,0,0,4.31-10.28c1.29-6.35,1.79-12.86,2.84-20.92-2.85,2.29-4.57,3.62-6.23,5-22.62,19.15-45.08,38.49-67.9,57.39-11.41,9.44-17.06,20.79-16.78,35.79.48,26.28.32,52.58,0,78.87A36.54,36.54,0,0,1,205,414.9c-8.8,17.84-18.18,35.39-27.4,53-3,5.72-7.44,7.62-11.91,5.25s-5.38-6.95-2.37-12.77c8.65-16.73,17.53-33.35,25.91-50.22a31.13,31.13,0,0,0,3.15-13.05c.29-25.4.39-50.82.07-76.22-.26-19.72,7.05-35.3,22.3-47.91,26.77-22.14,53-44.92,79.65-67.27,2.92-2.45,3.76-4.63,2.22-8-1.46-3.2-2.66-6.52-4.12-9.72-8.62-18.76-3.66-39.32,12.34-51,15.72-11.5,36.66-9.92,51.89,3.91C357.12,141.26,357.53,141.59,358.24,142.19Zm10.36,32.44c0,1.54,0,3.08-.12,4.65a31.15,31.15,0,0,0,3.88,17.32,31.83,31.83,0,0,0,11.16,11,6.05,6.05,0,0,0,5.44-.08c15.36-11.43,18.31-33.64,6.71-48.85-6.18-8.11-17.93-10.19-25.85-4.27a6.77,6.77,0,0,0-2.11,5c.12,3.1.38,6.21.62,9.3C368.48,170.72,368.58,172.67,368.6,174.63Zm37.83,39.05c4.24.66,7.35,1.2,10.48,1.62,9.58,1.29,14.48-1.16,19.19-9.7a29.32,29.32,0,0,0,2.44-23.46c-2.15-7.08-9.38-11.62-16.39-10.15-1.37.29-3.5,2.29-3.43,3.38C419.64,189.45,416.21,202.14,406.43,213.68Zm62,16.16a29.23,29.23,0,0,0,9.32-23.79c-.62-9.89-9-16.38-18.21-14.11-1.39.34-3.43,1.89-3.53,3-.86,9.38-4.54,17.58-10,25.1Zm13.71,10.94c1.36,1.41,3.31,3.41,5.21,5.46,6.32,6.86,9.08,7.1,15.59.06a30.79,30.79,0,0,0,6.36-10.72c2.42-7.15-1-13.88-7.54-15.63-3.71-1-7.77-1.56-10.13,2.85C488.52,228.64,485.46,234.5,482.15,240.78Z"/><path class="cls-1" d="M348.68,279.36c42.72.42,73.62,40.92,62.35,82.05-.28,1-.59,2-1,3-1.76,4.7-5.56,6.84-9.86,5.59-4.58-1.33-7-5.44-5.5-10.35a49.15,49.15,0,0,0-.58-32.11,48.25,48.25,0,0,0-52.41-31.12,25.07,25.07,0,0,1-4.74.3c-4.3-.16-6.89-2.49-7.52-6.69-.66-4.48,1.37-7.83,5.65-8.87S344.15,279.93,348.68,279.36Z"/><path class="cls-1" d="M342.73,421.83a3.47,3.47,0,0,1,.38,3.61,36.22,36.22,0,0,1-2.65,4.93c-10.71,15.22-24.86,26.14-41.7,34a29.61,29.61,0,0,0-10.32,8.39c-8.91,11.36-17.29,23.14-25.93,34.73-4.06,5.44-8.32,6.61-12.49,3.6s-4.4-7.89-.33-13.42c9.61-13.05,19.14-26.16,29-39a21.33,21.33,0,0,1,8-6.46c16.65-7.24,31.15-17.08,41.53-32.32,2.42-3.55,6.18-4.68,9.74-2.89C339.85,417.89,341.24,419.9,342.73,421.83Z"/><path class="cls-1" d="M592.17,486.67c0-.35,0-.7.05-1.05.19-4,0-8.11,0-12.16.06-6,3.09-9.82,7.86-10,5-.21,8.29,3.57,8.39,10,.12,7.75-.25,15.52.16,23.25a28.24,28.24,0,0,0,2.69,11C620,525,629.12,542.08,638,559.26c2.68,5.19,2,9-1.72,11.72a7.9,7.9,0,0,1-11.77-2.8c-10.22-19.44-20.83-38.73-30-58.68-1.61-3.51-2-7.67-2.24-11.48A97.69,97.69,0,0,1,592.17,486.67Z"/><path class="cls-1" d="M383.52,444c.11-19.83,7.44-36.57,21.67-50.35,3.1-3,7.06-4.42,10.4-1.58,2.14,1.81,3.23,5.46,3.66,8.44.23,1.54-1.79,3.67-3.2,5.15-17.23,18-21,38.92-10.94,61.6,2.42,5.47,1.2,10.09-3.21,12.1s-8.67.17-11.48-5.3A67.3,67.3,0,0,1,383.52,444Z"/><path class="cls-1" d="M349.12,503.92c-.64,13.76-1.09,24.48-1.68,35.2-.31,5.74-4.07,9.54-8.77,9.2-5-.37-8-4.68-7.49-10.75,2-22.69,2.17-45.34-1.07-67.94-.72-5,2.14-9.12,6.6-9.76,5.31-.77,9.13,2.46,9.66,8.64C347.48,481.29,348.37,494.09,349.12,503.92Z"/><path class="cls-1" d="M461.7,391.35c-.85,0-1.71-.06-2.56,0l-6,.33-12.32.65c-4.88.25-8.43-2.37-9.17-6.77-.69-4.08,2.25-8.72,6.9-9.05a198.34,198.34,0,0,1,25.1-.24c5.27.29,8.26,4.46,7.68,8.81a7.11,7.11,0,0,1-3.28,5.3,7.8,7.8,0,0,1-3.25,1A24.2,24.2,0,0,1,461.7,391.35Z"/></svg>