<svg id="Livello_1" data-name="Livello 1" xmlns="http://www.w3.org/2000/svg" viewBox="0 0 800 800"><defs><style>.cls-1{fill:#26475c;}</style></defs><path class="cls-1" d="M252.86,486.52c3.42,5.13,6.32,10.16,9.9,14.66a21.57,21.57,0,0,1,5,14.47c-.12,6.31,0,12.62,0,19.59h30.2c6.93,0,13.85-.11,20.77.07,6.16.16,9.85,3.28,10.45,8.84,3,27.46,17.07,48.26,38.88,64.16,16.67,12.15,35.66,17.9,56.24,17.85,17,0,34.1.36,51-1.1,39.8-3.43,75.7-36.32,82.3-76,2.77-16.65,2.34-33.83,3.4-51.28H542.91c0,6.86.05,13.71,0,20.56-.06,6,.08,12-.49,17.94s-4.71,9.3-9.57,9c-5.13-.38-8.52-4.74-8.43-10.69.18-12,.47-23.94.33-35.91,0-2.48-1.71-4.93-2.65-7.39-1.7-4.42-4.13-8.7-4.94-13.28-.85-4.88-.19-10-.19-15.68-2.27-.14-4.23-.35-6.19-.35-15,0-29.94,0-44.92,0-26-.12-43.72-17.78-43.75-43.84q-.14-109.77,0-219.54c0-26.21,18-43.92,44.23-43.92q86.19,0,172.36,0A40.39,40.39,0,0,1,680,195.76q.15,112,.07,224c0,23.84-17.11,41.54-41.06,42-15.9.32-31.81.07-47.72.09-1.48,0-3,.13-5.36.24,0,4.88-.08,9.65,0,14.42A21.9,21.9,0,0,1,580.3,492a11,11,0,0,0-2.18,6.41c-.53,15.14.16,30.37-1.35,45.4-4.82,48-43.4,90.22-90.94,97.69-20.5,3.22-41.72,2.66-62.6,2.42a114.74,114.74,0,0,1-33.55-5.24c-38.91-12.59-64.08-39.22-76.23-78.22-.44-1.43-.82-2.88-1.27-4.3a11.5,11.5,0,0,0-.89-1.65H287.16c-8.8,0-17.6.11-26.39-.06-8.2-.16-12-4-12.25-12.11-.16-5-.74-10.22.08-15.14,2.18-13-6.34-21-12.85-30.68-8.12,4.71-15.83,9.23-23.57,13.68-12.35,7.09-22.71,4.37-29.82-7.86q-30.3-52.1-60.56-104.2c-7.58-13.06-5-23,8-30.55q30.75-17.94,61.55-35.76c12.84-7.43,22.69-4.81,30.14,8Q251.79,391.86,282,444c7.32,12.61,4.58,22.9-8,30.23C267.13,478.25,260.21,482.25,252.86,486.52ZM662.5,308.13q0-54.45,0-108.9c0-17.38-9.25-26.56-26.78-26.57q-84.47,0-168.93,0c-17.1,0-26.47,9.22-26.48,26.23q-.07,109.46,0,218.91c0,16.79,9.31,26,26.15,26.06q84.75.09,169.5,0c17.42,0,26.53-9.32,26.54-26.84Q662.53,362.58,662.5,308.13ZM204.16,344.22c-2.69,1.34-4.5,2.13-6.2,3.11q-26.64,15.41-53.26,30.88c-12.74,7.44-12.6,5.6-4.88,18.9q27.63,47.59,55.29,95.18c2,3.42,3.85,6.2,8.47,3.49q31-18.16,62.17-36.14c3.51-2,4.32-4.47,2.11-8.08-3.6-5.88-7-11.92-10.42-17.88q-24.37-41.94-48.79-83.83A48.55,48.55,0,0,0,204.16,344.22Zm363.46,118.2H535.39v16.41h32.23Z"/><path class="cls-1" d="M346.3,436.36c-4.83,0-8.75-.14-12.65,0-6.85.3-11.78-2.8-14.15-8.95-5.37-13.92-10.54-27.93-15.28-42.08-4-12.05-1.7-9.61-13-9.1-5.79.27-11.59.6-17.38.59-9.15,0-16.88-6.1-18.14-15.13-1.22-8.68-1.46-17.5-1.9-26.27-1.67-33.44-3.38-66.88-4.79-100.33-.61-14.4,5.79-21.68,20.25-22.61,25-1.61,50-2.83,75.08-3.82,11.09-.44,19.44,7.79,20,19.2C366,261,367.5,294,369.05,327.11c.4,8.59,1,17.19,1.17,25.78.28,12-7.56,20-19.61,20.54-9.52.41-19,.9-30.32,1.44,5.09,14,9.84,27.24,14.91,40.4.44,1.12,3,1.88,4.63,2,4.28.31,8.6.09,12.9.24,9.23.31,12.88,4,12.89,13.2q.06,51.65,0,103.29c0,29.12,19.57,52.71,48.87,55.64,19.24,1.92,38.87,1.21,58.24.1,13.61-.78,25.17-7.85,34.72-17.75.78-.81,1.47-1.69,2.25-2.5,4.54-4.74,9.8-5.33,13.81-1.55,3.81,3.59,3.83,8.79-.29,13.49-13.67,15.57-30.83,25.34-51.44,26.73a394.32,394.32,0,0,1-56.06,0c-32.82-2.51-60.58-27-68.79-58.89a36.25,36.25,0,0,1-.62-8.92q-.06-48.56,0-97.12ZM308,357.9c14.83-.66,26.16-1.06,37.48-1.71,8.27-.47,8.62-1.17,8.17-9.57-1.08-20.49-2-41-3.06-61.47-.88-17.43-1.94-34.86-2.64-52.3-.21-5.26-2.44-6.67-7.43-6.39-23.17,1.29-46.36,2.35-69.55,3.37-4.22.19-5.73,2.18-5.53,6.15q3,57.69,5.93,115.37c.44,8.43.93,8.61,9.42,8C291.06,358.7,301.31,358.26,308,357.9Z"/><path class="cls-1" d="M633.1,202.33H470.21v123.6h162.9c0-2.64-.08-5.36,0-8.08.21-6,4-9.91,9.28-9.76s8.49,3.88,8.58,9.73c.08,4.86.1,9.73,0,14.59-.15,6.69-4.46,11.21-11.09,11.74-1.48.12-3,0-4.48,0H467c-11.46,0-15.53-4-15.54-15.47q0-64.56,0-129.11c0-11.48,4.12-15.59,15.52-15.59q84.48,0,169,0c11.24,0,15.06,3.89,15.06,15.22q0,37,0,74.1c0,7.54-3.3,11.66-9.11,11.49-5.48-.16-8.78-4.38-8.79-11.43q0-32.28,0-64.55Z"/><path class="cls-1" d="M551,355.59c12,0,23.95-.07,35.92,0,15.12.12,26.59,11.52,26.8,26.63q.16,11.79,0,23.58c-.21,14.46-11.41,26.2-25.94,26.38q-36.46.46-73,0c-14-.18-25.06-11.42-25.63-25.52-.34-8.41-.33-16.85,0-25.26.56-14.91,12-25.72,27-25.81C527.77,355.53,539.37,355.59,551,355.59Zm.57,58.71c11.4,0,22.81.11,34.21,0,6.69-.09,9.92-3.46,10-10.11s.09-13.46,0-20.19c-.09-7-3.42-10.45-10.24-10.47q-34.21-.11-68.42,0c-6.43,0-9.7,3.19-9.86,9.58-.16,6.91-.11,13.83,0,20.75.08,7.47,3.05,10.41,10.68,10.47C529.11,414.37,540.32,414.31,551.54,414.3Z"/><path class="cls-1" d="M586.4,232.9c6.55,0,13.09-.11,19.63,0,5.81.12,9.7,3.6,9.92,8.53.22,5.14-3.76,9.35-9.7,9.44q-19.9.3-39.82,0c-5.67-.08-9.58-4-9.66-8.94-.09-5.11,4-8.9,10-9C573.32,232.79,579.86,232.9,586.4,232.9Z"/><path class="cls-1" d="M516.56,232.9c6.36,0,12.71-.12,19.06,0,5.93.14,9.56,3.52,9.69,8.64.13,5.33-3.6,9.23-9.7,9.33-12.9.2-25.8.17-38.69,0-6.06-.08-10-3.92-10-9.1s3.88-8.79,10-8.91C503.48,232.8,510,232.9,516.56,232.9Z"/><path class="cls-1" d="M509.35,277.43c4.48,0,9-.2,13.45.05,5.75.32,9.46,4.09,9.4,9.08a8.94,8.94,0,0,1-9,8.9c-9.14.32-18.31.33-27.45,0a8.86,8.86,0,0,1-8.84-9c0-4.79,3.59-8.51,9-8.87,4.47-.29,9-.06,13.45-.06Z"/><path class="cls-1" d="M551.38,402.84c-5.6,0-11.21.09-16.81,0-5.91-.12-9.49-3.45-9.6-8.67-.11-5.44,3.63-9.15,9.67-9.2q16.82-.15,33.62,0c5.68.06,9.58,3.72,9.72,8.71.14,5.27-3.78,9-9.79,9.16C562.59,402.93,557,402.84,551.38,402.84Z"/></svg>