<svg id="Livello_1" data-name="Livello 1" xmlns="http://www.w3.org/2000/svg" viewBox="0 0 800 800"><defs><style>.cls-1{fill:#26475c;}</style></defs><path class="cls-1" d="M364.19,691.47c-9.53-.66-19.1-2.54-28.46-4.29-27.54-5.15-53.41-15-77.91-28.5-5.82-3.22-7.6-7.81-5-12.52s7.36-5.85,13.25-2.63c25.08,13.72,51.51,23.41,79.83,28,45.81,7.46,90,1.67,131.79-18,73.64-34.61,120.9-91.54,138.38-171.42,10.51-48,4-94.81-15.38-139.86-.6-1.4-2.45-3.17-3.78-3.22-7.95-.31-15.91-.18-23.87-.16-1.67,0-3.34.14-5.79.25,30.87,60.56,32.17,121.62,4.44,182.88-19.77,43.65-51,77.25-93.45,99.73-81.82,43.29-184.82,24.85-248.55-44.14S156.08,404.56,205.43,327c47.81-75.16,148.67-123.07,248.09-86.64L468,215.42a10.51,10.51,0,0,0-1.94-1.34c-92.95-33.6-190.95-12.61-258.7,63.68-32.9,37-53.35,80.28-60.1,129.35-9.46,68.74,9.17,129.68,54.12,182.39,9.18,10.77,19.94,20.2,30.08,30.13,4.87,4.76,5.83,9.91,2.18,13.82s-8.54,3.5-13.54-.84c-41.92-36.49-72.17-80.54-85.47-135-15.5-63.45-6.62-124.15,24.27-181.3C190,258.82,236.07,217.74,298,195.45c35.44-12.77,72-16.62,109.54-12.4a298.9,298.9,0,0,1,67.14,15.74,23.5,23.5,0,0,0,2.56.59q6.68-11.55,13.32-23c9.84-17,19.62-34.11,29.53-51.11,12.58-21.6,38.58-21.57,51.16.07,13.4,23.07,26.67,46.22,40.06,69.3,2.12,3.66,3.35,7.27,1,11.18-3.6,5.93-11.55,5.09-15.54-1.78-12-20.61-23.85-41.29-35.77-61.94-1.42-2.45-2.88-4.89-4.31-7.34-6.46-11.07-15.55-11.18-21.91-.19Q509.1,178.75,483.58,223c-15.23,26.38-30,53-45.88,79-6.11,10-.7,19.56,11.42,19.46q96.66-.76,193.33,0c11.77.09,17.23-9.56,11.17-19.26-11.91-19.09-22.75-38.86-33.87-58.44-1.41-2.5-3.06-6-2.32-8.3.86-2.73,3.81-5.57,6.55-6.75,3.95-1.71,7.34.75,9.44,4.3,4.63,7.81,9.12,15.71,13.66,23.58,7.18,12.46,14.41,24.89,21.55,37.37,12.76,22.31-.22,44.7-26,44.91-7.75.06-15.5,0-23.93,0,2.88,8.75,5.74,16.86,8.24,25.07C664.86,488.6,601.7,612.32,493.27,665.77a255.62,255.62,0,0,1-42.94,16.63,265.5,265.5,0,0,1-40.77,8.12c-13.67,1.66-27.06,1.5-40.8,1.17C367.24,691.65,365.72,691.58,364.19,691.47ZM444.46,256.1c-24.17-10.47-60.75-14.07-92.38-8C286.63,260.8,238.53,297.1,209,356.86c-19.69,39.82-21.3,81.81-11.31,124.59,9.18,39.3,27.7,73.37,59,99.27,52.48,43.5,112.81,55.2,178,38.47,84.39-21.65,134.53-91,138.73-178.32,1.66-34.44-7.14-66.66-23.5-96.94-2.12-3.92-4.46-5.14-8.8-5.11-30.7.19-61.41.08-92.12.11-9.06,0-17.26-2.19-23.67-9-8.77-9.33-10.26-22.35-3.63-34.15C429,282.63,436.67,269.61,444.46,256.1Z"/><path class="cls-1" d="M554.27,213.61c0,15,0,29.94,0,44.9,0,7-2.86,10.46-8.32,10.57-5.63.11-8.82-3.69-8.83-10.73q0-44.9,0-89.8c0-6.8,3-10.4,8.42-10.51,5.76-.11,8.71,3.38,8.73,10.67C554.31,183.68,554.27,198.65,554.27,213.61Z"/><path class="cls-1" d="M554.16,295.54a8.55,8.55,0,0,1-17.1,0,8.55,8.55,0,1,1,17.1,0Z"/><path class="cls-1" d="M518.81,410.81a3.18,3.18,0,0,0,2.93,1.85c2.73-.05,5.58-.15,8.42.07,5,.4,8,3.13,8,8.43.07,6.1-4.06,8.58-10.12,8.94A23,23,0,0,1,524,430c-3.48-.39-4.9,1-6.6,4.22-2.62,4.92-1.53,7.93,2.4,11,3.16,2.45,5.68,6.92,4.3,11-.75,2.2-2.21,4.64-4.35,5.72-2.45,1.23-5.53.42-7.83-.75a11.12,11.12,0,0,1-2.21-1.75c-7.17-6.42-7.58-6.8-15.7-3a2.72,2.72,0,0,0-1.55,2.49c0,2.68.16,5.47-.06,8.24-.44,5.49-3.69,8.55-8.67,8.57s-8.05-2.84-8.72-8.48a35,35,0,0,1-.11-4c-.05-5.95-3.14-9.6-9-10.19-1.05-.11-2.4.79-3.31,1.58-2,1.71-3.72,3.8-5.76,5.47-3.75,3.1-8.68,2.9-11.82-.26a8.67,8.67,0,0,1-.27-11.82,17.73,17.73,0,0,1,2.77-2.84c3.88-3,5.16-5.91,2.47-10.92-1.74-3.24-3.14-4.51-6.62-4.34a28.5,28.5,0,0,1-8.4-.7c-4.21-1.09-6.13-4.32-5.87-8.58s2.6-7,6.91-7.75a29.73,29.73,0,0,1,4.52-.36c7.9-.17,9.3-1.15,11-8.62a5.31,5.31,0,0,0-1.24-3.84c-1.78-2.2-4.13-3.94-5.85-6.18-2.92-3.8-2.8-7.82.59-11.27s7.36-3.52,11.28-.77a26.89,26.89,0,0,1,3.31,3.1c5.18,5.13,7.24,5.42,13.37,1.3a5.61,5.61,0,0,0,1.8-3.66c.35-2.81,0-5.7.42-8.49.67-4.75,3.56-7.51,8.42-7.55s7.7,2.83,8.57,7.45a25.31,25.31,0,0,1,.23,6.79c-.31,3.48,1,4.92,4.27,6.67,4.95,2.69,7.87,1.48,10.87-2.34a15.9,15.9,0,0,1,2.95-3c4.07-3,8.17-3.08,11.67.4,3.24,3.22,3.46,6.95,1.13,10.81a9.92,9.92,0,0,1-1.12,1.46C515.53,402.27,515,402.44,518.81,410.81Zm-35.15,29.43a19.19,19.19,0,0,0,19.22-19.15c.06-10.26-9-19.13-19.44-19s-18.89,8.74-18.87,18.89A19.07,19.07,0,0,0,483.66,440.24Z"/><path class="cls-1" d="M371.8,503.48c5,8.57,7.18,17.62,5.59,27.33-2.05,12.56-8.9,21.83-19.56,28.59a22.56,22.56,0,0,0-6.32,6.11,25.3,25.3,0,0,1-45.6-20.23,39.15,39.15,0,0,1,15.45-23.11c-1.74-6.57-4.33-12.76-4.86-19.13-1.42-16.69,6.2-29.09,20-38.12a21.94,21.94,0,0,0,5.95-5.69C349.47,449,362.3,445,373.5,449.8a25.63,25.63,0,0,1,14.74,28.42C386.28,488,382.82,493.41,371.8,503.48Zm-40,55.88a10.11,10.11,0,0,0,2.68-1.42,6.41,6.41,0,0,0,2.55-2.71c2-5.09,5.94-7.59,10.32-9.91,7.33-3.87,11.87-9.76,13-18.1,1-7.3-2.21-13.14-6.29-18.79-5.06-7-3.81-12.47,3.53-17a50.25,50.25,0,0,0,6.53-4.48c4.27-3.71,7.74-8.3,6.88-14.15-.42-2.82-2.29-5.9-5.21-6.78-2.67-.8-7.22.39-8.51,3.06-2.51,5.25-6.55,7.88-11.21,10.55-13.48,7.72-16.48,22.17-7.54,34.87,6.74,9.57,5.85,14-4.17,20-5.93,3.57-10.36,8.25-11.61,15.28a8.16,8.16,0,0,0,2.3,7.39,9,9,0,0,0,4.46,2.34A4.82,4.82,0,0,0,331.8,559.36Z"/><path class="cls-1" d="M234.55,385.89c.1-36.59,39.38-71.15,73.89-65a27.81,27.81,0,0,1,.13,54.66c-1.49.27-3,.52-4.49.71-9.63,1.22-12.89,4.71-13.76,14.65-1.07,12.19-7.55,20.42-19,24.37C252.44,421.83,234.49,407.36,234.55,385.89Zm17.67.2a16.92,16.92,0,0,0-.15,2.71c.28,6.12,4.62,10.54,10.34,10.66s10.22-4.15,10.81-10.2c1.84-18.88,11.45-28.62,30.15-30.57,6.69-.7,10.81-5.05,10.43-11s-4.74-9.79-11.56-9.84C276.43,337.66,254.73,358.11,252.22,386.09Z"/><path class="cls-1" d="M371.73,331.24c-15.86.05-27.77-11.75-27.69-27.45.07-14.5,12.65-27,27.31-27.08,14.9-.11,27.79,12.59,27.68,27.26C398.9,319.56,387.25,331.2,371.73,331.24Zm9.68-26.94c0-5.89-4.08-10-9.92-10s-9.88,4.2-9.8,10.11a9.86,9.86,0,0,0,19.72-.11Z"/><path class="cls-1" d="M437.82,575a27,27,0,0,1-27.72-27.52c0-14.47,12.54-27,27.25-27.16S465.16,533,465.1,547.59C465,563.07,453.33,574.83,437.82,575Zm0-37c-6-.12-10,3.76-10.13,9.68a9.86,9.86,0,0,0,19.71.55C447.6,542.25,443.74,538.13,437.84,538Z"/><path class="cls-1" d="M284.47,489.35A8.91,8.91,0,0,1,275.8,498a8.73,8.73,0,0,1-8.66-9.14,8.9,8.9,0,0,1,8.86-8.43A9.15,9.15,0,0,1,284.47,489.35Z"/><path class="cls-1" d="M380.09,393.71a8.55,8.55,0,1,1-17.09-.56,8.55,8.55,0,1,1,17.09.56Z"/><path class="cls-1" d="M503.3,512.16a8.69,8.69,0,0,1,8.75,8.43c.16,5-3.13,8.68-8.08,8.94a8.24,8.24,0,0,1-9-8.54A8.68,8.68,0,0,1,503.3,512.16Z"/></svg>