<?xml version="1.0" encoding="utf-8"?>
<!-- Generator: Adobe Illustrator 28.4.1, SVG Export Plug-In . SVG Version: 6.00 Build 0)  -->
<svg version="1.1" id="Livello_1" xmlns="http://www.w3.org/2000/svg" xmlns:xlink="http://www.w3.org/1999/xlink" x="0px" y="0px"
	 viewBox="0 0 375.1 896.2" style="enable-background:new 0 0 375.1 896.2;" xml:space="preserve">
<style type="text/css">
	.st0{fill:#26475C;}
</style>
<g>
	<path class="st0" d="M172.3,650.2c5.2-7.4,10.3-14.6,16.6-23.5c-11.2-1.1-19.9-1.7-28.3-3c-5.1-0.8-10.2-2.4-14.9-4.6
		c-24.3-11-28.3-38.1-8.2-55.7c13.9-12.2,30.6-16,48.4-13.2c10.3,1.6,19.3,0.8,28.7-4.2c7.6-4,4.1-10,4.9-15.1c0.7-4.3,1.5-9-5-10.9
		c-3.9-1.1-8.4-3.3-10.8-6.4c-7-9.3-15.3-10.2-26.2-8.3c-9,1.5-19.1,0.8-28-1.6c-22.5-6.2-30.5-28.2-18.2-48
		c10.4-16.8,26.7-25.7,45.7-26.1c13.2-0.3,20.1-8.9,29.5-14.6c0.5-0.3,1-0.9,1.3-1.4c3.9-7.5-5.8-40.8-13.3-44.3
		c-2.2-1-5.5,0.2-8.3,0.4c-11.6,1-23.4,3.9-34.7,2.6c-23.9-2.7-35.1-25.2-24.1-46.6c10.3-20.1,28.6-28.6,49.9-31.7
		c11.4-1.6,25.8-16.7,26.9-28.3c0.8-8.4,1.9-16.9,3.3-25.2c1.2-6.8,0.4-12.1-4.7-17.7c-4-4.4-7.2-5.7-13-5.8
		c-10-0.1-20.4-0.5-29.9-3.3c-27.2-8.1-33.7-36.1-13.5-56c16-15.8,36.1-17.2,57.3-16.6c9.5,0.2,19.1-3.9,28.6-6.6
		c1.4-0.4,2.2-3.7,3-5.8c3.6-10.1,7.1-20.3,10.5-30.5c2.9-8.6-1.4-15-10.2-16.8c-10.2-2-20.7-3.5-30.2-7.4
		c-13.8-5.5-23.8-15.7-23.8-31.7c0-16.6,10.2-27,24.4-33.5C220.5,2,235.7,2.8,251,6.4c2.7,0.6,6.4,1.9,8.3,0.7
		c13.9-8.4,28.5-6.3,42.8-2.8c16.7,4.1,33.4,8.8,49.5,14.9C372,27,379,43,373.1,64c-2.1,7.5-4.3,15-6.4,22.6
		c-3.4,12.2-11.6,19.8-22.8,25.2c-3.8,1.8-7.3,5.8-9.3,9.6c-3.1,6-5,12.7-7.1,19.2c-3.4,10.6-4.4,20.6-3.5,32.5
		c1.8,22.8,0.4,47.3-21,63.9c-1.8,1.4-3.1,4.1-3.6,6.4c-1.4,7.4-3,14.8-3.1,22.2c-0.1,3.3,2.3,7.9,5,9.9c10,7.3,15.2,17,15.8,29
		c0.6,11.4,0.7,22.8,0.7,34.3c-0.1,12.9-5.5,23.6-15.8,31c-5.1,3.7-6.6,7.3-5,13.1c0.7,2.5,0.7,5.2,1,7.8
		c0.9,10.7,1.9,19.5,15.7,23.6c14.4,4.2,21.6,17.1,21.3,32.9c-0.2,9.8-0.2,19.6-0.5,29.4c-0.4,13.9-6.4,24.9-17.5,33.4
		c-2.5,1.9-5,5.3-5.3,8.2c-1.1,12-1.7,24.1-1.7,36.1c0,3.2,2,7.5,4.5,9.3c13.6,10.2,18.4,23.1,14.4,39.5c-1.9,7.6-3.8,15.2-5.4,22.8
		c-3.6,17.2-14.5,26.9-30.7,32.3c-3.4,1.1-7.3,5-8.3,8.5c-7.1,23.8-17.3,46.2-40.5,57.5c-14.2,6.9-24,14.1-29.9,29.8
		c-6.8,17.9-23.6,26-42.3,29.6c-2.8,0.5-6.4,3.1-7.3,5.5c-5.7,15.5-16.5,26.1-31.5,31.5c-11.8,4.2-24.4,7.2-36.9,8.7
		c-16.3,1.9-25.8,10.7-29.7,25.5c-2.4,9-2,18.7-3.6,27.9c-0.7,4.1-2,9.8-4.9,11.4c-3.1,1.7-9.8,0.9-12.4-1.5
		c-8.9-8.4-18.9-16.8-24.4-27.4c-24.5-47-28-96.2-8.4-145.5c13.8-34.6,40.5-54.1,78.2-58c3.9-0.4,8.1-2.4,11.1-4.9
		C124,637.9,145.2,635.4,172.3,650.2z M42.9,864.4c1.9-6.8,2.8-11.3,4.4-15.4c8.2-22,21.3-37.4,47-39.3c11.8-0.9,23.6-4.7,34.7-9
		c10.2-4,17.1-12.2,17.3-24c0.2-9,5.1-11.7,13-12.3c6.1-0.4,12.4-1.1,18.2-2.9c18.1-5.5,35.5-33,15.8-53.4
		c-9.9-10.3-18-22.3-26.9-33.6c-14.4-18.1-34.7-20-51.1-3.3c-6.8,6.9-13.8,9.5-23,10.1c-28.6,2.1-49.5,16.7-60.3,42.9
		c-6,14.5-9.7,30.6-11.1,46.2C18.2,803,24.5,834,42.9,864.4z M206.7,463.9c0.2,4.2,0.5,8.5,0.7,12.7c0.8,18.7,8.9,28.1,27.6,27.8
		c19.8-0.3,39.7-2.5,59.3-5.5c13.8-2.1,20.1-11.5,20.5-25.7c0.2-7.8,0.3-15.7,0.3-23.5c0.1-12.4-5.2-19.6-17.5-20.3
		c-20.5-1.2-41.1-2.5-61.5-1C206.8,430.7,204.5,434.6,206.7,463.9z M270,640.1c23.1,0.4,31.1-5.6,34.7-20.6c1.7-7,3.4-13.9,4.8-20.9
		c2.2-10.8-0.5-17.9-11-20.6c-22.9-5.8-46.1-10.8-69.4-14.7c-11.2-1.9-17.6,4.7-19.4,15.8c-1.3,8-2.8,16-4,24.1
		c-2.6,17.5,3,26.5,20.6,30.2C243.2,636.8,260.3,638.6,270,640.1z M255.5,287.9c-12.5,0.3-24.9,1.8-37.4,3.9
		c-11.5,2-15.9,8.6-15,20.1c0.8,10.4,1.8,20.8,2.7,31.2c1.2,13.8,9.5,23.4,23.1,22.6c17.8-1.1,35.6-3.8,53-7.3
		c10.8-2.2,16.2-10.7,16.2-21.6c0-10.1-0.3-20.2-0.6-30.3c-0.3-9.9-5.5-15.9-15.3-17.2C273.3,288.1,264.4,287.7,255.5,287.9z
		 M325.1,96.3c13-0.8,20.1-6,23.7-18.6c2.1-7.2,3.9-14.5,6.2-21.6c2.6-8-0.4-13.9-7.3-17.1c-21.4-10-44-16.2-67.6-17.8
		C271.6,20.7,266,25,264.3,34c-1.5,8-3.6,15.9-5.3,23.8c-3.2,14.9,1.8,24.5,16.4,28.2C291.8,90.3,308.5,92.9,325.1,96.3z
		 M269.2,224.4c0-0.2,0.1-0.4,0.1-0.6c2.3,0,4.6,0,6.8,0c15.7,0.2,21.9-4.8,25.1-20c1.5-7,2.9-14,4.2-21.1c1.4-7.5-1.5-14-8.5-15.6
		c-21.2-4.8-42.5-8.9-64-12.2c-7.9-1.2-13.3,4.2-14.5,12.7c-1.2,8.4-2.3,16.8-3.6,25.2c-2.3,14.6,3.2,23.5,17.6,26.3
		C244.6,221.5,257,222.7,269.2,224.4z M184.4,665.5c6,7.7,12.1,15.3,18.1,23c6.1,7.9,12,16,18,24.1c23.2-4.9,43.6-29.7,43.6-51.9
		c-21.3-4.6-42.3-9.1-64.2-13.8C195.9,651.7,190.5,658.1,184.4,665.5z M264.1,104.4c-3.6,10.5-7.1,20.9-10.6,31.2
		c17.4,4,33.7,7.8,50.7,11.7c3.8-11,7.6-21.8,11.4-32.6C298.3,111.2,281.8,107.9,264.1,104.4z M223.2,268.9c18.4,0,35.2,0,52.5,0
		c1.1-8.9,2.1-16.5,3.1-24.4c-17.5-1.8-34.2-3.5-51.7-5.3C225.7,249.5,224.4,259.3,223.2,268.9z M183.2,312.9
		c-15.6,1.6-28.4,6.2-37,18.5c-7.5,10.7-3.4,20,9.4,21.6c5.7,0.7,11.7,0.2,17.4-0.6c13.6-2.1,14-3,12.5-16.9
		C184.8,328.4,184.1,321.4,183.2,312.9z M239.7,543.4c17.1,3.3,33.3,6.5,50.4,9.8c0.6-10.8,1.2-21.6,1.9-32.8
		c-18.1,1.6-34.8,3.1-52.2,4.6C239.7,531.3,239.7,537.3,239.7,543.4z M191.1,570.7c-15.2-3-29-2.3-40.9,7.7
		c-9.1,7.7-8,18.2,3.1,22.4c8.6,3.2,18.3,3.9,27.6,4.9c1.6,0.2,4.7-3.1,5.2-5.1C188.1,591,189.4,581.3,191.1,570.7z M199.6,161
		c-15.7-1.6-29.9-0.2-40.8,11.8c-7.8,8.6-5.9,17.7,5.1,21.3c7.2,2.4,15.2,2.5,22.8,3.5c6.4,0.9,8.4-2.8,9.1-8.4
		C196.8,180.2,198.2,171.2,199.6,161z M186.1,447.8c-15.8,0.8-29.4,4.4-38,17.9c-5.7,9-2.7,17.8,7.7,19.3c10.3,1.5,21,0.3,32.4,0.3
		C187.5,471.8,186.8,460.4,186.1,447.8z M246,25.7c-14.4-3.5-27.1-4-38.5,4.7c-9,6.9-8.8,16.4,0.4,22.7c9.1,6.2,19.2,8.9,30.5,7.8
		C240.9,49.1,243.3,38,246,25.7z M280.5,407.8c-1.5-10-2.8-18.7-4-26.9c-17.9,2.1-34.3,4-51.4,6c1,7.3,2,14.6,2.9,20.9
		C245.8,407.8,262.7,407.8,280.5,407.8z"/>
</g>
</svg>
