<svg id="Livello_1" data-name="Livello 1" xmlns="http://www.w3.org/2000/svg" viewBox="0 0 800 800"><defs><style>.cls-1{fill:#26475c;}</style></defs><path class="cls-1" d="M667.27,395.25a38.49,38.49,0,0,1-1.71,5.43c-2.66,6.91-7.21,13.58-13.68,17.41a33.08,33.08,0,0,1-6.67,2.94c-.77.25-7.57,2.35-7.85,1.81,2.22,4.24,4,8.56,6.56,12.37,14.58,21.73,3.73,49.74-25.3,53.4,2,9.31.9,18.19-4.32,26.33a31.1,31.1,0,0,1-15.41,12.68c-11.85,4.49-28.24,2.61-40.18-15.71a27.34,27.34,0,0,1-1.94,3.25c-14.86,18.41-41.48,16.27-53.1-4.65-14.48-26.07-28.45-52.44-42.64-78.68a22.49,22.49,0,0,0-5.25-7.06c0,5.07.05,10.13,0,15.2-.08,6.77.57,13.67-.53,20.28C451,485.63,423.33,496,403,480.15l-1.34-1c-6.39,2.81-12.09,6.5-18.29,7.81-19.79,4.18-37.66-10.68-38-31-.17-10.35,0-20.7-1.15-31.33-.93,1.54-1.91,3.06-2.77,4.64-14.36,26.54-28.78,53-43,79.66-4.66,8.71-11.22,15.13-20.85,17.56-13.18,3.32-24.27-.61-33.1-10.94-.76-.88-1.48-1.8-2.62-3.21-5.79,9.59-13.66,16.24-24.5,16.9a40.29,40.29,0,0,1-18.49-3.48c-13.68-6.28-19.75-21-16.4-37.18-1.64-.32-3.29-.59-4.91-1-22.62-4.91-33.31-27.27-22.81-47.82,2.83-5.54,5.85-11,9-16.87C150.81,421,141.45,414.68,136.3,403a30.41,30.41,0,0,1,.93-27.61q30.32-56.94,61-113.71a26,26,0,0,1,5.26-6.4c14-13,27.75-26.31,42.2-38.81,9.66-8.36,14.69-18.44,16.28-30.88,1.28-10.13,3.26-20.18,5.07-30.24,1.1-6.05,3.78-8.38,9.93-8.39q52.4-.1,104.79,0c6.79,0,10,3.38,10.14,10.49.2,8,.05,16,.19,24,.72,41,1.15,82,2.43,123,.39,12.54,3.14,25,4.84,37.5a11.16,11.16,0,0,0,.8,2.22l1.65.08c1.33-7.51,3.62-15,3.82-22.54,1.42-53.49,2.4-107,3.52-160.5,0-1.73-.07-3.48.12-5.2.65-6.1,3.92-9,10.51-9,17.55-.08,35.1,0,52.65,0,16.86,0,33.72,0,50.57,0,7.51,0,9.9,2,11.25,9.35,2.09,11.42,4.14,22.85,5.89,34.32a38.13,38.13,0,0,0,12.6,23.26c14.28,13,28.6,25.9,42.55,39.21a55.63,55.63,0,0,1,10.26,13.58q27.81,51.21,55.08,102.72c1.46,2.74,2.71,5.58,3.91,8.44,1.56,3.73,3.1,7.59,3.33,11.67A20.7,20.7,0,0,1,667.27,395.25ZM427.71,165.06c-.1,1.93-.22,3.62-.26,5.31-1,46.89-2,93.8-3.13,140.69-.34,13.89-2,27.6-6.46,40.95-2.93,8.85-6.42,18-6.84,27.11-1.2,25.85-1,51.76-1.18,77.65,0,7,5.77,12.36,12.67,12.72,9.13.46,14.84-5.26,15.05-15.85.41-20.67.49-41.35.75-62a25.49,25.49,0,0,1,.78-6.07,8.91,8.91,0,0,1,7.24-6.33c2.52-.5,5.53.54,8.44,3.61,1.29,1.36,2.15,3.48,3.14,5.31q30.4,56.3,60.83,112.61c4.4,8.12,12.61,11,19.68,7.05,6.77-3.75,8.93-12.82,4.85-20.51Q529.11,460.65,514.92,434c-8.13-15.31-16.31-30.6-24.35-46-3.39-6.5-.53-13.09,6.06-14.1,5.05-.78,8.05,2.12,10.25,6.31q9.76,18.66,19.68,37.26c15.67,29.37,30.32,59.32,49.07,87,3.62,5.34,8.27,7.7,14.59,6.76,5.59-.84,10.16-4.71,10.69-11.11a25.47,25.47,0,0,0-2.82-13.23c-19.68-37.64-39.7-75.11-59.61-112.63a48.54,48.54,0,0,1-2.79-5.59c-2.4-6.41,2.29-12.51,9.13-12.08,4.47.28,6.52,3.34,8.38,6.85q24.87,46.86,49.87,93.68a43,43,0,0,0,5,7.87c7,8.22,19.29,5.94,23.13-4.18,2-5.34.52-10.09-2.05-14.88q-26-48.34-51.82-96.77c-2.78-5.2-5.68-10.34-8.13-15.69-2-4.43-.29-8.82,3.81-11.16a8.9,8.9,0,0,1,11.6,2.52,30,30,0,0,1,2.35,4q10.53,19.74,21,39.49c5.14,9.64,10.21,19.31,15.49,28.88,3.34,6,9.39,8.71,15.28,7.14a13.66,13.66,0,0,0,10.11-13.55,24.7,24.7,0,0,0-2.81-10.32q-27.93-52.61-56.29-105a44.52,44.52,0,0,0-8.5-11c-13.28-12.5-26.79-24.77-40.34-37-10.16-9.17-16.62-20.23-18.65-33.89-1.43-9.57-3.28-19.07-4.94-28.62Zm-144.1,0c-1.05,6.28-2.46,12.39-3,18.58-1.87,20.22-10.28,36.52-26.33,49.45-12.42,10-23.69,21.45-35.36,32.38a31.14,31.14,0,0,0-6.26,7.55q-29.31,54.24-58.34,108.64c-4.55,8.5-2.13,17.95,5.32,21.73,7,3.58,14.48.39,19.1-8.23q15-28,29.91-56c2.45-4.59,4.75-9.27,7.44-13.72a8.69,8.69,0,0,1,11.79-3.25c4.27,2.24,5.89,6.86,4,11.56-.66,1.6-1.53,3.12-2.34,4.65q-28.35,53-56.71,106a49.18,49.18,0,0,0-3.12,6.56,14.88,14.88,0,0,0,4.48,16c3.72,3.11,10.54,4.2,14.61,1.19a30.16,30.16,0,0,0,8.35-9.62c16.23-30.06,32.19-60.27,48.24-90.43,1.31-2.45,2.51-5,4-7.3a8.89,8.89,0,0,1,11.81-3.31c4.3,2.21,6,6.83,4,11.53-.73,1.76-1.67,3.43-2.57,5.12q-29.73,56.07-59.47,112.16A36.35,36.35,0,0,0,200,493.4c-2.86,10.31,5.56,20,15.84,17.45,3.86-1,7.87-4.46,10.21-7.89,21.77-31.89,38-66.92,56.42-100.72,4.23-7.77,8.16-15.7,12.48-23.42,2.82-5,7.87-6.44,12.39-3.89,4.28,2.4,5.65,7.23,3.47,12.21-.35.79-.76,1.56-1.16,2.32q-25.1,47.35-50.19,94.71a45,45,0,0,0-3.17,6.52c-3.33,10,4,19.3,14.42,18.48,6.13-.48,9.39-4.5,12.06-9.46Q312.95,443.84,343.17,388c.83-1.52,1.58-3.09,2.51-4.55,2.13-3.38,5.23-5.22,9.22-4.5a8.72,8.72,0,0,1,7.47,7.67,37.43,37.43,0,0,1,.36,5.71c.21,19.81.34,39.62.63,59.43a29.85,29.85,0,0,0,1.3,9.2c2.18,6.29,8.63,9.55,15.56,8.42,6.33-1,11.11-6.7,11.06-13.77-.18-23.81-.43-47.61-.89-71.42a62.25,62.25,0,0,0-2-13.81c-3.05-12.08-7.79-23.9-9.38-36.14-2.29-17.69-2.87-35.66-3.34-53.53-1-37.52-1.41-75.05-2.08-112.58,0-1-.19-2-.31-3.13Z"/><path class="cls-1" d="M242.49,583.9C208.1,583,176.83,574,148.26,556c-5.47-3.44-7-8.69-4-13.22s8.07-5.37,13.7-2c19.68,11.84,40.68,20.23,63.47,23.38,36.07,5,69.74-2.63,100.85-21.15,9.2-5.47,17.64-12.28,26.14-18.84,5.6-4.31,10.39-4.85,14.25-.64s3,9.61-2.48,14.36c-29.32,25.38-63.32,40.14-101.73,44.86C252.9,583.42,247.33,583.56,242.49,583.9Z"/><path class="cls-1" d="M558.26,583.94c-44.32-1.64-84.25-17-118.45-47-4.56-4-5-9.27-1.33-13.3s8.86-4.23,13.79.31c17.11,15.73,36.57,27.45,58.83,34.23Q579.58,579.13,641,542.17c7.49-4.49,12.63-4.37,15.84.72s1.14,10-6.37,14.59C623.19,574.15,589.15,584,558.26,583.94Z"/><path class="cls-1" d="M562.85,654.06c-35.62-.43-64.87-6.81-92.88-19-6.3-2.74-8.58-7.54-6.16-12.76,2.28-4.91,7.27-6.36,13.35-3.73,25.92,11.21,52.91,17.78,81.22,17.4,31.87-.43,60.26-10.28,83.57-32.86,4.91-4.76,10.42-4.91,14.2-.81s3.1,9.39-2,14.12C627,641.66,594.88,654.2,562.85,654.06Z"/><path class="cls-1" d="M236.37,654.05c-30.82-.09-62.9-12.7-90-38-3.57-3.35-5-7.23-2.89-11.67,1.94-4.06,5.65-5.67,10-4.54a12.57,12.57,0,0,1,5.25,3.1c27.73,26.41,61.1,35.47,98.54,32.59A205.25,205.25,0,0,0,324,618.55c6.32-2.75,11.6-1.18,13.69,4s-.33,9.84-6.7,12.62C302.79,647.41,273.36,653.73,236.37,654.05Z"/></svg>