<?xml version="1.0" encoding="utf-8"?>
<!-- Generator: Adobe Illustrator 28.4.1, SVG Export Plug-In . SVG Version: 6.00 Build 0)  -->
<svg version="1.1" id="Livello_1" xmlns="http://www.w3.org/2000/svg" xmlns:xlink="http://www.w3.org/1999/xlink" x="0px" y="0px"
	 viewBox="0 0 783.7 547.6" style="enable-background:new 0 0 783.7 547.6;" xml:space="preserve">
<style type="text/css">
	.st0{fill:#26475C;}
</style>
<g>
	<g>
		<path class="st0" d="M10.1,116.8c0,0,62.6,0,62.6,0c35.8,1.7,72.7-1.9,108.3-6.7c14.5-2,28.9-6.9,43-10.6
			c30.4-8,60.6-16.3,91.1-23.9c9.4-2.3,19-3.6,28.7-3.6c64.5-0.3,129-0.2,193.5,0c5,0,7.9-1.6,11-5.4c32.2-38.9,73.7-59,124.1-61.9
			c0,0,8.2,0,9,8.6c1.1,12.8-8.6,13.7-8.6,13.7c-38.6,2.2-71.9,16.8-99.5,45.1c-1.7,1.7-1.5,4.5,0.4,6.1c0.3,0.2,0.6,0.5,0.9,0.7
			c11.5,9.1,16,22.8,11.8,36.1c-4.3,13.7-16.8,23.5-31.2,24c-8.6,0.3-17.3-0.2-25.9,0.2c-3.9,0.2-9.2,2.8-11.6,5.9
			c-9.5,12.2-17.9,25.3-28,36.9c-32.8,37.5-74.5,56.5-124.2,57.8c-18.6,0.5-37.3,0-56,0.2c-2.4,0-5.4,0.4-7,1.9
			c-26.4,23.7-58.2,31-92.4,31.6c-8.1,0.1-16.2,0-25.4,0l-111.5,0.3H10.3c-9.4,0-10.2-10.1-10.2-10.1c-1-12.8,10.2-12.4,10.2-12.4
			h62.1l112.9,0.5c15.8-0.7,31.2-0.7,46.5-2.3c25.7-2.9,47.9-13.2,64.4-33.9c2.5-3.1,5.3-5.9,7.8-9c8.9-10.6,20.2-16.8,33.6-19.9
			c32.9-7.6,65.7-15.6,98.5-23.5c8.7-2.1,12.8-7.9,10.9-14.8c-1.9-7.2-7.9-10.2-16.6-8.2c-28.1,6.5-56.3,13-84.4,19.5
			c-10.6,2.4-21.3,4.9-32.3,7.3c0,0-14.8,4.8-17.9-6.4c-3.9-13.8,14.5-15.7,14.5-15.7c15.2-3.5,30.4-7.1,45.6-10.5
			c37.3-8.4,74.1-19.9,112.9-17.7c2.4,0.1,6.3,0.3,8.7,0.3c24.3,0,48.7-0.1,73-0.1c9,0,14.7-4.5,14.6-11.4
			c-0.1-6.8-5.3-10.9-14.2-10.9c-70,0-140-0.1-210,0.1c-6.3,0-12.6,0.8-18.7,2.4c-44.1,11.5-88.1,23.3-132.1,34.7
			c-34.6,9-117.8,7.8-117.8,7.8H10.2c0,0-10.5-0.1-10.2-11.3S10.1,116.8,10.1,116.8z M473.3,139.2c-2.5,0-4.5,2.2-4.1,4.7
			c3.5,23.8-12.5,38.3-31.7,42.3c-32.1,6.7-63.8,15-95.6,22.8h0c-4.5,1.1-4,7.8,0.7,8.1c61,4.3,126.4-27.7,147.5-72
			c1.3-2.8-0.7-6-3.7-6H473.3z"/>
		<path class="st0" d="M315.6,542c-100.9,0.4-201.9,0.1-302.8,0.1c0,0,0,0-0.1,0c-4,0-7.2-3.4-7.2-7.2v-8.1c0.7-4.7,3.2-7.2,7.2-7.2
			h1.8c99.8,0,199.6,0,299.3,0h363c0.6,0,1.2,0.1,1.8,0.2c2.2,0.6,6.9,2.9,7.3,11c0,0,0.5,9.6-7,11.2S315.6,542,315.6,542z"/>
	</g>
	<g>
		<path class="st0" d="M783.7,404.6c-1,4.4-1.8,8.9-3,13.3c-10,35.7-43.3,59.4-80.4,57.3c-36.4-2.1-67.3-30-72.9-66.2
			c-2.9-18.4,0.4-35.7,9.7-51.8c20-34.8,40.1-69.6,60.2-104.3c4.3-7.5,11.1-7.5,15.4,0c20,34.6,40,69.3,60,104
			c5.4,9.3,8.9,19.2,10.2,29.9c0.1,1,0.5,2,0.7,3C783.7,394.7,783.7,399.6,783.7,404.6z M705,271.2c-3.2,5.6-6.1,10.6-9,15.6
			c-15.5,26.9-31.3,53.5-46.4,80.6c-12.4,22.2-9.1,50.1,7.1,69.5c16.7,19.9,43,27.6,67.4,19.7c38.6-12.4,55.4-56.2,35-92
			c-17.2-30.1-34.6-60.1-52-90.1C706.6,273.6,706,272.7,705,271.2z"/>
		<path class="st0" d="M584.8,167.2c2,2.2,4.4,4.1,5.9,6.6c13.2,22.6,26.4,45.2,39.3,68c18.5,32.8,1,73.2-35.5,81.2
			c-22.3,4.9-41.2-2-55.2-19.7c-14.1-17.8-16.4-38.2-5.9-58.2c13.1-25,28-49.1,42.2-73.5c1-1.7,3-2.8,4.5-4.2
			C581.7,167.2,583.2,167.2,584.8,167.2z M582.3,191c-12,20.8-24.1,40.7-35,61.3c-7.8,14.8-5.5,29.8,5.3,42.5
			c10.8,12.7,25,16.9,41.1,12.2c24.3-7.1,35.3-34.8,22.7-57.1c-10.6-18.9-21.7-37.6-32.5-56.5C583.6,192.8,583.1,192.2,582.3,191z"
			/>
		<path class="st0" d="M737.2,396.8c0,0.1,0,0.3,0,0.4c0.1,5.5-2,10.9-4.9,15.5c-3.1,5-7.4,9.1-12.6,11.9c-3.7,2-7.7,3.2-11.9,3.6
			c-0.9,0.1-1.8,0.1-2.7,0.1c-4.5-0.2-7.8-3.4-7.9-7.6c-0.1-4.2,3-8,7.5-8c12.3-0.1,20-13.1,14.1-23.8c-2.3-4.2-0.7-8.7,3.2-10.7
			c4-2.1,7.9-0.3,10.7,4C735.6,386.4,737.1,391.6,737.2,396.8z"/>
	</g>
</g>
</svg>
