<?xml version="1.0" encoding="utf-8"?>
<!-- Generator: Adobe Illustrator 28.4.1, SVG Export Plug-In . SVG Version: 6.00 Build 0)  -->
<svg version="1.1" id="Livello_1" xmlns="http://www.w3.org/2000/svg" xmlns:xlink="http://www.w3.org/1999/xlink" x="0px" y="0px"
	 viewBox="0 0 783.7 781.7" style="enable-background:new 0 0 783.7 781.7;" xml:space="preserve">
<style type="text/css">
	.st0{fill:#26475C;}
</style>
<g>
	<path class="st0" d="M586.5,226.5c61,25.1,131.3-1,160-60.4c11.8-24.4,16.1-51.5,11.9-78.3c-2.3-15.1-7.3-29.4-12.9-43.5
		c-3.6-8.9-7.7-21-19.2-21.4c-21.8-0.6-43.8,0-65.6,0.1c-6.6,0-12.5-0.9-14.9-7.8c-2-5.7,1.5-13.2,8.1-14.1c7.4-1,15.9-1.1,23.5-1.1
		l34.1,0c4.8,0,12.8-0.1,17.6-0.2c6.1-0.1,16.2,0.8,20.2,5.4c2.3,2.7,2.5,2.5,4.5,5.5c21.6,33.1,32.5,74.8,28.1,114.4
		c-1.1,10.1-3.2,20-6.4,29.6c-13,39.7-40,72.1-78.2,89.7c-9.7,4.5-19.9,8-30.2,10.7c-3.7,1-7.6,3.1-10.3,5.7
		c-29.8,29.5-59.5,59.3-89.2,89c-2,2-3.9,4.1-6.2,5.6c-5.2,3.2-10.4,2.5-14.5-2.1c-3.9-4.3-3.9-9.3-0.8-14c1.4-2.1,3.4-3.8,5.2-5.6
		c22.7-22.7,45.3-45.4,68-68c2-1.9,4.4-3.4,6.4-4.9c-22.5-6.2-43.7-11.8-64.7-18c-29-8.6-57.9-17.4-86.7-26.6
		c-6-1.9-8.5-0.5-11.2,4.7c-9.1,17.3-18.7,34.4-28,51.6c-1,1.9-1.9,3.9-3.6,7.5c7.4-3.8,13.1-6.8,18.9-9.7
		c24.8-12.4,51.3-1,58.6,25.7c17.3,63.7,34.4,127.5,51.4,191.4c5.2,19.5-4.6,37.4-22.9,43c-17.2,5.3-37-3.5-41.6-21.3
		c-3.7-14.2-12.1-23.5-21.8-32.8c-3.3-3.1-6.3-6.6-10.4-10.8c-2.9,10.7-5.5,19.9-7.9,29.2c-14.5,56.4-51,90.3-107.3,102.3
		c-38,8.1-69.9,25.5-95.6,55.1c3.2,6.2,6.5,12.4,9.6,18.8c12.1,24.5,0.8,50.7-25.6,57.9c-63.7,17.4-127.5,34.5-191.4,51.4
		c-20.4,5.4-38.4-4.9-43.5-24C-3,737.4,8,719.1,28.3,714c8-2,14.1-5.8,19.9-11.6c80.1-80.4,160.4-160.6,240.7-240.8
		c1.8-1.8,3.5-3.7,5.5-5.3c5.1-4.2,11.7-4,15.9,0.3c4.5,4.5,4.6,10.4,0.1,15.8c-1.6,2-3.5,3.7-5.3,5.5
		C223.3,559.5,141.6,641.2,60,723c-5.8,5.8-11.9,10.1-20,11.5c-2,0.3-4,1-5.9,1.6c-7.7,2.4-11.7,8.3-9.9,14.6
		c1.9,6.6,7.9,9.4,16,7.3c49.1-13.1,98.2-26.2,147.3-39.3c14-3.7,28-7.4,41.9-11.3c14.3-4.1,18.7-14.3,12.1-27.5
		c-4-7.9-8.1-15.8-12.3-23.7c-2.7-5-2.6-9.9,1.2-14.1c27.7-30.6,59.6-54.4,100.6-64.3c14.5-3.5,29.3-7.1,42.9-13.1
		c30.8-13.6,49.4-38.2,58.5-70.3c3.9-13.9,7.7-27.9,11.2-42c0.6-2.3,0.3-5.9-1.1-7.4c-21.3-21.8-42.9-43.3-65.2-65.6
		c-6.1,11.2-11.8,21.6-17.5,32c-4.1,7.6-8.2,15.2-12.4,22.7c-4.3,7.6-10.8,10-17,6.4c-6-3.5-7.3-9.7-3.2-17.3
		c9.5-17.7,19.2-35.3,28.8-52.9c1.3-2.4,2.6-4.9,5.6-9.4c-2.6-1.7-5.6-2.9-7.7-5c-55-54.8-109.9-109.6-164.7-164.6
		c-38.6-38.7-45.8-93.2-18.1-138.4c9.9-16.2,24-29.3,40.8-38.3c18.7-10,37.4-14.5,58.5-14.5c20.7,0,41.3,0,62,0
		c26.5,0,52.9,0,79.4,0c26.5,0,52.9,0,79.4,0c26.5,0,52.9,0,79.4,0c8.2,0,16.4,0,24.6,0c4.1,0,8.2,0,12.3,0c4.6,0,7.3-0.4,10.8,2.9
		c3.5,3.4,5,7.6,3.3,12.3c-2.6,7-8.5,7.9-15,7.7c-5.1-0.2-10.2,0-15.6,0l-35.7,0.2c-97.2-0.2-194.4-0.6-291.6,0.1
		c-31.6,0.2-56.8,14.9-73.4,42.2c-21.9,36-15.9,78.4,15.2,109.5C303.1,273,400.9,370.9,499,468.6c8.4,8.3,14.8,16.9,17,28.8
		c1.6,9.1,8,13.1,15.1,11.1c6.6-1.8,9.4-8,7-16.8c-16.8-62.8-33.6-125.7-50.5-188.4c-3.7-13.7-14.5-18.4-27.1-12
		c-8.2,4.1-16.3,8.4-24.4,12.6c-5,2.6-9.8,2.4-14.1-1.5c-32.4-29.3-57-63.4-65.5-107.4c-9.1-47.2-34.2-80.8-82.2-94.4
		c-8-2.3-11.3-8.1-9.3-14.9c1.9-6.5,8.1-9.2,16.2-6.9C335.4,94.6,366,132,377.9,186c3.9,17.7,9,35,18.4,50.6
		c5.3,8.7,11.5,16.9,18.1,26.5c10.6-19.4,20.2-37,30.3-55.5c-11.9-3.7-22.7-6.5-33-10.6c-6.2-2.4-10-10.5-6.2-16.4
		c3.3-5.2,10.9-5.4,16.2-3.8c44.5,13.3,89,26.9,133.4,40.7L586.5,226.5z"/>
</g>
<g>
	<path class="st0" d="M699.1,443.2c-0.3,3.9-2.6,7.2-7,7.5c-7.8,0.6-13.3,5.1-16.9,11c-6.2,10.1-11.2,21-17,31.3
		c-1.5,2.7-4.1,5.5-6.8,6.7c-3.7,1.6-7.2-1.5-9.6-6.3c-4.6-9.6-9.1-19.4-14.6-28.6c-4.4-7.3-10.3-13.5-20-14.3
		c-3.9-0.3-6.2-3.6-6.2-7.7c0-4.3,2.3-7.6,6.5-8c8.6-0.7,14.3-5.8,18.4-12.4c5.8-9.5,10.8-19.6,15.7-29.7c1.9-4,3.7-7.4,8.6-7.3
		c4.9,0.1,6.6,3.6,8.5,7.5c5.1,10.3,10.3,20.7,16.3,30.5c3.8,6.1,9.3,10.8,17.3,11.3C696.3,435.1,699,438.8,699.1,443.2z M650,416.9
		c-6.3,8.5-12.9,17.4-19.2,25.9c6.4,8.7,13,17.6,19.2,25.9c6.3-8.5,12.9-17.4,19.2-25.9C662.9,434.3,656.4,425.5,650,416.9z"/>
	<path class="st0" d="M160,311c-4.5-0.5-6.7-3.1-8.2-7.2c-3.2-8.4-6.5-16.8-10.6-24.7c-2.8-5.4-7.9-8.7-14.5-9.2
		c-4.7-0.3-7.6-3.9-7.5-8.2c0.1-4.2,3-7.6,7.7-8c6.2-0.5,11.1-3.4,13.8-8.5c4.2-7.9,7.8-16.2,10.9-24.5c1.7-4.4,3.5-7.9,8.6-7.9
		c5.1,0.1,6.8,3.7,8.4,8.1c2.9,8.1,6.3,16.1,10.4,23.7c2.9,5.4,7.9,8.7,14.5,9.2c4.7,0.3,7.7,3.9,7.5,8.2c-0.2,4.5-2.8,7.6-7.2,7.9
		c-7.5,0.5-12.6,4.6-15.8,10.7c-3.8,7.3-6.8,15.2-9.5,23C166.8,307.9,164.6,310.7,160,311z M160,246.5c-4,5.4-7.8,10.5-11.4,15.4
		c3.9,5.3,7.7,10.4,11.4,15.4c4-5.4,7.8-10.5,11.4-15.4C167.5,256.7,163.8,251.6,160,246.5z"/>
	<path class="st0" d="M731.9,540.4c0.1,4.8-2.9,8.4-7.5,8.7c-6.6,0.5-11.6,3.8-14.5,9.2c-4.1,7.6-7.4,15.6-10.3,23.7
		c-1.6,4.4-3.4,8-8.4,8.1c-5.1,0-6.9-3.5-8.6-7.9c-3-8.2-6.5-16.4-10.6-24.1c-2.8-5.2-7.7-8.4-14.1-8.9c-4.7-0.4-7.7-3.8-7.7-8
		c0-4.3,2.9-7.8,7.6-8.1c6.4-0.5,11.3-3.6,14.2-8.8c4.1-7.7,7.6-15.9,10.7-24.1c1.6-4.4,3.3-8,8.4-8c5.1,0,7,3.4,8.5,7.9
		c2.7,7.7,5.7,15.3,9.4,22.5c3.2,6,8.3,10.1,15.8,10.6C729.1,533.3,731.4,536.5,731.9,540.4z M691,556.4c3.9-5.2,7.7-10.3,11.4-15.4
		c-3.8-5.1-7.6-10.2-11.4-15.4c-3.8,5.2-7.6,10.3-11.4,15.4C683.4,546.2,687.2,551.3,691,556.4z"/>
</g>
</svg>
