<svg id="Livello_1" data-name="Livello 1" xmlns="http://www.w3.org/2000/svg" viewBox="0 0 800 800"><defs><style>.cls-1{fill:#26475c;stroke:#fff;stroke-miterlimit:10;stroke-width:2px;}</style></defs><path class="cls-1" d="M447,671.21a33.79,33.79,0,0,1-9.61.35,8.4,8.4,0,0,1-1.86-.37c-5.32-1.84-7.89-8.05-6.41-13.18s5.07-7.32,10.18-7.64a32.61,32.61,0,0,0,5.72-.91,21,21,0,0,0,16.21-20.76c0-10-6.41-18.69-16.2-20.68-5.44-1.11-11.12-1-16.77-1.41-.57,2.2-.94,3.73-1.36,5.24-3.54,12.85-6.64,25.84-10.8,38.48a115.77,115.77,0,0,1-4,11.77c-2.38,5.29-5,9.53-11.2,9.65-10,.2-13.79-16.53-16.14-23.5-2.65-7.86-5.1-15.79-7.55-23.72-1.75-5.67-2.81-11.55-4.25-17.6-10.52,0-20.75.28-31-.06-37.27-1.23-60.51-41.68-42.71-74.34,10-18.27,26-26.52,46.38-27.07,7.52-.2,15.06,0,22.78,0V411c-2.73,0-5.17,0-7.6,0-23.88.51-41.67,14.18-47.36,36.9-2.89,11.55-.74,22.62,4.31,33.36,2.94,6.25.56,12.06-5.11,14.67-5.26,2.42-10.94.12-14.08-5.71-20.79-38.52,1-87.91,43.62-98.13,8.43-2,17.31-2.16,26.15-3.18v-36c-40.54,31.07-83.92,36.39-130.87,16.32.43,1.29.62,2.07.94,2.78q19,42.06,38.12,84.07a6.43,6.43,0,0,0,3.31,2.75c7.36,3,9.69,8.46,6.29,15.65-2.71,5.71-5.79,11.25-8.52,17-5.33,11.16-14.09,16.68-26.45,16.67q-43.68-.06-87.35,0c-7.48,0-15.1-1.29-19.75-7.21-7.76-9.88-15.09-20.27-14.79-34,.1-4.49,1.67-6.72,5.73-8.1a7.35,7.35,0,0,0,3.81-3.6Q166,395.74,192.91,336.12c.48-1.06.7-2.92.11-3.68-4.31-5.55-8.35-11.45-13.43-16.23-15.54-14.61-25-32.09-26.93-53.43A20.84,20.84,0,0,0,148,250.85a81.73,81.73,0,0,1-18.5-50.63c-.21-10.07,5.47-14.64,15.21-12.32,6,1.42,11.92,3.06,17.87,4.62,23.17,6.07,46.24,12.1,70.63,11.11,19.56-.79,39.17-.22,58.76-.13,14.56.07,26.68,5.78,36.34,16.61,6.78,7.61,9.57,17,11.85,26.72,3.13,13.27,15.58,21.77,28.61,19.6,0-5.71.27-11.52-.15-17.29a8.92,8.92,0,0,0-3.09-5.83c-20.67-15.51-30.21-35.75-26.42-61.61,5.2-35.5,41.18-59.67,75.79-50.7,25.36,6.58,41.64,23,46.66,48.62,5.17,26.34-4.46,47.7-26.09,63.62-1.19.88-2.95,2.12-3,3.25-.28,6.8-.14,13.62-.14,20.86,3.34-.35,6-.34,8.54-.94,12.23-2.91,18.35-11.29,21.08-23.11,6-26,23.6-39.81,50.29-39.82,22.59,0,45.18.12,67.76-.08a95,95,0,0,0,19.44-1.73Q627,195.6,654.26,188.4c7.4-2,13-1,17.32,5.54v14.82a9.4,9.4,0,0,0-1,2.28,79.93,79.93,0,0,1-17.38,39.64,21.06,21.06,0,0,0-4.85,12.41c-1.14,14.39-5.86,27.64-14.64,39-7.62,9.87-16.17,19-24.4,28.4-1.85,2.12-2,3.74-.76,6.47q24.68,53.67,48.94,107.54c1.61,3.58,3,7.29,5.25,10.56a18.58,18.58,0,0,0,4,4.32c1.45,1.11,4,1.69,4.9,3.46,1.29,2.45.08,7.17.06,9.84a17.78,17.78,0,0,1-2.86,9.85c-1.87,3.18-3.73,6.37-5.36,9.68-5.18,10.6-13.62,15.84-25.27,15.87q-44.45.09-88.9,0c-8.33,0-16.28-2.25-20.87-9.32A202.16,202.16,0,0,1,514,471.35c-2.15-4.81,1.13-9.5,6-12a12.83,12.83,0,0,0,5.52-5.34c10.08-21.67,19.91-43.45,29.8-65.21,2.86-6.31,5.68-12.65,8.9-19.83-47.52,20.4-91,15.14-131.94-16.29V389.5c49.52-2.3,75.82,36.95,75.62,67.68-.11,16.26-4.63,30.94-14.81,43.64-15.46,19.29-36.17,27.1-61.14,26.2v58.87c3.64,0,7.36-.3,11,.05,17.07,1.65,29.61,10.34,36.29,26,6.56,15.42,4.27,30.24-6.09,43.68A43.57,43.57,0,0,1,447,671.21ZM368.73,289c-2.27-.27-4.16-.51-6.07-.72a46.74,46.74,0,0,1-6.28-.67c-20.94-5.06-33.22-18.38-38.05-39.28-3.82-16.57-13.21-23.61-30.14-23.63-19.41,0-38.83-.36-58.23.09a181.82,181.82,0,0,1-55.82-7.19c-6.93-2-14-3.47-21.44-5.27,7.58,29.35,30.94,48.41,60,49.51,7.75.29,15.53-.08,23.28.28,6.9.33,11.51,4.89,11.57,10.67a10.62,10.62,0,0,1-10.85,10.71,285.3,285.3,0,0,1-35.34-1.37c-8-.92-15.81-4.06-23.57-6.18,5.26,19.15,27.12,37.17,47.86,38.83,8.78.71,17.61.64,26.41,1a10.88,10.88,0,0,1,10.55,10.5c0,5.48-4.6,10.23-10.46,10.58-2.46.14-4.94,0-7.41,0H226.94c16.65,13.22,34,20.47,53.42,22.22,34.58,3.12,63.08-9.47,86.41-34.66a6.25,6.25,0,0,0,1.88-3.51C368.8,310.41,368.73,299.85,368.73,289Zm279.59-76.7c-3.63.88-6.69,1.5-9.67,2.36-24,6.92-48.24,11.3-73.43,10.19-18-.79-36-.24-54-.13-15.17.09-24.7,7.79-28.33,22.58-.3,1.19-.65,2.37-.94,3.57-3.66,15.36-12.34,26.93-26.94,33.07-7,2.94-14.75,4.07-22.75,6.17,0,9.79,0,20.35.07,30.9a5.36,5.36,0,0,0,1.51,3.15c30.13,33.06,70.68,43.42,110.92,29.56A84.14,84.14,0,0,0,573.7,336.9c-8.77,0-16.29,0-23.81,0-4.94,0-8.57-2.08-10.52-6.56-3.15-7.24,2.12-14.13,10.61-14.68,11.55-.75,23.46-.43,34.53-3.26,19.2-4.92,31.89-18.14,39.21-36.74-.78-.13-1.18-.34-1.43-.22-17.78,8.56-36.82,8.55-55.9,8.22-6.49-.11-10.73-2.75-12.25-7.32-2.53-7.58,2.75-14.07,11.93-14.35,7.4-.23,14.82.06,22.23-.22C617.38,260.69,640.74,241.62,648.32,212.25Zm-2.65,246.14-51-112.28c-2.44,3.57-4.58,5.94-5.85,8.71q-18,39.3-35.83,78.72c-3.67,8.1-7.28,16.23-11.15,24.85Zm-490.17.08H259a26.77,26.77,0,0,0-1-3.15q-22.95-50.64-46-101.21c-1.18-2.58-3.41-4.67-5.66-7.68C189.2,384.2,172.53,420.93,155.5,458.47ZM390.26,253.71V505h20.5V253.71Zm10.46-21.28A40.56,40.56,0,0,0,441.4,191.3c-.08-22.51-18.73-40.64-40.84-40.72s-41.16,18.93-41.05,41.13A41.09,41.09,0,0,0,400.72,232.43Zm31.89,178.68v94.13c19.4,1.37,35.32-4.83,45.87-21,10.75-16.47,11-34,.56-50.85S452.26,410.52,432.61,411.11ZM369,527.4c-9.93,0-19.06-.41-28.13.09-13.29.73-24.44,11.72-26.07,24.92-1.66,13.39,6.12,26.89,18.48,31.15,11.92,4.11,24.24,1.73,35.72,2.1ZM147.93,475.49c2.09,4.13,3.31,8.17,5.84,11.06,2.06,2.36,5.67,4.69,8.62,4.72,30.13.34,60.25.29,90.38.05a11.13,11.13,0,0,0,7.7-3.53c2.77-3.45,4.38-7.84,6.72-12.3Zm505.53,0H534.15c1.81,3.66,3.38,6.76,4.88,9.89,2.16,4.5,5.72,6.18,10.66,6.16,29.46-.1,58.93,0,88.39-.19,2.85,0,6.56-1.3,8.32-3.34C649.28,484.69,650.87,480.27,653.46,475.48ZM390.05,527.33c-.62,34-.08,67.35,10.61,101,10.31-33.89,11-67.21,10.26-101Z"/></svg>