<svg id="Livello_1" data-name="Livello 1" xmlns="http://www.w3.org/2000/svg" viewBox="0 0 800 800"><defs><style>.cls-1{fill:#26475c;}</style></defs><path class="cls-1" d="M302.8,118.83a58.29,58.29,0,0,1,8.84,1.34c4.84,1.13,9.72,2.08,14.32,4,10.86,4.57,21.25,10.33,31.48,16.21,5.41,3.11,6.34,8.48,3.45,12.56-3.13,4.42-7.87,4.66-13.4.67-40-28.79-97.41-23.9-131.37,11.44-17.79,18.52-25.33,41.11-24.59,66.5.66,22.52,6.55,43.35,22.34,60.25,15.15,16.2,34.47,25,55.83,29.35s42.95,4.08,63.78-3.37c27.75-9.91,42.66-30.86,48.39-58.88,5.34-26.13,1.47-51.21-10.3-75.09-1.8-3.67-3.18-7.58,0-10.64,1.94-1.87,5.6-3.37,8.07-2.88s5.27,3.21,6.57,5.67c10.71,20.3,15.32,42.05,14.55,65-.16,4.56-.49,9.11-.76,13.92a7.76,7.76,0,0,0,1.74-.65c28.76-19.28,60.6-25.3,94.58-21.69,42.2,4.49,76.79,23.32,103.77,56,49.66,60.09,28.88,167.66-58.16,194.6-1.22.38-2.4.87-4.29,1.55,1.63,1.1,2.9,2,4.18,2.81,30.24,19.84,42.57,48.41,39,83.63-4.61,45.14-31.88,73.56-71.33,91.84C481.51,675.86,452,682,421.13,680.35c-20.51-1.11-40-6.25-57.81-16.79-4.93-2.92-6.31-7.83-3.72-12.07s7-5,12-2.44c.49.25.95.55,1.43.81,21.32,11.77,44.26,15.46,68.28,13.58,28.11-2.21,54.5-10,78.45-25.1,23.55-14.83,39.15-35.44,43.78-63.35,6.55-39.52-14.21-78.58-59.81-83-54.85-5.32-105.29,8.18-147.09,46C331,561.19,327,593.3,344.82,623c2.09,3.49,4,7.2,1.14,10.59-1.72,2.07-5.17,4-7.66,3.77s-5.62-2.59-7.13-4.9a82.8,82.8,0,0,1-14-48.13c0-2.17,0-4.35,0-6.34-8,3.07-15.67,7-23.86,9-35.28,8.75-63.71-2.76-85.57-31-17-21.91-25.7-47.32-28.9-74.64-3.14-26.88-2.83-53.65,4.12-80,8.47-32.18,27.3-55.67,58.23-68.91a4.58,4.58,0,0,0,1.14-.74c-9.68-5.93-19.91-11.19-29-18-23.4-17.44-34.36-42-37.75-70.33-3.51-29.31,2.51-56.43,20.39-80.24a110.72,110.72,0,0,1,19.77-20.4,107.11,107.11,0,0,1,23.61-14.1,125.45,125.45,0,0,1,27-8.17,122.87,122.87,0,0,1,17.77-1.58A155.56,155.56,0,0,1,302.8,118.83ZM609.62,364.69c.11-21.41-5.49-41.1-17.55-58.9-33.42-49.32-102.44-71-158.7-49.31-35.12,13.51-56.27,39.29-58.79,76.78-3.15,46.86,15.34,85.34,53.18,113.44,26.57,19.73,56.59,29.89,90,24.88C573.42,463.24,609.37,421,609.62,364.69ZM369.4,426c-.6-7.32-.83-14.28-1.81-21.13-4.08-28.48-18-49.45-46.2-59-16.77-5.71-34-6.19-51.43-3.66-36.8,5.34-60.39,26.22-70.25,61.71-8.36,30.08-8,60.73-1.41,91.16,4.8,22.29,13.82,42.72,30.16,59.19,15.2,15.33,33.51,21.4,55,17.79,20.3-3.42,35.77-14.67,47.61-30.69C356.36,507.07,367,467.72,369.4,426Zm-.16,80.59c24.23-15.25,49.65-23.69,77.75-29.21-24.66-11.68-44.5-26.72-60.93-48.15C384.62,456.41,378.71,481.21,369.24,506.62ZM338.38,334.31l18.19,12c.51-7.25,1-14.16,1.52-21.34Z"/><path class="cls-1" d="M484.17,512.47c16.89.65,30.84,6.35,37.9,22.47,7.42,16.91,3.67,32.64-8,46.33-16.16,18.91-52,26.39-74.67,16.06-29.54-13.48-33.48-48.07-7.71-67.7C447.23,517.77,465.31,513.6,484.17,512.47Zm-20.61,73.19c4.33-.59,8.77-.77,13-1.85,11-2.81,21.15-7.35,27.71-17.24C514,552,507.67,533.11,492,530.3a57.92,57.92,0,0,0-16.32-.14c-13.67,1.49-26.39,5.67-36.77,15.25-11.17,10.3-9.92,25.66,2.74,34.12C448.26,584,455.66,585.49,463.56,585.66Z"/><path class="cls-1" d="M329.55,212.89c-.18,30.73-22.54,47.42-51.32,44.23-10.18-1.12-19.6-4.29-27.79-10.55-14.43-11-20.58-31.16-15.4-49.89,4.76-17.22,20.56-30.88,38.44-33.24C305.87,159.17,329.59,180.09,329.55,212.89Zm-45,27.75c16.24-.07,25.64-7.16,27.78-22a44.25,44.25,0,0,0-1-16.24c-4.18-17.37-20.74-26.62-38.11-21.86-17.58,4.82-26.8,20.67-22.08,38C254.93,232.32,267.61,240.72,284.54,240.64Z"/><path class="cls-1" d="M464.09,325.63c23.27.64,41.24,9,53.23,27.71,18.44,28.78.59,68.65-33,74.57-38,6.69-72.35-25.22-68.36-63.41,1.91-18.26,16.67-33.48,36.45-37.38C456.66,326.28,461.05,326,464.09,325.63Zm-31.81,40.75c-.11,26.35,20.61,46.57,42.53,45.63,13.6-.57,24.42-6.23,30-19.2,5.63-13.14,3.24-25.41-6.07-36.13-11.8-13.57-33.83-18.33-50.16-10.9C437.92,350.61,432.46,359,432.28,366.38Z"/><path class="cls-1" d="M239.27,398.85c11.91-33.17,51.58-36.18,72-21.88,10.31,7.21,15.31,17.81,16.39,29.79,2.22,24.68-3.31,47.74-18.75,67.44-18.25,23.27-48.72,20.95-63.91-4.42-7.81-13-10.8-27.39-10.3-42.51C234.31,427.19,236.06,407.79,239.27,398.85Zm44.69-13C267.07,386,257,394,253.1,410.35a57.38,57.38,0,0,0-1.47,8.61c-1.29,16.75.23,32.91,11.09,46.72,5.62,7.15,13.66,9.87,21.4,6.29,4.91-2.28,9.93-5.86,13.05-10.19,10.69-14.82,15.23-31.89,14.26-50C310.51,394.37,300.82,385.75,284,385.9Z"/></svg>