<svg id="Livello_1" data-name="Livello 1" xmlns="http://www.w3.org/2000/svg" viewBox="0 0 800 800"><defs><style>.cls-1{fill:#26475c;}</style></defs><path class="cls-1" d="M509.91,671.83c-4.59-.77-9.13-3.28-12.89-5.8a30.79,30.79,0,0,1-11-12.53c-1.61-3.47-3.24-7.28-3.4-11-.49-10.76-2.16-22,.11-32.25,4.89-22.12,1-44.24,2.42-66.29.13-2.08-.61-4.22-1.14-7.55-3.54,5.92-5.86,10.83-9.11,15-10.28,13.27-24.08,19.79-40.85,19.82-29.88.07-59.76,0-89.64,0h-6c-2.78,10.44-7.51,19.52-15.29,26.89-13,12.34-28.85,15.7-46,14.23-5-.43-8.38-3.52-9.18-8.82a17.09,17.09,0,0,1-.49-2.59c.19-23.5-.06-47,.83-70.48.5-13.43,14.24-26.84,27.86-27.88,11.07-.85,22.49-1.79,33.34-.07,22.53,3.59,45.05.69,67.53,1.79a15.47,15.47,0,0,0,2.49-.38c0-13.18.27-26.21-.1-39.23-.24-8.54-1.89-17-2.08-25.57-.35-16.08.47-32.19-.24-48.25a179.4,179.4,0,0,1,7.36-59.54c2-6.65,1.65-12.45-1.6-18.68-4.56-8.74-8.38-17.87-12.36-26.91-6.12-13.93-2.53-26,10.16-34.52,6.31-4.23,12.83-8.15,19-12.54,7.46-5.3,14.52-11.16,22-16.37,6.17-4.27,12.74-8,19.08-11.86-1.61-4.47-3.5-9.37-5.15-14.36-5.45-16.47,3.42-47.33,22.7-59.66,26.69-17.05,65.19-3,73.08,27.63,6.53,25.34-3.56,50-26,63.69a20.75,20.75,0,0,0-1.86,1.52c9.37,11.42,13.62,24.62,14.07,39.85,2.69,0,5.28,0,7.87,0,14.12.25,28.32-.28,42.35,1,15.86,1.43,27,16.25,26,32.62-.87,15.26-14.13,28.45-29.45,28.69-18,.28-36.06.2-54.1,0-3.7,0-5.18.88-5.77,4.79-1.2,8-3.25,15.88-4.72,23.85a17.21,17.21,0,0,0,.17,6.78c5.81,25.24,11.33,50.55,17.79,75.62,3.77,14.64,9.76,28.71,13.51,43.36a152.31,152.31,0,0,1,5,33.31c.71,26.14.3,52.32.14,78.48,0,3.72,1.15,5.31,4.59,6.88,19.7,9,30.45,24.43,31.69,46.21.13,2.29-.14,4.61.1,6.89a15.51,15.51,0,0,1-3,11.12c-3.1,3.82-7.39,3.28-11.84,3.27h-9.08l-18.17,0q-18.16,0-36.33.06h-1.45A17.44,17.44,0,0,1,509.91,671.83ZM503.46,332c-23.16-2.2-39.62-12.93-47.94-34.71-2.9-7.6-.76-13.27,5.67-15.73,5.74-2.2,11.17.55,14,7.68,5.88,14.87,17,21.29,32.59,21.19,22.27-.14,44.54,0,66.81,0a64.58,64.58,0,0,0,8.47-.15c7.33-1,11.3-7.66,8.29-13.85-2.13-4.39-6-5.47-10.6-5.45q-26.25.11-52.5,0c-11.07-.05-15.21-5.29-13.39-16.11,1.28-7.57,1.09-15.13-2.07-22.34-6.28-14.32-20.86-23.51-35.27-22.27-18,1.56-30.3,12.11-34.5,29.84q-8,33.67-15.78,67.38c-1.94,8.3-3.76,16.63-5.71,25.24h77.74C500.65,345.73,502,339,503.46,332Zm-163.7,218c32.3,0,63.94.54,95.54-.21,17.41-.41,28.4-12.47,28.8-29.73.38-16.61.08-33.22,0-49.83a9.55,9.55,0,0,0-.46-2H420.74c0,14.57,0,28.84,0,43.11,0,11.05-3.45,14.44-14.66,14.44H339.76Zm145.79-83.79c0,12.51-1.95,24.94.65,36.34,1.64,7.21,7.25,12.86,11.73,18.44a40,40,0,0,1,7,12.75c1.65,5.13,1.63,10.14,1.7,15.45.17,12.22.08,24.43,0,36.65q0,4.21,0,8.43v5.54h27.72c.12-1.17.29-2,.29-2.87,0-26.49-.09-53,0-79.46.09-20.43-8.7-38.5-14.22-57.61Zm-8.35-91.36H418.9V446.2c15,0,29.6.1,44.24-.18,1.12,0,2.88-2.62,3.16-4.23,2.56-14.4,4.88-28.85,7.22-43.3C474.78,390.71,475.94,382.91,477.2,374.75Zm25.63-163.09c1.23,0,2.47.06,3.7,0a11.46,11.46,0,0,0,2.05-.47c14.87-3.68,20.44-14.67,22.77-28.49,3.29-19.5-13.31-35.65-32.6-31.63-15.6,3.25-23.59,18.11-23.06,35.25C476.15,200.91,488.19,211.77,502.83,211.66ZM571,650.85c-1.84-15.48-11.31-27.31-24.64-28.37-14-1.12-28.18-.25-42.9-.25,0,4.66-.1,9.39,0,14.11.23,9.23,5.27,14.32,14.58,14.47,9.9.17,19.8,0,29.7,0ZM317.82,523.5c-5.47,0-10.39-.1-15.29,0-8.58.22-13.37,5-13.46,13.61-.13,10.94,0,21.88,0,32.82v20.52c14.77-.15,28-12.37,28.66-27.08C318.31,550.37,317.82,537.31,317.82,523.5ZM500.05,376.56l-1.24,0c-3.6,22.12-7.2,44.23-10.92,67.15l26.77-4.83C509.66,417.59,504.86,397.07,500.05,376.56ZM419.81,264.74c-12.74,6.74-13.79,11.65-4.79,20.57C416.59,278.59,418.12,272,419.81,264.74Z"/><path class="cls-1" d="M309.51,671.68a12,12,0,0,1-5.7-5.68c-3.8-7.23,1.52-15.06,10.24-15.11,18.7-.12,37.41,0,56.11,0H439.5c7.91,0,12,2.21,13.67,7.4,1.6,4.91-1.11,10.17-5.29,12.87-2.47,1.59-5.58,1.14-8.35,1-5.09-.22-10.2-.09-15.28-.09H323.76c-4.05,0-8.56.7-12.55.09A7.37,7.37,0,0,1,309.51,671.68Z"/><path class="cls-1" d="M273.4,671.67a10.73,10.73,0,0,1-4.29-2.73,10.45,10.45,0,0,1,.08-15.09,10.56,10.56,0,1,1,13.91,15.86c-1.74,1.39-3.21,2.33-5.49,2.4A13,13,0,0,1,273.4,671.67Z"/><path class="cls-1" d="M262.13,412.27c21.38,0,42.76,0,64.15,0,8.11,0,12.94,4.17,13,10.79a10,10,0,0,1-8.72,10.3,43.61,43.61,0,0,1-6.86.45q-61.49,0-123,0a41.23,41.23,0,0,1-6.85-.48,10.37,10.37,0,0,1-1.53-20,25.19,25.19,0,0,1,7.28-1C220.42,412.24,241.28,412.27,262.13,412.27Z"/><path class="cls-1" d="M312.87,352.87c11,0,21.93-.23,32.87.14a20.29,20.29,0,0,1,9.79,3c3.55,2.25,4.45,6.35,3.3,10.42s-3.73,6.79-8,7.5a32.17,32.17,0,0,1-5.27.48q-32.61.06-65.23,0c-7.41,0-11.77-2.57-13.21-7.43-2.25-7.57,3-13.95,11.84-14.09C290.24,352.75,301.56,352.87,312.87,352.87Z"/><path class="cls-1" d="M234.65,374.22a10.36,10.36,0,0,1-10.42-10.36c-.07-5.87,4.92-11,10.62-10.88,5.36.09,10.5,5.2,10.63,10.57C245.61,369.25,240.52,374.27,234.65,374.22Z"/></svg>