<?xml version="1.0" encoding="utf-8"?>
<!-- Generator: Adobe Illustrator 28.4.1, SVG Export Plug-In . SVG Version: 6.00 Build 0)  -->
<svg version="1.1" id="Livello_1" xmlns="http://www.w3.org/2000/svg" xmlns:xlink="http://www.w3.org/1999/xlink" x="0px" y="0px"
	 viewBox="0 0 808.8 631.9" style="enable-background:new 0 0 808.8 631.9;" xml:space="preserve">
<style type="text/css">
	.st0{fill:#26475C;}
</style>
<g>
	<path class="st0" d="M182.6,444.4c-0.2-0.4-0.6-0.6-1.1-0.5c-21.9,5-43.2,10.4-64.8,14.4c-27.2,5.1-54.7,8.6-82.3,2.5
		C17.3,457,3.1,448.9-1,430c-2.5-11.5,0.8-22.4,5.8-32.7c10.1-20.8,25-38.1,41.1-54.3c35.2-35.6,74-66.8,115-95.5
		c2-1.4,3.2-4.7,3.9-7.3c24.1-90.7,77.2-158.7,159.9-203.1c118.7-63.8,270.6-41.1,366,54.1c1.3,1.3,2.7,2.7,4,4
		c8.8,8.8,10,8.2,21.5,3.5c16.8-6.9,34-12.8,51.2-18.5c4.7-1.5,10.1-1.3,15.2-0.9c21.4,1.3,33.9,21.1,24.3,40.2
		c-4.9,9.8-13,18.2-20.4,26.5c-5,5.5-11.4,9.7-17.4,14.3c-5.5,4.2-11.3,8-17.2,12c-0.4,0.3-0.5,0.8-0.3,1.2
		c41.5,87.6,46,176.5,8.2,265.8c-32.5,76.7-88,132-164.4,165.4C442,671.8,256.1,606.3,182.6,444.4z M442.3,327.3
		c-0.6,0.4-0.6,1.2-0.1,1.6c8.6,6,15.9,11.1,23.2,16.2c6.1,4.3,12.7,8.1,18.2,13.1c16.8,15.2,20.5,34.8,9.5,54.6
		c-5.3,9.5-11.7,19.2-19.8,26c-20.7,17.4-42.7,33.3-64.2,49.6c-11.5,8.7-23.8,16.5-34.8,25.9c-13.2,11.3-19.3,24.5-8.7,41.7
		c5.1,8.3-1.9,17-11.6,16.1c-20.4-2-36.9-18.7-38.7-39.1c-1.4-15.6,2.4-30.4,7.6-44.8c5.6-15.3,12.4-30.3,17.2-45.9
		c6-19.4,3.3-38.4-5.5-56c-0.2-0.4-0.8-0.6-1.2-0.5c-43,17.2-85.3,34.1-128.4,51.3c-0.5,0.2-0.8,0.8-0.5,1.3
		c46.7,93.3,120.5,151.1,224.5,166.5c81.8,12.1,155.9-8.9,222.1-59.6c0.4-0.3,0.5-0.9,0.2-1.3c-17.3-23.2-18.3-48.4-13.3-74.5
		c3-15.5,7.1-30.8,9.8-46.4c3.3-19.3-3-31.7-21.1-39.6c-12.2-5.3-25.1-9.8-38.1-12.1c-24.5-4.3-22.5-5.4-24.3-27.7
		c-2-23.3,2.1-45.5,18.4-63.9c1.3-1.5,1.9-5.1,1.1-6.9c-9.3-19.9-16.6-40.8-30.7-58.1c-5.9-7.3-11.8-14.8-15.9-23.1
		c-2.1-4.3-1.8-11.1,0.2-15.6c2.5-5.8,8.9-7.4,15.3-5.9c5.4,1.4,10.8,3.1,16.1,5c7.6,2.7,15.6,8.7,22.5,7.5
		c7.1-1.3,13-9.5,19.5-14.6c11.2-8.8,22.5-17.5,34.1-26.5c0.5-0.4,0.5-1,0.1-1.4c-19.1-19.7-37.9-39.1-56.7-58.6
		c-11-11.4-10.5-21.2,1.8-30.4c0.6-0.4,0.5-1.4-0.2-1.7c-31.6-14.4-64.4-22.6-98.6-24.8c-5.3-0.3-11.6,1.6-16.2,4.5
		c-17.7,11.1-34.3,23.9-55.3,28.7c-4.2,0.9-8.2,3.6-11.8,6.4c-7.3,5.8-8.2,16.7-1.8,23.4c9.3,9.7,23.5,8.9,33.1-2.3
		c13.9-16.3,15.2-16.5,33.8-5.7c2.1,1.2,4.1,2.5,6.2,3.8c21.3,13.8,26.5,29.1,18.3,53c-3.6,10.6-10.3,17-21.8,18.6
		c-17.9,2.5-33.9,9.8-48.6,20.2c-18.9,13.3-33.6,30.7-46.6,49.6c-8.6,12.6-12.1,13.1-24.5,4.2c-9.7-7-19.9-12.6-32.6-11.7
		c-6.6,0.5-9.9,3.6-7.7,9.8c3.2,9,6.2,18.5,11.4,26.4c8.4,12.7,18.4,24.3,28,36.2c6.3,7.8,4.9,17.4-3.6,19.3
		c-3.6,0.8-8.1-0.1-11.5-1.6c-46.8-20-78.7-54.8-98.1-101.4c-6.2-14.9-10.7-30.6-15.9-45.8c-0.2-0.7-1.1-0.9-1.6-0.4
		c-36.9,39.6-59.8,170.4-37.9,219.5c0.2,0.4,0.7,0.7,1.1,0.5c52.8-13.4,103.8-32.1,154.2-52.7c69.2-28.4,137.9-58,203.1-94.8
		c6.7-3.8,12.8-2.8,16.5,2.4c3.9,5.6,2.7,11.9-4.2,16.6c-32.4,21.9-65,43.6-97.6,65.3C454.4,320.1,449.2,323.1,442.3,327.3z
		 M362.9,206.5c0.4,0.2,0.9,0.2,1.2-0.2c12-12.9,23.1-26.1,35.5-37.8c18.7-17.6,40.9-29.3,66.2-34.5c5-1,9.9-0.8,11.3-7.8
		c1.4-7.1,3-13.9-3.8-19c-4.4-3.3-9.1-6.2-13.5-9.1c-0.4-0.2-0.9-0.2-1.2,0.1c-17.1,16.7-27.8,20.9-44.2,18.1
		c-17.2-3-32.5-17.2-35.6-33.1c-3.1-15.9,4.4-31.2,21.1-40.7c7.6-4.3,16.2-6.8,24.4-10.1c4.1-1.6,8.2-3.1,13.3-5.1
		c-1.7-1-2.1-1.3-2.5-1.4c-0.8-0.1-1.6,0-2.4,0.1C358,36.7,296.2,70.6,247.2,127.8c-1.8,2.1-2.6,6-2.1,8.7
		c5.4,31.4,14.5,61.6,31.9,88.6c5.2,8,11.2,15.5,17.1,23.2c2.1,2.5,4.5,1.3,3.5-1.9c-1.5-4.2-2.9-8.4-3.9-12.8
		c-4.5-19.6,8.8-37.5,28.8-38.8C337.9,193.8,351.1,199.5,362.9,206.5z M762.3,330.1c0-0.4-0.2-0.8-0.6-1c-1.6-0.7-2.5-1.2-3.4-1.4
		c-26.2-5.6-50.3-16-73.3-29.8c-11.7-7-25.3-11.9-38.7-14.8c-29.8-6.6-52.4,7.6-57.9,35c-1.3,6.5-1.2,13.3-1.8,20
		c-0.6,7.3,2.5,10,9.9,12.1c16.6,4.8,33.6,9.8,48.6,18c20.9,11.4,29,31.2,25.6,54.6c-2.8,18.8-7.7,37.2-11.1,56
		c-3.1,17.5-2.4,34.6,9.1,50.3c0.3,0.5,1.1,0.5,1.5,0.1C726.6,474.5,757.4,408.6,762.3,330.1z M355.5,374.4
		c-0.4,0.2-0.6,0.7-0.5,1.2c0.4,1.3,0.8,2.5,1.4,3.7c13.4,29.8,11.7,59.3-0.9,88.9c-4.7,11.1-9.3,22.3-13.1,33.7
		c-2.5,7.4-3.5,15.4-5.2,23.1c0.7,0.3,1.3,0.6,2,0.9c10.5-25,31.9-38.8,53-53.2c18.2-12.4,36.5-24.7,53.4-38.7
		c10.7-8.9,19.9-20.2,27.9-31.8c6.7-9.7,4.3-18.5-4.3-26.8c-3-3-6.7-5.4-10.1-7.9c-11.3-8.5-22.6-17-34.1-25.3
		c-1.6-1.1-4.6-2.1-6-1.4C397.7,351.7,376.7,363,355.5,374.4z M633.6,92.5c-1.3-0.6-2.5,1-1.5,2c11.8,12.1,23.5,24.2,35.2,36.4
		c7,7.2,6.2,18.2-1.8,24.4c-20.7,16-41,32.3-61.4,48.8c-4.7,3.8-9.2,5.1-14.8,2.8c-4.9-1.9-9.8-3.6-15-5.5c-0.8-0.3-1.6,0.6-1.2,1.4
		c7.2,12.5,14.2,24.6,21.6,37.4c0.5,0.8,1.7,0.6,1.8-0.3c0.7-5.1,1.1-10.1,2.8-14.6c1.6-4.3,4.6-9.8,8.4-11.4
		c25.6-10.8,51.5-20.8,77.3-31c7.3-2.9,15.4,0.8,17.9,8.3c2.2,6.7,3.9,13.6,5.8,20.4c3,10.3,6,20.7,9.1,31c0.3,0.9,1.6,0.9,1.8,0
		c2.5-7.9,3.8-13.2,5.3-21.4c2.2-12,2.5-25.7,0.7-37.7c-2.3-15.2,1.2-22.3,11-29.1c14.9-10.3,29.2-21.7,42.8-33.8
		c3.7-3.3,9.4-9.5,6.7-14.8c-0.3-0.5-0.4-0.7-0.7-1.3c-2.5-4.3-11.4-3.1-16.3-1.6c-14.3,4.2-29.1,8.5-41.8,15.9
		c-14.5,8.5-26.3,8.6-40.7,0.1C669.7,108.9,651.4,101.1,633.6,92.5z M361.2,345.9c0.4-0.4,0.9-1.3,0-1.5c-1.4-0.3-2.9,0.8-4.1,1.2
		c-1.8,0.6-3.6,1.4-5.3,2.1c-52.5,20.9-105.4,41-160.5,54.5c-25.3,6.2-50.8,11.3-77.2,8.8c-29.8-2.9-43.4-22.3-35.1-50.9
		c2.1-7.4,5.9-14.3,8.9-21.5c0.8-1.8,1.6-3.5,2.4-5.3c-24,20.7-47.4,41.8-62.9,69.7c-12.7,22.9-6.9,33.7,18.9,37.1
		c26,3.4,51.4-0.8,76.7-5.9c65.5-13.4,127.5-37,188.2-64.4c7-3.2,14-6.5,21-9.8c7.3-3.5,14.5-7,21.8-10.5c1.3-0.6,2.6-1.2,3.9-1.8
		C359,347.2,360.3,346.9,361.2,345.9z M160.6,384.7c-2-32.9-3.9-64.9-5.7-96.5c-0.1-0.9-1.1-1.2-1.7-0.6
		c-17.5,20.5-35.7,41.7-48.1,67.1c-2,4.2-4.5,11.3-5.4,15.8c-2,10,0.3,14.2,9.6,16.4c17.5,4.2,34.9,1.7,50.5-1.2
		C160.3,385.6,160.6,385.1,160.6,384.7z M705.6,281.6c-7.2-25.2-13.9-48.4-20.4-71.3c-0.2-0.5-0.7-0.8-1.3-0.6
		c-20.5,7.7-40.2,15.1-59.8,22.6c-1.4,0.5-3.2,1.8-3.4,2.9c-1.5,7.8-2.7,15.7-4,24.1c-0.1,0.6,0.4,1.2,1.1,1.1
		c32-4.6,59.1,5.3,86.3,22.2C704.9,283.1,705.8,282.4,705.6,281.6z M761.4,304.3c1.6-19.8-7-65.6-14.8-80.9
		c-0.4-0.9-1.7-0.6-1.8,0.4c-1.8,25-3.7,49.5-5.5,74.7c0,0.5,0.2,0.9,0.7,1c6.1,1.7,12.9,3.6,20.2,5.6
		C760.7,305.3,761.3,304.9,761.4,304.3z"/>
</g>
</svg>
