<svg id="Livello_1" data-name="Livello 1" xmlns="http://www.w3.org/2000/svg" viewBox="0 0 800 800"><defs><style>.cls-1{fill:#26475c;stroke:#fff;stroke-miterlimit:10;stroke-width:3px;}</style></defs><path class="cls-1" d="M267.84,434.15c-6.16-7.58-12.49-14.65-18-22.3-17.65-24.48-28-51.44-26.17-82.15.25-4.21-.91-6.68-4.79-9.14a35.75,35.75,0,0,1,2.45-62.16,7.25,7.25,0,0,0,4.34-6c9.81-55.64,41.35-92.67,95.07-110.66a9.5,9.5,0,0,0,4.56-4c3.49-5.81,8.24-9.05,15.15-9,12.77.05,25.55.08,38.33,0,7.38-.05,12.3,3.43,15.79,9.75a10,10,0,0,0,4.85,4.28q78.64,28.32,92.08,110.76a7,7,0,0,0,3.29,4.26c26.42,14.72,27.2,47.95,1.5,64.1-1.35.85-2.77,3.05-2.69,4.54,2.32,42.32-15.48,76.29-43.61,106.05-.36.38-.57.9-.3.47l43.9,21.43a2.47,2.47,0,0,1,.47.29c11.77,9,24.25,15.62,39.54,17.51,11.3,1.39,20.79,8.46,29.15,16.37,1.43,1.36,2.9,2.69,4.52,4.2,11.34-11.82,24.56-19.45,40.58-22.51,31.27-6,64.65,16.07,70.84,47.35,4.34,21.92-2.35,41.5-13.5,59.86-15.59,25.67-37.37,45.61-60.85,63.8-9.79,7.58-20.12,14.47-30.2,21.69-3.87,2.77-7.72,3.42-12.27,1.21-2.31-1.12-5.27-1.26-7.93-1.25q-105.12.08-210.25.25a26.92,26.92,0,0,1-8.62-1c-5.07-1.71-7.38-5.66-7-11a10.2,10.2,0,0,1,8.78-9.7,48.55,48.55,0,0,1,7.63-.44q79.41,0,158.81,0H527l.24-1.35c-7.47-6.55-15.1-12.91-22.36-19.68-18-16.77-34.05-35.14-43.74-58.12-6.36-15.06-9.3-30.68-4.86-47a8.63,8.63,0,0,0,0-2.16c-6.25,8.52-12.24,17.12-18.71,25.35s-12.55,8.53-20.18,1.13q-27.12-26.31-54.17-52.7c-1.43-1.39-2.89-2.74-4.71-4.46-1.57,1.4-3.05,2.64-4.43,4q-27.28,26.53-54.55,53.09c-7.63,7.43-13.51,7.16-20.26-.89-12.9-15.4-23.66-32-27.23-52.19-1.18-6.73-1.46-13.63-2.2-20.91a162.73,162.73,0,0,0-37.54,24.23c-32.18,27.5-51.16,63.1-62.61,103.15a268.09,268.09,0,0,0-6.29,28.77c-2.18,12.8,2.55,18.85,15.54,19.12,25.36.52,50.73.43,76.1.62a46.55,46.55,0,0,1,7.09.41,10.67,10.67,0,0,1,9.2,10,10.79,10.79,0,0,1-8.06,11,25.11,25.11,0,0,1-6.47.74c-22.27.05-44.55.3-66.81-.11A107.35,107.35,0,0,1,145.22,660c-15.25-3.94-23.67-15.58-24-31.34-.35-17.6,4.67-34.22,9.9-50.7,14.07-44.3,37.42-82.51,74.57-111.39,17.43-13.55,36.81-23.49,57.6-30.77ZM245,326.56c1,10.63.38,21.16,3.12,30.74,13,45.44,42.63,76.15,86.24,93.52,12.61,5,25.86,6.47,39.1,2.63,45.43-13.15,75.31-43.24,92.85-86.37,5.23-12.87,5.81-26.47,4.88-40.52ZM660.42,530.48c.08-19.3-12.25-35.08-31.46-40.25-18.65-5-38.94,3.36-52.27,21.57-6.49,8.87-12.25,8.31-19.46-.09-5.59-6.51-12.08-12.9-19.44-17.11-15.74-9-32-8-46.85,2.63-14.54,10.38-19.31,24.92-16.22,42.32,2.55,14.36,9.46,26.68,17.95,38.18,17.89,24.23,41,42.87,65.28,60.17,9.2,6.55,9.26,6.61,18.32.14,24.87-17.75,48.58-36.81,66.57-61.92C652.6,562.48,660.26,547.89,660.42,530.48ZM358.3,304.23h53.64c22.44,0,44.88.07,67.32-.1,7.85-.06,13.38-5.94,13.49-13.58.12-7.81-5-13.44-12.91-14.11-2-.17-4-.17-6-.17H242.88a62.34,62.34,0,0,0-6.56.25,13.61,13.61,0,0,0-12.25,13.7c0,8.49,6.18,14,16,14Q299.19,304.27,358.3,304.23ZM248.56,253.45c.32.16.64.45.95.46,19.13.06,38.26.18,57.39,0,1.37,0,3.44-1.85,4-3.29C321.56,223,323.19,194,323.52,164.81,290.81,169.6,246.53,222.16,248.56,253.45Zm220.08.63c-3.58-40-37.36-78.39-72.57-88.54-.06,29.2,2.18,57.93,12.71,85.4.57,1.5,3.41,2.95,5.23,3,10.21.29,20.43.14,30.64.14Zm-82.35-.26C374.38,220.05,373.94,185.5,374,151H345.72c-.14,34.81-.86,69.28-12.4,102.85Zm-52,220.78c-7.87-3.23-15.46-5.84-22.57-9.42-7.3-3.66-13.7-9.55-21.29-12-4.7-1.51-10.9,1.55-16.39,2.69-.34.08-.53,1.28-.64,2-3.55,22.28,3.26,41.5,17.3,59.16Zm50.35-1.17L425.48,518c13.92-17.57,20.88-35.7,18.4-56.78-.25-2.17-1.45-5.61-2.89-6-4.82-1.35-11.36-3.89-14.72-1.84C412.55,461.7,398.61,469.29,384.69,473.43Zm82.86-8.36c-2,12.54-3.83,24.43-5.23,33.37l23.6-23Z"/><path class="cls-1" d="M278.79,652.11a10.62,10.62,0,0,1,10.51-10.94A11.09,11.09,0,0,1,300.67,652c0,5.88-5.42,11.25-11.27,11.11A11,11,0,0,1,278.79,652.11Z"/><path class="cls-1" d="M576.79,577.94c0,5.9.05,11.73,0,17.55-.08,6.65-3.83,11-9.5,11.09-5.85.12-9.87-4.32-10-11.2-.1-5.48-.06-11-.1-16.43a9.92,9.92,0,0,0-.59-1.77c-5.51,0-11.29.05-17.08,0-7-.08-11.64-4-11.66-9.59s4.7-9.54,11.61-9.64c5.63-.07,11.27,0,17.81,0,0-6.66-.16-13,.05-19.24.21-6.07,4.5-10.26,9.93-10.16s9.22,4.22,9.52,10c.08,1.45,0,2.92,0,4.38v15c6.07,0,11.84,0,17.61,0,7.23.07,12.09,4.17,11.89,9.9s-4.79,9.25-11.89,9.33c-5.29.07-10.58.08-15.87.13A9.49,9.49,0,0,0,576.79,577.94Z"/></svg>