<svg id="Livello_1" data-name="Livello 1" xmlns="http://www.w3.org/2000/svg" viewBox="0 0 800 800"><defs><style>.cls-1{fill:#26475c;}</style></defs><path class="cls-1" d="M535.65,82.31a14.8,14.8,0,0,1,8.1,6.22c2.25,3.83,2.51,9.16,2.15,13.53-.52,6.36,0,12.8-.15,19.2-.24,9.69-5.59,15.26-15.29,15.86-4.26.26-8.55,0-13,0v61.62h24.83c17,0,21.84,4.74,21.84,21.5q0,12.08,0,24.16c0,12.79-5.67,18.45-18.44,18.54h-6.31v7.56c0,65.07-.1,130.13.1,195.2,0,11.19-3.08,20.13-12.71,26.5-1.41.94-2.21,3.73-2.26,5.68-.23,9.09-.34,18.19,0,27.26.32,9.46-2.61,16.61-12.48,19.72,0,10.5,0,20.82,0,31.13,0,14.32-4.53,19.23-19.72,20.58V603c0,34.08-.05,68.16,0,102.24,0,4.77-1.2,8.61-5.75,10.68-6.34,2.89-12.85-1.64-12.92-9.26-.14-18.17-.05-36.35-.06-54.53v-55.4l-4.51-.53c-9.84-1.15-15.09-7-15.14-16.91-.07-11.35,0-22.7,0-34.33-9.72-3-12.94-9.85-12.49-19.45.42-9.07.33-18.18-.08-27.25a10.28,10.28,0,0,0-3.56-6.8c-7.09-5.59-11.34-12.35-11.32-21.59,0-26.65-.05-53.29,0-79.94,0-6.9,3.44-10.74,9.17-10.81s9.49,4.14,9.5,11.23q.06,38.11,0,76.22c0,8.2,1.66,9.94,9.65,10q28.2.06,56.39,0c7.19,0,9.4-2.1,9.48-9,.11-9.25,0-18.5,0-28.48-8.93,0-17.33,0-25.73,0-6.67,0-10.91-3.56-11.08-9.06-.16-5.67,4.26-9.45,11.27-9.49,8.23-.05,16.46,0,25.12,0V398c-9,0-17.79.16-26.59-.06-5.58-.14-10-4.32-9.73-9.26.22-4.73,2.53-8.33,7.58-9.19a46.88,46.88,0,0,1,7.41-.38c7,0,14,0,21.34,0V356.89c-8.26,0-16.46.4-24.59-.18-3.37-.24-7.44-1.8-9.59-4.2-1.68-1.88-2.24-6.89-.89-8.86a14.38,14.38,0,0,1,9.25-5.7c8.38-.79,16.88-.26,25.78-.26V315.52c-6,0-12.14,0-18.27,0-2.89,0-5.79.09-8.66-.16-5.68-.49-9.58-4.53-9.43-9.5s4.26-9.06,9.85-9.18c8.66-.2,17.33-.06,26.48-.06V263.42H445.2v7.44c0,26.44,0,52.88,0,79.32,0,6.37-4.2,10.75-9.64,10.57-5.26-.17-8.79-4.26-9-10.51-.06-1.65,0-3.3,0-4.95V263c-3.47,0-6.3.08-9.13,0-9.27-.32-15.39-6.44-15.49-15.72-.12-10.53-.08-21.07,0-31.6s5.91-16.46,16.41-16.82c4.95-.17,9.91,0,14.87,0h14.76V137.21c-3.8,0-7.65.12-11.48,0-10.53-.41-16-5.65-16.5-16.11-.33-7.63,0-15.28-.09-22.92a19.47,19.47,0,0,1,3.35-11.07c1.91-2.51,5.31-5,8.65-5,25.66.12,51.33,0,77,0,8.41,0,16.94-.43,25.33,0A7.11,7.11,0,0,1,535.65,82.31ZM545,218.46H420.74v25.22H545Zm-77.18-80.87v60.72h30.44V137.59Zm59-36.53H439.33v16.7h87.52ZM460.56,525.49H505v-29.3H460.56Zm12.45,51h19.57V545.75H473Z"/><path class="cls-1" d="M258.15,561c-10.59-2-14.62-6.7-14.71-17-.07-8.88-.1-17.76,0-26.63.16-12.47,7.78-20,20.12-20,9.29,0,18.58-.08,27.87,0,6.24.06,10,3.69,10,9.27s-3.81,9.18-10.07,9.25c-9.26.1-18.53,0-28.26,0v25.7H355.7V515.88c-8.21,0-16.4,0-24.6,0-7.14,0-11.17-3.6-11-9.57.15-5.68,4.08-8.94,11-9,8.46,0,16.93-.07,25.39,0,10,.09,17.73,6.39,18.37,16.37a311.34,311.34,0,0,1,.07,34c-.37,7.81-4.55,11.14-14.65,13.58-.86,9.54.92,18.48,7.46,25.81,10.48,11.75,14.45,25.46,14.24,41-.3,22.5-.36,45,0,67.52.2,11.43-6.45,21.52-21.37,21.27-34.47-.59-69-.18-103.44-.19-13.29,0-20.06-6.82-20.08-20.24,0-23.95.11-47.9-.06-71.85-.09-13.59,3.85-25.61,12.82-35.81C256.81,580.83,259.57,571.78,258.15,561ZM362.31,697.83c.16-1.49.35-2.49.35-3.49q0-35.91,0-71.81a32,32,0,0,0-8.4-22,49.71,49.71,0,0,1-12.45-26.44c-.62-4.39-.76-8.85-1.09-13H278.09c-1.7,20.58-4,28.36-12.69,38.3-6.78,7.74-9.66,16.49-9.6,26.61.14,21.87,0,43.75.06,65.62,0,2,.18,4,.28,6.23Z"/></svg>