<?xml version="1.0" encoding="utf-8"?>
<!-- Generator: Adobe Illustrator 28.4.1, SVG Export Plug-In . SVG Version: 6.00 Build 0)  -->
<svg version="1.1" id="Livello_1" xmlns="http://www.w3.org/2000/svg" xmlns:xlink="http://www.w3.org/1999/xlink" x="0px" y="0px"
	 viewBox="0 0 559.8 744.2" style="enable-background:new 0 0 559.8 744.2;" xml:space="preserve">
<style type="text/css">
	.st0{fill:#26475C;}
</style>
<g>
	<path class="st0" d="M537.3,383.3c-1.5-1.2-3-2.4-4.6-3.8c0,0,0,0,0,0c1-2.5,2-4.7,2.9-6.9c23.6-58.7,22.5-117-5-174.1
		c-18.1-37.4-47.2-65.2-81.2-88.4c-3.1-2.1-6.1-5.9-7-9.4C427.9,41.8,374.8,0,314.1,0C253.3,0,200.3,41.9,186,100.9
		c-0.7,3-3.1,6.2-5.6,8.2c-11,8.9-23,16.6-33.4,26.1c-58.3,52.5-80,118.1-66.9,195c2.8,16.6,8.9,32.6,13.8,49.8c0,0,0,0,0,0
		c-0.8,0.6-2.7,2-4.5,3.6c-18.9,16.4-26.4,36.7-20.2,61.2c6.3,25.1,27.7,42.7,53.6,43.8c7.1,0.3,10.2,2.5,12.2,9.4
		c1.3,4.3,2.9,8.5,4.8,12.7c4.2-5.5,9.1-10.4,14.5-14.7c-4.1-11.1-6.8-22.9-7.6-35.5c-2-31.1-2-62.3-1-93.5c0-0.8,0.1-1.6,0.1-2.3
		c0.3-5.2,0.9-10.4,1.9-15.6c1-5,2.4-9.9,4.1-14.6c1.7-4.7,3.8-9.3,6.2-13.7c2.4-4.4,5.2-8.7,8.2-12.7c3.1-4.1,6.5-8,10.2-11.7
		c1.9-1.9,3.8-3.7,5.8-5.5c1.9-1.7,4.1-3.1,4.6-5.8c0.2-1.2,0.1-2.5-0.4-3.7c-1.4-3.5-5.4-6.8-9.1-7.4c-3.1-0.5-6.4,0.4-8.8,2.5
		c-14.6,13-25.3,28.6-33.1,46.7c-9.2,21.4-10.7,44-10.7,66.9c0,0,0,0,0,0c-16.8-26.1-26.1-54.3-28-84.9
		c-2.6-41.3,4.9-80.5,28.7-114.9c35.1-50.8,83.1-83.7,143.6-97.2c12-2.7,24.4-3.8,36.7-5.2c4.4-0.5,7.8-4.3,7.8-8.8v-1.1
		c0-5.3-4.4-9.7-9.8-9.5c-32.6,1.4-63.4,9.5-93.6,23.4c0,0,0,0,0,0c20.1-54.7,80.8-84,136.7-67.1c56.1,16.9,89.9,75.4,76.3,131.8
		c-12.6,52.2-56,86.2-111,86.8c-23.4,0.3-46.9-0.1-70.3,0.9c-13,0.5-25.5,3.8-37.5,9.3c-4.5,2.1-6.4,7.5-4.2,12l0.1,0.1
		c2.6,5.1,8.7,7.5,14,5.3c16.2-6.5,33-8.1,50.1-7.9c16.1,0.2,32.3-0.1,48.4,0.1c31.5,0.2,59.4-9.6,84.2-28.9c2.4-1.8,6.7-3,9.7-2.6
		c45.3,6.1,76,41.2,76.3,87.1c0.2,41.1,0.1,82.3,0.1,123.4c0,19-3.2,37.4-10.4,55c-1.4,3.4-2.9,6.7-4.5,10.1
		c-2,4.3-0.3,9.3,3.8,11.6l0.2,0.1c5.4,3,12.3,0.7,14.8-5c2.6-5.9,5.1-11.7,6.9-17.6c1.9-6.1,4.8-7.6,10.6-7.9
		c24.5-1.2,45.1-17.5,52.6-40.9C564.5,424.2,556.7,398.7,537.3,383.3z M104.5,397.6C104.5,397.6,104.5,397.6,104.5,397.6
		c6.4,9.2,12.9,18.4,19.2,27.7c1,1.5,1.5,3.7,1.5,5.5c0.1,12.3,0.1,24.7,0.1,37.4c0,0,0,0,0,0c-11.9,2.9-29.4-8.2-35.7-23.9
		C82.7,427,89.3,406.5,104.5,397.6z M422.6,214.3c-1.3-0.4-2.5-0.7-4.7-1.3c0,0,0,0,0,0c18.1-23.9,27.2-50.2,28.1-80.7c0,0,0,0,0,0
		c38.3,28,67.1,61.5,79.1,107.1c13.9,52.8,7.7,103.1-21.9,150.3c0,0,0,0,0,0c-0.1-2.2-0.4-4.4-0.4-6.7c0-21.2,0.1-42.5,0-63.7
		C502.4,270.2,469.7,227.5,422.6,214.3z M538.6,439.7c-4.6,17.1-19.9,29.1-35.8,28.8c0,0,0,0,0,0c0-13-0.1-25.5,0.1-38
		c0-1.7,0.5-3.6,1.4-4.9c6.2-9.1,12.5-18.1,18.7-27.1c0,0,0,0,0,0C536,405.3,542.9,423.7,538.6,439.7z"/>
	<path class="st0" d="M461.5,536.8l-0.3-0.2c-4-2.9-9.5-2.1-12.7,1.7c-31.5,37.9-70.2,63.1-116.8,73.4c-11.1,3-21.5,1.7-21.5,1.7
		c-38.8-4.4-70.5-21.2-99.5-43.8c-4.8-3.6-10.4-8.7-15-13.2c-0.1,1-0.5,2.1-1.4,2.9c-4.1,3.8-8.1,7.8-12.8,10.7
		c3.3,3,5.5,4.8,5.5,4.8c7,5.9,13.8,12.1,21.2,17.5c5,3.7,7,7.3,6.9,13.5c-0.2,20.6,0,41.3,0.2,62c0.1,6.5,5.3,11.7,11.8,11.7
		c3.9,0,7.2-3,7.5-6.9c0.1-1.6,0.2-3.3,0.2-4.9c0.1-16.6,0-33.2,0-49.7v-8.9c0,0,0,0,0,0c53.1,31.3,105.4,31.3,158.3,0.1
		c0,0,0,0,0,0v60.1c0,5.6,4.6,10.2,10.2,10.2c5.4,0,9.7-4.3,9.7-9.7c0-22,0.1-44,0-65.9c0-4.2,0.9-7.1,4.5-9.6
		c3.3-2.3,6.7-4.6,9.8-7.1c13.3-10.7,25.5-22.3,36.1-35.9C467.1,546.6,466.2,540.2,461.5,536.8z"/>
	<path class="st0" d="M184.9,375.3c4.4-3,10.3-1.9,13.4,2.3c6.8,9.3,17.5,10.1,29.3,9.5c9.8-0.5,19.6-0.3,29.6-0.2
		c5.1,0.1,9.3,4.2,9.3,9.3v3.8c0,3.8-3.1,6.8-6.8,6.9l0,0c-12.8,0-25.7-0.6-38.4,0.2c-17.2,1-29.8-5.1-38.9-18
		C179.2,384.6,180.4,378.4,184.9,375.3L184.9,375.3z"/>
	<path class="st0" d="M434.8,375.3c-4.4-3-10.3-1.9-13.4,2.3c-6.8,9.3-17.5,10.1-29.3,9.5c-9.8-0.5-19.6-0.3-29.6-0.2
		c-5.1,0.1-9.3,4.2-9.3,9.3v3.8c0,3.8,3.1,6.8,6.8,6.9l0,0c12.8,0,25.7-0.6,38.4,0.2c17.2,1,29.8-5.1,38.9-18
		C440.5,384.6,439.2,378.4,434.8,375.3L434.8,375.3z"/>
	<path class="st0" d="M352.9,507.9l0.1,0.2c1.3,5.5-2.4,10.8-7.9,11.8c-21.2,3.8-42.1,3.7-63.4,0c-5.5-1-9.2-6.3-7.9-11.8
		c0-0.1,0-0.1,0-0.2c1.1-5.1,6.1-8.4,11.3-7.5c18.8,3.2,37.6,3.3,56.7,0C346.9,499.6,351.8,502.9,352.9,507.9z"/>
</g>
<g>
	<path class="st0" d="M142.4,744.1c-1.3,0.3-2.8,0.1-4.1,0.1c-2.8,0-5.6,0-8.4,0c-11.2,0-22.3,0-33.5,0c-18.6,0-37.3,0-55.9,0.1
		c-15.6,0.1-27.7-5.9-35.2-19.5c-7.5-13.7-6.2-27.2,2.5-40.2c0.7-1,0.7-3.3,0.1-4.4c-12.8-22.4-9.9-44.6,8.5-63
		c43.2-43.2,86.4-86.4,129.6-129.6c10-10,16.6-10.2,27.6-0.9c6.4-6.5,12.8-13.1,19.4-19.6c5.4-5.4,12.7-9,20.3-9.7
		c8.5-0.9,15.6,2.3,21.9,7.7c3.2,2.7,5.7,6.1,7.5,9.9c2.9,6.3,3.7,13.5,1.7,20.2c-1.5,5-4.5,9.5-8.1,13.3
		c-6.7,6.9-13.7,13.6-20.5,20.3c9.3,10.5,9,17.7-0.6,27.4c-43,43-86.3,85.7-128.8,129.1c-19.3,19.7-46.3,21.5-65,8.6
		c-0.2-0.2-0.6-0.1-1.2-0.3c-5.1,6.5-6,13.8-3.2,21.3c3,8.1,9.1,12.8,17.7,14.1c2.1,0.3,4.4,0.2,6.5,0.2c22.3,0,44.5,0,66.8,0
		c6.5,0,12.9,0,19.4,0c3.2,0,6.5,0,9.7,0c5,0,10.5,0.2,10.8,6.5c0.1,2.8-1.5,6.5-4,7.9C143.2,743.8,142.8,744,142.4,744.1z
		 M160,495.7c-35,35-70.1,70.1-104.9,104.9c15.3,15.3,31,31,46.4,46.4c34.8-34.8,69.9-70,104.8-104.9
		C191.1,526.9,175.4,511.2,160,495.7z M44,612.9c-7.3,6.7-15.6,13-22.1,20.8c-10.9,13-9.2,30.7,2.9,43.2c12,12.4,29.9,14.5,43.1,4.1
		c8.2-6.5,15.3-14.4,22.7-21.4C74.4,643.3,58.7,627.6,44,612.9z M205.1,518.2c7.1-7.1,14.3-13.9,21.1-21.2c5.3-5.6,5.2-14.4,0.2-20
		c-5-5.6-13.9-7.3-19.3-2.3c-8,7.3-15,15.6-22.2,23.3C191.1,504.3,198,511.1,205.1,518.2z"/>
</g>
</svg>
