<svg id="Livello_1" data-name="Livello 1" xmlns="http://www.w3.org/2000/svg" viewBox="0 0 800 800"><defs><style>.cls-1{fill:#26475c;}</style></defs><path class="cls-1" d="M306.6,584.85c0-31.54.18-62.25-.09-93-.09-10.5-8.11-18.23-18.68-18.28q-64.62-.24-129.24,0c-10.9,0-18.72,7.86-18.79,18.75-.21,30.52-.07,61-.07,92.48,9.15,0,18.13.08,27.11,0,4.63-.05,7.86,1.95,9.49,6.15A9,9,0,0,1,168,603.3c-12.74.24-25.5.2-38.25,0-5.12-.08-8.55-3.76-8.56-9-.07-35.16-.15-70.33.1-105.5,0-8.16,4.14-15.05,9.11-21.47a9.17,9.17,0,0,0,1.58-7c-10.11-36.11-13.67-72.88-9.24-110,2.2-18.46,7.09-36.62,11.14-54.83,1.46-6.55,6.65-9.59,11.8-8,5.64,1.7,8,6.76,5.93,13.56a269,269,0,0,0-11.78,86.19c.64,23,3.77,45.67,10.52,67.8h90.72c-2.24-13.35-4.72-26.39-6.56-39.51-3.55-25.41-2.89-50.89.52-76.24,3.7-27.48,11-53.94,24.17-78.56A140.55,140.55,0,0,1,288,223.12h-23c-11.79,0-23.59.42-35.35-.1-20-.87-35.56,7.5-48.12,22.14-5.37,6.26-9.84,13.33-14.43,20.22-4.06,6.08-9,8-14,5s-5.86-8.46-2.25-14.66c9.95-17.08,22.09-32.13,39.54-42.18a64.84,64.84,0,0,1,33.06-9q56.5.15,113-.1c7.19,0,10.74,4.37,13,9.67a49.48,49.48,0,0,1,1.79,35.63c-2.86,8.82-6.69,10.44-16,10.87-3.48.15-7.37,2.3-10.14,4.64-9.51,8-15.19,18.85-20.2,30-8.95,19.9-13.3,41-15.6,62.54-.13,1.29,0,2.61,0,4.48,7.46,0,14.59.41,21.66-.08,24.71-1.71,44.54,13.17,50.74,37h167.1v-36.9h-6.26c-18.93,0-37.86,0-56.8,0-7.37,0-10.71-3.25-10.71-10.48q0-73,0-146.08c0-7,3.32-10.32,10.26-10.34q35.93-.09,71.86,0c6.87,0,10.7,3.54,10.56,9.48-.12,5.59-4,9-10.44,9-18.94,0-37.87,0-56.8,0h-6.59V343.23H658.6V213.84h-6.23c-25.31,0-50.62,0-75.92,0-7.36,0-12-5.81-9.79-12.14,1.39-4,4.3-6.36,8.72-6.36q46.36,0,92.73,0c6.06,0,9.36,3.65,9.4,10,.08,12.36,0,24.73,0,37.1q0,53.61,0,107.24c0,9.91-2.66,12.53-12.76,12.53H603.7v37.11h5.88q28.39,0,56.79,0c8.07,0,11.14,3.11,11.16,11.22q0,26.09,0,52.17c0,6.87-3.45,10.79-9.27,10.78S659,469.61,659,462.72c0-14.67,0-29.34,0-44.41H290.56c3,12.34,5.93,24.25,9,36.69H626.73a46.5,46.5,0,0,1,5.79.09,9,9,0,0,1,7.91,9.16,9.08,9.08,0,0,1-7.89,9.21,5,5,0,0,1-1.73,0c-9.95-2.24-14,3.18-18.42,11.41-6.88,12.87-10.32,25.78-9.16,40.3.75,9.41-1.91,19.63.93,28.17s10.62,15.4,16.24,23c2.76,3.73,6.15,7.14,8.11,11.24,1.5,3.12,2.64,7.82,1.29,10.48s-6,5-9.17,5.06c-51.58.31-103.16.24-154.74.2-9.51,0-13.46-6.5-9.21-15.19,4.92-10,10.11-19.95,14.95-30a18.79,18.79,0,0,0,1.83-7.68c.18-13.91.21-27.83,0-41.73a13.85,13.85,0,0,0-2.47-7.3c-5.92-8.34-12-16.55-18.41-24.55a9.32,9.32,0,0,0-6-3.2,199,199,0,0,0-21.43,0,7,7,0,0,0-4.82,3.38Q410.37,496,401,515.19a16.74,16.74,0,0,0-1.6,7.08c-.12,23.19-.06,46.37-.08,69.56,0,8.49-3,11.55-11.41,11.55H206.53c-7.4,0-11.28-3.35-11.16-9.47.11-5.8,4-9,11-9q46.65,0,93.31,0ZM279.82,455a13.41,13.41,0,0,0-.15-2.39c-11.62-38.37-13.07-77.38-6.45-116.7,4.39-26,12.34-50.91,28.14-72.58,7.4-10.14,16.22-18.54,29-21.73,1.61-.4,3.31-2.9,3.8-4.73.62-2.33.16-5,0-7.48-.35-4.17-2.2-6.19-6.86-5.41-9.43,1.59-17.48,5.87-24.73,11.83-15.46,12.71-25.58,29.32-32.92,47.55C248,337,246.1,392,259.35,447.88c1.37,5.78,3.71,8.11,9.64,7.22C272.38,454.59,275.9,455,279.82,455ZM492.5,510.89V547.3h92V510.89Zm104.73-37H474.05c4.48,6,8.37,11.45,12.52,16.66a5.78,5.78,0,0,0,4,1.5q47.21.12,94.43,0a5.45,5.45,0,0,0,4.12-2.08C592,484.92,594.36,479.69,597.23,473.88ZM603,584.61c-4.49-6-8.15-11.2-12.18-16.09a7,7,0,0,0-4.84-2.14q-46.92-.18-93.84,0c-1.46,0-3.63.79-4.24,1.9-2.89,5.15-5.35,10.54-8.2,16.34ZM380.55,538.73c-16.31,14.14-34.51,19.79-55.1,18v27.77h55.1Zm-55.15-1.82c10.15,3.17,19.74,1.23,28.59-3.31,24.54-12.59,36.7-35.09,47.36-60.06-6,0-10.92.24-15.85-.08-3.3-.22-4.46,1.38-6,4-5.42,9.06-10.56,18.45-17.17,26.6-9.23,11.37-20.71,19.21-36.93,14.56Zm222.72-174.4V398.9h36.4V362.51ZM341.61,399.12c-3.69-9.29-9.87-15.72-19.14-17-11.14-1.54-22.53-1.28-34.56-1.83.44,7,.81,12.82,1.19,18.83Zm18.8,74.69H321.59c1.19,5.71,3,11.42,3.44,17.23.71,8.76,7.58,12.84,15.07,8C349.39,493,355,483.91,360.41,473.81Z"/><path class="cls-1" d="M492.09,259.67c0-5.59,0-11.19,0-16.78.07-7,3.27-10.41,10.11-10.46q17.65-.12,35.3,0c6.87,0,10.14,3.4,10.18,10.4q.09,17.35,0,34.72c0,7-3.3,10.42-10.12,10.47q-17.66.12-35.3,0c-6.87,0-10.09-3.41-10.17-10.41C492,271.63,492.09,265.65,492.09,259.67Zm18.8,9.43h17.84V251.24H510.89Z"/><path class="cls-1" d="M607.84,288c-10.22,0-20.44,0-30.66,0-6.93,0-10.82-3.33-10.89-9.12s3.75-9.37,10.61-9.39q30.95-.06,61.9,0c6.94,0,10.83,3.32,10.91,9.11.08,6-3.89,9.38-11.21,9.4C628.28,288.07,618.06,288,607.84,288Z"/><path class="cls-1" d="M613.12,232.41c6,0,12-.11,17.92,0,5.8.15,9.5,4,9.39,9.44a8.86,8.86,0,0,1-9.22,9q-18.5.21-37,0c-5.78-.06-9.48-4-9.38-9.44.1-5.2,3.69-8.87,9.22-9C600.4,232.29,606.76,232.41,613.12,232.41Z"/></svg>