<?xml version="1.0" encoding="UTF-8"?>
<svg id="Livello_1" xmlns="http://www.w3.org/2000/svg" version="1.1" viewBox="0 0 658.59 798.9">
  <!-- Generator: Adobe Illustrator 30.0.0, SVG Export Plug-In . SVG Version: 2.1.1 Build 123)  -->
  <defs>
    <style>
      .st0 {
        fill: #26475c;
      }
    </style>
  </defs>
  <path class="st0" d="M475.11,156.04v33.71c0,21.02,33.44,45.35,46.27,60.34,14.7,17.17,22.86,34.23,24.35,57.17l-.08,272.1c85.62-1.82,141.64,90.5,97.48,165.66-30.17,51.36-98.7,69.82-150.23,38.46-15.88,7.62-32.03,13.95-49.88,15.42l-343.41-.25c-53.98-5.04-95.49-48.16-99.62-102.45l.09-393.56c2.33-20.38,11.13-37.24,24.25-52.57,13.03-15.21,46.27-39.09,46.27-60.34v-33.71h-35.28c-5.64,0-11.14-9.36-11.8-14.86-4.66-39.03,3.58-87.06,0-127.07.83-6.98,4.27-12,10.97-14.11h476.69c6.72,2.12,10.14,7.15,10.97,14.11-2.99,40.27,3.85,85.93.04,125.54-.57,5.94-5.11,16.38-11.84,16.38h-35.28ZM117.65,30.61h-62.71v94.07h435.85V30.61h-59.58v50.95c-.48,10.54-10.47,12.12-16.43,11.87-5.44-.23-14.42-2.98-14.93-11.87V30.61h-62.71v50.95c-.25,9.44-10.47,12.12-16.43,11.87-5.44-.23-14.56-2.25-14.93-11.87V30.61h-62.71v50.95c-.39,8.34-9.54,12.43-16.43,11.87-5.43-.44-14.7-2.98-14.93-11.87V30.61h-62.71v50.95c-.35,8.89-10.47,12.12-16.43,11.87-5.44-.23-14.84-2.8-14.93-11.87V30.61ZM443.75,156.04H101.97v35.28c0,10.84-9.67,31.33-15.94,40.5-18.63,27.18-56.78,43.56-54.61,81.01h215.57c10.2,1.28,12.12,10.47,11.87,16.43-.23,5.44-2.82,15.03-11.87,14.93H31.42v305.72h415.47c10.71-29.98,36.83-55.24,67.42-64.28v-241.44h-149.73c-9.68-1.37-12.1-10.46-11.87-16.42.18-4.75,2.74-13.82,11.87-14.93h149.73c1.73-37.45-36.03-53.9-54.61-81.01-5.6-8.17-15.94-29.51-15.94-38.93v-36.84ZM625.62,673.41c-18.57-82.78-135.23-83.12-153.65,0h153.65ZM439.05,681.25H31.42c-3.26,45.22,30.82,86.84,76.26,90.01,75,2.03,224.03,3.82,332.22-3.71,3.99-.28,25.73-3.39,25.77-7.12-18.82-21.83-28.17-50.26-26.62-79.18ZM625.62,704.77h-153.65c18.81,83.27,135.07,83,153.65,0Z"/>
  <path class="st0" d="M242.72,407.32c17.09-1.98,33.55,2.64,47.24,13.02,14.3,10.84,60.39,57.93,66.26,73.27,23.44,61.17-48.31,112.45-99.87,70.08-14.7-12.08-57.57-55-63.74-71.09-14.42-37.64,9.58-80.59,50.1-85.29ZM245.83,438.66c-21.26,2.83-32.03,26.52-22.88,45.58,3.65,7.61,12.26,13.58,17.77,19.83l44.65-44.65c-11.75-12.26-20.74-23.26-39.54-20.75ZM308.13,482.17l-44.65,44.65c13.44,18.04,38.54,31.04,57.25,11.81,18.87-19.39,4.94-42.8-12.6-56.47Z"/>
  <path class="st0" d="M302.25,313.15c22.36-4.29,25.97,28.63,5.74,30.98-20.66,2.4-24.2-27.45-5.74-30.98Z"/>
</svg>