<svg id="Livello_1" data-name="Livello 1" xmlns="http://www.w3.org/2000/svg" viewBox="0 0 800 800"><defs><style>.cls-1{fill:#26475c;stroke:#fff;stroke-miterlimit:10;stroke-width:4px;}</style></defs><path class="cls-1" d="M257.58,233.81c10.87-49.89,71.6-70.08,110.06-31.15A67.82,67.82,0,0,1,403.77,183c37.28-7.52,75.59,25.13,73.84,63.11-.29,6.34-5.16,11.48-11.11,11.72-6.18.25-10.56-4.1-11.77-10.86-1.14-6.35-1.87-13.07-4.54-18.8-12.82-27.51-50.75-30.7-68.29-6a13.3,13.3,0,0,0-2.69,6.93c-.17,26.67-.1,53.35-.07,80a8.92,8.92,0,0,0,.44,1.86c18.88,5.5,32.09,17.19,37.95,36.25a55.92,55.92,0,0,1,2,14.55c.23,6.75-4.37,11.43-10.69,11.71-6.48.3-11.35-3.7-11.91-10.48-.92-11.09-5-20.21-14.84-26.14a17.46,17.46,0,0,0-2.62-1v127c8.7.54,17.65-.1,25.93,2,6.78,1.7,13.19,6,18.94,10.28a11.42,11.42,0,0,1,1.89,17.18c-4.55,5-11,5.25-16.9.19-7.75-6.7-16.21-8.44-25.82-4.92-3.1,1.14-4.57,2.8-4.55,6.48.14,43.87.06,87.74.18,131.6a12.78,12.78,0,0,0,2.13,6.5c8.62,13.25,25.4,20.47,40.67,17,16.94-3.81,27.45-14.5,31.86-31.61-3.77-2.07-7.5-3.81-10.92-6-18.15-11.78-27.83-28.62-29.19-50.14-.53-8.47,3.86-13.7,10.94-14,7.28-.27,11.78,4.37,12.41,12.79,1.59,21.21,15.19,35.4,36.2,37.77,20.23,2.29,42-16.48,40.82-35.51-3.93-.8-8-1.37-11.94-2.48a64.84,64.84,0,0,1-46.87-58.45c-.51-8.79,3.54-14.38,10.74-14.82,7.65-.48,12.23,4.49,12.64,13.72,1,22.66,20.43,39.85,43.76,38.75,21.23-1,39-20.61,38.19-42.1a11.14,11.14,0,0,0-.25-1.85c-9.73,0-19.13.39-28.48-.11-8.39-.45-12.82-6.23-11.64-13.82,1-6.57,7.08-10.26,14.76-9,18.71,3.09,37.66-6.6,46.89-24a45,45,0,0,0-7-51.62c-.79-.82-1.74-1.49-2.83-2.41-10.25,13.44-23.19,22.22-39.56,25.55a64.32,64.32,0,0,1-10,1.28A11.75,11.75,0,0,1,510,410.39c-.47-6.14,4.43-11.51,11.16-12.21,23.57-2.46,37.9-17,39.5-40.2.53-7.78,5.29-12.46,12.36-12.15,6.86.29,12.41,6,10.73,13.36-2.21,9.73,1.53,15.33,8.07,22.1,27,27.94,24.3,72-5.34,98.06-3.06,2.68-4,5.1-3.45,9,4.06,31.44-11.3,57.63-40.58,70.07-1.86.8-4,3.34-4.21,5.27-3.74,32.93-26.37,54.9-59.49,57.42a10.09,10.09,0,0,0-1.66.42C466,671.4,406.05,691.62,367.43,653.09c-39.15,39-99.11,17.48-109.83-31.72a60.63,60.63,0,0,1-36.1-12.5c-14.88-11.4-23.35-26.36-25-45.17-.16-1.81-1.9-4.48-3.5-5-25.05-8.55-47.32-37.61-41.1-71.95.63-3.51-.87-4.89-3-6.75-32.89-28.41-32.83-76.44.18-104.7,2.52-2.15,3.27-3.92,2.8-7.39-4.36-31.86,11.22-58.66,40.77-71.13,1.71-.72,3.69-3,3.87-4.76,3.15-31.39,26.31-54.65,57.67-57.65C255.34,234.24,256.49,234,257.58,233.81Zm-57.72,83.82c-5.85,4.65-11.63,8-15.71,12.73C173.33,343,171.53,357.69,177.56,373c6.29,16,18.81,23.67,35.57,25.13,7.17.63,12.22,6,11.68,12.31-.57,6.56-6.19,11.17-13.25,10.69a73.71,73.71,0,0,1-9.37-1.24c-16.36-3.33-29.26-12.16-39.5-25.51-1.37,1.27-2.6,2.24-3.63,3.4a45.13,45.13,0,0,0-6,51.3,45.62,45.62,0,0,0,46.78,23.22c7.44-1.18,13.28,2.23,14.6,8.55,1.42,6.78-2.28,13-9.29,14a108.89,108.89,0,0,1-18.25.82c-4-.08-8.07-1.07-12.08-1.65-4.36,25.53,21.62,49.84,47.22,44.71,19.93-4,32.62-18.57,34-39.12.61-8.68,5.42-13.48,12.9-12.87s11.42,6.82,10.39,16.82c-3,28.92-23.13,51.41-51.58,57.61-2.42.52-4.89.83-7.24,1.22a20.64,20.64,0,0,0-.27,2.3,10.3,10.3,0,0,0,.23,2.35c3.59,14.26,12,24.38,26.08,29s27,1.8,38.07-7.94c8.42-7.37,12.57-16.84,13.14-28.11.44-8.55,5.25-12.94,12.56-12.54,6.84.38,10.9,5.4,10.65,13.63a61.21,61.21,0,0,1-12.43,35.12c-7.08,9.59-16.45,16.25-27.15,20.92,2.35,15.53,14,27.74,30,31.72a39.51,39.51,0,0,0,41.22-15.57,17.23,17.23,0,0,0,2.84-9.22c.19-37.74.12-75.48.12-113.22v-6.12l-4.11.73c-16,2.82-30.16-1-41.94-12.41-5.38-5.19-5.15-12.64.14-17.22,4.76-4.14,10.32-4,16,.84,7.37,6.26,15.52,8.19,24.77,5.21,3.5-1.12,5.29-2.91,5.26-7.18-.21-32.4-.11-64.81-.14-97.21a40.2,40.2,0,0,0-.59-4.69c-1.49.76-2.4,1.12-3.19,1.64-9,5.88-12.86,14.39-13.77,24.89-.64,7.36-5.76,11.68-12,11.34-6.53-.36-10.9-5.55-10.92-13-.08-20.92,14.4-40.77,35-48.07l5.41-2c0-39.88.06-79.39-.14-118.9,0-2.47-1.6-5.25-3.18-7.34a40,40,0,0,0-66.76,4.19c-14.9,25.67,2.79,58.43,32.4,60,9.41.5,14.2,4.84,13.86,12.54-.32,7.41-5.94,11.56-15.23,10.84a63.77,63.77,0,0,1-33.45-12.16C269.7,287,261.63,273.58,258,257.56c-19.34.54-35.05,13.91-37.64,31.7-3.09,21.24,7.16,38.05,27.23,44.68,8.35,2.76,11.95,8.08,9.93,14.71-2.19,7.15-8.32,9.9-16.7,7.44-1.32-.39-2.62-.87-3.91-1.37C219.74,348.19,207.9,336.14,199.86,317.63Z"/><path class="cls-1" d="M594,178.11c6-8.75,11.58-17.3,17.5-25.64,12.1-17,28.66-26.08,49.54-26.92,7.57-.3,12.7,4.09,13.23,10.62s-4,12.19-11.48,12.45c-16.75.58-27.89,9.26-36.29,22.87-4.13,6.69-8.77,13-13.29,19.72,1.44,1.2,2.65,2.18,3.83,3.19,12,10.28,14.81,25.77,6.06,38.84C599.59,268.32,576,303.34,551.82,338c-8,11.4-20.27,18.32-33.11,22.87-6,2.14-13.41.37-21,.37-15.76,23.17-32.06,47.12-48.35,71.08-1,1.47-1.91,3-3,4.42-4.28,5.65-10.83,7.08-16.13,3.57-5.53-3.66-6.95-10.64-2.93-16.68,9.4-14.12,19-28.09,28.56-42.13l22.85-33.65c-14.42-21.57-8.27-42.62,3.65-61.53,20.7-32.86,43.77-64.22,65-96.76C557.21,174.44,573.41,165.47,594,178.11ZM577.72,259,544,236.15c-13.58,20-26.26,39.49-39.87,58.32-6.48,9-8.42,18.94-9.95,29.2-1.13,7.53,11.77,18.21,18.45,14.82,7.43-3.78,15.64-8.17,20.42-14.6C548.55,303.06,562.64,281.17,577.72,259Zm13-19.22c4.41-6.46,8.43-12.28,12.36-18.17,2.42-3.64,2.34-7.11-1.49-9.76-7.6-5.27-15.11-10.73-23.08-15.38-1.9-1.1-6.7-.29-8.09,1.38-4.86,5.82-8.82,12.4-13.38,19.06Z"/><path class="cls-1" d="M303.08,422.09c.24,23-17.93,42.59-41.32,44.59-8,.68-13.84-3.55-14.44-10.5-.64-7.39,4.07-12.12,12.82-12.87,10.15-.87,18.38-8.59,19.48-18.26a21.11,21.11,0,0,0-14.83-22.78c-2.23-.66-4.67-.59-7-1-7.08-1.24-11.05-6.08-10.48-12.69.54-6.4,5.51-10.52,12.67-10.51C282.88,378.13,302.84,398.51,303.08,422.09Z"/></svg>