<?xml version="1.0" encoding="utf-8"?>
<!-- Generator: Adobe Illustrator 28.4.1, SVG Export Plug-In . SVG Version: 6.00 Build 0)  -->
<svg version="1.1" id="Livello_1" xmlns="http://www.w3.org/2000/svg" xmlns:xlink="http://www.w3.org/1999/xlink" x="0px" y="0px"
	 viewBox="0 0 762.9 631.9" style="enable-background:new 0 0 762.9 631.9;" xml:space="preserve">
<style type="text/css">
	.st0{fill:#26475C;}
</style>
<g>
	<path class="st0" d="M762.5,624.2c-1.7,5-7.8,8.7-13,7.5c-4.9-1.2-8-6.3-9.9-10.5c-11.2-24.1-22.4-48.1-33.4-72.2
		c-1.9-4.3-4-6.7-9.2-6.7c-3.5,0-7.1-1.9-10.4-3.5c-16.5-8.1-32.7-16.6-49.2-24.6c-6.2-3-10.2-7.2-13.1-13.4
		c-31-67.1-62.3-134-93.4-201c-1-2.2-2.1-4.4-3.4-7c-4.3,2.2-8.1,4.2-12.7,6.7c6.9,13.5,8.7,27.5,3.4,41.7
		c-5.2,13.9-15.1,23.7-27.9,28.6c1.7,9.6,4.6,18.5,4.5,27.4c-0.3,31.8-31.3,55.2-61.4,45.5c-33.4-10.9-66-23.6-98.9-35.6
		c-40.8-14.8-81.5-29.8-122.3-44.6c-16.1-5.8-30-14.9-43.4-25.4c-10.4-8.1-22-15.4-34.1-20.5c-24.9-10.3-50.6-19-76-28.1
		c-2.6-0.9-6.9-0.5-9.1,1.1c-11.2,8.1-25.9,8.1-38.2-0.6C1,281.6-2.7,269.2,2.1,255.8c15.3-42.2,30.7-84.3,46.1-126.5
		C60.8,94.9,73.4,60.4,86.1,26C90.8,13.2,100.2,6.2,112,6c12.6-0.1,28.1,8.4,30.3,19.9c2,10.6,8.9,12.4,16.6,15.6
		c21.6,9.1,42.8,9.2,65.4,2.7c34.5-10.1,69.4-18.8,104.4-26.8c14.4-3.3,29.6-3.4,44.4-4.6c7.5-0.6,12.2,3.2,12.9,9.4
		c0.8,6.7-2.9,11.5-10.7,12.5c-14.5,1.8-29.4,1.7-43.6,5c-35,8.1-69.9,16.9-104.4,26.9c-25.6,7.3-50,6.4-74.3-3.6
		c-4.5-1.9-9.3-3.3-14.8-5.3c-25.3,69.3-50.5,138.4-76,208.1c10.6,3.9,20.8,7.5,31,11.3c20.9,7.9,41.9,15.5,62.4,24.1
		c7.9,3.3,15.8,7.9,21.9,13.8c14.8,14.6,32.7,23,51.7,29.9c68.2,24.9,136.5,49.9,204.7,74.7c21.3,7.7,40.6-6.1,38.3-27.4
		c-1.2-11.6-8.3-18.8-18.9-22.7c-17.7-6.5-35.4-12.9-53.1-19.4c-1.9-0.7-3.8-1.2-5.6-2c-6.4-3-9.1-8.7-6.9-14.6
		c2.2-5.7,8.1-8.5,14.8-6.1c19.9,7,39.6,14.5,59.5,21.4c17.9,6.2,34.5-4.4,36.4-22.7c1.3-12.4-5.9-22.9-19.7-28.1
		c-14.8-5.6-29.8-10.9-44.7-16.4c-3.5-1.3-7-2.5-10.5-3.8c-8.8-3.4-12.2-8.9-9.6-15.6c2.6-6.6,8.6-8.5,17.6-5.3
		c18.9,6.8,37.7,14,56.7,20.5c20.1,6.9,38.9-8.2,36.1-28.7c-1.6-11.6-9-18.4-19.5-22.2c-17.5-6.4-34.9-12.8-52.4-19.2
		c-11.4-4.2-15.2-9.3-12.4-16.6c2.7-6.9,9-8.4,19.8-4.4c48.4,17.7,96.8,35.6,145.4,52.9c6.7,2.4,14.7,3.6,21.6,2.5
		c11.1-1.7,19-12.2,19.8-23.2c0.9-12.2-5.4-22.8-17.5-27.4c-19-7.3-38.1-14.1-57.2-21c-41.5-15.1-82.9-30.2-124.4-45.3
		c-1.6-0.6-3.3-1.1-4.9-1.8c-8.7-3.7-13.7-10.6-13.3-18.8c0.4-8.9,5.1-14.9,13.3-18c14.9-5.5,29.8-10.8,44.7-16.3
		c6.5-2.4,13.2-4.6,19.4-7.6c9.6-4.7,14.3-15.2,11.6-24.1c-3-9.8-13.8-16.5-24.2-15.3c-21.2,2.3-42.5,4.5-63.7,6.5
		c-7.8,0.8-13.4-3.5-14-10.1c-0.5-6.4,3.8-11.2,11.4-12c23-2.5,45.9-5.1,68.9-7.1c20.2-1.8,42.5,17.5,44.3,38.2
		c0.4,4.7,1.9,7.5,5.7,10.2c8.8,6.2,15.8,25.1,11.9,33.9c-2.7,6.2-7.9,11.3-13.1,18.4c6,12.9,13,27.9,20.2,43.4
		c9-4.2,17.5-8.1,26-12c16-7.3,28-3.1,35.1,13.1c2.6,5.9,3,12.8,5.1,19c0.7,2.2,3.1,4.6,5.3,5.6c21.4,9.8,32.8,27.2,31.7,49.2
		c-0.6,11.2-4.5,21.4-12.3,29.6c-3.3,3.4-3.7,5.9-1.6,10.2c9.5,19.7,18.6,39.5,27.6,59.4c1.5,3.2,3,7.6,1.9,10.5
		c-1.3,3.3-5.4,7.5-8.5,7.7c-3.8,0.2-9.3-2.4-11.5-5.5c-4.4-6.5-7.1-14.1-10.5-21.3c-6.5-13.9-13-27.8-19.8-42.4
		c-25.8,12-51.1,23.8-77,35.8c3.2,6.8,6.1,13.3,8.6,18.7c0.5,1,9.1-1.3,10.2-1.6c2-0.6,4.9-1.7,6.9-1.5c2.9,0.2,5.6,4.8,6.7,7.4
		c2.9,6.6-0.1,10.7-13.2,18.3c3,6.6,6.1,13.2,8.8,19c0.5,1,10.3-2.9,11.3-3.2c1.8-0.6,3.9-1.5,5.7-0.8c2.9,1.1,5,5,6.3,7.6
		c3.4,6.6,0.5,10.8-13,18.9c3,6.6,6.1,13.2,9.3,20.1c8.3-3,17.2-8.9,22.5,2c5.7,11.6-5.5,14.4-12.7,19.1c3.1,6.7,6.1,13.2,8.6,18.6
		c0.5,1.2,10.8-2.7,12-2.9c1.9-0.5,4.2-1.2,6-0.2c2.4,1.3,4.8,5.2,5.9,7.6c2.9,6.4,0.3,10-13,18.3c2.6,5.7,5.2,11.4,8.2,18.1
		c25.7-11.9,51-23.7,77-35.7c-1.2-2.8-2.2-5.3-3.3-7.7c-9.3-20-18.6-40-27.9-60.1c-1-2.2-2.2-4.5-2.6-6.9c-1.1-5.5,0.9-10,6.1-12.2
		c5.1-2.2,9.8-1.1,13.2,3.5c1.3,1.8,2.3,3.8,3.2,5.8c11.5,24.7,23.3,49.4,34.3,74.3c2,4.6,2.5,10.7,1.5,15.6
		c-3.7,18.2-8.2,36.3-12.6,54.4c-0.7,3.1-1.1,6.9-3.1,9c-5.5,5.8-3,10.9-0.3,16.7c6.6,13.7,13.1,27.5,19.6,41.3
		c3.3,7,6.6,14,9.9,20.9c2.3,4.8,5.6,10,5.7,15.5C763.1,622.1,762.9,623.2,762.5,624.2z M33.5,273.4c1.1-1.5,3.4-3.7,4.4-6.3
		c27.7-75.7,55.3-151.4,83-227c1.9-5.2,1.4-8.4-4.2-10.5c-5.4-2-8.1-0.5-10.1,4.9c-27.6,76-55.4,151.9-83.1,227.8
		C21.2,268.8,24.7,273.4,33.5,273.4z M662.6,501.6c12.8,6.4,24,12.6,35.8,17.7c2.4,1,9.1-1.5,9.8-3.6c3.9-12.6,6.5-25.5,9.9-39.8
		C698.9,484.7,681.5,492.8,662.6,501.6z M548.1,282.6c15.7-7.3,31.4-14.6,47-21.9c-9.5-7.6-18.6-6.5-28-0.9
		c-4.9,2.9-10.3,4.9-15.4,7.3C541.7,271.7,541.7,271.7,548.1,282.6z M470.9,100.2c0.7,6.1,3.5,5.9,7.8,3.9
		c13.4-6.4,26.8-12.6,40.2-18.9c6.2-2.9,12.3-5.8,18.9-8.9c-1.5-3-2.7-5.2-3.9-7.6C516.9,88.3,491.8,89.7,470.9,100.2z M533.7,132.6
		c0.4-0.4,0.9-0.9,1.3-1.3c-3.6-7.8-7.2-15.5-11.1-23.8c-6.3,3-12,5.7-18.1,8.6C511.7,129.1,524.9,126.9,533.7,132.6z"/>
</g>
</svg>
