<svg id="Livello_1" data-name="Livello 1" xmlns="http://www.w3.org/2000/svg" viewBox="0 0 800 800"><defs><style>.cls-1{fill:#26475c;}</style></defs><path class="cls-1" d="M229.09,247.65A202.82,202.82,0,0,0,237,181.49c-.13-3-.3-6.07-.26-9.1.06-5.84,3.49-9.53,8.82-9.68s8.79,3.24,9.36,9.17c2.84,29.46-.89,58.21-9.86,86.27-1.56,4.87-.82,7.82,2.5,11.47,21.37,23.55,48.35,34.89,79.53,37.76,18.68,1.72,37.07,1.06,55.06-4.64,18.83-6,32.74-18.68,44.71-33.67,2.13-2.67,2.5-7.06,2.91-10.74,1.09-9.78,1.64-19.62,2.65-29.41.44-4.19-.94-6.17-5-7.91-27.86-12-45.78-32.75-53.48-62.18-1.81-6.9.44-11.83,5.89-13.25,5.75-1.49,9.9,1.35,11.76,8.35,5.52,20.84,17.48,36.67,36.38,47.17.8.44,1.67.76,3.85,1.73-1.56-10.35-2.64-19.8-4.49-29.09-1.66-8.33-4.1-16.49-6.32-24.7-1.8-6.67.32-11.88,5.66-13.41s10.07,1.46,12.12,8.2c7.49,24.58,11.78,49.67,11.76,75.42v7.53c2.24-1.69,3.84-2.76,5.28-4,16.5-14.12,28.08-31.53,35.56-51.91a14.55,14.55,0,0,1,7.21-7.69c2.2-.9,7,.58,8.37,2.56a13.61,13.61,0,0,1,1.63,10.32,124,124,0,0,1-33.09,53.52c-6.94,6.65-15,12.09-22.39,18.32a12.26,12.26,0,0,0-4,6.09c-1.67,7.75-2.69,15.64-4.12,23.45-4.48,24.48,14.52,47.76,38.44,46.79a40.47,40.47,0,0,0,25.67-10.75c1.95-1.74,3-4.7,4-7.28,15.81-40.47,40-75,72.92-103.4,5.44-4.67,10.76-4.93,14.54-.84,3.95,4.28,3.17,9.95-2.4,14.75A240,240,0,0,0,543,285.44c-.52,1-1,2-2.36,4.85,11.07-1.82,20.9-2.85,30.43-5.13a157.28,157.28,0,0,0,58.57-27.7c.9-.68,1.82-1.37,2.78-2,4.62-2.9,9.62-2.21,12.68,1.71,3.31,4.22,3,9.75-1.85,13-11.21,7.36-22.82,14.1-34.3,21-1.59,1-3.35,1.65-5.67,2.77a74,74,0,0,0,28.49,7.51c4.34.3,8.72,0,13.08,0,6.41,0,10.23,3.13,10.49,8.59s-3.24,9.09-9.54,9.64A97.19,97.19,0,0,1,585,305.25a14.31,14.31,0,0,0-11.06-2c-12.45,2.2-25,3.63-37.62,4.91-3.12.32-4.59,1.21-5.82,4-2.48,5.68-5.23,11.28-8.26,16.69-21.19,37.82-3.54,86.54,39.6,96.08a32.12,32.12,0,0,0,17.75-.76,194.6,194.6,0,0,1,64.2-9.92c7.24.07,11.32,3.32,11.5,9,.18,6-3.87,9.34-11.46,9.64-10.34.42-20.68.93-31,1.4-.15.49-.3,1-.44,1.48,1.35,1.1,2.78,2.11,4.05,3.3,12.13,11.37,24.55,22.46,36.22,34.29,5.52,5.6,2.51,14.61-4.79,15.17-3.25.25-7.71-2.11-10-4.71a189.19,189.19,0,0,0-41.55-35.95c-6.37-4-12-6.67-20.3-3.73-7.2,2.53-15.76,1-23.66,1.84a173.28,173.28,0,0,0-22.9,3.77c-16.88,4.16-26,15.43-27.59,32.6-.79,8.48-1.08,17-1.1,25.55,0,1.84,1.67,4.4,3.32,5.42q11.79,7.35,24.06,13.91a12.37,12.37,0,0,0,7.36,1.14c22-3.73,44-4.92,66.17-1.64,5.68.84,9.42,4.87,9.06,9.71-.39,5.25-4.65,8.66-10.78,8.5-12.87-.35-25.73-.83-38.59-1.09-3-.06-6,.56-9.35.9,7.89,8.62,15.6,16.62,22.79,25.07A205.54,205.54,0,0,1,588,587.67c5.11,7.51,4.78,12.94-.57,16.3-5.12,3.23-10,1.24-14.76-6a191.22,191.22,0,0,0-64.88-61.72c-1.75-1-3.56-1.91-6.06-3.24a153.85,153.85,0,0,0,16.09,55.47c2.4,4.72,5.22,9.23,7.88,13.81,3.57,6.14,2.79,11.39-2.19,14.35-4.78,2.84-9.71,1.27-13.41-4.48-16.66-25.85-25.58-54.25-27.41-84.88-.22-3.6-1.23-5.8-4.25-7.83-38.46-25.77-91.16-11.46-111.48,30-3.72,7.59-2.53,14.9-1.45,22.17,3.8,25.3,15.5,45.22,40.18,55.66,5.62,2.37,7.73,7.47,5.61,12.46-2,4.66-6.9,6.61-12.4,4.63-18.8-6.79-31.57-20.32-41.27-37.22-1-1.79-1.92-3.67-3.8-7.3-2.12,9.43-4.43,17.23-5.52,25.2-1.33,9.72-1.66,19.59-2.37,29.39-.39,5.35-3.95,8.91-9.06,8.93-4.89,0-8.93-3.3-9-8.27-.56-25.28,3.06-49.8,14-72.88.89-1.87,2.43-3.44,3.2-5.34a78.92,78.92,0,0,0,2.37-7.94l-1.73-1.33c-9.09,4.4-18.52,8.23-27.19,13.34-13,7.66-25.53,16.23-38.26,24.41-.63.41-1.23.88-1.87,1.3-5.14,3.37-10.35,2.67-13.48-1.8s-2.45-9.43,2.57-12.88c12.47-8.58,24.87-17.35,37.95-24.91a282.92,282.92,0,0,1,35.27-16.84c5.62-2.27,7.27-5.6,7.57-10.84,1.68-29.26-13.15-55.24-39.62-67.81-22.49-10.68-44.16-9.71-65.63,4.39-12.11,7.95-19.4,17.28-22.82,31.63-6.3,26.48-10.24,53.09-10.75,80.26a18.43,18.43,0,0,1-1,6.62c-1.9,4.47-5.84,6-10.31,4.94-4.8-1.17-6.88-4.68-7-9.73a320.29,320.29,0,0,1,8.55-76c.29-1.26.48-2.54,1-5.54-4.05,3.36-7,5.68-9.85,8.2-9.73,8.75-19.38,17.57-29.07,26.35-3.57,3.24-7.5,4.44-11.88,1.68-3.61-2.28-5.2-5.85-4-9.78a15.84,15.84,0,0,1,4.83-6.77q31.55-26.92,63.33-53.58c1.28-1.08,2.62-2.08,4.08-3.24-10.3-2.95-20.64-5-30.23-8.88-12.55-5.11-24.63-11.48-36.69-17.73-5.89-3-7.28-8.53-4.35-13.34s8.16-5.79,13.88-2.29c19.75,12.08,40.8,20.65,63.89,23.63,5.25.68,10.55,1.08,15.84,1.38a7.33,7.33,0,0,0,4.26-1c10.92-7.16,22.26-13.81,32.51-21.85,24.05-18.85,28.76-39.12,16.6-67.25-9.21-21.31-23.42-39.31-38.24-56.82-13-15.33-26.35-30.33-39.76-45.29-1.22-1.37-3.93-2-5.94-2a239.09,239.09,0,0,1-55.25-5.56c-6.92-1.53-10.13-5.79-8.91-11.4,1.18-5.45,6.11-7.72,13.08-6.64,13.38,2.07,26.81,3.84,40.22,5.73l.67-1.46c-1.29-2-2.67-4-3.87-6.07-7.12-12.27-14.35-24.49-21.23-36.89-3.41-6.13-1.78-11.42,3.57-14,5.05-2.41,9.28-.2,12.92,5.7,11.31,18.34,22.86,36.53,34.37,54.75A37.56,37.56,0,0,0,229.09,247.65Zm59.51,70.53c1.67,2.5,2.82,4,3.7,5.57,7.05,12.91,15.41,25.31,20.8,38.89,12.53,31.59,4.81,58.45-21.23,80.31a42.59,42.59,0,0,0-3.14,3.28c41.12,7.85,66.86,31.45,77.17,71.62,34.59-32.55,73.35-38,116.58-18.44-.58-33.57,9-60.3,46.51-68.51-29.47-23.56-38.92-53.58-31.69-90-16.06,3.28-31,2.3-44.58-6.69s-21.53-21.73-25.78-37.87c-18.86,18.05-40.73,27.15-65.7,29.41A181.72,181.72,0,0,1,288.6,318.18Z"/><path class="cls-1" d="M409.56,353.86A54.61,54.61,0,1,1,355,408.22,54.35,54.35,0,0,1,409.56,353.86ZM446,408.47c0-19.61-16.42-36.17-36.08-36.39s-36.65,16.53-36.67,36.36,16.91,36.61,36.64,36.4S446,428.07,446,408.47Z"/></svg>