<svg id="Livello_1" data-name="Livello 1" xmlns="http://www.w3.org/2000/svg" viewBox="0 0 800 800"><defs><style>.cls-1{fill:#26475c;}</style></defs><path class="cls-1" d="M418.45,144.3c8.23.47,16.45,1.23,24.69,2.43,46.92,6.84,90.9,21.29,128.43,51.4,34.54,27.71,55.15,63.6,59.76,107.83,3.35,32.12,2.38,64.18-7.05,95.41-8.17,27-25.17,48.49-44.61,68.24-5.49,5.57-11,11.2-17,16.2-6.61,5.52-9.15,12.61-9.2,20.67,0,6.79.77,13.6,1.29,20.39.36,4.81-2.17,8.46-6.5,9.11a7.45,7.45,0,0,1-8.37-6.22c-1.9-12-3-24.11.16-36.14a34.79,34.79,0,0,1,10.53-17.16C566,462.22,581,447.59,593.25,430.34c14.78-20.85,22-44.28,23.06-69.51.74-16.93,1.35-34,0-50.85-3.09-38.2-20-69.93-48.68-95.23-30.13-26.58-66.16-40.89-104.9-49.12-28.3-6-56.93-8.61-85.81-6-46.26,4.25-88.17,18.79-120,54.38-8.1,9-13.69,20.31-20.46,30.54-1.35,2-2.51,5.08-4.39,5.68a11.81,11.81,0,0,1-8.6-.71c-3.38-2-3.41-5.7-1.79-9.32a139.2,139.2,0,0,1,24.44-37.45c26-28.4,58.71-44.72,95.74-53,7.71-1.72,15.54-2.73,23.35-3.78A279.3,279.3,0,0,1,418.45,144.3Z"/><path class="cls-1" d="M324.73,377.73c-1.57-1.1-2.91-2-4.22-3a30.83,30.83,0,0,1-1.9-48.8c5-4.23,9.45-4.39,12.69-.44,3.07,3.74,2.16,7.84-2.67,12-9.62,8.24-7.2,22.59,4.82,26.81,5.29,1.86,7.18,4.89,7.15,10.34-.09,18.1,14.88,31.32,32.8,29,5.24-.68,9,.31,12.75,4.47,7.41,8.23,19.54,8.53,28.44,1.49,6.33-5,6.62-5,13.64-1.19,17.43,9.54,38.27,2.39,46.32-16,1.61-3.67,3.28-7,8-6.94,5.11,0,8.76,4.58,7.24,9.46-1,3.15-2.49,6.13-4,9.7a46.28,46.28,0,0,0,32.9,9.55c28.48-2.67,47.5-24.49,46.66-53A47.77,47.77,0,0,0,558,337.75c-3.79-6.29-3.45-8.13,1.83-13.41,11.6-11.58,15.6-25.54,11.11-41.16s-15.19-25.46-31.32-28.76c-4.8-1-7.34-3.51-8.88-8.16-9.3-28-41.33-37.83-64.69-19.94-6.36,4.86-9.88,4.37-14.4-2.28A49,49,0,0,0,426,204.48a16.52,16.52,0,0,1-3.24-1.27c-3.59-2.12-5.08-5.24-3.76-9.29a7.43,7.43,0,0,1,9.23-4.7,63.5,63.5,0,0,1,29.46,17.93c1.13,1.2,2.27,2.38,2.4,2.52,9.24-2.55,17.5-5.93,26.05-7,24-3,46.61,10.21,56.65,32.29a10.31,10.31,0,0,0,6.78,6.28,56.11,56.11,0,0,1,26.25,88c-2.2,2.79-2.4,4.67-.93,7.86A65.17,65.17,0,0,1,547.69,421c-3.26,1.84-4.93,3.68-5.6,7.76-5.49,33.62-46.37,49.48-73.16,28.34-4.23-3.34-8.31-4.05-13.58-4L463,478c4.31,14-3.15,23.14-17.64,21.35-7.25-.89-14.49-2-21.68-3.3-9.39-1.67-15.87-6.95-19.47-15.95-7-17.41-14.16-34.74-21.26-52.1-2.67-6.51-5.89-8.56-12.69-8.65-18.73-.27-32.13-9.23-40.56-24.85-7.47,2.1-14.59,4.9-22,6-27.32,4.26-54.34-16.53-58.24-43.93a55.84,55.84,0,0,1,5-32,8.82,8.82,0,0,0,.32-6c-11.26-33.12,4-65.15,36.94-77.44a8,8,0,0,0,4.09-4.2C306,210.76,332.7,197.69,360,205.53c1.6.46,3.93-.3,5.49-1.22,7.55-4.42,14.78-9.42,22.48-13.55a7.27,7.27,0,0,1,10.39,3.7c1.72,4.16-.19,8.36-5.08,10.3a53.06,53.06,0,0,0-21.71,15.46c-3,3.57-6.51,4.38-10.66,2.25a36.26,36.26,0,0,0-52,24.46c-1,4.52-3.6,6.67-8,7.67-28,6.39-42.49,35.87-30.26,61.84,2.21,4.69,1.69,8.25-.94,12.48a37.21,37.21,0,0,0,6.33,47,37.59,37.59,0,0,0,46.51,3.59C323.23,379,323.81,378.48,324.73,377.73ZM449.1,484.67c-6.05-19.62-11.52-38.41-17.92-56.88-.79-2.27-6.83-4.53-9.81-3.89-6.93,1.47-13.48,4.72-20.64,7.43,5.92,14.38,12.08,29.75,18.69,44.93.87,2,3.81,3.88,6.11,4.38C432.94,482.28,440.5,483.26,449.1,484.67Zm27.06-68c-4.94,2.77-9.09,5.64-13.66,7.5s-9.69,2.78-14.56,4.11c1.63,7.06,3.42,8.69,10.62,9.34a29.05,29.05,0,0,0,6-.05,9.87,9.87,0,0,1,9.29,3.59,30.54,30.54,0,0,0,19,10c16,2.4,31.61-10,33.09-22.32C507.64,431.3,490.89,427.46,476.16,416.67Z"/><path class="cls-1" d="M203.7,522.08c-5.35-3.57-13.35-3.18-15.29-11.37a22.57,22.57,0,0,1,3.53-19c-2.6-2.3-5-4.31-7.29-6.48-7.89-7.56-7.25-17.75,1.25-24.44,3.6-2.83,6.8-6.17,11-10-3.2-1.41-5.3-2.19-7.28-3.23-5-2.6-10.41-4.65-14.71-8.12a24.18,24.18,0,0,1-4.1-33.21c3.23-4.32,7.49-8,11.73-11.43,9.79-7.89,18.63-16.52,25.59-27.12,3.1-4.73,3-8.69.07-13.28a137,137,0,0,1-7.9-13.83c-2.92-5.92-3.77-12.33-.55-18.27,7.48-13.82,9.61-28.84,11-44.13.47-5.24,4-8.47,8.3-8.09,4.52.4,7.17,3.92,6.73,9.29-1.31,15.94-2.84,31.82-11,46.16-2.16,3.8-1.74,7.62.56,11.34q3.93,6.36,7.6,12.89c4.47,8,4.09,15.77-.58,23.63C214.19,387,203.22,398,190.71,407.66a48.36,48.36,0,0,0-6.34,5.61c-4.7,5.17-4,12.23,1.9,15.9,3.76,2.33,8.11,3.74,12.25,5.42,13.08,5.3,16.37,16.34,7.77,27.54-3.2,4.16-7.35,7.59-10.21,10.48,3.51,4.1,6.82,8.22,10.41,12.1,5.24,5.68,5.18,9-.36,14.32a44.36,44.36,0,0,0-4,5.14c3.58,1.81,6.64,3.08,9.42,4.8,7.63,4.71,10.19,13.1,5.44,20.64-9,14.3-1.79,32.15,13.92,38.5,11.22,4.54,22.74,4.34,34.38,2.9,13.69-1.69,27.32-4.09,41.05-5.18,16.45-1.31,31.18,3.84,43.78,14.64,14.28,12.25,23,28.25,30.25,45.21.91,2.14,1.73,4.32,2.71,6.42,3.11,6.63,8.31,9.27,15.45,7.45Q465.83,622.36,533.1,605c4.34-1.12,8.69-2.21,13-3.48,8.45-2.48,11.88-8.94,9.16-17.32-1.94-6-4.18-11.9-6.13-17.89s-.29-9.81,4.57-11.35c4.35-1.37,7.83,1,9.81,6.7s4,11.6,6,17.42c5.78,17-2.26,32.49-19.7,37.24-18.57,5-37.24,9.74-55.88,14.53-30.69,7.89-61.37,15.84-92.11,23.55-14.21,3.56-26.74-3.27-33-16.6-5.31-11.23-10.73-22.51-17.27-33-7.32-11.77-17.75-20.83-32-22.68-8.74-1.14-17.85,0-26.75.78-14.07,1.2-28.07,3.32-42.15,4.31-9.93.7-19.38-2.28-28.42-6.4-21.11-9.62-31.4-36-19.47-56.68C203.08,523.54,203.3,522.93,203.7,522.08Z"/><path class="cls-1" d="M423.14,265.86c7.34-6.54,15.46-11,25.22-12.39,23.53-3.31,45.76,11.71,50.89,34.85,3.27,14.8-.16,28-10.39,39.33-2.8,3.09-5.7,6.08-8.74,8.92-3.43,3.22-7.71,3.25-10.75.37s-3.13-7.52.18-11.12c2.93-3.19,6.17-6.11,8.9-9.45,10.59-13,8.4-30.82-5-41.58a29.84,29.84,0,0,0-41.6,4.21c-1.15,1.42-2.11,3-3.37,4.34a7.43,7.43,0,0,1-11,0,35.76,35.76,0,0,1-2.47-3.13,30.16,30.16,0,0,0-43.8-4.69c-13.49,11.63-14.1,30.83-1.3,43.68,16.23,16.28,32.58,32.43,48.75,48.77,3.15,3.19,5.52,3.47,8.68.11,5.25-5.58,10.75-10.93,16.23-16.28,4-3.88,8.11-4.14,11.44-.93s3.23,7.53-.59,11.45c-6.16,6.32-12.35,12.62-18.76,18.68-7.56,7.13-18.16,7-25.58-.31-17.66-17.45-35.31-34.9-52.66-52.64-12.23-12.5-14.84-27.73-9.49-43.93,5.5-16.61,17.46-26.88,34.66-30.34,14.24-2.87,27,.95,38.11,10.26C421.43,264.62,422.23,265.17,423.14,265.86Z"/></svg>