<svg id="Livello_1" data-name="Livello 1" xmlns="http://www.w3.org/2000/svg" viewBox="0 0 800 800"><defs><style>.cls-1{fill:#26475c;}</style></defs><path class="cls-1" d="M155.24,680.91a11.19,11.19,0,0,0-1.93-1c-14.54-4.19-23-15-23-30.08-.12-22.82,0-45.64,0-68.46q0-191.4,0-382.81c0-11.95,3.44-22.38,14.19-28.29a42.19,42.19,0,0,1,18.67-4.78c22.81-.56,45.64-.27,68.46-.17,3.34,0,5.54-.59,7.48-3.81a19.55,19.55,0,0,1,16.74-9.81c7.48-.23,15-.18,22.45-.25,2,0,3.92,0,6.37,0,0-4.46-.07-8.26,0-12.05.26-11.06,8.52-19.27,19.56-19.32q25.74-.11,51.49,0c11.38,0,19.55,8.23,19.75,19.67.06,3.64,0,7.28,0,11.7,7.57,0,14.82.23,22.05-.06,10.6-.42,19.39,2.3,25.12,12.09.74,1.27,3.72,1.7,5.67,1.71,22.46.12,44.91.07,67.37.08,22.18,0,34.12,12,34.13,34.17q0,34,0,67.91a23,23,0,0,1-.57,5.94,7.66,7.66,0,0,1-8.1,6c-4-.11-6.95-2.26-7.8-6.39a33,33,0,0,1-.5-6.52c0-22.63,0-45.27,0-67.91,0-12.11-4.06-16.22-16-16.24-23.72,0-47.44,0-71.55,0v22.54h6c16.07,0,32.14,0,48.21,0,8.44,0,11.05,2.72,11.05,11.2,0,44.91.06,89.82-.09,134.73a12.48,12.48,0,0,0,4.43,10.27c6.19,5.76,11.61,12.34,17.93,19.2V308.93a40.32,40.32,0,0,1,.12-4.92c.59-5,4.19-8.46,8.51-8.36a8.68,8.68,0,0,1,8.28,8.61c.27,7.11.09,14.24.1,21.36V360.2a69.93,69.93,0,0,1,42.08-22.48c10.9-1.69,22.1-1.76,33.17-1.87,6.14-.07,8.86,3.18,9.14,9.28,1,21.28-1.34,41.89-12.67,60.6-.16.27-.07.67-.05.48,9.43,5.57,19.14,10.32,27.78,16.56,29.59,21.4,41.52,51,39.12,87a269.71,269.71,0,0,1-15.21,73.56c-1.6,4.45-4.42,7.1-9.39,6.6-4.24-.42-6.63-3.22-7.12-7.12-.27-2.19.67-4.62,1.43-6.82a248.88,248.88,0,0,0,13.71-71.62c1.65-43.67-24.68-70-60.61-83.07a5.38,5.38,0,0,0-3.93.22c-3.68,2-7.09,4.48-10.78,6.42-3.51,1.85-7.26,3.24-10.91,4.83,3.66,7.49,3,10.79-4.12,15q-40,23.75-80.24.09a21.84,21.84,0,0,1-2.7-1.85c-3.87-3.15-4.78-7.89-2.27-11.62s7.11-4.34,11.66-2.13c7.94,3.84,16,7.38,25.41,11.67-.11-12.37-1.5-22.44-5.07-32.16-.3-.81-2.38-1.47-3.57-1.37-31.73,2.51-62.06,9.29-87.24,30.39-17.33,14.52-26.66,33.49-26.51,56,.35,49.4,13.38,95,43.73,134.75,8.36,11,18.39,20.27,30.73,26.77,18.67,9.82,33.52,8,49.12-6.11,4.78-4.3,8.73-4.33,13.5-.1,16.06,14.27,31.26,16.14,50.08,5.74,19.17-10.58,32.1-27.2,43.15-45.54a37.36,37.36,0,0,1,3.82-6c2.92-3.2,6.59-3.92,10.37-1.57s5.56,6.09,3.45,9.87c-15.89,28.45-39.27,59.09-73.43,65.63a68.87,68.87,0,0,1-13.47.77c-10.48-.09-20.86-6.66-30.34-10.71l-26.7,10.59Zm318.54-459.1c-16.6,0-32.64-.07-48.68.13-1.34,0-3,1.68-3.91,3-4.76,6.49-11.1,10-19.08,10.06-48,.08-96,.24-144.06-.23-5.31-.05-12.69-2.42-15.43-6.31-5.06-7.17-11.14-6.77-18-6.64-3.28.06-6.57,0-9.86,0H186V414.57a48.28,48.28,0,0,1-.13,6c-.57,4.4-3.29,6.91-7.62,7.18-4.66.29-7.53-2.31-8.62-6.74a18.67,18.67,0,0,1-.14-4.37V216.22c0-8.74,2.6-11.34,11.47-11.36,16.07,0,32.13,0,48.2,0,1.91,0,3.83-.2,5.7-.3V182.48c-25.84,0-51.36-.26-76.87.32-3.24.07-7.23,4-9.32,7.14-1.69,2.55-1.36,6.64-1.36,10.05q-.08,223.17,0,446.34c0,2-.47,4.24.23,6,1.31,3.24,2.61,7.31,5.22,9,3.27,2.08,7.85,2.84,11.87,2.85q136.4.23,272.78.11h5.44c-6.63-6.72-12.76-12.41-18.22-18.68a10.9,10.9,0,0,0-9.24-4.24q-116.94.18-233.89.08c-9.53,0-12-2.42-12-11.9V455.88a35.34,35.34,0,0,1,.08-4.37,8,8,0,0,1,8.74-7.2c5.15.28,7.68,3.63,7.68,10.48q0,81.33,0,162.65v6.68H408c-6.57-13.78-12.95-27.18-19.41-40.75h-76c-3.65,0-7.32.19-10.95-.1a8.34,8.34,0,0,1-7.76-8.41c.06-4.44,3.21-7.64,8-8,1.63-.14,3.28-.08,4.92-.08h76.87c-1.09-4.62-2-8.59-3.07-12.93H336.64c-11.32,0-22.66.29-33.95-.23a11.21,11.21,0,0,1-7.74-4.73c-1.19-1.88-.86-6.37.64-7.91a13.87,13.87,0,0,1,9-3.62c22.09-.29,44.19-.15,66.28-.17,1.9,0,3.8-.2,5.86-.31-1.2-12.76-2.33-24.85-3.51-37.39H367q-30.68,0-61.35,0c-7.88,0-11.75-2.75-11.8-8.23s4.06-8.47,11.63-8.48h69.67c1-4.31,1.83-8.24,2.82-12.7H371.1q-32,0-64.09,0a48.06,48.06,0,0,1-6-.34c-4.48-.56-6.88-3.45-7.09-7.71-.23-4.62,2.45-7.54,6.87-8.59a24.09,24.09,0,0,1,5.45-.22c25,0,50-.05,75,.05,3.05,0,4.59-1.15,6.59-3.48,7.55-8.82,14.84-18.14,23.7-25.49,16.73-13.86,36.95-20.95,57.92-25.66,4-.9,4.54-3.08,4.49-6.79-.05-4.65-.15-9.3,0-13.95.11-3.93.77-8.19-1.09-11.84-2.55-5-10.88-6.18-9.19-13.65.59-2.61,4-4.47,6.1-5.84,1.46-1,2.37-.85,4-1Zm-143.95-3.67q35,0,70.07,0c6.76,0,8.38-1.7,8.4-8.43,0-11.32.06-22.63,0-33.94,0-5.53-2.06-7.47-7.63-7.5-10.77-.05-21.53.06-32.3-.05-6.36-.06-9.37-3-9.53-9.36-.13-5.46-.15-10.94,0-16.41.11-4.07-1.29-6-5.69-6q-23.26.22-46.53,0c-4.13,0-5.49,1.84-5.42,5.66.11,5.28.1,10.58,0,15.87-.13,7.33-3,10.18-10.37,10.22-10.22.06-20.44,0-30.65,0-6.69,0-8.49,1.75-8.52,8.31-.05,10.76,0,21.52,0,32.29,0,7.86,1.39,9.29,9.22,9.3Q295.35,218.17,329.83,218.14ZM597.5,352c-20.44.43-40.06,2.45-54.28,18.67-12.44,14.19-14.46,31.83-14.37,50C576.83,421,597.55,399.17,597.5,352Zm-96.87,41.61c-3.31-4.53-6.18-8.46-9.75-13.37v14.62ZM545,437.89l-.26-.9L530,438c.09,1.42.17,2.63.28,4.35Z"/><path class="cls-1" d="M371,285.55q33.93,0,67.86,0c6.44,0,10.39,3.63,9.87,9-.39,4.07-2.66,6.74-6.79,7.42a37.34,37.34,0,0,1-6,.31q-64.59,0-129.16,0c-8.93,0-12.85-2.48-13-8.17s4.08-8.57,13.15-8.57Z"/><path class="cls-1" d="M371,386.21H305.89A23.6,23.6,0,0,1,301,386c-4.46-1-7.2-3.83-7.07-8.41s2.65-7.49,7.42-8c1.81-.18,3.64-.19,5.46-.19H436c9,0,12.8,2.46,12.84,8.25s-3.91,8.5-12.65,8.5Z"/><path class="cls-1" d="M228.09,480.58c11.72-11,22-20.59,32.16-30.23,3.15-3,6.6-3.81,10.43-1.71s4.82,5.48,3.78,9.34a12.36,12.36,0,0,1-3.21,4.92q-16.71,17.31-33.6,34.46c-5,5-9,5.05-14.15.16q-8.5-8.11-16.81-16.45c-4.17-4.17-4.51-9-1.09-12.54s8.49-3.49,12.54.6C222,473,225.34,477.38,228.09,480.58Z"/><path class="cls-1" d="M228.2,313.11c11.09-10.48,20.85-19.77,30.7-29,1.69-1.57,3.6-3.3,5.71-3.93a7.35,7.35,0,0,1,8.94,3.52c2.05,3.51,1.86,7.05-1,10.05-6.26,6.63-12.64,13.14-19,19.68-5.34,5.48-10.66,11-16.09,16.39-4.81,4.77-8.85,4.85-13.76.21-5.83-5.51-11.56-11.14-17.22-16.82-4-4.05-4.25-9.12-.77-12.55s8.33-3.33,12.17.55S225.34,309.77,228.2,313.11Z"/><path class="cls-1" d="M229.42,397.63c2.16-2,3.49-3.1,4.69-4.34,8.42-8.62,16.77-17.3,25.22-25.88,4.62-4.7,9.07-5.14,12.94-1.51,3.66,3.43,3.43,8.64-.81,13q-16.74,17.32-33.64,34.5c-4.95,5-9.2,5.05-14.21.29q-8.33-7.93-16.53-16c-4.43-4.37-5-9.38-1.53-13,3.76-4,8.47-3.69,13.32,1.19C222.46,389.54,225.72,393.5,229.42,397.63Z"/><path class="cls-1" d="M228.32,564.05c10.94-10.22,20.7-19.56,30.77-28.56,2.25-2,5.59-3.91,8.41-3.89,2.25,0,5.89,2.69,6.38,4.78.68,2.88,0,7.18-1.91,9.36-6.54,7.59-13.84,14.52-20.85,21.71-4.58,4.71-9.07,9.52-13.76,14.12-4.45,4.37-8.92,4.37-13.45.08q-8.76-8.26-17.32-16.75c-4.07-4.06-4.35-9.14-1-12.61,3.61-3.7,8.21-3.65,12.54.62C222.06,556.75,225.56,561,228.32,564.05Z"/><path class="cls-1" d="M340.94,331.74c-12.2,0-24.41,0-36.62,0-6.81,0-10.59-3.13-10.52-8.36s4-8.24,10.71-8.24q36.63,0,73.26,0c6.55,0,10.63,3.31,10.57,8.43-.06,4.95-3.9,8.12-10.22,8.16C365.73,331.79,353.34,331.74,340.94,331.74Z"/><path class="cls-1" d="M340.66,415.75c-12.39,0-24.78.07-37.17,0-6.22,0-10.29-4.06-9.54-9.3.69-4.9,3.79-7.33,8.65-7.34,25.51,0,51-.07,76.54,0,5.45,0,9.09,3.47,9.19,8.06s-3.82,8.5-9.4,8.55C366.17,415.83,353.42,415.75,340.66,415.75Z"/></svg>