<svg id="Livello_1" data-name="Livello 1" xmlns="http://www.w3.org/2000/svg" viewBox="0 0 800 800"><defs><style>.cls-1{fill:#26475c;}</style></defs><path class="cls-1" d="M356.89,680.2a35.14,35.14,0,0,1-28.75-33.62c-.46-15.18,7.73-28.87,21.66-34.11,5-1.9,6.31-4.31,5.82-9-.28-2.69-.05-5.43-.05-9H349c-55.1,0-110.21-.45-165.3.24-20.44.25-34.09-14.76-34-34.11.45-81.74.19-163.48.19-245.22v-1.1c0-7.58,3-11.72,8.39-11.76s8.39,3.94,8.39,11.69q0,122.06,0,244.13a64.7,64.7,0,0,0,.24,7.1c.79,7.23,5.63,11.9,12.88,12.5,1.82.15,3.65.06,5.47.06H413c1.46,0,2.92,0,4.38,0,6.05.11,9.45,3,9.52,8.12s-3.26,8.29-9.27,8.32c-13,.08-25.91,0-38.86,0h-6.32V610.2l3.73,1.47c15.09,5.83,23.59,18.74,23.28,35.33a34.09,34.09,0,0,1-9,22,37.37,37.37,0,0,1-9.89,7.75A35,35,0,0,1,356.89,680.2Zm-12.23-35a19.44,19.44,0,0,0,19.16,19.22c10.25,0,19.21-9,19.2-19.29a19.4,19.4,0,0,0-19.28-19.07A19.13,19.13,0,0,0,344.66,645.24Z"/><path class="cls-1" d="M547.38,680.13a149.33,149.33,0,0,1-25.44-4.92,133.18,133.18,0,0,1-48.06-25.08c-7.21-5.86-14.33-11.85-21.27-18-12.86-11.44-14.95-31.19-3.1-43,18.64-18.56,38.85-35.4,64.42-44,51.78-17.31,98.55-8,140.44,26.77,4.49,3.73,8.73,7.76,13.37,11.29,6.45,4.91,10.22,11.55,13.17,18.83V615.2c-2.87,8.95-8.33,16-15.8,21.6-2.62,2-5.07,4.16-7.52,6.34-18.37,16.42-39.21,28.24-63.29,34A139.47,139.47,0,0,1,547.38,680.13Zm10.84-126.77a112.33,112.33,0,0,0-62,19.1c-11.17,7.46-21.34,16.45-31.69,25.08-8.12,6.76-7.93,16,.1,23,6.33,5.5,12.64,11,19.25,16.21,33.9,26.5,71.59,34.14,113.14,22.5,25.48-7.13,44.91-23.63,63.67-41,6-5.51,5-14.18-1.29-19.92-6.06-5.53-12.37-10.79-18.69-16C617.64,563.2,591.19,553.45,558.22,553.36Z"/><path class="cls-1" d="M149.87,199c-4.12,0-7.39.07-10.65,0-10.82-.27-18.94-8.41-19-19.21q-.12-20.25,0-40.51a18.68,18.68,0,0,1,19-19.05c21.54-.08,43.07,0,64.61,0,127,0,254.05.15,381.07-.21,14.36,0,23.55,9.84,22.71,23-.73,11.46-.13,23-.16,34.49,0,13.63-7.76,21.44-21.26,21.48h-8.5v7.1q0,144.27,0,288.54c0,2.52.38,5.67-.92,7.41-1.84,2.46-5.11,5.38-7.71,5.32s-5.72-3.11-7.47-5.64c-1.26-1.8-.84-4.91-.84-7.44q0-143.73,0-287.45V199.4H166.93c-.09,1.81-.25,3.74-.25,5.67q0,30.93,0,61.87a42.92,42.92,0,0,1-.3,6,7.62,7.62,0,0,1-7.28,7c-4.35.45-7.4-1.84-8.67-6a20.57,20.57,0,0,1-.51-5.94q-.06-31.22,0-62.42Zm214-62.39H145.47c-8.86,0-8.86,0-8.86,9.13v29c0,7.67,0,7.72,7.56,7.72h437.3c9.45,0,9.45,0,9.45-9.71q0-14.22,0-28.46c0-7.65,0-7.69-7.6-7.69Z"/><path class="cls-1" d="M363.64,424.89c-13.32,0-26.64,0-40,0-14.64-.06-21.95-7.24-22-21.73q-.06-77.73,0-155.45c0-14.23,7.31-21.48,21.6-21.51q40.5-.09,81,0c14.22,0,21.39,7.35,21.45,21.62,0,3.83,0,7.67,0,11.5-.21,11.43-8.24,19.47-19.8,19.56-15.33.12-30.66.17-46-.05-4.38-.07-5.63,1.38-5.62,5.67,0,14.51-.13,14.51,14.22,14.51,11.86,0,23.72-.05,35.58,0,14,.08,21.55,7.71,21.62,21.68,0,3.47,0,6.94,0,10.4C425.68,344,418,351.87,405.06,352c-14.59.16-29.19.22-43.78-.06-5-.1-7.09,1-6.95,6.59.34,13.6.07,13.61,13.52,13.61q18.33,0,36.67,0c13.39,0,21.16,7.65,21.27,20.86,0,4.2.06,8.4,0,12.59-.21,11.06-7.73,18.95-18.89,19.16-14.41.27-28.83.07-43.24.07Zm-45.29-99.42c0,25.55.11,51.1-.1,76.64,0,4.77,1.34,6.3,6.2,6.26,24.26-.22,48.54,0,72.81-.13,13.81-.05,11.93,2,12.05-12.28.06-7-.09-7.07-7-7.08-14.79,0-29.57.16-44.35-.08-12.58-.21-19.86-7.69-20.22-20.24-.11-3.83-.06-7.66,0-11.49.14-14.37,7.69-21.95,22-22,12.41,0,24.82.08,37.23,0,14.46-.12,11.95,2,12.5-12.46.21-5.49-1.82-6.78-6.92-6.68-14.59.28-29.19.19-43.79.07-12.93-.11-20.67-7.88-21-20.79-.08-3.1,0-6.21,0-9.31,0-16.8,6.79-23.66,23.42-23.68,11.68,0,23.36.05,35,0,15.51-.09,12.76,1.7,13.22-13.54.14-4.61-1.51-5.95-6-5.92-26.27.17-52.55.23-78.83,0-5.37-.06-6.34,1.93-6.3,6.7C318.45,274.74,318.35,300.1,318.35,325.47Z"/><path class="cls-1" d="M284.26,444.48c18.59,0,37.17,0,55.76,0,6.47,0,10.07,2.94,10.19,8.11.11,4.42-2,7.33-6.34,8.25a32.16,32.16,0,0,1-6.52.44q-53.3,0-106.6,0c-1.28,0-2.56,0-3.83,0-5.91-.4-9.37-3.65-9.21-8.62s3.78-8.12,9.69-8.14C246.35,444.43,265.31,444.48,284.26,444.48Z"/><path class="cls-1" d="M443.87,444.47c18.22,0,36.45,0,54.67,0,2.13,0,5-.16,6.24,1.07,2.22,2.21,5,5.57,4.69,8.15s-3.67,5.24-6.28,7c-1.56,1.05-4.24.55-6.42.55q-53.31,0-106.61,0c-9,0-12.74-2.38-12.87-8.2s3.91-8.64,13-8.64Z"/><path class="cls-1" d="M363.77,497.6c-8.92,0-17.84.06-26.76,0-6.58-.06-10.67-3.37-10.67-8.41s4.16-8.47,10.64-8.49q26.76-.09,53.53,0c6.57,0,10.57,3.33,10.6,8.46s-3.88,8.38-10.57,8.44C381.61,497.67,372.69,497.6,363.77,497.6Z"/><path class="cls-1" d="M254.88,497.6c-8.92,0-17.84.07-26.76,0-6.72-.07-10.49-3.26-10.41-8.54s3.87-8.34,10.63-8.36q26.78-.09,53.53,0c6.75,0,10.36,3.16,10.3,8.59s-3.53,8.25-10.53,8.31C272.72,497.66,263.8,497.6,254.88,497.6Z"/><path class="cls-1" d="M472.55,497.6c-8.92,0-17.84.06-26.76,0-6.88-.06-10.44-3-10.44-8.43s3.68-8.45,10.45-8.47q26.76-.09,53.52,0c6.55,0,10.6,3.38,10.61,8.48s-4,8.36-10.62,8.42C490.39,497.66,481.47,497.6,472.55,497.6Z"/><path class="cls-1" d="M239.57,517c4.37,0,8.74-.21,13.09,0,5.38.31,8.84,3.91,8.73,8.58-.11,4.44-3.44,8-8.55,8.19-8.9.29-17.83.3-26.72,0-5.16-.17-8.36-3.75-8.41-8.28-.06-4.77,3.29-8,8.77-8.54.37,0,.73,0,1.09,0h12Z"/><path class="cls-1" d="M405.56,517c4.18,0,8.37-.19,12.54,0,5.58.31,8.76,3.51,8.76,8.4s-3.18,8.27-8.73,8.43c-8.71.25-17.45.26-26.16,0-5.2-.16-8.9-4.21-8.73-8.65s3.71-7.85,8.69-8.13C396.46,516.77,401,517,405.56,517Z"/><path class="cls-1" d="M322.63,517c4.17,0,8.36-.16,12.53,0,5.38.26,9,3.69,9.09,8.26s-3.51,8.4-8.79,8.56q-13.08.39-26.16,0c-5.51-.17-8.71-3.66-8.65-8.53s3.3-8,8.9-8.29C313.9,516.79,318.27,517,322.63,517Z"/><path class="cls-1" d="M488.25,516.94c4,0,8-.1,12,0,5.77.2,9.57,3.52,9.68,8.26s-3.64,8.48-9.33,8.63q-12.53.32-25.08,0c-5.89-.14-9.29-3.53-9.25-8.54s3.45-8,9.44-8.37c.36,0,.72,0,1.09,0Z"/><path class="cls-1" d="M561.55,565.78a43.08,43.08,0,0,1,43.23,42.9c.23,23.68-19.6,43.63-43.35,43.59s-43.64-20.19-43.3-43.71A43.26,43.26,0,0,1,561.55,565.78Zm26.39,43.29a26.43,26.43,0,1,0-52.86-.39,26.43,26.43,0,1,0,52.86.39Z"/></svg>