<svg id="Livello_1" data-name="Livello 1" xmlns="http://www.w3.org/2000/svg" viewBox="0 0 800 800"><defs><style>.cls-1{fill:#26475c;}</style></defs><path class="cls-1" d="M680.94,252.73a126.28,126.28,0,0,1-6.37,29.72c-5.87,16.78-13.22,33-19.79,49.57-1.16,2.93-1.49,6.18-2.29,9.26-1.43,5.55-1.71,11.83-4.61,16.47-10.42,16.69-21.46,33-32.9,49-2.6,3.64-7.76,5.41-11.64,8.18a24.82,24.82,0,0,0-5.56,4.76c-17.44,22.93-34.53,46.14-52.25,68.86-6.68,8.57-14.75,16.05-21.84,23.65,4.86,10.07,10.63,19.85,14.46,30.34,10.62,29.12,6,57-8.94,83.54-2.91,5.17-7.52,6.6-11.91,4.09s-5.37-7.22-2.51-12.4c8.56-15.49,13.32-31.79,11.92-49.7-1.44-18.47-9.24-34.25-20-48.87-13.92-19-32.37-33.05-50.82-47.08-15.1-11.48-30.64-22.37-45.83-33.72-2.77-2.06-5-2.28-7.87-.64-5.83,3.34-11.76,6.52-18.32,10.13,9.91,6.73,19.36,12.74,28.37,19.35,19.39,14.25,39.05,28.21,57.66,43.43,16,13.07,27,29.81,30.64,50.87,5.74,33.19-20.9,71.67-54.21,77.68-19.11,3.45-37.56.44-55.06-7.09-27.91-12-55.46-24.85-83.16-37.35-2-.88-3.9-1.81-7.48-3.48.47,9,.82,16.86,1.39,24.72.05.7,1.42,1.53,2.34,1.91,31.94,13.18,63.54,27.31,96,39.12,22.41,8.15,46.22,9.62,69.1.67,9.14-3.57,17.44-9.58,25.66-15.17,5.47-3.72,10.1-4.58,13.54-.73,3.65,4.07,2.9,8.65-2.25,13.24-23.32,20.76-51,27.12-81.31,24.17-31.37-3-59.45-16.43-87.93-28.45-12.57-5.31-24.91-11.18-37.47-16.51-2.26-.95-5.11-.46-7.69-.68-4.28-.36-9.08.37-12.75-1.33-18.32-8.51-36.49-17.38-54.36-26.78-4.42-2.33-7.59-7.08-11.25-10.79-2.57-2.62-4.58-6-7.57-8-29.73-19.13-55.57-42-72.14-73.92-36.16-69.66,1-150,77.38-167.5,16.56-3.79,33.3-3.58,50-1.49,5.55.69,9.12,5,8.39,9.58-.8,5-5.11,7.73-11.12,6.93-26.2-3.51-51.34-.63-74.4,13.15-45.83,27.38-60.6,84.33-34.59,133.35,13.67,25.77,34.45,44.84,58.76,61.39.53-8.73,1-16.8,1.52-24.87a34.51,34.51,0,0,1,.31-3.82c1-5.6,5.05-9.12,9.61-8.36,5,.83,7.19,5.31,7.09,11.16-.25,13.45,0,26.91.49,40.34.1,2.52,1.93,6.1,4,7.22,17.27,9.26,34.8,18.06,53.41,27.59-2.95-42.39,7.56-79.93,27.8-114.94s47.41-63.05,85.16-81.27c-8.33-5.77-15.84-11.12-23.5-16.25s-15.38-9.8-22.95-14.87c-4.51-3-8.8-3.3-13.87-1.12-32.75,14.06-57.6,37.25-77.34,66.41A225.18,225.18,0,0,0,234,508.77a13.79,13.79,0,0,1-6.28,7.36c-1.92.92-6.42-.25-7.67-2-1.73-2.43-2.69-6.6-1.87-9.41A174.62,174.62,0,0,1,227,481.25c19.32-42.45,47.65-77,88.75-100.21.46-.25.85-.61,2.25-1.65-7.69-3.29-14.76-6.33-21.85-9.32-1.84-.78-3.79-1.28-5.62-2.09-4.92-2.17-6.91-6.13-5.36-10.43,1.69-4.66,6-7,11-5,11.3,4.53,22.53,9.3,33.55,14.48,4.83,2.26,9.23,4.45,14.9,4,3.82-.31,7.78,1.25,12.26,2.07.41-.77,1.15-1.94,1.7-3.2,10.22-23.73,20.48-47.44,30.52-71.25.95-2.25.41-5.11.63-7.69.36-4.27-.34-9.07,1.37-12.73q12.76-27.48,26.78-54.35a28.54,28.54,0,0,1,10.5-10.68,25.07,25.07,0,0,0,9-8.94,223.33,223.33,0,0,1,39.17-47.6c3.25-3,6.75-4.42,10.89-2,3.66,2.12,4.94,5.65,3.68,9.39-.81,2.4-2.91,4.56-4.85,6.37a202,202,0,0,0-31.08,37.11c8.12.51,15.66.91,23.19,1.48,18.3,1.39,35.85,6,52.94,12.51,5.77,2.18,7.92,6.22,6.23,10.92-1.77,4.95-6.32,6.9-12.07,4.69-18.69-7.16-37.94-11.74-58-12.12a219.89,219.89,0,0,0-27.25,1.56c-2.53.27-5.93,2.15-7.07,4.29-9.15,17.14-17.85,34.52-27.32,53.06,42.28-2.89,79.82,7.55,114.81,27.75s63.09,47.41,81.31,85c3.55-4.94,6.83-9.21,9.81-13.68,7.16-10.78,14.1-21.71,21.31-32.46,3.15-4.7,3.33-9.09,1-14.34-15.21-35.1-40.71-60.9-72.54-81.08-1.7-1.08-3.46-2-5.14-3.13-5-3.24-6.35-7.77-3.69-12s7.64-5.4,12.43-2c12.8,9,25.88,17.76,37.81,27.84,16.56,14,29.61,31.15,40.32,50.91a38.69,38.69,0,0,0,2.39-3.74c10.22-21.59,17.26-44.1,18.48-68.07,3-57.86-33.4-99.06-82.05-107.7-23.33-4.14-45.25.85-66,11.7-1.61.84-3.14,1.87-4.79,2.62-4.69,2.13-9.11.84-11.34-3.2s-1.09-8.75,3.29-11.31a127.43,127.43,0,0,1,46.45-16.7,33.64,33.64,0,0,0,4.1-1.11H579a11.18,11.18,0,0,0,2.44,1c47.7,8.33,79.42,35.24,94.3,81.45A129.38,129.38,0,0,1,680.94,252.73ZM427,624c36.39.09,61.66-29,56.79-61.08-2.43-16-11.19-28.91-23.48-38.32-28.07-21.47-57.07-41.73-85.58-62.62-3.64-2.66-6-2.39-9.28.68-31.39,29.4-51.7,65.07-61.23,107-.74,3.29.41,4.9,3.37,6.26,26.79,12.31,53.42,25,80.31,37.06C401.56,619.09,415.73,623.87,427,624Zm57.4-150.87c5.25-5,10.58-9.22,14.95-14.29,23.49-27.27,43.41-57.16,63.2-87.14,1.81-2.73.69-4.21-1-6.07-29.43-32.19-65.52-52.84-108-62.24-1.63-.36-4.84,1-5.49,2.42-14.45,31.38-28.59,62.91-43,94.33-1.79,3.91-.16,5.62,2.58,8,3,2.67,6.7,6,7.53,9.57,1.39,6,5.56,7.84,10,10.47,10.42-18,20.62-35.67,30.83-53.31,4.68-8.1,7.94-9,15.85-4.49q11.39,6.51,22.71,13.11c7.48,4.36,8.41,8,4,15.63q-15.57,27-31.16,53.94c-.88,1.53-1.64,3.13-2.5,4.79Zm13.42,10.92,14.94,14.59c1.15-1,2.56-2.16,3.84-3.43,26.65-26.5,47.42-57.65,69.29-87.91a5.09,5.09,0,0,0,.28-4.41c-3.32-6.6-7-13.05-10.65-19.87C550.65,418.07,529.05,454.61,497.85,484.07Zm-66.53-184.4c-8.2.4-15.76.7-23.31,1.25-.92.07-2.12,1.32-2.54,2.3Q388.92,341.54,372.65,380c-.5,1.19,0,3.75,1,4.46,4.93,3.62,10.14,6.85,14.8,9.92C402.62,363,416.64,332.08,431.32,299.67ZM468,387.49c-9.93,17.19-19.6,34-29.4,50.93l12.68,9.23,30.23-52.34Z"/><path class="cls-1" d="M465.26,564a6.91,6.91,0,0,1,1,6.67,23.13,23.13,0,0,1-1.38,3.09c-4.77,8.38-9.57,16.74-14.49,25-3.52,6-7.56,7-13.69,3.51q-31.26-17.94-62.4-36c-6.08-3.54-7-7.43-3.52-13.64q7.13-12.58,14.45-25c3.44-5.83,7.54-7.07,13.23-3.81,21,12,42,24.05,62.82,36.35A15,15,0,0,1,465.26,564Zm-76.72-8.68,50.81,29.26,7.72-13.51L396.3,541.76Z"/></svg>