<svg id="Livello_1" data-name="Livello 1" xmlns="http://www.w3.org/2000/svg" viewBox="0 0 800 800"><defs><style>.cls-1{fill:#26475c;}</style></defs><path class="cls-1" d="M605.67,447.15Q587.19,540.42,568.3,633.6q-4.45,22.18-8.95,44.35c-.91,4.48-3.78,7.68-8.18,7.32a12.58,12.58,0,0,1-8.33-4.67c-1.46-2.09-1.19-5.93-.65-8.8,2.64-14.07,5.65-28.07,8.46-42.11,12.45-62.15,25-124.27,37.18-186.47,3.39-17.39,7.63-35,7.73-52.57.26-49.08-21.2-87.61-62.88-113.49C454.53,228.63,375.86,181,297.4,132.91c-1.47-.89-3-1.71-4.4-2.69-5.07-3.52-6.3-8.25-3.39-12.81s7.83-5.6,13.05-2.46c14.57,8.79,29,17.73,43.56,26.62q97.59,59.75,195.16,119.51c40.25,24.7,63.56,60.82,71.43,107.16.16.94.2,1.91.27,2.86.52,6.43,1.26,12.87,1.2,19.33-.06,5.84-1.17,11.53-2,17.28-1.6,10.7-3.29,21.4-5.2,32.05C606.61,442.22,606.16,444.69,605.67,447.15Z"/><path class="cls-1" d="M457.35,395c-19.25-.06-35.64-13-39.32-32.16-3.4-17.7-12.68-30.51-27.91-40-46.58-29.08-92.89-58.57-139.3-87.92a32.41,32.41,0,0,1-5.16-3.61c-3.56-3.34-4-7.48-1.42-11.43s6.38-5.45,11-3.33a49.31,49.31,0,0,1,5.44,3.16q70.61,44.57,141.21,89.15c18,11.31,29.21,27.09,33.36,48,2.48,12.53,10.41,19.69,21.58,20.06,10.94.36,19.27-6.06,22.62-18.11,3-10.77,9.44-18.92,17.41-26.42,11.48-10.79,9-28.77-4.65-35.84a20.79,20.79,0,0,0-18.29-1c-18.14,7.6-34.64,4.69-51.06-5.86C373.56,258,323.9,227,274.48,195.63c-2.76-1.75-6.15-4.43-6.72-7.19s1.06-7.15,3.2-9.45c3.05-3.29,7.37-2.26,11.08.07q18.19,11.48,36.4,23c39,24.64,78,49.2,116.84,74,10.67,6.81,21.22,6.7,32.76,2.4a40.06,40.06,0,0,1,54.17,39.24c-.37,11-4.57,20.64-12.91,27.86A43.73,43.73,0,0,0,495.8,367C490.66,384.05,475.2,395,457.35,395Z"/><path class="cls-1" d="M540,453.09c-.07,13-3.56,22.79-11.82,29.8-19.3,16.39-28.6,37.54-32.37,62.06-5,32.46-10.75,64.82-16.22,97.21-1.05,6.24-5.24,9.64-10.6,8.88s-8.46-5.53-7.34-12.18q6.93-41.25,14-82.47c1.81-10.54,3.25-21.19,5.8-31.55,5.22-21.18,16.27-39,32.64-53.52,11.33-10.07,10.54-25.86-1.87-32.95a24.51,24.51,0,0,0-14.12-2.71c-9.84,1.14-18.95.39-27.76-4.42-10-5.45-19.6-3.7-26.36,4.31-6.31,7.48-6.31,17.69.61,26.29,14.5,18,16.2,38.22,12.14,60.17-6.94,37.56-13,75.29-19.46,112.94-1.13,6.6-5.45,10.15-10.83,9.1s-8.08-6-7-12.43c7-41.42,14.21-82.83,20.89-124.32,2-12.68-2.21-24.05-10.08-34.23-11.53-14.91-12.16-32.61-2.06-46.82a38,38,0,0,1,49.43-11.61,27.63,27.63,0,0,0,18.24,2.9C519,413.89,539.87,431.72,540,453.09Z"/><path class="cls-1" d="M387.64,404.55c-16.47-7.84-33-15.31-49.18-23.5-48.83-24.76-94.79-53.85-134.85-91.55-5-4.71-9.79-9.72-14.31-14.91-3.74-4.28-3.25-9.36.58-12.81s8.81-3.36,12.78.85c44.12,46.87,98.15,79.49,155.14,107.77,14.36,7.12,29.2,13.27,43.85,19.79,8.7,3.87,10.3,8.46,5.67,16.65-12.12,21.45-21.84,43.85-24.4,68.6a108,108,0,0,0,.45,27.94c3.57,22.29,2.45,44.46-1.88,66.23-5.26,26.54-12.52,52.69-18.93,79a27,27,0,0,1-1.1,3.25c-2.11,5.5-6.29,8-11,6.61-5.43-1.6-7.85-6.17-6.16-12.26,3.11-11.21,6.65-22.31,9.58-33.57,7.23-27.79,13.15-55.83,13.21-84.72,0-7.59-1.13-15.24-2.2-22.79-4.61-32.41,4.66-62,18-90.86C384.39,411,386.05,407.78,387.64,404.55Z"/><path class="cls-1" d="M544.59,412c-6.65-.87-16.39-1.64-25.91-3.51a20.9,20.9,0,0,1-12.46-33.87,195,195,0,0,1,17.91-19.34c10.1-9.57,25.82-7.11,33,5,4,6.73,7.61,13.68,11,20.74C575.42,396.52,564.83,412.48,544.59,412ZM547,393.87c.74-.23,3.82-.33,4.55-1.69s-.41-4.21-1.32-6.12c-2.46-5.15-5.23-10.14-7.87-15.21-1.89-3.61-4.27-4.14-7.14-1.09-4.57,4.86-9.2,9.67-13.61,14.68-3,3.39-2,6.18,2.34,6.77C531.08,392.2,538.28,392.89,547,393.87Z"/></svg>