<svg id="Livello_1" data-name="Livello 1" xmlns="http://www.w3.org/2000/svg" viewBox="0 0 800 800"><defs><style>.cls-1{fill:#26475c;}</style></defs><path class="cls-1" d="M199.53,671.11a8,8,0,0,1-5-5.69c-.89-3.3,1.47-6.52,3.31-9,9.4-12.78,18.71-25.64,28.38-38.22a23,23,0,0,1,8.82-7.08c24.74-10.36,42-27.7,51.6-52.89,5.71-15,12.58-29.44,18.76-44.21,2.62-6.28.83-12.57-4.09-16.08-4.61-3.28-11.45-3.23-15.74.44a22.54,22.54,0,0,0-4.24,5.34q-7.19,11.71-14.16,23.56c-3.91,6.62-9.58,9.93-17.32,10.22-22.06.81-27.23-3.66-30.37-25.53-2.34-16.38-5.18-32.68-8-49-1.4-8.11-.3-15.13,5.47-21.58,8.92-10,17.38-20.42,25.77-30.88a14.13,14.13,0,0,0,2.76-7.53c.39-6.12.12-12.28.12-19.23a29,29,0,0,0-3.42,2.09C218,406.44,194,427.2,169.63,447.62c-8.88,7.46-13.76,16.25-12.86,28a73.91,73.91,0,0,1,0,9.53c-.28,5.38-3.34,8.63-8,8.73s-8.08-3-8.35-8.35c-.82-16.54.23-32.58,13.18-45.14a5.94,5.94,0,0,0,1.31-3.25,44.36,44.36,0,0,0,.07-4.76,93.72,93.72,0,0,0-5.11-34c-22.28-65.78,9.76-135.75,73.77-163.06,14.73-6.28,29.61-12.24,44.06-19.13,28.5-13.58,42.53-36.83,43.83-68.09.15-3.7-.1-7.42.08-11.12a7.92,7.92,0,0,1,15.82-.17c3.51,46.88-21.21,81-56.18,95.72-15.24,6.41-30.62,12.57-45.5,19.73C188,270.45,166.18,300.65,160,342.05c-3,20,.12,39.19,7.23,58.05,2.78,7.37,3.76,15.42,5.62,23.45,2.58-2.14,5.89-4.82,9.14-7.59,19.73-16.83,39.4-33.73,59.2-50.47,3.06-2.59,5.06-5.22,4.39-9.41a16.61,16.61,0,0,1,.12-4.22c.49-4.5,3.1-7,7.54-7.4,4.17-.36,7.76,2.78,8.38,7.17a34.29,34.29,0,0,1,.11,4.76c0,36.18-.27,72.36.19,108.54.13,9.86,2.5,19.69,4.68,29.6,6-7.54,12.42-13.08,21.69-14.75,21.75-3.92,40.68,16.73,32.89,37.37C313,538.84,303.34,560,293.34,581c-3.64,7.62-9.77,14.2-15.46,20.63a16.54,16.54,0,0,0-4.4,10.79c-.92,16-1.89,32-3,48.05-.45,6.49-3.37,9.33-8.59,9-5-.28-7.7-3.71-7.37-10.14.69-13.37,1.62-26.73,2.5-41-8.61,4.6-17.23,7-22.65,15.45-6.81,10.68-14.86,20.58-22.47,30.75-1.66,2.22-3.58,6.19-6.46,6.93a10.24,10.24,0,0,1-2.71.21A9.64,9.64,0,0,1,199.53,671.11Zm46-236.78-1.18-.45c-5.57,6.71-11.2,13.36-16.64,20.17a5.65,5.65,0,0,0-.67,4q4.68,29.43,9.61,58.83c.26,1.52,1.3,3.61,2.53,4.14a12.94,12.94,0,0,0,16.52-6.38,5.86,5.86,0,0,0,.14-4.35c-8.75-18.28-10.95-37.68-10.34-57.63C245.73,446.53,245.57,440.43,245.57,434.33Z"/><path class="cls-1" d="M671.58,590c-6.68,7.14-11.56,6.11-16.73-2.29-8.22-13.36-11.46-27.42-10.85-43.18.91-23.25,0-46.57.32-69.85.13-10.66-3.58-19.07-11.66-25.93q-37.29-31.68-74.43-63.55c-.52-.45-1.12-.8-2.93-2.07,1.44,11.5-3.34,22.47,6.37,31.86,7.57,7.31,13.43,16.36,20.64,24.07,7,7.52,9.54,15.68,6.87,25.66-1.17,4.39-1.34,9.05-2.35,13.5a7.62,7.62,0,0,1-9,6.19,7.73,7.73,0,0,1-6.7-8.69c.6-5.58,1.82-11.1,2.59-16.68.22-1.63.43-3.86-.44-5a168.46,168.46,0,0,0-17.81-19.84c0,4.32,0,8.65,0,13,.15,17.28.41,34.58-5.7,51.15a89.12,89.12,0,0,1-4.13,10.27c-1.5,2.91-1.15,5.15.59,7.78,2.65,4,12.08,7,16,4.43,1.21-.78,1.78-2.91,2.18-4.53.68-2.72.7-5.63,1.52-8.29a7.42,7.42,0,0,1,8-5.58c4,.3,7.69,2.8,7.29,6.92A69.23,69.23,0,0,1,577,528.71c-2.12,5.17-7.28,8-13.19,8.42-4,.25-8.1.25-12.15.3-7.95.09-13.77-3.44-17.78-10.29-4.71-8-9.55-16-14.43-24-4.48-7.31-11.33-9.65-17.91-6.28s-8.78,10.41-5.48,18.19c7.07,16.68,14.17,33.35,21.43,50,9,20.47,23.94,35.06,44.39,43.84a35.31,35.31,0,0,1,15.71,12.59c8.28,11.84,17.12,23.29,25.68,34.94,1.71,2.32,3.87,5.26,3.43,8.33a10.16,10.16,0,0,1-3.1,5.42c-1.7,1.61-4.58,1.91-6.79,1.5-2.81-.52-3.53-2.71-5.14-4.77l-4.72-6q-4.73-6-9.41-12.07c-2.8-3.63-5.83-7.15-8.09-11.11-5.54-9.74-14.06-15.34-25.27-18.73.61,10.54,1.21,21,1.81,31.39.21,3.7.62,7.4.59,11.09,0,4.7-3.06,7.81-7.35,8.07-4.69.28-8.1-2.43-8.47-7.42-1.16-15.65-2.29-31.31-3-47A23.92,23.92,0,0,0,521.83,600c-7.25-8.95-14-18.61-19.12-28.91-8.08-16.38-14.7-33.5-21.76-50.38-8-19.19,2.75-38.62,23.32-41.29,12.56-1.63,22.1,4.27,28.87,14.81,3.31-4.62,6.1-17,6.12-27.68q.06-55.05,0-110.12a36,36,0,0,1,.09-4.76c.58-4.38,4.13-7.56,8.31-7.24,4.43.33,8,3,7.43,7.3-1.1,8.81,4.06,13.24,9.9,18.13,20.28,17,40.28,34.32,60.4,51.5,1,.88,2.16,1.63,3.19,2.4.49-.54.91-.8.89-1-1-10.17,3-19.18,6.1-28.54C647.49,359,643,325.55,623.48,294c-.92-1.5-2-2.91-2.9-4.42-2.79-4.63-2.12-9,1.73-11.63a7.61,7.61,0,0,1,11.42,2.6c5.84,10.2,12.29,20.31,16.34,31.25,11.93,32.23,10.56,64.44-2.06,96.45-2.2,5.6-1.4,12.39-1.93,18.64-.61,7.15.41,13.29,5.77,19.22,7.22,8,8.86,18.55,8.86,29.21,0,25.06.27,50.12-.15,75.17-.15,9.13,1.19,17.43,6.31,25.05,1.74,2.59,3.15,5.4,4.71,8.11Z"/><path class="cls-1" d="M481.65,129.4c4.73,0,7.48,3.31,7.88,8.67.73,9.81.48,19.9,2.82,29.33,5.88,23.73,21,40.19,43.33,50,16.11,7.05,32.42,13.68,48.3,21.19,7.9,3.74,15.21,8.82,22.5,13.72,5,3.34,5.77,7.75,3,11.76s-7.75,4.73-12.49,1.11c-16.9-12.94-37-19.47-56.12-27.81-14.92-6.49-29.67-13-41.19-25.06-16.94-17.76-25.9-38.71-26.07-63.32,0-4.06-.15-8.12.06-12.17A7.63,7.63,0,0,1,481.65,129.4Z"/><path class="cls-1" d="M365.35,504.8C365,515.14,363,525.43,358.16,535c-2.78,5.54-6.92,7.38-11.47,5.15s-5.61-6.52-3.08-12.22c9.87-22.27,6-43.72-10.92-61.25-4.51-4.66-5-8.75-1.48-12.49,3.66-3.88,8.11-3.59,12.91,1.09C357.93,468.78,364.67,485.32,365.35,504.8Z"/><path class="cls-1" d="M435.71,504.21c.6-18.66,7.25-35.23,21-48.71,4.91-4.8,9.16-5.19,12.91-1.44s3.22,8-1.5,12.88c-16.7,17.16-20.57,38.94-10.82,60.82,2.69,6,1.55,10.36-3.28,12.53-4.61,2.08-8.41.22-11.28-5.53A72,72,0,0,1,435.71,504.21Z"/><path class="cls-1" d="M156.81,541.81a37.19,37.19,0,0,0,0,5.28c2.37,16-4.08,29.63-11.92,42.81-2.7,4.55-7,6.08-11.15,4s-6.12-7-3.1-11.26c9.94-14,10.66-29.7,9.72-45.9-.3-5.28-.19-10.59,0-15.87.21-5.51,3.75-9.18,8.33-9.08s7.92,3.79,8,9.37C156.91,528,156.8,534.93,156.81,541.81Z"/><path class="cls-1" d="M307.73,453.3c-7.17,0-14.33,0-21.5,0-4.51,0-8.1-2.82-8.51-7-.45-4.71,1.56-8.54,6.27-8.78a217.18,217.18,0,0,1,27.24.35c4.22.32,6.43,5.06,5.61,9.35C316.06,451.28,312.65,453.58,307.73,453.3Z"/><path class="cls-1" d="M506.11,436.1c2.73.33,7,.57,11.08,1.39,4.73.95,6.63,4.32,6.11,9-.45,4.12-4.13,6.84-8.64,6.82q-10.75,0-21.5.11c-5.16.07-8.52-2.41-9-6.85-.52-4.67,1.86-7.82,6.85-9a27,27,0,0,1,4.13-.85C498.28,436.43,501.45,436.34,506.11,436.1Z"/><path class="cls-1" d="M409.36,431.59c0,3.18.2,6.37-.05,9.52-.38,4.83-3.88,8.11-8.14,8s-7.74-3.46-7.9-8.33c-.2-6.17-.24-12.35,0-18.51.21-4.78,3.85-8.17,8.22-7.9,4.71.29,7.43,3,7.78,7.72.24,3.16,0,6.34,0,9.51Z"/><path class="cls-1" d="M393.22,217.32c0-2.82-.14-5.65,0-8.46.28-4.82,3.6-8.25,7.88-8.4a8,8,0,0,1,8.15,8c.29,6.33.26,12.69,0,19-.2,4.68-3,7.46-7.73,7.74-4.41.25-7.93-3-8.27-7.84-.24-3.33,0-6.69,0-10Z"/><path class="cls-1" d="M393.23,146.47c0-3-.16-6,0-9,.3-4.9,3.52-8,8-8.08s7.81,2.84,8,7.94c.28,6.33.26,12.69-.05,19a8,8,0,0,1-7.83,7.76,8.39,8.39,0,0,1-8.15-8.13C393.06,152.82,393.23,149.64,393.23,146.47Z"/><path class="cls-1" d="M393.23,360.55c0-3.17-.18-6.35,0-9.5.35-4.87,3.65-7.93,8.22-7.8,4.88.13,7.58,2.92,7.77,7.57.28,6.5.28,13-.06,19.53a7.78,7.78,0,0,1-8,7.51,8.31,8.31,0,0,1-7.9-7.8c-.26-3.15-.05-6.34-.05-9.51Z"/><path class="cls-1" d="M409.33,503.11c0,3.17.23,6.36-.05,9.5-.42,4.65-3,7.42-7.86,7.53a7.57,7.57,0,0,1-8.08-7.35c-.32-6.5-.3-13,0-19.54a8.22,8.22,0,0,1,7.94-7.76c4.06-.06,7.4,3.08,8,7.59a10.43,10.43,0,0,1,.15,1.57c0,2.82,0,5.64,0,8.46Z"/><path class="cls-1" d="M393.21,645.23c0-2.82-.11-5.65,0-8.46.24-5.25,3.42-8.55,8.08-8.58s7.78,2.92,8,8c.27,6.16.26,12.34,0,18.5-.2,4.85-3.74,8.22-7.95,8.22-4.41,0-7.89-3.63-8.13-8.71C393.1,651.23,393.21,648.22,393.21,645.23Z"/><path class="cls-1" d="M409.33,288.78c0,3.34.22,6.7-.05,10-.38,4.67-3,7.42-7.82,7.55a7.72,7.72,0,0,1-8.17-7.84c-.24-6.33-.26-12.68,0-19a8,8,0,0,1,7.92-7.71c4.21-.07,7.55,2.86,8,7.49.3,3.14.05,6.32.05,9.49Z"/><path class="cls-1" d="M393.22,574.23c0-3-.13-6,0-9,.26-5,3.38-8.15,7.81-8.28,4.65-.15,8,2.64,8.21,7.71.32,6.31.31,12.67,0,19-.24,5-3.69,8-8.17,7.83s-7.59-3.44-7.86-8.3C393.08,580.22,393.22,577.22,393.22,574.23Z"/></svg>