<svg id="Livello_1" data-name="Livello 1" xmlns="http://www.w3.org/2000/svg" viewBox="0 0 800 800"><defs><style>.cls-1{fill:#26475c;}</style></defs><path class="cls-1" d="M590.73,703.6c-9.34-1.8-18.07-6.4-25.89-11.89-12.87-9-17.29-23.28-20.52-38.12q-25.52-117-51.49-233.85c-2.48-11.21-.6-16,9.69-23.24-4.38-19-8.78-38.14-13.37-58.05-10.49,2.64-18.22-3.51-26.64-7.65-10.25-5-20.62-9.84-29.81-14.21-7.9,12.53-14.66,25-23.11,36.24-13.93,18.51-33.09,31.54-50.87,46a227.19,227.19,0,0,0-26.18,25.64c-6.85,7.69-11,17-13.15,27.41-7.3,34.65-31.5,58.67-66.07,64.35-49.77,8.18-102.74-28-106.6-80.26-1.37-18.49-.8-37.14-.92-55.71-.12-19.78-.05-39.55,0-59.33,0-2.34-.32-5.39.95-6.86,2.21-2.55,5.48-5.55,8.42-5.68,2.63-.11,6,2.94,7.94,5.45,1.34,1.73,1,4.91,1,7.44.07,35.8-.32,71.6.18,107.38.69,49.3,54.81,84.52,100.5,65.71,20.33-8.36,31.84-24.54,36.34-45.21A89.43,89.43,0,0,1,328,402.08c14.09-13.22,29.63-24.89,44.44-37.36,16.95-14.26,31.87-30.15,40.11-51.25,3.37-8.62,2.46-10.81-6.09-13.38s-17-4.91-24.72-7.14c-5.4,9.35-9.44,19-15.83,26.75a153.7,153.7,0,0,1-26.84,25.77C317.41,361.41,300,381,284.37,402.6c-6.63,9.17-14.34,18.14-23.29,24.94-21.79,16.57-48.64,11.2-62.7-12.32-16.49-27.58-14.37-55.84.34-83.43,6-11.27,17-16.7,28.91-20.09,5.68-1.61,11.47-2.93,17-4.86A23.93,23.93,0,0,0,260.61,283c-.61-10.74-8.36-20.31-18.76-22.46a54,54,0,0,0-13.54-1c-23.28,1.1-30.79-11.76-33.88-28.08-5.09-26.9,6-47.93,26.86-64.06,15.9-12.28,34.77-17,54.51-16.8,31.82.25,60.48,9.82,82.81,33.33,8.28,8.72,14.3,19.6,22.33,30.87l32-9.16A115.52,115.52,0,0,0,383.68,158c-25.48-25.41-56.54-39-92.19-42.47-32.38-3.21-62.47,3.07-89.6,21.54-23.12,15.73-34.21,38.54-36.08,65.6-1.57,22.84-1.13,45.81-1.65,68.73-.06,2.54.28,5.73-1.07,7.44-2,2.5-5.3,5.39-8.06,5.4s-5.65-3.16-8.25-5.23c-.74-.59-.94-2.22-.9-3.36.9-27.62.27-55.41,3.19-82.83,4.27-40.1,28.31-66.49,64.22-83,74.35-34.15,172.88-.68,209.1,71.12,1.84,3.66,3.51,7.41,5.75,12.17,13.87-6.74,27.6-13.1,41-20.07a38.45,38.45,0,0,1,18.61-4.61c37.38.21,74.77.09,112.15.1,21,0,30.87,9.9,30.87,30.81q0,55.17,0,110.35c0,18.63-10.41,29.07-28.92,29.08H571.18c3.07,14,6,27.22,9,41,13.18.52,16.58,9.61,18.95,20.77,9.24,43.37,19,86.62,28.61,129.92,1.56,7.06-.64,11.78-6.22,13.24-5.25,1.37-9.75-2.12-11.38-9.19-2.43-10.53-4.68-21.1-7.09-32.07l-45.33,9.93c-6.74,1.48-13.45,3.12-20.23,4.38-3.61.67-4.36,2.24-3.58,5.72,9.94,44.63,19.69,89.31,29.67,133.93,4,18.13,18.36,30,35.46,30.05,16.45,0,31.57-11.15,34.45-27.83,1.48-8.57-.27-18-1.93-26.77-3.4-18-7.76-35.81-11.65-53.72-1.26-5.79,1.39-10.4,6.34-11.48,5.35-1.17,9.75,1.3,11,7.17,5.33,24.25,11.26,48.42,15.3,72.89,5,30-22.7,56.26-51.46,57.66A43.5,43.5,0,0,1,590.73,703.6ZM361.25,219.21c-2.83-5-4.83-9.27-7.45-13.11-23.05-33.79-76.25-47.8-112.92-29.69C224.16,184.67,214,198,211.37,216.64c-2.4,16.93,4.31,24.84,21,24.9,1.59,0,3.17,0,4.75,0,20,.41,37.29,15.33,41,35.42a41.93,41.93,0,0,1-26.46,46.5c-6.44,2.39-13.21,3.92-19.81,5.87-7.81,2.3-15,5.88-18.68,13.47-9.89,20.48-11.57,41.34-.19,61.79,8.72,15.64,24.46,18.89,38.52,7.69,6.68-5.32,12.34-12.21,17.45-19.13,12.36-16.71,24.64-33.44,40.58-47,9.48-8.06,19.51-15.47,29-23.51,10.65-9,19.23-19.63,23.67-33.69a40.85,40.85,0,0,0-4.85-1.24c-17.79-2.36-35.58-4.72-53.38-6.95-7.35-.92-10-3.62-10.05-11.07,0-10.28,0-20.56,0-30.84,0-8.78,2.68-11.72,11.31-12.54,9.24-.87,18.51-1.49,27.71-2.65S351.11,220.84,361.25,219.21Zm201,101.5V187.18H489.72V320.71Zm18.89.24c6.94,0,13.23,0,19.52,0,9.63,0,11.85-2.19,11.86-11.85q0-42.35,0-84.69,0-14.21,0-28.43c0-4.33-1.38-8.51-6-8.84-8.36-.61-16.79-.17-25.34-.17ZM470.56,314V193.53c-12.56,5.52-24.79,10.82-36.91,16.39-1.14.53-2.12,2.75-2.12,4.2q-.19,39.67,0,79.35c0,1.32.67,3.4,1.62,3.83C445.39,302.94,457.77,308.35,470.56,314ZM413,224.42A467,467,0,0,1,312,244.25v17.1L413,281.13ZM529.17,500.2l70-15.52c-2.65-11.88-5.13-23-7.67-34.32l-70,15.53C524.16,477.73,526.63,488.82,529.17,500.2ZM510,413.8l7.66,34.33c22.64-5,44.71-9.78,66.73-14.8,1.1-.25,2.7-2.57,2.49-3.62-2.08-10.36-4.49-20.65-6.89-31.37Zm10.27-20.9,42.26-9.3L552.58,339H507.91C512,357,516.05,374.5,520.27,392.9Z"/></svg>