<svg id="Livello_1" data-name="Livello 1" xmlns="http://www.w3.org/2000/svg" viewBox="0 0 800 800"><defs><style>.cls-1{fill:#26475c;}</style></defs><path class="cls-1" d="M164,376.24c2.56-72.91,31.61-137.33,97.52-181.79,72.1-48.62,169-39.19,231.08,21.77,55.73,54.7,76.95,121.54,66.72,198.26-8.63,64.79-39.53,116.85-94.13,153.56-72.06,48.46-167.79,39.62-230.49-20.45C187.31,502.22,165.19,446.18,164,376.24Zm19.2-2.67c.49,59.7,16.68,105.93,50.11,146.28C296.48,596.12,410.57,602.1,481,532.47c79-78.12,83.17-209.38,9.22-292.76-57.94-65.32-150.47-77.7-222-27.8C209.89,252.58,185.34,311.52,183.18,373.57Z"/><path class="cls-1" d="M228.17,372.13c1.22-42.52,19-86.6,61-118.25,52.88-39.87,122.2-31.94,168.06,17.94,54.76,59.57,54.38,160.84-.83,219.93-57.8,61.87-150.27,54.74-198.81-15.29C237.72,447.8,228.19,416,228.17,372.13ZM351.79,514.65c37.6.16,60.09-9,79.34-25.9C488,438.91,494,343.64,444,286.75c-44.83-51.06-113.31-52.07-159.54-2.37-42.2,45.37-48.25,122.69-13.34,176.48C292.77,494.17,322.68,513.93,351.79,514.65Z"/><path class="cls-1" d="M550.4,621.79A8.25,8.25,0,0,1,556,607.37a7.16,7.16,0,0,1,5,2,45.51,45.51,0,0,0,29.41,10.73c17,0,27.18-8.14,27.18-21.08,0-13.69-11.1-19.42-29-19.42h-6.11a8.23,8.23,0,1,1,0-16.46h6.11c15,0,27.18-5.55,27.18-18.31,0-12.58-11.83-19.23-26.45-19.23a40.5,40.5,0,0,0-27.18,10,8.8,8.8,0,0,1-4.81,1.67,7.89,7.89,0,0,1-8-7.95,8.14,8.14,0,0,1,2.77-5.74c9.62-8.69,22.38-14.42,38.84-14.42,25.15,0,43.27,12.39,43.27,33.1,0,17.2-14.61,26.26-26.81,28.48C619,571.86,636,581.48,636,600.9c0,20.71-17.2,35.69-45.12,35.69C573.33,636.59,559.64,630.3,550.4,621.79Z"/></svg>