<?xml version="1.0" encoding="utf-8"?>
<!-- Generator: Adobe Illustrator 28.4.1, SVG Export Plug-In . SVG Version: 6.00 Build 0)  -->
<svg version="1.1" id="Livello_1" xmlns="http://www.w3.org/2000/svg" xmlns:xlink="http://www.w3.org/1999/xlink" x="0px" y="0px"
	 viewBox="0 0 578.6 791.9" style="enable-background:new 0 0 578.6 791.9;" xml:space="preserve">
<style type="text/css">
	.st0{fill:#26475C;}
</style>
<g>
	<path class="st0" d="M226.3,788.7c-2.2-0.4-4.3-1.1-6.5-2.1c-3.9-1.8-7.7-4-10.9-6.8c-6.7-6-10.2-14.2-10.5-23.2
		c-0.2-7.3,2-15.3,5.5-21.8c12.5-23.5,26.1-46.4,39.2-69.5c1.2-2.2,2.3-4.4,3.7-7.1c-5.2,0.5-9.7,1.5-14.2,1.1
		c-14.9-1.2-25.5-8.8-30.8-22.8c-5.8-15.3-11.3-30.7-16.4-46.3c-6.7-20.5,4.6-40.2,25.7-45.4c15.9-3.9,31.8-7.7,47.7-11.6
		c0.5-0.1,0.9-0.5,1.8-1.2c-3.1-2.9-6.3-5.6-9.1-8.7c-8-8.8-12.4-19.1-13.7-31c-0.4-4.1-2.4-8.9-5.3-11.9
		C164.3,409.5,95.6,338.7,26.8,268.1c-3.3-3.4-7.5-6.1-11.7-8.2c-12-6-17.7-18.2-14-32.3C21.2,150.2,64.8,89.7,132.3,47.1
		c107.1-67.5,247.5-58.1,345,22.4c1.6,1.3,3.3,2.5,4.6,4c4.3,4.9,4.8,10.3,0.7,15.3c-4.2,5-9.8,5.8-15.1,2.1
		c-6.9-4.8-13.3-10.4-20.2-15.3c-23.5-16.8-49-29.3-78.2-38.3c53.7,57.2,73,127.1,83.7,201.2c1.7,0.2,3.7,0.6,5.6,0.6
		c29.7,0,59.4,0.1,89.1,0c8.4,0,8.8-0.7,6.6-9c-9.3-35.9-25.4-68.5-48-97.9c-7.7-10-8.1-16.3-1.4-21.2c6.4-4.7,12.2-2.7,19.6,7
		c25.2,33,43,69.5,53.1,109.7c3.7,14.9-2.3,26.8-16.4,33c-2.7,1.2-5.3,3.1-7.4,5.2c-69.4,71.4-138.8,143-208.1,214.5
		c-2,2.1-4.3,5-4.4,7.6c-0.8,18.1-8.4,32.4-24.1,44.1c6.7,1.8,12.4,3.3,18.1,4.7c10.9,2.7,21.9,5.2,32.8,7.9
		c9.4,2.3,16.9,7.4,21.9,15.6c3.5,5.8,2.4,12.1-2.6,15.8c-5,3.7-10.7,2.4-15.9-1.9c-4.1-3.4-9-6.7-14-8c-20-5.4-40.2-10.2-60.4-14.7
		c-4.6-1-9.8-1.2-14.3-0.2c-21.5,4.8-42.8,10.1-64.2,15.3c-10.7,2.6-14.1,8.5-10.6,18.6c4.8,13.8,9.7,27.5,14.7,41.2
		c3.1,8.4,8.8,11.6,15.8,9.2c6.7-2.4,9.2-8.8,6.4-17.1c-1.9-5.8-4.2-11.5-6.1-17.4c-2.9-8.9,0.1-14.5,8.9-17
		c4.9-1.4,9.9-2.7,14.9-3.7c8.5-1.6,14.5,2.7,14.6,11.2c0.3,18.9,0.3,37.9-0.1,56.8c-0.1,3.3-1.9,6.8-3.6,9.9
		c-15.8,28.1-31.8,56.1-47.7,84.1c-1.1,2-2.4,3.9-3.3,6c-2.9,6.4-1,12.8,4.7,16c5.6,3.2,12.2,1.6,15.9-4.6
		c6.2-10.3,12-20.8,17.9-31.3c5.6-9.8,11.1-19.6,16.7-29.4c7.1-12.2,16.6-12.1,23.7,0.3c11.3,19.8,22.2,39.7,34,59.2
		c2.1,3.5,7.5,6.3,11.6,6.8c3,0.3,8.5-3.4,9.2-6.3c1.1-4.4,0.3-10.2-1.9-14.2c-15.4-28-31.2-55.8-47.3-83.5
		c-4-6.9-5.9-13.8-5.7-21.8c0.4-15.4,0-30.7,0.1-46.1c0.1-10.8,5.9-15.3,16.5-12.9c4.5,1,9,2,13.4,3.3c8.5,2.5,11.5,8,8.8,16.3
		c-2.1,6.6-4.6,13-6.7,19.6c-2.3,7.1,0.7,13.4,7,15.5c6.3,2.1,12-0.5,14.9-7.2c1.3-3,2.2-6.3,3.4-9.4c3-7.8,8.9-11.3,15.2-9
		c6.6,2.3,9.1,8.5,6.6,16.4c-8.4,26.9-19.3,34.2-48.8,31.9c9.1,16.1,18.1,31.9,27,47.6c5.4,9.6,11,19.1,16.3,28.7
		c5.3,9.6,7.9,21.1,3.9,31.7c-1.8,4.8-4.9,9.1-8.7,12.6c-4.5,4.1-11.2,8-17,9.7c-20.6,5.9-35.1-10.9-43.5-27.3
		c-6.1-11.9-13.1-23.3-20.4-36c-7.6,13.3-15,25.1-21.3,37.5c-6.3,12.4-16.2,24.9-31,26.3C233.3,789.4,229.8,789.4,226.3,788.7z
		 M277.4,26.3c-3.4,0.6-5.9,1-8.3,1.6c-23.1,5.8-40.9,19.6-55.3,37.9c-39.8,50.5-54.7,110.5-64.7,172.6c43.3,0,85.8,0,128.4,0
		C277.4,167.7,277.4,97.7,277.4,26.3z M301.2,238.6c43,0,85.3,0,128.8,0c-3.4-17.2-6.2-33.8-10.2-50.1
		c-10.1-41-24.3-80.2-49.6-114.6c-14.9-20.4-33-37-57.8-44.8c-3.5-1.1-7.2-1.6-11.3-2.5C301.2,97.8,301.2,167.8,301.2,238.6z
		 M125.6,238.7c11.1-73.5,30-142.9,81.2-200.5c-2.4,0.6-3.9,0.7-5.2,1.2c-92,33.4-151.2,97.2-177.7,191.4c-1.7,6-0.1,8.3,6.4,8.3
		c30.2-0.2,60.4-0.1,90.6-0.1C122.4,239.1,123.9,238.9,125.6,238.7z M156.3,262.5c34.9,61.9,69.2,122.7,103.4,183.4
		c4-2,6.9-4.2,10-4.9c6.8-1.5,8.3-5.3,8.2-11.9c-0.3-52.4-0.2-104.9-0.2-157.3c0-3,0-5.9,0-9.3C237,262.5,197.5,262.5,156.3,262.5z
		 M319.1,445.6c34.3-60.9,68.5-121.5,103.1-183c-41.1,0-80.8,0-121.4,0c0,17.8,0,35.2,0,52.6c0,38.1,0.1,76.3-0.1,114.4
		c0,5.8,0.7,9.7,7.3,11C311.6,441.3,314.9,443.7,319.1,445.6z M53.4,262.2c60.3,62.2,119.1,122.7,178.4,184c0.1-1.6,0.2-1.9,0.1-2.1
		c-33.5-59.5-66.9-119-100.5-178.4c-0.9-1.6-3.4-3.4-5.2-3.4C102.7,262.1,79.2,262.2,53.4,262.2z M525.2,262.2c-4.6,0-7.1,0-9.5,0
		c-19.5,0-38.9,0.2-58.4-0.1c-6.1-0.1-9.5,1.7-12.6,7.2c-31.5,56.5-63.4,112.8-95.1,169.1c-1.2,2.1-2.2,4.3-3.3,6.5
		c0.3,0.2,0.7,0.5,1,0.7C406.1,384.9,464.9,324.3,525.2,262.2z M289.2,460.1c-15.7,0.1-28.1,12.6-28.1,28.4
		c0,15.7,12.6,28.4,28.2,28.4c15.8,0.1,29-13.3,28.7-28.9C317.6,472.4,304.9,460,289.2,460.1z"/>
</g>
</svg>
