<svg id="Livello_1" data-name="Livello 1" xmlns="http://www.w3.org/2000/svg" viewBox="0 0 800 800"><defs><style>.cls-1{fill:#26475c;}</style></defs><path class="cls-1" d="M691.72,397.16c-.9,4.4-1.67,8.84-2.72,13.2-4.79,19.72-13.66,27.68-34.34,30.49,4.64,7.79,9.28,15.32,13.66,23,20,35,10.4,76-23,98.41a173.42,173.42,0,0,1-52.54,23.59c-48.79,13-97,9.42-144.91-5-2.35-.71-4.71-1.4-7-2.25-5.49-2-7.95-6.18-6.47-10.85,1.61-5.1,5.94-7,11.77-5.63,17.06,4.07,34,9.4,51.28,11.72,48,6.45,94.45,1.65,136.64-24.9,19.33-12.17,28.41-29.79,27-52.67-.58-9.27-4-17.59-8.76-25.47q-19.78-32.82-39.47-65.7c-2.21-3.66-3.58-7.7-.54-11a11.35,11.35,0,0,1,8.21-3.37c2.44.24,5.24,2.79,6.81,5.06,4,5.76,7.3,11.94,10.93,17.93,4.15,6.86,14.9,11.37,22.13,8.34,3.52-1.48,7.65-4.54,8.92-7.86,5.89-15.53,7.51-31.71,2.93-47.87-3.64-12.83-15.31-19-26.34-14.27-3.67,1.58-6.58,4.95-10.86,8.31,4.45,2.28,7.27,3.63,10,5.15,5.07,2.82,6.71,7.36,4.41,11.85s-7.12,6-12.13,3.62c-12.8-6.1-25.48-12.46-38.27-18.58-9.64-4.61-18.9-3.4-27.2,3.05s-11.72,15.17-9.79,25.61a35.9,35.9,0,0,0,3,8.49q17.32,37,34.8,73.88c.56,1.2,1.22,2.35,1.71,3.58,1.94,4.85.43,9.66-3.64,11.73-4.35,2.22-9.49.52-11.93-4.32-3.56-7.09-6.85-14.32-10.24-21.5-2.35-5-5.17-9.76-6.87-14.93-2.65-8-8.23-12.55-16-14.26-13.43-3-26.94-5.54-40.47-8-6.2-1.14-11.59.93-17.05,4.26-24.06,14.69-48.4,28.93-72.6,43.4-3.73,2.23-7.8,3.5-10.89.11-2-2.18-3.48-6.17-2.94-8.91.5-2.58,3.58-5.18,6.16-6.74q39.87-24,79.95-47.7c9.24-5.48,14.37-13.31,14-24.22-.55-15.27-13.65-26.41-29.2-25-1.89.17-3.76.52-5.63.82-8.11,1.32-14.21.13-18.37-8.71-4.63-9.83-15.08-13.21-27.82-11.06,3,16,1.29,31.65-5.05,48.07,9.88-4.53,18.55-8.53,27.24-12.46a23.85,23.85,0,0,1,5.81-2.15c4.21-.7,7.48,1,9.17,5s.65,7.48-2.71,10.11a24.48,24.48,0,0,1-5,2.7c-20.24,9.37-40.36,19-60.8,27.94-14.53,6.33-24.87,16.2-30.55,31-1.43,3.7-2.91,7.4-4.67,11a8.6,8.6,0,0,1-11.09,4.26,8.49,8.49,0,0,1-4.72-10.79c7.75-22.94,20-42.08,44-51,5.73-2.13,9.24-6,12.05-11.16,8.31-15.43,12.86-31.47,9.11-49.09-.31-1.46-.83-2.88-1.08-3.73-8.28,2.8-16.34,5.72-24.54,8.2a31,31,0,0,1-9,.81c-4.92,0-8.38-3.39-8.6-8-.24-4.82,3-8.65,8.21-9a48.83,48.83,0,0,0,25.61-9c-3.27-3.27-6.12-6.48-9.34-9.26-3.42-2.95-5-6.22-4.66-10.89,1-12.54-5.16-17.94-17.62-15.55-5.95,1.15-10.09-.42-13.33-5.8s-7.27-10.15-11-15.18c-3.52-4.77-3.33-9.26.57-12.6s9.15-3.3,12.37,1.52c6.23,9.32,13.47,14.65,25.49,15.79,12.35,1.18,19.8,13,21.14,26.86a15.07,15.07,0,0,0,3,6.79c3.86,5.36,7.91,10.59,12.18,15.63,1.14,1.35,3.51,2.8,5,2.54,18.42-3.15,33,2.85,44.53,17.43,1.07,1.35,3.84,2.11,5.72,1.95,14.25-1.22,27.08,1.7,37.7,11.9,11.2,10.76,19,30.21,7.88,52.72l31.11,6.23c-2.41-6.89-5.68-13.74-7.16-21-3.43-16.74,2.45-30.71,15.42-41.34,13.27-10.88,28.33-12.74,44.25-6.3,5.22,2.11,10.24,4.75,15.68,7.29,4.81-9.14,11.78-15.5,21.47-18.48,19.49-6,38.84,4.19,46.24,24.37,1.42,3.85,2.39,7.87,3.57,11.82Z"/><path class="cls-1" d="M108.29,349.46c1.13-70.78,52-130,122.68-140.65,36.29-5.45,70,2.7,100.29,23.54,2.65,1.83,5,6.06,5,9.16,0,2.42-3.52,6.15-6.15,6.88s-6.6-.82-9.22-2.52a127.9,127.9,0,0,0-50.32-19.61c-57.23-9-113.56,22.85-134.94,76.52A124.56,124.56,0,0,0,229.94,471.9c8.88,1.57,18.1,1.58,27.17,1.7,18.95.24,37.91.14,56.86,0a13.71,13.71,0,0,1,11.74,5.5c23.24,29,51.84,51.3,84.87,68.09,1.35.69,2.73,1.3,4,2,5,2.87,6.67,7.45,4.35,11.86s-7.15,6.1-12.19,3.38c-11.31-6.11-22.7-12.16-33.49-19.11a265,265,0,0,1-57.76-51,9.89,9.89,0,0,0-6.64-3c-18.57-.23-37.15,0-55.72-.15-67.48-.53-123.26-43.43-139.5-107.78C110.86,372.42,110,360.83,108.29,349.46Z"/><path class="cls-1" d="M272.46,425.81c9.71,0,16.58-6.21,18.14-16,.4-2.55,1-5.36,2.37-7.41,2.46-3.56,6.44-4,10.18-2.32,4.39,2,5.47,5.95,5,10.46-1.84,18.14-15.74,31.54-34.09,32.88-27.72,2-51.19-27.51-42.83-53.89,4.51-14.23,18-24.47,32.68-24.74,5.54-.11,9.5,3.18,9.81,8.12a8.58,8.58,0,0,1-8.22,9.15c-9,.56-15.25,4.59-17.73,13.2-2.67,9.23.6,17.18,7.22,23.69A23,23,0,0,0,272.46,425.81Z"/><path class="cls-1" d="M319.75,336.6c-.73-.13-2.22-.37-3.7-.66-5-1-7.62-4-7.48-9.06a8.26,8.26,0,0,1,9.17-8c6.89.48,11.05-2,13.06-8.77,1.42-4.78,5.18-6.91,10.15-5.87,4.62,1,7,5.22,6.25,10.5C345.57,326.54,333.29,336.59,319.75,336.6Z"/></svg>