<svg id="Livello_1" data-name="Livello 1" xmlns="http://www.w3.org/2000/svg" viewBox="0 0 800 800"><defs><style>.cls-1{fill:#26475c;stroke:#fff;stroke-miterlimit:10;stroke-width:2px;}</style></defs><path class="cls-1" d="M129.37,611.54c.59-7.49,1.21-15,1.75-22.47,1.91-26.46,3.31-53,5.79-79.37,4.55-48.57,10.25-97,22.89-144.32,7.73-29,23.16-52.85,44.74-73.1C236.44,262.34,272.42,239,314.11,225c18.45-6.19,36.24-5.81,53.79,6.47v-6.19q0-41.15,0-82.3c0-9.08,3.63-12.65,12.84-12.66,12.84,0,25.68,0,38.52,0,8,0,11.93,3.9,11.94,11.95q0,41.16,0,82.31v5.55c6.77-2.68,13.18-5.92,20-7.77,11.75-3.19,23.45-1.13,34.64,2.95,54.74,19.94,101.5,51,135.69,99C633.34,341,638.39,360.51,643.1,380c2.64,10.89,4.58,22,6.66,33,1.48,7.87-1.74,13.13-8.41,14.3-6.37,1.11-11.12-3.24-12.7-11-2.74-13.57-5.57-27.12-8.67-40.61-5.87-25.52-18.62-47.1-37.47-65.27-28-27-59.81-48.24-96.1-62.48-9-3.51-18.19-6.84-28.13-5.08-15.14,2.68-25.33,13.16-26.75,28.38a141.08,141.08,0,0,0,.15,24.23c1.08,13.51,7.24,24.74,17,34.1,5.07,4.87,9.75,10.17,15,14.79a14.14,14.14,0,0,0,8.16,3.3c11.59.36,23.21.32,34.82.12,23.37-.41,42.41,8.64,57.11,26.51,5.2,6.33,9.48,13.49,13.6,20.61,3.43,5.92,1.49,12.05-3.91,15s-11,.87-14.8-4.84c-5.07-7.54-9.94-15.36-16-22.07-8.35-9.26-19.54-13.5-32-14-7-.27-14-.05-22.1-.05,1.39,1.63,2.24,2.76,3.23,3.75q18.45,18.48,36.94,36.93C548.31,429,558.2,452.34,557.91,480q-.31,29.53.1,59.09a12.29,12.29,0,0,0,3.2,7.64c11.36,11.76,23,23.27,34.6,34.78,3.69,3.66,5.53,7.76,3.55,12.82-3,7.56-11.86,9-18.18,2.81-10-9.84-19.92-19.88-29.88-29.81-1.22-1.22-2.52-2.36-4.37-4.08-4,4.22-7.85,8.32-11.82,12.25-5.42,5.37-11.74,5.85-16.3,1.42s-4.17-11,1.35-16.69,13.91-10.5,15.8-17.18c2.72-9.6.7-20.54.7-31.65a41.42,41.42,0,0,0-3.3,2.62c-6.62,6.57-13.14,13.23-19.81,19.74-5.12,5-11.54,5.24-15.94.86s-4.21-10.85.8-15.92c11.37-11.51,22.7-23.07,34.4-34.25,3.34-3.2,4.21-6.4,3.84-10.67a76.07,76.07,0,0,0-22.78-49.05C487.19,398.21,460.73,371.43,434,345c-16.12-15.92-24.11-34.76-23.93-57.54.34-43.26.1-86.52.1-129.78v-5.95H389v6c0,43.61-.15,87.23.06,130.84.1,21.76-7.51,40-22.85,55.32q-40.74,40.59-81.36,81.3c-14,14-21.61,31-22.37,50.77a11,11,0,0,0,3,7.19c11.49,11.88,23.24,23.52,35,35.16,3.55,3.52,5.27,7.51,3.59,12.38-2.58,7.45-11.58,9.45-17.65,3.73-7-6.64-13.73-13.63-20.59-20.45-.82-.82-1.71-1.57-3.4-3.1,0,11.1-.08,21.21.11,31.31,0,1.3,1.31,2.76,2.33,3.83,3.78,3.94,7.69,7.74,11.54,11.59,7.94,7.93,9.24,14.19,4,19.31s-11.27,3.74-19.29-4.36c-3-3-5.76-6.07-9-9.51l-29.57,29.64c-1.74,1.74-3.43,3.55-5.27,5.18-4.81,4.23-11,4.2-15.17,0s-4.24-10.51.22-15.14c7.56-7.85,15.39-15.44,23.06-23.19,5.31-5.36,12.53-10,15.25-16.44,2.65-6.29.67-14.53.68-21.91,0-14.6-.09-29.2,0-43.79.22-24.6,8.63-46.13,25.49-64C280,399.38,294,386,307.66,372.27c.82-.83,1.57-1.73,2.53-2.79-30.29-2.57-49.43-.09-67.79,31.74a61.56,61.56,0,0,1-3.15,5.47,10.43,10.43,0,0,1-13.6,3.12c-4.69-2.54-7.09-8.12-4.8-13.07,11.73-25.31,34.56-49,68.94-49,12.67,0,25.34.15,38-.14a12,12,0,0,0,7.27-2.91c6.44-6,12.61-12.26,18.63-18.67,7.53-8,12.55-17.5,13.31-28.55.65-9.42,1.44-19.09.07-28.34-2.95-20-20.67-30.55-40.76-25.26-22.13,5.81-42.11,16.44-61.36,28.47-24.3,15.18-46.38,32.92-64.11,55.76-14,18-20.12,39.14-25,60.78-8,35.13-12.9,70.78-15.86,106.64-3.56,43.07-6.31,86.21-9.26,129.33-.89,12.93,5.84,22.07,17.69,24.16a19.93,19.93,0,0,0,9.3-.66c38.23-12.51,75.72-26.81,110.48-47.4,17-10.06,32.95-21.44,46.3-36.27s18.49-32.87,19.64-52.16c1.71-28.73-3.55-56.61-11.93-85-6.25,6.29-11.94,12.4-18.09,18a19.07,19.07,0,0,1-8.57,4.35,7.89,7.89,0,0,1-9.37-5.18c-1.05-3.31-.38-7.34.27-10.91.3-1.62,2.34-3,3.7-4.34q25-25,50-50c23.69-23.59,55.39-23.52,79.09.14C456,396.4,472.81,413.16,489.5,430a17.9,17.9,0,0,1,4.75,7.35c1.25,4.64-.56,8.76-4.84,11.24-4.43,2.57-8.93,2.15-12.66-1.33-5.27-4.92-10.25-10.14-15.38-15.22-1.35-1.33-2.75-2.61-5.61-5.3-3.45,19.19-7.16,37-9.75,54.91a136.6,136.6,0,0,0,2.5,52.83c4.89,19.65,17.64,33.65,32.76,45.89,24.93,20.18,53.21,34.66,82.65,46.83,18.6,7.7,37.7,14.25,56.71,20.92a20.75,20.75,0,0,0,27.85-20.31c-1.14-27-3-54.05-4.65-81.07-.7-11.39-1.88-22.76-2.56-34.15-.42-7.16,3.39-11.66,9.52-12.07,6.79-.44,11,3.66,11.56,11.34,2.37,34,4.82,68,7,102,.47,7.33.95,14.93-.4,22.05a42.36,42.36,0,0,1-31.86,33.78c-10.85,2.76-22.19-.23-32.4-4s-20.65-7.56-31-11.49a482.2,482.2,0,0,1-63.31-29.09Q496.92,617.66,484.1,609c-18.33-12.38-35.32-26.38-46.61-45.83-15.09-26-15.74-54.52-13.08-83.36,2.09-22.61,7.61-44.54,14.21-66.22a6.48,6.48,0,0,0-1.2-5.3c-5.13-5.55-10.5-10.88-16-16.09a31.29,31.29,0,0,0-43.77,0c-5.21,5-10.06,10.33-15.4,15.17-2.51,2.29-2.68,4.34-1.73,7.31,8.58,26.66,14.27,53.87,15.3,82,1.45,39.52-10.46,73-42.25,98.51-27.69,22.23-58.54,38.71-91.12,52-18.63,7.63-37.82,15.41-57.06,21.26-11.47,3.49-21.2,2.34-31.74-3-9.21-4.69-17.83-10.94-21.58-21C128.2,634.08,128.51,622.45,129.37,611.54Z"/><path class="cls-1" d="M646.77,453.26A10.55,10.55,0,1,1,636,463.68,10.36,10.36,0,0,1,646.77,453.26Z"/></svg>