<svg id="Livello_1" data-name="Livello 1" xmlns="http://www.w3.org/2000/svg" viewBox="0 0 800 800"><defs><style>.cls-1{fill:#26475c;}</style></defs><path class="cls-1" d="M246.57,670.19a74.61,74.61,0,0,1-20.23-6.57c-17.64-8.48-29.34-22.43-35.7-40.94-15.47-45-25.13-91.24-27.59-138.86-.52-10-.92-20-.93-30-.08-77,.34-154-.32-231.06-.16-18.41,16.19-34.58,36.92-27.27,1.62-8.77,5.6-16.1,13.6-20.62s16.42-4.23,24.71-1c9.88-16,20-20.22,36.63-14.9,3.74-7.86,9-14.39,17.94-17,8.69-2.52,16.64-.81,24.29,4.51,6.17-7.84,13.75-13.35,23.68-15.5,21.66-4.69,44,12.5,44.07,34.63.18,44.49.68,89-.2,133.47-.67,33.86-11.24,65.23-29.77,93.61-18,27.51-30.75,57-37.09,89.32-3.88,19.74-4.92,39.71-4.66,59.78.11,7.91.14,15.83-.05,23.74a7.84,7.84,0,0,1-15.68,0c0-31.42-1.31-62.86,6.09-93.87,7-29.3,17.94-56.86,34.42-82,14.21-21.73,24.91-44.88,28.43-70.67,2-14.9,2.2-30.09,2.66-45.17.31-10.16.6-20.48-.75-30.5-1.94-14.31-13.31-24-27.63-24.2q-42.72-.48-85.47.05a60.58,60.58,0,0,0-31.88,9.64c-8,5.06-16,10.16-23.91,15.42C185.05,253,178.09,265.49,178,281c-.25,60.66-.63,121.34.15,182a477.92,477.92,0,0,0,28.07,155.2c7.95,22.31,24.27,34.33,47.64,36.38,22.25,1.95,41.39-16.05,42.18-39.08.17-4.74-.14-9.5.13-14.24.26-4.59,3.35-7,7.62-7.22,4.07-.16,7.69,2.13,7.88,6.28.58,12.79,1.25,25.67-4.61,37.74-10.39,21.34-33.49,35.11-57.29,32.54C248.72,670.51,247.64,670.36,246.57,670.19ZM367.75,213.74c0-17,.57-32.7-.19-48.39-.55-11.26-10.67-19.53-21.31-19.16-11.3.39-20.2,9.47-20.53,21.25-.22,7.71-.05,15.44-.06,23.16v12.74C340.87,202.4,355,202.85,367.75,213.74Zm-79-10.92h21.07c0-12,.18-23.76-.07-35.47a10.69,10.69,0,0,0-10.35-10.58c-5.6-.08-10.47,4.6-10.59,10.88C288.59,179.21,288.74,190.77,288.74,202.82Zm-15.95.07c0-7.08.33-13.89-.1-20.65a10.38,10.38,0,0,0-20.71.07c-.43,6.75-.1,13.55-.1,20.58ZM178,239.12c6.56-4.63,12.81-9,19-13.46a5.18,5.18,0,0,0,2-2.8,11.37,11.37,0,0,0-9.2-13.23c-5.45-.84-11.21,3.54-11.63,9.64C177.65,225.82,178,232.44,178,239.12Zm36.9-25.34c5.4-2.31,9.87-5.23,14.71-6.05,6.73-1.14,6.85-5.13,6.29-10.12-.66-5.92-5.38-10.4-10.75-10.23A10.72,10.72,0,0,0,215,197.58C214.64,202.79,214.9,208,214.9,213.78Z"/><path class="cls-1" d="M534.73,670.07a55.92,55.92,0,0,1-13.89-3.93,51.78,51.78,0,0,1-11.92-6.86c-14.05-11.2-21.63-25.63-21.72-43.65-.15-28,0-55.92,0-83.89,0-49-12.67-94.36-39.57-135.47-16.32-24.93-26.84-52-30.77-81.49a159.68,159.68,0,0,1-1.36-20.5c-.13-42-.08-84.06-.07-126.1,0-16.5,9.16-30.06,24-35.63s30.69-1.27,41.49,11.16c.68.78,1.34,1.58,2.27,2.69,7.53-5.09,15.6-7.11,24.43-4.44s14.14,8.72,17.57,16.71c18.94-4.38,26.59-1.24,36.81,14.88,20.69-6.89,34.92,4.21,38.35,20.4,6.3.28,12.51-.39,18.22,1,11.12,2.74,18.47,13.16,18.5,24.68q.09,40.11,0,80.2c0,6.13-2.94,9.75-7.82,9.81s-7.86-3.6-8-9.63c-.21-8.42,0-16.9-.89-25.25-1.42-12.95-8.23-23-18.92-30.29-8-5.45-16.13-10.64-24.34-15.74a63.53,63.53,0,0,0-33.49-9.69q-41.41-.31-82.85,0c-16.41.12-29.14,12.22-29.34,28.44-.24,19-.19,38,.85,56.93,1.56,28.43,10.61,54.73,26.14,78.52,20.31,31.13,34.75,64.54,40.78,101.28a254.86,254.86,0,0,1,3.65,37.16c.52,30.94.06,61.9.24,92.86.14,23.68,19.22,42.19,41.94,40.41s39.16-13.28,47.26-34.71c9.36-24.8,15.75-50.5,20.58-76.58,6.63-35.73,8.69-71.79,8.45-108.06-.22-31.84,0-63.67-.09-95.5,0-4.42,1.53-7.66,5.86-8.8,3.74-1,7.1.13,8.94,3.76a11.49,11.49,0,0,1,1,5c0,44,.79,88-.3,131.9A481,481,0,0,1,607.42,625.1a69.32,69.32,0,0,1-18.69,28.28C574.3,666.2,553.86,672.91,534.73,670.07ZM473.15,203.23c.16-1.41.26-1.92.26-2.44,0-10.71.1-21.41,0-32.12-.11-12.78-9.08-22.35-20.91-22.49s-21.19,9.61-21.27,22.67c-.09,13.51,0,27,0,40.54,0,1.1.2,2.21.4,4.28C444,202.56,458.41,202.63,473.15,203.23Zm37.16-.33c0-12.24.22-24.13-.09-36A10.54,10.54,0,0,0,500,156.77c-5.2-.11-10.37,4.12-10.54,9.77-.36,12-.11,24.08-.11,36.36Zm37,.07c0-7,.22-13.44-.07-19.88a10.76,10.76,0,0,0-9.9-10.47A10.41,10.41,0,0,0,526.46,182c-.49,6.9-.11,13.86-.11,21Zm73.89,36.3c0-6.59.21-12.88-.07-19.14-.23-5.25-3.08-8.84-8.28-10.24a10,10,0,0,0-11.58,6c-2.26,6.22-1.83,8.56,3.13,11.49C610.05,230.72,615.2,235,621.17,239.27ZM584.25,213.5c0-5,.09-9.8,0-14.63s-2.14-8.74-7-10.68c-4.32-1.73-7.91-.45-11,2.61-2.65,2.62-4.36,11-2.87,13.88a3.78,3.78,0,0,0,1.92,1.53C571.4,208.61,577.57,210.94,584.25,213.5Z"/><path class="cls-1" d="M467.73,324.53c-3.82.57-7.68-.2-9.69-4.59-2.54-5.57,1.5-10.88,8.38-11.25,16.07-.85,29.11-10.68,33.72-25.71a52.44,52.44,0,0,0,1.77-10.31c.53-5.3,3.43-8.45,8.18-8.41s7.7,3.22,7.76,8.62C518.17,299.84,495.16,323.81,467.73,324.53Z"/><path class="cls-1" d="M331.12,324.53c-27.2-.67-50.46-24.86-49.89-51.89.11-5.08,2.89-8.19,7.49-8.37,4.82-.19,8,2.88,8.41,8.11,1.68,21.6,14.78,34.7,36.31,36.33,5.25.4,8.32,3.55,8.14,8.38C341.38,322.33,338.06,324.7,331.12,324.53Z"/></svg>