<svg id="Livello_1" data-name="Livello 1" xmlns="http://www.w3.org/2000/svg" viewBox="0 0 800 800"><defs><style>.cls-1{fill:#26475c;}</style></defs><path class="cls-1" d="M647.86,316.41c-3.37,4-7.78,4.91-12.83,4.87-19.33-.17-38.65-.07-58-.08-4.88,0-9.45-1-11.95-5.7s-.68-8.65,2.57-12.29Q587,281.63,606.27,260c2.23-2.51,4.28-5.18,7.15-8.66-2.42-.11-3.89-.22-5.36-.24-10.62-.11-21.25,0-31.87-.34-6.89-.2-9.45-2.38-9.43-7.11,0-5,3.35-8.47,9.63-8.53,18.83-.17,37.67,0,56.49.24,3.87.06,7.89,1.16,9.51,5.39,1.81,4.74,0,8.83-3.19,12.38Q619,275.83,598.66,298.49c-1.34,1.51-2.63,3.06-4.66,5.42h30.82c3.54,0,7.09.14,10.62,0,5.21-.25,9.41,1.42,12.42,5.78Z"/><path class="cls-1" d="M514.87,494.53a212.31,212.31,0,0,0,80.87-15.66c5-2,9.7-2.54,13.83,1.65,3.43,3.49,3.61,8.14.5,14.32C573.9,566.82,516.3,611.71,437.42,627c-108.48,21.06-218.19-36.24-263.56-138.47-15.67-35.32-23.58-72.41-20.35-110.81,8.22-97.49,57.05-167.19,146.21-208.2,4.93-2.27,9.72-2.63,13.78,1.5s3.38,8.64,1.24,13.41a220.77,220.77,0,0,0-18,63.71c-4.78,38.85,0,76.47,15.6,112.32,28.73,66,78.29,108.24,147.64,127.25A197.81,197.81,0,0,0,514.87,494.53ZM285.49,200.34c-72.18,39.27-123.61,126-109,223.64,15.17,101.2,98.86,178.07,199.83,185.87C461,616.39,541.43,571.3,578.87,507.19c-91.05,21-171.95,1.91-237.29-66.11S260.4,291.17,285.49,200.34Z"/><path class="cls-1" d="M396,309.15c8.49,0,17-.06,25.46,0,6.27.06,12.55.05,18.8.53,4.74.37,7.46,3.48,7.71,7.73.28,4.72-1.95,7.67-7,8.85a28.23,28.23,0,0,1-6.22.61q-27.52.08-55.06,0a31.77,31.77,0,0,1-6.23-.59c-9.07-1.81-12-9.92-5.83-16.94,8.68-9.95,17.63-19.66,26.44-29.48,6.53-7.27,13-14.56,20.37-22.75-2.87-.16-4.38-.3-5.9-.32-10.94-.12-21.89-.05-32.83-.39-6.08-.19-8-2.1-8.16-6.66-.14-5.15,2.52-8.62,8.14-8.69,19.3-.24,38.62-.45,57.91.17,9.84.32,12.84,9,6.17,17-7.51,9-15.55,17.61-23.38,26.37q-10.41,11.65-20.84,23.3Z"/><path class="cls-1" d="M495.92,362.6c11.22,0,21,0,30.82,0a38.52,38.52,0,0,1,6.27.28c3.85.65,6,3.06,5.87,7s-2.51,5.75-6.06,6.31a31.09,31.09,0,0,1-4.83.12H485.48c-4.68,0-9.84.59-12.13-4.73s1.57-8.72,4.66-12.24Q492.5,342.85,507,326.3c1.45-1.66,2.76-3.44,4.84-6.05-8.79,0-16.58,0-24.37,0a75.71,75.71,0,0,1-7.69-.38c-3.06-.34-5-1.85-5.11-5.26s1.36-5.66,4.46-6.62a22.14,22.14,0,0,1,6.19-.79q18.12-.09,36.23,0a43.79,43.79,0,0,1,6.26.51c7.68,1.13,10.17,7,5.14,13.21-6.06,7.51-12.74,14.52-19.16,21.73C508.1,349,502.44,355.29,495.92,362.6Z"/></svg>