<?xml version="1.0" encoding="utf-8"?>
<!-- Generator: Adobe Illustrator 27.0.0, SVG Export Plug-In . SVG Version: 6.00 Build 0)  -->
<svg version="1.1" id="Livello_1" xmlns="http://www.w3.org/2000/svg" xmlns:xlink="http://www.w3.org/1999/xlink" x="0px" y="0px"
	 viewBox="0 0 622.6 622.6" style="enable-background:new 0 0 622.6 622.6;" xml:space="preserve">
<style type="text/css">
	.st0{fill:#26475C;}
</style>
<g>
	<path class="st0" d="M478.5,419.9c4.1,0,7.1,0,10.1,0c28,0,56,0,84,0c31.4,0.1,49.7,18.3,49.8,49.4c0,21.6,0.1,43.2,0,64.8
		c-0.2,51.3-37,88-88.1,88c-148.3,0-296.5,0-444.8,0c-53.7,0-89.1-35.3-89.1-88.9c0-161,0-322,0-483c0-31.9,18.1-50,49.9-50
		c126.1,0,252.2,0,378.3,0c31.9,0,50,18,50,49.9c0.1,118.9,0,237.8,0,356.6C478.5,410.8,478.5,414.6,478.5,419.9z M481,599
		c-20.9-21-26.1-45-26-71.5c0.4-158.2,0.2-316.5,0.2-474.7c0-22.3-6.9-29.1-29.4-29.1c-124.7,0-249.5,0-374.2,0
		c-20.5,0-28.1,7.5-28.1,27.9c0,160.5,0,320.9,0,481.4c0,41.4,24.7,66.1,66.2,66.1c127,0,253.9,0,380.9,0
		C473.4,599,476.1,599,481,599z M479.2,444.5c-0.2,0.9-0.6,1.9-0.6,3c0,31.3-0.7,62.6,0.3,93.8C480,574,506.3,598.8,538,599
		c31.1,0.2,59.1-25.3,60.6-56.8c1.2-26,0.5-52,0.2-78c-0.1-10.8-7.8-19.9-18.4-20.1c-33.4-0.6-66.9-0.2-100.3-0.1
		C479.9,443.9,479.7,444.2,479.2,444.5z"/>
	<path class="st0" d="M328.6,227.5c-8.3,37.9-31.3,65.6-66.5,82.3c-30.6,14.5-21.1,14.3-50.4,0c-45-21.9-68.6-58.9-70.3-109
		c-0.8-24.6,0-49.3-0.3-74c-0.1-7.9,3.3-12.3,10.5-14.8c26.1-9.2,52.1-18.7,78.3-27.6c4.3-1.5,10-1.3,14.3,0.1
		c25.9,8.8,51.6,18.3,77.5,27.4c7.6,2.7,11.1,7.4,11,15.5c-0.2,12.7-0.1,25.5-0.1,38.2C333.1,165.5,333,207.4,328.6,227.5z
		 M164.5,172.7c0,7.8,0,15.5,0,23.3c0.3,46.1,25.2,81.9,68.4,98c2.1,0.8,5,1.2,7,0.4c38.2-15.2,63.6-41.7,67.9-83.5
		c2.6-24.7,1.2-49.8,1.2-74.7c0-2-3.1-5-5.3-5.8c-20.7-7.7-41.6-15.1-62.5-22.3c-2.6-0.9-6-0.9-8.7,0c-20.9,7.2-41.7,14.8-62.6,22
		c-4.6,1.6-5.6,4.1-5.6,8.6C164.7,150,164.5,161.3,164.5,172.7z"/>
	<path class="st0" d="M237.2,368.8c42.4,0,84.8,0,127.2,0c3,0,6.1-0.1,9.1,0.4c4.1,0.7,9,4.9,9.1,9.3c0.2,7.4-1.6,8.7-5,11.6
		c-2.6,2.2-5.8,1.9-9.2,2c-9,0.2-18-0.1-27-0.1c-9.3,0-18.6,0-27.9,0c-18.6,0-37.2,0-55.8,0c-18.6,0-37.2,0-55.8,0s-37.2,0-55.8,0
		c-12.3,0-24.5,0-36.8,0c-0.6,0-1.1,0-1.7,0c-11.1-0.1-16.8-4.1-16.8-11.7c0-7.7,5.5-11.5,16.8-11.5
		C150.8,368.8,194,368.8,237.2,368.8z"/>
	<path class="st0" d="M237.5,440.6c42.1,0,84.3,0,126.4,0.1c3.5,0,7.5,0.5,10.2,2c4.4,2.4,5,6.5,5,10.3c-0.1,3.6-2.1,7.4-7.4,9.7
		c-2.7,1.1-6.4,1.2-9.7,1.2c-83.4,0.1-166.8,0-250.3,0c-1.4,0-2.8,0-4.2,0c-8.7-0.5-14.1-5.3-13.8-12.3c0.3-6.7,5.4-10.9,14-10.9
		C151,440.6,194.3,440.6,237.5,440.6z"/>
	<path class="st0" d="M170.8,512.3c21,0,42,0,63.1,0c9.4,0,14.2,3.9,14.4,11.2c0.2,7.5-5.1,12-14.6,12.1c-41.8,0.1-83.5,0.1-125.3,0
		c-9.3,0-14.9-5-14.5-12.3c0.3-6.9,5.6-10.9,14.8-11C129.3,512.3,150,512.3,170.8,512.3z"/>
	<path class="st0" d="M335.4,512.3c10.5,0,21-0.1,31.5,0c8,0.1,12.5,4.3,12.7,11.2c0.1,6.7-4.5,11.8-12.1,11.9
		c-21.3,0.3-42.5,0.3-63.8,0c-8.2-0.1-12.9-5.2-12.6-12.2c0.3-6.9,4.7-10.8,12.9-10.9C314.5,512.2,324.9,512.3,335.4,512.3z"/>
	<path class="st0" d="M229.6,204.9c9.8-10.2,18.5-19.4,27.4-28.4c6.9-7,13.5-7.6,18.8-2.3c5.3,5.4,4.5,11.7-2.5,18.8
		c-11.1,11.2-22.2,22.4-33.4,33.5c-7.6,7.5-13.1,7.4-20.7,0.1c-6.9-6.8-13.8-13.6-20.5-20.5c-5.3-5.5-5.6-12.3-1.1-17
		c4.9-5.2,11.5-5.1,17.6,0.7C219.7,194,223.9,198.8,229.6,204.9z"/>
</g>
</svg>
