<?xml version="1.0" encoding="utf-8"?>
<!-- Generator: Adobe Illustrator 28.4.1, SVG Export Plug-In . SVG Version: 6.00 Build 0)  -->
<svg version="1.1" id="Livello_1" xmlns="http://www.w3.org/2000/svg" xmlns:xlink="http://www.w3.org/1999/xlink" x="0px" y="0px"
	 viewBox="0 0 720.3 798.9" style="enable-background:new 0 0 720.3 798.9;" xml:space="preserve">
<style type="text/css">
	.st0{fill:#26475C;}
</style>
<g>
	<path class="st0" d="M320.1,433.1c-4.9,18.4-12.7,33.9-28.9,43.9c-1.8,1.1-2.1,5.7-2.1,8.7c-0.1,73.4-0.1,146.7-0.1,220.1
		c0,16.2-4.2,20.3-20.6,20.3c-7,0-14.1,0-22,0c0,19,0.2,37.3-0.1,55.5c-0.2,12.1-10.2,18.7-20.5,13.9c-6.2-2.9-7.9-8.2-7.9-14.6
		c0.1-18,0-35.9,0-54.3c-14.3,0-27.8,0-42.6,0c0,13.1,0,26.3,0,39.5c0,5,0.1,10.1,0,15.1c-0.2,10-5.4,15.8-14.1,15.8
		c-8.7,0.1-14.2-5.7-14.3-15.6c-0.2-18,0-36,0-54.6c-14.2,0-27.9,0-42.6,0c0,18,0.4,36-0.3,53.9c-0.2,4.7-2.6,10.8-6.1,13.6
		c-8.9,7.2-21.6,0.3-21.9-11.6c-0.4-15.4-0.1-30.8-0.1-46.1c0-3.2,0-6.4,0-10.5c-17.8,0-34.9,0-52,0c-14.5,0-19.6-5-18.8-19.1
		c3.8-74.1,7.7-148.3,11.6-222.4c1.5-28,1.6-56.1,9-83.6C44.2,331.4,84,277.8,145.4,240.2c1.7-1.1,3.4-2.2,3.8-2.5
		c-1.9-10.9-3.5-21-5.6-30.9c-0.5-2.4-2.5-4.6-4.1-6.6c-20.3-27.4-15.8-65.1,10.4-85.8c26.8-21.3,64.7-17.3,86.3,9.7
		c4,5.1,8.5,6.5,14.2,7.3c30.7,4.1,52.1,22.2,56.9,50.1c1.8,10.2,0.2,21.1-0.5,31.7c-0.8,11.4-2,22.7-3.8,34
		c-1.7,10.7-4.7,21.1-6.7,31.7c-0.5,2.8-0.2,7,1.6,8.8c15.4,15.6,31.1,30.8,46.8,46.1c1.1,1,2.2,2,3.3,3.1
		c7.6-0.9,11.1-5.2,12.2-12.6c0.8-5.5,2.3-11,3.9-16.4c1.6-5.6,2.3-10.3-1.9-15.6c-2-2.6-2-8.1-1-11.6c6.6-21.5,12.9-43,20.9-64
		c14.8-39,42.8-65.2,81.9-79.5c2.2-0.8,4.5-1.5,5.5-1.8c-3.2-17.4-6.6-34.2-9.3-51.2C454,44.8,480.2,8.7,519,2.5
		c36.2-5.8,71,20.8,77,59.6c2.7,17.4,8,34.8,3.6,52.7c-1.4,6-3.4,11.8-5.3,18.6c3,1,6.2,2.2,9.5,3.2c65.5,19.9,110.7,80.1,111,148.6
		c0.3,69.5-0.8,139.1,0.4,208.6c0.6,36.4-32.7,57.8-65.2,42.9c-1.6-0.7-3.1-1.4-5.7-2.5c-0.2,3.8-0.4,6.9-0.4,9.9
		c0,77.2,0,154.4,0,231.7c0,3,0.2,6-0.2,8.9c-1.1,7.9-6,12-13.8,12.4c-7.7,0.4-13.5-4.9-14.3-12.8c-0.3-2.9-0.1-5.9-0.1-8.9
		c0-83.4,0-166.9,0-250.3c0-3.5,0-7.1,0-11.3c-47.2,0-94,0-142,0c0,3.4,0,6.8,0,10.2c0,84,0,168,0,252.1c0,3.3,0.3,6.6-0.4,9.7
		c-1.5,7.4-6.6,11.2-14,11.1c-7.3-0.1-12.3-3.9-13.7-11.4c-0.6-3.2-0.3-6.5-0.3-9.7c0-100.9-0.1-201.8,0.2-302.7
		c0-6.6-2.3-9.3-7.6-12.8c-14.3-9.4-28-19.8-41.5-30.4c-4.9-3.8-8.3-3.9-13-0.2c-6.1,4.7-13.1,8.1-19.1,12.9
		c-9.5,7.6-18.3,8.2-28,0.5C331.4,439.4,325.8,436.7,320.1,433.1z M260.1,697.3c0-71.3,0-141.6,0-212c-5.6-0.9-10.9-1.4-15.9-2.7
		c-11.7-3.1-21.1-9.3-25.2-21.4c-2.5-7.4-0.6-13.5,6.5-17.3c6.8-3.7,13.6-1.3,18.9,4.5c3.2,3.5,8.2,6.9,12.7,7.4
		c16.5,2,28.3-6,33.5-22.5c7.8-24.5,4.9-49.3,1.4-75.6c-3.5-22.2-9.6-34.5-21.4-51.7c-43.7,18.9-79.1,2.7-93.4-42.8
		c-1.9-5.9-4.7-5.7-9.1-3.2C96.6,301.1,54.2,362,47.7,444.3c-6.4,81.6-8.9,163.5-13.1,245.3c-0.1,2.5,0,5,0,7.7
		C110.2,697.3,184.9,697.3,260.1,697.3z M686.2,328.1c4.4-86.4-27.8-148.6-83.1-161c-0.2,0.5-13.3-5.3-32.7-6.9
		c-22-1.9-46.7-2.7-75.1,1c-11.3,1.5-27.8,6.9-37.9,10.2c-44,22-52.4,64.7-65,105.5c10.3,3.4,19.7,6.7,29.2,9.8
		c9.4,3.1,18.8,6.2,28.7,9.4c3.4-10.1,6.3-19.4,9.6-28.5c3.1-8.3,9.9-11.8,17.4-9.5c8.1,2.5,12.1,9.6,9.5,18.1
		c-4.4,14.1-8.8,28.2-14.1,42c-1.5,3.9-6.1,8.9-9.6,9.1c-7.9,0.5-8.8,5.3-10.2,10.8c-0.9,3.4-1.5,7-2.9,10.2c-2,4.5-0.3,6.9,3.2,9.5
		c13.2,10,26.4,20.1,39.2,30.6c21.6,17.8,22.1,48.3,0.8,66.4c-5.5,4.7-12.4,7.8-19.1,11.8c0,5.2,0,11.3,0,17.5
		c47.3,0,94.2,0,141.5,0c0-4.1,0-7.6,0-11.1c0-56.8,0-113.6,0-170.4c0-10.7,5.3-16.6,14.2-16.6c8.9,0,14,5.9,14.1,16.6
		c0.1,8.4,0,16.9,0,25.8c13.3,0,25.4,0,37.5,0C682.8,328.5,684.2,328.3,686.2,328.1z M487.8,76.4c1.3,8.6,2.8,20.3,5,31.9
		c4.3,23.1,23.4,38.1,44.6,35.3c22.1-3,37.9-24,35.3-47.6c-1.1-10.3-2.9-20.5-4.8-30.6c-4.2-22.2-22.5-36.9-43.2-34.9
		C503.7,32.4,487.6,51.1,487.8,76.4z M279.1,204.2c4.9-22.6-5.6-39.3-27.4-44.1c-5.7-1.3-11.7-1.8-17.5-2
		c-7.3-0.2-12.2-3.2-15.6-9.6c-7.1-13.7-18.6-20.5-34-18.9c-13.5,1.4-23,9-27.3,22c-4.8,14.3-0.6,26.2,10,37
		c3.7,3.8,6.6,11.2,5.7,16.2c-2,11,2.6,18.1,9.6,25c3.6,3.6,7.1,4.4,10.4,0.1c8.1-10.3,18.2-19.9,23.5-31.6c6.1-13.4,16-18,28.8-7.1
		C254.8,199.5,266.3,204.1,279.1,204.2z M644,357.3c0,43.8-0.3,86.9,0.2,130c0.1,10.9,6.7,18.7,16.6,23.3
		c12.2,5.6,26.3,2.3,25.9-16.5c-0.8-41.7-0.3-83.4-0.3-125c0-3.8,0-7.5,0-11.7C672.1,357.3,658.7,357.3,644,357.3z M393.5,307.4
		c-4.8,19.6-9.3,38.5-14,57.3c-2.6,10.4,0.7,18.3,9.4,24.6c19.3,14.2,38.3,28.7,57.5,43c2.4,1.8,4.8,3.5,7.5,4.7
		c8.9,4,19.6,0.2,24.5-8.4c4.3-7.5,2.5-13.3-6.4-20.3c-15.1-11.9-30.2-23.8-45.5-35.4c-7.7-5.8-9.8-12.5-6.9-21.6
		c3.4-10.5,6.1-21.3,9.2-32.3C416.5,315,405.4,311.3,393.5,307.4z M238.8,223c-10.6,10.8-21.1,21-31,31.8c-1.7,1.8-2.3,6-1.4,8.4
		c5.5,16.1,24.1,25.9,40.7,21.8c21.8-5.4,32.5-26.3,26.6-51.1C261.5,230,249.8,226.4,238.8,223z M570.3,158.9
		c-24.8,15.9-49.8,16.1-75.1,1C492.6,158.4,571.2,158.3,570.3,158.9z M320.6,350.7c1,15.9,2,30.9,3,45.9
		c0.4,5.2,22.5,21.6,27.4,20.4c0.6-0.1,1.1-0.5,1.5-0.8c4.3-2.9,8.6-5.7,12.9-8.6c-1,0-1.9,0-2.9,0c-5.1-12.6-10.1-25.1-15.6-38.7
		C335.4,370.2,330.6,357.1,320.6,350.7z"/>
	<path class="st0" d="M558.7,676.8c0,34.6,0.1,69.2,0,103.8c0,11.1-6.7,17.6-16.1,16.3c-8-1.1-12.2-6.6-12.2-16.7
		c-0.1-30.5,0-60.9,0-91.4c0-38.7,0.1-77.5-0.1-116.2c0-7.9,2.3-14,10.5-16.3c9.9-2.8,17.9,4.1,17.9,15.9
		C558.8,607.1,558.7,641.9,558.7,676.8z"/>
	<path class="st0" d="M118.5,413.3c19.3,0,37.5,0,56.8,0c0-4.9-0.2-9.5,0-14.1c0.5-8.6,6.1-13.9,14.2-13.8c8.1,0.1,13.6,5.4,14,14.1
		c0.3,7.4-0.3,14.8,0.2,22.2c0.7,10.7-2.4,18.7-14.3,21.1c0,11.3-0.2,22.2,0.2,33.1c0.1,3,1.6,6.2,3.4,8.7
		c8.3,11.5,17,22.7,25.4,34.1c13.1,17.8,10,36.5-8,49.2c-22.6,16-53.7,11.3-70.3-11.3c-11.7-16-22.4-32.7-33-49.4
		c-2.1-3.2-2.7-7.8-2.7-11.8c-0.3-17.4-0.1-34.9-0.1-52.7c-11.8-2.4-14.5-10.2-14.3-21c0.4-24.8,0.1-36.8,0.1-61.7
		c0-12.4,4.6-18.4,14-18.6c9.4-0.1,14.4,6,14.4,18.2C118.6,381.5,118.5,390.5,118.5,413.3z M132.7,442.5c0,16.7-0.1,32.3,0.1,47.9
		c0,2.2,0.5,4.8,1.7,6.6c9.4,14.3,18.6,28.7,28.6,42.6c7,9.8,19.8,11.6,30.1,5.5c4.9-2.9,5.7-5.7,2-10.5
		c-9.8-12.6-19.5-25.2-28.5-38.4c-3.1-4.5-5-10.6-5.3-16.1c-0.8-12.5-0.2-25.1-0.2-37.8C151.1,442.5,142.4,442.5,132.7,442.5z"/>
</g>
</svg>
