<svg id="Livello_1" data-name="Livello 1" xmlns="http://www.w3.org/2000/svg" viewBox="0 0 800 800"><defs><style>.cls-1{fill:#26475c;}</style></defs><path class="cls-1" d="M487.15,147.39c8.43,3.39,17,6.4,25.2,10.3,4.94,2.35,9,8,13.87,8.65,4.68.58,9.85-3.73,15-5.41,15.9-5.21,31.94-7.22,48.08-.93a42.6,42.6,0,0,1,21.83,18.23c14.69,24.67,17.7,50.64,8.72,77.9-1,2.87-.36,4.67,1.1,7.16,4.3,7.3,8.35,14.79,12,22.46a7.77,7.77,0,0,1-4.24,10.95c-4.36,1.63-8-.63-10.64-5.36-4.46-8.14-9.18-16.16-14.26-23.92-2.45-3.73-2.85-7-1.19-11,9.35-22.56,8-44.53-3-66.36-7.93-15.81-24.24-19-35.83-17.8a91,91,0,0,0-33.94,10.78c-4.75,2.58-8.21,1.64-12.45-1.54-7.29-5.45-14.78-11-23-14.75-14.69-6.66-28.81-4.13-41.33,6.16-2.9,2.39-5.5,5.15-8.24,7.74-3.67,3.45-7.29,4-11,1-14-11.52-29.71-11.7-46-6.85a136.5,136.5,0,0,0-18.57,7.63c-4.53,2.12-8,1.46-11.48-2.07-17.43-17.7-42.17-18.8-61-2.63-3.84,3.3-7.56,4-12.18,2.16-9.08-3.55-18.48-5.87-28.31-4.73a38.12,38.12,0,0,0-29.45,19.13c-4.45,7.5-7.05,16.09-10.81,24-1.46,3.07-3.2,7-5.9,8.34-24.72,12.08-30.2,32.91-21.87,58.36a132,132,0,0,0,7.06,16.16c1.82,3.76,2,7.12-.62,10.55-2.07,2.74-3.89,5.68-6,8.42-3,3.91-7.6,4.8-11.25,2.29s-4.95-7.09-2-10.78c3.8-4.77,2.86-8.73.6-13.71-5.46-12.08-8.28-24.8-7.25-38.2,1.51-19.54,11.44-33.64,27.77-43.87a13.53,13.53,0,0,0,5.14-6.42c4.67-13.12,10.62-25.44,20.9-35.14,17.78-16.78,38.66-18.38,60.93-11.72a8.47,8.47,0,0,0,8.42-1.41,58.79,58.79,0,0,1,70.49,1.89c2.91,2.33,5,2.37,8.24.93,16.86-7.56,34.26-10.91,52.55-5.8,1.42.4,3,.55,4.18,1.36,7.31,5.21,12.92,3.51,20-1.9,6.48-5,15.25-7,23-10.26Z"/><path class="cls-1" d="M192.28,398.83c-6.14-7.59-12.23-14.64-17.75-22.12-2.74-3.72-1.31-8.4,2.27-10.75s8-1.48,10.92,2.09c.31.38.53.84.87,1.19,6.59,6.78,13,13.75,19.86,20.26,3.89,3.69,5.78,8.23,2.53,11.51-8.49,8.58-8.67,18.81-6.41,29.35,3.48,16.15,11.32,29.24,28.63,33.4,5.39,1.3,11.45,1,17,.14,10.14-1.51,16.08,3.39,14.86,13.62-1.09,9.1-2.88,18.12-3.88,27.23a49.18,49.18,0,0,0,.41,13.16c1,6.05,6,9.41,12.17,8.89,4.89-.42,7.77-3.66,7.51-10.23-.43-11-1.43-21.89-2.41-32.82-.85-9.37-.28-18.11,5.86-26.09,4.62-6,5.46-13.54,5.75-21,.59-15.85-2.86-30.6-12.07-43.71A45.78,45.78,0,0,0,253,374.62c-8.7-2.52-10.11-7.18-5.48-15,9.86-16.7,9.94-34.27,3.43-52a138.74,138.74,0,0,0-8.18-17.26c-3.49-6.55-2.68-10.22,3.63-13.82,13.28-7.58,19.08-19.86,16.53-35.23-.72-4.34-.49-8.25,3.77-10.76s7.34-.29,10.71,2.12c17.47,12.51,36.45,16.69,57.1,9.27,5.19-1.86,9.33-1.4,14.37,1,23.47,11,46.41,9.89,67.89-5.2,4.81-3.38,8.77-3.64,14-1.54,18.63,7.44,37.82,11.77,58.07,8.89,10.42-1.49,20-5,28.21-11.7.76-.62,1.54-1.23,2.29-1.86,2.91-2.45,6.12-3.26,9.52-1.26s4.49,5.15,3.93,9.22c-1.58,11.63-1.44,23.19,2.42,34.48a40.2,40.2,0,0,0,19.3,23.24c7.44,4,8.39,7.34,4.34,14.66-10.47,19-11.71,38.9-6.28,59.51,2.37,9,1.71,10.61-6.48,14.69-23.75,11.82-27.68,28.54-25.13,50.26.44,3.72,1.45,7.38,2.2,11.07,1.1,5.37-.93,8.71-6.28,10.45-5.13,1.67-10.37,3.08-15.32,5.17-11.39,4.79-19,13.16-22.4,25.16-.72,2.51-1.46,5-2.41,7.46-2.71,6.85-7.25,8.18-13.64,4.49-7.07-4.09-14.1-8.38-21.55-11.67-11.15-4.91-22.88-6.85-35-3.81-16.8,4.21-27.82,17.4-30.76,36.84-3.77,24.87.47,49,7.27,72.77,4,14.11,9.25,27.88,13.68,41,7.68,2.24,11.69-.41,15.12-6.07,11.79-19.5,15.83-40.67,14.75-63.1-.07-1.48-.25-3-.44-4.41-.49-3.75.59-6.83,3.84-8.93s6.06-.93,9.25.46c7.47,3.25,14.91,7,22.76,8.82,21.49,5,37-2.32,47.88-21.47a37.51,37.51,0,0,0,3.83-8c2-6.9,6.56-9.29,13.39-9.89a64.2,64.2,0,0,0,32.34-12c18.67-13.46,23.23-32.73,21.81-54.33-.13-2-.3-3.93-.58-5.87-.67-4.56,1.13-7.6,4.84-10.4,16.74-12.63,27.95-28.9,31.11-50a67.33,67.33,0,0,0-2.28-30.62,16.77,16.77,0,0,1,.82-12.79c2.08-4.58,3.29-9.56,4.9-14.36s5.42-7,9.82-5.8,7.34,5.55,5.48,9.95c-5.09,12-4,24-2.75,36.67,3,30.5-9.32,55.24-31.91,75.18-2.64,2.32-3.66,4.45-3.45,7.9.76,12.87-.13,25.6-5.08,37.69-10.18,24.83-29.9,37.86-55.18,43.25-6,1.28-9.34,3.54-12.21,9.08-11.16,21.49-28.51,34.16-53.52,33.18-8-.31-16-3.12-23.94-4.85A44.18,44.18,0,0,1,443,573.1c-.24,14.8-2.22,29-7.06,42.7a102.22,102.22,0,0,1-17.45,31.13c-2.7,3.3-5.72,5.05-10.13,4.77-4.9-.31-9.85-.19-14.77,0-4.11.13-7-1.52-8.61-5.22-14.39-32.57-24.87-66.19-26.53-102a105.24,105.24,0,0,1,4.41-35.94c.33-1.05.47-2.16.74-3.47a120.25,120.25,0,0,1-68.74-25.18c1,10.23,2.06,19.27,2.55,28.35a59.45,59.45,0,0,1-.87,15.14c-2.5,12.26-12.3,20.06-24,19.84a27.55,27.55,0,0,1-26.55-21.5c-2.44-11.34-.41-22.5,1.43-33.66.37-2.25.69-4.5,1.09-7.16-22.32,1.74-39.75-6.45-51.16-25.53C186.44,437.16,184,418,192.28,398.83Zm252.36,36.95c11.54-6.18,22.19-12.85,30-23.19,11.88-15.75,11.61-31-.87-46.15a67.6,67.6,0,0,0-30-20.7c-7.57-2.72-12-8.05-12.54-16s3.36-13.74,10.4-17.5c5.2-2.78,10.43-5.54,15.4-8.69,8.64-5.46,16.79-11.57,22.19-20.54,3.9-6.48,6-13.37,3.92-21.3-3.79,0-7.39-.13-11,.08a4.23,4.23,0,0,0-2.95,1.79c-10.78,19.57-28.19,30.74-48.66,37.45-10.51,3.45-21.53,5.41-32.38,7.75-9,1.94-13.47,6.81-13.69,15.87-.27,10.36,3.24,19.61,8.71,28.2a6.43,6.43,0,0,0,2.53,2.18q24.08,11.68,48.18,23.28a62.13,62.13,0,0,1,6.51,3.44c3.8,2.41,5,6.5,3.17,10.22a8,8,0,0,1-10.42,3.76c-1.37-.55-2.67-1.27-4-1.93-13.48-6.72-26.94-13.49-40.44-20.17A61,61,0,0,0,358.4,367c-14.55.71-23.77,7.72-26,20-3.85,20.64,10.11,42.83,30.78,47.83,7.06,1.7,14.58,1.57,21.9,2.18,4.61.38,7.83,3.43,7.94,7.73.1,4-2.64,7.65-6.57,7.92-20.63,1.41-39.48-2.67-54.35-18.4-7.37-7.8-11.66-17.26-15.27-27.2-2.87-7.89-6.42-15.57-13.66-20.51-1.62-1.1-4.18-.81-6.31-1.16,0,2.22-.85,4.81,0,6.6,11.12,23.28,13.54,46.91,3.64,71.43a12.74,12.74,0,0,0,1.21,1.31c19.46,16.49,42.22,23.89,67.45,24.2,1.75,0,3.93-1.38,5.21-2.76a57.68,57.68,0,0,1,23.57-15.55c12.42-4.3,25.05-3.95,38.81-1,.24-4,1.13-7.78.57-11.28-1.76-11-9-18.71-17.49-24.62C409.33,426.43,398.05,420.36,387,414c-5.17-3-7.15-6.61-5.16-11.1s6.43-6,11.61-3.57C412.63,408.2,430.78,418.56,444.64,435.78ZM363.8,350.91a39.24,39.24,0,0,1-2-6.12c-1.21-7.87-3.75-15.92-3-23.62,1.8-17.57,12-26.15,31.21-29,18-2.64,35.23-7.78,50-18.94,4.79-3.63,8.73-8.37,13.53-13.06-9.08-2.77-16.67-5.3-24.39-7.31a10.17,10.17,0,0,0-7.1.71c-12,7.22-24.85,11.87-38.93,12.14-13.16.25-24.07,5.84-34,13.63-7.24,5.67-11.68,13.1-12,22.7a128.33,128.33,0,0,1-1.71,15.63c-4.58,28.78-24.22,42.54-51.87,36.29-4.85-1.1-9.53-2.89-14.32-4.37-1.5,4.19-2.87,8-4.06,11.32,5.72,4.05,11.23,8.13,17,11.85,1.05.68,3.35.46,4.51-.26,5-3.07,10.37-5,15.91-3.39s10.58,4.61,16.08,7.11C326.47,356.6,343.54,351.3,363.8,350.91Zm167.85-51.69c-11.49-13-15-28.75-16.06-45.49-4.3,1.63-8,3.43-11.93,4.39-3.23.8-4.11,2.16-3.85,5.4,1.05,12.92-3.27,24.11-11.36,34.05-10.18,12.51-23.54,20.69-37.55,28-1.32.69-2.29,2-3.43,3.06a40,40,0,0,0,3.63,2.77c8.52,5.11,17.95,9.12,25.47,15.41,33,27.65,27.1,61.68,2.06,84.82-6.9,6.37-15.45,10.94-23.13,16.51-1.3.94-2.74,2.73-2.8,4.18-.28,7.4-.13,14.82-.13,23.1l11.35,5.93c.38-.4.71-.6.8-.88,6.53-18.49,20.17-29.37,38.22-35.29,3.15-1,3-2.59,2.59-5.12-2.46-14.7-2.32-29.38,5.45-42.46,4.17-7,3.93-13.39,2.16-20.53-2.67-10.78-8.36-19.78-15.63-28-10.09-11.45-6.33-26.68,7.81-32.43,2.73-1.11,5.45-2.24,8.1-3.5C520.41,309.86,527,305.94,531.65,299.22Zm-238.28-40.5c-.13.57-.32.91-.24,1.15.4,1.25.85,2.48,1.31,3.7,5.41,14.05,7.32,28.48,4.34,43.36-1.25,6.28-5.06,9.11-10.2,8-4.81-1.07-6.76-5-5.44-11.2,2.94-13.85-.21-26.7-5.32-38.36-5.75,7.63-11.5,15.23-17.55,23.24,6.51,12.51,11,26.54,11.29,41.79,0,1.27,1.71,3.19,3,3.64,5.85,2,11.75,4.16,17.82,5.19,11.92,2,20.75-3.11,24.52-14.6a75.88,75.88,0,0,0,3.73-20.12c.71-16.35,7.27-29.32,20.24-39.14,2.3-1.74,4.67-3.38,7-5-4.32-3.34-8.58-3.18-13.47-1.64a60.44,60.44,0,0,1-29.11,2.09C301.31,260.05,297.33,259.39,293.37,258.72ZM537.3,318.1c-7.64,3.92-16.85,8.71-26.12,13.39-4,2-4,3.67-1.3,7.62,5.27,7.62,10.5,15.31,15.06,23.36,2.41,4.26,3.39,9.32,4.93,13.75,6.23-1,6.58-4.68,5.41-10a60.31,60.31,0,0,1-1.63-17C534.43,338.26,536.17,327.35,537.3,318.1Z"/><path class="cls-1" d="M173.14,352.07a8.23,8.23,0,0,1-8-8.22,7.87,7.87,0,0,1,7.87-7.72,7.74,7.74,0,0,1,7.89,8.1A8,8,0,0,1,173.14,352.07Z"/></svg>