<svg id="Livello_1" data-name="Livello 1" xmlns="http://www.w3.org/2000/svg" viewBox="0 0 800 800"><defs><style>.cls-1{fill:#26475c;}</style></defs><path class="cls-1" d="M336,680.43a77.65,77.65,0,0,1-11.07-2.36,79.84,79.84,0,0,1-58.19-81.43c.21-4.18.81-8.35.95-12.54.31-9.52-2.88-17.77-9.07-25.05-22.3-26.25-24.75-57.61-6.94-87,8.84-14.56,8-29.12-2.44-42.68-24.15-31.27-36.23-66.71-35.71-106.14.44-34,10.68-65.14,29.95-93.27a13.41,13.41,0,0,0,2.56-7.39c-1.38-39.84,23.29-78.58,67.68-91.81C373,113.11,430.16,116.19,484,148c51,30.22,82.45,75.71,97,132.75,11.78,46,7.54,91.46-7.74,136C567,435,548.11,444.59,529.23,440c-1.38-.34-2.76-.7-3.93-1-7,12.64-13.48,25.25-20.75,37.4a368.24,368.24,0,0,1-56.94,72.56c-13.89,13.78-20.91,30.2-21,49.9-.07,29.89-15.83,57.73-42.27,72-9.5,5.15-20.74,9.19-31.56,10-2.95.22-5.92.19-8.88.16A63.94,63.94,0,0,1,336,680.43ZM278,262.11a15.54,15.54,0,0,0,1.19-1.31c.72-1.05,1.39-2.14,2.13-3.17,28.74-39.79,67.37-58.27,116.33-51.93,59.95,7.78,105.87,61,105.79,121.35-.05,33.35-8.08,64.87-22.55,94.83-15.23,31.56-36.18,59-60.81,83.69-17.9,17.95-28.12,39.12-28.6,64.74-.13,7.27-4.13,11.21-10.18,10.9-5.65-.29-9.6-4.66-8.86-11.48,1.07-9.92,2.27-19.94,4.85-29.54,4.62-17.2,13.8-32.06,26.36-44.72,29.44-29.68,54.41-62.41,68.69-102.19,9.7-27,15.22-54.86,10.42-83.67-10.72-64.24-81.43-107-145.41-76.25a99.68,99.68,0,0,0-45.6,43.54l67.39,67.36c2.42-2.59,5-5.63,7.89-8.42a52.64,52.64,0,0,1,73.93.24c20.51,20.23,21.73,53.72,1.12,73.77-15.11,14.69-32.17,27.37-48.3,41a8.21,8.21,0,0,0-2.64,3.76c-4.13,15.1-11.32,20.7-27,20.75-9.31,0-18.62-.16-27.93.06-11.66.28-19.15,7.15-19.54,18.5-.42,12.21-.26,24.45-.05,36.68.11,6.06,4.28,10.15,9.41,10s8.88-4.3,8.93-10.39c.08-8.57,0-17.15.06-25.73.07-6.25,4-10.61,9.35-10.72,5.19-.11,9.4,3.88,9.53,9.89.23,9.85.5,19.74-.19,29.55-1.14,16.41-13.74,26.89-30.4,26.07-14.14-.69-25.5-13.23-25.59-28.37-.07-12.41-.1-24.82,0-37.23A37.46,37.46,0,0,1,335,456.48c10-.11,20.07-.06,30.11,0,3.54,0,6.88-.29,7-4.84.12-4.12-2.85-4.78-6.23-5.26-23.85-3.38-45.22-12.54-63.39-28.46-38.46-33.68-51.73-83.9-35.39-132.68.52-1.58,1-3.84.28-5.05-5.24-8.78-10.8-17.36-16.39-26.21a140.6,140.6,0,0,0-17.94,59.24c-2.92,39.47,8,74.85,32.35,106.17,14.09,18.1,15.14,41.23,3.39,61-14.75,24.77-13.26,45.28,5,67.35,6.3,7.62,11.05,16.12,11.84,26,.72,9-.31,18.15-.11,27.23.54,24.29,11.35,42.8,32.85,54.09s42.73,9.52,62.5-4.2c16.88-11.71,26.34-28.28,26.41-49,.09-27.45,9.65-50.4,29.68-69.19a220.75,220.75,0,0,0,16.29-17.73c33.77-39.65,59.72-83.51,71.55-134.77,6.41-27.75,9-55.79,3.32-84C513,221,441.71,166.17,360.34,178.08c-37.28,5.46-68,22.79-92.45,51.35-1,1.12-2,3-1.73,4.24C268.13,243.71,271.53,253.22,278,262.11Zm51.64-96.56c1.36-.27,2.45-.39,3.47-.71a160.9,160.9,0,0,1,66.38-6.37c46.85,5.34,85.26,26.31,114.48,63.17,34.17,43.12,42.17,92.6,32.51,145.55-3.31,18.16-8.56,36-12.94,54,9.5,3,18.88-1.47,22.39-12,12.45-37.29,16.84-75.44,8.79-114.12C552,233.9,519.08,186.9,462.76,158.11c-37.65-19.23-77.68-23.47-119-15C332.84,145.32,326.93,154.84,329.62,165.55ZM406.38,340c-12-.09-20.9,3.44-27.23,10.55-10.9,12.24-21.57,24.69-32.27,37.11-6.41,7.43-7.86,16.19-6.48,25.6.75,5,3,8.79,8.52,9.84,3.55.67,7,1.82,10.51,2.8,7.11,2,14.53,3.29,21.19,6.29,3.46,1.56,5.46,1.74,8-.49,13.22-11.44,26.79-22.51,39.53-34.46,10.06-9.43,12.34-24.41,6.74-36.85C429,347.12,418.43,340.51,406.38,340Zm-61.13,20-61.69-61.69c-14.54,30.88,6.68,94.28,35.52,108,3-8.32,5.05-17.32,9.42-25C333,373.35,339.83,366.7,345.25,360Zm-77.7-159.84c13.42-8.43,27.38-17.15,41.25-26a5,5,0,0,0,1.92-3.7c-.16-5.9-.68-11.8-1.09-18.06C287.84,161.61,273.58,177.89,267.55,200.12Z"/></svg>