<svg id="Livello_1" data-name="Livello 1" xmlns="http://www.w3.org/2000/svg" viewBox="0 0 800 800"><defs><style>.cls-1{fill:#26475c;}</style></defs><path class="cls-1" d="M348,681c-10.25-1.48-20.72-2.08-30.68-4.65-14.38-3.72-28.81-7.86-42.43-13.66-15.58-6.63-20.72-19.4-18.52-36.24,4.79-36.74,2.16-72.73-12.44-107.29-6.72-15.91-18.13-28.59-28.92-41.61-24.76-29.87-38.65-64.28-44.55-102.35-4.41-28.43-6.22-57.05-4-85.64C172.32,214.2,211.09,163,282,136.65c41-15.27,83.74-19.65,127-15.07,45.43,4.81,86.05,21.48,118.71,54.63,26.79,27.19,42,60.44,50.22,97.25,1.93,8.69,2.15,17.84,4.81,26.27,4,12.58,8.34,25.27,14.45,36.91,9.72,18.53,20.78,36.37,31.72,54.24,11.32,18.52,7.62,34.17-11.46,44.22-10,5.25-20.23,10-30.52,14.65-3.32,1.5-4.21,2.91-4.13,6.78.51,23.86.8,47.74.46,71.6-.17,11.69-6.73,20.11-16.89,25.72-12.54,6.93-26.26,9.75-40.3,10.86-11.08.88-22.22.86-33.34,1.14-8.06.21-8.4.46-8.37,8.26.07,17.89,0,35.78.24,53.66.24,16.27-6.66,27.87-21.32,35.1-17.87,8.8-36.93,13.19-56.49,15.88-5.37.73-10.73,1.49-16.1,2.24Zm20.38-16.7c10.19-.63,20.42-.92,30.57-1.95,20-2.05,39.55-6.08,57.72-15.28,7.5-3.79,10.87-9.62,10.79-18-.17-19.35-.05-38.69-.05-58,0-12.88,5.54-20.06,18.3-21.38,13.58-1.4,27.37-.78,40.89-2.48,10.16-1.27,20.17-4.4,30-7.49,5.9-1.86,9.45-6.43,9.7-13.18.3-8.38,1.61-16.75,1.38-25.1-.46-16.76-1.56-33.51-2.62-50.25-.56-8.75.55-10.59,8.51-14.23,11.91-5.45,23.8-11,35.47-16.93,10.67-5.45,11.34-9.7,5.3-20-12.53-21.36-25.21-42.66-36.89-64.48-5-9.34-8.47-19.73-11.2-30-3.11-11.74-3.88-24.11-7-35.86-15.48-59.06-50.11-101.69-109.13-121-57.43-18.78-115-15.36-170.66,7-59.84,24-90.5,70.52-95.63,134-2.05,25.48-.53,51,2.88,76.42,5.12,38.24,18.3,72.88,43.38,102.7,10.9,13,22,25.87,28.88,41.67a197.71,197.71,0,0,1,16.54,79.66c0,14.19-1.31,28.39-2.27,42.56-.45,6.64,2,11.36,7.93,14.21,4.26,2.06,8.55,4.09,13,5.71C318.11,661.34,343.05,663.77,368.35,664.29Z"/><path class="cls-1" d="M443.9,381.7c9.73,1.62,18.52,3.13,27.32,4.54,5.09.82,7.92,3.92,8.07,8.84.29,9.8.5,19.63.07,29.42-.34,7.79-3,9.93-10.77,11.05s-15.77,2.47-24.75,3.89l13.37,18.4c6.75,9.28,7,11.32-.83,19.83-5.89,6.43-12.49,12.21-18.93,18.12-4.12,3.78-8.42,3.4-12.84.07-6.83-5.15-13.83-10.08-21.45-15.61-1.32,8-2.67,15.33-3.71,22.74-1.45,10.3-2.8,12.44-13.13,13.11-9.58.61-19.28-.05-28.9-.62-5.9-.36-7.42-5.1-8.19-10.05-1.26-8.05-2.5-16.11-3.9-25.18l-19.86,14.32c-7.61,5.48-9.8,5.78-16.73-.37a242,242,0,0,1-19.22-19.35c-4.52-5-4.28-8.74-.36-14.23,4.87-6.79,9.79-13.54,15.26-21.09-8.76-1.41-16.73-2.78-24.73-4-7.54-1.11-10.16-3-10.55-10.62-.52-10.14-.25-20.34.11-30.5.17-4.69,3.09-7.49,8-8.25,8.81-1.37,17.59-2.95,27.2-4.58-4.87-6.75-9.49-13.17-14.13-19.58-5.35-7.38-5.72-9.89.42-16.77,6.28-7,13.32-13.42,20.25-19.86,3.87-3.61,8.18-3.36,12.44-.24,7,5.14,14.13,10.19,21.95,15.81,1.35-8.56,2.67-16.33,3.8-24.14,1.26-8.73,3.27-11.08,12.22-11.5s17.81-.35,26.69.05c7.56.35,9.94,3,11.17,10.85S401.65,332.06,403,341c6.45-4.66,12.43-8.95,18.36-13.28,9.21-6.73,11-7.06,19.39.38,6.65,5.91,12.55,12.67,18.57,19.26,3.71,4.07,3.46,8.48.15,12.9C454.4,367.12,449.44,374.07,443.9,381.7ZM382.78,498.49c.55-3.8,1.06-7.58,1.65-11.35s1.37-7.53,1.88-11.32c1.55-11.4,15.52-17.59,24.9-10.95,6.54,4.63,13,9.36,21.69,15.62,2.37-3.24,4.66-6.79,7.38-10,1.85-2.15,2.2-3.7.37-6.07-4-5.2-7.73-10.62-11.56-15.95-7.6-10.58-1.55-24.3,11.35-26,7.49-1,14.95-2.31,22.54-3.49,0-4.63-.13-8.64,0-12.63.14-3.33-1.51-4.39-4.52-4.79-6.68-.9-13.32-2.06-20-3.13-11-1.78-16.84-15.6-10.38-24.66,4.73-6.63,9.52-13.22,14.53-20.17l-11.26-11.88c-6,4.31-11.62,7.54-16.25,11.83-7.24,6.73-14.68,7.56-22.51,2-2.67-1.89-5.3-5.08-6.08-8.16-1.79-7-2.29-14.36-3.65-21.51-.3-1.56-1.9-3.93-3.09-4-4.62-.48-9.32-.19-14-.19-1.33,8.78-2.59,16.68-3.74,24.61-1.53,10.49-15.73,16.65-24.39,10.52-6.8-4.8-13.58-9.63-20.45-14.51l-11.88,11.35c5.34,7.37,10.51,14,15,21,1.6,2.5,3,6.63,2.07,9-5.14,12.52-2.47,13.87-17.51,15.73-1.81.23-3.58.71-5.38.95-15.28,2.09-15.28,2.08-14,17.46a5.65,5.65,0,0,0,.55,1.3c8.08,1.27,16.37,2.38,24.57,3.93,10.18,1.93,15.72,16.08,9.72,24.48-4.75,6.66-9.59,13.25-14.53,20.06L317,479.77c4.25-3.11,7.48-5.49,10.73-7.85s6.67-4.5,9.72-7.09c4-3.35,7.84-3.16,12.67-1.74,8.84,2.61,12.82,8.19,13.06,17.08a43.37,43.37,0,0,0,.9,5.93c2.52,14.9,2.61,15,17.66,12.95C381.93,499,382.07,498.88,382.78,498.49Z"/><path class="cls-1" d="M253.27,263c-4.48-21.31.66-39.36,17.74-52.61,17.68-13.72,36.92-13.67,56.79-3.33,9.19-19.83,24.54-31.41,46.48-31.56s37.44,11.27,46.66,31.78c19.31-10.29,38.59-10.6,56.39,2.75s22.78,31.7,18.3,53.41c2.68.53,5.16.94,7.6,1.52,24.12,5.65,40.2,29,37.42,54.4-2.59,23.63-23.56,42.51-47.73,43-6.18.13-9.75-2.47-10.19-7.41-.48-5.41,2.49-9,8.79-9.54,15-1.19,25.52-8.38,30.44-22.64S520.76,293,508,285.2a32.43,32.43,0,0,0-39.8,4.67c-.92.88-1.71,1.89-2.62,2.79-3.63,3.58-8.91,4-12.28.95s-4.11-8.5-.5-11.75c6-5.41,12.91-9.84,19.33-14.81,2-1.55,4.61-3.2,5.38-5.36,4.56-12.71,2.64-24.56-6.72-34.49-9.06-9.61-20.41-12.64-33-8.46-12.92,4.3-20.35,13.64-22.17,27.2-1.21,9-4.23,12.78-10.07,12.11s-8.53-5.05-7-14.12c1-6.35,4-12.38,5.68-18.65.81-3,1.66-6.43.9-9.23-3.63-13.3-12.9-21-26.23-23.15-12.39-2-22.72,2.54-30.22,12.5-7.93,10.54-8.72,22.13-3.12,34,3.85,8.16,3.36,12.89-2.07,15.47s-10-.16-13.57-8.16a109.22,109.22,0,0,1-3.85-11.32c-1.07-3.35-1-8.15-3.25-9.82-4.81-3.56-10.59-6.85-16.39-7.85a31.57,31.57,0,0,0-36.18,22.13c-4.7,15.69,2.7,31.85,17.93,39.17.82.4,1.68.73,2.47,1.17,4.38,2.42,5.93,6.72,4,11.1s-6.26,6.62-10.8,4.45c-5.52-2.64-11.48-5.41-15.56-9.72-5.74-6-11.91-6.3-18.88-4.61C233.69,285.25,223.74,300,225.23,317c1.26,14.42,14,26.64,29.13,27.93a39.69,39.69,0,0,1,4.35.51c5.09,1.06,7.73,4.42,7.12,9.32s-3.67,7.23-8.55,7.43c-22.14.91-43.65-16.71-48.48-38.95C203.35,298.23,218.49,267.72,253.27,263Z"/><path class="cls-1" d="M374.26,446.69a35.79,35.79,0,0,1-36.14-36,36.13,36.13,0,1,1,36.14,36Zm-18.85-36.16a18.83,18.83,0,1,0,18.64-18.82A18.56,18.56,0,0,0,355.41,410.53Z"/></svg>