<svg id="Livello_1" data-name="Livello 1" xmlns="http://www.w3.org/2000/svg" viewBox="0 0 800 800"><defs><style>.cls-1{fill:#26475c;}</style></defs><path class="cls-1" d="M671.58,277.6c-3.15,4.41-7.47,5.55-12.77,5.45-14.82-.27-29.64,0-44.47-.11-9.41-.05-13.13-6.64-8.55-15,3.84-7,2.85-13.65-2.69-18.06a13.06,13.06,0,0,0-17,.33c-5.18,4.43-6.05,10.95-2.36,17.69,4.6,8.39.94,14.95-8.49,15-12.88.07-25.76.09-38.65,0-11.24-.09-18.5-7.33-18.59-18.55-.1-12.89-.08-25.77,0-38.65,0-9.45,6.57-13.11,15-8.51,6.2,3.39,12.07,3,16.62-1.21a13,13,0,0,0,3.31-15c-3-7.23-11.63-10.11-19.1-6.37-10.25,5.14-16,1.71-15.71-9.79.09-4-1.18-6.26-4.65-8.35-35.6-21.43-74-31.37-115.55-28.31-36.44,2.68-72.4,8.25-107.49,18.6-49.56,14.61-77.52,49.84-90.78,97.91-4.84,17.52-10,34.76-17.47,51.34-3.29,7.33-2.71,8.74,3,14.39,3.62,3.58,7.69,6.87,10.59,11,5.68,8.06,6.35,16.65,1.87,25.91a390.34,390.34,0,0,1-44.09,70.77c-1.63,2.07-3.11,4.28-4.55,6.49a24.26,24.26,0,0,0-1.48,3.57c3.6,2.4,7.17,4.91,10.88,7.2,2.69,1.66,5.6,3,8.36,4.53,14.92,8.43,18,21.16,11.77,37.08-1.47,3.74-3.65,7.22-5.74,11.29,2.61,2.1,5.28,4.32,8,6.42,7.72,5.89,8.24,8.87,3,17.25-.55.88-1,1.82-1.68,3.1,1.46.88,2.75,1.67,4.06,2.41,11.44,6.5,17,17.84,14.57,30.74-1.74,9.22-3.61,18.24-.18,27.55,3.54,9.64,10.61,13.72,20.6,11.41,38.48-8.88,75.39-22.76,112.56-35.76a219,219,0,0,0,30.82-13.55c8.6-4.6,14.95-11.5,15.45-22.41.26-5.52,4.66-8.52,9.83-8.11,4.91.4,8.49,4.31,8.37,9.79a36.84,36.84,0,0,1-9.08,23.7c-10.81,12.65-25.3,19.39-40.46,25-9.39,3.44-18.89,6.56-28.86,10,2.11,2.62,4,4.91,5.8,7.23A140.38,140.38,0,0,1,350,649.53c.77,2.58,1.66,4.09,5,4.07q99.52-.65,199-1a1.14,1.14,0,0,0,.38-.09c-25.39-50.92-36.54-104-24.44-161.48h-6.17q-91.32,0-182.64,0c-7.58,0-14.73-1.09-20.83-6.08-7.92-6.48-10.32-15.06-10.3-24.92q.17-80.49.05-161,0-33.36,0-66.72c0-20.18,10.87-30.89,31.15-30.89q55.05,0,110.11,0c9.67,0,12.69,3,12.7,12.59,0,10.74,0,21.48,0,32.82,12.11-.82,22.18,2.85,29.52,12.37a30.42,30.42,0,0,1,6.41,22.33c-1.44,13.57-11.71,29.18-35.48,28.85v26.3h26.14c-.27-11.3,2.87-21.23,11.87-28.57A31.4,31.4,0,0,1,525,301c17.2,1.1,28.36,14.55,29.19,36h5c9.88,0,19.77-.07,29.65,0,6.9.07,10.61,3.6,10.62,10.38.06,39,.16,78-.06,117a26.34,26.34,0,0,1-24.3,26.14,193.7,193.7,0,0,1-21.15.36c-3.28-.07-4.51,1.09-5.38,4.21a154.69,154.69,0,0,0-4.09,61.82c3.24,25.23,8.22,50.06,19.43,73.12,4.06,8.37,9.43,16.1,13.82,24.32a18.43,18.43,0,0,1,2.22,9c-.2,4.58-4.2,6.47-7.9,8.2H341.21c-2.17-3.23-4.9-6.22-6.41-9.73-2.83-6.61-4.63-13.66-7.46-20.27-5.59-13-12.32-25.35-23.19-35-3.22-2.84-6.08-3.36-10.41-2-23.15,7.2-46.38,14.19-69.73,20.68a32.83,32.83,0,0,1-38.45-17.84,53.44,53.44,0,0,1-4.4-34.49c3-14.72,3-14.72-9.87-22.7-8.22-5.09-10.28-10.93-7.15-20.23.43-1.28.83-2.58,1.25-3.87-2.39-2-4.58-3.73-6.72-5.54-6-5.06-7.25-9.09-4.32-16.32,1.85-4.55,4.49-8.76,6.66-13.18,4.13-8.45,3.07-11.73-5-16.29-5.06-2.85-10.29-5.46-15.09-8.7-12.16-8.19-14.6-19.52-7.06-32a95,95,0,0,1,6.48-9,353.82,353.82,0,0,0,36.8-57.9c6.69-13.25,6.68-13.25-4.3-23-10.63-9.46-14-21-8.11-33.84,8.37-18.17,13.07-37.42,18.95-56.38,15.4-49.62,45.26-86.56,96.16-103,40.58-13.12,82.54-19.51,125-21.51,38.87-1.83,75.42,7.48,109.6,26.09a25.4,25.4,0,0,0,3.52,1.21c0-5.82,0-11.11,0-16.4.06-8.16,3-11.07,11.18-11.07q57.42,0,114.84,0a31.49,31.49,0,0,1,6.79.69c11.1,2.54,17,10.4,20.78,20.46ZM464,472.55H568.34c10.32,0,12.71-2.38,12.72-12.81q0-49.23,0-98.47c0-1.86-.19-3.71-.3-5.84h-7c-10.76,0-21.53.18-32.28-.09-8.71-.22-12.42-7.08-8.29-14.67.42-.77,1-1.49,1.32-2.29,2.34-5.16,1.7-10-1.93-14.31-3.8-4.48-8.77-5.73-14.34-4.07-8.16,2.44-11.43,11.81-7.05,19.91,4.83,9,1.23,15.29-8.93,15.49-6.17.12-12.35,0-18.52,0H463.94c0,13,0,25.35,0,37.69,0,10.75-6.41,14.52-15.92,9.45-6.28-3.34-12.87-2.22-17.17,2.92a13.59,13.59,0,0,0,0,17.07c4,4.92,11.2,6.1,17.28,2.85,9.52-5.1,15.8-1.38,15.82,9.42C464,447.16,464,459.49,464,472.55ZM445.53,220.24c-1.68-.17-2.7-.36-3.72-.36q-51.36,0-102.7,0c-7.87,0-10.67,3.1-10.68,11.1q0,50.58,0,101.14c0,1.52.2,3,.31,4.54h26.12c1.49-21.47,12.14-34.39,29.19-35.69a31.42,31.42,0,0,1,21.45,5.93c10.09,7.34,13.76,17.76,13.14,29.76h26.88c0-12.63-.06-24.95,0-37.27.06-11,6.16-14.63,15.71-9.52,6.08,3.26,13.14,2.09,17.29-2.86a13.36,13.36,0,0,0,.3-16.62c-4.08-5.16-11-6.58-17.15-3.54-10.51,5.16-16.13,1.68-16.16-10.07C445.5,244.81,445.53,232.82,445.53,220.24Zm-.29,226.09c-23.6-3.15-35-13.09-35.79-31.45a30.1,30.1,0,0,1,6.57-20.2c7.41-9.47,17.47-13,29.15-12.36V355.43h-6c-10.76,0-21.53.12-32.29-.05-9.72-.14-13.41-6.79-8.71-15.33,3.59-6.53,2.59-13.39-2.58-17.67a13.51,13.51,0,0,0-17.07,0c-5.19,4.35-6.21,11.15-2.67,17.72,4.79,8.87,1,15.21-9.23,15.32-10.76.13-21.53,0-32.29.05-1.86,0-3.72.16-5.88.26v5.82q0,49.51,0,99c0,9.31,2.66,12,11.84,12h105ZM653.52,264.74v-5.19q0-49.74,0-99.48c0-9.67-3-12.67-12.63-12.67q-49.73,0-99.46,0c-1.69,0-3.38.15-5,.23V174.3c22.71.89,36,13.09,35.76,32.48-.27,18.88-14.23,31.07-35.73,31.12v26.78h26.66c.06-20,11-34.16,27.39-35.74,8.55-.82,16.44.79,23.41,6.12,9.76,7.48,13.27,17.69,12.55,29.68Z"/><path class="cls-1" d="M292.4,200.42c-1.08,1.27-2.64,4.74-5.24,6-32.72,15.16-47,43.47-55,76.32a81,81,0,0,1-2.19,8.68,8.71,8.71,0,0,1-10.59,5.57c-4.81-1.31-7.79-5.58-6.87-10.37,5.31-27.83,15.64-53.31,35.16-74.43A89.53,89.53,0,0,1,279,190.21C286,187.3,292.63,191.57,292.4,200.42Z"/><path class="cls-1" d="M210.87,310.09a8.94,8.94,0,0,1,8.92,9.07,9.19,9.19,0,0,1-8.95,9.15,9.47,9.47,0,0,1-9.27-9.45A9.14,9.14,0,0,1,210.87,310.09Z"/></svg>