<svg id="Livello_1" data-name="Livello 1" xmlns="http://www.w3.org/2000/svg" viewBox="0 0 800 800"><defs><style>.cls-1{fill:#26475c;}</style></defs><path class="cls-1" d="M328.71,125c2.7.72,5.42,1.37,8.09,2.19,25.69,7.81,46.29,21.65,54.76,48.57,5.2,16.51,4.6,33.6,1,50.35-3.79,17.75-23,27.71-40,21.25-4.65-1.76-9-4.29-13.51-6.4-5.31-2.48-9.85-1.78-14.89,1.76-7.65,5.37-16.22,9.4-24.05,14.52a9.08,9.08,0,0,0-3.43,6.88c.9,14.92,2.22,29.82,3.67,44.7.46,4.75,1.75,9.43,2.74,14.58h6.5q80.65,0,161.32,0c22.95,0,40.85,14.06,45.77,35.9a63.79,63.79,0,0,1,1.09,13.83c.1,27.87.05,55.74.05,83.61v7.27c2.9-2.51,4.81-4.19,6.75-5.84,19.08-16.22,40.27-28.56,65.36-32.12a148.65,148.65,0,0,1,33.54-.51c12.53,1.09,21.67,12.66,22.37,26.27,1.85,35.84,3.34,71.71,5.47,107.54,1.26,21.29-3.58,40-19.84,54.72-11.06,10-24.37,14.39-38.94,15.73-23.8,2.19-47.6,4.46-71.4,6.63-2.83.26-4.18,1.28-5.07,4.29C510,661.37,493,673.89,471.44,673.89q-138.81,0-277.62,0c-26.7,0-46.26-19.58-46.27-46.29q0-128.62,0-257.26c0-26.79,19.12-46.39,45.88-46.81,4-.06,5.25-1.06,5.86-5.23,4.75-32.61,13.52-64.1,27.94-93.83,2.39-4.93,2-9.54.88-14.51-5.62-25.08,3.88-44.16,23.44-59.43,16-12.51,33.51-21.59,53.82-24.63a7.52,7.52,0,0,0,1.9-.87ZM500.13,503c-15.32,3.28-25.89-2.89-34.71-14.41-7-9.19-16.46-15.72-27.18-20.33-5.84-2.51-7.87-7.13-5.66-11.88s6.9-6.35,12.63-4c14.37,5.94,25.93,15.53,35.79,27.39a22.87,22.87,0,0,0,5.31,5.18c7.14,4.32,14,.37,14-7.84q0-52.8,0-105.59a38.91,38.91,0,0,0-.62-8.51c-3.32-14.26-14.1-22.09-30.54-22.1q-78.52-.09-157,0c-1.54,0-3.07.22-5.16.38,9.33,44.78,21.76,88.49,24.95,134.67,2.52-2,4.18-3.61,6.14-4.73,10.47-6,20.87-12.23,31.6-17.78a8.49,8.49,0,0,1,12.1,4.24c2,4.67,0,9.43-5.46,11.62a121.59,121.59,0,0,0-34.47,21.2,15.15,15.15,0,0,1-13.94,3.69c-8.55-2-12.95-7.47-13.79-17.36-.66-7.81-.65-15.75-2.05-23.43-4.53-24.69-9.45-49.32-14.47-73.91-2.62-12.86-5.78-25.6-8.75-38.6a55.34,55.34,0,0,1-6.87-.05c-4.24-.57-5.53,1.3-5.77,5.35-2,34.44-3.33,68.88,1.14,103.23,2.19,16.85,5.43,33.39,16,47.57,2.67,3.57,4.3,8.25,5.3,12.67,3.16,13.93-3,26-9.27,37.54-8.82,16.13-29.69,16.15-39.35.44a83,83,0,0,1-7-15C234.28,508.87,230.2,484,228.34,459c-2.78-37.55-3.87-75.23-5.68-112.85-.07-1.56-.19-3.12-.3-4.89h-8.09c-.17,1-.32,1.71-.4,2.41-3.65,34.27-2.18,68.52,1.4,102.66,4.83,46,14.49,91.05,27.67,135.41,3.78,12.71,11.36,19.79,23.42,23.88,27.41,9.31,55.76,13.37,84.4,15.73,39.94,3.28,79.95,2.71,120,1.05,9.75-.41,19.49-1.19,29.26-1.8V587.33c-1.2-.08-2.06-.19-2.93-.19-43.59,0-87.19.05-130.78-.12-3.59,0-4.34,1.88-5.54,4.36a31.06,31.06,0,0,1-41.22,15c-15.59-7.26-22.19-25.84-15.1-41.75a9.09,9.09,0,0,0-.07-6.63c-6.95-15.63-.45-34.1,14.83-41.46a30.9,30.9,0,0,1,41.31,14.57c1.77,3.77,3.7,4.63,7.53,4.62,42.17-.13,84.33-.08,126.5-.08h5.63ZM196.23,340.42c-4.68.76-8.45.94-11.95,2-12.57,3.89-19.59,14.51-19.59,29.23q0,126.2,0,252.38c0,21.59,11.06,32.7,32.55,32.7H468.37c1.61,0,3.22,0,4.82,0,11.83-.66,22.24-8.25,24.58-18-3,0-6-.15-9,0-56.93,3.29-113.82,4.19-170.52-3.49-22.82-3.09-45.29-7.77-66.55-17-12.38-5.37-20.4-14.64-23.79-27.8-3-11.55-5.93-23.1-9-34.63-16.52-62.34-26.77-125.49-24.13-190.26C195.11,357.56,195.7,349.59,196.23,340.42Zm321.6,278.71c2.14,0,3.56.12,5,0,23.78-2.38,47.58-4.68,71.34-7.23C620,609.1,635.87,589.5,634,563.63c-1.36-19.06-2-38.16-3-57.24-.93-18.19-1.8-36.39-2.93-54.56-.36-5.73-3.7-9.42-9.07-9.36-10.48.13-21.18-.2-31.37,1.82-27,5.36-47.82,21.32-66.24,40.95a12.72,12.72,0,0,0-3.68,9.52c.13,39.49.08,79,.08,118.45Zm-233-296c-.16-1.69-.24-3.09-.43-4.48-1.9-14.11-4.72-28.18-5.4-42.35-.44-9.21,1.77-18.67,3.82-27.78.61-2.7,4.36-5.92,7.25-6.66,9.09-2.33,16.68-6.76,23.73-12.78,9.79-8.38,20.77-9.48,32.39-3.93,4.18,2,8.19,4.39,12.51,6,7.23,2.72,16.14-1.74,16.85-9.27,1.06-11.3,1.82-22.83.8-34.1-2.59-28.88-38-48-63.5-45.37-22.4,2.31-40.95,12.41-57.14,27.63-9.63,9.06-14.11,19.86-10.81,32.77,3.4,13.29-.22,24.75-5.3,37-7.31,17.68-12.65,36.22-18.1,54.61-2.73,9.23-3.86,18.94-5.76,28.68Zm215.24,229.6H358.23c-8.56,0-10.68-1.76-12.18-10-1.11-6.13-5-10.41-10.48-11.43-6.15-1.15-11.71,1.23-14.71,6.3a13.59,13.59,0,0,0,1.35,15.92c5.6,6.93,5.6,8.82,0,15.67a13.56,13.56,0,0,0-1.39,15.91c3,5.1,8.47,7.45,14.7,6.31,5.48-1,9.39-5.24,10.51-11.38,1.51-8.3,3.66-10.1,12.15-10.1H500.12Zm-260-211.58c0,2.32-.06,4.23,0,6.14.89,25.49,1.52,51,2.75,76.49,1.38,28.5,4.3,56.88,11,84.67,2.32,9.61,6.2,18.89,9.93,28.09.91,2.24,3.9,4.67,6.19,4.95,1.58.2,4.17-2.85,5.3-5a96.71,96.71,0,0,0,5.3-12.79C283,517.1,282.31,510.8,278,505c-6.87-9.13-10.9-19.56-13.54-30.55-8.43-35.06-8.29-70.69-6.84-106.4.36-8.86,1-17.71,1.52-26.9Z"/><path class="cls-1" d="M406.33,463.76a8.56,8.56,0,1,1,.52-17.11,8.71,8.71,0,0,1,8.48,8.52A8.81,8.81,0,0,1,406.33,463.76Z"/></svg>