<?xml version="1.0" encoding="UTF-8"?>
<svg id="Livello_1" xmlns="http://www.w3.org/2000/svg" version="1.1" viewBox="0 0 737.31 702.72">
  <!-- Generator: Adobe Illustrator 30.0.0, SVG Export Plug-In . SVG Version: 2.1.1 Build 123)  -->
  <defs>
    <style>
      .st0 {
        fill: #26475c;
      }
    </style>
  </defs>
  <path class="st0" d="M561.79,479.31c-.82-1.75-2.2-3.87-3.67-6.11-2.18-3.33-4.43-6.78-5.14-9.6-.24-.95-.16-2.43,0-5.18.13-2.25.3-5.04.08-6.59-.66-4.57-3.19-17.59-4.74-21.06-2.42-5.44-5.82-8.44-9.42-11.62-2.53-2.24-5.15-4.55-7.49-7.78-2.11-2.91-3.9-6.27-5.62-9.53-1.51-2.84-3.08-5.79-4.81-8.31l-.6-.88.4-.99c2.34-5.86,6.31-11.3,10.16-16.56,5.06-6.93,14.25-18.05,11.24-27.42-.55-1.72-1.48-3.29-2.41-4.83-.54-.89-1.09-1.79-1.87-2.49-4.61-4.1-12.83-5.3-18.61-6.71-5.18-1.26-10.53-2.56-15.86-4.89-26.17-11.48-38.04-29.07-50.6-47.69-6.17-9.15-12.55-18.6-20.93-27.79-21.88-23.99-50.78-41.33-83.58-50.12-32.36-8.68-66.14-8.47-97.69.6-26.44,7.6-50.76,20.3-72.28,37.75-21.31,17.27-38.85,38.35-52.12,62.65l-.22.41-.38.27c-1.06.74-2.09.7-12.71-1.47-2.52-.52-4.91-1-5.79-1.11-26.99-3.21-54.05,5.4-74.26,23.63-20.03,18.06-31.28,43.8-30.86,70.62.44,28.46,13.52,54.87,35.9,72.47,22.13,17.4,50.45,23.83,77.72,17.66l1.53-.35.7,1.4c11.43,22.78,22.74,40.1,35.62,54.48l.13.15c7.54,8.43,12.67,12.88,15.25,13.24,2.81.39,5.4-.69,7.11-2.96,1.83-2.42,2.26-5.61,1.17-8.41-43.52-41.92-65.11-99.86-59.25-159.02,5.89-59.45,39.48-113.75,89.84-145.26,22.55-14.1,46.94-22.83,72.49-25.92,27.07-3.28,54.09-.03,80.31,9.66l.61.22,2.53,3.77-1.06,1.16c-25.77,28.19-40.71,68.81-39.99,108.67.15,8.46,1.36,17.01,2.52,25.29,1.19,8.5,2.43,17.28,2.56,26.09.29,18.94-3.6,38.67-12.24,62.07l-.16.43-.33.32c-.61.58-1.45,1.25-2.55,1.18-1.08-.06-1.68-.78-1.94-1.09-2.18-.99-4.25-2-6.24-2.98-6.12-3.01-11.91-5.86-19.35-6.86-20.03-2.71-39.81,9.25-47.04,28.42-4.38,11.61-3.68,23.7,2.09,35.94,10.89,23.11,37.32,40.96,57.27,47.78l1,.34,10.62,38.64-.11.49c-.36,1.62-.6,2.68-15.52,1.6-6.48-.47-13.39-1.33-18.48-2.3-2.34-.45-5.63-1.41-9.43-2.52-6.34-1.85-15.32-4.48-20.42-4.48-1.17,0-2.13.14-2.81.45-3.18,1.47-5.13,6.5-3.73,9.6,2.62,5.82,15.42,8.69,22.29,10.24l1.58.36c16.5,3.78,33.63,4.79,49.67,5.32l1.47.05,23.11,84.18c.81,2.97,6.19,5.22,9.36,4.56.29-.06.61-.17,1.01-.35,4.94-2.19,5.35-7.49,4.2-11.36l-36.02-130.21,2.34-.25c11.83-1.29,24.06-3.77,33.29-13.15,2.86-2.91,4.39-6.27,4.09-8.98-.23-2-1.45-3.73-3.62-5.12-4.71-3-7.55-.84-12.17,3.23-1.85,1.63-3.76,3.32-5.93,4.42-4.01,2.04-8.65,2.96-13.63,2.96-17.84,0-40.12-11.83-54.09-26.67-14.15-15.03-18.07-30.81-10.74-43.31,7.35-12.54,21.4-17.38,35.77-12.34,2.89,1.01,6.32,2.91,9.94,4.93,11.39,6.32,20.48,10.65,25.22,4.17,2.23-3.05,8.72-22.51,10.88-29.79,8.85-29.81,7-48.08,4.19-75.74-.29-2.86-.59-5.82-.89-8.9-4.57-47.07,8.58-87.72,39.1-120.81l1.13-1.22,1.41.89c11.69,7.37,25.21,16.54,36.79,28.65,8.23,8.6,14.61,18.31,20.78,27.7,5.41,8.22,10.99,16.72,17.76,24.36,17.25,19.46,40.15,32.32,68.06,38.22l2.78.59-1.49,2.42c-1.43,2.32-3.65,5.33-6.22,8.82-6.92,9.39-17.38,23.58-15.88,30.6.96,4.48,10.62,20.6,14.11,25.53,1.62,2.29,4.38,4.85,7.05,7.32,3.84,3.55,7.46,6.91,8.84,10.25.89,2.15.77,4.36.67,6.3-.07,1.33-.14,2.58.12,3.62.28,1.13.79,2.19,1.34,3.31.74,1.5,1.5,3.05,1.77,4.95.24,1.67-.28,3.34-.74,4.81-.29.92-.56,1.79-.6,2.49-.3,5.1,2.99,10.15,6.16,15.03,1.68,2.58,3.42,5.25,4.64,7.95,5.72,12.57,1.36,29.2-9.71,37.06-26.36,18.71-68.21,29.84-98,32.58-2.65.24-7.09.23-11.77.21-6.3-.02-14.15-.05-16.32.68-3.53,1.18-5.97,4.14-6.21,7.53-.22,3.11,1.42,5.78,4.5,7.32,7.17,3.6,37.94-1.01,48.06-2.52l3.9-.58,7.77,73.13c.59,1.82,2.5,3.59,4.92,4.55,2.26.9,4.5.9,5.99.02.98-.58,1.91-1.48,2.98-2.91,1.65-2.17,1.03-6.47.53-9.93-.16-1.09-.3-2.11-.39-3.07l-5.82-64.45,1.54-.48c21.59-6.78,48.46-15.21,68.47-29.71,16.31-11.82,22.74-37.47,14.05-56.02ZM117.3,322.58c-19.27,49.32-21.35,101.19-5.86,146.08l.74,2.14-2.21.47c-5.17,1.1-10.38,1.64-15.55,1.64-14.85,0-29.42-4.48-42.2-13.14-17.55-11.89-29.67-30.69-33.25-51.57-4.46-26,4.59-52.24,24.2-70.2,19.8-18.12,47-24.88,72.77-18.08l2.17.57-.82,2.09Z"/>
  <g>
    <path class="st0" d="M406.52,201.05c.78-1.57,10.08-12.22,11.92-13.97,6.72-6.36,16.95-10.92,26.25-8.82,10.45,2.36,47.98,36.66,59.4,45.51,1.58,1.22,6.69,5.92,8.15,5.21l11.33-14.8-50.57-41.19c-4.22-1.14-5.59,9.07-13.8,7.14-12.5-2.94,8.43-29.83,18.62-19.75l59.05,49.54c5.09,10.5-14.83,22.04-15.93,28.69-.33,2,2.1,4.94,2.52,7.69,1.89,12.23-6.35,25.65-15.06,33.55-5.9,5.35-6.9,4.32-13.24.04-28.72-19.39-55.66-48.77-84.66-68.66-2.91-2.84-6.15-5.84-3.98-10.2ZM432.11,192.49c-2.17.99-10.59,9.27-9.77,11.4l79.33,63.5c6.24-6.23,13.45-16.36,6.04-24.3l-63.14-51.22c-3.89-2.15-8.62-1.14-12.46.63Z"/>
    <path class="st0" d="M534.82,188.14l60.29-71.58c12.63-26.62-17.75-50.67-40.09-29.23-19.99,19.18-36.93,47.97-56.81,68.01-6.68,5.23-12.67.1-10.53-7.62l63.55-74.26c5.08-6.75,19.36-5.03,23.66-7.13,2.36-1.16,6.86-9.59,9.28-12.02,16.65-16.76,43.42,1.34,35.12,21.94-1.76,4.38-9.65,12.13-10.14,14.58-.7,3.47,1.72,9.29,1.93,13.75.67,14.12-9.36,23.88-17.42,34.08-15.52,19.64-32.93,37.89-48.4,57.59-2.54,1.9-6.08,2.75-8.86.94-2.46-1.94-2.89-6.31-1.57-9.04ZM603.94,61.45c-5.22-3.06-12.6,2.59-14.58,7.67l11.84,9.33c6.14-3.28,10.1-12.69,2.73-17Z"/>
    <path class="st0" d="M622.93,43.49c-1.83,2.41-6,3.83-8.83,2.54-9.02-4.35,5.85-27.51,9.94-32.68,33.95-42.91,59.21,29.24,67.79,53.87,7.61,21.84,12.57,44.3,19.16,66.41,3.96,13.28,10,38.36,17.53,48.92,2.67,3.75,14.4,10.52,5.54,15.63-10.11,5.83-20.33-15.29-23.23-22.45-18.08-44.56-24.81-112.06-51.8-151.39-10.51-15.31-17.8-14-27.77.83-3.3,4.91-6.07,15.35-8.32,18.31Z"/>
    <path class="st0" d="M457.85,125.43c-4.02,6.48-16.43-1.74-21.96-3.37-25.2-7.44-45.82-5.11-68.74,7.88-5.7,3.23-22.15,18.64-22.99,3.46-.16-2.86,1.18-3.75,2.99-5.5,24.86-24.13,67.92-28.03,99.11-15.73,5.04,1.99,16.39,5.53,11.59,13.27Z"/>
    <path class="st0" d="M592,210.88c7.85-2.58,14.85,19.07,16.47,24.89,7.02,25.3,2.13,55.23-11.65,77.39-3,4.83-12.91,19.24-18.38,9.04-2.52-4.7,8.18-17.03,10.8-22.14,11.61-22.69,11.87-41.76,4.71-66.16-1.86-6.34-11.52-19.88-1.96-23.03Z"/>
    <path class="st0" d="M558.96,223.59c7.92-4.56,11.7,6.87,13.61,12.75,4.53,13.97,5.79,27.68,1.7,41.81-1.95,6.74-14.71,38.39-23.86,25.32-3.48-4.97,5.8-14.96,8.29-20.4,5.93-13,6.7-26.57,2.54-40.31-1.53-5.05-9.15-15.21-2.28-19.17Z"/>
    <path class="st0" d="M363.1,158.25c2.57-4.3,21.26-13.62,26.54-15.29,14.27-4.52,30.81-3.63,44.77,1.55,5.18,1.92,10.63,2.96,10.96,9.17.67,12.46-20.13.84-27.08-.11-11.72-1.6-21.68-.32-32.4,4.82-5.39,2.58-12.41,9.57-17.51,9.92s-7.46-6.41-5.28-10.05Z"/>
    <path class="st0" d="M545.55,109.66c25.82-11.06,36.85,29.36,10.03,33.45-20.29,3.1-27.46-25.99-10.03-33.45ZM550.77,121.2c-5.4,2.94-.99,12.14,5.32,8.7,5.4-2.94.99-12.14-5.32-8.7Z"/>
  </g>
  <path class="st0" d="M203.58,565.11c-15.8,4.94-6,25.68,7.04,17.55,9.96-6.21,1.75-20.3-7.04-17.55Z"/>
  <path class="st0" d="M425,337.37h0c-4.09,1.26-5.48,4.34-7.25,8.24-1.8,3.96-3.84,8.45-9.15,11.55-4.13,2.41-9.33,2.41-14.35,2.41-7.91,0-12.43.28-13.36,5.97-.48,2.97.21,5.24,2.14,6.93,5.09,4.48,17.53,4.09,24.18,2.12,11.56-3.43,25.21-15.18,27.12-27.18.52-3.28-.65-6.71-2.98-8.73-1.27-1.1-3.4-2.21-6.35-1.31Z"/>
</svg>