<svg id="Livello_1" data-name="Livello 1" xmlns="http://www.w3.org/2000/svg" viewBox="0 0 800 800"><defs><style>.cls-1{fill:#26475c;}</style></defs><path class="cls-1" d="M360.72,692.67a4.21,4.21,0,0,1-1.74-.9,11.5,11.5,0,0,1-2.63-4,17.18,17.18,0,0,1-1.27-7.09c.15-31.4-.1-62.8.13-94.2.17-22.84-8.23-41.62-24.72-57.29-18.67-17.74-25.56-39.61-18.4-64.41s24.46-40.18,50.06-45.21c11.57-2.27,23-.93,34.2,3.19a13.23,13.23,0,0,0,8.41.08,65.52,65.52,0,0,1,41.4-1.69c7,2,10,6,8.67,11.12-1.54,5.67-6.19,7.68-13.24,5.72-23.79-6.62-46.28,4.08-56.24,26.75a19.61,19.61,0,0,1-1.75,3.56c-2.75,3.89-6.38,5.41-10.87,3.26s-6.57-6-4.56-10.33c3.81-8.17,8.5-15.94,13.05-24.31-6.35-2.21-13.54-1.23-20.56.75a46,46,0,0,0-19.52,77.48c14.19,13.72,24.85,29.25,29.06,48.62a112.28,112.28,0,0,1,2.55,22.59c.27,31.4.05,62.8.18,94.2a17.69,17.69,0,0,1-1.23,7.05c-1.39,3.27-3.12,5.38-6.89,5.34A17.09,17.09,0,0,1,360.72,692.67Z"/><path class="cls-1" d="M433.82,692.73c-2.12-.79-3.28-3-4.16-4.93a17.63,17.63,0,0,1-1.31-7.25c.14-31.4,0-62.79.1-94.18.09-27.21,9.81-50.32,29.67-69.15,16.92-16,20.52-35.22,11-56.55-2.56-5.71-1.4-10.55,3.08-12.83,4.72-2.4,9.58-.36,12.58,5.28,13.15,24.75,7.81,55.71-13.56,75.68-13.13,12.26-21.62,26.83-24.34,44.6a87.6,87.6,0,0,0-.7,13.07c-.05,31.39-.11,62.79,0,94.18a16.79,16.79,0,0,1-1.48,7.53c-.85,1.72-2.09,3.64-3.94,4.41a9.68,9.68,0,0,1-6.89.17A.13.13,0,0,1,433.82,692.73Z"/><path class="cls-1" d="M420,363.18c20.81,5.93,46.43-9.26,52.43-32.18,4.77-18.19.4-34.34-13.56-47.3-15.58-14.47-25.52-32-29-52.94a105.57,105.57,0,0,1-1.37-17c-.13-31-.07-62-.05-93.06a26.29,26.29,0,0,1,.31-5.11c.88-4.4,3.44-7.17,8.12-7.36,5-.21,7.82,2.55,8.93,7.12a24.36,24.36,0,0,1,.32,5.68c0,30.83.23,61.66-.06,92.49-.21,23.08,8.28,42,24.92,57.81,18.55,17.61,25.21,39.35,18.28,63.92-6.84,24.25-23.47,39.42-48.22,45.12a59.33,59.33,0,0,1-35.8-2.93,11.17,11.17,0,0,0-9.06-.06c-41.83,16.34-87.44-15.17-86.68-60,.3-17.45,6.54-32.86,19.49-44.77,18.2-16.74,26.77-37,26.3-61.82-.56-30.06-.15-60.14-.09-90.21,0-5.23,1.64-11,7.84-11.68,3-.35,5.94,1.34,7.8,3.6,2.2,2.67,2,5.33,2,8.61.05,30.26,0,60.52.05,90.78.1,28.51-9.73,52.62-30.8,72.15-13.8,12.79-18.22,28.94-13.22,46.82s17.35,28.58,35.4,32.62c20.28,4.54,42.39-7,51.16-26.54a34.46,34.46,0,0,1,2.07-4.67c2.57-3.93,6.06-5.69,10.72-3.75,4.41,1.84,6.93,6.33,4.84,10.69C429.16,347.32,424.48,355.09,420,363.18Z"/><path class="cls-1" d="M240.84,391.7c9.7,0,19.4-.05,29.09,0,7.16.05,11,3.13,11,8.7s-3.78,8.95-10.81,9q-29.65.12-59.32,0c-7,0-11.07-3.38-11.14-8.77-.08-5.63,4-8.87,11.5-8.91C221.07,391.66,231,391.7,240.84,391.7Z"/><path class="cls-1" d="M560.55,409.41c-9.89,0-19.77,0-29.66,0-4.48,0-8.4-1.27-10.1-5.87-2.26-6.08,1.91-11.71,9.09-11.77q31.1-.25,62.18,0c5.73,0,9.42,3.67,9.55,8.53.13,5.06-3.66,8.9-9.69,9-10.45.23-20.91.06-31.37.06Z"/><path class="cls-1" d="M286.61,371.72c-2.26-1-4.45-2.41-6.1-3.22l-9-4.43c-7-3.47-14-7-20.84-10.8-2.54-1.41-4.9-5.75-4.76-8.63.11-2.53,3.47-5.43,6.08-7.14,1.43-.94,4.53-.32,6.41.58,12,5.77,23.79,11.82,35.67,17.76,4.33,2.18,6.56,5.94,4.74,10.27a14,14,0,0,1-4.72,6C292,373.54,289.24,372.9,286.61,371.72Z"/><path class="cls-1" d="M512.12,372.52a4.46,4.46,0,0,1-4.51-.64c-2-1.59-4-3.15-5-5.22-2-4.24-.17-8.29,4.13-10.54,7.4-3.86,14.9-7.54,22.37-11.27,4.75-2.38,9.48-4.82,14.3-7s8.58-.61,11.23,3.64a7.73,7.73,0,0,1-3,11.33c-12.58,6.65-25.41,12.82-38.16,19.14C513.21,372.07,512.69,372.29,512.12,372.52Z"/><path class="cls-1" d="M299.24,439.25c-1.06,4.12-6.94,6.72-10.15,8.4s-6.28,3.25-9.43,4.85q-9.46,4.78-19,9.4l-2.48,1.21a8.51,8.51,0,0,1-11.68-3.76c-2.29-4.31-1-9.09,3.82-11.6,12.13-6.31,24.32-12.51,36.68-18.33a8.1,8.1,0,0,1,10.53,2.84,11.67,11.67,0,0,1,1.88,5.39A5.28,5.28,0,0,1,299.24,439.25Z"/><path class="cls-1" d="M506.76,429.76a5.46,5.46,0,0,1,5.21-1.1,22,22,0,0,1,3.35,1.22c11.57,5.72,23.15,11.41,34.63,17.32,5.63,2.89,7.29,7.52,4.86,12.13-2.17,4.12-6.7,6-11.11,3.92q-18.74-9-37.21-18.49c-4.06-2.08-5.78-6.1-3.94-10.13A15.48,15.48,0,0,1,506.76,429.76Z"/></svg>