<?xml version="1.0" encoding="utf-8"?>
<!-- Generator: Adobe Illustrator 28.4.1, SVG Export Plug-In . SVG Version: 6.00 Build 0)  -->
<svg version="1.1" id="Livello_1" xmlns="http://www.w3.org/2000/svg" xmlns:xlink="http://www.w3.org/1999/xlink" x="0px" y="0px"
	 viewBox="0 0 730.4 798.9" style="enable-background:new 0 0 730.4 798.9;" xml:space="preserve">
<style type="text/css">
	.st0{fill:#26475C;}
</style>
<g>
	<path class="st0" d="M614.1,577.8c1.5,4.1,2.8,7.4,3.8,10.8c4.1,14,10.5,22.3,27.8,23.7c32.3,2.6,45.8,24.6,38.9,56.4
		c-4.7,21.6-14.1,39-36.5,47.2c-2.8,1-5.5,6.7-5.6,10.3c-0.6,18.1,0.2,36.3-0.6,54.4c-0.2,4.4-3.4,10.1-7.1,12.6
		c-2.9,2-9.5,1.5-12.7-0.6c-3.2-2.1-5.9-7.5-6-11.6c-0.6-18.7-0.5-37.4-0.1-56.1c0.3-16.7,7.7-28.6,23.9-34.8
		c13-4.9,23.7-28,19.3-41.3c-1.1-3.4-4.7-7-8-8.4c-5.2-2.1-11.2-3.5-16.8-3.3c-15.1,0.7-25-6.4-31.9-19c-0.9-1.6-2-3.1-3.8-4.7
		c2.4,15,0.9,29.5-8.9,40.9c-9.4,10.8-20.8,19.7-33,30.8c9.4,27.7,5.6,59.5,6.3,90.9c0,1.1,0,2.2,0,3.3c-0.2,9.7-5.1,15.7-13.1,15.8
		c-8,0.1-13.2-5.8-13.3-15.5c-0.1-18.4,0.5-36.9-0.4-55.3c-0.5-11.6-3.2-23.2-5-35.5c-21.1,3.4-36.4-5.2-51.6-16.2
		C462,659.8,441,655,419.5,657.3c-21.7,2.3-39.6-2.7-54.4-19.9c-9.4,10.6-20.3,18.1-34.2,19.9c-4.6,0.6-9.3,0.9-13.9,0.4
		c-26.5-2.8-50.9,2.6-72.2,18.9c-11.9,9.1-24.7,13.9-39.7,13.3c-2.1-0.1-5.9,2.8-6.4,4.9c-2.2,9.9-4.4,19.9-4.9,30
		c-0.8,18.1-0.2,36.3-0.3,54.4c-0.1,10.2-5.3,16.3-13.5,16.1c-7.9-0.2-13.1-6.1-12.8-16c0.9-27.1,2-54.3,3.3-81.4
		c0.3-5.1,2.3-10.1,2.9-12.8c-11.7-10.6-23.3-19.4-32.7-30.1c-10-11.5-12-26.1-8.3-41.4c-1.2,0.4-2,0.4-2.2,0.7
		c-7.9,15.6-19.3,25-37.9,23.1c-3.2-0.3-6.5,0.8-9.7,1.6c-10,2.6-13.9,8.1-12.1,18.2c1.2,6.7,2.1,14,5.4,19.7
		c3,5.3,8.3,10.7,13.9,12.9c17.3,6.9,24.4,19.5,24.5,37.1c0.1,17.6,0.1,35.2,0,52.8c0,9.7-5.2,15.6-13.1,15.7
		c-8,0-13.1-5.9-13.2-15.6c-0.1-17.9-0.1-35.7,0-53.6c0-5.2-1.4-9.2-6.7-11c-23.4-7.9-32.1-26.9-36.1-49
		c-6-33.5,11.1-53.5,47.7-55.1c7.6-0.3,11.6-3,14.1-9.6c2.9-7.7,6.1-15.2,9.6-23.9c-3.9-1.9-7.3-4.3-11.1-5.3
		c-32.3-8.7-54.5-30-70.8-57.9C8.3,469.2-0.9,420,0.1,368.5c0.5-25.5,4.6-50.3,12.9-74.4c32.7-95.5,128-112.1,196.2-74.8
		c30.9,16.9,54.9,40.9,74.7,69.6c3.1,4.5,8.2,7.5,12.4,11.2c0.7-0.6,1.5-1.2,2.2-1.8c0-5.5,0-11.1,0-14.7
		c-7.3-5.1-15.8-8.3-19.9-14.4c-4.2-6.3-4.5-15.3-5.7-23.2c-0.8-5.6-0.2-11.5-0.2-17.9c-10.8-1.5-26.6,3.2-25.9-14.5
		c0.6-15.7,15.1-11.4,25.9-12.7c0-7.3,0-14.4,0-21.4c0-18.9,7.1-27.6,26-31.5c0-3.7,0-7.5,0-11.9c-31.9-5.5-25.5-30.7-26.1-53.7
		c-4.5,0-8.8,0.2-13,0c-7.9-0.5-13.2-5.8-13.3-13c-0.1-7.2,5.2-12.7,13-13.2c4.1-0.3,8.2,0,13.3,0c0-8.7-0.1-16.8,0-24.9
		c0.2-19.2,14.2-30.8,32.7-26.6c39.8,8.9,79.5,8.9,119.3,0c18.2-4.1,32.4,7.3,32.7,25.9c0.1,8.2,0,16.4,0,25.1
		c10.6,1.8,26.1-3.1,25.9,13.9c-0.2,16.4-14.9,12.2-25.9,13.4c0,6.9,0,13.4,0,19.9c0,20-6.6,28.6-26,33.5c0,3.7,0,7.4,0,11.2
		c20.7,6.1,26,13.2,26,34.7c0,6,0,12,0,18.7c10.8,1.5,26.6-3.1,25.9,14.6c-0.7,15.7-15.1,11.5-25.9,12.7c0,7.1,0,13.9,0,20.7
		c0,19.2-7.1,28.1-26,32.7c0,5.6,0,11.2,0,17.1c7,0.2,11.1-3.3,14.8-8.8c25-37.6,57.1-67,100.7-81.3c73.5-24.2,144.1,9.9,169.1,83.9
		c26,77.1,18.1,152.4-21.6,223.5c-15.3,27.4-37.5,48-69.2,56c-2.4,0.6-4.6,1.8-6.8,2.9C617.1,575.4,615.8,576.5,614.1,577.8z
		 M473.1,297c5.9,8.5,12.5,15,15.4,22.8c9.9,27,18.8,54.5,27.5,81.9c5.4,17.1-1.4,35.3-16.4,44.6c-5.2,3.2-6,6.2-5.2,11.8
		c3.8,27.7-4.9,50.6-28.7,66.2c-9.3,6.1-19.9,10.4-30.1,15.1c-11.2,5.2-22.8,9.5-33.8,15c-12.1,6.1-20.2,15.9-22.6,29.7
		c-2.7,15,0.6,28.4,10.1,40.2c7.7,9.5,18.6,6,28.5,6.3c0.5,0,1.1-0.1,1.6-0.1c31.2-0.7,59.6,7.2,84.6,26.7
		c4.6,3.6,11.5,5.7,17.4,5.7c16.6,0,31-6.6,42.9-18.2c6.4-6.2,9.6-13.9,8.1-23.1c-5.2-32.5,12.7-64.6,44.1-74.1
		c26.5-8,44.7-24.6,57-47.9c33.8-63.7,40.8-130.7,17.9-199.3c-19.1-57-73-84.8-130-68.9C523.1,242.1,495,266.8,473.1,297z
		 M258.6,299.2c-20.3-28.2-44.4-50.6-76.2-63.2c-61.9-24.5-121.8,2.9-144.2,65.5c-7.9,22.2-11.6,45.2-11.9,68.7
		c-0.6,45.5,7.5,89.1,30.3,129.1c13,22.9,30.7,39.8,57.1,48c31.3,9.6,49.6,41.8,44.3,74c-1.5,9.3,1.5,16.9,7.9,23.2
		c11.6,11.5,25.7,18.2,42,18.3c6.3,0.1,13.1-3,19-6c7.5-3.8,14.1-9.6,21.6-13.4c22.1-11.3,45.9-14.1,70.5-12.7
		c17.6,1,23.6-3.2,29.8-19.7c1.7-4.6,2.9-9.5,3.2-14.4c1.4-20.4-7.8-35.1-25.9-43.7c-15.1-7.2-30.9-12.9-46-20
		c-35.4-16.6-47.6-38.8-43.7-77.9c0.2-2.3-1.5-5.7-3.3-7c-18.5-12.7-24.4-29.5-17.3-50.9c7.3-22.1,15.1-44.1,22.2-66.4
		C241.6,318.4,246,306.5,258.6,299.2z M365.2,485.5c6.7-2.2,13.8-3.6,20-6.8c32.4-17.3,64.6-35,96.9-52.7c9.1-5,11.1-9.9,7.8-19.7
		c-8.2-25-16.6-50-25-74.9c-3.4-10.1-8-12.1-18.1-8.9c-54.2,17.1-108.5,17.1-162.8,0.2c-10.8-3.4-15.2-1.5-18.7,9
		c-8.4,24.9-16.8,49.9-25,74.9c-3.1,9.4-1.1,14.6,7.4,19.2c32.7,17.9,65.4,35.9,98.3,53.5C351.6,482.2,358.2,483.3,365.2,485.5z
		 M430.4,109c0-26.8,0-52.4,0-78.7c-44,11.6-87.4,11.4-131.1,0c0,26.6,0,52.4,0,78.5C343.3,120.4,386.8,120.2,430.4,109z
		 M430.8,175.5c-44.2,11.7-87.6,11.5-131.4,0.1c0,26.6,0,52.3,0,78.6c43.9,11.4,87.6,11.5,131.4-0.1
		C430.8,227.6,430.8,202.1,430.8,175.5z M261.7,463.6c-1.3,16.9,3.1,30.1,16.7,38c11.7,6.9,24.4,12.4,37.1,17.3
		c16.7,6.3,31.7,15,44.4,27.5c1.7,1.7,3.5,3.2,5.6,5.1c15.4-17.3,34.4-27.5,55.5-34.9c11-3.9,21.8-9.2,31.6-15.4
		c12.9-8.2,17.3-21.1,15.9-37.3c-3.4,1.7-6.1,3-8.6,4.4c-20.7,11.3-41.4,22.6-62.1,33.8c-21.7,11.7-43.5,11.7-65.2,0
		c-17.9-9.6-35.6-19.4-53.5-29.1C273.6,469.9,268.1,467,261.7,463.6z M325.8,305.3c26.4,4.4,52.4,4.7,78.4,0c0-6.6,0-12.3,0-17.5
		c-26.3,0-52.2,0-78.4,0C325.8,292.8,325.8,298.5,325.8,305.3z M325.9,154.1c26.5,4.7,52.3,4.9,78.1,0.1c0-4.5,0-8.4,0-11.5
		c-26.4,0-52.1,0-78.1,0C325.9,145.7,325.9,149.4,325.9,154.1z"/>
	<path class="st0" d="M556.2,572.1c-1.3,6.4-2.9,19-6.5,31c-7.2,23.5-34,34.8-56,23.7c-10.5-5.3-20.6-11.7-29.8-18.9
		c-21.6-17-20.3-49.1,3-63.6c12-7.4,25.1-13.8,38.6-17.8C536.7,517.3,556.6,533.4,556.2,572.1z M529.9,570
		c0.3-19.7-5.7-24.4-19.8-18.7c-10.1,4.1-19.8,9.4-29.1,15c-8,4.9-8.4,15.1-0.8,20.8c7.9,5.9,16.3,11.2,24.9,15.8
		c8.3,4.4,17.2,0.5,19.6-8.4C527.4,585.1,528.9,575.3,529.9,570z"/>
	<path class="st0" d="M678,373.7c-0.7,32.2-5.5,61.8-16.9,90.2c-4.3,10.9-10.3,14.6-18.3,11.7c-8.4-3.1-10.4-10.3-6.3-21.2
		c15-40,19.3-81,9.8-122.9c-2-9-6.2-17.5-10.2-25.9c-4.7-9.9-3.9-17.4,3.4-21.4c7.3-4,14.5-1,19.9,8.7
		C674,318.4,677.6,346.6,678,373.7z"/>
	<path class="st0" d="M629,505c-0.1,7.1-6.1,13.1-13.2,13c-7.2-0.1-13.1-6.1-13-13.2c0.1-7.2,6.1-13.1,13.2-13
		C623.1,491.8,629,497.8,629,505z"/>
	<path class="st0" d="M173.8,565.4c0-0.8,0-1.6,0-2.5c0.6-28.7,18.8-44.7,46.4-37.5c16.1,4.2,32,11.8,45.9,21.1
		c20.3,13.6,20.6,44.2,1.5,60c-10.1,8.3-21.5,15.5-33.3,21c-21.4,10-47-1.6-53.9-24.1C176.7,591.1,173.4,565.5,173.8,565.4z
		 M214.4,549.6c-10.8-1-14.5,4-14,10.6c0.9,11.9,2.6,23.9,5.3,35.5c1.9,7.9,11.2,11.4,18.8,7.4c8.9-4.7,17.5-10.3,25.6-16.2
		c6-4.4,7-13.7,1.6-18.1C240,559.4,226.6,552.7,214.4,549.6z"/>
	<path class="st0" d="M51.9,382c0.5-29.5,2.8-51.8,11.1-73.1c2.3-5.8,5-11.6,8.1-17c5-8.9,12.6-11.5,19.7-7.3
		c6.7,4,7.3,11.2,3.7,20.2c-5.2,12.9-10.8,26-13.1,39.5c-6.4,37.3-1.5,73.8,11.7,109.2c0.6,1.5,1.3,3,1.8,4.6
		c2.7,8-0.2,14.7-7.4,17.6c-6.8,2.7-14,0.1-16.7-7.6c-5.1-14.4-10.3-29-13.4-43.9C54.1,408.1,53.1,391.5,51.9,382z"/>
	<path class="st0" d="M113.9,491.7c7.1-0.2,13.3,5.6,13.5,12.7c0.2,7.1-5.6,13.3-12.7,13.5c-7.1,0.2-13.3-5.6-13.5-12.7
		C100.9,498.1,106.7,492,113.9,491.7z"/>
</g>
</svg>
