<?xml version="1.0" encoding="utf-8"?>
<!-- Generator: Adobe Illustrator 27.0.0, SVG Export Plug-In . SVG Version: 6.00 Build 0)  -->
<svg version="1.1" id="Livello_1" xmlns="http://www.w3.org/2000/svg" xmlns:xlink="http://www.w3.org/1999/xlink" x="0px" y="0px"
	 viewBox="0 0 622.6 622.6" style="enable-background:new 0 0 622.6 622.6;" xml:space="preserve">
<style type="text/css">
	.st0{fill:#26475C;}
</style>
<g>
	<path class="st0" d="M441.6,621.8c-2.7,0.5-5.4,0.7-8.3,0.8c-14.2,0.1-28.4,0-42.5,0c-8.2,0-17.3-7.2-21.7-13.7
		c-5-7.5-6.1-16.8-5.4-25.6c0.6-7.4,0.1-14.8,0.1-22.3c-76.4,0-152,0-227.9,0c0,2.5,0,4.5,0,6.5c0,7.5,0,15,0,22.4
		c0,7.6-2,15.1-6.9,21c-3.7,4.5-8.6,8-14.1,10c-5.9,2.1-11.5,1.6-17.6,1.6c-4.7,0-9.4,0-14,0c-7.3,0-14.5,0.2-21.8,0
		c-3.3-0.1-5.6-0.3-8.6-1.6c-2.2-1-4.4-2.1-6.4-3.5c-7.5-5-12.2-12.6-13.7-21.4c-0.7-4.2-0.8-8.5-0.4-12.7c0.5-6.6,0.4-13.4-0.1-20
		c-0.1-1.9-2-4.7-3.8-5.5c-17.6-7.7-27.1-21.5-27.1-40.7c0-30.1,0-60.3,0-90.4c0-18,6.9-32.5,21.1-43.6c5.2-4.1,10.3-8.3,15.8-12.8
		c-1.2-0.9-1.9-1.5-2.7-2.1c-11.9-9.1-16.3-22.3-11.9-35.3c4.4-13,16.1-21.1,30.8-21.2c7.7-0.1,15.4-0.2,23,0.1
		c3.8,0.2,5.6-1.1,7-4.7c6.8-18.4,13.9-36.6,21-54.9c6.5-16.5,18.3-27.7,35.6-31.7c7.9-1.9,16.4-1.6,24.6-2c7.2-0.3,14.4-0.1,22-0.1
		c0-3.3,0-5.7,0-8.1c0-51.6-0.1-103.1,0-154.7c0.1-32.9,21.9-54.5,54.9-54.6c36.4,0,72.8,0,109.2,0c72.6,0,145.2-0.1,217.8,0
		c20.9,0,39.8,11.5,48.3,30.8c2.8,6.3,4.7,12.5,4.6,19.4c-0.1,7.4,0,14.9,0,22.3c0,15.4,0,30.7,0,46.1c0,9.8,0,19.7,0,29.5
		c0,16.2,0,32.4,0,48.6c0,8.1,0,16.2,0,24.3c0,14.9,0.9,28.8-6.8,42.2c-6,10.5-15.5,18.9-26.9,23.2c-2.8,1-5.7,1.8-8.6,2.4
		c-5,0.9-10,1.2-15,1.2c-49.7,0-99.4,0-149.2,0c-2.1,0-4.2,0-7,0c2.3,6,4.4,11,6,16.2c1.1,3.4,2.8,4.7,6.5,4.6
		c8.5-0.3,17-0.2,25.5,0c13.3,0.3,24.6,8.7,28.8,21.3c4.2,12.5,0.1,25.8-10.5,34.2c-1.2,1-2.4,2-3.9,3.1c5.7,4.6,11,8.9,16.3,13.2
		c13.5,10.8,20.4,24.8,20.5,42c0.2,30.9,0.3,61.9-0.1,92.8c-0.2,18.3-9.1,31.6-26.2,38.6c-3.8,1.6-5.2,3.4-4.9,7.4
		c0.4,6.7,0.1,13.3,0.1,20c0,8.7-0.5,18.4-6.1,25.6C455.9,616.8,449.2,620.4,441.6,621.8z M208.4,218.5c3.3,0,5.7,0,8.1,0
		c42.3,0,84.5,0,126.8,0c24.4,0,42.4,12.5,51.3,35.3c1.4,3.6,3.2,7.1,4.1,10.7c1.2,4.7,3.7,6,8.6,6c53.4-0.2,106.8-0.1,160.2-0.1
		c21.6,0,34.4-12.8,34.4-34.3c0-59.9,0-119.7,0-179.6c0-22.3-12.5-34.8-35-34.8c-107.8,0-215.6,0.2-323.3-0.2
		c-19.2-0.1-35.6,12.6-35.3,35.5c0.7,51.4,0.2,102.7,0.2,154.1C208.4,213.3,208.4,215.5,208.4,218.5z M89,352.8
		c107.6,0,214.2,0,321.4,0c-0.7-2-1.1-3.5-1.7-5c-11.1-28.8-22.2-57.7-33.3-86.5c-5.7-14.8-16.3-22.1-32-22.1
		c-62.3,0-124.6,0-186.9,0c-16,0-26.7,7.4-32.5,22.5c-5.4,13.9-10.7,27.9-16,41.9C101.7,319.8,95.5,335.9,89,352.8z M477,487.6
		c0.2-1,0.6-1.7,0.6-2.5c0-20.2,0.1-40.4-0.1-60.7c-0.1-9.9-4.3-17.9-12-24.1c-9.3-7.5-18.4-15.2-28-22.3c-3.2-2.3-7.7-4-11.6-4
		c-117.5-0.2-235-0.2-352.4,0c-3.7,0-8,1.6-11,3.8c-9.4,6.9-18.3,14.6-27.6,21.8c-8.9,7-13.1,16.1-13,27.4c0.1,16.8,0,33.6,0,50.4
		c0,3.4,0,6.7,0,10.2C174.1,487.6,325.5,487.6,477,487.6z M22.4,508.8c-2.4,22.3,5.4,31,27.1,31c36.6,0,73.1,0,109.7,0
		c2.3,0,4.7,0,7.4,0c0-10.7,0-20.7,0-31C118.4,508.8,70.6,508.8,22.4,508.8z M476.8,509c-47.9,0-95.9,0-143.7,0
		c0,10.4,0,20.4,0,30.8c2.5,0,4.5,0,6.5,0c37.8,0,75.6,0,113.3,0C471.5,539.8,481,527.6,476.8,509z M311.6,508.9
		c-41.4,0-82.4,0-123.5,0c0,10.3,0,20.3,0,30.5c41.4,0,82.3,0,123.5,0C311.6,529.2,311.6,519.3,311.6,508.9z M384.5,560.7
		c0,10.8-0.2,20.9,0.1,31c0.1,6.2,4.2,10,10.6,10.1c13.5,0.2,27.1,0.1,40.6,0c5.5-0.1,9.9-3.1,10.3-8.4c0.7-10.8,0.2-21.7,0.2-32.9
		c-19.4,0-38.1,0-56.9,0C388,560.5,386.6,560.6,384.5,560.7z M53.2,560.7c0,10.8-0.2,20.9,0.1,31c0.2,6.2,4.2,10,10.6,10.1
		c13.5,0.2,27.1,0.1,40.6,0c5.5-0.1,9.9-3.1,10.2-8.5c0.7-10.8,0.2-21.6,0.2-32.9c-19.4,0-38.2,0-56.9,0
		C56.6,560.5,55.2,560.6,53.2,560.7z M425.8,332.6c3,17.8,6.7,21.4,20.4,20.6c0.2,0,0.4,0,0.6,0c5.9-0.5,9.8-4.5,9.9-10.2
		c0-5.5-3.9-10-9.7-10.3C440,332.3,432.9,332.6,425.8,332.6z M74.5,332.5c-7.8,0-14.7-0.1-21.5,0c-4.7,0.1-8.7,2.5-9.4,7.1
		c-0.5,3.3,0.7,7.4,2.4,10.4c1.6,3,17.3,4.6,20.1,2.8c0.8-0.5,1.3-1.5,1.6-2.4C69.9,344.8,72,339.2,74.5,332.5z"/>
	<path class="st0" d="M332.1,83.9c-12.9,0-25.9,0-38.8,0c-7.8,0-12.4-3.4-12.4-8.8c-0.1-5.4,4.7-9.1,12.2-9.1
		c26.3-0.1,52.5-0.1,78.8,0c7.6,0,12.4,3.6,12.5,8.9c0.1,5.4-4.7,8.9-12.3,9C358.8,83.9,345.4,83.9,332.1,83.9z"/>
	<path class="st0" d="M244.4,83.9c-1.4,0-2.8,0-4.2,0c-6.8-0.2-11-3.6-10.9-8.9c0-5.2,4.2-8.7,11-9c2.8-0.1,5.6-0.1,8.5,0
		c7.1,0.3,11.4,3.8,11.2,9.3c-0.2,5.3-4.2,8.4-11.3,8.6C247.2,83.9,245.8,83.9,244.4,83.9z"/>
	<path class="st0" d="M332.1,119.2c-12.9,0-25.9,0-38.8,0c-7.8,0-12.4-3.4-12.4-8.8c-0.1-5.4,4.7-9.1,12.2-9.1
		c26.3-0.1,52.5-0.1,78.8,0c7.6,0,12.4,3.6,12.5,8.9c0.1,5.4-4.7,8.9-12.3,9C358.8,119.3,345.4,119.2,332.1,119.2z"/>
	<path class="st0" d="M244.4,119.2c-1.4,0-2.8,0-4.2,0c-6.8-0.2-11-3.6-10.9-8.9c0-5.2,4.2-8.7,11-9c2.8-0.1,5.6-0.1,8.5,0
		c7.1,0.3,11.4,3.8,11.2,9.3c-0.2,5.3-4.2,8.4-11.3,8.6C247.2,119.3,245.8,119.2,244.4,119.2z"/>
	<path class="st0" d="M332.1,155.1c-12.9,0-25.9,0-38.8,0c-7.8,0-12.4-3.4-12.4-8.8c-0.1-5.4,4.7-9.1,12.2-9.1
		c26.3-0.1,52.5-0.1,78.8,0c7.6,0,12.4,3.6,12.5,8.9c0.1,5.4-4.7,8.9-12.3,9C358.8,155.1,345.4,155.1,332.1,155.1z"/>
	<path class="st0" d="M244.4,155c-1.4,0-2.8,0-4.2,0c-6.8-0.2-11-3.6-10.9-8.9c0-5.2,4.2-8.7,11-9c2.8-0.1,5.6-0.1,8.5,0
		c7.1,0.3,11.4,3.8,11.2,9.3c-0.2,5.3-4.2,8.4-11.3,8.6C247.2,155.1,245.8,155,244.4,155z"/>
	<path class="st0" d="M250.2,405.1c23.2,0,46.5,0,69.7,0c14.8,0,22.9,8.1,23.1,22.8c0.1,6.1,0.2,12.1-0.1,18.2
		c-0.6,12.9-9,21-21.8,21c-47.7,0.1-95.4,0.1-143.1,0c-12.7,0-21.3-8.7-21.5-21.3c-0.1-6.5-0.1-12.9,0-19.4
		c0.2-12.7,8.7-21.2,21.5-21.3C202.1,405.1,226.1,405.1,250.2,405.1z M321.8,446.4c0-7,0-13.5,0-20.1c-6.9,0-137.7,0-144.1,0
		c0,7,0,13.5,0,20.1C184.4,446.4,315,446.4,321.8,446.4z"/>
	<path class="st0" d="M84,405.2c7.1,0,14.1-0.1,21.2,0c11.2,0.3,19.5,8.2,20.1,19.4c0.4,7.7,0.3,15.3,0,23
		c-0.5,10.9-8.6,19.2-19.3,19.5c-14.5,0.4-29.1,0.4-43.6,0c-10.8-0.3-19.2-8.9-19.7-20c-0.3-7.3-0.3-14.5,0-21.8
		c0.5-11.6,9.1-19.9,20.7-20.1C70.3,405,77.1,405.2,84,405.2z M63.6,446.2c14,0,27.2,0,40.7,0c0-6.8,0-13.4,0-19.9
		c-13.8,0-27.2,0-40.7,0C63.6,433.1,63.6,439.5,63.6,446.2z"/>
	<path class="st0" d="M415.6,405.2c7.1,0,14.1-0.2,21.2,0c10.9,0.3,19.2,8,19.8,19c0.5,8,0.5,16.2,0,24.2
		c-0.7,10.6-8.9,18.5-19.5,18.7c-14.3,0.3-28.7,0.3-43,0c-10.9-0.2-19.4-8.6-20-19.6c-0.4-7.4-0.4-14.9,0-22.4
		c0.6-11.6,9.2-19.7,21-19.9C401.9,405.1,408.7,405.2,415.6,405.2C415.6,405.2,415.6,405.2,415.6,405.2z M435.7,446.3
		c0-7,0-13.4,0-20.1c-13.7,0-27.1,0-40.7,0c0,6.9,0,13.4,0,20.1C408.7,446.3,422,446.3,435.7,446.3z"/>
</g>
<g>
	<path class="st0" d="M494.4,54.3c2.5,0.5,5.1,0.9,7.6,1.5c17.3,4,32,20.5,34.4,38.2c1.5,11.6-0.1,22.6-6.7,32.4
		c-8.7,13-20.8,20.6-36.7,21.7c-20.9,1.4-38.1-10.9-46-27.6c-7.3-15.7-4.4-36.6,7.1-49.6c7.1-8,15.6-13.5,26.1-15.6
		c1.8-0.4,3.6-0.6,5.4-1C488.5,54.3,491.4,54.3,494.4,54.3z M490,132.7c17.5-0.1,31.4-14.1,31.3-31.5c-0.1-17.6-14.2-31.5-31.6-31.3
		c-17.5,0.2-31.3,14.2-31.1,31.6C458.7,118.9,472.7,132.8,490,132.7z"/>
	<path class="st0" d="M489.8,237.2c-13.6,0-27.2,0-40.9,0c-6.9,0-13.5-1.4-19.2-5.4c-6.7-4.7-10.6-11.2-11.3-19.2
		c-1.2-14.2,0.4-28.2,5.8-41.5c3.2-7.9,7.9-14.7,15.7-18.9c4.9-2.7,10.3-4,15.8-3.9c1.7,0,3.6,0.9,5.2,1.8c2.6,1.4,5,3.2,7.5,4.7
		c14.3,8.8,28.6,8.8,42.9,0c2.1-1.3,4.1-2.5,6.1-3.9c3.4-2.6,7.2-2.9,11.3-2.3c11.2,1.6,19.1,7.8,24.4,17.5
		c4.8,8.7,6.9,18.2,7.8,27.9c0.5,5.1,0.7,10.2,0.7,15.3c-0.2,14.9-10.7,26.2-25.6,27.7c-2.1,0.2-4.1,0.3-6.2,0.3
		C516.5,237.2,503.2,237.2,489.8,237.2z M489.9,223.8C489.9,223.8,489.9,223.8,489.9,223.8c12.9,0,25.8,0.1,38.7-0.1
		c10.8-0.1,17.4-6.7,17.2-17c0-3.9-0.2-7.8-0.7-11.7c-0.8-6.9-2.3-13.7-5.8-20c-3.6-6.4-8.9-10.6-16.7-11c-0.7,0-1.5,0.1-2.1,0.5
		c-2.3,1.3-4.5,2.8-6.8,4.1c-6.3,3.7-13.1,6-20.4,6.6c-10.1,0.8-19.2-1.9-27.7-7c-2-1.2-4-2.5-6-3.7c-0.5-0.3-1.1-0.5-1.7-0.5
		c-3.2,0.1-6.2,0.9-9,2.4c-5.1,2.8-7.9,7.4-10,12.3c-4,9.6-4.9,19.7-4.6,29.8c0.1,5.5,2.7,10,7.7,12.8c3.3,1.9,7,2.4,10.8,2.4
		C465.1,223.8,477.5,223.8,489.9,223.8z"/>
</g>
</svg>
