<svg id="Livello_1" data-name="Livello 1" xmlns="http://www.w3.org/2000/svg" viewBox="0 0 800 800"><defs><style>.cls-1{fill:#26475c;}</style></defs><path class="cls-1" d="M343.86,110.34c5.72,1.79,8.5,7.75,8.26,14.25-.37,10.16.05,20.35-.15,30.52-.7,35.85-22.13,63.64-56.56,73.53l-81.72,23.52c-26.9,7.75-41.59,27.22-41.61,55.29q0,84.23,0,168.46c0,1.32-.1,2.65,0,3.95.92,10.43-6.09,14.26-11.52,14.33-6.86.09-11.1-5.48-11.1-14.16q0-86.49.09-173a89.36,89.36,0,0,1,2.07-20.13c6.82-28.87,25.08-47.42,53.19-56,27.29-8.3,54.81-15.9,82.25-23.73,27.65-7.88,42.24-27.1,42.26-55.89,0-8.66.28-17.34-.09-26-.29-6.65,2.69-15.31,10.49-15.52A12.84,12.84,0,0,1,343.86,110.34Z"/><path class="cls-1" d="M461.55,110.2c5.94,1.81,8.28,9.23,8.06,15.17-.35,10-.4,20,0,29.95.85,22,11,38.25,31,48,1.35.66,2.75,1.24,4.06,2,6.1,3.45,8.32,9.57,5.57,15.24s-8.84,7.73-15.37,5.25c-27.27-10.39-47-37.73-47.82-66.77-.34-11.49,0-23-.34-34.47-.26-7.77,3.82-14.89,12.21-14.74A9.83,9.83,0,0,1,461.55,110.2Z"/><path class="cls-1" d="M530.38,509.33c-56.61,14.59-100-2.82-131-52-30.6,49.17-74.15,66.61-131.22,52,.86,8.29,1.4,16.65,2.64,24.9,5.08,34-.74,66.7-12,98.65a189.49,189.49,0,0,1-26.66,50.77c-3.14,4.2-7.24,6.18-12.28,5.12-4.83-1-8.31-4.43-8.53-9.31a17,17,0,0,1,2.89-9.9C230.57,646.39,240.31,620.59,246,593a173.32,173.32,0,0,0,1.51-62.27c-1.63-10.4-2.37-20.94-3.91-31.36a10.87,10.87,0,0,0-3.72-6.35c-23.27-18.08-37-41.75-41.39-70.74a67.68,67.68,0,0,1-.37-16.28c.51-5.57,5-9,10.4-9.19s10,2.9,11.09,8.4c1.42,7.35,1.53,15,3.31,22.23,9.35,38.25,43.7,65.15,81.72,64.4,40.91-.81,74.38-29,82-69.15a136.84,136.84,0,0,0,1.46-14c.62-7.53,5-12,11.65-11.84,6.4.15,10.69,4.6,11,11.88,1.25,28.06,12.61,50.8,35.42,67.49,49.44,36.2,122.54,5.6,131-54.82.62-4.46.66-9,1.29-13.46.73-5.14,3-9.38,8.55-10.68,5-1.18,9.52.09,12.21,4.69a14.87,14.87,0,0,1,1.92,7.46c-.87,33.59-14.32,61.12-40.6,82.09a15.25,15.25,0,0,0-6.1,11.28c-1.75,16.27-5.19,32.54-5.09,48.79a257.07,257.07,0,0,0,5.82,51.4,173.87,173.87,0,0,0,29.55,66.54c4.9,6.74,4,13.29-1.67,17.39s-12.22,2.4-17-4.25c-20.66-28.88-32.14-61.29-37.75-96.18-3.87-24-1.18-47.65,1.84-71.38.16-1.31.37-2.61.48-3.92A9.38,9.38,0,0,0,530.38,509.33Z"/><path class="cls-1" d="M649.39,390.39q0,45.23,0,90.46c0,9.83-7.08,15.56-15.22,12.48A10.67,10.67,0,0,1,626.8,483c-.13-4.14-.07-8.29-.07-12.44V307.18c0-17.22-5.2-32.34-18.83-43.5-4.88-4-10.86-6.63-16.24-10.05s-7-9-4.59-14.18,7.7-8,13.56-6.13a51.31,51.31,0,0,1,11.72,5.42c23.89,14.86,36.52,36.48,36.94,64.59C649.72,332.35,649.39,361.37,649.39,390.39Z"/><path class="cls-1" d="M559.46,229.46A11.57,11.57,0,0,1,548,241a11.86,11.86,0,0,1-11.5-11.57,11.23,11.23,0,0,1,11.23-11C554.4,218.38,559.39,223.08,559.46,229.46Z"/><path class="cls-1" d="M505.88,408.53a11.48,11.48,0,0,1-11.26,11.05,11.9,11.9,0,0,1-11.41-11.65c.08-6.58,5.36-11.31,12.27-11C501.76,397.26,506.1,402.08,505.88,408.53Z"/><path class="cls-1" d="M292.91,407.89a10.77,10.77,0,0,1,11-10.95c6.57-.08,11.8,4.85,11.67,11s-5.53,11.65-11.49,11.63S292.92,414.2,292.91,407.89Z"/></svg>