<svg id="Livello_1" data-name="Livello 1" xmlns="http://www.w3.org/2000/svg" viewBox="0 0 800 800"><defs><style>.cls-1{fill:#26475c;}</style></defs><path class="cls-1" d="M129,161c2.79-8.88,12.68-14.17,21.8-13.65q45.88,2.58,91.73,5.56c8.7.59,14.81,5.64,18.07,13.65,3.44,8.43,2.25,16.53-4,23.17-5.56,5.9-11.8,11.16-17.37,16.37l22.28,22.19c13.83-5.32,27.29-11.85,41.47-15.72,42-11.43,82-5.39,119.61,16.36,3.29,1.91,5.29,1.53,8.38-.34,54.2-32.83,109.1-33.67,164.54-3.13a23.57,23.57,0,0,1,5.22,3.61c3,3,3.63,6.54,1.12,10.08-2.37,3.35-5.66,4.81-9.71,3-1.76-.8-3.38-1.91-5.08-2.86-46.27-25.68-92.85-26.45-139.74-1.71-1.56.82-3.07,1.76-4.58,2.68-.44.27-.81.66-.56.45l21.43,22c6.75-2.52,14-5.76,21.5-8A109,109,0,0,1,623.92,344.7C632.14,404,591,458.94,532,467.62c-60.82,8.94-117.24-33.46-124.82-94A106.62,106.62,0,0,1,417,312.69c1.48-3.05,1.38-5.13-.92-7.43-6.21-6.25-12.37-12.56-19.05-19.35A122.74,122.74,0,0,0,381.51,320,139.84,139.84,0,0,0,441,477.77a47.1,47.1,0,0,1,4.44,2.91c3.5,2.82,4.38,7.45,2,10.87-2.59,3.7-6.43,5.08-10.15,2.64-4.22-2.75-7.08-1.5-10.82.86-92.12,58.17-214,6.43-236.09-100.38-7.91-38.21-2-74.59,17.22-108.62,2-3.55,1.54-5.37-1.19-7.95-6.42-6.07-12.54-12.46-19.27-19.21-5.18,5.39-10.07,10.5-15,15.59-7.21,7.43-15.67,10.25-25.53,6.14-9.53-4-13.86-11.51-14-21.74-.07-4.42-.79-8.82-.87-13.24-.09-5,2.95-8.42,7.34-8.8,4.55-.39,8,2.33,8.62,7.39.59,4.73.21,9.62,1.11,14.27.5,2.57,2.27,5.89,4.38,6.86,1.77.81,5.5-.63,7.28-2.26,6.8-6.21,13.12-12.93,19.68-19.4,5.41-5.34,9.18-5.39,14.53-.1q14.91,14.78,29.7,29.69c5.13,5.17,5.38,7.69,1.32,14-17.54,27.18-24.32,57-21.75,89,4.62,57.29,47.16,107.54,103.52,122,36.76,9.42,71.9,4.81,105.12-13.72,1.66-.92,3.22-2,4-2.51L396,460.69c-11.66,3.43-22.93,7.87-34.61,10-54.73,9.85-108.65-24.27-123.41-77.46-17.55-63.28,22.12-126.12,87.13-138,57.35-10.48,115.17,29.92,125.51,87.37a109.6,109.6,0,0,1-8.83,67.73c-1.34,2.86-1.29,4.87.84,7,6.31,6.35,12.6,12.71,19.36,19.53a132.78,132.78,0,0,0,18.22-45.16c14.83-73.3-28.94-144.25-101.29-163.59-38.5-10.3-75-4.48-109.13,16.1-9.91,6-10.53,6-18.89-2.32-9.15-9.15-18.33-18.26-27.44-27.45-5.13-5.17-5.1-8.83.08-14.09,6.34-6.44,13-12.6,19-19.3,1.83-2,3.56-6,2.76-8-1.55-4.07-7.47-4.14-11-4.39q-9.37-.66-18.75-1.28Q196.77,166.09,178,165l-21.76-1.33c-1.24-.08-2.48-.17-3.72-.2-7.57-.19-9.62,2.2-9.08,9.93q1.14,16.15,1.91,32.34c.3,6.47-2.39,9.78-7.57,9.91s-8-3.1-8.4-9.37c-1-14-2.4-27.71-1.06-41.8A16.65,16.65,0,0,1,129,161ZM381.7,278.7c-33.34-16.64-82-10.43-111.4,26.42-28.26,35.44-26.65,86.81,3.29,120.06,32.2,35.76,81.74,37.74,111.53,20.66C352.2,390.9,351,335.38,381.7,278.7Zm95.56,165.1c29.63,15.86,78.11,12.19,108.83-23.24a93.09,93.09,0,0,0,0-122c-31.18-35.8-80.54-39.61-112.31-21.65C506.68,331.86,508.15,387.51,477.26,443.8ZM428.69,326.17c-8.39,23.92-8.09,46.41,1.42,68.7C438.71,372.22,438.2,349.74,428.69,326.17Z"/><path class="cls-1" d="M552.66,511.38V528c9.86,0,19.54-.08,29.21,0,8.91.1,15.54,4.35,20,11.89,4.78,8,4.68,41.29-.09,49.29-4.87,8.17-12.31,12-21.66,12.08-9,.12-18,0-27.67,0,0,8.68-.42,17,.09,25.2.89,14.43-9.14,28.41-27.2,27.37-7.59-.44-15.24.09-22.85-.16-13.63-.45-23.14-10.23-23.33-23.82-.12-9-.09-18.06-.15-27.1,0-.31-.28-.61-.69-1.49h-25.1c-17.18,0-27-9.86-27.07-27,0-7.27-.09-14.53,0-21.8.2-14.27,10.2-24.34,24.45-24.53,9.19-.13,18.4,0,28.05,0V511.39c-1.67-.47-3.83-1-5.92-1.69-4.37-1.48-6.91-5.43-6.14-9.33.87-4.36,4.67-7.1,9.56-6.29,4.51.74,9.25,1.41,13.27,3.39,2.49,1.22,5.26,4.71,5.42,7.34.62,10.24.35,20.54.22,30.81C495,541,491.89,544,486.27,544c-11.16.1-22.32,0-33.48,0-7.66,0-10.15,2.44-10.24,10.12-.08,6.73-.07,13.47,0,20.2.07,8.4,2.08,10.45,10.34,10.49,10.46.06,20.91,0,31.36,0,8.26.05,10.89,2.68,10.9,10.75,0,10.81,0,21.62,0,32.42,0,6.82,2.86,9.57,9.73,9.61q10.9.08,21.8,0c6.61,0,9.33-2.62,9.42-9.32.14-10.81,0-21.62.06-32.43.06-8.51,2.6-11,11.23-11,10.63,0,21.26,0,31.89,0,7.08-.06,9.48-2.56,9.52-9.64,0-7.44.07-14.88,0-22.32-.07-5.94-2.87-8.78-8.81-8.82-11.16-.08-22.32,0-33.48,0-7.45,0-10.23-2.71-10.31-10.23q-.16-13.56,0-27.11c.08-6.54,2.13-8.77,8.39-10.32C604,481.68,641,444.19,653,384.48c8.85-43.82-3.37-83.36-32.5-117.46-.46-.53-1-1-1.44-1.56-4.42-5-4.66-9.53-.7-13,3.71-3.27,8.69-2.4,12.91,2.35,29.46,33.16,42.86,72,40.07,116.15-4.08,64.7-50.86,121.68-113.41,139Z"/></svg>