<?xml version="1.0" encoding="UTF-8"?>
<svg id="Livello_1" xmlns="http://www.w3.org/2000/svg" version="1.1" viewBox="0 0 658.59 798.9">
  <!-- Generator: Adobe Illustrator 30.0.0, SVG Export Plug-In . SVG Version: 2.1.1 Build 123)  -->
  <defs>
    <style>
      .st0 {
        fill: #26475c;
      }
    </style>
  </defs>
  <g>
    <path class="st0" d="M127.98,795.23c-4.94-2.8-9.44-5.05-10.43-11.35-2.87-18.25,2.63-41.89-.9-60.7C65.44,658.08-5,600.92.28,509.02c2.59-45.01,11.32-103.35,18.23-148.55,2.8-18.29,4.88-32.33,21.84-42.77,20.89-12.85,47.58-6.78,60.95,13.63,11.95,18.25,5.81,37.82,5.58,57.4-.24,20.3.31,40.64.05,60.92,21.74-1.45,34.42,15.36,48.13,29.25,29.07,29.46,77.93,77.21,92.76,114.59,22.11,55.73,5.76,129.63,10.91,189-.02,7.43-5.72,9.03-10.55,12.74h-120.2ZM228.65,765.18v-126.96c0-23.67-20.07-56.95-35.29-74.4l-78.49-82.27c-9.36-5.65-21.8,2.75-19.67,13.55l41.64,74.15c5.06,9.96-1.09,22.72-12.65,23.25-8.57.39-12.91-6.96-16.95-13.17-11.05-16.98-24.97-42.28-34.14-60.52-8.65-17.22-12.04-26.93-3.54-45.67,2.15-4.75,6.64-8.18,7.39-13.64,2.97-21.56-.53-55.03-.13-78.26.18-10.35,6.91-34.64-7.37-39.08-9.13-2.84-17.45,1.45-19.24,10.97-4.86,91.8-45.9,177.04,13.42,259.28,10.22,14.17,83.86,95.82,83.86,102.45v50.33h81.14Z"/>
    <path class="st0" d="M530.66,795.23h-120.2c-4.66-3.79-9.34-4.38-10.43-11.36-.93-6.01-.96-37.79.58-42.81,2.81-9.17,17.22-12.12,24.16-5.97,1,.89,5.22,7.79,5.22,8.31v21.79h81.14v-50.33c0-6.63,73.64-88.28,83.86-102.45,21.27-29.48,32.92-63.74,33.31-100.38-8.12-48.65-10.4-98.39-18.22-147.04-1.97-12.23-3.07-28.35-20.91-22.82-14.39,4.46-7.55,30.03-7.37,40.58.38,22.49-3.26,57.61.02,78.11.79,4.94,5.09,7.78,7.25,12.28,9,18.72,4.57,29.63-4.07,46.66-7.73,15.25-27.96,54.19-37.82,65.85-13.36,15.81-32.76,1.24-25.39-16.38l41.64-74.15c2.41-12.19-12.96-20.37-22.32-11.71-35.25,41.55-78.09,73.33-102.39,123-4.79,9.79-5.8,22.79-21.4,20.5-14.55-2.14-11.85-17.79-8.4-27.77,13.89-40.22,64.21-89.38,94.65-120.22,13.71-13.89,26.39-30.7,48.13-29.25-.26-20.28.3-40.62.05-60.92-.26-21.98-7.15-41.25,8.19-60.8,23.87-30.44,70.07-18.26,78.22,19.47,11.01,50.98,9.86,109.89,20.19,161.61,4.74,91.95-64.79,149.05-116.36,214.16-3.54,18.81,1.97,42.45-.9,60.7-.99,6.3-5.49,8.56-10.43,11.35Z"/>
    <path class="st0" d="M411.61,664.8c22.61-3.26,22.85,33.13-.29,29.7-16.37-2.43-16.05-27.35.29-29.7Z"/>
  </g>
  <path class="st0" d="M302.37,421.73c-24.85,26.4-44.34,46.71-71.17,72.11l-1.45,1.37h-8.77l-79.07-78.55c-3.31-3.2-4.58-7.63-3.51-12.45l.3-1.37,109.85-115.11c-13.96-24.4-29.21-51.87-34.86-82.32-5.83-31.44-.14-56.78,8.54-89.13,6.96-25.97,17.74-62.34,30.82-78.3,22.17-27.04,62.91-40.14,99.05-31.86l.41.09c4.8,1.09,14.79,3.37,14.79,13.29,0,4.79-2.14,7.5-3.93,8.93-5.55,4.41-14.39,2.37-22.19.57-2.45-.57-4.76-1.1-6.1-1.19-24.1-1.64-50.88,9.26-63.69,25.94-11.56,15.06-8.24,30.91-1.98,48.38,1.79-.64,3.6-1.36,5.45-2.1,2.89-1.15,5.87-2.34,9.02-3.3,28.53-8.66,61.38-8.74,90.12-.23,3.38,1,6.58,2.27,9.67,3.49,1.9.75,3.74,1.48,5.57,2.13,6.82-18.86,9.93-34.93-4.41-51.11-.95-1.07-2.5-2.35-4.13-3.7-5.21-4.3-13.93-11.5-8.61-20.8,2.34-4.1,5.44-5.43,7.63-5.83,5.98-1.1,11.55,3.48,14.87,6.22,19.85,16.35,28.54,45.04,35.53,68.09l1.11,3.67c9.07,29.77,18.54,63.91,15.92,92.44-3.11,33.98-19.43,66.48-37.04,96.65l109.82,115.08.3,1.37c1.06,4.81-.2,9.25-3.56,12.5l-79.02,78.5h-8.82l-1.46-1.44c-56.86-55.77-116.09-116.69-164.95-184.78l-95.29,98.07,58.23,59,71.53-73.55.62-.35c5.32-3.06,11.7-1.98,15.52,2.62,3.87,4.67,3.78,11.19-.22,15.86l-10.44,11.09ZM248.29,112.45c-8.11,26.35-15.65,58.05-11.54,84.71,5.27,34.17,27.19,75.76,67.01,127.18,35.58,45.94,77.37,88.57,117.78,129.8,3.91,3.99,7.81,7.97,11.71,11.95l58.23-59c-8.45-8.6-17.04-17.22-25.39-25.6-14.85-14.9-30.21-30.3-44.97-45.81l-3.06-3.21c-15.72-16.51-31.98-33.59-46.91-50.53l-1.49-1.67c-11.44-12.77-10.94-12.58-11.46-14.95-1.1-4.96.41-9.67,4.02-12.59,3.61-2.92,8.52-3.39,13.12-1.29,2.15.98,2.04.4,10.7,10.45,2.03,2.36,4.66,5.41,6.8,7.78,12.57-22.95,25.06-46.71,29.04-72.52,3.16-20.49.51-34.99-3.89-54.78-2.13-9.58-4.88-19.24-7.6-28.62l-1.43,3.64c-16.17,35.22-39.47,66.2-64.08,97.31,1.02,1.31,2.39,2.82,3.66,4.23,5.53,6.12,13.9,15.38,6.96,23.98h0c-1.94,2.41-5.11,3.88-8.69,4.04-3.69.17-7.12-1.08-9.38-3.41l-.31-.35c-4.67-5.83-9.42-11.66-14.2-17.52-28.5-34.93-57.88-70.94-74.65-113.23ZM368.13,257.07h0ZM279.55,123.86c3.15,6.28,8.35,14.26,12.28,20.3l1.81,2.79c7.97,12.31,17.07,24.26,25.88,35.82,3.27,4.29,6.62,8.69,9.92,13.11,3.8-5.21,7.67-10.4,11.45-15.45,13.4-17.93,27.22-36.42,37.62-56.49-27.62-11.76-61.26-12.93-91.07-3-2.44.82-5.62,1.99-7.89,2.92Z"/>
</svg>