<svg id="Livello_1" data-name="Livello 1" xmlns="http://www.w3.org/2000/svg" viewBox="0 0 800 800"><defs><style>.cls-1{fill:#26475c;}</style></defs><path class="cls-1" d="M444,614.21c5.11-6,9.63-11.37,14.12-16.72,5.52-6.58,8.46-7.17,16.09-3.64,17.75,8.2,35.54,16.3,53.5,24.53,5.74-7.15,11.32-14,16.75-20.89,4.81-6.14,8.2-7.07,15.54-4q11.65,4.77,23.37,9.41c1.39.55,2.88.86,4.9,1.45-9-12.51-17.71-24.24-25.9-36.32-1.82-2.69-3.13-7-2.25-9.88s4.7-6.36,7.39-6.5c3.31-.17,7.86,2,10,4.66,9.51,11.88,18,24.61,27.56,36.42,8.33,10.25,17.6,19.75,26.6,29.45,4.62,5,5.54,9.31,2.38,13.88-3,4.35-7.71,5.25-13.9,2.75-19.47-7.85-39-15.55-58.38-23.63-3.94-1.64-6-.91-8.37,2.38-4.48,6.15-9.39,12-14.18,17.92-4.25,5.25-8.21,6.13-14.27,3.33l-54.67-25.25c-5.93,7-12,14.14-18,21.31-6.7,8-13.7,7.47-19.06-1.55s-11-18.19-16.06-27.48c-1.8-3.26-3.77-4.33-7.47-4.32-43.92.15-87.87-.68-131.77.38-26.85.66-46.69-10.57-62.75-30.46-21.2-26.25-33-57-40.78-89.37-10.61-44.41-13.46-89.51-9.75-134.94,1.56-19.12,4.81-38.1,7.32-57.14a36,36,0,0,1,1.07-4.68c1.65-6,6-8.82,11.62-7.66,5.31,1.09,8.41,5.9,7.43,11.89-1.52,9.27-3.38,18.5-4.76,27.79a437.67,437.67,0,0,0-2.49,107.34c3.17,32.24,9.22,63.75,21.85,93.72,7.75,18.4,17.28,35.74,32,49.68,6.64,6.29,14.15,11.13,23.23,13.16,15.45,3.44,27.92-2.67,38.81-12.76,16.57-15.34,26.62-35,34.72-55.6,11.05-28.14,16.62-57.55,19.52-87.57a440.09,440.09,0,0,0,1.05-78.1c-3.67-45.42-11.14-90-35.24-129.68A121.86,121.86,0,0,0,297,189.12c-18.19-15.79-38.59-15.06-56.24,1.38-7.82,7.28-13.85,16.5-20.61,24.91-1.37,1.7-2.21,3.85-3.64,5.5-3.44,4-7.72,5-12.37,2.32s-6.43-7.59-4-11.92c13.71-24.24,30.14-45.66,59.61-51.8a52.89,52.89,0,0,1,10.74-.91c46.73-.06,93.47.18,140.21-.16,17.19-.12,31.72,5.73,44.43,16.72,19.95,17.27,32,39.81,41.64,63.81,12.78,31.85,19.2,65.19,21.63,99.29,1.64,23,1.91,46.08,3.81,69,2.19,26.45,8.71,52,18.33,76.79.5,1.31,1.11,2.58,1.55,3.9,2.21,6.61.13,11.73-5.58,13.81-5.39,2-10.48-.37-12.63-6.82-5.24-15.72-10.71-31.42-14.83-47.46-7.43-28.92-7.53-58.65-8.75-88.29-1.82-43.86-8.35-87-28-126.86-6.3-12.8-14.67-24.84-23.59-36-10.36-13-24.53-19-41.71-18.69-30.26.55-60.54.15-90.79.15-.08.64-.31,1.17-.15,1.33,25.79,26.61,39.27,59.53,48.26,94.66,8,31.38,11.7,63.37,12.09,95.73.87,73.12,15.51,143,48.32,208.74C430.74,590.22,437.39,601.84,444,614.21ZM367.7,475.12c-9.83,39.17-23.33,76.41-52.27,106.8h89.24A519.69,519.69,0,0,1,367.7,475.12Z"/><path class="cls-1" d="M320.86,389.2c-1.25,30.73-4.65,61.16-15.62,90.12a86.31,86.31,0,0,1-13.57,23.78c-11.49,14-29.55,14.08-42,.83-11.32-12-16.93-27.2-20.81-42.76-10.5-42.05-13.37-84.7-6.49-127.59A448.74,448.74,0,0,1,234.79,280c2.26-7.83,7-15.39,12.21-21.81,12.65-15.66,32.06-15.33,44.94.13,11,13.26,16.49,29.19,20.51,45.6C318.18,327.28,321.63,364.37,320.86,389.2Zm-82.67,1.07c1.47,11.63,3.74,34.33,7.43,56.81,2.4,14.61,7.19,28.78,16.14,41,5.73,7.83,12.32,8.14,17.14-.22a120.28,120.28,0,0,0,12-27.89c13.51-49,13.11-98.55,3.25-148.14-2.82-14.18-7.37-27.89-16.14-39.72-5.64-7.59-12.06-7.76-17.43,0a67,67,0,0,0-8,16C242.36,317.56,238.85,348.1,238.19,390.27Z"/><path class="cls-1" d="M203,250.17a9.89,9.89,0,0,1-10.3,9.45,9.49,9.49,0,0,1-9.1-9.86c.09-5.66,4.34-9.58,10.12-9.32A9.55,9.55,0,0,1,203,250.17Z"/><path class="cls-1" d="M549.29,537.45a9.66,9.66,0,0,1-9.31-9.86c0-5.65,4.37-9.63,10.18-9.34a9.43,9.43,0,0,1,9.15,9.88A10.18,10.18,0,0,1,549.29,537.45Z"/></svg>