<svg id="Livello_1" data-name="Livello 1" xmlns="http://www.w3.org/2000/svg" viewBox="0 0 800 800"><defs><style>.cls-1{fill:#26475c;}</style></defs><path class="cls-1" d="M417,118.1a223.58,223.58,0,0,1,57.37,12.58A209.94,209.94,0,0,1,542.8,172q4.16,3.74,8.13,7.66,49.67,49.11,61.25,118.54A211.41,211.41,0,0,1,602,406.32c-14.82,41-40.13,74.29-75.19,100.08a208.66,208.66,0,0,1-98.31,39.45c-4.18.54-3.78,3-3.78,5.78q0,58.67,0,117.31c0,10.37-2.14,12.48-12.59,12.49H389.05c-12.55,0-14-1.43-14-13.77,0-38.18-.09-76.36.1-114.55,0-4.88-.94-6.77-6.31-7.57-49.21-7.25-91.24-29-125.35-65.08Q196.32,430.53,186.78,362c-6.34-46,1.51-89.5,23.19-130.34C231,192,261.86,161.91,301.79,141.23c26.56-13.75,57-22.39,86.86-23.71A220.27,220.27,0,0,1,417,118.1Zm8,411.25c102.39-13,182.8-105.51,172.36-215.45C587.12,206.06,492.69,124.37,380,135.32,274.65,145.56,191.68,238.45,202.51,351.91c10,104.55,96.56,170.35,172.18,176.93V490.55a6.27,6.27,0,0,0-1.83-.52c-14.26,1.09-14.89-4.65-14.4-15.71a11.34,11.34,0,0,1,0-1.65c.79-4.29-1.4-5.92-5.26-7.27C271.79,437,234.86,342,275.81,266.19a175,175,0,0,1,13-19.73c2.85-3.9,7-4.51,11.22-1.75,3.71,2.46,4.58,6.93,2.24,11.2a49.1,49.1,0,0,1-3.08,4.55C280.59,286.73,273,315.82,277,347.78c4.27,34.48,20.47,62.25,47.78,83.54a106.51,106.51,0,0,0,33.69,18c0-16.28-.2-31.83.12-47.38.1-5.07-1.48-8.15-5.47-11.46-21.46-17.73-30.95-41-26.92-68.35,6.38-43.35,45.43-70.33,88.55-62.53,32.8,5.93,59.13,37.07,59.59,70.38.36,25.56-9.47,46.21-29.47,62.11-1.45,1.15-3.38,3-3.4,4.47-.24,17.38-.15,34.77-.15,52.79,2.28-.8,4-1.32,5.64-2,54.35-21.47,86.83-82.33,74.49-139.58-17.44-80.9-105-122.66-178.74-85.07-6.65,3.39-12.64,8.09-19.06,12-6.09,3.68-13.75.12-13-6.4.34-3.08,3-6.72,5.63-8.62,41.16-29.46,85.83-35.67,133.36-18.49,61.83,22.36,100.76,89,89.32,153.59C530,405.14,502,441.57,454.83,461.87c-10.06,4.34-15.66,8.29-13.76,19.87.76,4.69-2.8,7.71-7.79,8.09-2.68.21-5.38.26-8.28.39ZM424.72,473V353.17c0-6.42.17-12.85,0-19.26-.57-18.26-16.29-30.07-32.57-24.61-10.56,3.55-16.91,12.83-16.92,25q0,67.13,0,134.26c0,1.41.14,2.82.23,4.45Zm-66-100.81c0-15.1-.44-28.82.09-42.49,1.13-28.79,33.42-47.41,59.06-34.26,15.25,7.81,23,20.48,23.38,37.53.25,12.75.05,25.5.05,38.83,19.08-18.3,24.35-53.74-.22-79.58-21.78-22.89-59.49-23.27-81.95-.4C334.82,316.6,338.4,351.74,358.71,372.23Zm33.42,118v174.3h15.69V490.24Z"/></svg>