<?xml version="1.0" encoding="utf-8"?>
<!-- Generator: Adobe Illustrator 28.2.0, SVG Export Plug-In . SVG Version: 6.00 Build 0)  -->
<svg version="1.1" id="Livello_1" xmlns="http://www.w3.org/2000/svg" xmlns:xlink="http://www.w3.org/1999/xlink" x="0px" y="0px"
	 viewBox="0 0 793.4 798.9" style="enable-background:new 0 0 793.4 798.9;" xml:space="preserve">
<style type="text/css">
	.st0{fill:#26475C;}
</style>
<g>
	<path class="st0" d="M641.4,619.6C641.4,619.6,641.4,619.6,641.4,619.6c-2.4,2.9-3.8,5.5-6,7.1c-12.3,9.4-13.8,22-13.6,36.5
		c0.8,41.1,0.3,82.2,0.3,123.3c0,3,0,6,0,9.6c0,0,0,0,0,0h-26.3c0,0,0,0,0,0V668.9c0,0,0,0,0,0c-83.9,64.9-167.2,64.7-251.5,0.7
		c0,0,0,0,0,0v126.5c0,0,0,0,0,0h-26.8c0,0,0,0,0,0c0-3.5,0-6.8,0-10c0-45.5,0.1-91-0.2-136.6c0-4.4-2.3-9.4-5-13
		c-5.8-8-12.5-15.4-19.1-22.9c-1.5-1.7-3.8-3.6-5.7-3.6c-16.5,0.2-33,0.9-49.5,1.2c-43.5,0.8-79.7,29.4-89.7,71.8
		c-1.8,7.7-2.4,15.8-2.5,23.8c-0.3,24.3-0.1,48.6-0.1,72.8c0,14.3-5.9,18.2-22.8,16.8c-33.7-2.8-67.5-2.2-101.2,0.1
		c-16.1,1.1-21.7-2.9-21.7-16.7c0-74.2-0.3-148.4,0.1-222.6c0.3-64.9,53.2-117.5,118.3-118c27.6-0.2,55.2,0,82.8,0
		c2.7,0,5.3,0,7.9,0c0,0,0,0,0,0c-11.9-36.4-13.8-73.6-16.6-110.5c-2.4-30.2-3.6-60.6-3.2-90.9c0.5-46.3,11.2-90.2,36.8-129.4
		c30.1-46,73.7-73.5,125.2-89.5c49.9-15.6,101.3-18.1,153-15.8c41.3,1.8,81.8,8,120.1,24.3c78.3,33.3,120.6,93.1,129,177.4
		c4.3,43.4,0,86.6-4.5,129.6c-3.2,30.6-9,61-13.6,91.5c-1.2,7.7-5.1,13-13.3,13.3c-7.8,0.3-11-5.1-13.8-11.9
		c-20.6-49.8-45.4-97.5-80.6-138.8c-31.9-37.4-74.6-57.6-120.3-72.3c-14.9-4.8-30.3-8.2-45.4-12.6c-6.9-2-13.2-1.9-20,0.7
		c-32.2,12.2-64.5,24.1-96.7,36.1c-33.1,12.3-57.9,34.6-77,63.8c-20.6,31.4-34.9,65.2-36.3,103.1c-0.4,9.3,2.9,18.9,5.2,28.1
		c0.4,1.7,4.4,3.6,6.8,3.7c11,0.4,22.1,0.1,33.1,0.2c23.7,0.2,40.7,17.1,40.8,40.7c0.2,30.1,0.3,60.1-0.2,90.2
		c-0.1,6.4-2.8,12.8-4.1,19.2c-0.4,2.1-1.3,5.2-0.2,6.5c23.3,29.6,48.3,57.8,81.9,76c57.7,31.3,128.1,23.3,177.5-20
		c14.9-13,28.2-27.9,42.2-42c2.1-2.1,4-4.4,6.2-6.8c0,0,0,0,0,0C628,608.6,634.4,613.8,641.4,619.6z M219.6,336.3
		c1.1-0.5,1.5-0.6,1.6-0.7c3-6.2,5.9-12.4,9-18.5c24.1-47.3,57.9-84.2,109-103.1c23.5-8.7,46.5-18.6,70.3-26.4
		c85.2-27.6,168.3-60.7,248.8-99.9c2.5-1.2,5-2.7,9.8-5.2c0,0,0,0,0,0c-15.4-9.3-28.4-18.2-42.3-25.3
		c-30.6-15.6-63.7-22.9-97.6-25.9c-56.6-5-113-4.3-168,12.5c-74.1,22.7-123.1,69.7-139.3,147.4c-8.4,40.2-5.2,80.7-3,121.1
		C218.2,320.2,219,328,219.6,336.3z M687.6,104.8c-63.1,27.4-125.2,54.4-187,81.3c0,0,0,0,0,0c2.4,0.8,5.8,2,9.2,3
		c31.2,9.7,61.1,22.1,88.7,39.6C640,255,668.4,292.9,692,334.9c8.1,14.4,15.7,28.9,24.6,45.4c0,0,0,0,0,0c0.8-5,1.5-7.8,1.7-10.7
		c3.2-34.6,6.9-69.1,9.2-103.8c2.1-30.6,1.5-61.2-6-91.2C715,148.4,704.2,124.3,687.6,104.8C687.6,104.8,687.6,104.8,687.6,104.8z
		 M224.8,465.6C224.8,465.6,224.8,465.6,224.8,465.6c-34.3,0-67.7,0-101.1,0c-3.3,0-6.6,0-9.9,0.2c-44,2.2-81.8,37.8-86.2,81.5
		c-0.3,2.6,1.5,6.3,3.5,8.1c9.6,8.3,19.6,16.1,29.6,23.9c21.6,17,32.1,39.2,32.1,66.7c-0.1,38.3,0,76.7,0,115v8.6c0,0,0,0,0,0h26.5
		c0,0,0,0,0,0c0-21.9-0.1-43.1,0-64.3c0.2-57.9,39-105.9,95.4-118c3.4-0.7,6.8-1.4,10.1-2c0,0,0,0,0,0V465.6z M27,586.7v183
		c0,0,0,0,0,0h39c0,0,0,0,0,0c0.1-1.9,0.3-3.2,0.3-4.6c0-40.5,0-81,0-121.4c0-3.3-0.4-6.6-0.9-9.8C61.8,611,44.3,599.7,27,586.7
		C27,586.7,27,586.7,27,586.7z M252.2,465.7v119.1c0,0,0,0,0,0c9.1,0,17.6,0.3,26-0.1c7.8-0.3,12.9-5.4,13-13.2
		c0.2-30.8,0.2-61.7,0-92.5c-0.1-7.9-5.2-12.9-13-13.2C269.8,465.4,261.3,465.7,252.2,465.7C252.2,465.7,252.2,465.7,252.2,465.7z"
		/>
	<path class="st0" d="M585,553.7c-1.6-6.2-3.1-12-4.6-17.8c-0.5-1.9,0.4-3.8,2.2-4.6c22.8-11.2,39.6-28.5,54.5-49.8
		c2.3-3.3-1.3-7.6-5-5.9l-0.2,0.1c-2,0.9-4.3,0.1-5.3-1.8c-2.7-5.4-5.4-10.8-8.3-16.4c-1-2-0.2-4.4,1.8-5.4
		c17.3-8.6,34-17.2,51-25.1c7.3-3.4,14.9,1,17.2,9.4c4.2,15.8,8,31.7,12.2,48.6c0.5,2.1-0.8,4.3-2.9,4.9c-5.8,1.5-11.6,3-17.7,4.5
		c-2.1,0.5-4.3-0.7-4.9-2.8c-0.4-1.6-0.9-3.2-1.3-4.9c-0.9-3.3-5.3-4-7.2-1.1c-19.6,30-41.8,56.2-76,70.9
		C588.2,557.4,585.6,556.1,585,553.7z"/>
	<path class="st0" d="M674.8,584.3c23.6-11.5,40.5-29.2,54.2-50.3c2-3.1-1.3-6.8-4.6-5.3l-0.2,0.1c-1.8,0.8-3.9,0.1-4.8-1.6
		c-2.8-5.6-5.6-11.2-8.6-17.1c-0.9-1.8-0.2-4,1.6-4.9c17.4-8.7,34.2-17.2,51.2-25.2c6.8-3.2,14.4,0.4,16.6,7.8
		c4.7,16.5,8.7,33.3,13,50.6c0.5,1.9-0.7,3.9-2.6,4.4c-6.3,1.6-12.2,3.1-18.5,4.6c-1.9,0.5-3.8-0.6-4.4-2.5c-0.6-2-1.1-4-1.7-6
		c-0.8-3-4.8-3.6-6.5-1c-19.7,30.4-42.2,57-76.8,71.7c-2,0.9-4.4-0.3-5-2.4c-1.7-6.3-3.3-12.3-5-18.5
		C672.4,586.9,673.2,585.1,674.8,584.3z"/>
	<path class="st0" d="M421.4,398.2c0.2,0.2,0.4,0.4,0.6,0.6c5.6,5.4,5.1,14.6-1.2,19.2c-36.5,27-87.8,28.8-127.1,0.3
		c-6.3-4.6-7-13.8-1.4-19.3l0.7-0.7c4.3-4.2,11-4.8,16-1.4c31.9,21.1,64.1,21.3,96.4-0.1C410.4,393.5,417.1,394,421.4,398.2z"/>
	<path class="st0" d="M633.7,398.7c0.1,0.1,0.1,0.1,0.2,0.2c5.5,5.7,4.6,14.9-1.7,19.6c-34.4,25.5-85.3,29.2-125.6,0.6
		c-6.6-4.7-7.3-14.2-1.5-19.9c0.1-0.1,0.1-0.1,0.2-0.2c4.3-4.3,11.1-5,16.2-1.7c31.1,20.5,63.2,20.8,95.6-0.5
		C622.3,393.4,629.3,394.2,633.7,398.7z"/>
	<path class="st0" d="M427.5,590c28.7,10.2,57.1,9.9,85.5,0.1c6.9-2.4,14.3,1.3,16.7,8.2c0,0.1,0.1,0.2,0.1,0.2
		c2.2,6.7-1.2,14-7.8,16.4c-34.6,12.3-68.8,12.4-103.4-0.1c-6.6-2.4-10-9.7-7.8-16.4c0-0.1,0.1-0.2,0.1-0.3
		C413,591.2,420.6,587.5,427.5,590z"/>
	<path class="st0" d="M186.1,535.6c-0.7,6.3-0.6,12.7-2.2,18.7c-4.2,15.6-19.4,25.5-35.2,23.7c-15.8-1.8-28.4-15-29.3-30.9
		c-0.4-8-0.4-16,0-23.9c0.9-17.3,15.3-30.9,32.6-31c17.6-0.2,32.3,13.4,33.4,31c0.3,4.1,0,8.3,0,12.4
		C185.6,535.6,185.9,535.6,186.1,535.6z M158.9,536.2C158.9,536.2,158.9,536.2,158.9,536.2c0-3.6,0.9-7.4-0.2-10.6
		c-1-2.7-4.2-4.6-6.5-6.9c-2.1,2.1-5.8,4.1-6.1,6.4c-0.8,6.7-0.8,13.7,0.1,20.4c0.3,2.2,4.2,5.6,6.4,5.6c2.2-0.1,5.1-3.4,6.1-6
		C159.7,542.6,158.9,539.2,158.9,536.2z"/>
</g>
</svg>
