<svg id="Livello_1" data-name="Livello 1" xmlns="http://www.w3.org/2000/svg" viewBox="0 0 800 800"><defs><style>.cls-1{fill:#26475c;}</style></defs><path class="cls-1" d="M225.51,586.83l-37.15,37.29a38.64,38.64,0,0,1-4,3.83c-4.11,3.07-8.5,3.46-12.14-.4s-3.44-8.29.17-12.07c6.78-7.09,13.79-14,20.73-20.88s13.92-13.8,19.87-19.69c-3.92-11.17-8.76-21.18-10.86-31.73-4.91-24.62,1.59-46.89,19-64.86,30.3-31.23,61.34-61.73,92.07-92.54,3.32-3.33,6.69-6.61,9.94-10,9.15-9.55,13.3-20.84,11.42-34.08-3.12-22,3.2-40.59,19.5-55.91,9.23-8.67,17.91-17.92,26.93-26.81,23.9-23.57,57-23.6,80.75,0q41.93,41.73,83.64,83.65c23.65,23.79,23.62,56.88.06,80.78-9.75,9.9-19.65,19.65-29.44,29.5C502,467.11,484.8,472.82,465.26,470c-15.52-2.21-28,2.55-38.75,13.38-32.16,32.26-64.52,64.34-96.59,96.69-16.42,16.57-35.84,25.08-59.29,24-14.69-.69-27.83-5.67-39.72-14.18-1.32-.95-2.63-1.93-4-2.87C226.8,586.92,226.55,587,225.51,586.83ZM367.4,297.65c-12.42,10.49-18,23.54-15.63,39.27,3.12,20.82-3.08,38.18-17.77,52.85q-15.83,15.81-31.63,31.64c-22.8,22.84-45.94,45.37-68.3,68.64a57,57,0,0,0,.07,79.64c22.71,23,58.09,23.09,81.68-.3q49.62-49.2,98.82-98.8c15.07-15.14,32.91-20.82,54.07-17.76,15.57,2.26,28.17-3.85,38-15.65ZM520.83,424.38c4.36-4.65,9-9.72,13.79-14.73,14.43-15.25,15.16-37.43.47-52.46q-43.47-44.51-88-88c-12.93-12.67-33.29-13.87-47.23-3.26-7.2,5.48-13.35,12.33-19.41,18Z"/><path class="cls-1" d="M516.19,170.77c55.28,3,102.65,44,114,97.89a178.37,178.37,0,0,1,3,21.76c.72,8.47-2.27,12.89-8.16,13.22-6.1.33-9.25-3.5-9.51-12.16-.73-24.54-9-46.29-24.76-64.93-20.41-24.12-46.57-37-78.26-38.28a26,26,0,0,1-5.46-.46c-4.44-1.17-7.15-4.13-6.94-8.81s3-7.59,7.62-8.17A69.15,69.15,0,0,1,516.19,170.77Z"/><path class="cls-1" d="M509.7,233.46c33.63,2.85,58.34,27.85,60.91,61.64.54,7.08-2.59,11.74-8.16,12.13-5.28.36-9.39-3.5-9.41-10.44-.07-22.94-20.26-45.7-46.45-46.05-6.29-.09-10.34-4.13-10.12-9.19C496.72,235.68,501.48,232.77,509.7,233.46Z"/><path class="cls-1" d="M247.35,532.6A25.16,25.16,0,0,1,272,507.36c13.48-.14,25,11.18,25.21,24.78.21,13.4-11.26,25.09-24.75,25.23A25.11,25.11,0,0,1,247.35,532.6Zm32,.16c-.11-4.77-2.48-7.43-7.11-7.53s-7.41,2.8-7.44,7.17c0,4.06,2.46,6.93,6.89,7.08C276.33,539.63,279,537.37,279.4,532.76Z"/></svg>