<svg id="Livello_1" data-name="Livello 1" xmlns="http://www.w3.org/2000/svg" viewBox="0 0 800 800"><defs><style>.cls-1{fill:#26475c;}</style></defs><path class="cls-1" d="M670.66,268.09A135,135,0,0,1,664,299.88c-11.18,32.08-30.66,57.41-62.47,71.48-17.46,7.72-36,9.35-54.31,4.13-37.33-10.65-51.33-54.88-26.15-85.68l-2.67-3.9c-17.89,10.29-28.93,25.18-33.21,45.07-2.94,13.63-.3,26.68,4.86,39.23,6.28,15.3,13.34,30.27,19.62,45.57,15.53,37.8,13.61,75.21-3,112.24-1.32,2.92-1.51,6.42-1.84,9.69C503.05,555.2,494.28,569.27,483,582a120.64,120.64,0,0,1-51.34,34.21c-3.75,1.29-4.89,3.16-4.75,6.89.24,6.52.12,13.05.05,19.58-.16,15.08-11.66,26.75-26.3,26.78s-26.25-11.67-26.49-26.66c-.11-6.53-.26-13.07.06-19.59.2-4.08-1.38-5.75-5.16-7.14-27.38-10.06-49.27-27-64.19-52.36A60.83,60.83,0,0,1,296,533.6a14.55,14.55,0,0,0-1.49-5.5c-17.65-38.67-18.4-77.54-1.52-116.65,6.42-14.86,13.34-29.51,19.21-44.58,13.89-35.71-4.63-65.86-26.54-79.17-.89-.54-1.83-1-2.93-1.59l-2.86,3.49c.57.78,1.05,1.46,1.55,2.13,24.31,32.25,7.11,78-32.59,85-28.15,5-53.55-2.53-75.1-21.53-25.61-22.58-39.84-51.24-43.33-85-4.49-43.58,7.94-81.64,39.5-112.51,21.62-21.14,47.9-30,78-25.07C288,139.22,306,184.7,281.7,217.33l-1.52,2.1c2.7,4.58,5.21,9.17,8.08,13.52.85,1.28,2.63,2.14,4.15,2.77,42.83,17.67,67.46,49.71,73.84,95.31,3,21.61-2.14,42.41-10.6,62.32-4.69,11-9.71,21.88-14.69,32.76-2.43,5.31-6.58,7.15-11,5.17-4.67-2.08-6-6.36-3.55-12.06,5.89-13.74,12.46-27.22,17.71-41.2,19.94-53-7.68-101.84-46-122.06-1.52-.81-3.13-1.46-4.76-2.21-1,5.58-2.09,10.82-2.72,16.12-.13,1.06,1.24,2.74,2.36,3.43,21.63,13.39,34.77,32.57,39.12,57.58,2.77,15.91-.23,31.25-6.36,46-6.43,15.42-13.53,30.57-19.87,46-11.12,27.14-11.8,54.77-2.9,82.68.32,1,.67,2,1,3,.17.46.41.89.63,1.36,4.22-3.57,8.51-6.91,12.39-10.68,1-.95,1-3.31.82-5-.95-10.83-2.41-21.62-3-32.46-.36-6.5,3.26-10,8.37-9.79s7.28,3.69,7.48,10.09c.29,9.24,1,18.48,1.6,28.87,22.93-9,45.36-11.69,68.09-11.67s45,2.52,66.78,11.17A72.43,72.43,0,0,0,470,459.12c-1.74-14.91-7.66-28.46-13.86-41.9-8.1-17.58-16.73-35-19.93-54.32a173.62,173.62,0,0,1-1.82-21c-.21-5.06,2.94-8.27,7.44-8.49a7.9,7.9,0,0,1,8.39,8.25c0,19.68,6.39,37.65,14.33,55.26,7.45,16.49,15.86,32.61,19.71,50.53a94.89,94.89,0,0,1-1,46c-.91,3.3-.6,5.31,2.54,7.39,3.76,2.49,6.89,5.92,10.73,9.32a125.5,125.5,0,0,0,7.38-50.21c-1.2-19.36-8.32-36.89-15.89-54.4-6.27-14.5-13.25-28.94-17.28-44.11-9-33.74,6.07-68.82,35.87-87.06,3.54-2.16,4.35-4,3.2-7.87s-1.18-8-1.8-12.7c-1.62.69-3.34,1.26-4.9,2.1-20.3,10.9-35,27-44.44,48-.65,1.44-1.21,2.93-1.94,4.33-2.24,4.24-6.57,5.91-10.63,4.17A7.58,7.58,0,0,1,442,302.2c3.49-7.67,7-15.43,11.63-22.44a112.44,112.44,0,0,1,54.75-44c2.15-.83,4-3,5.46-5,2.57-3.52,4.7-7.37,7.16-11.3C512.47,209,508,197,508.42,183.1c.71-24.36,19.31-46.52,43.42-50.35,38.55-6.12,68.52,9,91.9,38.8a128.35,128.35,0,0,1,19.52,35,134.06,134.06,0,0,1,5.43,19.29c1.36,6.71,2.93,13.77,2.92,20.61C671.59,253.72,671.34,260.94,670.66,268.09ZM567.57,361.83c4.38-.32,8.83-.29,13.15-1,18.73-3.24,33.57-13.32,45.79-27.36,36.49-41.9,39.06-105.55,5.89-150.14-17.27-23.22-39.53-37.32-69.74-35.69-15.72.85-27.91,7.52-34.72,21.93-6.45,13.64-4.44,26.83,4.82,38.68,7.58,9.7,7.73,13.44,0,23.15a36.93,36.93,0,0,0-.61,46c8.63,11.19,8.62,13.28-.12,24.76a36.71,36.71,0,0,0,7.15,51.74C547.61,360.26,557.18,362.33,567.57,361.83Zm-334.35-.26H238c16.16-.09,28.3-7.22,35.14-21.78s4-28.11-6.23-40.32c-6-7.14-5.77-12.83.48-20.27,12.15-14.47,12.46-33.44.79-48-7.63-9.52-7.43-13.21.28-23.14,8.54-11,10.79-23.3,5.61-36.31s-14.84-21-28.59-23.2c-24.21-3.88-45.31,3.07-63.23,19.64C137.73,209.31,132.88,282.9,171.63,330,187.56,349.34,207,362.11,233.22,361.57Zm157,268c0,3.88-.11,7.76,0,11.64.24,7.38,4.58,12.32,10.51,12.17,6.1-.15,10.05-4.9,10.16-12.43.1-6.88-.09-13.77.08-20.65.23-9.54,4.64-15,13.55-18.68,8.25-3.45,16.67-6.89,24.19-11.65,17.16-10.87,31.1-24.93,38.05-44.6,4.44-12.56,1.39-22.14-9-30.48-8.7-7-18.87-10.92-29.48-13.7-24.54-6.44-49.51-6.92-74.53-4-15.42,1.77-30.5,5.38-44.13,13.39-17.37,10.21-21.61,22.9-12.8,40.92,11.21,22.94,29.64,38.77,53.13,47.5C389.42,606.15,390.79,612.73,390.18,629.52Z"/></svg>