<?xml version="1.0" encoding="utf-8"?>
<!-- Generator: Adobe Illustrator 28.4.1, SVG Export Plug-In . SVG Version: 6.00 Build 0)  -->
<svg version="1.1" id="Livello_1" xmlns="http://www.w3.org/2000/svg" xmlns:xlink="http://www.w3.org/1999/xlink" x="0px" y="0px"
	 viewBox="0 0 705.7 798.9" style="enable-background:new 0 0 705.7 798.9;" xml:space="preserve">
<style type="text/css">
	.st0{fill:#26475C;}
</style>
<g>
	<g>
		<g>
			<path class="st0" d="M701.3,140.3c-3.3-16.3-15.1-28.3-31.4-31.4c-5.1-1-10.4-1.1-16.2-1.7c0-10.4-0.2-20.5,0.2-30.6
				c0.1-1.9,2.3-4.5,4.2-5.5c16.5-9,23.9-23.8,20-40.4c-4-16.9-17.8-27.2-36.7-27.2c-34.2-0.1-68.4,0-102.6,0
				c-18.9,0-33.3,10.4-37.2,26.6c-4,16.9,3.4,31.6,20.3,41c1.8,1.1,3.7,3.9,3.8,5.9c0.4,9.8,0.2,19.7,0.2,31c-4,0-7.2-0.2-10.4,0
				c-17.5,1.2-32.1,12.9-36.4,29c-4.5,16.8,1.7,34.2,16.7,43.1c5.8,3.4,7,7.3,7,13.4c0,9.2,0,18.4,0,27.6c0,7.5,0,15,0,22.5
				c0,48,0,96.1,0,144.2c0,7,0,13.9,0,20.9c0,57.3-0.1,114.7-0.2,172c0,12.9,4.2,22.4,14.3,30.3c10.3,8,19.9,17,30,25.3
				c5.9,4.8,8.5,10.6,8.3,18.1c-0.2,8.2-0.2,16.5,0.1,24.8c0.3,8.5,4.1,12,12.5,12.3c3.4,0.1,6.8,0,10.9,0v88.9
				c0,9.7,4.4,15.2,11.6,15c6.9-0.2,10.8-5.3,10.8-14.8v-88.8c3.3-0.1,5.4-0.3,7.5-0.3c13-0.2,16.1-3.3,16.2-16
				c0-6.6,0.4-13.4-0.1-20c-0.6-8.9,3-15.2,9.8-20.6c9.2-7.3,17.6-15.6,27-22.6c11.8-8.8,15.9-19.9,15.9-34.5
				c-0.4-128.2-0.2-256.5-0.3-384.7c0-5.8,1.1-9.4,6.7-12.7C697.4,172.2,704.3,155.4,701.3,140.3z M523.2,38.6
				c0.1-8,6-12.7,16.1-12.7h101.6c9.9,0,16,5.1,15.9,13s-6.2,12.7-16.2,12.7h-51.2c-16.9,0-33.7,0.1-50.4,0
				C529,51.5,523.1,46.6,523.2,38.6z M630.8,74.6v32.7h-82V74.6H630.8z M525.8,219.3v-32h128.1v32H525.8z M601.9,668.7h-23.7v-15.6
				h23.7V668.7z M595.7,544.7c0.9,7.5,6,10.3,12.9,10.3c14.9,0.1,29.8,0,45.8,0c0,10.9,0.3,21.1-0.2,31.4c-0.1,2.1-2.7,4.4-4.6,6.1
				c-13.3,12-26.7,23.8-40,35.7c-13.2,0-26.3-0.1-39.5-0.1c-13.4-11.9-26.9-23.7-40-35.8c-2.4-2.2-4.7-6.1-4.7-9.2
				c-0.1-59.2-0.1-118.3-0.1-177.5c0-7.4,0-14.8,0-22.2c0-45.9,0-91.8,0-137.8c0-0.3,0-0.6,0.1-0.9c0.1-0.6,0.2-1.2,0.4-2.3
				c27.9,0,55.6,0,83.3,0.1c14.9,0.1,29.8,0.2,44.7,0.3v44.8h-38.5c-2.8,0-5.6-0.1-8.4,0.1c-0.1,0-0.3,0-0.4,0
				c-6.8,0.5-11,4.2-11,11.2c0,3.4,1,6,2.7,7.8c1.9,2.1,4.8,3.2,8.4,3.3c4.3,0.1,8.6,0.1,12.9,0.2c8.5,0,17.1-0.1,25.6-0.1h8.9v18.4
				c-6,0-11.5-0.2-17,0c-8.1,0.3-12.6,4.6-12.4,11.5c0.2,6.6,4.4,10.5,12.3,10.8c5.5,0.2,11.1,0,17.1,0v18.5c-5.5,0-10.7-0.1-16,0
				c-8.9,0.1-13.5,4.1-13.4,11.3c0.1,7,4.8,10.9,13.7,11.1c5.1,0.1,10.1,0,15.7,0v18.2h-36.6c-3.5,0-7-0.2-10.4,0.1
				c-7.5,0.7-11.9,5.2-11.4,11.8c0.5,7.1,4.9,10.4,11.7,10.5c12.6,0.2,25.1,0.1,37.7,0.1h9.1V451c-5.7,0-11.3-0.1-16.8,0
				c-8.2,0.2-12.7,4.2-12.6,11.2c0.1,6.9,4.7,11,12.9,11.2c5.3,0.1,10.6,0,16.5,0v18.2c-5.6,0-11.1-0.2-16.6,0
				c-8.3,0.3-12.8,4.5-12.8,11.3c0,6.9,4.5,10.7,12.8,11h2.4c16.5,0.1,17.2,0.9,13.6,18.7c-15,0-30.1-0.1-45.3,0
				C599.8,532.7,594.9,537.5,595.7,544.7z M679.4,148.9c-0.7,8.3-7,14.9-15.8,15.2c-14.9,0.5-29.9,0.3-44.8,0.3H590
				c-22.9,0-45.9,0.1-68.8-0.2c-4.4-0.1-10.2-0.3-12.8-2.9c-3.9-3.9-7.2-10-7.7-15.4c-0.7-6.6,4-12.1,10.8-14.2
				c3.2-1,6.8-1.3,10.2-1.3h136c2.7,0,5.4,0,8,0.5C674.5,132.8,680.1,140.3,679.4,148.9z"/>
		</g>
	</g>
	<g>
		<path class="st0" d="M265.8,432.6c9.6-1.4,13.7,2.2,12.7,11.9c-1.2,11.4-2.9,22.8-4.1,34.3c-0.2,2,0.5,5.3,1.8,5.9
			c5.8,2.9,11.7,5.9,18,7.3c20.1,4.5,40.3,8.3,60.5,12.5c19.3,4,39,6.4,57.6,12.4c41.2,13.5,62.7,28.8,103.5,43.3
			c0.2,0.1,0.3,0.1,0.5,0.2c5.5,2.3,7.9,6.7,6.3,11.3c-1.8,5.1-6.3,7.2-12.2,5.1c-24.5-8.6-29.7-17.4-54.2-26.1
			c-17.5-6.2-34.6-13.7-52.6-18.1c-43.9-10.6-88.9-16-132.7-29.4c-1.7,13.4-3.6,27.3-5.1,41.3c-0.3,2.9,0.1,6.3,1.3,9
			c13.5,29.5,27.2,59,40.8,88.4c3,6.5,2,11.3-2.6,13.6c-4.9,2.4-9.8,0.1-12.7-6.2c-14.3-30.8-28.7-61.5-42.8-92.4
			c-1.3-2.9-1.8-6.5-1.5-9.6c1.7-15.7,3.6-31.4,5.8-47c0.5-3.7-0.6-5.1-3.9-6.5c-20.5-8.7-40.9-17.6-61.3-26.4
			c-1.3-0.6-2.7-1-4.5-1.6c-10.4,16.7-20.8,33.1-31,49.7c-0.8,1.2-0.5,3.2-0.4,4.8c2.3,21.4,4.6,42.8,7,64.2c0.6,5.2-0.5,9.4-4.5,13
			c-4.6,4.3-8.8,9-13.2,13.6c-11.7,12.2-23.5,24.4-35.3,36.5c-5.3,5.4-11.8,5-14.8-0.8c-2.5-4.6-0.3-8.1,2.8-11.4
			c14.6-15.3,29.1-30.8,43.8-46c2.4-2.5,3.3-4.8,2.9-8.3c-2.3-21.6-4.4-43.2-6.1-64.9c-0.3-3.5,1-7.7,2.9-10.8
			c6.3-10.5,13.2-20.7,19.8-30.9c1.9-2.9,3.7-5.8,5.5-8.6c-9.8-2.4-18.9-4.6-28.4-7c-0.8,10.7-4.5,20.4-13.3,27.5
			c-8.9,7.1-19.2,9.1-30.9,7c0.6,2.4,1,4.2,1.6,5.9c5.7,19.2,11.2,38.5,17.1,57.6c1.7,5.6,0.8,9.9-2.6,14.5
			c-15,20.1-29.8,40.3-44.7,60.5c-0.8,1-1.5,2.2-2.4,3c-3.4,3.1-7.5,3.8-11.2,1.1c-3.8-2.7-4.5-6.7-2.5-10.9
			c0.7-1.5,1.8-2.8,2.8-4.2c13.5-18.4,27-36.8,40.7-55.2c2.1-2.8,2.7-5.2,1.6-8.6c-4.4-14.2-8.5-28.4-12.7-42.7
			c-0.4-1.2-1-2.4-1.8-4.6c-3,11.1-5.8,21.1-8.3,31.2c-1.2,4.7-3.6,7.8-8,9.9c-12.7,6.2-25.2,12.7-37.7,19.1c-2.6,1.3-5.2,2.9-8,3.8
			c-4.3,1.4-8.2,0.7-10.4-3.8c-2.3-4.4-0.7-7.9,3-10.7c1.5-1.1,3.2-1.9,4.9-2.7c11.9-6.1,23.9-12,35.6-18.3c2.2-1.2,4.4-4,5.1-6.4
			c4.7-17,9.1-34.1,13.2-51.2c0.7-2.8,0.5-6.3-0.5-9c-7.8-21.2,4.2-43.3,26.3-48c1.2-0.3,2.4-0.7,3.3-1c0.4-25.3,13.1-44.5,29-61.9
			c16.1-17.7,35.6-29.5,58.4-32.1c2.9-9.7,4.8-18.9,8.2-27.3c12.4-30.4,30.8-57.1,50.6-83c27.3-35.7,57.1-69,93.1-96.2
			c12.9-9.8,26.5-18.5,42.6-22.4c15-3.7,27.7,0.8,35,12.8c6.9,11.3,9.4,23.8,8,36.9c-1.6,14.6-8.6,27.1-16.8,38.9
			c-12.7,18.3-28.2,34-44.8,48.7c-11.1,9.8-22.6,19.1-34.9,29.4c2.7-0.9,4.4-1.6,6.2-2.1c20.3-5.8,40.5-12.2,61-17.2
			c15.3-3.8,31.2-5.5,46.9-1.8c14.5,3.4,23,14.3,21.8,28c-1.2,14.5-6.7,27.3-19,35.7c-9.3,6.3-19.2,12.1-29.5,16.5
			c-30.9,12.9-63.6,18.6-96.5,23.5c-6.2,0.9-12.5,1.6-18.8,2.4c-6.1,0.8-12.1,1.5-19.7,2.5c2.8,1,4,1.5,5.2,1.9
			c42.5,13.9,84.5,29.3,124.2,50.2c19.1,10.1,37.5,21.2,52.7,37c6.9,7.2,13,15.1,14.5,25.2c3.1,21.7-8.2,38.5-32.9,30.4
			c-5.1-1.7-10-4-14.8-6.4c-44.5-22.3-89.4-43.7-136.1-60.7c-16.8-6.1-34.4-10.1-51.8-14.9c-1.7-0.5-4.8,0.1-5.7,1.4
			c-4.8,6.8-9,14-13.6,21.3C233.9,437.2,249.9,435,265.8,432.6z M204.8,328.2c54.4-33.3,107-69.1,153.6-113
			c14.9-14,28.7-29,38.7-47.2c6.6-12,8.2-24.5,4.3-37.6c-3.4-11.2-9.6-15-21.1-12.4c-11.5,2.6-21.2,8.7-30.5,15.6
			c-25.6,19.1-47.3,42.3-68.2,66.3C258,227,235.5,255.3,218.1,287c-6.3,11.4-10.6,24-15.6,36.1c-0.7,1.7-0.6,3.8-0.9,6.5
			C203.2,328.9,204.1,328.6,204.8,328.2z M206.9,424.6c14.5-18.5,20.5-40,20.9-63.3c0-1.6-1.6-4.1-3.1-4.9
			c-23.3-12.7-46.6-12.6-69,1.8c-19.4,12.4-32.5,30.1-40.3,51.7c-3.7,10.3-2.6,13.9,6,20.8c12.9,10.5,27.7,16.2,43.1,16.9
			C183.8,447.7,196.5,437.8,206.9,424.6z M305,333.6c31.1-4,62-9.3,91.6-20.1c10.2-3.7,19.9-8.9,29.4-14.3
			c8.8-5,13.9-13.2,15.9-23.2c1.6-8-0.6-13-8.6-13.7c-10.2-1-20.9-1.4-30.9,0.6c-52.6,10.8-101.6,31-147.1,59.5
			c-7.2,4.5-13.5,10.6-20.2,15.9c0.4,0.8,0.9,1.7,1.3,2.5C259.3,338.5,282.2,336.5,305,333.6z M412.8,431.2c-4-2.2-7.5-4.4-11.2-6.3
			c-10.7-5.5-21.5-10.7-32.2-16.3c-3.2-1.7-5.4-1.1-8,0.9c-9.1,6.7-11.5,15.9-10.1,26.6c0.2,1.3,1.1,3,2.1,3.5
			c14.7,6.9,29.4,13.6,44.9,20.7C399.6,448.4,404,439,412.8,431.2z M347.2,399.2c-3.8-1.5-6.9-2.8-10.1-4
			c-11.5-4.3-22.9-8.7-34.4-12.6c-2.2-0.8-5.6-0.5-7.6,0.7c-9.7,5.4-13.3,14.1-11.9,24.9c0.2,1.4,1.6,3.4,2.9,3.9
			c15.9,6.2,31.8,12.1,48.2,18.4C333.9,418.3,337.4,407.9,347.2,399.2z M415.5,464c0.1,1.7,1.3,4,2.6,4.8
			c8.6,4.7,17.2,9.5,26.1,13.5c8.1,3.6,11.4,1.6,11.1-7.2c-0.2-5-1.9-10.9-5-14.7c-6.3-7.7-13.9-14.2-20.8-20.9
			C419.1,445.3,414.7,453.3,415.5,464z M81.9,459.8c0,9.9,8.1,18,18.1,17.9c10,0,18-8.1,18-18.1c0-10-8.1-18-18-18
			C90.2,441.7,81.9,450.1,81.9,459.8z M241.3,399.8c7.3,1.6,15.3,3.3,23.6,5.1c0.5-11.6,3.8-22,13-30.8
			c-11.1-3.5-21.6-6.9-31.9-10.1C244.5,376.1,242.9,387.7,241.3,399.8z M257.2,476.9c1.2-8.7,2.3-17,3.6-25.9
			c-15.7,2.3-30.7,4.4-45.6,6.6c0,0.4,0,0.7,0,1.1C228.9,464.7,242.6,470.6,257.2,476.9z"/>
	</g>
</g>
</svg>
