<?xml version="1.0" encoding="utf-8"?>
<!-- Generator: Adobe Illustrator 28.4.1, SVG Export Plug-In . SVG Version: 6.00 Build 0)  -->
<svg version="1.1" id="Livello_1" xmlns="http://www.w3.org/2000/svg" xmlns:xlink="http://www.w3.org/1999/xlink" x="0px" y="0px"
	 viewBox="0 0 752.8 798.9" style="enable-background:new 0 0 752.8 798.9;" xml:space="preserve">
<style type="text/css">
	.st0{fill:#26475C;}
</style>
<g>
	<g>
		<path class="st0" d="M748,140.4c-3.3-16.3-15.1-28.3-31.4-31.4c-5.1-1-10.4-1.1-16.2-1.7c0-10.4-0.2-20.5,0.2-30.6
			c0.1-1.9,2.3-4.5,4.2-5.5c16.5-9,23.9-23.8,20-40.4c-4-16.9-17.8-27.2-36.7-27.2c-34.2-0.1-68.4,0-102.6,0
			c-18.9,0-33.3,10.4-37.2,26.6c-4,16.9,3.4,31.6,20.3,41c1.8,1.1,3.7,3.9,3.8,5.9c0.4,9.8,0.2,19.7,0.2,31c-4,0-7.2-0.2-10.4,0
			c-17.5,1.2-32.1,12.9-36.4,29c-4.5,16.8,1.7,34.2,16.7,43.1c5.8,3.4,7,7.3,7,13.4c0,9.2,0,18.4,0,27.6c0,7.5,0,15,0,22.5
			c0,48,0,96.1,0,144.2c0,7,0,13.9,0,20.9c0,57.3-0.1,114.7-0.2,172c0,12.9,4.2,22.4,14.3,30.3c10.3,8,19.9,17,30,25.3
			c5.9,4.8,8.5,10.6,8.3,18.1c-0.2,8.2-0.2,16.5,0.1,24.8c0.3,8.5,4.1,12,12.5,12.3c3.4,0.1,6.8,0,10.9,0v88.9
			c0,9.7,4.4,15.2,11.6,15c6.9-0.2,10.8-5.3,10.8-14.8v-88.8c3.3-0.1,5.4-0.3,7.5-0.3c13-0.2,16.1-3.3,16.2-16
			c0-6.6,0.4-13.4-0.1-20c-0.6-8.9,3-15.2,9.8-20.6c9.2-7.3,17.6-15.6,27-22.6c11.8-8.8,15.9-19.9,15.9-34.5
			c-0.4-128.2-0.2-256.5-0.3-384.7c0-5.8,1.1-9.4,6.7-12.7C744.1,172.3,751,155.5,748,140.4z M569.9,38.7c0.1-8,6-12.7,16.1-12.7
			h101.6c9.9,0,16,5.1,15.9,13c-0.1,7.9-6.2,12.7-16.2,12.7h-51.2c-16.9,0-33.7,0.1-50.4,0C575.7,51.6,569.8,46.7,569.9,38.7z
			 M677.5,74.7v32.7h-82V74.7H677.5z M572.5,219.4v-32h128.1v32H572.5z M648.6,668.8h-23.7v-15.6h23.7V668.8z M642.4,544.8
			c0.9,7.5,6,10.3,12.9,10.3c14.9,0.1,29.8,0,45.8,0c0,10.9,0.3,21.1-0.2,31.4c-0.1,2.1-2.7,4.4-4.6,6.1c-13.3,12-26.7,23.8-40,35.7
			c-13.2,0-26.3-0.1-39.5-0.1c-13.4-11.9-26.9-23.7-40-35.8c-2.4-2.2-4.7-6.1-4.7-9.2C572,524,572,464.9,572,405.7
			c0-7.4,0-14.8,0-22.2c0-45.9,0-91.8,0-137.8c0-0.3,0-0.6,0.1-0.9c0.1-0.6,0.2-1.2,0.4-2.3c27.9,0,55.6,0,83.3,0.1
			c14.9,0.1,29.8,0.2,44.7,0.3v44.8H662c-2.8,0-5.6-0.1-8.4,0.1c-0.1,0-0.3,0-0.4,0c-6.8,0.5-11,4.2-11,11.2c0,3.4,1,6,2.7,7.8
			c1.9,2.1,4.8,3.2,8.4,3.3c4.3,0.1,8.6,0.1,12.9,0.2c8.5,0,17.1-0.1,25.6-0.1h8.9v18.4c-6,0-11.5-0.2-17,0
			c-8.1,0.3-12.6,4.6-12.4,11.5c0.2,6.6,4.4,10.5,12.3,10.8c5.5,0.2,11.1,0,17.1,0v18.5c-5.5,0-10.7-0.1-16,0
			c-8.9,0.1-13.5,4.1-13.4,11.3c0.1,7,4.8,10.9,13.7,11.1c5.1,0.1,10.1,0,15.7,0v18.2h-36.6c-3.5,0-7-0.2-10.4,0.1
			c-7.5,0.7-11.9,5.2-11.4,11.8c0.5,7.1,4.9,10.4,11.7,10.5c12.6,0.2,25.1,0.1,37.7,0.1h9.1v18.6c-5.7,0-11.3-0.1-16.8,0
			c-8.2,0.2-12.7,4.2-12.6,11.2c0.1,6.9,4.7,11,12.9,11.2c5.3,0.1,10.6,0,16.5,0v18.2c-5.6,0-11.1-0.2-16.6,0
			c-8.3,0.3-12.8,4.5-12.8,11.3c0,6.9,4.5,10.7,12.8,11h2.4c16.5,0.1,17.2,0.9,13.6,18.7c-15,0-30.1-0.1-45.3,0
			C646.5,532.8,641.6,537.6,642.4,544.8z M726.1,149c-0.7,8.3-7,14.9-15.8,15.2c-14.9,0.5-29.9,0.3-44.8,0.3h-28.8
			c-22.9,0-45.9,0.1-68.8-0.2c-4.4-0.1-10.2-0.3-12.8-2.9c-3.9-3.9-7.2-10-7.7-15.4c-0.7-6.6,4-12.1,10.8-14.2
			c3.2-1,6.8-1.3,10.2-1.3h136c2.7,0,5.4,0,8,0.5C721.2,132.9,726.8,140.4,726.1,149z"/>
	</g>
	<g>
		<path class="st0" d="M655.6,242.5c-17.9-9.4-37.5-13.2-57.2-16.1c-16.3-2.4-32.6-4.1-48.9-5.3c-33.1-2.4-66.2-2.7-99.4-2.8
			c-15.5,0-30.1,3.6-42.9,12.7c-3.1,2.1-5,1.9-8.4,0.3c-14.6-7-29.1-14.8-44.5-19.5c-11.2-3.4-22.6-6-34.1-8
			c-15.3-2.6-30.8-4.1-46.2-5.1c-7.8-0.5-15.5-0.9-23.3-1.2c-6-0.2-12-0.6-17.9-0.8c-1.8,0-3.6,0-5.3,0c-9.6,0.1-19.1,0.5-28.7,1.1
			c-10.8,0.6-21.6,1.4-32.2,3.1c-48.3,8-88.8,30.9-118.5,70.2c-44.7,59-52.3,125.5-36.3,196c5,21.8,14.8,41.7,26,60.9
			c6.9,11.8,10.5,24,10.2,38c-0.3,13.8,1,27.6,2.6,41.3c2,17.1,5.2,34.1,15.1,48.8c15.3,22.8,43.8,24.3,61.1,3.2
			c4-4.9,7.7-10.1,11-15.5c8.5-13.6,17.1-27.2,25.1-41.2c14.8-25.8,35.9-42.8,64.8-51c25.2-7.1,50.2-15.1,74.9-23.9
			c25.7-9.2,48.8-22.8,64.7-46.1c1.2-1.8,4.4-2.6,6.8-3c18-3,36.3-4.7,54-9c22.6-5.6,40-20.6,56.8-36c14.1-12.9,30.2-21.4,49.4-23.5
			c5.1-0.5,10.2-1,15.3-1.4c2.3-0.2,4.7-0.4,7-0.5c5.3-0.4,10.5-1.1,15.5-2.4c0-7.4,0-14.8,0-22.2c-7.2,2.6-14.7,3.8-22.6,4.3
			c-1.4,0.1-2.8,0.1-4.1,0.2c-29,1.1-54.3,10.8-75.5,30.8c-16.6,15.7-34.7,29.2-57.8,33.8c-11,2.2-22.2,3.6-32.9,5.2
			c1.8-28.2,3.6-55,5-81.9c0.6-10.6-3.2-15.9-10.2-16.2c-7.2-0.2-10.4,5.2-11.1,16.2c-1.3,23.2-2.9,46.5-5,69.7
			c-1.7,19.7-13.1,33.8-28.6,44.9c-19.5,13.9-42,20.9-64.4,28c-19.4,6.1-38.8,12.1-58.1,18.5c-21.1,7-38.2,19.8-50.5,38.3
			c-11.2,17-21.8,34.4-32.8,51.5c-4.3,6.7-8.6,13.3-13.5,19.5c-7.5,9.3-18.9,9.4-25.4-0.7c-4.7-7.2-8.5-15.8-9.9-24.2
			c-2.9-18-5.2-36.4-5.4-54.6c-0.1-17.8-4.1-33.9-13-49.1c-10.6-18-19.9-36.7-24.4-57.2C18.6,400.8,23.6,343.5,59,291.6
			c29.4-43,71.4-66.8,122.5-71.8c55.9-5.5,111.7-2.1,166.5,11.7c14.1,3.5,27.5,8.9,40,17.8c-1,1.9-2,3.5-2.8,5.3
			c-3.6,8.5-7.6,16.9-10.7,25.6c-2.1,5.9,1.5,11.6,7.2,13.3c5.3,1.5,10.5-1.5,12.8-7.3c2.5-6.3,4.3-13,7.7-18.8
			c10.3-18.1,25.9-28.4,47.2-27.7c33.4,1.2,66.8,2.3,100.1,4c7.5,0.4,15.1,0.8,22.6,1.2c0.1-0.6,0.2-1.2,0.4-2.3
			c27.9,0,55.6,0,83.3,0.1C655.8,242.6,655.7,242.6,655.6,242.5z M662,287.8c-2.8,0-5.6-0.1-8.4,0.1l-0.2,0.6
			c-2.3,6.3-5.2,12.5-8.5,18.5c1.9,2.1,4.8,3.2,8.4,3.3c4.3,0.1,8.6,0.1,12.9,0.2c1.3-2.3,2.6-4.6,3.9-6.9c2.7-4.7,4-10.3,5.4-15.7
			H662z"/>
		<path class="st0" d="M58.5,398.7c1-22.9,5.3-43.6,13.8-63.3c3.1-7.2,8.5-9.9,14.4-7.3c6,2.6,8.1,8.2,5.1,15.3
			c-7.8,18.6-12.1,37.8-12.1,58c0,7.4-4.8,12.3-10.9,12.1c-6-0.2-10-5.1-10.2-12.1C58.5,400,58.5,398.6,58.5,398.7z"/>
		<path class="st0" d="M155.7,274.6c0.2,1.2-0.2,2.5-0.9,3.5c-1.3,1.8-3.1,4.3-5.5,6c-6.1,4.2-12.8,7.6-19.2,11.4
			c-5.8,3.4-11.6,2.6-15-2.2c-3.5-4.9-2.7-11,2.9-14.8c7.1-4.7,14.6-9.2,22.2-12.9C147.3,262.1,154.6,266.1,155.7,274.6z"/>
	</g>
</g>
</svg>
