<?xml version="1.0" encoding="utf-8"?>
<!-- Generator: Adobe Illustrator 28.2.0, SVG Export Plug-In . SVG Version: 6.00 Build 0)  -->
<svg version="1.1" id="Livello_1" xmlns="http://www.w3.org/2000/svg" xmlns:xlink="http://www.w3.org/1999/xlink" x="0px" y="0px"
	 viewBox="0 0 793.4 798.9" style="enable-background:new 0 0 793.4 798.9;" xml:space="preserve">
<style type="text/css">
	.st0{fill:#26475C;}
</style>
<g>
	<path class="st0" d="M35,798.3c-2.1-0.8-4.2-1.7-6.4-2.5C11.8,789.8,1.2,775,1,756.4c-0.2-30.1-0.1-60.3,0-90.4
		c0-9.2,4.5-14.2,12-13.9c7.2,0.3,11.2,5.1,11.3,13.8c0.1,5.4,0,10.8,0,16.7c60.3,0,119.8,0,179.8,0c0-35.8,0-71.3,0-107.4
		c-59.8,0-119.3,0-179.9,0c0,8.8,0.1,17.3,0,25.8c-0.1,6.9-4,10.5-10.7,10.9c-6.7,0.5-12.3-3.6-12.3-10.2c-0.1-24.7-0.1-49.3,0.7-74
		c0.4-11.4,5.9-21.4,13.2-30.2c15.6-18.5,31-37.1,47-55.2c5.2-5.9,7.8-11.8,7-19.6c-0.5-4.8-0.1-9.8-0.1-15.7c-4.7,0-8.8,0.1-12.9,0
		c-7.5-0.3-11.9-4.2-12-11.4c-0.3-14.3-0.3-28.6,0-42.9c0.2-8.4,4.7-11.8,14.9-11.8c32.7-0.1,65.5,0,98.2,0c4.9,0,9.9-0.1,14.8,0.1
		c8.8,0.4,12.8,4.3,12.9,13.1c0.2,13.2,0.2,26.5,0,39.8c-0.1,9.2-4.2,13.1-13.4,13.3c-3.6,0.1-7.1,0-11.5,0c0,8.8-0.1,16.7,0.1,24.7
		c0,1.6,1,3.5,2.1,4.8c17.9,21.2,35.9,42.4,54,63.8c17.9-21.2,35.7-42.1,53.4-63.1c1.2-1.5,2.4-3.6,2.5-5.4c0.3-8,0.1-16,0.1-24.7
		c-4.6,0-8.4,0.1-12.3,0c-7.8-0.3-12.4-4.3-12.6-11.8c-0.3-14-0.4-28.1,0.1-42.1c0.1-3.6,2.4-7.2,4-11.5
		c-18-20.7-36.9-41.8-54.9-63.6c-4.7-5.7-8.4-13.3-9.9-20.6c-2.5-11.9,2-22.5,11-30.9c2.7-2.5,5.4-4.9,8.8-7.9
		c-8-9.3-16-18.5-23.9-27.6c-16.9-19.6-16.4-37,2.1-56.3c-2.2-2.6-4.4-5.3-6.7-8c-30.5-35.1-61-70.2-91.5-105.3
		c-5.8-6.7-6.1-12.2-1.3-17.2C90-1,96.5-1.3,101.7,3.5c2.3,2.1,4.2,4.6,6.3,6.9c29.7,34.1,59.3,68.3,89,102.4
		c1.7,1.9,3.5,3.8,4.7,5.1c7.1-3,13.4-7.1,20.2-8.4c13.1-2.6,24.6,1.5,33.6,11.7c8.9,10.1,17.7,20.3,25.8,29.5
		c8.6-4.8,16-10.7,24.3-13.2c14.5-4.3,26.9,0.9,36.8,12.4c41,47.3,82.1,94.5,123.2,141.8c49.1,56.5,98.1,113,147.2,169.5
		c1,1.2,2.1,2.3,3.8,4.1c6.9-5.9,13.6-11.9,20.5-17.7c12.8-10.8,26.3-12.3,39.6-4.8c13.9,7.9,22.6,23.7,19.5,38.4
		c-1.4,6.7-5.4,13.5-9.8,18.8c-5.6,6.7-12.8,12.1-19.6,17.7c-5.8,4.8-12.1,4.4-16.6-0.7c-4.9-5.5-4.4-11.6,1.6-17.1
		c4.8-4.4,9.8-8.6,14.6-12.9c8.3-7.4,9.5-14.2,3.6-20.7c-5.8-6.4-11.9-6.2-20.3,1.2c-57.1,50-114.1,100-171.2,150
		c-3.5,3.1-7.1,6.1-10.6,9.2c-8.1,7.2-9.2,13.4-3.6,20c5.6,6.6,12.2,6.5,20.2-0.5c32.1-28,64.1-56.1,96.1-84.2
		c8.2-7.2,16.3-14.5,24.6-21.6c6.5-5.5,12.2-5.5,17.1-0.1c5.1,5.6,4.6,11.7-1.8,17.6c-6.5,6-13.2,11.7-20.7,18.4
		c31.9,36.7,63.6,73.2,95.6,110.1c12.8-11.2,24.9-22.3,37.5-32.6c19.9-16.4,49.5-8.2,57.4,15.8c5.3,16.1,0.5,29.6-12,40.6
		c-16.7,14.7-33.5,29.4-50.3,44c-15.7,13.7-30.8,27.8-48.3,39.2c-2.7,1.7-5.4,3.4-8.5,4.3c-15.8,4.6-35.4-10.9-40.5-25.2
		c-5.6-15.6,2.3-31.4,14.2-41.7c10.9-9.5,21.7-19.1,33-29c-32.2-37-63.9-73.5-95.8-110.1c-28.2,24.7-55.3,48.9-83.1,72.4
		c-5.9,5-13.6,9.1-21.1,10.4c-15.1,2.7-30.4-7.4-37.3-22.5c-6.6-14.3-3.8-28.3,8.2-39.7c6.9-6.5,14.1-12.7,21.4-19.2
		c-12.9-14.8-25.3-29-39.1-44.9c0,5.1,0,7.8,0,10.5c0,64.4,0,128.8-0.1,193.2c0,4.9-0.1,9.9-1.3,14.7c-4.2,17.6-16.7,26.6-33.2,31.4
		c-52.5,0-105,0-157.5,0c-7.8-3.6-15.7-7.2-23.2-10.7c-6.9,3.4-14.4,7-22,10.7C141.1,798.3,88,798.3,35,798.3z M388.2,238.5
		c-9.6-11-18.5-21.3-27.7-31.9c-2.5,2.1-4.5,3.8-6.5,5.4c-2.2,1.9-4.2,3.8-6.5,5.6c-6.6,5.5-13,5.4-17.8-0.1
		c-4.9-5.7-4.1-11.6,2.5-17.5c4.1-3.7,8.3-7.5,12.6-11.4c-6.6-7.7-12.6-14.6-18.6-21.4c-8.9-10.1-13.9-10.4-24.1-1.5
		c-28.5,25-57,50-85.5,75c-9.4,8.2-9.9,13.7-1.8,23c19.9,23,40.1,45.7,59.6,69c5.2,6.2,10.6,8.4,18.5,8.3c27-0.5,54-0.3,81-0.1
		c9.3,0,14.2,3.8,14.4,11.7c0.4,14.3,0.4,28.6,0,42.9c-0.2,7.6-5,11.4-12.9,11.6c-3.8,0.1-7.6,0-12,0c0,7.7-0.2,14.4,0.1,21.1
		c0.1,2.7,0.3,6.1,1.8,8c15.6,18.7,31.5,37.1,47.8,56.1c37.2-32.6,73.8-64.7,110.9-97.2c-11.6-13.4-22.8-26.3-34.3-39.5
		c-10.2,9-20,17.5-29.7,26c-8.9,7.8-14.5,8.5-20.1,2.4c-5.5-6-4.1-12.2,4.3-19.7c9.9-8.8,19.8-17.5,30.1-26.5
		c-9.5-10.8-18.6-21.3-27.9-31.9c-4.8,4.2-8.7,7.7-12.6,11c-6.8,5.7-12.8,5.7-17.8,0.2c-5.1-5.6-4.4-11.6,2.2-17.5
		c4.2-3.8,8.4-7.5,12.8-11.5c-9.5-10.9-18.5-21.2-27.8-31.9c-10.9,9.6-21.2,18.7-31.6,27.7c-7.1,6.1-13.3,6.3-18.4,0.6
		c-5.2-5.9-4.4-11.7,2.9-18C366.8,257.3,377.1,248.2,388.2,238.5z M228.6,575c0,36.2,0,71.9,0,107.6c59.9,0,119.2,0,178.7,0
		c0-36.1,0-71.8,0-107.6C347.4,575,288.1,575,228.6,575z M204.3,550.6c1.3-15.8-0.5-29.6-11.1-41.5c-15.8-17.9-30.9-36.5-46.6-54.5
		c-2-2.3-6-4.1-9.1-4.2c-15.3-0.4-30.7-0.4-46,0c-3.1,0.1-7.1,1.8-9.2,4.1c-16.2,18.6-32,37.6-48,56.3c-10,11.6-11,25.1-9.7,39.8
		C84.7,550.6,144.1,550.6,204.3,550.6z M228.4,550.5c60.2,0,119.5,0,178.7,0c2.5-17.5-0.2-29.1-9.4-39.9c-16-18.8-32-37.5-48.3-56
		c-2-2.3-6-4-9.1-4.1c-14.8-0.4-29.6,0-44.4-0.3c-5-0.1-8.1,1.7-11.1,5.4c-14.9,17.9-29.9,35.9-45.4,53.4
		C228.6,521,226.8,534.9,228.4,550.5z M204.4,707.1c-60.6,0-120.1,0-180,0c0,16-0.1,31.3,0,46.6c0.1,14.2,6.9,21,21,21.1
		c21,0.1,42.1,0,63.1,0c25.4,0,50.9,0.1,76.3,0c11.2-0.1,18.9-5.9,19.3-16.2C204.9,741.6,204.4,724.5,204.4,707.1z M228.1,706.8
		c0,16.5-0.1,32.3,0,48.1c0.1,13.3,6.8,19.9,20.4,20c10.9,0.1,21.8,0,32.7,0c35.3,0,70.7,0,106,0c11.3,0,19.7-5.3,20.1-14.3
		c0.8-17.8,0.2-35.6,0.2-53.8C347.7,706.8,288.5,706.8,228.1,706.8z M769.5,681.1c0-3.6-2.4-7.3-8.6-10.8c-4.9-3.5-9.9-1.1-14.1,2.6
		c-29.9,26.2-59.8,52.4-89.6,78.6c-6.3,5.5-6.6,12.7-1.4,18.5c5.2,5.8,11.5,6.5,17.9,1c17.4-15.1,34.7-30.3,52-45.5
		c8.5-7.5,17.1-15,25.5-22.5C758,697,769.5,689.2,769.5,681.1z M534.7,537.2c-11-12.6-21.4-24.5-32-36.7
		c-16,14.1-31.2,27.4-46.5,40.9c10.8,12.4,21.2,24.3,31.9,36.7C503.6,564.5,518.7,551.2,534.7,537.2z M567,444.2
		c-15.7,13.7-31,27.1-46.7,40.9c11,12.6,21.3,24.4,32,36.7c15.8-13.9,31-27.2,46.6-40.9C588.1,468.5,577.8,456.6,567,444.2z
		 M264.7,167.6c-9.5-11-18.2-21.3-27.3-31.3c-5-5.5-11.6-5.8-17.3-1.1c-7.4,6.1-14.7,12.4-21.7,18.9c-5.7,5.3-6.3,11.6-1.6,17.3
		c8.8,10.6,17.9,20.8,27.3,31.6C237.8,191.2,251,179.6,264.7,167.6z M428.8,509.9c4.2,4.9,8,9.2,11.9,13.8
		c37.4-32.8,74-64.9,110.9-97.3c-4.3-4.9-8.1-9.1-12.1-13.6C502.6,445.3,466,477.4,428.8,509.9z M364.9,364.9c-31.6,0-62.7,0-93.7,0
		c0,6.6,0,12.4,0,18.2c31.5,0,62.5,0,93.7,0C364.9,376.8,364.9,371,364.9,364.9z M67.7,383.2c31.3,0,62.3,0,93.2,0
		c0-6.5,0-12.5,0-18.4c-31.4,0-62.1,0-93.2,0C67.7,371.1,67.7,376.9,67.7,383.2z M296.1,407.4c0,6.5,0,12.5,0,18.8
		c14.9,0,29.2,0,43.5,0c0-6.7,0-12.8,0-18.8C324.8,407.4,310.7,407.4,296.1,407.4z M92.8,426.2c14.7,0,29,0,43.1,0
		c0-6.7,0-12.8,0-18.6c-14.8,0-29,0-43.1,0C92.8,414.1,92.8,420,92.8,426.2z"/>
</g>
</svg>
