<?xml version="1.0" encoding="utf-8"?>
<!-- Generator: Adobe Illustrator 28.4.1, SVG Export Plug-In . SVG Version: 6.00 Build 0)  -->
<svg version="1.1" id="Livello_1" xmlns="http://www.w3.org/2000/svg" xmlns:xlink="http://www.w3.org/1999/xlink" x="0px" y="0px"
	 viewBox="0 0 567.9 798.9" style="enable-background:new 0 0 567.9 798.9;" xml:space="preserve">
<style type="text/css">
	.st0{fill:#26475C;}
</style>
<g>
	<path class="st0" d="M391.7,107.9c0-11.3,0.2-21.2-0.2-31c-0.1-2-2-4.8-3.8-5.9c-16.9-9.4-24.3-24.1-20.3-41
		c3.9-16.2,18.3-26.6,37.2-26.6c34.2,0,68.4-0.1,102.6,0c18.9,0,32.7,10.3,36.7,27.2c3.9,16.6-3.5,31.4-20,40.4
		c-1.9,1-4.1,3.6-4.2,5.5c-0.4,10.1-0.2,20.2-0.2,30.6c5.8,0.6,11.1,0.7,16.2,1.7c16.3,3.1,28.1,15.1,31.4,31.4
		c3,15.1-3.9,31.9-17.6,40c-5.6,3.3-6.7,6.9-6.7,12.7c0.1,128.2-0.1,256.5,0.3,384.7c0,14.6-4.1,25.7-15.9,34.5
		c-9.4,7-17.8,15.3-27,22.6c-6.8,5.4-10.4,11.7-9.8,20.6c0.5,6.6,0.1,13.4,0.1,20c-0.1,12.7-3.2,15.8-16.2,16
		c-2.1,0-4.2,0.2-7.5,0.3c0,3,0,5.8,0,8.7c0,26.7,0,53.4,0,80.1c0,9.5-3.9,14.6-10.8,14.8c-7.2,0.2-11.6-5.3-11.6-15
		c0-26.4,0-52.9,0-79.3c0-2.9,0-5.8,0-9.6c-4.1,0-7.5,0.1-10.9,0c-8.4-0.3-12.2-3.8-12.5-12.3c-0.3-8.3-0.3-16.6-0.1-24.8
		c0.2-7.5-2.4-13.3-8.3-18.1c-10.1-8.3-19.7-17.3-30-25.3c-10.1-7.9-14.3-17.4-14.3-30.3c0.3-129,0.2-258.1,0.3-387.1
		c0-6.1-1.2-10-7-13.4c-15-8.9-21.2-26.3-16.7-43.1c4.3-16.1,18.9-27.8,36.4-29C384.5,107.7,387.7,107.9,391.7,107.9z M391.6,242.4
		c-0.3,1.7-0.5,2.5-0.5,3.2c0,112.5-0.1,224.9,0.1,337.4c0,3.1,2.3,7,4.7,9.2c13.1,12.1,26.6,23.9,40,35.8c13.2,0,26.3,0.1,39.5,0.1
		c13.3-11.9,26.7-23.7,40-35.7c1.9-1.7,4.5-4,4.6-6.1c0.5-10.3,0.2-20.5,0.2-31.4c-16,0-30.9,0.1-45.8,0c-6.9,0-12-2.8-12.9-10.3
		c-0.8-7.2,4.1-12,12.5-12c15.2-0.1,30.3,0,45.3,0c3.6-17.8,2.9-18.6-13.6-18.7c-0.8,0-1.6,0-2.4,0c-8.3-0.3-12.8-4.1-12.8-11
		c0-6.8,4.5-11,12.8-11.3c5.5-0.2,11,0,16.6,0c0-6.7,0-12.1,0-18.2c-5.9,0-11.2,0.1-16.5,0c-8.2-0.2-12.8-4.3-12.9-11.2
		c-0.1-7,4.4-11,12.6-11.2c5.5-0.1,11.1,0,16.8,0c0-6.6,0-12.1,0-18.6c-3.4,0-6.2,0-9.1,0c-12.6,0-25.1,0.1-37.7-0.1
		c-6.8-0.1-11.2-3.4-11.7-10.5c-0.5-6.6,3.9-11.1,11.4-11.8c3.4-0.3,6.9-0.1,10.4-0.1c12.2,0,24.4,0,36.6,0c0-6.7,0-12.1,0-18.2
		c-5.6,0-10.6,0.1-15.7,0c-8.9-0.2-13.6-4.1-13.7-11.1c-0.1-7.2,4.5-11.2,13.4-11.3c5.3-0.1,10.5,0,16,0c0-6.5,0-12,0-18.5
		c-6,0-11.6,0.2-17.1,0c-7.9-0.3-12.1-4.2-12.3-10.8c-0.2-6.9,4.3-11.2,12.4-11.5c5.5-0.2,11,0,17,0c0-6.6,0-12,0-18.4
		c-3.2,0-6,0-8.9,0c-12.8,0-25.7,0.2-38.5-0.1c-6.8-0.2-11.1-4-11.1-11.1c0-7,4.2-10.7,11-11.2c2.9-0.2,5.9-0.1,8.8-0.1
		c12.8,0,25.5,0,38.5,0c0-15.4,0-29.9,0-44.8C476.9,242.4,434.5,242.4,391.6,242.4z M455.8,164.3c9.6,0,19.2,0,28.8,0
		c14.9,0,29.9,0.2,44.8-0.3c8.8-0.3,15.1-6.9,15.8-15.2c0.7-8.6-4.9-16.1-13.7-18c-2.6-0.5-5.3-0.5-8-0.5c-45.3,0-90.7,0-136,0
		c-3.4,0-7,0.3-10.2,1.3c-6.8,2.1-11.5,7.6-10.8,14.2c0.5,5.4,3.8,11.5,7.7,15.4c2.6,2.6,8.4,2.8,12.8,2.9
		C409.9,164.4,432.9,164.3,455.8,164.3z M391.6,219.2c43.1,0,85.4,0,128.1,0c0-10.9,0-21.3,0-32c-43,0-85.4,0-128.1,0
		C391.6,197.9,391.6,208.2,391.6,219.2z M455.2,51.5c17.1,0,34.2,0,51.2,0c10,0,16.1-4.8,16.2-12.7c0.1-7.9-6-13-15.9-13
		c-33.9,0-67.8,0-101.6,0c-10.1,0-16,4.7-16.1,12.7c-0.1,8,5.8,12.9,15.8,13C421.5,51.6,438.3,51.5,455.2,51.5z M414.6,107.2
		c28,0,55.1,0,82,0c0-11.4,0-22.2,0-32.7c-27.7,0-54.7,0-82,0C414.6,85.7,414.6,96.3,414.6,107.2z M444,653c0,5.3,0,10.4,0,15.6
		c8.2,0,15.7,0,23.7,0c0-5.4,0-10.2,0-15.6C459.9,653,452.6,653,444,653z"/>
	<path class="st0" d="M0.1,510.1c0-58.5-0.2-117,0.1-175.6c0.1-23.5,7.7-44.1,26.8-59.1c4.2-3.3,8.7-6.8,13.7-8.1
		c8-2.2,9.7-7,8.8-14.2c-0.4-2.6-0.3-5.4,0-8c0.6-6.2-0.3-10.6-7.3-13.6c-8-3.4-11.1-11.3-11.1-19.9c-0.1-17.4-0.4-34.8,0.1-52.1
		c0.7-23,17.5-38.7,41.4-38.7c54.2-0.1,108.5,0,162.7,0c5.3,0,10.7-0.1,16,0c23.9,0.6,40,16.7,40.4,40.7c0.2,16.3,0.1,32.6,0,48.9
		c0,10.5-4.2,18.6-14.2,23c-0.5,0.2-1.4,0.4-1.4,0.7c-1,8.3-2.3,16.6-2.6,25c-0.1,2,2.4,5.2,4.4,6c30.3,12.7,43.6,36.8,44.4,68.1
		c0.8,36.3,0.3,72.7,0.3,109c0,80.7,0,161.4,0,242.1c0,2.7,0.1,5.4-0.1,8c-1,13.4-9.6,21.5-22.9,21.5c-91.9,0-183.9,0-275.8,0
		c-14.6,0-23.2-8.5-23.5-23.4c-0.2-11.5-0.1-23-0.1-34.5C0.1,607.4,0.1,558.8,0.1,510.1C0.1,510.1,0.1,510.1,0.1,510.1z M22.9,627.6
		c92.2,0,184.2,0,276.4,0c0-93.4,0-186.4,0-279.4c-92.4,0-184.2,0-276.4,0C22.9,441.4,22.9,534.3,22.9,627.6z M24.5,324.8
		c91.1,0,182.3,0,274.4,0c-5.1-27.7-22-40.7-48.7-42.2c0-16.2,0-31.4,0-47c-59.5,0-118.6,0-178.3,0c0,15.9,0,31.3,0,46.5
		C37.9,290.9,24.2,303.3,24.5,324.8z M53.6,212c72.3,0,143.5,0,215.6,0c0-16.1,0-31.5,0-46.9c0-15.9-5.8-21.7-21.8-21.7
		c-33.4,0-66.8,0-100.2,0c-24.9,0-49.7-0.1-74.6,0c-11.1,0-18.4,5-18.8,14.5C53,175.7,53.6,193.6,53.6,212z M23.1,650.9
		c0,13.9,0,27,0,39.9c92.6,0,184.5,0,276.4,0c0-13.6,0-26.6,0-39.9C207.3,650.9,115.5,650.9,23.1,650.9z"/>
</g>
<g>
	<path class="st0" d="M58.7,448.2v24.7h37.7v-24.7c0-3.5,0.8-6.2,2.4-7.9s3.7-2.6,6.3-2.6c2.6,0,4.7,0.9,6.4,2.6
		c1.6,1.7,2.4,4.4,2.4,8v67.9c0,3.6-0.8,6.2-2.5,8s-3.8,2.6-6.3,2.6c-2.6,0-4.7-0.9-6.3-2.7c-1.6-1.8-2.4-4.4-2.4-8v-29H58.7v29
		c0,3.6-0.8,6.2-2.5,8s-3.8,2.6-6.3,2.6c-2.6,0-4.7-0.9-6.3-2.7c-1.6-1.8-2.4-4.4-2.4-8v-67.9c0-3.5,0.8-6.2,2.3-7.9
		c1.5-1.8,3.7-2.6,6.3-2.6c2.6,0,4.7,0.9,6.4,2.6C57.8,442,58.7,444.6,58.7,448.2z"/>
	<path class="st0" d="M165.9,491.7h-16v24.4c0,3.5-0.8,6.1-2.5,7.9c-1.6,1.8-3.7,2.7-6.2,2.7c-2.6,0-4.7-0.9-6.3-2.7
		c-1.6-1.8-2.4-4.4-2.4-7.8v-66.4c0-3.8,0.9-6.6,2.6-8.2c1.8-1.6,4.6-2.5,8.4-2.5h22.4c6.6,0,11.7,0.5,15.3,1.5
		c3.5,1,6.6,2.6,9.1,4.9c2.6,2.3,4.5,5.1,5.8,8.3c1.3,3.3,2,7,2,11.1c0,8.8-2.7,15.4-8.1,19.9C184.7,489.4,176.6,491.7,165.9,491.7z
		 M161.7,452.2H150v26.3h11.8c4.1,0,7.5-0.4,10.3-1.3c2.8-0.9,4.9-2.3,6.3-4.2c1.4-2,2.2-4.5,2.2-7.7c0-3.8-1.1-6.9-3.3-9.3
		C174.7,453.5,169.5,452.2,161.7,452.2z"/>
	<path class="st0" d="M225.5,449.1l19.5,57.8l19.6-58.2c1-3.1,1.8-5.2,2.3-6.4c0.5-1.2,1.4-2.3,2.5-3.2c1.2-1,2.8-1.4,4.8-1.4
		c1.5,0,2.9,0.4,4.1,1.1s2.3,1.7,3,3c0.7,1.2,1.1,2.5,1.1,3.7c0,0.9-0.1,1.8-0.4,2.8c-0.2,1-0.5,2-0.9,2.9c-0.4,1-0.7,1.9-1.1,3
		l-20.9,56.3c-0.7,2.2-1.5,4.2-2.2,6.1c-0.7,1.9-1.6,3.6-2.6,5.1c-1,1.5-2.3,2.7-3.9,3.6c-1.6,0.9-3.6,1.4-6,1.4s-4.3-0.5-6-1.4
		c-1.6-0.9-2.9-2.1-3.9-3.6c-1-1.5-1.9-3.2-2.6-5.1c-0.7-1.9-1.5-4-2.2-6.1l-20.5-55.8c-0.4-1-0.7-2-1.1-3c-0.4-1-0.7-2-0.9-3.2
		c-0.3-1.1-0.4-2.1-0.4-2.9c0-2,0.8-3.8,2.4-5.5c1.6-1.6,3.6-2.5,6.1-2.5c3,0,5.1,0.9,6.3,2.7S224.2,445.1,225.5,449.1z"/>
</g>
</svg>
