<?xml version="1.0" encoding="utf-8"?>
<!-- Generator: Adobe Illustrator 28.2.0, SVG Export Plug-In . SVG Version: 6.00 Build 0)  -->
<svg version="1.1" id="Livello_1" xmlns="http://www.w3.org/2000/svg" xmlns:xlink="http://www.w3.org/1999/xlink" x="0px" y="0px"
	 viewBox="0 0 684 576.8" style="enable-background:new 0 0 684 576.8;" xml:space="preserve">
<style type="text/css">
	.st0{fill:#26475C;}
</style>
<g>
	<g>
		<g>
			<path class="st0" d="M613,124.2c2.2,2.3,4.4,4.7,6.4,7.3c7.7,9.9,14.3,20.5,19.4,32c9.3,21.1,12.5,44.3,8.9,67
				c-1.1,7.1-2.8,14-5,20.8c-1.2,3.6-2.4,7.1-3.8,10.5c-0.7,1.8-1.5,3.5-2.3,5.3c-0.3,0.6-2.6,4.5-2.3,4.9
				c4.9,8.4,10.9,15.3,13.2,23.3c6.1,20.7-9.7,41.9-31.3,42.1c-61.7,0.4-123.3,0.4-185,0c-15.6-0.1-25.6-9.8-30.7-22.6
				c-27.8,0-54.8,0-81.8,0.1c-1.9,0-4.2,0.9-5.6,2.1c-25.6,23-56.5,30.7-89.8,31.8c-9.5,0.3-19,0-29.6,0l-114.1,0.3
				c-22.5,0-44.8,0-67.7,0c-6.5,0-10-6.1-10-12.1c0-4.7,3.3-8.8,7.6-10c5-1.5,10.4-0.8,15.6-0.8c12.3,0,24.7,0,37,0
				c5.7,0,11.4,0,17.2,0c0,0,114.8-0.3,114.8-0.3c21.3,0.4,42.1,0.8,62.6-4.2c22-5.4,39.9-17.2,53.5-35.3
				c11.4-15.2,26.4-23.4,44.9-27.4c31.7-6.7,63.2-14.7,94.7-22.2c9.3-2.2,13.3-7.9,11.5-15.5c-1.7-7-8.1-10.1-17-8
				c-30.7,7.1-61.3,14.2-92,21.2c-9.3,2.1-18.6,4.3-27.9,6.4c-6.9,1.5-12.3-2.4-13.8-9.1c-0.8-3.4,0-7,2.4-9.6
				c2.6-2.8,6.4-3.5,9.9-4.3c24-5.6,48-11.1,71.9-16.9c2.1-0.5,5-2.3,5.4-4c2.6-9.8,4.5-19.7,6.7-30.2c-13.2,0-26.5-0.3-39.7,0.1
				c-11.1,0.3-22.5-0.1-33.1,2.6c-44.8,11.1-89.3,23.3-134,34.9c-27.9,7.3-120.8,8.3-120.8,8.3c-21.3,0-42.7-0.2-64,0
				c-3.8,0-6.8-0.5-9.3-3.6c-1.8-2.2-3.2-5.2-3.2-8.1c0-3.9,2.7-7.6,5.8-9.6c3.8-2.4,8.7-1.6,12.9-1.6c10.5,0,20.9,0,31.4,0
				c9,0,18,0.2,27,0c0,0,66-1.3,114.2-7.3c18.8-4.9,37.5-9.8,56.2-14.7c25.6-6.8,51.2-13.9,76.9-20.2c8.7-2.1,17.8-3.1,26.7-3.3
				c19.4-0.5,38.9-0.3,58.3-0.1c4.7,0.1,7.6-1.2,10.5-5.1c38.4-53.3,110.7-67.6,166.4-33C597.9,111.4,606,117.1,613,124.2z
				 M423.2,194.5c6.9-1.5,12.4-2.7,18-3.9c18.6-3.8,36.7,7.1,41.3,24.9c4.8,18.5-5.4,36.9-23.9,42.5c-7.4,2.3-15.1,3.9-22.6,5.8
				c-0.2,0.8-0.3,1.6-0.5,2.4c3.3,1,6.6,2.9,9.9,2.9c51.9,0.2,103.8,0,155.8,0.3c6.1,0,9.3-1.9,12.1-7.1
				c23.6-42.4,14.4-95.1-22.5-127.4c-35.8-31.3-90-33.4-128.1-4.7C441.6,146.2,428.5,167.1,423.2,194.5z M523.9,314.9
				c15.9,0,31.8,0,47.7,0c14.2,0,28.5,0.1,42.7-0.1c7.2-0.1,12-4.9,12-11.4c0-6.4-4.8-10.9-12.1-11.3c-1.9-0.1-3.8,0-5.7,0
				c-52.9,0-105.8,0-158.7,0c-5.9,0-12.1-0.9-17.7,0.4c-3.7,0.9-8.3,4.3-9.6,7.7c-1.2,3.1,0.6,8.5,2.9,11.3c2,2.3,6.7,3.2,10.3,3.2
				C465,315,494.5,314.9,523.9,314.9z M412.7,269.4c-20.9,5-41,9.6-60.9,14.7c-4.9,1.2-9.3,4.1-15.5,6.9c20.5,0,38.6-0.2,56.8,0.1
				c11.9,0.2,13.2-12.2,21.1-16.8C414.4,274,413.3,271.4,412.7,269.4z"/>
			<path class="st0" d="M334.5,575.4c112.4,3.9,222.3-6.6,323.7-15.4c2.7-0.2,3.7-0.1,8.6-1.2c8.8-2.1,8.3-8.6,8.3-12.2
				c0-3.8-3.4-9.7-11.4-9.7c-3.4,0-3.7,0.1-6.5,0.4c-102.1,13-221.3,15.5-323,15.5H47.4c0,0-8.8,1-9.4,11.4
				c-0.6,10.7,13.4,11.4,13.4,11.4L334.5,575.4z"/>
			<path class="st0" d="M409.3,381.7c-21.5-4.6-38.8-21.8-43.4-43.2c-1.3-6,3.2-11.7,9.3-11.7h3.6c4.4,0,8.2,3,9.3,7.2
				c3.5,13.2,11.9,21.9,25.6,25.4c4.3,1.1,7.3,4.9,7.3,9.3v3.7C421,378.5,415.3,383,409.3,381.7z"/>
			<path class="st0" d="M669.2,326.7h3.1c6.1,0,10.7,5.6,9.6,11.6c-4,20.8-21.8,38.7-43.3,43.4c-6.1,1.3-11.9-3.3-11.9-9.5v-2.9
				c0-3.7,2.1-7.2,5.5-8.8c6.7-3.2,13.2-6,17.9-10.6c4.5-4.5,7.1-10.9,10.2-17.6C662,328.9,665.4,326.7,669.2,326.7z"/>
			<path class="st0" d="M524.1,145.2V145c0-6.8,6-12.3,12.7-11.4c31.2,4.1,61.6,34.5,65.7,65.7c0.9,6.8-4.5,12.7-11.4,12.7h-0.1
				c-5.4,0-10.2-3.8-11.2-9.2c-2.2-11.5-7.1-22-15.9-30.7c-8.7-8.6-18.9-13.7-30.6-15.8C528,155.4,524.1,150.6,524.1,145.2z"/>
		</g>
		<g>
			<path class="st0" d="M438.4,132.3c-3.2,0-6.4-1.4-8.6-4.1c-0.2-0.3-10.9-13.1-36.2-26.5c-23.7-12.5-65.4-28.2-129.7-31.3
				c-85.5-4.2-141.8,20-179.1,36c-19.9,8.6-34.4,14.7-47.4,14.8c0,0,0,0,0,0c-6,0-10.9-4.9-11-10.9c0-6.1,4.9-11,10.9-11
				c8.5,0,21.9-5.7,38.8-13C115.3,69.4,174.4,44,265,48.4c133.6,6.5,180.1,63.7,182,66.1c3.7,4.8,2.9,11.6-1.8,15.4
				C443.1,131.5,440.8,132.3,438.4,132.3z"/>
		</g>
		<g>
			<path class="st0" d="M486.1,113.6c-1.2,0-2.5-0.2-3.7-0.6c-2.8-1-4.1-2.5-6.4-5c-26.4-29.2-87.1-79.1-196.8-84.6
				C174.2,18,119.3,42,79.2,59.6c-16,7-29.8,13.1-43.5,15.7c-5.9,1.1-11.7-2.8-12.8-8.7c-1.1-5.9,2.8-11.7,8.7-12.8
				c11.2-2.1,23.4-7.5,38.8-14.2c39.7-17.4,99.8-43.7,209.9-38.1c117.6,6,183.3,60.1,212,91.8c0.4,0.4,0.7,0.8,1,1.1
				c3.4,2.9,4.8,7.6,3.2,12C494.8,110.8,490.6,113.6,486.1,113.6z M489.8,92.3C489.8,92.3,489.8,92.3,489.8,92.3
				C489.8,92.3,489.8,92.3,489.8,92.3z M489.8,92.3C489.8,92.3,489.8,92.3,489.8,92.3C489.8,92.3,489.8,92.3,489.8,92.3z"/>
		</g>
	</g>
	<g>
		<path class="st0" d="M670.1,313.7h-28.4c-6.9,0-12.5-5.6-12.5-12.5s5.6-12.5,12.5-12.5h28.4c6.9,0,12.5,5.6,12.5,12.5
			S677,313.7,670.1,313.7z"/>
	</g>
</g>
</svg>
