<svg id="Livello_1" data-name="Livello 1" xmlns="http://www.w3.org/2000/svg" viewBox="0 0 800 800"><defs><style>.cls-1{fill:#26475c;}</style></defs><path class="cls-1" d="M159.5,674.49a30.3,30.3,0,0,1-5.71-1.51c-7.68-2.89-14.74-7.35-19.51-14.15-7.57-10.81-10.51-21.82-4.51-35,11.91-26.07,22.9-52.56,34-79,4.6-11,10.28-20.79,21.79-26.49-1.16-1.6-2-2.84-2.94-4.05a38.86,38.86,0,0,1-8.16-23.84q.06-42.87,0-85.73c0-6.59,3.05-10.41,8.15-10.32s7.9,3.86,7.9,10.58q0,41,0,82c0,17.28,9.91,27.11,27.33,27.11H583.18c17.65,0,27.37-9.82,27.38-27.61q0-99.93,0-199.85c0-17.8-9.72-27.58-27.37-27.61H562.33v6.12c0,19.11-.63,38.24.16,57.32,1,24.07-18.93,43.9-42.56,42.78-13.86-.66-27.77-.12-42.25-.12,0,15,.17,29.61-.1,44.19a46.42,46.42,0,0,1-2.2,13.61,39.43,39.43,0,0,1-37.46,26.84q-37.5.09-75,0a39.86,39.86,0,0,1-39.53-39.59c-.07-14.79,0-29.59,0-45.05-9.75,0-19.15.13-28.54,0-8.36-.16-16.91.38-25-1.19-18.22-3.52-31-19.91-31.07-38.41-.06-20,0-40,0-60v-6c-9.59,0-18.91-.95-28,.23-12.69,1.66-20.22,11.69-20.25,24.95q-.1,42.06,0,84.12c0,4.34-1.08,7.74-5.51,9.29-5.76,2-10.55-1.91-10.57-8.83,0-21.79-.12-43.57,0-65.36.07-10-.54-20.15,1.21-29.85,3.31-18.26,19.87-31,38.37-31.09,8.37-.05,16.74,0,25.13,0,4.73-17.08,15.18-27.93,32.38-31.52,4-.83,8.16-.59,12.25-.61,13-.07,26,0,39.56,0,0-15,0-29.63,0-44.22,0-13.87,5.77-24.81,16.79-33a36.9,36.9,0,0,1,22.44-7.47c25.18,0,50.36-.07,75.53,0a39.82,39.82,0,0,1,39.52,39.58c.08,14.79,0,29.59,0,45.06,8.31,0,16.28,0,24.25,0,8.92.06,18-.89,26.73.55,17.52,2.9,28.28,14,33.18,31.59,7.79,0,15.79,0,23.79,0,23.54,0,41,17.37,41,40.82,0,66.44-.14,132.88.14,199.31,0,13-1.86,24.84-11.56,35.14,13.51,6.25,18.68,18.39,23.85,30.7q8.91,21.2,18,42.32,4.59,10.69,9.2,21.38c1.49,3.48,3,6.94,4.49,10.44,1.33,3.25,3.34,5.72,3.91,9.27a28.8,28.8,0,0,1-1.58,14.12c-6.51,18.33-21.34,28.41-40.64,28.39q-27.15,0-54.3,0H205.6c-8.06,0-16.11-.06-24.16,0C174.12,674.83,166.77,675.52,159.5,674.49Zm494.64-48.12c-.56-1.48-.95-2.64-1.42-3.75q-16.28-38.07-32.55-76.14C615.43,535.34,607,530.15,595,530.15H206.1c-12.2,0-20.59,5.4-25.39,16.78-10.6,25.1-21.43,50.11-32.14,75.16-.58,1.34-1,2.76-1.5,4.28ZM546.27,288.5V256.36c0-20.43-9-29.49-29.23-29.5q-22.75,0-45.51,0c-7.28,0-9.89-2.68-9.91-10,0-16.07,0-32.14,0-48.21-.06-16.26-10.15-26.37-26.4-26.41q-34.54-.08-69.08,0c-16.64,0-26.64,10-26.67,26.66,0,15.89,0,31.78,0,47.67,0,7.73-2.54,10.31-10.16,10.32-15.88,0-31.77,0-47.66,0-16.69,0-26.78,10-26.81,26.53q-.06,34.54,0,69.09C254.84,339,264.92,349,281.6,349c16.07,0,32.13,0,48.2,0,6.93,0,9.63,2.75,9.64,9.75,0,16.07,0,32.14,0,48.2,0,16.64,10,26.67,26.65,26.7q34.27.06,68.55,0c17,0,26.92-10,26.95-26.95,0-15.88,0-31.77,0-47.66,0-7.38,2.62-10,9.89-10,15.71,0,31.42,0,47.12,0,18,0,27.62-9.74,27.64-27.88ZM343.76,643H144.23a24.55,24.55,0,0,0,1,2.75c5,9.29,13.21,13,23.43,13q85.41,0,170.82,0c1.37,0,2.74-.22,4.24-.34Zm312.58,0H457.51v15.76H630.32c1.78,0,3.57.05,5.35-.1C646.08,657.76,654.05,651.75,656.34,643ZM360.88,658.48h79.2V643.05h-79.2Z"/><path class="cls-1" d="M400.53,594.46H193.2c-10.47,0-13.59-4.65-9.51-14.21,3.9-9.18,7.93-18.3,11.74-27.51,1.86-4.5,4.77-6.56,9.8-6.56q195.29.12,390.57,0c5,0,8,2.06,9.83,6.54,4,9.53,8.2,19,12.2,28.49,3.45,8.2,0,13.24-8.89,13.24Q504.74,594.48,400.53,594.46ZM202.48,578H598.59c-1.55-3.74-3.24-6.91-4.2-10.29-1.3-4.6-4-5.53-8.56-5.52q-185.27.21-370.53.11a14,14,0,0,0-3.73.08c-1.17.33-2.71,1-3.17,1.94C206.27,568.77,204.45,573.36,202.48,578Z"/><path class="cls-1" d="M355.53,243V172.11c0-1.61,0-3.22,0-4.82.13-6,2.89-9,8.79-9q36.15-.08,72.31,0c6.14,0,8.87,3,8.88,9.43q0,34.29,0,68.57V243h5.88q34.27,0,68.56,0c7.67,0,10.2,2.55,10.21,10.26q0,34.56,0,69.11c0,8.3-2.41,10.63-10.93,10.63-24.28,0-48.56,0-73.72,0v5.76q0,34.29,0,68.57c0,7.74-2.55,10.33-10.15,10.33q-34.81,0-69.64,0c-7.66,0-10.19-2.55-10.2-10.26q0-34,0-68V333h-6.16q-34.28,0-68.56,0c-7.28,0-9.91-2.67-9.92-10q0-34.81,0-69.64c0-7.94,2.48-10.34,10.66-10.34h74Zm73.94-68.15H371.6v6q0,34,0,68c0,7.66-2.56,10.2-10.27,10.21q-34.26,0-68.54,0h-5.56V316.9h73.5c8.48,0,10.87,2.34,10.87,10.68q0,34,0,68v5.55h57.87c0-25,0-49.68,0-74.31,0-7.29,2.66-9.92,10-9.93q34.26,0,68.54,0h5.74V259H440.62c-8.86,0-11.14-2.23-11.15-10.93Z"/></svg>