<svg id="Livello_1" data-name="Livello 1" xmlns="http://www.w3.org/2000/svg" viewBox="0 0 800 800"><defs><style>.cls-1{fill:#26475c;}</style></defs><path class="cls-1" d="M671.58,292.53v313.4a7.72,7.72,0,0,0-1,1.78c-6.12,26.46-26.4,42.68-53.52,42.68q-217,0-434.07,0c-30.12,0-53.52-23.19-53.53-53.07q-.06-147.95,0-295.91c0-30,23.24-53.27,53.25-53.33,24-.05,48,0,72,0h6v-6.34c0-19.23-.06-38.46,0-57.7a33.48,33.48,0,0,1,33.29-33.35c19.06-.08,38.11,0,57.17,0,7.82,0,12.26,3.92,12.21,10.66s-4.46,10.48-12.39,10.49c-17.64,0-35.29,0-52.93,0-11.4,0-16.19,4.72-16.2,15.95q0,27.53,0,55.06v4.95h25.42V210.58c0-9.9,3.42-13.33,13.3-13.33H480c10.34,0,13.69,3.3,13.69,13.47,0,12.3,0,24.59,0,37h25a6.55,6.55,0,0,0,.36-1.32q0-29.39.06-58.76c0-11-4.8-15.79-15.81-15.81-17.82,0-35.64,0-53.47,0-7.69,0-12.3-4.11-12.21-10.75.09-6.39,4.66-10.39,12-10.4q28.05,0,56.11,0c19.8,0,34.47,14.59,34.51,34.28,0,19.06,0,38.12,0,57.17v5.95h6.43c24,0,48,0,72,0A52.74,52.74,0,0,1,668,281.65C669.39,285.2,670.4,288.9,671.58,292.53ZM650.41,424.75c-22.85,11.9-24.48,9.54-45.55,9.62-34.4.13-68.81,0-103.21,0h-5.84c0,16.45,0,32.13,0,47.82,0,7.37-4.09,11.38-11.45,11.47-4.59.05-9.17,0-13.76,0H440.75c0,15.06.06,29.5,0,43.93,0,6.79-4.1,11.06-10.73,11.09q-29.64.13-59.28,0c-6.09,0-10.2-4.27-10.39-10.35-.13-4.41,0-8.82,0-13.23V493.7c-14.88,0-29.14,0-43.39,0-7.69,0-11.63-4-11.65-11.78-.05-13.94,0-27.88,0-41.81V434.4H298c-38.64,0-77.28.27-115.91-.23-7.5-.09-15-2.93-22.41-5-3.05-.84-5.76-2.94-9.06-4.69v5.87q0,81.76,0,163.54c0,22.08,13.15,35.31,35.13,35.31H615c22.34,0,35.38-13.12,35.39-35.58q0-81.78,0-163.55ZM440.76,413.24h5.86q84.42,0,168.83,0c21.69,0,34.93-13.26,34.95-35q0-37,0-74.1c0-21.7-13.25-34.94-34.95-34.94H185.68c-21.74,0-35,13.22-35,34.86q0,36.78,0,73.57c0,22.44,13,35.56,35.39,35.57H360.3c0-14.59,0-28.5,0-42.41,0-8.89,3.65-12.63,12.38-12.64q27.8,0,55.58,0c8.78,0,12.47,3.72,12.48,12.55C440.77,384.66,440.76,398.58,440.76,413.24ZM326.67,472.53c14.5,0,28.74,0,43,0,7.77,0,11.77,3.95,11.8,11.63.05,12.53,0,25.06,0,37.58v5.57h38.12c0-14.5,0-28.74,0-43,0-7.79,3.93-11.77,11.62-11.8,12.53-.05,25.06,0,37.59,0h5.57V434.4c-14.31,0-28.38,0-42.44,0-8.51,0-12.33-3.78-12.35-12.16,0-12.18,0-24.35,0-36.53v-6.1H381.46c0,14.49,0,28.73,0,43,0,7.76-4,11.78-11.63,11.81-12.53.05-25.06,0-37.59,0h-5.56ZM472.53,218.79H329v29h143.4c.06-1.27.16-2.3.16-3.32C472.54,236,472.53,227.57,472.53,218.79Z"/><path class="cls-1" d="M411.12,161.55a10.23,10.23,0,0,1-10.92,10.28A10.37,10.37,0,0,1,390,161.31a10.57,10.57,0,0,1,10.74-10.62A10.35,10.35,0,0,1,411.12,161.55Z"/></svg>