<?xml version="1.0" encoding="utf-8"?>
<!-- Generator: Adobe Illustrator 28.2.0, SVG Export Plug-In . SVG Version: 6.00 Build 0)  -->
<svg version="1.1" id="Livello_1" xmlns="http://www.w3.org/2000/svg" xmlns:xlink="http://www.w3.org/1999/xlink" x="0px" y="0px"
	 viewBox="0 0 800.2 791.9" style="enable-background:new 0 0 800.2 791.9;" xml:space="preserve">
<style type="text/css">
	.st0{fill:#26475C;}
</style>
<g>
	<path class="st0" d="M624.4,323.7c24.8,5.3,45.2,16.7,61.1,35.7c33.3,39.7,31.4,94.7-5.4,131.3c-14,14-23.6,29.6-24.6,49.9
		c-0.9,20.2,13.2,35.9,33.4,36.4c16.2,0.4,32.4,0.1,48.6,0.2c34.2,0.3,58.3,24.5,58.5,58.8c0.1,9.7,0,19.3,0,29
		c0,13.7-3.5,17.3-17.5,18.3c-1.1,0.1-2.2,0.4-4.4,0.8c0,8.2,0.1,16.3,0,24.4c-0.1,12.3-4.7,16.9-17.1,16.9c-41.5,0.1-83,0-124.5,0
		c-3.1,0-6.1,0-9.4,0c-5.6,23.5-17.6,41.8-37.7,54.2c-12.8,8-26.9,12.2-42,12.2c-152.7,0.1-305.4,0.2-458.1-0.1
		c-45-0.1-80.8-36.1-80.9-81C4,528.5,4.1,346.2,4.4,163.9c0-4.8,2.6-10.7,6-14.1C58,101.7,105.9,53.8,154,6.3c3.7-3.7,10.5-6,15.8-6
		C293-0.1,416.1,0,539.2,0c50.2,0,84.9,34.8,85.1,85.5c0.2,66,0.1,131.9,0.1,197.9C624.4,296.8,624.4,310.1,624.4,323.7z
		 M447.7,684.1c-2.2-0.4-3.5-0.7-4.8-0.8c-13.9-1.1-17.1-4.5-17.2-18.6c0-9.7-0.1-19.3,0-29c0.2-34.3,24.2-58.3,58.7-58.5
		c15.6-0.1,31.3,0.2,46.9-0.1c22.5-0.4,36.6-16.5,35-39c-1.3-18.7-10.1-33.1-23.2-45.9c-42.7-41.8-40-109.1,5.6-146.9
		c14.1-11.7,30.5-18.3,48.4-21.5c0.2-2.5,0.5-4.5,0.5-6.4c0-77.6,0.2-155.3-0.1-232.9c-0.1-34.3-23.5-56.9-57.8-56.9
		c-117.2,0-234.3,0-351.5,0c-2.7,0-5.5,0-8.6,0c0,4.6,0,8,0,11.4c0,39,0,77.9,0,116.9c0,15.4-4.3,19.7-19.9,19.7
		c-39.5,0-79.1,0-118.6,0c-3,0-6,0.2-9.5,0.4c0,4.2,0,7.6,0,10.9c0,172.3,0,344.6,0,517c0,38.8,22,60.9,60.7,60.9
		c148.2,0,296.3,0,444.5,0c3.1,0,6.3,0.1,9.4-0.1c22.6-1.3,43.1-17.8,47.9-39.1c-3.2,0-6.2,0-9.3,0c-40.1,0-80.2,0-120.3,0
		c-11.9,0-16.5-4.7-16.7-16.5C447.6,700.7,447.7,692.5,447.7,684.1z M768.7,655.4c0-6.7,0-12.9,0-19.1
		c-0.1-19.9-11.9-31.9-31.8-32.1c-16.2-0.1-32.4,0-48.6-0.1c-12.9-0.1-24.5-4.2-34.9-11.8c-23.8-17.4-31.5-47.4-20.6-79
		c6-17.4,17.1-31,29.7-44.1c22.8-23.6,25.4-57,7.8-84.7c-17.9-28-51.3-40.8-81.3-31.1c-51,16.6-66,80.7-27.4,118.8
		c11.7,11.6,21.5,24.1,26.9,39.8c19.2,55.7-18.3,96.2-64.8,92.5c-13.6-1.1-27.3-0.3-40.9-0.1c-15,0.2-27.5,9.8-29.3,23.5
		c-1.2,8.9-0.2,18-0.2,27.4C558.3,655.4,662.8,655.4,768.7,655.4z M151.4,52c-31.4,31.4-64.1,64.1-95.5,95.5c30.1,0,62.6,0,95.5,0
		C151.4,114.3,151.4,81.6,151.4,52z M746.5,683.8c-90.9,0-180.9,0-271,0c0,5,0,9.3,0,13.8c90.6,0,180.7,0,271,0
		C746.5,692.9,746.5,688.7,746.5,683.8z"/>
	<path class="st0" d="M383,284.5c-7.3-7.1-14.5-14.2-22.6-22.1c-2.7,3-5.7,6.2-8.6,9.5c-36.4,40.7-72.7,81.5-109.2,122.1
		c-14.2,15.8-31.9,20.6-50,14c-32.6-11.8-40.9-53.4-14.8-77.1c34.3-31.2,69.1-61.8,103.7-92.7c9.7-8.7,19.3-17.4,29.3-26.3
		c-8-7.6-15.3-14.6-22.9-21.7c-14.3,8.1-20.5,6.4-30.3-8.5c-11.4-17.4-10.2-40.8,4.5-56c20.4-21,41.3-41.6,62.7-61.6
		c15.1-14.1,38.2-15.2,55.5-4.4c16.5,10.4,17.8,18.8,5.5,32.5c31.8,31.6,63.5,63.1,95.4,94.9c15.3-12.2,25-9.9,34.9,10.1
		c8.3,16.8,6.4,37.4-6.6,51c-20.6,21.6-41.6,42.9-63.4,63.3c-15.9,15-40.9,14.9-58.2,1.6C375.3,303.5,374.2,297.5,383,284.5z
		 M403.7,263.6c18.2-18.1,36.8-36.7,54.3-54.2c-31-31-62.7-62.6-93.4-93.4c-17.8,17.8-36.3,36.3-54.2,54.2
		C341.3,201.1,372.8,232.6,403.7,263.6z M331,231.2c-2.2,1.9-3.6,2.9-4.8,4c-37.1,33.1-74.2,66.3-111.4,99.4
		c-6.8,6.1-13.8,11.9-20.2,18.4c-5.6,5.6-6.2,12.6-3.1,19.7c3.1,6.9,9.1,11.4,16.2,10.1c5.9-1,12.3-4.6,16.4-9.1
		c37.3-41.1,74.1-82.5,111-123.9c2.2-2.5,4.2-5,6.2-7.4C337.5,238.5,334.5,235.1,331,231.2z M355.4,79.2c-6.4-0.8-11.7,3-16.6,8
		c-18.8,19-37.8,37.7-56.2,57c-3.2,3.4-4.2,8.8-6.2,13.4c0.4,0,0.9,0.1,1.3,0.1C303.7,131.4,329.7,105.2,355.4,79.2z M495.9,216.6
		c-27.9,27.8-54,53.8-80.1,79.8c5-1.7,10.9-3.4,14.8-7.2c19-18.4,37.7-37.1,56.1-56.1C490.5,229.1,492.3,223.2,495.9,216.6z"/>
	<path class="st0" d="M280.7,551.1c-60.9,0-121.7,0-182.6,0c-3.1,0-6.4,0.3-9.3-0.5c-6.8-1.7-11-6.5-10.7-13.6
		c0.3-7.4,4.6-12.1,12.2-13.1c2.5-0.3,5.1-0.2,7.7-0.2c121.7,0,243.5,0,365.2,0c0.9,0,1.7,0,2.6,0c11.3,0.1,17.9,5.2,17.6,13.9
		c-0.2,8.3-6.7,13.4-17.4,13.4C404.1,551.1,342.4,551.1,280.7,551.1z"/>
	<path class="st0" d="M280.7,464.2c-60.9,0-121.7,0-182.6,0c-2.6,0-5.1,0.2-7.7-0.1c-7.3-0.9-13-6.9-12.4-13.8
		c0.6-7.4,4.8-12,12.2-13.2c2.2-0.4,4.5-0.2,6.8-0.2c122.3,0,244.6,0,366.9,0c2.6,0,5.2-0.2,7.7,0.2c6.8,1.1,12.1,7.2,11.6,13.7
		c-0.5,7-4.4,11.6-11.4,13c-2.7,0.6-5.7,0.3-8.5,0.3C402.4,464.2,341.6,464.2,280.7,464.2z"/>
	<path class="st0" d="M239.5,723.6c-47.2,0-94.3,0-141.5,0c-2.8,0-5.7,0.2-8.5-0.3c-6.8-1.1-12-7.3-11.5-13.8
		c0.5-7,4.5-11.6,11.5-13c2.7-0.5,5.7-0.3,8.5-0.3c94.6,0,189.3,0,283.9,0c2.6,0,5.1-0.2,7.7,0.1c7.4,0.9,12.7,6.8,12.3,13.9
		c-0.5,7.5-4.8,11.9-12.2,13.1c-2.5,0.4-5.1,0.2-7.7,0.2C334.4,723.6,287,723.6,239.5,723.6z"/>
	<path class="st0" d="M239.9,637.5c-45.7,0-91.5,0-137.2,0c-2,0-4,0-6,0c-12.1-0.1-18.8-5-18.8-13.7c0-8.7,6.6-13.6,18.8-13.6
		c95.5,0,190.9,0,286.4,0c2.8,0,5.7,0,8.5,0.6c6.2,1.5,9.8,5.8,10.2,12.1c0.4,6.7-2.9,11.6-9.3,13.5c-3.4,1-7.3,1-11,1
		C334.2,637.5,287.1,637.5,239.9,637.5z"/>
</g>
</svg>
