<?xml version="1.0" encoding="utf-8"?>
<!-- Generator: Adobe Illustrator 28.2.0, SVG Export Plug-In . SVG Version: 6.00 Build 0)  -->
<svg version="1.1" id="Livello_1" xmlns="http://www.w3.org/2000/svg" xmlns:xlink="http://www.w3.org/1999/xlink" x="0px" y="0px"
	 viewBox="0 0 800.2 791.9" style="enable-background:new 0 0 800.2 791.9;" xml:space="preserve">
<style type="text/css">
	.st0{fill:#26475C;}
</style>
<g>
	<path class="st0" d="M795.6,400.6c-3.9,4.6-8.1,8.9-14.8,7.7c-12.8-2.4-22.1,2.8-29.8,12.6c-3.1,3.9-7.3,7-10.9,10.4
		c0.3,0.6,0.6,1.2,0.9,1.7c5.3,0,10.6-0.1,15.9,0c9.2,0.2,13.9,4.7,14,13.7c0.2,15.7,0.1,31.4,0,47.1c0,2.7-0.8,5.6-1.8,8.2
		c-11.4,30.6-22.9,61.1-34.4,91.7c-4,10.6-6.5,12.3-17.6,12.3c-17.8,0-35.5,0-53.3,0c-11.3,0-14.3-2.3-17.1-13.5
		c-10.1-39.9-20.1-79.7-30-119.7c-1-4.1-2.1-6.2-7-5.7c-49.4,4.9-98.8,9.6-149.3,14.4c-2,12.2-4.1,24.5-6.1,36.8
		c-13.9,86.8-27.8,173.7-41.7,260.5c-1.5,9.6-6.3,13.3-16.1,12.3c-31.5-3-63-6.1-94.5-9.5c-24-2.6-37.8-18.4-37.9-42.5
		c0-78,0-156,0-234c0-3.1,0-6.1,0-10.4c-2.7,0-5.2,0-7.6,0c-18.8,0-37.6,0.3-56.4-0.1c-27.4-0.6-51-11-71.4-30.9
		c-0.2,3.1-0.5,5.2-0.5,7.3c0,15.7,0.1,31.4,0,47.1c-0.2,21.8-16.2,38.3-37,38.4c-20.6,0-36.9-16.6-37.1-38.4
		C53.8,493,54,467.7,54,442.5c0-2.8,0-5.6,0-9.5c-4.2,0-7.9,0.1-11.7,0c-21.2-0.9-38.2-18.2-37.7-38.2c0.5-20.2,17.2-35.7,38.7-35.8
		c3.3,0,6.6,0,10.7,0c0-12.7,0-24.7,0-36.7c0-16.5-0.3-33,0.1-49.4c0.4-16.1,11.6-30.9,26.3-35.7c14.2-4.6,29.6,0.1,39.5,12.2
		c5.8,7.1,8.3,15.2,8.2,24.3c0,17.5,0.1,35,0.1,52.5c0,0.2,0.2,0.4,0.6,1.3c1.4-1.1,2.7-2,3.9-3.1c19.4-17.8,42.5-26.7,68.7-27.1
		c20.5-0.3,41.1-0.1,62.6-0.1c0-3.6,0-6.5,0-9.5c0-77.7,0-155.5,0-233.2c0-27,14.5-42.3,41.6-44.6c27.4-2.4,54.8-5.3,82.2-8
		c1.5-0.1,2.9-0.8,4.4-1.2c4.1,0,8.2,0,12.4,0c2.6,4.2,6.8,8.1,7.6,12.5c7.6,44.4,14.6,88.8,21.7,133.3
		c8.4,52.6,16.7,105.1,25.1,157.7c0.6,4,1.5,6.7,6.9,7.2c47.2,4.2,94.3,8.7,141.4,13.5c6.1,0.6,8.3-1,9.8-7
		c9.6-39.7,19.7-79.3,29.7-118.9c2.6-10.3,5.8-12.8,16.1-12.8c18.3,0,36.6,0.2,54.8-0.1c8.8-0.2,13.7,3.5,16.7,11.7
		c11.3,30.9,23.1,61.6,34.6,92.4c1,2.6,1.7,5.4,1.8,8.2c0.2,15.7,0.2,31.4,0,47.1c-0.1,9-4.9,13.5-14.1,13.7c-5.3,0.1-10.6,0-18.3,0
		c5.3,5.1,9.4,8.2,12.5,12.2c7.7,9.8,17,15,29.8,12.6c6.7-1.2,10.9,3,14.8,7.7C795.6,394.5,795.6,397.5,795.6,400.6z M434.9,308.4
		c-11.7-72.9-23.1-144.4-34.6-216.1c-11.6,2.2-22,4.1-32.3,6.1c-9.1,1.7-15.2-1.4-16.9-8.7c-1.7-7.4,3-13.2,12.4-15.2
		c10.7-2.2,21.5-4.5,32.9-6.8c-2.3-14.1-4.4-27.4-6.6-41.1c-4.5,0.4-8.1,0.6-11.6,0.9c-23.3,2.3-46.6,4.8-69.9,6.9
		c-15.1,1.4-19.3,5.6-19.3,20.9c0,78,0,156,0,234c0,2.7,0,5.5,0,8.7C337.6,301.5,385.5,304.9,434.9,308.4z M396.2,724.3
		c-11.4-2.4-22-4.5-32.5-6.7c-9.6-2-14.3-7.6-12.8-15c1.6-7.8,8.1-11,18.2-9c10.2,2,20.5,3.9,31.2,6c11.6-72.3,23-143.5,34.5-216
		c-49.2,3.5-97.3,6.9-145.6,10.4c-0.2,2.5-0.4,4.3-0.4,6c0,79.8,0,159.6,0,239.4c0,11.5,5.1,16.8,16.7,17.9
		c15.1,1.5,30.2,3,45.3,4.5c12.8,1.2,25.5,2.4,38.9,3.7C391.9,751.5,394,738.2,396.2,724.3z M289.3,322.8c0,49.1,0,97.3,0,146.4
		c49.4-3.5,98.3-7,147.5-10.5c0-42,0-83.3,0-125.4C387.6,329.8,338.7,326.3,289.3,322.8z M729,383.6c-7.4-7.3-13.5-12.6-18.7-18.6
		c-4.8-5.6-10.5-7.2-17.5-7.8c-24.6-2-49.2-4.6-73.7-6.9c-23.2-2.2-46.5-4.3-70.1-6.6c0,35.1,0,69.6,0,104.5
		c50.4-4.8,100.3-9.5,150.2-14.3c1.7-0.2,3.9-0.4,5.1-1.5c7.8-7.5,15.5-15.2,24.5-24.1c-4.7,0-7.3,0-9.8,0c-30.9,0-61.7,0-92.6,0
		c-10.4,0-16.1-4.5-16-12.5c0.1-7.9,5.8-12.2,16.3-12.2c28,0,56.1,0,84.1,0C716,383.6,721.3,383.6,729,383.6z M745.1,335.7
		c0-14.6,2.9-27.7-0.6-38.9c-8.5-27.7-19.7-54.6-30.1-81.7c-0.7-1.9-3.3-4.2-5-4.3c-13.3-0.4-26.7-0.2-40.1-0.2
		c-9.8,39.2-19.4,77.7-29.4,117.7C675.8,330.8,710.3,333.2,745.1,335.7z M669.3,581.4c12.7,0,25-0.3,37.3,0.1
		c5.1,0.2,7.1-1.8,8.7-6.3c8.4-22.9,16.3-46,25.9-68.5c6.8-16,4.3-32.1,5-50.5c-35.7,2.5-70.4,4.9-106.3,7.4
		C649.9,503.8,659.6,542.4,669.3,581.4z M210.8,469.9c-11.3-49.5-11.2-98.4-0.1-147.7c-22.2-1.5-41.3,3.8-57.6,17.6
		c-8,6.8-15.3,14.5-22.6,22.2c-1.5,1.6-2.3,4.5-2.3,6.8c-0.2,18.3-0.2,36.6,0,54.8c0,2.5,1.3,5.5,3,7.3c6.3,6.8,12.8,13.4,19.7,19.6
		C167.8,465.5,187.7,471.4,210.8,469.9z M523.4,450.7c0-36.7,0-72.6,0-109.3c-20.4-1.9-40.7-3.9-61.1-5.8c0,40.9,0,80.7,0,121.1
		C483,454.6,503.1,452.6,523.4,450.7z M103.4,396c0-39.4,0-78.8,0-118.2c0-2.3,0.2-4.7-0.2-6.9c-1.3-6.6-5.4-10.7-12.2-10.7
		c-6.8,0-10.9,4.1-12.1,10.7c-0.4,2.2-0.2,4.6-0.2,6.9c0,78.8,0,157.5,0,236.3c0,2.3-0.2,4.7,0.2,6.9c1.2,6.6,5.4,10.7,12.2,10.7
		c6.8,0,10.9-4,12.1-10.7c0.4-2.2,0.2-4.6,0.2-6.9C103.4,474.8,103.4,435.4,103.4,396z M236.3,469.8c9.7,0,18.4,0,27.4,0
		c0-49.3,0-98.3,0-147.6c-9.3,0-18.2,0-27.4,0C224,371.6,223.9,420.6,236.3,469.8z M53.4,408.1c0-7.9,0-15.9,0-23.8
		c-16.2-1.9-23.9,1.9-24.1,11.5C29.1,405.4,35.9,409,53.4,408.1z"/>
</g>
</svg>
