<?xml version="1.0" encoding="utf-8"?>
<!-- Generator: Adobe Illustrator 28.2.0, SVG Export Plug-In . SVG Version: 6.00 Build 0)  -->
<svg version="1.1" id="Livello_1" xmlns="http://www.w3.org/2000/svg" xmlns:xlink="http://www.w3.org/1999/xlink" x="0px" y="0px"
	 viewBox="0 0 793.4 791.9" style="enable-background:new 0 0 793.4 791.9;" xml:space="preserve">
<style type="text/css">
	.st0{fill:#26475C;}
</style>
<g>
	<path class="st0" d="M8.1,790.9c-4.8-3.8-6.3-8.6-6.3-14.7c0.1-216.4,0.1-432.9,0.1-649.3c0-12,2.8-14.8,15.1-14.8
		c104.1,0,208.2,0,312.3,0c3.1,0,6.1,0,10.5,0c0-3,0-5.7,0-8.3c0-29.3,0-58.6,0-87.9c0-11.7,3-14.8,14.4-14.8c28.5,0,57.1,0,85.6,0
		c10.9,0,14,3.3,14,14.4c0,31.8,0,63.7,0,96.6c3.4,0,6.4,0,9.3,0c104.3,0,208.7,0,313-0.1c6.3,0,11.6,1,15.5,6.3
		c0,224.2,0,448.5,0,672.7C530.5,790.9,269.3,790.9,8.1,790.9z M22.1,770.5c250.3,0,499.7,0,749.3,0c0-213,0-425.5,0-638.2
		c-105.9,0-211.4,0-317.5,0c0,10.4,0,20.4,0,30.4c0,2,0.2,4,0.3,6.2c6.2,0.5,12.1,0.7,17.9,1.5c24.7,3,43.8,24.9,43.1,49.2
		c-0.7,26.1-20.8,47.8-46.7,48.2c-47.8,0.7-95.6,0.7-143.4,0c-24.7-0.3-43-18.9-46.1-44.4c-2.8-22.4,11.9-44.8,34.4-51.2
		c8.2-2.3,17-2.6,25.8-3.9c0-11.9,0-24,0-35.8c-106.1,0-211.6,0-317.1,0C22.1,345.5,22.1,557.8,22.1,770.5z M433.5,21.4
		c-24.9,0-49.1,0-73.2,0c0,62.3,0,124,0,185.7c24.7,0,48.8,0,73.2,0C433.5,145.1,433.5,83.5,433.5,21.4z M339.8,188.7
		c-7.5,0.7-14,0.6-20,2.1c-13.5,3.4-22.5,16.6-21.5,30.1c1.1,14.2,11.8,26.8,25.9,27c48.5,0.6,97,0.4,145.5-0.1
		c5.1-0.1,10.9-3.3,15.1-6.6c11-8.6,13.6-23.9,7-36.2c-6.9-12.9-22.2-18.8-38-14.4c0,7.8,0.1,15.8,0,23.7
		c-0.1,9.1-3.5,12.8-12.5,12.9c-29.8,0.2-59.6,0.2-89.3,0c-8.7-0.1-12.1-3.8-12.2-12.4C339.6,206.7,339.8,198.5,339.8,188.7z"/>
	<path class="st0" d="M528.1,550.8c-21.2,32-41.7,62.8-62.1,93.7c-6.1,9.2-12.1,18.5-18.3,27.6c-5.5,8-11.3,8.6-18.5,1.8
		c-6.1-5.9-11.9-12.1-18.1-17.9c-4.8-4.6-5.9-9.5-4.2-16c13.9-53.7,27.4-107.4,41.3-161.1c1.2-4.7,0.4-7.5-2.9-10.8
		c-19.8-19.5-39.5-39-58.9-58.9c-14.6-14.9-17.1-34.1-7.2-49.9c13.4-21.3,41.4-25.1,60.5-7.1c20.4,19.2,39.9,39.3,59.5,59.3
		c4.4,4.5,8.1,5.3,14.1,3.7c52.4-13.7,104.9-26.9,157.2-40.5c7.9-2.1,13.9-0.9,19.3,5.3c4.9,5.6,10.5,10.6,15.7,15.9
		c7.8,8,7.2,13.7-2.2,19.9c-37.4,24.9-74.9,49.7-112.4,74.5c-2.3,1.6-4.6,3.2-7.7,5.3c17.4,17.3,34.4,34.5,51.8,51.2
		c1.9,1.8,6.2,1.8,9.2,1.4c11-1.3,21.8-3.2,32.8-4.5c3.2-0.4,7.6-0.5,9.6,1.3c8.6,7.6,17.1,15.5,24.5,24.2c4,4.6,1.2,10.3-5.9,14.2
		c-17,9.6-34.2,18.8-51,28.6c-3.7,2.2-7.2,5.7-9.4,9.5c-9.6,16.4-18.7,33.1-28,49.6c-6.1,10.9-11.6,11-21.3,3.2
		c-15.7-12.7-24.6-27.1-17-47.8c6.1-16.6-0.5-28.1-13.3-38.8C552.3,576.8,541,563.7,528.1,550.8z M686,571.7
		c-3.5-7.9-9.3-8.6-16.2-7.4c-9.6,1.8-19.3,2.9-28.9,4.4c-7.5,1.2-13.3-1.1-18.6-6.5c-18.9-19.3-38.1-38.3-57.1-57.4
		c-9.7-9.7-9.1-14.8,2.4-22.5c37-24.6,74.1-49.2,111.1-73.7c2.2-1.5,4.4-3.1,6.5-4.6c-4.9-7.4-9.8-10.3-18.9-7.9
		c-50.8,13.6-101.9,26.1-152.8,39.5c-10.2,2.7-17.5,0.7-24.8-6.9c-18.7-19.5-38-38.3-57.1-57.4c-2.7-2.7-5.6-5.3-8.8-7.4
		c-8-5.3-17.5-4.3-24,2.2c-6.4,6.4-7.4,16.2-2.2,24c2.1,3.2,4.8,6,7.5,8.8c19.2,19.3,38.4,38.7,57.9,57.7c7.1,6.9,8.9,14,6.4,23.6
		C454.9,531.3,442,582.6,429,633.8c-2.8,11.1-2.6,11.7,8.1,18.2c1.4-2.1,2.9-4.1,4.3-6.2c24.8-37.5,49.7-75,74.5-112.4
		c6.2-9.3,11.9-10.3,19.3-3.1c20.5,20.3,41,40.4,60.9,61.3c3.5,3.7,5.3,10.6,5.1,15.9c-0.4,10.5-2,21-4.4,31.2
		c-1.8,7.6,1.5,11.3,7.4,14.9c8.1-14.5,15.5-28.9,24.1-42.6c3.8-6,9.4-11.6,15.4-15.4C657.3,587.1,671.8,579.7,686,571.7z"/>
	<path class="st0" d="M209.4,388.4c-33.9,0-67.8,0-101.7,0c-2.3,0-4.6,0.1-6.9-0.2c-5.3-0.7-9.1-4.2-8.2-9.2c0.6-3.5,4.1-7,7.2-9.4
		c1.9-1.4,5.4-0.9,8.2-0.9c67.5,0,135,0,202.5,0c11.2,0,16.2,3,16.4,9.7c0.2,6.9-4.9,10-16.7,10C276.6,388.4,243,388.4,209.4,388.4z
		"/>
	<path class="st0" d="M209.4,474.6c-33.9,0-67.8,0-101.7,0c-2.6,0-5.8,0.7-7.5-0.5c-3.1-2.4-7.3-5.9-7.4-9.1
		c-0.1-3.2,3.9-6.9,6.9-9.5c1.6-1.3,4.9-0.7,7.5-0.7c68.3,0,136.6,0,204.9,0c1,0,2.1,0,3.1,0c6.5,0.1,11,2.9,11.7,9.7
		c0.6,5.8-4.5,10.1-11.9,10.1C279.8,474.6,244.6,474.6,209.4,474.6z"/>
	<path class="st0" d="M209.3,540.9c34.7,0,69.3-0.1,104,0.1c3.4,0,7.4,0.7,10,2.6c6,4.3,4.2,13.6-2.9,16c-2.8,1-6.1,1.1-9.1,1.1
		c-67.8,0.1-135.6,0-203.3,0c-1.5,0-3.1,0.1-4.6-0.1c-6.4-0.4-11.3-3-11-10.1c0.2-6.9,4.9-9.6,11.5-9.6
		C139,540.9,174.2,540.9,209.3,540.9z"/>
	<path class="st0" d="M209.5,646.4c-33.6,0-67.3,0-100.9,0c-3.1,0-6.8,0.7-9-0.7c-3-2-6.9-5.8-6.8-8.7c0.2-3.3,3.8-7.2,6.9-9.4
		c2.1-1.5,6-0.7,9-0.7c67.3,0,134.5,0,201.8,0c11.6,0,16.2,2.7,16.4,9.4c0.3,7-4.7,10.1-16.5,10.1
		C276.7,646.4,243.1,646.4,209.5,646.4z"/>
</g>
</svg>
