<svg id="Livello_1" data-name="Livello 1" xmlns="http://www.w3.org/2000/svg" viewBox="0 0 800 800"><defs><style>.cls-1{fill:#26475c;}</style></defs><path class="cls-1" d="M285,307c-3.34-16.77-6.8-33.51-10-50.3-4-20.78-9.49-41.32-9.06-62.77.32-15.77,11.15-28.93,26.32-31.32a30.8,30.8,0,0,1,34.58,21.74c7,23.69,13.4,47.58,20.06,71.38a70.41,70.41,0,0,0,4.81,13.38v-6.14q0-64.29,0-128.58c0-14.55,11-27.29,24.79-29,15.19-1.92,29.38,6.79,32.76,21.25,2,8.43,2.24,17.27,3,26,3,35.34,5.82,70.7,9.59,106.17L428,220.94c2.35-14.65,4.43-29.36,7.14-43.95,2.93-15.71,17.06-25.68,33.19-24,14.65,1.48,26.72,14.5,26.16,29.72-1,26.94-2.84,53.85-4.21,80.78q-2.69,52.24-5.17,104.52c0,.9.12,1.81.3,4.17,4.71-8.25,8.63-15.25,12.69-22.16a194.72,194.72,0,0,1,50.76-56.9c10.41-7.91,21.78-9.47,33.45-3.55s18.12,15.9,16.82,29c-1,10.49-2.46,21.6-6.86,31-14.54,31-22.92,63.29-26.69,97.34-4.38,39.48-20.94,74.27-48,103.31-10.22,10.94-14.27,22-13.74,37,1.1,31.51.33,63.09.36,94.64a52.56,52.56,0,0,0,.48,7.09c1,7.15-2.48,12.31-8.84,12.93-6.69.66-11.08-3.9-11.05-11.45q.18-50.88.35-101.78c0-1.93,0-3.87,0-5.49-8.49,2.44-16.45,5.74-24.71,6.92-27.79,3.95-53-3.39-75.61-19.66-6.14-4.42-6.95-9.52-3.35-14.24,3.43-4.48,8.78-5,14.8-.92a94.32,94.32,0,0,0,44.65,16.34c19.65,1.86,36.6-3.68,49.44-19,11.07-13.19,22.32-26.38,31.89-40.65,16.21-24.2,23.23-51.73,26-80.52,2.66-27.84,10.72-54.19,22-79.72,4-9.13,6.52-19,9.63-28.49a15.71,15.71,0,0,0,.42-4.13c.23-5.43-1.8-9.73-6.68-12.31s-9.13-1.25-13.24,1.89a180.89,180.89,0,0,0-49.22,57.36q-13.17,24-26.57,47.78c-3.95,7-12.45,8.06-16.53,2.09a13.55,13.55,0,0,1-1.89-7.23c-.13-25.4-.77-50.82.12-76.19.9-25.55,3.48-51,5.13-76.55q2.28-35.33,4.08-70.67c.39-7.58-3.76-12.54-10.06-13.18-5.74-.59-10.52,3.51-11.74,10.9-4.35,26.56-8.47,53.16-12.7,79.74q-6.44,40.45-13,80.9c-1.08,6.63-4.54,9.6-10.13,9.35-5.24-.23-8.5-3.55-9-9.78-2.42-28-4.71-56.09-7.09-84.14q-3.9-46.21-7.87-92.43c-.91-10.66-1.75-21.33-2.71-32-.57-6.27-4.7-10.34-10.19-10.25s-9.64,4.44-10.13,10.48c-.15,1.77-.06,3.57-.06,5.35V337.75c0,1.39,0,2.78,0,4.17-.09,6.21-2.9,10.07-7.9,10.87-5.31.86-9.45-2-11.2-8.21Q339.72,302,327.94,259.46c-6.27-22.48-12.47-45-18.93-67.38a18,18,0,0,0-4.73-7.91c-3.45-3.18-7.89-3.6-12.2-1.4-4.91,2.5-7.48,6.8-6.91,12.15,1.38,13,2.54,26,5,38.84,7.39,38.46,15.38,76.8,23.09,115.2,1.06,5.28.31,10-5.16,12.59-4.83,2.32-9.2.75-13.1-4.81q-28.86-41.14-57.65-82.34a33.88,33.88,0,0,0-2.44-3.36c-2.87-3.17-6.17-4.9-10.55-3s-6.66,5.55-5.72,10A60.14,60.14,0,0,0,224,293.58c19.13,36,38.62,71.87,57.73,107.91a30.53,30.53,0,0,1,3.2,12.9c.63,20.21,0,40.49,1.26,60.66,2.47,39,16.53,73.94,40.56,104.72,4.12,5.28,6.16,10.45,6.08,17.26-.34,28.17-.16,56.35-.12,84.53a79.31,79.31,0,0,0,.5,8.29c.79,7.55-3,12.74-9.56,13s-10.57-4.48-10.52-12.17c.19-27.77.09-55.54.68-83.3.18-8.53-2-15.2-7.09-22.24-27.24-37.73-40.91-80-40.7-126.72.06-11.71-.35-23.43.14-35.12.32-7.45-1.65-13.78-5.17-20.23-18.52-33.89-37-67.8-54.82-102.05a64.07,64.07,0,0,1-6.52-23.67c-1.09-13,7.11-23.91,18.82-27.9s24.43-.09,32.24,10.36C256,267,261,274.43,266.08,281.74q9,12.83,18,25.64Z"/><path class="cls-1" d="M324.77,543.38c-8.2.06-13.29-6.28-10.59-12.63,6.55-15.45,12.67-31.25,21-45.71,10.69-18.5,28.17-28.75,48.7-34.35a122.39,122.39,0,0,0,24.54-9.9c10.84-5.71,21.15-12.43,31.61-18.84,4.69-2.87,9.31-3.83,13.54.32s3.4,8.69.65,13.51c-10.34,18.18-21.48,35.72-38.91,48.1-5.47,3.88-10.95,8.22-17.11,10.57-21.75,8.29-39.22,22.81-56.85,37.22-3.84,3.13-7.65,6.3-11.65,9.21A26.59,26.59,0,0,1,324.77,543.38Zm84.55-77.83-.86-1.51c-30.66,5.29-53.58,19.22-58.69,34.66Z"/></svg>